<?xml version="1.0" encoding="UTF-8" standalone="no"?><svg xmlns:dc="http://purl.org/dc/elements/1.1/" xmlns:cc="http://creativecommons.org/ns#" xmlns:rdf="http://www.w3.org/1999/02/22-rdf-syntax-ns#" xmlns="http://www.w3.org/2000/svg" width="48" height="48" viewBox="0 0 12.7 12.7"><metadata><rdf:RDF><cc:Work><dc:format>image/svg+xml</dc:format><dc:type rdf:resource="http://purl.org/dc/dcmitype/StillImage"/><dc:title/></cc:Work></rdf:RDF></metadata><path d="M7.45.02a.17.17 0 0 0-.11.03.1.1 0 0 0-.04.08 1.12 1.12 0 0 1 .7.97h.01v.55c0 .27.23.5.51.5H10.34c.32 0 .6.15.81.38V.52a.5.5 0 0 0-.5-.5H7.87z" fill="#f23333"/><path d="M2.95.6c-.63 0-1.14.51-1.14 1.14v9.9c0 .63.5 1.14 1.14 1.14H9.75c.63 0 1.14-.5 1.14-1.14V3.73h-.01c-.07-.57-.54-1-1.13-1H8.06l-.12-.01a.52.52 0 0 1-.5-.5v-.55h-.01A1.12 1.12 0 0 0 6.35.6h-.02z" fill="#333"/><path d="M6.43 1.14a.5.5 0 0 1 .47.5v.48c0 .57.42 1.03.98 1.1l1.96.03c.28 0 .51.23.51.51v7.99a.5.5 0 0 1-.5.5H2.85a.5.5 0 0 1-.51-.5V1.64c0-.29.23-.51.5-.51h3.58z" fill="#ccc"/><path d="M2.83 2.27v1.06H3.9V2.27zM2.83 3.86v1.06H3.9V3.86zM2.83 5.45V6.5H3.9V5.45zM2.83 7.04v1.05H3.9V7.04zM2.83 8.62v1.06H3.9V8.62zM2.83 10.21v1.06H3.9v-1.06zM8.79 3.86v1.06h1.06V3.86zM8.79 5.45V6.5h1.06V5.45zM8.79 7.04v1.05h1.06V7.04zM8.79 8.62v1.06h1.06V8.62zM8.79 10.21v1.06h1.06v-1.06z" color="#000" fill="#f23333"/><path d="M8.3 5.56v.96c-.98.01-1.22.95-1.22.95h.74v.95H6.67C6 10.5 4.4 10.32 4.4 10.32v-.96s1 .18 1.52-1.65C6.56 5.42 8.3 5.56 8.3 5.56" color="#000" opacity=".75" fill="red"/></svg>