<svg xmlns="http://www.w3.org/2000/svg" width="48" height="48" viewBox="0 0 12.7 12.7"><path d="M7.35.06a.17.17 0 00-.1.03.1.1 0 00-.05.08 1.12 1.12 0 01.71.97v.55c0 .27.23.5.52.5h1.81c.33 0 .6.15.81.38V.56a.5.5 0 00-.5-.5H7.79z" fill="#927070"/><path d="M2.95.55c-.63 0-1.14.5-1.14 1.14v9.9c0 .63.5 1.13 1.14 1.13h6.8c.63 0 1.14-.5 1.14-1.13V3.67h-.01c-.07-.56-.54-1-1.13-1H7.94a.52.52 0 01-.5-.51V1.6h-.01A1.12 1.12 0 006.35.55h-.02z" fill="#333"/><path d="M6.43 1.08a.5.5 0 01.47.5v.48c0 .57.42 1.04.98 1.11l1.96.03c.28 0 .51.22.51.5v7.99a.5.5 0 01-.5.5h-7a.5.5 0 01-.51-.5V1.59c0-.28.23-.5.5-.5h3.58z" fill="#ccc"/><path class="ColorScheme-Background" d="M4.168 5.755a.73.73 0 00-.728.727v2.91c0 .4.328.728.728.728h4.365a.73.73 0 00.727-.727v-2.91a.73.73 0 00-.727-.728zm0 .363h4.365c.205 0 .364.16.364.364v2.91a.36.36 0 01-.364.365H4.168a.36.36 0 01-.365-.364v-2.91a.36.36 0 01.365-.365zm.18.727a.182.182 0 00-.114.324l2 1.637a.182.182 0 00.232 0l2-1.637a.182.182 0 10-.23-.282L6.35 8.43 4.465 6.887a.182.182 0 00-.117-.042z" color="#fff" fill="#916f6f" fill-opacity=".983"/></svg>