<svg xmlns="http://www.w3.org/2000/svg" width="48" height="48" viewBox="0 0 12.7 12.7"><path d="M7.35.06a.17.17 0 00-.1.03.1.1 0 00-.05.08 1.12 1.12 0 01.71.97v.55c0 .27.23.5.52.5h1.81c.33 0 .6.15.81.38V.56a.5.5 0 00-.5-.5H7.79z" fill="#d45500"/><path d="M2.95.55c-.63 0-1.14.5-1.14 1.14v9.9c0 .63.5 1.13 1.14 1.13h6.8c.63 0 1.14-.5 1.14-1.13V3.67h-.01c-.07-.56-.54-1-1.13-1H7.94a.52.52 0 01-.5-.51V1.6h-.01A1.12 1.12 0 006.35.55h-.02z" fill="#333"/><path d="M6.43 1.08a.5.5 0 01.47.5v.48c0 .57.42 1.04.98 1.11l1.96.03c.28 0 .51.22.51.5v7.99a.5.5 0 01-.5.5h-7a.5.5 0 01-.51-.5V1.59c0-.28.23-.5.5-.5h3.58z" fill="#ccc"/><path d="M5.898 5.902l3.154 3.133c.07.07.07.185 0 .256l-1.877 1.877a.18.18 0 01-.257 0L3.785 8.015a.78.78 0 01-.19-.463V5.895c0-.101.082-.184.183-.184h1.658c.144 0 .36.089.462.19zm-2.12-.49a.482.482 0 00-.482.483v1.657c0 .223.12.515.277.673l3.133 3.154a.479.479 0 00.68 0l1.877-1.877a.48.48 0 000-.68L6.108 5.69a1.069 1.069 0 00-.673-.277zm.859 1.74a.373.373 0 100-.747.373.373 0 000 .746z" fill="#d45500" fill-rule="evenodd"/></svg>