<?xml version="1.0" encoding="UTF-8" standalone="no"?><svg xmlns:dc="http://purl.org/dc/elements/1.1/" xmlns:cc="http://creativecommons.org/ns#" xmlns:rdf="http://www.w3.org/1999/02/22-rdf-syntax-ns#" xmlns="http://www.w3.org/2000/svg" width="48" height="48" viewBox="0 0 12.7 12.7"><metadata><rdf:RDF><cc:Work><dc:format>image/svg+xml</dc:format><dc:type rdf:resource="http://purl.org/dc/dcmitype/StillImage"/><dc:title/></cc:Work></rdf:RDF></metadata><path d="M7.35.06a.17.17 0 0 0-.1.03.1.1 0 0 0-.05.08 1.12 1.12 0 0 1 .71.97v.55c0 .27.23.5.52.5h1.81c.33 0 .6.15.81.38V.56a.5.5 0 0 0-.5-.5H7.79z" fill="#336"/><path d="M2.95.55c-.63 0-1.14.5-1.14 1.14v9.9c0 .63.5 1.13 1.14 1.13H9.75c.63 0 1.14-.5 1.14-1.13V3.67h-.01c-.07-.56-.54-1-1.13-1H7.94a.52.52 0 0 1-.5-.51V1.6h-.01A1.12 1.12 0 0 0 6.35.55h-.02z" fill="#333"/><path d="M6.43 1.08a.5.5 0 0 1 .47.5v.48c0 .57.42 1.04.98 1.11l1.96.03c.28 0 .51.22.51.5v7.99a.5.5 0 0 1-.5.5H2.85a.5.5 0 0 1-.51-.5V1.59c0-.28.23-.5.5-.5h3.58z" fill="#ccc"/><path d="M6.34 4.16a.43.43 0 0 0-.04 0 .43.43 0 0 0-.04.01.43.43 0 0 0-.04.01.43.43 0 0 0-.04.02.43.43 0 0 0-.04.02.43.43 0 0 0-.04.02.43.43 0 0 0-.03.03.43.43 0 0 0-.02.02l-3.01 3a.43.43 0 0 0-.03.04.43.43 0 0 0-.03.03.43.43 0 0 0-.02.04.43.43 0 0 0-.02.04.43.43 0 0 0-.01.04.43.43 0 0 0-.01.04.43.43 0 0 0 0 .04.43.43 0 0 0 0 .05.43.43 0 0 0 0 .04.43.43 0 0 0 0 .04.43.43 0 0 0 .01.04.43.43 0 0 0 .02.04.43.43 0 0 0 .02.04.43.43 0 0 0 .02.04.43.43 0 0 0 .03.03.43.43 0 0 0 .02.02l3 3.01a.43.43 0 0 0 .04.03.43.43 0 0 0 .03.03.43.43 0 0 0 .04.02.43.43 0 0 0 .04.02.43.43 0 0 0 .04.01.43.43 0 0 0 .04.01.43.43 0 0 0 .04 0 .43.43 0 0 0 .05.01.43.43 0 0 0 .04 0 .43.43 0 0 0 .04 0 .43.43 0 0 0 .04-.02.43.43 0 0 0 .04-.02.43.43 0 0 0 .04-.01.43.43 0 0 0 .04-.03.43.43 0 0 0 .03-.02.43.43 0 0 0 .02-.03l3.01-3a.43.43 0 0 0 .03-.04.43.43 0 0 0 .03-.03.43.43 0 0 0 .02-.04.43.43 0 0 0 .02-.04.43.43 0 0 0 .01-.04.43.43 0 0 0 .01-.04.43.43 0 0 0 0-.04.43.43 0 0 0 .01-.05.43.43 0 0 0 0-.04.43.43 0 0 0-.01-.04.43.43 0 0 0-.01-.04.43.43 0 0 0-.02-.04.43.43 0 0 0-.02-.04.43.43 0 0 0-.02-.04.43.43 0 0 0-.03-.03.43.43 0 0 0-.02-.02l-3-3.01a.43.43 0 0 0-.04-.03.43.43 0 0 0-.03-.03.43.43 0 0 0-.04-.02.43.43 0 0 0-.04-.02.43.43 0 0 0-.04-.01.43.43 0 0 0-.04-.01.43.43 0 0 0-.04 0 .43.43 0 0 0-.05 0zm0 .42l1.7 1.69a2.95 2.95 0 0 0-.03 0l-.14.45-.12.4c-.23.02-.45.07-.66.16-.2-.17-.42-.42-.62-.6a3.01 3.01 0 0 0-.37.26c.1.25.24.54.33.8-.16.16-.28.36-.38.57-.27 0-.6-.04-.87-.05-.05.14-.09.3-.12.44.24.13.55.25.78.39l-.01.15c0 .18.02.36.06.53l-.23.17L3.33 7.6l.52-.52.08.01c.13.12.08.56.08.9a2 2 0 0 0 .36.12h.07c.18-.29.37-.7.54-.73.17-.03.49.3.76.5.13-.06.25-.15.36-.24-.11-.33-.33-.75-.24-.9.08-.16.55-.2.88-.29l.03-.3-.01-.12c-.32-.12-.78-.21-.85-.37-.07-.17.18-.56.32-.87a2.02 2.02 0 0 0-.05-.05zm-.97.98a.91.91 0 0 1-1.29 1.28zm3.17 1.2l.68.68H9.2c-.19-.12-.4-.2-.63-.26a7.86 7.86 0 0 1-.04-.42zm-.55 1.4c.23 0 .45.08.62.2l-1.5 1.5a1.08 1.08 0 0 1 .88-1.7zM6.25 10.5l.1.1v.02l-.11-.12z" overflow="visible" fill="#336"/></svg>