<?xml version="1.0" encoding="UTF-8" standalone="no"?><svg xmlns:dc="http://purl.org/dc/elements/1.1/" xmlns:cc="http://creativecommons.org/ns#" xmlns:rdf="http://www.w3.org/1999/02/22-rdf-syntax-ns#" xmlns="http://www.w3.org/2000/svg" width="48" height="48" viewBox="0 0 12.7 12.7"><metadata><rdf:RDF><cc:Work><dc:format>image/svg+xml</dc:format><dc:type rdf:resource="http://purl.org/dc/dcmitype/StillImage"/><dc:title/></cc:Work></rdf:RDF></metadata><path d="M7.35.06a.17.17 0 0 0-.1.03.1.1 0 0 0-.05.08 1.12 1.12 0 0 1 .71.97v.55c0 .27.23.5.52.5h1.81c.33 0 .6.15.81.38V.56a.5.5 0 0 0-.5-.5H7.79z" fill="#511717"/><path d="M2.95.55c-.63 0-1.14.5-1.14 1.14v9.9c0 .63.5 1.13 1.14 1.13H9.75c.63 0 1.14-.5 1.14-1.13V3.67h-.01c-.07-.56-.54-1-1.13-1H7.94a.52.52 0 0 1-.5-.51V1.6h-.01A1.12 1.12 0 0 0 6.35.55h-.02z" fill="#333"/><path d="M6.43 1.08a.5.5 0 0 1 .47.5v.48c0 .57.42 1.04.98 1.11l1.96.03c.28 0 .51.22.51.5v7.99a.5.5 0 0 1-.5.5H2.85a.5.5 0 0 1-.51-.5V1.59c0-.28.23-.5.5-.5h3.58z" fill="#ccc"/><path d="M7.81 5.2a.39.39 0 0 0-.2.04c-.07.02-.13.06-.21.1A5.89 5.89 0 0 0 5.82 6.7a.16.16 0 0 0-.02.16c.1.24.28.5.5.8L3.11 10.6v.64h.68l.23-.21v-.43h.46l.23-.2h.45l.23-.22v-.42l.23-.22h.46v-.42l.86-.8.17.16c.28.21.55.4.8.5.04.02.1.01.15-.02A6.83 6.83 0 0 0 9.49 7.3c.06-.12.1-.2.09-.33-.03-.2-.17-.35-.32-.53l-.45-.47-.47-.45c-.18-.15-.33-.3-.53-.32zm.36 1.06c.04 0 .07 0 .1.02.03 0 .06.02.1.04a.34.34 0 0 1 .07.07.35.35 0 1 1-.27-.13z" color="#000" fill="#501616" fill-opacity=".99"/></svg>