<?xml version="1.0" encoding="UTF-8" standalone="no"?><svg xmlns:dc="http://purl.org/dc/elements/1.1/" xmlns:cc="http://creativecommons.org/ns#" xmlns:rdf="http://www.w3.org/1999/02/22-rdf-syntax-ns#" xmlns="http://www.w3.org/2000/svg" width="48" height="48" viewBox="0 0 12.7 12.7"><metadata><rdf:RDF><cc:Work><dc:format>image/svg+xml</dc:format><dc:type rdf:resource="http://purl.org/dc/dcmitype/StillImage"/><dc:title/></cc:Work></rdf:RDF></metadata><path d="M7.34.5c-.05 0-.1.01-.13.03-.03.02-.04.04-.05.07v.99c.18.05.33.12.46.22.24.17.39.4.4.66h.02v.48c0 .26.27.46.61.46h2.21c.4 0 .75.14 1 .35V.97a.4.4 0 0 0-.18-.33.74.74 0 0 0-.44-.14H7.88z" fill="#06f"/><path d="M2.01 2C1.23 2 .6 2.42.6 2.97v8.67c0 .55.63.99 1.41.99h8.47c.79 0 1.42-.44 1.42-1V4.73h-.02c-.08-.5-.67-.88-1.4-.88H8.23c-.35-.01-.63-.2-.63-.45V2.92h-.01c-.04-.5-.62-.9-1.34-.93h-.03z" fill="#333"/><path d="M6.34 2.59c.33.01.59.2.59.43v.4c0 .49.53.88 1.22.95l2.44.02c.35 0 .63.2.63.43V11.61c0 .24-.28.43-.63.43H1.9c-.35 0-.63-.2-.63-.43V3.02c0-.24.28-.43.63-.43h4.44z" fill="#ccc"/><path d="M2.64 2.58v5.7c0 .17.07.31.18.42a.69.69 0 0 0-.3.56v1.38a.69.69 0 0 0 1.38 0V9.26a.69.69 0 0 0-.3-.56c.12-.1.18-.25.18-.41v-5.7H3.5v.28H3.2v.28h.29v.29H3.2v.29h.29V4H3.2v.29h.29v.28H3.2v.29h.29v.28H3.2v.29h.29v.28H3.2v.29h.29v.28H3.2v.29h.29v.28H3.2v.29h.29v.28H3.2v.29h.29V8H3.2v.29h.29v.28H3.2V8.3h-.28V8h.28v-.28h-.28v-.29h.28v-.28h-.28v-.29h.28v-.28h-.28v-.29h.28v-.28h-.28v-.29h.28v-.28h-.28v-.29h.28v-.28h-.28v-.29h.28V4.3h-.28V4h.28v-.28h-.28v-.29h.28v-.29h-.28v-.28h.28v-.29zm.57 6.34c.2 0 .35.14.35.34 0 .17-.16.35-.35.35a.36.36 0 0 1-.34-.35c0-.2.15-.34.34-.34zm0 1.03c.2 0 .35.16.35.35v.34a.34.34 0 1 1-.7 0v-.34c0-.2.16-.35.35-.35z" fill="#06f"/></svg>