<svg xmlns="http://www.w3.org/2000/svg" width="48" height="48" viewBox="0 0 12.7 12.7"><path d="M7.35.06a.17.17 0 00-.1.03.1.1 0 00-.05.08 1.12 1.12 0 01.71.97v.55c0 .27.23.5.52.5h1.81c.33 0 .6.15.81.38V.56a.5.5 0 00-.5-.5H7.79z" fill="#d33afa"/><path d="M2.95.55c-.63 0-1.14.5-1.14 1.14v9.9c0 .63.5 1.13 1.14 1.13h6.8c.63 0 1.14-.5 1.14-1.13V3.67h-.01c-.07-.56-.54-1-1.13-1H7.94a.52.52 0 01-.5-.51V1.6h-.01A1.12 1.12 0 006.35.55h-.02z" fill="#333"/><path d="M6.43 1.08a.5.5 0 01.47.5v.48c0 .57.42 1.04.98 1.11l1.96.03c.28 0 .51.22.51.5v7.99a.5.5 0 01-.5.5h-7a.5.5 0 01-.51-.5V1.59c0-.28.23-.5.5-.5h3.58z" fill="#ccc"/><path style="line-height:normal;text-indent:0;text-align:start;text-decoration-line:none;text-transform:none;marker:none" d="M5.748 5.293c-.415 0-.693.07-.834.207-.14.136-.21.41-.21.823v.671c0 .278-.045.472-.135.58-.089.106-.252.16-.49.16h-.153v.4h.153c.236 0 .4.054.49.162.09.108.135.303.135.585v.668c0 .412.07.688.21.826.141.138.42.207.834.207h.155v-.403h-.17c-.235 0-.388-.042-.46-.123-.072-.083-.108-.255-.108-.518v-.694c0-.29-.037-.503-.112-.635-.075-.133-.205-.223-.39-.274.183-.046.313-.136.387-.269.077-.132.115-.345.115-.638v-.694c0-.263.036-.435.108-.518.071-.082.225-.122.46-.122h.17v-.4zm1.049 0v.4h.175c.233 0 .385.041.455.123.071.08.108.253.108.518v.694c0 .293.036.506.112.638.074.133.204.223.39.269-.186.05-.316.141-.39.274-.076.132-.112.344-.112.635v.694c0 .267-.037.44-.108.521-.07.08-.222.12-.455.12h-.175v.403h.158c.414 0 .69-.07.829-.207.14-.138.21-.414.21-.826v-.668c0-.282.045-.477.135-.585.09-.109.253-.163.49-.163h.155v-.4h-.155c-.237 0-.4-.053-.49-.16-.09-.108-.135-.3-.135-.579v-.67c0-.413-.07-.687-.21-.824-.138-.138-.415-.207-.83-.207z" fill="#d33afa"/></svg>