<svg xmlns="http://www.w3.org/2000/svg" width="48" height="48" viewBox="0 0 12.7 12.7"><path d="M7.35.06a.17.17 0 00-.1.03.1.1 0 00-.05.08 1.12 1.12 0 01.71.97v.55c0 .27.23.5.52.5h1.81c.33 0 .6.15.81.38V.56a.5.5 0 00-.5-.5H7.79z" fill="#2c89a0"/><path d="M2.95.55c-.63 0-1.14.5-1.14 1.14v9.9c0 .63.5 1.13 1.14 1.13h6.8c.63 0 1.14-.5 1.14-1.13V3.67h-.01c-.07-.56-.54-1-1.13-1H7.94a.52.52 0 01-.5-.51V1.6h-.01A1.12 1.12 0 006.35.55h-.02z" fill="#333"/><path d="M6.43 1.08a.5.5 0 01.47.5v.48c0 .57.42 1.04.98 1.11l1.96.03c.28 0 .51.22.51.5v7.99a.5.5 0 01-.5.5h-7a.5.5 0 01-.51-.5V1.59c0-.28.23-.5.5-.5h3.58z" fill="#ccc"/><path style="line-height:normal;text-indent:0;text-align:start;text-decoration-line:none;text-transform:none;marker:none" d="M5.665 3.757v1.37h-.727L6.35 6.723l1.412-1.598h-.727V3.757zM6.1 6.952c-.04 0-.064.067-.064.15v.52a1.424 1.424 0 00-.442.186l-.37-.371c-.059-.058-.122-.085-.15-.058l-.35.35c-.028.028-.001.091.057.15l.371.37a1.424 1.424 0 00-.185.443h-.521c-.083 0-.15.024-.15.064v.499c0 .04.067.064.15.064h.52c.037.159.102.309.186.442l-.37.371c-.06.058-.086.122-.058.15l.35.35c.027.027.091 0 .15-.058l.37-.37a1.423 1.423 0 00.442.185v.52c0 .083.025.15.064.15h.5c.04 0 .064-.067.064-.15v-.52a1.422 1.422 0 00.442-.185l.37.37c.059.059.122.085.15.057l.35-.35c.028-.027.001-.09-.057-.149l-.371-.37a1.424 1.424 0 00.185-.443h.521c.083 0 .15-.025.15-.064v-.5c0-.039-.067-.063-.15-.063h-.52a1.424 1.424 0 00-.186-.443l.37-.37c.06-.059.086-.122.058-.15l-.35-.35c-.027-.027-.091 0-.15.058l-.37.37a1.424 1.424 0 00-.442-.185v-.52c0-.083-.025-.15-.064-.15zm.25 1.42a.637.637 0 01.635.634.637.637 0 01-.635.634.637.637 0 01-.635-.634.637.637 0 01.635-.635z" fill="#2c89a0"/></svg>