<?xml version="1.0" encoding="UTF-8" standalone="no"?><svg xmlns:dc="http://purl.org/dc/elements/1.1/" xmlns:cc="http://creativecommons.org/ns#" xmlns:rdf="http://www.w3.org/1999/02/22-rdf-syntax-ns#" xmlns="http://www.w3.org/2000/svg" width="48" height="48" viewBox="0 0 12.7 12.7"><metadata><rdf:RDF><cc:Work><dc:format>image/svg+xml</dc:format><dc:type rdf:resource="http://purl.org/dc/dcmitype/StillImage"/><dc:title/></cc:Work></rdf:RDF></metadata><path d="M7.35.06a.17.17 0 0 0-.1.03.1.1 0 0 0-.05.08 1.12 1.12 0 0 1 .71.97v.55c0 .27.23.5.52.5h1.81c.33 0 .6.15.81.38V.56a.5.5 0 0 0-.5-.5H7.79z" fill="#a40"/><path d="M2.95.55c-.63 0-1.14.5-1.14 1.14v9.9c0 .63.5 1.13 1.14 1.13H9.75c.63 0 1.14-.5 1.14-1.13V3.67h-.01c-.07-.56-.54-1-1.13-1H7.94a.52.52 0 0 1-.5-.51V1.6h-.01A1.12 1.12 0 0 0 6.35.55h-.02z" fill="#333"/><path d="M6.43 1.08a.5.5 0 0 1 .47.5v.48c0 .57.42 1.04.98 1.11l1.96.03c.28 0 .51.22.51.5v7.99a.5.5 0 0 1-.5.5H2.85a.5.5 0 0 1-.51-.5V1.59c0-.28.23-.5.5-.5h3.58z" fill="#ccc"/><path d="M3.7 5.56a.26.26 0 0 0-.26.26v5.3c0 .14.12.26.26.26H9c.14 0 .26-.12.26-.27V5.82A.26.26 0 0 0 9 5.56zm0 .26H9v5.3H3.7zm3.18.53v1.06h1.06c0-.59-.48-1.06-1.06-1.06m-.53.26a1.32 1.32 0 0 0-1.32 1.33 1.32 1.32 0 0 0 1.32 1.32 1.32 1.32 0 0 0 1.32-1.32 1.32 1.32 0 0 0-.02-.27H6.6V6.64a1.32 1.32 0 0 0-.26-.03m0 .27v1.06h1.06A1.06 1.06 0 0 1 6.35 9a1.06 1.06 0 0 1-1.06-1.06 1.06 1.06 0 0 1 1.06-1.06m-2.12 2.9v.27h4.24V9.8zm0 .54v.26h4.24v-.26z" color="#000" fill="#a40"/><path style="line-height:normal;text-indent:0;text-align:start;text-decoration-line:none;text-transform:none;marker:none" d="M4.32 1.9h-.46v2.65h.59V3.7c0-.03-.02-.1.02-.1.29 0 .6-.02.85-.19a.8.8 0 0 0 .34-.7.85.85 0 0 0-.11-.45c-.16-.25-.48-.35-.77-.37h-.46zm.13.46h.13c.17 0 .38.03.45.2.06.14.06.32-.05.45-.13.14-.35.14-.53.14z" fill="#a40"/></svg>