<svg xmlns="http://www.w3.org/2000/svg" width="48" height="48" viewBox="0 0 12.7 12.7"><path d="M7.35.06a.17.17 0 00-.1.03.1.1 0 00-.05.08 1.12 1.12 0 01.71.97v.55c0 .27.23.5.52.5h1.81c.33 0 .6.15.81.38V.56a.5.5 0 00-.5-.5H7.79z" fill="#2e5117"/><path d="M2.95.55c-.63 0-1.14.5-1.14 1.14v9.9c0 .63.5 1.13 1.14 1.13h6.8c.63 0 1.14-.5 1.14-1.13V3.67h-.01c-.07-.56-.54-1-1.13-1H7.94a.52.52 0 01-.5-.51V1.6h-.01A1.12 1.12 0 006.35.55h-.02z" fill="#333"/><path d="M6.43 1.08a.5.5 0 01.47.5v.48c0 .57.42 1.04.98 1.11l1.96.03c.28 0 .51.22.51.5v7.99a.5.5 0 01-.5.5h-7a.5.5 0 01-.51-.5V1.59c0-.28.23-.5.5-.5h3.58z" fill="#ccc"/><path d="M4.762 5.027c-.288 0-.529.24-.529.53V8.73h-.529v.667c0 .165.112.243.175.28.063.035.12.052.182.067.126.03.273.045.437.045h3.704c.166 0 .314-.017.439-.048a.679.679 0 00.178-.066.357.357 0 00.1-.078.307.307 0 00.077-.2V8.73h-.53V5.556c0-.288-.24-.54-.528-.529H4.763zm0 .265h3.175c.147 0 .265.118.265.264v3.175H4.498V5.556c0-.146.118-.264.264-.264zm0 .264v2.91h3.175v-2.91zm.265.265h2.646v2.381H5.027zm1.323.765c-.199 0-.394.054-.576.136l.576.874.576-.874a1.419 1.419 0 00-.576-.136zm-2.381 2.41h.264v.265h.265v-.265H8.73v.402c0 .064-.236.127-.529.127H4.498c-.293 0-.53-.057-.53-.127z" class="ColorScheme-Background" color="#fff" fill="#2d5016" fill-opacity=".992"/></svg>