<svg xmlns="http://www.w3.org/2000/svg" width="48" height="48" viewBox="0 0 12.7 12.7"><path d="M7.34.5c-.05 0-.1.01-.13.03-.03.02-.04.04-.05.07v.99c.18.05.33.12.46.22.24.17.39.4.4.66h.02v.48c0 .26.27.46.61.46h2.21c.4 0 .75.14 1 .35V.97a.4.4 0 00-.18-.33.74.74 0 00-.44-.14H7.88z" fill="#8d5fd3"/><path d="M2.01 2C1.23 2 .6 2.42.6 2.97v8.67c0 .55.63.99 1.41.99h8.47c.79 0 1.42-.44 1.42-1v-6.9h-.02c-.08-.5-.67-.88-1.4-.88H8.23c-.35-.01-.63-.2-.63-.45v-.48h-.01c-.04-.5-.62-.9-1.34-.93h-.03z" fill="#333"/><path d="M6.34 2.59c.33.01.59.2.59.43v.4c0 .49.53.88 1.22.95l2.44.02c.35 0 .63.2.63.43v6.79c0 .24-.28.43-.63.43H1.9c-.35 0-.63-.2-.63-.43V3.02c0-.24.28-.43.63-.43h4.44z" fill="#ccc"/><path d="M4.757 5.18c-.742 0-1.418.212-1.909.56-.491.346-.8.834-.8 1.376 0 .54.309 1.026.8 1.373.188.132.406.24.642.33-.1.44-.207.732-.567 1.253l-.146.207.234-.106c.64-.288 1.094-.619 1.522-1.135.074.006.148.01.224.01.742 0 1.414-.213 1.905-.56.491-.346.8-.83.8-1.372 0-.542-.309-1.03-.8-1.377-.491-.347-1.163-.559-1.905-.559z" fill="#8d5fd3"/></svg>