<?xml version="1.0" encoding="UTF-8" standalone="no"?><svg xmlns:dc="http://purl.org/dc/elements/1.1/" xmlns:cc="http://creativecommons.org/ns#" xmlns:rdf="http://www.w3.org/1999/02/22-rdf-syntax-ns#" xmlns="http://www.w3.org/2000/svg" width="48" height="48" viewBox="0 0 12.7 12.7"><metadata><rdf:RDF><cc:Work><dc:format>image/svg+xml</dc:format><dc:type rdf:resource="http://purl.org/dc/dcmitype/StillImage"/><dc:title/></cc:Work></rdf:RDF></metadata><path d="M7.34.5c-.05 0-.1.01-.13.03-.03.02-.04.04-.05.07v.99c.18.05.33.12.46.22.24.17.39.4.4.66h.02v.48c0 .26.27.46.61.46h2.21c.4 0 .75.14 1 .35V.97a.4.4 0 0 0-.18-.33.74.74 0 0 0-.44-.14H7.88z" fill="#892ca0"/><path d="M2.01 2C1.23 2 .6 2.42.6 2.97v8.67c0 .55.63.99 1.41.99h8.47c.79 0 1.42-.44 1.42-1V4.73h-.02c-.08-.5-.67-.88-1.4-.88H8.23c-.35-.01-.63-.2-.63-.45V2.92h-.01c-.04-.5-.62-.9-1.34-.93h-.03z" fill="#333"/><path d="M6.34 2.59c.33.01.59.2.59.43v.4c0 .49.53.88 1.22.95l2.44.02c.35 0 .63.2.63.43V11.61c0 .24-.28.43-.63.43H1.9c-.35 0-.63-.2-.63-.43V3.02c0-.24.28-.43.63-.43h4.44z" fill="#ccc"/><path d="M8.75 4.35v2.86c0 .16.07.3.18.4a.69.69 0 0 0-.3.57v1.38a.69.69 0 0 0 1.38 0V8.18a.69.69 0 0 0-.3-.56c.11-.1.18-.25.18-.41V4.35h-.28v.29h-.29v.28h.29v.29h-.29s.01.18 0 .28h.29v.29h-.29v.28h.29v.29h-.29v.29h.29v.28h-.29v.29h.29v.28h-.29v-.28h-.28v-.29h.28v-.28h-.28v-.29h.28v-.29h-.28v-.28h.28v-.29h-.28v-.28h.28v-.29h-.28v-.28h.28v-.29h-.28zm.57 3.49c.2 0 .35.13.35.34 0 .17-.16.34-.35.34a.36.36 0 0 1-.34-.34c0-.2.15-.34.34-.34zm0 1.03c.2 0 .35.15.35.34v.35a.34.34 0 0 1-.7 0V9.2c0-.19.16-.34.35-.34zM5.28 4.9l-.16.01.16-.01zm-.39.04c-.03-.03-.33.1-.28.02a4.26 4.26 0 0 0-.77.36 1.96 1.96 0 0 0-.53.43c-.18.16-.22.42-.38.6-.14.16-.22.5-.3.74.04.2 0 .43.01.64-.05.89.35 1.77 1 2.36.44.43 1.04.71 1.66.67-.2-.07-.46-.04-.64-.2-.06-.05-.16-.17-.2-.18.1.16-.2-.1-.27-.09.11-.1-.18-.13-.2-.27-.16.06-.2-.3-.25-.23-.05-.07-.32-.35-.2-.37-.13-.11-.14-.27-.24-.46.13.15.1 0 .02-.11-.1-.08-.35-.23-.26-.36-.06-.08-.08-.16-.05-.26-.13-.25-.07-.55-.05-.82 0-.18.03-.36.13-.52.01-.07.17-.22.06-.24a2.33 2.33 0 0 1 .56-.58c.04-.04.38-.16.2-.13.04-.14.36-.18.5-.25-.25.06.02-.03.12-.1.04-.07.52-.14.26-.06.03-.01.44-.1.63-.04.47.04.88.37 1.12.77.12.18.16.43.21.62 0 .22.03.44-.04.65.1-.23 0 .2-.04.26-.18.06-.06.3-.27.37-.06.07-.36.28-.21.1a.74.74 0 0 1-.41.23c-.58.18-1.22-.37-1.2-.96-.05.07-.05-.07-.03-.15a.86.86 0 0 1 1.04-.73c.1-.03.47.3.28.1-.33-.36-1-.3-1.24.14-.13.1-.15.28-.23.41-.05.28-.02.6.15.83.1.2.39.3.46.49-.13-.01-.48-.42-.3-.18.22.23-.09-.04-.15-.13-.16-.18-.03.05.05.11.3.28.74.5 1.15.38-.25-.02-.56.01-.74-.2.34.11.75.15 1.1-.01.23-.1.42-.28.59-.43-.03.24.02-.15.1-.2.08.17.04-.05.11-.12.08-.1.14-.57.13-.23-.07.25.04-.05.01-.14-.02-.17.03-.04.05.05-.05-.12.1-.36.04-.39-.06-.16 0-.25-.1-.42.15.22.03-.14 0-.22-.07.03-.16-.21 0-.17.1-.01.17.33.22.44.08.3-.02-.15-.05-.22-.02-.06-.08-.36.02-.18a1.8 1.8 0 0 0-.6-.86c-.06-.07-.44-.33-.22-.12-.13-.06-.23-.24-.41-.16-.14-.04-.28-.12-.42-.16-.2-.1-.19-.01-.36-.03-.08.02-.38.05-.14-.01.26-.05-.2-.06.02-.03.07.03-.14.03-.18.02-.14 0-.18 0-.04-.07zM2.75 6.15v.05c-.13.24.16-.05 0-.05zm-.1.45c-.13.24-.01.28 0 0zm3.45.65l-.02.03c-.01.2.1.03.02-.03zm1.07.3c-.05.19-.09.39-.18.57.1-.17.16-.38.18-.58zm-1.12.06c-.04.07-.06.2-.16.21.02.08.18-.1.16-.21zm-.1.06l-.06.07a.15.15 0 0 0 0 .08c.01-.06.09-.17.06-.15zm-.3.31A.56.56 0 0 1 5.5 8c-.28-.04.11.17.16-.02zM4.42 8c0 .04.03.08.04.12.13.22.02-.04-.04-.12zm-.08.14c-.04.12.12.23.19.32a3.81 3.81 0 0 0-.19-.32z" fill="#892ca0"/></svg>