<svg xmlns="http://www.w3.org/2000/svg" width="48" height="48" viewBox="0 0 12.7 12.7"><path d="M7.45.02a.17.17 0 0 0-.11.03.1.1 0 0 0-.04.08 1.12 1.12 0 0 1 .7.97h.01v.55c0 .27.23.5.51.5h1.82c.32 0 .6.15.81.38V.52a.5.5 0 0 0-.5-.5H7.87z" fill="#ff7f2a"/><path d="M2.95.6c-.63 0-1.14.51-1.14 1.14v9.9c0 .63.5 1.14 1.14 1.14h6.8c.63 0 1.14-.5 1.14-1.14V3.73h-.01c-.07-.57-.54-1-1.13-1H8.06l-.12-.01a.52.52 0 0 1-.5-.5v-.55h-.01A1.12 1.12 0 0 0 6.35.6h-.02z" fill="#333"/><path d="M6.43 1.14a.5.5 0 0 1 .47.5v.48c0 .57.42 1.03.98 1.1l1.96.03c.28 0 .51.23.51.51v7.99a.5.5 0 0 1-.5.5h-7a.5.5 0 0 1-.51-.5V1.64a.5.5 0 0 1 .5-.51h3.58z" fill="#ccc"/><path style="line-height:normal;text-indent:0;text-align:start;text-decoration-line:none;text-transform:none;marker:none" d="M4.76 4.76a.4.4 0 0 0 0 .8.4.4 0 0 0 0-.8zm2.78 0zm0 0l-.79.8 1.19 1.19-1.2 1.19.8.8 1.2-1.2.79-.8zM3.77 7.14a.6.6 0 1 0 0 1.2.6.6 0 1 0 0-1.2zm1.79 2.39a.8.8 0 0 0 0 1.58.8.8 0 0 0 0-1.58z" fill="#ff7f2a"/></svg>