<?xml version="1.0" encoding="UTF-8" standalone="no"?><svg xmlns:dc="http://purl.org/dc/elements/1.1/" xmlns:cc="http://creativecommons.org/ns#" xmlns:rdf="http://www.w3.org/1999/02/22-rdf-syntax-ns#" xmlns="http://www.w3.org/2000/svg" width="48" height="48" viewBox="0 0 12.7 12.7"><metadata><rdf:RDF><cc:Work><dc:format>image/svg+xml</dc:format><dc:type rdf:resource="http://purl.org/dc/dcmitype/StillImage"/><dc:title/></cc:Work></rdf:RDF></metadata><path d="M7.35.06a.17.17 0 0 0-.1.03.1.1 0 0 0-.05.08 1.12 1.12 0 0 1 .71.97v.55c0 .27.23.5.52.5h1.81c.33 0 .6.15.81.38V.56a.5.5 0 0 0-.5-.5H7.79z" fill="#501616"/><path d="M2.95.55c-.63 0-1.14.5-1.14 1.14v9.9c0 .63.5 1.13 1.14 1.13H9.75c.63 0 1.14-.5 1.14-1.13V3.67h-.01c-.07-.56-.54-1-1.13-1H7.94a.52.52 0 0 1-.5-.51V1.6h-.01A1.12 1.12 0 0 0 6.35.55h-.02z" fill="#333"/><path d="M6.43 1.08a.5.5 0 0 1 .47.5v.48c0 .57.42 1.04.98 1.11l1.96.03c.28 0 .51.22.51.5v7.99a.5.5 0 0 1-.5.5H2.85a.5.5 0 0 1-.51-.5V1.59c0-.28.23-.5.5-.5h3.58z" fill="#ccc"/><path d="M9.62 5.34a.16.16 0 0 0-.12.05c-.8.95-1.85 2.1-2.4 2.85-.44.56-.59.9-.78 1.25l-.03-.02a.7.7 0 0 0-.15.2.7.7 0 0 0-.15.21.73.73 0 0 0-.15.21.75.75 0 0 0-.15.21l.07.06c-.1.12-.32.23-.5.41-.33.3-.54.64-1 .7.38.3 1.18.16 1.47-.18.2-.23.2-.49.28-.74l.07.06a.72.72 0 0 0 .17-.2.7.7 0 0 0 .16-.2.68.68 0 0 0 .16-.2.66.66 0 0 0 .16-.2c.3-.29.57-.52 1-1.09.56-.74 1.4-2.06 2.1-3.09.03-.05.02-.18-.07-.24a.22.22 0 0 0-.14-.05z" fill="#501616" fill-rule="evenodd"/><path d="M5.43 2.69c0-.02 0-.04-.02-.04-.03 0-.05.04-.09.04l-.28-.07c-.29.04 0 .1-.12.08 0 .2-.04.14.08.09v.01l-.08.01c-.17.01-.07-.02-.19.03-.02 0-.05-.01-.07 0-.15.1-.22.2-.2.4a.4.4 0 0 0 .12.21c.08.09.16.09.26.1l-.03.25c-.04.05-.13.05-.16.1-.02.07.13.26.17.28.05.01.1-.02.14-.03 0-.06.06-.16 0-.17-.17-.05-.34.01-.51.03l-.06.02c.22-.09.36-.18.62-.1.07.03.1.12.15.17.12.05.2.1.35.08.26-.04.04-.1.29-.1.04 0 .13.04.17.06l.14.06c.1.06.3.2.37.29.06.08.1.18.13.28.18.75-.14-.1.07.41.07.13.12.17.1.32-.01.08-.05.15-.07.23v.24c-.01.07-.06.14-.05.2.01.07.07.12.1.17.01.03.02.08.04.1l.14.07H7c-.23.19-.41.46-.7.54-.11.04-.14-.18-.21-.28-.25-.06-.4-.15-.66-.04-.4.18-.04.14-.32.3-.04.03-.08.02-.12.02l-.17.03c-.04.03-.09.05-.11.1-.03.04.14.1.18.05.1-.13.18-.3.2-.46.01-.1-.12-.43-.1-.31 0 .12.07.24.1.37l-.38.58c.03-.02.06-.08.1-.07.04.01-.07.12-.06.09.02-.09.07-.17.1-.25l-.01.02-.1.12c-.05.07-.08.14-.14.2a.64.64 0 0 1-.18.15c-.12.06-.3.02-.37.18-.1.23-.04.2.06.2l.1-.18-.01-.02c-.14.24-.1.22-.19.48-.02.08-.07.15-.07.23 0 .07.06.12.09.19.12.09.07.1.22.05v-.01a8.9 8.9 0 0 0-.17.3c-.03.06-.04.12-.06.19.05.22 0 .12.14.28l.06.06h.05v.01c-.03-.05-.04-.1-.06-.16-.03 0-.07-.05-.1-.02-.06.1.19.29.2.3.04.06.06.14.12.2s.17.08.22.15c.05.06.04.14.06.2 0 0 .15.08.18.06l.01-.04-.01.08c0 .02.02.03.03.05v.06c.42-.18-.03.29.04.24.03-.02.04-.06.06-.08l.02-.02s-.02 0-.02.02l.02.12.06.15v.04c.01.01.05.02.04 0-.05-.08-.08-.19-.17-.24-.18-.1-.39-.1-.58-.16.78-.31 1.22.79.44 1.1-.2-.03-.43.01-.62-.08-.1-.05-.12-.2-.15-.3-.01-.04.13-.09.05-.15-.02-.01-.03.03-.05.04.09-.02-.02.01-.05-.02-.02-.01 0-.04 0-.06 0-.08-.05-.2 0-.22.02-.01 0 .03 0 .05L4 10.87c-.02-.02-.05-.02-.07-.03-.01 0-.03 0-.04-.02-.05-.12 0-.2.05-.3.01-.03.06-.14.05-.17-.01-.05-.05-.08-.1-.11-.03-.03-.08-.05-.13-.07-.4-.15-.11.02-.5-.25l-.14-.25.02-.03.03-.03c.04-.02.1-.02.13-.06.06-.07 0-.21.06-.28-.02-.06-.02-.13-.05-.18-.04-.06-.1-.09-.15-.12H3.1c.01-.03.05-.04.06-.07.09-.2-.15 0 .19-.2.05-.12.14-.26.11-.4-.07-.3-.1-.1-.2-.26-.14-.25-.07-.21.04-.5l.16-.1c.06-.02.12-.01.16-.04.1-.05.23-.2.28-.3.02-.04 0-.08.02-.12l.01.06.01-.07c0-.07-.04-.13-.01-.19.05-.12.15-.22.22-.33v.04c.17-.19.46-.8-.19.42.05.1.26.33.16.29-.39-.15-.08-.63.03-.76.05-.08.3-.04.36-.04l.13-.02c.13-.06.18-.1.33-.08l.18.06c.1.03.47.13.56.11.13-.02.23-.12.35-.18.57-.48.12-.11-.28.3-.02.02.05 0 .06-.03v-.04c.22-.26 0 .12.16-.2.05-.1.15-.26.14-.37 0-.07-.05-.14-.07-.21 0-.02-.07-.22-.07-.26v-.12c0-.07-.03-.13-.04-.2-.01-.04 0-.09-.02-.13h-.03c.02 0 .1-.01.08-.03-.07-.04-.18.07-.24-.01L5.63 5c-.13 0-.07-.13-.2-.19-.08-.04-.34-.03-.41-.04-.05.02-.16.01-.14.06.02.06.12.04.18.03a.38.38 0 0 0 .17-.1c.03-.03-.08.04-.11.04-.57.13-.41.22-.65-.09-.13-.32-.04-.14-.23-.44-.06-.09-.1-.18-.16-.25-.07-.1-.16-.16-.24-.24 0 0-.02-.01-.02-.03h.02l.08-.1c.04-.06.1-.11.13-.18.07-.13.12-.42.1-.55 0-.14-.08-.28-.08-.42 0-.11.07-.22.1-.33.04-.03.09-.05.11-.09.02-.03.01-.07.03-.1.01-.02.04-.02.06-.04.02-.03.04-.07.07-.08.16-.08.15-.06.26-.02.18-.03.09-.04.27.03.06 0 .18-.15.22-.16.03-.02.06.02.1.01.05-.01.1-.05.14-.07.74 0 .74 1.04 0 1.04z" opacity=".76" fill="#501616"/></svg>