<?xml version="1.0" encoding="UTF-8" standalone="no"?><svg xmlns:dc="http://purl.org/dc/elements/1.1/" xmlns:cc="http://creativecommons.org/ns#" xmlns:rdf="http://www.w3.org/1999/02/22-rdf-syntax-ns#" xmlns="http://www.w3.org/2000/svg" width="48" height="48" viewBox="0 0 12.7 12.7"><metadata><rdf:RDF><cc:Work><dc:format>image/svg+xml</dc:format><dc:type rdf:resource="http://purl.org/dc/dcmitype/StillImage"/><dc:title/></cc:Work></rdf:RDF></metadata><path d="M7.35.06a.17.17 0 0 0-.1.03.1.1 0 0 0-.05.08 1.12 1.12 0 0 1 .71.97v.55c0 .27.23.5.52.5h1.81c.33 0 .6.15.81.38V.56a.5.5 0 0 0-.5-.5H7.79z" fill="#212178"/><path d="M2.95.55c-.63 0-1.14.5-1.14 1.14v9.9c0 .63.5 1.13 1.14 1.13H9.75c.63 0 1.14-.5 1.14-1.13V3.67h-.01c-.07-.56-.54-1-1.13-1H7.94a.52.52 0 0 1-.5-.51V1.6h-.01A1.12 1.12 0 0 0 6.35.55h-.02z" fill="#333"/><path d="M6.43 1.08a.5.5 0 0 1 .47.5v.48c0 .57.42 1.04.98 1.11l1.96.03c.28 0 .51.22.51.5v7.99a.5.5 0 0 1-.5.5H2.85a.5.5 0 0 1-.51-.5V1.59c0-.28.23-.5.5-.5h3.58z" fill="#ccc"/><path d="M4.72 1.91c-.02 0-.09.02-.09.04v2.9a.35.35 0 0 0-.24-.1.92.92 0 0 0-.45.15c-.18.1-.4.3-.4.57 0 .24.2.35.42.35a.9.9 0 0 0 .45-.14c.18-.1.4-.3.4-.57v-.03V2.92c.28.28.64.69.64 1.09 0 .25-.06.5-.16.74 0 .06.04.1.1.1.02 0 .05-.01.06-.04.1-.26.17-.53.17-.8 0-.76-.8-1.3-.81-2.06a.04.04 0 0 0-.04-.04h-.05zm-.76 5.26v.36h4.75v-.36H3.96zm0 1.05v.37h4.75v-.37H3.96zm0 1.06v.37h4.75v-.37H3.96zm0 1.06v.36h4.75v-.36H3.96z" fill="#212178"/></svg>