<?xml version="1.0" encoding="UTF-8" standalone="no"?><svg xmlns:dc="http://purl.org/dc/elements/1.1/" xmlns:cc="http://creativecommons.org/ns#" xmlns:rdf="http://www.w3.org/1999/02/22-rdf-syntax-ns#" xmlns="http://www.w3.org/2000/svg" width="48" height="48" viewBox="0 0 12.7 12.7"><metadata><rdf:RDF><cc:Work><dc:format>image/svg+xml</dc:format><dc:type rdf:resource="http://purl.org/dc/dcmitype/StillImage"/><dc:title/></cc:Work></rdf:RDF></metadata><path d="M7.35.06a.17.17 0 0 0-.1.03.1.1 0 0 0-.05.08 1.12 1.12 0 0 1 .71.97v.55c0 .27.23.5.52.5h1.81c.33 0 .6.15.81.38V.56a.5.5 0 0 0-.5-.5H7.79z" fill="#165044"/><path d="M2.95.55c-.63 0-1.14.5-1.14 1.14v9.9c0 .63.5 1.13 1.14 1.13H9.75c.63 0 1.14-.5 1.14-1.13V3.67h-.01c-.07-.56-.54-1-1.13-1H7.94a.52.52 0 0 1-.5-.51V1.6h-.01A1.12 1.12 0 0 0 6.35.55h-.02z" fill="#333"/><path d="M6.43 1.08a.5.5 0 0 1 .47.5v.48c0 .57.42 1.04.98 1.11l1.96.03c.28 0 .51.22.51.5v7.99a.5.5 0 0 1-.5.5H2.85a.5.5 0 0 1-.51-.5V1.59c0-.28.23-.5.5-.5h3.58z" fill="#ccc"/><path style="line-height:125%;-inkscape-font-specification:'Ubuntu, Normal';font-variant-ligatures:normal;font-variant-position:normal;font-variant-caps:normal;font-variant-numeric:normal;font-variant-alternates:normal;font-feature-settings:normal;text-indent:0;text-align:start;text-decoration-line:none;text-decoration-style:solid;text-decoration-color:#000;text-transform:none;text-orientation:mixed;shape-padding:0;isolation:auto;mix-blend-mode:normal" d="M7.54 6.82a1 1 0 0 0-.4.08.92.92 0 0 0-.31.22 1 1 0 0 0-.2.34 1.2 1.2 0 0 0-.08.42c0 .16.03.3.08.43.04.13.11.24.2.33.09.1.2.17.32.22.12.06.25.08.4.08a.92.92 0 0 0 .7-.3c.09-.09.16-.2.2-.33.06-.13.08-.27.08-.43 0-.15-.02-.3-.07-.42a.98.98 0 0 0-.2-.34.88.88 0 0 0-.32-.22 1 1 0 0 0-.4-.08zM5 7.25a.75.75 0 0 0-.3.05.7.7 0 0 0-.24.17.75.75 0 0 0-.15.25.9.9 0 0 0-.05.32c0 .11.01.22.05.32s.09.18.15.25c.07.07.15.13.24.17.1.03.2.05.3.05.1 0 .2-.02.3-.05a.74.74 0 0 0 .4-.42.9.9 0 0 0 .04-.32.9.9 0 0 0-.05-.32.73.73 0 0 0-.16-.25.66.66 0 0 0-.24-.17.75.75 0 0 0-.3-.05zm0 2.11c-.6 0-.94.06-1.18.24-.12.1-.2.22-.25.37-.05.14-.06.26-.06.45h2.15l-.01.03c-.06.2-.08.35-.08.6H9.53c0-.25-.02-.4-.08-.6a.94.94 0 0 0-.33-.48c-.33-.25-.75-.32-1.57-.32-.55 0-.93.03-1.22.13a.67.67 0 0 0-.16-.18c-.25-.18-.56-.24-1.18-.24z" color="#000" font-weight="400" font-family="Ubuntu" letter-spacing="0" word-spacing="0" white-space="normal" overflow="visible" fill="#165044"/></svg>