<svg xmlns="http://www.w3.org/2000/svg" width="48" height="48" version="1"><path d="M21 5.719a4.502 4.502 0 0 0-4.5 4.5c0 1.552.803 2.91 2 3.719v.781h-10c-1.108 0-2 .892-2 2v9.719c.825-1.035 2.075-1.719 3.5-1.719 2.484 0 4.5 2.016 4.5 4.5s-2.016 4.5-4.5 4.5c-1.425 0-2.675-.684-3.5-1.719v9.72c0 1.107.892 2 2 2h9.719c-1.035-.826-1.72-2.076-1.72-3.5 0-2.485 2.017-4.5 4.5-4.5 2.485 0 4.5 2.015 4.5 4.5 0 1.424-.683 2.674-1.718 3.5H33.5c1.108 0 2-.893 2-2v-10h.781c.81 1.196 2.166 2 3.719 2 2.484 0 4.5-2.017 4.5-4.5 0-2.485-2.016-4.5-4.5-4.5-1.553 0-2.91.802-3.719 2H35.5v-10c0-1.109-.892-2-2-2h-10v-.782c1.197-.81 2-2.166 2-3.719 0-2.484-2.016-4.5-4.5-4.5z" fill="#4d4d4d"/><path d="M44.4805 29.1191H20.9492v6.6114c.0173-.0002.0315-.0098.0488-.0098 2.485 0 4.5 2.015 4.5 4.5 0 1.424-.6817 2.674-1.7167 3.5H33.5c1.108 0 2-.893 2-2v-10h.7813c.81 1.196 2.1657 2 3.7187 2 2.484 0 4.5-2.017 4.5-4.5 0-.036-.0187-.0659-.0195-.1016zM14.4805 29.1191h6.4687V5.7207a4.502 4.502 0 0 0-4.4492 4.498c0 1.552.803 2.9098 2 3.7188v.7813h-10c-1.108 0-2 .892-2 2v9.7187c.825-1.035 2.075-1.7188 3.5-1.7188 2.4487 0 4.4243 1.9651 4.4805 4.4004z"/></svg>