<?xml version="1.0" encoding="UTF-8" standalone="no"?><svg xmlns:dc="http://purl.org/dc/elements/1.1/" xmlns:cc="http://creativecommons.org/ns#" xmlns:rdf="http://www.w3.org/1999/02/22-rdf-syntax-ns#" xmlns="http://www.w3.org/2000/svg" width="48" height="48" version="1"><metadata><rdf:RDF><cc:Work><dc:format>image/svg+xml</dc:format><dc:type rdf:resource="http://purl.org/dc/dcmitype/StillImage"/><dc:title/></cc:Work></rdf:RDF></metadata><path d="M21 6.5h-.05l-1.44 3.54-1.64 17.9h-3.35v1.96h-.04l.02.1a4.47 4.47 0 1 1-8 2.78v9.72c0 1.1.9 2 2 2h9.72a4.47 4.47 0 0 1 2.73-7.99h3.1v-3.66L41.2 31.2l3.27-1.31a4.49 4.49 0 0 0-8.2-2.4h-.78v-10a2 2 0 0 0-2-2h-10v-.78A4.49 4.49 0 0 0 21 6.5z" fill="#4d4d4d"/><path d="M14.48 29.9h6.47V6.5A4.5 4.5 0 0 0 16.5 11c0 1.55.8 2.91 2 3.72v.78h-10a2 2 0 0 0-2 2v9.72a4.47 4.47 0 0 1 7.98 2.68zM20.95 29.9v6.61H21a4.47 4.47 0 1 1 2.78 8h9.72a2 2 0 0 0 2-2v-10h.78A4.5 4.5 0 0 0 44.5 30l-.02-.11z" fill="#1a1a1a"/></svg>