<?xml version="1.0" encoding="UTF-8" standalone="no"?><svg xmlns:dc="http://purl.org/dc/elements/1.1/" xmlns:cc="http://creativecommons.org/ns#" xmlns:rdf="http://www.w3.org/1999/02/22-rdf-syntax-ns#" xmlns="http://www.w3.org/2000/svg" width="48" height="48" viewBox="0 0 12.7 12.7"><metadata><rdf:RDF><cc:Work><dc:format>image/svg+xml</dc:format><dc:type rdf:resource="http://purl.org/dc/dcmitype/StillImage"/><dc:title/></cc:Work></rdf:RDF></metadata><path d="M7.35.06a.17.17 0 0 0-.1.03.1.1 0 0 0-.05.08 1.12 1.12 0 0 1 .71.97v.55c0 .27.23.5.52.5h1.81c.33 0 .6.15.81.38V.56a.5.5 0 0 0-.5-.5H7.79z" fill="#ff2a2a"/><path d="M2.95.55c-.63 0-1.14.5-1.14 1.14v9.9c0 .63.5 1.13 1.14 1.13H9.75c.63 0 1.14-.5 1.14-1.13V3.67h-.01c-.07-.56-.54-1-1.13-1H7.94a.52.52 0 0 1-.5-.51V1.6h-.01A1.12 1.12 0 0 0 6.35.55h-.02z" fill="#333"/><path d="M6.43 1.08a.5.5 0 0 1 .47.5v.48c0 .57.42 1.04.98 1.11l1.96.03c.28 0 .51.22.51.5v7.99a.5.5 0 0 1-.5.5H2.85a.5.5 0 0 1-.51-.5V1.59c0-.28.23-.5.5-.5h3.58z" fill="#ccc"/><path style="line-height:normal;text-indent:0;text-align:start;text-decoration-line:none;text-transform:none;marker:none" d="M6.08 3.5c-.07 0-.25.02-.32.05-.18.06-.28.2-.35.37-.23.51.08 1.38.4 2.06-.28 1.04-.72 2.3-1.2 3.32-1.18.54-1.81 1.06-1.87 1.57-.02.18.02.45.35.69.09.07.2.1.3.1.28 0 .55-.2.87-.65.24-.33.49-.77.75-1.32.84-.36 1.88-.68 2.76-.87.5.47.94.7 1.32.7.28 0 .52-.12.7-.36.18-.25.22-.47.12-.67-.12-.23-.42-.34-.91-.34-.29 0-.64.03-1.05.1a9.88 9.88 0 0 1-1.6-2.33A13.34 13.34 0 0 0 6.6 4.6c.02-.26.02-.54-.12-.77-.08-.13-.24-.33-.4-.33zm-.11.55c.01 0 .32.34.03 1-.45-.45-.06-.99-.03-1zm.19 2.62c.35.62.77 1.23 1.2 1.71a15.8 15.8 0 0 0-2.04.63 21.9 21.9 0 0 0 .84-2.34zm2.9 2c.28 0 .33.04.37.06l-.07.13c-.1.13-.3.13-.38.13-.17 0-.23-.1-.48-.29a4.58 4.58 0 0 1 .56-.03zm-4.83 1.4c-.51.93-.78 1.05-.83 1.07-.15-.11-.14-.19-.13-.22.01-.17.29-.47.96-.84z" fill="#ff2a2a"/></svg>