<?xml version="1.0" encoding="UTF-8" standalone="no"?><svg xmlns:dc="http://purl.org/dc/elements/1.1/" xmlns:cc="http://creativecommons.org/ns#" xmlns:rdf="http://www.w3.org/1999/02/22-rdf-syntax-ns#" xmlns="http://www.w3.org/2000/svg" width="48" height="48" viewBox="0 0 12.7 12.7"><metadata><rdf:RDF><cc:Work><dc:format>image/svg+xml</dc:format><dc:type rdf:resource="http://purl.org/dc/dcmitype/StillImage"/><dc:title/></cc:Work></rdf:RDF></metadata><path d="M7.45.02a.17.17 0 0 0-.11.03.1.1 0 0 0-.04.08 1.12 1.12 0 0 1 .7.97h.01v.55c0 .27.23.5.51.5H10.34c.32 0 .6.15.81.38V.52a.5.5 0 0 0-.5-.5H7.87z" fill="#16502d"/><path d="M2.95.6c-.63 0-1.14.51-1.14 1.14v9.9c0 .63.5 1.14 1.14 1.14H9.75c.63 0 1.14-.5 1.14-1.14V3.73h-.01c-.07-.57-.54-1-1.13-1H8.06l-.12-.01a.52.52 0 0 1-.5-.5v-.55h-.01A1.12 1.12 0 0 0 6.35.6h-.02z" fill="#333"/><path d="M6.43 1.14a.5.5 0 0 1 .47.5v.48c0 .57.42 1.03.98 1.1l1.96.03c.28 0 .51.23.51.51v7.99a.5.5 0 0 1-.5.5H2.85a.5.5 0 0 1-.51-.5V1.64c0-.29.23-.51.5-.51h3.58z" fill="#ccc"/><path d="M4.9 4.5a.16.16 0 0 0-.17.16v.48h-.8a.49.49 0 0 0-.49.49v4.2c0 .27.22.49.48.49h4.86c.26 0 .48-.22.48-.49v-4.2a.49.49 0 0 0-.48-.49h-.81v-.48a.16.16 0 0 0-.17-.16.16.16 0 0 0-.16.16v.48H5.06v-.48a.16.16 0 0 0-.17-.16zm0 .97a.16.16 0 0 1 .16.17v.63a.16.16 0 1 1-.33 0v-.63a.16.16 0 0 1 .16-.17zm2.9 0a.16.16 0 0 1 .17.17v.63a.16.16 0 0 1-.33 0v-.63a.16.16 0 0 1 .16-.17zM3.76 7.08h5.18v2.75c0 .1-.07.17-.16.17H3.92a.16.16 0 0 1-.16-.17zm1.95.46c-.07 0-.12 0-.18.02a.8.8 0 0 0-.26.13.56.56 0 0 0-.07.07l.12.17a10.49 10.49 0 0 1 .14-.1.6.6 0 0 1 .11-.05.44.44 0 0 1 .26 0 .25.25 0 0 1 .16.14.3.3 0 0 1 .03.13c0 .05-.01.1-.03.14a.56.56 0 0 1-.07.13l-.1.12a4.09 4.09 0 0 1-.3.29l-.14.17a.97.97 0 0 0-.1.2.64.64 0 0 0-.04.23v.06h1.1v-.2H5.5c0-.03.01-.07.04-.1a1.2 1.2 0 0 1 .2-.26l.1-.1a13.67 13.67 0 0 0 .3-.33.88.88 0 0 0 .1-.17.45.45 0 0 0 .04-.19.48.48 0 0 0-.15-.37c-.1-.09-.23-.13-.42-.13zm1.62.04c-.08.1-.17.17-.26.23l-.3.15.08.18a1.16 1.16 0 0 0 .23-.1.88.88 0 0 0 .17-.12v1.47h.25V7.6z" color="#090d11" fill="#16502d"/></svg>