<svg xmlns="http://www.w3.org/2000/svg" width="48" height="48" viewBox="0 0 12.7 12.7"><defs><linearGradient id="a" x1="28.53" x2="16.89" y1="24.24" y2="13.66" gradientTransform="matrix(.27787 0 0 .26279 -.44 1.4)" gradientUnits="userSpaceOnUse"><stop offset="0" stop-color="#00f" stop-opacity=".182"/><stop offset="1" stop-color="#fff" stop-opacity="0"/></linearGradient></defs><path d="M7.45.02a.17.17 0 00-.11.03.1.1 0 00-.04.08 1.12 1.12 0 01.7.97h.01v.55c0 .27.23.5.51.5h1.82c.32 0 .6.15.81.38V.52a.5.5 0 00-.5-.5H7.87z" fill="#0055d4"/><path d="M2.95.6c-.63 0-1.14.51-1.14 1.14v9.9c0 .63.5 1.14 1.14 1.14h6.8c.63 0 1.14-.5 1.14-1.14V3.73h-.01c-.07-.57-.54-1-1.13-1H8.06l-.12-.01a.52.52 0 01-.5-.5v-.55h-.01A1.12 1.12 0 006.35.6h-.02z" fill="#333"/><path d="M6.43 1.14a.5.5 0 01.47.5v.48c0 .57.42 1.03.98 1.1l1.96.03c.28 0 .51.23.51.51v7.99a.5.5 0 01-.5.5h-7a.5.5 0 01-.51-.5V1.64c0-.29.23-.51.5-.51h3.58z" fill="#ccc"/><path d="M4.1 10.74c1.16.75 3.7-.25 1.59-2.91C3.6 5.18 7.76 3.45 8.99 6.5" stroke-width=".26" stroke="#0055d4" fill-rule="evenodd" fill="url(#a)"/><path fill="#00f" d="M3.44 10.33h.79v.79h-.79zm5.03-4.24h.79v.79h-.79z" stroke="#0055d4"/><path d="M3.82 5.43l4 5" stroke-width=".26" stroke="#0055d4" fill="none"/><path d="M4.1 5.43a.26.26 0 11-.53 0 .26.26 0 01.53 0zm3.97 5.03a.26.26 0 11-.53 0 .26.26 0 01.53 0z" stroke-width=".26" stroke="#0055d4" fill="#0055d4"/><path fill="#00f" d="M5.29 7.42h.79v.79h-.79z" stroke="#0055d4"/></svg>