<svg xmlns="http://www.w3.org/2000/svg" width="48" height="48" viewBox="0 0 12.7 12.7"><path d="M7.45.02a.17.17 0 0 0-.11.03.1.1 0 0 0-.04.08 1.12 1.12 0 0 1 .7.97h.01v.55c0 .27.23.5.51.5h1.82c.32 0 .6.15.81.38V.52a.5.5 0 0 0-.5-.5H7.87z" fill="#214478"/><path d="M2.95.6c-.63 0-1.14.51-1.14 1.14v9.9c0 .63.5 1.14 1.14 1.14h6.8c.63 0 1.14-.5 1.14-1.14V3.73h-.01c-.07-.57-.54-1-1.13-1H8.06l-.12-.01a.52.52 0 0 1-.5-.5v-.55h-.01A1.12 1.12 0 0 0 6.35.6h-.02z" fill="#333"/><path d="M6.43 1.14a.5.5 0 0 1 .47.5v.48c0 .57.42 1.03.98 1.1l1.96.03c.28 0 .51.23.51.51v7.99a.5.5 0 0 1-.5.5h-7a.5.5 0 0 1-.51-.5V1.64a.5.5 0 0 1 .5-.51h3.58z" fill="#ccc"/><path style="line-height:normal;text-indent:0;text-align:start;text-decoration-line:none;text-transform:none;marker:none" d="M3.16 4.82V9.9h.65V7.86h.83c.54 0 .95-.13 1.23-.39.28-.25.42-.63.42-1.13 0-.5-.14-.87-.42-1.13-.28-.26-.69-.39-1.23-.39zm.65.57h.83c.3 0 .54.08.7.24.17.17.25.4.25.7 0 .32-.08.55-.25.72-.16.16-.4.24-.7.24H3.8zm4.37.6c-.44 0-.79.1-1.03.3a1 1 0 0 0-.36.83c0 .3.08.53.24.7.17.16.44.29.8.37l.21.05c.37.09.61.17.72.26.11.1.17.22.17.4a.49.49 0 0 1-.23.42c-.15.1-.37.15-.65.15-.21 0-.42-.03-.63-.09a3.22 3.22 0 0 1-.66-.27v.65a4.73 4.73 0 0 0 1.28.23c.46 0 .83-.1 1.1-.3a1 1 0 0 0 .4-.84.95.95 0 0 0-.27-.73c-.18-.17-.48-.3-.9-.4l-.2-.05a1.93 1.93 0 0 1-.65-.23.41.41 0 0 1-.16-.35c0-.19.08-.33.23-.43.14-.1.37-.14.66-.14a2.33 2.33 0 0 1 1.1.27V6.2A3.64 3.64 0 0 0 8.19 6z" fill="#214478"/></svg>