<?xml version="1.0" encoding="UTF-8" standalone="no"?><svg xmlns:dc="http://purl.org/dc/elements/1.1/" xmlns:cc="http://creativecommons.org/ns#" xmlns:rdf="http://www.w3.org/1999/02/22-rdf-syntax-ns#" xmlns="http://www.w3.org/2000/svg" width="48" height="48" viewBox="0 0 12.7 12.7"><metadata><rdf:RDF><cc:Work><dc:format>image/svg+xml</dc:format><dc:type rdf:resource="http://purl.org/dc/dcmitype/StillImage"/><dc:title/></cc:Work></rdf:RDF></metadata><defs><linearGradient id="a"><stop offset="0" stop-color="#535353"/><stop offset="1" stop-color="#7e7e7e"/></linearGradient></defs><path d="M7.45.02a.17.17 0 0 0-.11.03.1.1 0 0 0-.04.08 1.12 1.12 0 0 1 .7.97h.01v.55c0 .27.23.5.51.5H10.34c.32 0 .6.15.81.38V.52a.5.5 0 0 0-.5-.5H7.87z" fill="#8d5fd3"/><path d="M2.95.6c-.63 0-1.14.51-1.14 1.14v9.9c0 .63.5 1.14 1.14 1.14H9.75c.63 0 1.14-.5 1.14-1.14V3.73h-.01c-.07-.57-.54-1-1.13-1H8.06l-.12-.01a.52.52 0 0 1-.5-.5v-.55h-.01A1.12 1.12 0 0 0 6.35.6h-.02z" fill="#333"/><path d="M6.43 1.14a.5.5 0 0 1 .47.5v.48c0 .57.42 1.03.98 1.1l1.96.03c.28 0 .51.23.51.51v7.99a.5.5 0 0 1-.5.5H2.85a.5.5 0 0 1-.51-.5V1.64c0-.29.23-.51.5-.51h3.58z" fill="#ccc"/><path d="M5.96 4.77L4.8 7.5l-.7-1.35-.66.25.12.41.32-.17.82 1.76h.2L6.24 5.2h2.7v.22h.32v-.66h-3.3zm.63 1.1l.93 1.23v.02L6.56 8.4h.54l.72-.95h.02l.71.95h.59l-.98-1.3v-.02l.9-1.2h-.54l-.67.87h-.02l-.65-.88zm.62 3.21c-.08 0-.13.01-.16.04-.02.02-.03.07-.03.14v.1c0 .06-.01.09-.03.1-.02.02-.05.03-.1.03h-.02v.07h.03c.04 0 .07 0 .09.03.02.01.02.05.02.1v.1c0 .08.02.12.04.15.03.02.08.03.16.03h.03V9.9h-.03c-.05 0-.07 0-.09-.02L7.1 9.8v-.12a.2.2 0 0 0-.02-.1c-.01-.03-.04-.05-.07-.05.03-.01.06-.03.07-.05a.2.2 0 0 0 .02-.1v-.12c0-.05 0-.08.02-.09.02-.01.04-.02.09-.02h.03v-.07zm.77 0v.07H8c.04 0 .07 0 .08.02.02.01.03.04.03.09v.11c0 .05 0 .09.02.11.01.02.04.04.07.05-.04 0-.06.02-.07.04a.2.2 0 0 0-.02.1v.13c0 .04-.01.07-.03.08 0 .02-.04.02-.08.02h-.03v.07H8c.07 0 .13-.01.15-.03.03-.03.04-.07.04-.14v-.11c0-.05.01-.08.03-.1.01-.02.04-.03.09-.03h.03v-.07h-.03c-.05 0-.08 0-.1-.02l-.02-.1v-.11c0-.07-.01-.12-.04-.14-.02-.03-.08-.04-.15-.04zm-1.63.1v.15h-.14v.07h.14v.28c0 .07.02.11.04.14.03.02.08.04.14.04h.1v-.07h-.09c-.04 0-.06-.01-.08-.03l-.02-.08V9.4h.2v-.07h-.2v-.15zm-1.67.12a.23.23 0 0 0-.15.04.14.14 0 0 0-.05.12c0 .04.01.07.03.1l.11.04.04.01c.08.02.11.04.11.08 0 .03 0 .05-.03.07a.15.15 0 0 1-.09.02l-.08-.01a.52.52 0 0 1-.1-.04v.1a.75.75 0 0 0 .18.03c.07 0 .12-.02.16-.05a.15.15 0 0 0 .05-.12.14.14 0 0 0-.03-.1.17.17 0 0 0-.1-.05H4.7a.3.3 0 0 1-.11-.04c-.02 0-.02-.02-.02-.05 0-.02 0-.04.03-.06a.16.16 0 0 1 .08-.02c.03 0 .05 0 .08.02.03 0 .05.01.07.03v-.09a.4.4 0 0 0-.15-.03zm.55 0a.18.18 0 0 0-.15.08.34.34 0 0 0-.06.2c0 .09.02.15.06.2.04.05.09.08.15.08l.08-.02a.15.15 0 0 0 .06-.06v.26h.09v-.72h-.1v.06a.15.15 0 0 0-.05-.06.16.16 0 0 0-.08-.02zm.73.01a.17.17 0 0 0-.17.12v-.1H5.7v.52h.09V9.6c0-.06.01-.11.04-.15.03-.03.07-.05.13-.05a.2.2 0 0 1 .06.01.2.2 0 0 1 .05.03v-.08a.19.19 0 0 0-.05-.03h-.06zm1.4 0l.19.26-.21.27h.1l.15-.21.16.21h.1l-.2-.27.18-.26h-.1l-.14.2-.14-.2zm-2.12.07a.1.1 0 0 1 .1.05c.02.03.03.08.03.15 0 .07-.01.12-.03.15a.1.1 0 0 1-.1.05.1.1 0 0 1-.1-.05.3.3 0 0 1-.02-.15.3.3 0 0 1 .03-.15.1.1 0 0 1 .1-.05z" fill="#8d5fd3"/></svg>