<?xml version="1.0" encoding="UTF-8" standalone="no"?><svg xmlns:dc="http://purl.org/dc/elements/1.1/" xmlns:cc="http://creativecommons.org/ns#" xmlns:rdf="http://www.w3.org/1999/02/22-rdf-syntax-ns#" xmlns="http://www.w3.org/2000/svg" width="48" height="48" viewBox="0 0 12.7 12.7"><metadata><rdf:RDF><cc:Work><dc:format>image/svg+xml</dc:format><dc:type rdf:resource="http://purl.org/dc/dcmitype/StillImage"/><dc:title/></cc:Work></rdf:RDF></metadata><path d="M7.35.06a.17.17 0 0 0-.1.03.1.1 0 0 0-.05.08 1.12 1.12 0 0 1 .71.97v.55c0 .27.23.5.52.5h1.81c.33 0 .6.15.81.38V.56a.5.5 0 0 0-.5-.5H7.79z" fill="#d45500"/><path d="M2.95.55c-.63 0-1.14.5-1.14 1.14v9.9c0 .63.5 1.13 1.14 1.13H9.75c.63 0 1.14-.5 1.14-1.13V3.67h-.01c-.07-.56-.54-1-1.13-1H7.94a.52.52 0 0 1-.5-.51V1.6h-.01A1.12 1.12 0 0 0 6.35.55h-.02z" fill="#333"/><path d="M6.43 1.08a.5.5 0 0 1 .47.5v.48c0 .57.42 1.04.98 1.11l1.96.03c.28 0 .51.22.51.5v7.99a.5.5 0 0 1-.5.5H2.85a.5.5 0 0 1-.51-.5V1.59c0-.28.23-.5.5-.5h3.58z" fill="#ccc"/><path style="line-height:normal;text-indent:0;text-align:start;text-decoration-line:none;text-transform:none;marker:none" d="M3.17 5.06v.5H4.7v-.5H3.17zm1.96 0v.5h1.52v-.5H5.13zm-1.47.98v.5H7.6v-.5H3.66zm-.49.98v.5h3.4v-.5h-3.4zm3.91 0v.5H9.6v-.5H7.08zm-3.9.97v.5h1.56V8H3.17zm1.95 0v.5h2.9V8h-2.9zm3.42 0v.5h1.02V8H8.55zm-4.89.98v.5h5.31v-.5H3.66zm0 .98v.47h4.25v-.47H3.66zm4.9 0v.47h.97v-.47h-.98zm-5.44.98v.47h3.96v-.47H3.12zm4.8 0v.47h1.6v-.47h-1.6z" fill="#d45500"/><path d="M5.81 1.5c-.27 0-.41.1-.52.23-.11.14-.18.32-.25.47-.05.11-.17.5-.27.86-.09.3-.17.6-.3.87a.47.47 0 0 1-.39.23.42.42 0 0 1-.15-.03c.17.25.59.66 1.06-.02.34-.48.45-1.51.68-1.9.3-.49.45-.37.49-.33a.5.5 0 0 0 0-.12c0-.08-.01-.14-.06-.18-.04-.04-.12-.08-.29-.08zm-2.24.43a.8.8 0 0 1 .16.31c.08.28.1.62.1.93l.04.4c.01.17.08.29.21.3.16 0 .21-.2.26-.35-.07-.03-.18-.2-.26-.88a.94.94 0 0 0-.51-.7zM3.13 2a.15.15 0 0 0-.09.03c-.03.02-.06.06-.07.13-.02.12.06.25.13.35 0 0 0-.15.14-.22.08-.03.17.03.24.1l-.02-.07c-.05-.2-.19-.3-.3-.31zm0 0" fill="#d45500"/></svg>