<svg xmlns="http://www.w3.org/2000/svg" width="48" height="48" viewBox="0 0 12.7 12.7"><path d="M7.45.02a.17.17 0 00-.11.03.1.1 0 00-.04.08 1.12 1.12 0 01.7.97h.01v.55c0 .27.23.5.51.5h1.82c.32 0 .6.15.81.38V.52a.5.5 0 00-.5-.5H7.87z" fill="#4d4d4d"/><path d="M2.95.6c-.63 0-1.14.51-1.14 1.14v9.9c0 .63.5 1.14 1.14 1.14h6.8c.63 0 1.14-.5 1.14-1.14V3.73h-.01c-.07-.57-.54-1-1.13-1H8.06l-.12-.01a.52.52 0 01-.5-.5v-.55h-.01A1.12 1.12 0 006.35.6h-.02z" fill="#333"/><path d="M6.43 1.14a.5.5 0 01.47.5v.48c0 .57.42 1.03.98 1.1l1.96.03c.28 0 .51.23.51.51v7.99a.5.5 0 01-.5.5h-7a.5.5 0 01-.51-.5V1.64c0-.29.23-.51.5-.51h3.58z" fill="#ccc"/><path style="line-height:normal;text-indent:0;text-align:start;text-decoration-line:none;text-transform:none;marker:none" d="M4.942 5.695c-.352 0-.588.059-.708.176-.119.115-.178.348-.178.698v.569c0 .235-.038.4-.114.491-.075.09-.213.136-.416.136h-.129v.339h.13c.2 0 .339.046.415.137.076.092.114.258.114.496v.567c0 .35.06.584.178.7.12.118.356.176.708.176h.131v-.341H4.93c-.199 0-.329-.036-.39-.105-.06-.07-.09-.216-.09-.439v-.588c0-.247-.032-.427-.096-.54a.512.512 0 00-.331-.232.495.495 0 00.329-.227c.065-.113.097-.293.097-.542v-.588c0-.223.03-.37.091-.44.06-.069.19-.103.39-.103h.144v-.34zm2.685 0v.34h.148c.198 0 .326.034.386.104.06.068.09.214.09.439v.588c0 .249.032.429.096.542a.495.495 0 00.33.227.512.512 0 00-.33.232c-.064.113-.095.293-.095.54v.588c0 .226-.03.373-.091.442-.06.068-.188.102-.386.102h-.148v.34h.133c.352 0 .586-.057.703-.174.12-.117.178-.351.178-.7v-.568c0-.239.039-.404.115-.496.077-.092.215-.137.415-.137h.132v-.34H9.17c-.2 0-.338-.045-.415-.135-.076-.092-.115-.255-.115-.491v-.57c0-.35-.059-.582-.178-.697-.117-.117-.351-.176-.703-.176zm-1.5 1.18v.602h.446v-.603zm0 1.91v.408l-.174.76h.273l.347-.76v-.408h-.447z" fill="#4d4d4d"/></svg>