<?xml version="1.0" encoding="UTF-8" standalone="no"?><svg xmlns:dc="http://purl.org/dc/elements/1.1/" xmlns:cc="http://creativecommons.org/ns#" xmlns:rdf="http://www.w3.org/1999/02/22-rdf-syntax-ns#" xmlns="http://www.w3.org/2000/svg" width="48" height="48" viewBox="0 0 12.7 12.7"><metadata><rdf:RDF><cc:Work><dc:format>image/svg+xml</dc:format><dc:type rdf:resource="http://purl.org/dc/dcmitype/StillImage"/><dc:title/></cc:Work></rdf:RDF></metadata><path d="M7.35.06a.17.17 0 0 0-.1.03.1.1 0 0 0-.05.08 1.12 1.12 0 0 1 .71.97v.55c0 .27.23.5.52.5h1.81c.33 0 .6.15.81.38V.56a.5.5 0 0 0-.5-.5H7.79z" fill="teal"/><path d="M2.95.55c-.63 0-1.14.5-1.14 1.14v9.9c0 .63.5 1.13 1.14 1.13H9.75c.63 0 1.14-.5 1.14-1.13V3.67h-.01c-.07-.56-.54-1-1.13-1H7.94a.52.52 0 0 1-.5-.51V1.6h-.01A1.12 1.12 0 0 0 6.35.55h-.02z" fill="#333"/><path d="M6.43 1.08a.5.5 0 0 1 .47.5v.48c0 .57.42 1.04.98 1.11l1.96.03c.28 0 .51.22.51.5v7.99a.5.5 0 0 1-.5.5H2.85a.5.5 0 0 1-.51-.5V1.59c0-.28.23-.5.5-.5h3.58z" fill="#ccc"/><g color="#090d11" fill="teal"><path d="M6.35 4.85a2.68 2.68 0 0 0 0 5.35c1.47 0 2.67-1.2 2.67-2.67s-1.2-2.68-2.67-2.68z" fill-opacity=".51"/><path d="M6.35 4.85c.3 0 .59.07.86.16.1.14.31.47.35.49.19.1.32.29.45.42.04.04.12.07.16.1.03.04.29.06.31.03.02 0 .04-.04.05-.06a2.66 2.66 0 0 1-.25 3.4l-.11-.23C8.12 9.06 7.96 9 7.9 9l-.16.03c0-.02.04-.01.05-.03a.78.78 0 0 0 .16-.34c0-.05.05-.18-.03-.18-.07 0-.14.06-.18.1-.12.12-.52.27-.74.16l-.05-.05c-.07-.03-.09-.09-.06-.18.05-.13.09-.16.19-.19a.52.52 0 0 0 .16-.08c.04-.04.24.2.31.19a.66.66 0 0 0 .35-.22c.02-.03.02-.08.05-.1.06-.07.3.04.37-.03.17-.17-.38-.33-.08-.63.03-.03-.01-.15.02-.18.07-.07.27-.01.35-.08.03-.04.2.15.2-.22l-.02-.13c0-.1-.22-.7-.29-.63-.13.13.34.63-.26.63l-.1-.02C8 6.77 7.9 6.55 7.8 6.5l-.21-.05c-.01-.01-.11-.13-.16-.08-.1.1.21.51.13.55-.08.04-.24-.14-.29-.18-.02-.03-.24-.23-.31-.16-.02.01-.05.04-.08.03-.03-.02-.15-.12-.19-.11-.14.03-.19.12-.34.18-.1-.08-.2-.18-.32-.26-.08-.06-.21.19-.26.21-.1.05-.2.06-.3.1-.12.07-.18-.06-.25-.1-.12-.06-.22.09-.27.13-.06.07-.38-.03-.45.11-.1.2-.29.56-.29.82l-.02.16v.1c-.1.05-.23-.2-.37-.13-.04.02-.07.05-.1.09-.02-.13-.04-.25-.04-.38a2.66 2.66 0 0 1 2.67-2.68z"/><path d="M6.13 6.98c.22-.05.49.08.64.23.02.02.07.04.08.08l.03.13c.02.07.09.16.05.24-.07.14-.3.24-.37.37-.05.1-.03.32-.1.4-.02.01-.2.03-.22.05-.07.14.16.3.08.45-.06.11-.32.12-.42.31-.03.07-.16.02-.16.27 0 .26.3.1.45.18.14.07.32.1.45.16.03.01.3.2.32.2l.01.07a2.66 2.66 0 0 1-2.24-.48.18.18 0 0 0 .06-.06c.03-.03.05-.19.03-.23-.04-.08-.18-.04-.21-.1-.06-.12-.04-.57-.1-.64-.03-.03-.03-.13-.06-.16-.04-.04-.04-.15-.08-.18-.22-.23-.04-.8.1-.95.13-.12.26.33.32.45.08.14.27.07.37.18l.24.24h.1c.1-.1.12-.21.19-.34v-.11c.04 0 .07.08.1 0 .04-.06-.07-.26-.05-.29.03-.03.25.03.27 0 .05-.1-.12-.33-.08-.37a.38.38 0 0 1 .2-.1z"/></g></svg>