<?xml version="1.0" encoding="UTF-8" standalone="no"?><svg xmlns:dc="http://purl.org/dc/elements/1.1/" xmlns:cc="http://creativecommons.org/ns#" xmlns:rdf="http://www.w3.org/1999/02/22-rdf-syntax-ns#" xmlns="http://www.w3.org/2000/svg" width="48" height="48" viewBox="0 0 12.7 12.7"><metadata><rdf:RDF><cc:Work><dc:format>image/svg+xml</dc:format><dc:type rdf:resource="http://purl.org/dc/dcmitype/StillImage"/><dc:title/></cc:Work></rdf:RDF></metadata><path d="M7.35.06a.17.17 0 0 0-.1.03.1.1 0 0 0-.05.08 1.12 1.12 0 0 1 .71.97v.55c0 .27.23.5.52.5h1.81c.33 0 .6.15.81.38V.56a.5.5 0 0 0-.5-.5H7.79z" fill="#216778"/><path d="M2.95.55c-.63 0-1.14.5-1.14 1.14v9.9c0 .63.5 1.13 1.14 1.13H9.75c.63 0 1.14-.5 1.14-1.13V3.67h-.01c-.07-.56-.54-1-1.13-1H7.94a.52.52 0 0 1-.5-.51V1.6h-.01A1.12 1.12 0 0 0 6.35.55h-.02z" fill="#333"/><path d="M6.43 1.08a.5.5 0 0 1 .47.5v.48c0 .57.42 1.04.98 1.11l1.96.03c.28 0 .51.22.51.5v7.99a.5.5 0 0 1-.5.5H2.85a.5.5 0 0 1-.51-.5V1.59c0-.28.23-.5.5-.5h3.58z" fill="#ccc"/><path class="ColorScheme-Background" d="M6.32 4.76c-.26 0-.5.03-.72.07-.32.05-.57.14-.74.34-.16.2-.2.43-.2.66v.4h-.23a1.2 1.2 0 0 0-1.15.93c-.13.54-.14.96 0 1.53.06.24.16.46.33.64a1 1 0 0 0 .7.28h.35v.4c0 .27.14.52.31.68.18.15.39.25.6.3.48.15.98.17 1.55 0 .2-.05.4-.13.59-.29.17-.15.31-.4.31-.68V9.6h.4c.26 0 .53-.13.68-.3.15-.17.23-.37.3-.6.16-.48.15-.97 0-1.56a1.44 1.44 0 0 0-.29-.62.95.95 0 0 0-.68-.3h-.4v-.4c0-.54-.46-.93-.94-1a4.76 4.76 0 0 0-.77-.07zm0 .4c.23 0 .47.02.7.06.34.05.6.3.6.6v1.32c0 .33-.25.6-.58.6H5.65a.98.98 0 0 0-.97.95v.52h-.37a.55.55 0 0 1-.41-.16.96.96 0 0 1-.23-.45 2.4 2.4 0 0 1 0-1.35c.1-.42.4-.62.76-.62h1.91a.1.1 0 0 0 .1-.1v-.18a.1.1 0 0 0-.1-.1H5.06v-.42c0-.19.03-.31.1-.4.08-.09.23-.16.5-.21.2-.04.43-.06.66-.06zm-.75.32a.27.27 0 0 0-.27.27c0 .14.12.25.27.25.14 0 .26-.11.26-.25a.26.26 0 0 0-.26-.27zM8 6.63h.42c.18 0 .29.06.38.16.1.11.17.27.21.46.14.54.14.93 0 1.34-.06.2-.13.37-.22.47-.1.1-.2.15-.37.15H6.34a.1.1 0 0 0-.1.1v.18c0 .06.05.1.1.1h1.29v.43c0 .17-.07.28-.18.38-.11.1-.27.17-.44.22-.5.14-.9.12-1.33 0a1.16 1.16 0 0 1-.44-.23.48.48 0 0 1-.18-.37V8.7c0-.32.27-.6.6-.6h1.38c.52 0 .97-.44.97-.97zm-.88 3.21a.26.26 0 0 0-.26.26c0 .15.11.26.26.26.14 0 .26-.11.26-.26a.26.26 0 0 0-.26-.26z" fill="#216778"/></svg>