<svg xmlns="http://www.w3.org/2000/svg" width="48" height="48" viewBox="0 0 12.7 12.7"><path d="M7.45.02a.17.17 0 00-.11.03.1.1 0 00-.04.08 1.12 1.12 0 01.7.97h.01v.55c0 .27.23.5.51.5h1.82c.32 0 .6.15.81.38V.52a.5.5 0 00-.5-.5H7.87z" fill="#3771c8"/><path d="M2.95.6c-.63 0-1.14.51-1.14 1.14v9.9c0 .63.5 1.14 1.14 1.14h6.8c.63 0 1.14-.5 1.14-1.14V3.73h-.01c-.07-.57-.54-1-1.13-1H8.06l-.12-.01a.52.52 0 01-.5-.5v-.55h-.01A1.12 1.12 0 006.35.6h-.02z" fill="#333"/><path d="M6.43 1.14a.5.5 0 01.47.5v.48c0 .57.42 1.03.98 1.1l1.96.03c.28 0 .51.23.51.51v7.99a.5.5 0 01-.5.5h-7a.5.5 0 01-.51-.5V1.64c0-.29.23-.51.5-.51h3.58z" fill="#ccc"/><path fill="#3771c8" fill-rule="evenodd" d="M4.086 8.584h4.851V5.35h-4.85v-.323h-.324v5.82h.323z"/></svg>