<?xml version="1.0" encoding="UTF-8" standalone="no"?><svg xmlns:dc="http://purl.org/dc/elements/1.1/" xmlns:cc="http://creativecommons.org/ns#" xmlns:rdf="http://www.w3.org/1999/02/22-rdf-syntax-ns#" xmlns="http://www.w3.org/2000/svg" width="48" height="48" viewBox="0 0 12.7 12.7"><metadata><rdf:RDF><cc:Work><dc:format>image/svg+xml</dc:format><dc:type rdf:resource="http://purl.org/dc/dcmitype/StillImage"/><dc:title/></cc:Work></rdf:RDF></metadata><path d="M7.45.02a.17.17 0 0 0-.11.03.1.1 0 0 0-.04.08 1.12 1.12 0 0 1 .7.97h.01v.55c0 .27.23.5.51.5H10.34c.32 0 .6.15.81.38V.52a.5.5 0 0 0-.5-.5H7.87z" fill="#447821"/><path d="M2.95.6c-.63 0-1.14.51-1.14 1.14v9.9c0 .63.5 1.14 1.14 1.14H9.75c.63 0 1.14-.5 1.14-1.14V3.73h-.01c-.07-.57-.54-1-1.13-1H8.06l-.12-.01a.52.52 0 0 1-.5-.5v-.55h-.01A1.12 1.12 0 0 0 6.35.6h-.02z" fill="#333"/><path d="M6.43 1.14a.5.5 0 0 1 .47.5v.48c0 .57.42 1.03.98 1.1l1.96.03c.28 0 .51.23.51.51v7.99a.5.5 0 0 1-.5.5H2.85a.5.5 0 0 1-.51-.5V1.64c0-.29.23-.51.5-.51h3.58z" fill="#ccc"/><path d="M3.02 4v1.02h6.66V4H3.02zm3.34 1.45a2.12 2.12 0 0 0-2.11 2.11 2.12 2.12 0 0 0 2.11 2.12 2.12 2.12 0 0 0 2.12-2.12 2.12 2.12 0 0 0-2.12-2.11zm0 .45a1.66 1.66 0 0 1 1.67 1.66 1.66 1.66 0 0 1-1.67 1.67A1.66 1.66 0 0 1 4.7 7.56 1.66 1.66 0 0 1 6.36 5.9zm-3.34.13v1h1.02a2.38 2.38 0 0 1 .05-.17 2.38 2.38 0 0 1 .08-.22 2.38 2.38 0 0 1 .1-.22 2.38 2.38 0 0 1 .13-.2 2.38 2.38 0 0 1 .14-.2H3.02zm5.16 0a2.38 2.38 0 0 1 .05.05 2.38 2.38 0 0 1 .14.2 2.38 2.38 0 0 1 .11.2 2.38 2.38 0 0 1 .1.22 2.38 2.38 0 0 1 .08.23 2.38 2.38 0 0 1 .02.1h1v-1h-1.5zm-1.82.32a1.21 1.21 0 0 0-.86.37l.39.25a.76.76 0 0 1 .47-.16.76.76 0 0 1 .76.75.76.76 0 0 1-.76.76.76.76 0 0 1-.47-.17l-.39.26a1.21 1.21 0 0 0 .86.36 1.21 1.21 0 0 0 1.21-1.2 1.21 1.21 0 0 0-1.2-1.22zm-3.34 1.7v1h1.5a2.38 2.38 0 0 1-.02 0 2.38 2.38 0 0 1-.14-.2 2.38 2.38 0 0 1-.12-.2 2.38 2.38 0 0 1-.1-.22 2.38 2.38 0 0 1-.07-.23 2.38 2.38 0 0 1-.04-.15H3.02zm5.67 0a2.38 2.38 0 0 1-.05.22 2.38 2.38 0 0 1-.08.22 2.38 2.38 0 0 1-.1.21 2.38 2.38 0 0 1-.13.2 2.38 2.38 0 0 1-.12.16h1.47V8.05H8.7zm-5.67 2.02v1.01h6.66v-1.01H3.02z" fill="#447821"/></svg>