<?xml version="1.0" encoding="UTF-8" standalone="no"?><svg xmlns:dc="http://purl.org/dc/elements/1.1/" xmlns:cc="http://creativecommons.org/ns#" xmlns:rdf="http://www.w3.org/1999/02/22-rdf-syntax-ns#" xmlns="http://www.w3.org/2000/svg" width="48" height="48" viewBox="0 0 12.7 12.7"><metadata><rdf:RDF><cc:Work><dc:format>image/svg+xml</dc:format><dc:type rdf:resource="http://purl.org/dc/dcmitype/StillImage"/><dc:title/></cc:Work></rdf:RDF></metadata><path d="M7.35.06a.17.17 0 0 0-.1.03.1.1 0 0 0-.05.08 1.12 1.12 0 0 1 .71.97v.55c0 .27.23.5.52.5h1.81c.33 0 .6.15.81.38V.56a.5.5 0 0 0-.5-.5H7.79z" fill="#6c535d"/><path d="M2.95.55c-.63 0-1.14.5-1.14 1.14v9.9c0 .63.5 1.13 1.14 1.13H9.75c.63 0 1.14-.5 1.14-1.13V3.67h-.01c-.07-.56-.54-1-1.13-1H7.94a.52.52 0 0 1-.5-.51V1.6h-.01A1.12 1.12 0 0 0 6.35.55h-.02z" fill="#333"/><path d="M6.43 1.08a.5.5 0 0 1 .47.5v.48c0 .57.42 1.04.98 1.11l1.96.03c.28 0 .51.22.51.5v7.99a.5.5 0 0 1-.5.5H2.85a.5.5 0 0 1-.51-.5V1.59c0-.28.23-.5.5-.5h3.58z" fill="#ccc"/><path style="line-height:normal;text-indent:0;text-align:start;text-decoration-line:none;text-transform:none;marker:none" d="M5.1 3.8c-1.1 0-1.98.9-1.98 1.98A1.98 1.98 0 0 0 5.1 7.76c.8 0 1.58-.55 1.82-1.27h-.87c-.21.28-.6.48-.95.48a1.19 1.19 0 0 1 0-2.37c.42 0 .82.3 1.03.63h.78C6.84 4.52 5.97 3.8 5.1 3.8zM3.3 8.72a.14.14 0 0 0-.14.14v.19c0 .07.06.14.14.14h3.37c.08 0 .14-.07.14-.14v-.2a.14.14 0 0 0-.14-.13zm0 .92a.14.14 0 0 0-.14.14v.19c0 .08.06.14.14.14h4.16c.08 0 .14-.06.14-.14v-.2a.14.14 0 0 0-.14-.13zm0 .92a.14.14 0 0 0-.14.14v.2c0 .07.06.13.14.13h5.2c.08 0 .14-.06.14-.14v-.19a.14.14 0 0 0-.13-.14z" fill="#6c535d"/></svg>