<?xml version="1.0" encoding="UTF-8" standalone="no"?><svg xmlns:dc="http://purl.org/dc/elements/1.1/" xmlns:cc="http://creativecommons.org/ns#" xmlns:rdf="http://www.w3.org/1999/02/22-rdf-syntax-ns#" xmlns="http://www.w3.org/2000/svg" width="48" height="48" viewBox="0 0 12.7 12.7"><metadata><rdf:RDF><cc:Work><dc:format>image/svg+xml</dc:format><dc:type rdf:resource="http://purl.org/dc/dcmitype/StillImage"/><dc:title/></cc:Work></rdf:RDF></metadata><defs><linearGradient id="a"><stop offset="0" stop-color="#d5d5d5"/><stop offset=".48" stop-color="#dbdbdb"/><stop offset=".5" stop-color="#f1f1f1"/><stop offset="1" stop-color="#ededed"/></linearGradient></defs><path d="M7.35.06a.17.17 0 0 0-.1.03.1.1 0 0 0-.05.08 1.12 1.12 0 0 1 .71.97v.55c0 .27.23.5.52.5h1.81c.33 0 .6.15.81.38V.56a.5.5 0 0 0-.5-.5H7.79z" fill="green"/><path d="M2.95.55c-.63 0-1.14.5-1.14 1.14v9.9c0 .63.5 1.13 1.14 1.13H9.75c.63 0 1.14-.5 1.14-1.13V3.67h-.01c-.07-.56-.54-1-1.13-1H7.94a.52.52 0 0 1-.5-.51V1.6h-.01A1.12 1.12 0 0 0 6.35.55h-.02z" fill="#333"/><path d="M6.43 1.08a.5.5 0 0 1 .47.5v.48c0 .57.42 1.04.98 1.11l1.96.03c.28 0 .51.22.51.5v7.99a.5.5 0 0 1-.5.5H2.85a.5.5 0 0 1-.51-.5V1.59c0-.28.23-.5.5-.5h3.58z" fill="#ccc"/><path style="line-height:normal;text-indent:0;text-align:start;text-decoration-line:none;text-transform:none;marker:none" d="M3.17 5.06v.5H4.7v-.5H3.17zm1.96 0v.5h1.52v-.5H5.13zm-1.47.98v.5H7.6v-.5H3.66zm-.49.98v.5h3.4v-.5h-3.4zm3.91 0v.5H9.6v-.5H7.08zm-3.9.97v.5h1.56V8H3.17zm1.95 0v.5h2.9V8h-2.9zm3.42 0v.5h1.02V8H8.55zm-4.89.98v.5h5.31v-.5H3.66zm0 .98v.47h4.25v-.47H3.66zm4.9 0v.47h.97v-.47h-.98zm-5.44.98v.47h3.96v-.47H3.12zm4.8 0v.47h1.6v-.47h-1.6z" fill="green"/><path style="marker:none" d="M5.13 1.41l-.06.01-.2.07c-.11.04-.21.11-.26.22 0 .02-.06.1-.08.13-.05.06-.1.1-.16.14a.7.7 0 0 0-.2.2c-.08.1-.09.19-.12.3-.06.06-.1-.03-.09-.08.03-.14.1-.26.09-.41-.02-.2-.1-.45-.33-.46-.05 0-.07 0-.12.06a.24.24 0 0 1-.13.06c-.07.02-.16 0-.23.04a.22.22 0 0 0-.08.12c0 .04.01.07.05.09.07.03.2 0 .2.1-.02.11-.08.19-.08.3l.02.32c.01.14.11.21.18.33.1.13.29.27.47.22.06-.02.09-.02.1.01.02.03.03.05.02.1a.88.88 0 0 0 0 .24l.01.16c0 .03 0 .08.02.11v.12l.01.11v.18a.83.83 0 0 1-.1.26l-.01.01c-.09.05.13.05.15-.01l.02-.13.02-.1v-.08a.3.3 0 0 1 .04-.13.7.7 0 0 0 .03-.08l.01-.11.01-.13.04-.16c.04-.07.04-.08.04-.14 0-.08.02-.12.05-.14a.07.07 0 0 1 .05-.03h.02c.05 0 .07 0 .09.03v.08l-.01.08c0 .06-.02.09-.04.13-.03.06-.04.06-.04.15l.01.1.02.05.1.09c.05.03.1.08.13.12.03.04.08.08.09.14a.2.2 0 0 1-.06.12.19.19 0 0 1-.06.05c-.05.02-.07.03-.08.05l.01.02c0 .05.2.08.23 0a.11.11 0 0 0 .04-.04L5 4.36l.05.05.05.05c.02.02.04.03.06 0 .02 0 .04-.03.04-.08v-.06a.16.16 0 0 0-.07-.12.23.23 0 0 1-.03-.03.09.09 0 0 1 0-.07.4.4 0 0 1 .06-.13.7.7 0 0 0 .07-.1c0-.03.02-.04.04-.06a.3.3 0 0 0 .04-.06l.01-.02v-.11c0-.09 0-.17.02-.25 0-.1.04-.18.09-.26.03-.06.04-.07.07-.07.03 0 .05.03.05.1l.07.2a.6.6 0 0 0 .06.14l.06.16v.12c0 .09 0 .12.02.17a1 1 0 0 1 0 .2l-.02.1a.73.73 0 0 0-.04.17c0 .05-.01.06-.03.1a.2.2 0 0 0-.02.04c.04.04.1.05.22.03v-.01-.11s0-.07-.03-.13c-.03-.1-.03-.11-.02-.18a.6.6 0 0 0 .01-.08c0-.07.01-.09.03-.13a.25.25 0 0 0 .02-.1c0-.05 0-.08-.02-.12a.15.15 0 0 1-.01-.1v-.2l-.01-.32.02-.2c.02-.1.04-.14.06-.14.02 0 .04.03.05.1L6 3c.01.08 0 .16-.05.22-.02.04-.03.07-.02.1l.03.03h.02l.06-.07a.8.8 0 0 0 .05-.1c.04-.14.04-.25.02-.4 0-.1-.01-.13-.08-.2-.12-.15-.2-.29-.26-.47A.93.93 0 0 0 5.67 2a.42.42 0 0 1-.1-.16c-.02-.09-.05-.19-.1-.26-.05-.05-.1-.1-.16-.13a.36.36 0 0 0-.18-.04zM5.06 3.2h.02c.01.02.02.03.03.12v.14a.78.78 0 0 1 .02.28c0 .09-.02.13-.06.2l-.04.08c-.02.03-.03.05-.05.05h-.05a.5.5 0 0 1-.1-.07.36.36 0 0 1-.06-.1c-.03-.05-.03-.06-.03-.09s.01-.06.04-.09l.07-.07c.05-.04.05-.05.06-.11.01-.07.01-.07.05-.13a.33.33 0 0 0 .05-.12c.01-.06.02-.08.04-.09h.01z" color="#000" overflow="visible" fill="green"/></svg>