<svg xmlns="http://www.w3.org/2000/svg" width="48" height="48" viewBox="0 0 12.7 12.7"><path d="M7.35.06a.17.17 0 00-.1.03.1.1 0 00-.05.08 1.12 1.12 0 01.71.97v.55c0 .27.23.5.52.5h1.81c.33 0 .6.15.81.38V.56a.5.5 0 00-.5-.5H7.79z" fill="#d45500"/><path d="M2.95.55c-.63 0-1.14.5-1.14 1.14v9.9c0 .63.5 1.13 1.14 1.13h6.8c.63 0 1.14-.5 1.14-1.13V3.67h-.01c-.07-.56-.54-1-1.13-1H7.94a.52.52 0 01-.5-.51V1.6h-.01A1.12 1.12 0 006.35.55h-.02z" fill="#333"/><path d="M6.43 1.08a.5.5 0 01.47.5v.48c0 .57.42 1.04.98 1.11l1.96.03c.28 0 .51.22.51.5v7.99a.5.5 0 01-.5.5h-7a.5.5 0 01-.51-.5V1.59c0-.28.23-.5.5-.5h3.58z" fill="#ccc"/><path style="line-height:normal;text-indent:0;text-align:start;text-decoration-line:none;text-transform:none;marker:none" d="M6.566 5.233v.002a2.705 2.705 0 00-2.61 2.002H3.72c-.16 0-.29.13-.29.29v1.066c0 .16.13.291.29.291h.319a2.705 2.705 0 002.527 1.758 2.705 2.705 0 001.513-.462h.426c.096 0 .17-.074.17-.17V9.63a2.705 2.705 0 00.596-1.694 2.705 2.705 0 00-.264-1.156l.002-.01v-.666a.181.181 0 00-.181-.181h-.464a2.705 2.705 0 00-1.798-.691zm-.006.55a2.176 2.176 0 011.421.528v.457c0 .104.08.183.181.183h.327a2.176 2.176 0 01.25 1.01 2.176 2.176 0 01-.404 1.256h-.45a.17.17 0 00-.17.17v.417a2.176 2.176 0 01-1.155.333 2.176 2.176 0 01-1.968-1.253h.194c.16 0 .29-.13.29-.291V7.53a.29.29 0 00-.29-.291h-.277A2.176 2.176 0 016.56 5.782z" fill="#d45500"/></svg>