<?xml version="1.0" encoding="UTF-8" standalone="no"?><svg xmlns:dc="http://purl.org/dc/elements/1.1/" xmlns:cc="http://creativecommons.org/ns#" xmlns:rdf="http://www.w3.org/1999/02/22-rdf-syntax-ns#" xmlns="http://www.w3.org/2000/svg" width="48" height="48" viewBox="0 0 12.7 12.7"><metadata><rdf:RDF><cc:Work><dc:format>image/svg+xml</dc:format><dc:type rdf:resource="http://purl.org/dc/dcmitype/StillImage"/><dc:title/></cc:Work></rdf:RDF></metadata><path d="M7.35.06a.17.17 0 0 0-.1.03.1.1 0 0 0-.05.08 1.12 1.12 0 0 1 .71.97v.55c0 .27.23.5.52.5h1.81c.33 0 .6.15.81.38V.56a.5.5 0 0 0-.5-.5H7.79z" fill="#a02c2c"/><path d="M2.95.55c-.63 0-1.14.5-1.14 1.14v9.9c0 .63.5 1.13 1.14 1.13H9.75c.63 0 1.14-.5 1.14-1.13V3.67h-.01c-.07-.56-.54-1-1.13-1H7.94a.52.52 0 0 1-.5-.51V1.6h-.01A1.12 1.12 0 0 0 6.35.55h-.02z" fill="#333"/><path d="M6.43 1.08a.5.5 0 0 1 .47.5v.48c0 .57.42 1.04.98 1.11l1.96.03c.28 0 .51.22.51.5v7.99a.5.5 0 0 1-.5.5H2.85a.5.5 0 0 1-.51-.5V1.59c0-.28.23-.5.5-.5h3.58z" fill="#ccc"/><path d="M7.9 7.17a.3.32 50.55 0 0-.23-.1l-1.7-.08a.3.32 50.55 0 0-.33.27l-.72 3.62a.3.32 50.55 0 0 .3.35H8.9a.3.32 50.55 0 0 .32-.28l.26-1.68a.3.32 50.55 0 0-.06-.23l-.77-.94z" fill="#a02c2c"/><path d="M7.9 7.17a.3.32 50.55 0 0-.23-.1l-1.7-.08a.3.32 50.55 0 0-.22.08l3.37 4.08a.3.32 50.55 0 0 .11-.2l.26-1.68a.3.32 50.55 0 0-.06-.23l-.77-.94z" opacity=".4" fill="#fff"/><path d="M8.66 8.1l-.39 2.03L6.6 8.1z" fill="#a02c2c"/><path d="M4.98 11.13l3.3-1L6.58 8.1z" opacity=".4" fill="#fff"/></svg>