<?xml version="1.0" encoding="UTF-8" standalone="no"?><svg xmlns:dc="http://purl.org/dc/elements/1.1/" xmlns:cc="http://creativecommons.org/ns#" xmlns:rdf="http://www.w3.org/1999/02/22-rdf-syntax-ns#" xmlns="http://www.w3.org/2000/svg" width="48" height="48" viewBox="0 0 12.7 12.7"><metadata><rdf:RDF><cc:Work><dc:format>image/svg+xml</dc:format><dc:type rdf:resource="http://purl.org/dc/dcmitype/StillImage"/><dc:title/></cc:Work></rdf:RDF></metadata><path d="M7.45.02a.17.17 0 0 0-.11.03.1.1 0 0 0-.04.08 1.12 1.12 0 0 1 .7.97h.01v.55c0 .27.23.5.51.5H10.34c.32 0 .6.15.81.38V.52a.5.5 0 0 0-.5-.5H7.87z" fill="#216778"/><path d="M2.95.6c-.63 0-1.14.51-1.14 1.14v9.9c0 .63.5 1.14 1.14 1.14H9.75c.63 0 1.14-.5 1.14-1.14V3.73h-.01c-.07-.57-.54-1-1.13-1H8.06l-.12-.01a.52.52 0 0 1-.5-.5v-.55h-.01A1.12 1.12 0 0 0 6.35.6h-.02z" fill="#333"/><path d="M6.43 1.14a.5.5 0 0 1 .47.5v.48c0 .57.42 1.03.98 1.1l1.96.03c.28 0 .51.23.51.51v7.99a.5.5 0 0 1-.5.5H2.85a.5.5 0 0 1-.51-.5V1.64c0-.29.23-.51.5-.51h3.58z" fill="#ccc"/><path d="M5.86 2.07a.55.55 0 0 0-.05.06c-.07.07-.12.1-.2.1-.05 0-.07 0-.26-.04a2.98 2.98 0 0 0-.41-.05c-.22 0-.44.1-.65.32-.25.23-.35.44-.35.69 0 .1.01.18.06.3l.34-.18a1.3 1.3 0 0 1-.1-.42c0-.27.2-.42.54-.42h.17l.18.03h.07l.24.02-.8 1.03c-.19.25-.5.6-.61.72-.18.18-.32.24-.53.24-.08 0-.12 0-.2-.03l-.18.32c.1.04.16.05.24.05.32 0 .53-.16 1.13-.86.37 0 .64 0 .82.02l-.03.16-.03.25-.03.19-.02.2c0 .05.04.1.1.1.04 0 .08 0 .14-.02l.66-.12.07-.11h-.1l-.24.02c-.18 0-.23-.05-.23-.2 0-.3.18-1.6.32-2.32l-.06-.05zm-.34.53l-.18 1.16h-.7l.88-1.16zm-2.5 3.43v1h6.66v-1H3.02zm0 2.02v1h6.66v-1H3.02zm0 2.02v1.01h4.84v-1.01H3.02z" fill="#216778"/></svg>