<svg xmlns="http://www.w3.org/2000/svg" width="48" height="48" viewBox="0 0 12.7 12.7"><path d="M7.35.06a.17.17 0 00-.1.03.1.1 0 00-.05.08 1.12 1.12 0 01.71.97v.55c0 .27.23.5.52.5h1.81c.33 0 .6.15.81.38V.56a.5.5 0 00-.5-.5H7.79z" fill="#f60"/><path d="M2.95.55c-.63 0-1.14.5-1.14 1.14v9.9c0 .63.5 1.13 1.14 1.13h6.8c.63 0 1.14-.5 1.14-1.13V3.67h-.01c-.07-.56-.54-1-1.13-1H7.94a.52.52 0 01-.5-.51V1.6h-.01A1.12 1.12 0 006.35.55h-.02z" fill="#333"/><path d="M6.43 1.08a.5.5 0 01.47.5v.48c0 .57.42 1.04.98 1.11l1.96.03c.28 0 .51.22.51.5v7.99a.5.5 0 01-.5.5h-7a.5.5 0 01-.51-.5V1.59c0-.28.23-.5.5-.5h3.58z" fill="#ccc"/><path d="M3.93 5.517h4.84c.071 0 .128.057.128.128V9.21c0 .07-.057.128-.127.128H3.929a.127.127 0 01-.127-.128V5.645c0-.07.057-.128.127-.128zm2.6 4.077h2.24c.212 0 .383-.172.383-.383V5.645a.382.382 0 00-.382-.383H3.929a.382.382 0 00-.382.383V9.21c0 .212.171.383.382.383h2.24L5.114 10.65a.127.127 0 00.18.18l.936-.935-.006 1.354a.127.127 0 00.254.001l.007-1.342.922.922a.127.127 0 00.18-.18zm3.005-4.841a.127.127 0 100-.255h-6.37a.127.127 0 000 .255zM4.567 8.702c0 .07.057.127.127.127h3.312a.127.127 0 100-.255H4.821V6.536a.127.127 0 00-.254 0zm.764-2.675h.51v2.038h-.51zm1.019.51h.51v1.528h-.51zm1.02.509h.509v1.019h-.51z" fill="#f60" fill-rule="evenodd"/></svg>