<svg xmlns="http://www.w3.org/2000/svg" width="48" height="48" viewBox="0 0 12.7 12.7"><path d="M7.34.5c-.05 0-.1.01-.13.03-.03.02-.04.04-.05.07v.99c.18.05.33.12.46.22.24.17.39.4.4.66h.02v.48c0 .26.27.46.61.46h2.21c.4 0 .75.14 1 .35V.97a.4.4 0 00-.18-.33.74.74 0 00-.44-.14H7.88z" fill="#a02c2c"/><path d="M2.01 2C1.23 2 .6 2.42.6 2.97v8.67c0 .55.63.99 1.41.99h8.47c.79 0 1.42-.44 1.42-1v-6.9h-.02c-.08-.5-.67-.88-1.4-.88H8.23c-.35-.01-.63-.2-.63-.45v-.48h-.01c-.04-.5-.62-.9-1.34-.93h-.03z" fill="#333"/><path d="M6.34 2.59c.33.01.59.2.59.43v.4c0 .49.53.88 1.22.95l2.44.02c.35 0 .63.2.63.43v6.79c0 .24-.28.43-.63.43H1.9c-.35 0-.63-.2-.63-.43V3.02c0-.24.28-.43.63-.43h4.44z" fill="#ccc"/><path d="M6.234 5.54l-2.238.005c-.415 0-.75.223-.75.516v4.61c0 .292.335.526.75.526h4.503c.42 0 .755-.234.755-.532V6.996h-.01c-.043-.265-.357-.467-.745-.467H7.303c-.186-.006-.335-.107-.335-.24v-.255h-.006c-.02-.266-.33-.478-.712-.494h-.016zm-2.066.57h2.125c.158.004.282.096.282.206v.191c0 .235.254.421.584.455l1.168.01c.167 0 .3.095.3.205v3.25c0 .114-.133.205-.3.205H4.168c-.167 0-.302-.096-.302-.206v-4.11c0-.115.135-.206.302-.206z" fill="#333"/></svg>