<?xml version="1.0" encoding="UTF-8"?>
<svg width="16" height="16" xmlns="http://www.w3.org/2000/svg">
 <g fill="#474747" font-family="Sans" font-weight="400">
  <path d="M8.487.02A7.492 7.492 0 0 0 1 7.507a7.492 7.492 0 0 0 7.487 7.486 7.492 7.492 0 0 0 7.486-7.486A7.492 7.492 0 0 0 8.487.02zm0 1.973A5.508 5.508 0 0 1 14 7.507a5.508 5.508 0 0 1-5.513 5.513 5.508 5.508 0 0 1-5.514-5.513 5.508 5.508 0 0 1 5.514-5.514z" overflow="visible" style="text-decoration-line:none;text-indent:0;text-transform:none"/>
  <path d="M11.393 4.007a.5.5 0 0 0-.25.156L8.487 6.819 6.83 5.163a.5.5 0 1 0-.687.687l2 2a.5.5 0 0 0 .687 0l3-3a.5.5 0 0 0-.437-.843z" overflow="visible" style="text-decoration-line:none;text-indent:0;text-transform:none"/>
 </g>
</svg>
