<svg xmlns="http://www.w3.org/2000/svg" xmlns:xlink="http://www.w3.org/1999/xlink" width="64" height="64" viewBox="0 0 16.93 16.93"><defs><linearGradient id="a"><stop offset="0" stop-color="#fff"/><stop offset=".51" stop-color="#fff" stop-opacity=".24"/><stop offset=".83" stop-color="#fff" stop-opacity=".16"/><stop offset="1" stop-color="#fff" stop-opacity=".39"/></linearGradient><linearGradient id="b"><stop offset="0" stop-color="#4d4d4d"/><stop offset="1"/></linearGradient><linearGradient xlink:href="#c" id="e" x1="-.66" y1="285.48" x2="10.07" y2="286.21" gradientUnits="userSpaceOnUse"/><linearGradient id="c"><stop offset="0"/><stop offset="1" stop-color="#333"/></linearGradient><linearGradient xlink:href="#d" id="k" gradientUnits="userSpaceOnUse" x1="6.26" y1="285.17" x2="13.95" y2="286.63"/><linearGradient id="d"><stop offset="0" stop-color="#003380"/><stop offset="1" stop-color="#0cf"/></linearGradient><linearGradient xlink:href="#d" id="j" gradientUnits="userSpaceOnUse" x1="6.26" y1="285.17" x2="13.95" y2="286.63" gradientTransform="matrix(.26458 0 0 .26458 0 280.07)"/><linearGradient xlink:href="#c" id="f" gradientUnits="userSpaceOnUse" x1="-.66" y1="285.48" x2="10.07" y2="286.21"/><linearGradient xlink:href="#c" id="g" gradientUnits="userSpaceOnUse" x1="-.66" y1="285.48" x2="10.07" y2="286.21"/><linearGradient xlink:href="#c" id="h" gradientUnits="userSpaceOnUse" x1="-.66" y1="285.48" x2="10.07" y2="286.21"/><linearGradient xlink:href="#d" id="i" gradientUnits="userSpaceOnUse" x1="6.26" y1="285.17" x2="13.95" y2="286.63"/></defs><g fill="url(#e)" transform="matrix(1.03433 0 0 1.03433 -.24 -290.2)"><path style="line-height:1.25;-inkscape-font-specification:Suruma" d="M.71 285.54v9.85l.66-.08v-8.59l5.6 8.67h.58l-6.38-9.85z" font-weight="400" font-size="14.99" font-family="Suruma" letter-spacing="0" word-spacing="0" fill="url(#f)"/><path style="line-height:1.25;-inkscape-font-specification:Suruma" d="M6.5 20.68l24.09 37.23h1.47V20.68h-2.72v31.73L8.94 20.68z" transform="matrix(.26458 0 0 .26458 0 280.07)" font-weight="400" font-size="14.99" font-family="Suruma" letter-spacing="0" word-spacing="0" fill="url(#g)"/><path d="M8.81 284.51a1.18 1.21 0 0 0 1.05-1.2 1.18 1.21 0 0 0-1.05-1.2z" fill="url(#h)"/></g><path d="M9.6 285.54H8.8v9.85h.79v-9.18z" style="line-height:1.25;-inkscape-font-specification:Suruma" font-weight="400" font-size="14.99" font-family="Suruma" letter-spacing="0" word-spacing="0" fill="url(#i)" transform="matrix(1.03433 0 0 1.03433 -.24 -290.2)"/><path d="M10.07 285.54v.67h2.41c.66 0 1.15.14 1.47.42.32.28.49.73.5 1.35 0 1.34-.6 2.01-1.77 2.01h-2.2v.68h2.29c1.4 0 2.11.64 2.11 1.93 0 1.41-.59 2.11-1.77 2.11h-3.04v.68h3.16c1.93 0 2.9-.94 2.9-2.8 0-1.11-.6-1.9-1.79-2.37.91-.42 1.37-1.16 1.37-2.2 0-.88-.24-1.5-.72-1.9-.48-.39-1.21-.58-2.2-.58z" style="line-height:1.25;-inkscape-font-specification:Suruma" font-weight="400" font-size="14.99" font-family="Suruma" letter-spacing="0" word-spacing="0" fill="url(#j)" transform="matrix(1.03433 0 0 1.03433 -.24 -290.2)"/><path d="M8.48 282.12a1.18 1.21 0 0 0-.97 1.19 1.18 1.21 0 0 0 .97 1.2z" fill="url(#k)" transform="matrix(1.03433 0 0 1.03433 -.24 -290.2)"/></svg>