<?xml version="1.0" encoding="UTF-8" standalone="no"?>
<!-- Created with Inkscape (http://www.inkscape.org/) -->

<svg
   xmlns:dc="http://purl.org/dc/elements/1.1/"
   xmlns:cc="http://creativecommons.org/ns#"
   xmlns:rdf="http://www.w3.org/1999/02/22-rdf-syntax-ns#"
   xmlns:svg="http://www.w3.org/2000/svg"
   xmlns="http://www.w3.org/2000/svg"
   xmlns:xlink="http://www.w3.org/1999/xlink"
   xmlns:sodipodi="http://sodipodi.sourceforge.net/DTD/sodipodi-0.dtd"
   xmlns:inkscape="http://www.inkscape.org/namespaces/inkscape"
   width="64"
   height="64"
   viewBox="0 0 16.933333 16.933334"
   version="1.1"
   id="svg904"
   inkscape:version="0.92.3 (2405546, 2018-03-11)"
   sodipodi:docname="LOGO.svg">
  <defs
     id="defs898">
    <linearGradient
       xlink:href="#a"
       id="h"
       gradientUnits="userSpaceOnUse"
       gradientTransform="matrix(0.35671125,0,0,0.35671125,-17.121187,279.48721)"
       x1="71.199997"
       y1="6.2399998"
       x2="71.199997"
       y2="44.34" />
    <linearGradient
       id="a">
      <stop
         offset="0"
         stop-color="#fff"
         id="stop2" />
      <stop
         offset=".51"
         stop-color="#fff"
         stop-opacity=".24"
         id="stop4" />
      <stop
         offset=".83"
         stop-color="#fff"
         stop-opacity=".16"
         id="stop6" />
      <stop
         offset="1"
         stop-color="#fff"
         stop-opacity=".39"
         id="stop8" />
    </linearGradient>
    <radialGradient
       xlink:href="#d"
       id="g"
       cx="35.799999"
       cy="11.56"
       fx="35.799999"
       fy="11.56"
       r="20.5"
       gradientTransform="matrix(0.3384206,0,0,0.3384206,-6.4240832,280.41061)"
       gradientUnits="userSpaceOnUse" />
    <linearGradient
       id="d">
      <stop
         offset="0"
         stop-color="#4d4d4d"
         id="stop27" />
      <stop
         offset="1"
         id="stop29" />
    </linearGradient>
    <linearGradient
       xlink:href="#a"
       id="h-4"
       gradientUnits="userSpaceOnUse"
       gradientTransform="matrix(0.38392034,0,0,0.38392034,-29.656303,278.7972)"
       x1="71.199997"
       y1="6.2399998"
       x2="71.199997"
       y2="44.34" />
    <radialGradient
       xlink:href="#d"
       id="g-9"
       cx="42.979275"
       cy="21.891153"
       fx="42.979275"
       fy="21.891153"
       r="20.5"
       gradientTransform="matrix(0.36423453,0,0,0.36423453,-18.143249,279.79103)"
       gradientUnits="userSpaceOnUse" />
    <linearGradient
       xlink:href="#a"
       id="h-4-3"
       gradientUnits="userSpaceOnUse"
       gradientTransform="matrix(0.38392033,0,0,0.38392033,-19.072969,278.79719)"
       x1="71.199997"
       y1="6.2399998"
       x2="71.199997"
       y2="44.34" />
    <linearGradient
       gradientTransform="translate(10.583334,-1.0433333e-5)"
       inkscape:collect="always"
       xlink:href="#linearGradient851"
       id="linearGradient853"
       x1="-5.8409829"
       y1="284.99152"
       x2="4.6282973"
       y2="296.83145"
       gradientUnits="userSpaceOnUse" />
    <linearGradient
       inkscape:collect="always"
       id="linearGradient851">
      <stop
         id="stop849"
         offset="0"
         style="stop-color:#000000;stop-opacity:1" />
      <stop
         id="stop847"
         offset="1"
         style="stop-color:#1a1a1a;stop-opacity:1;" />
    </linearGradient>
    <radialGradient
       inkscape:collect="always"
       xlink:href="#linearGradient837"
       id="radialGradient837"
       gradientUnits="userSpaceOnUse"
       gradientTransform="matrix(0.47608884,0.43642655,-0.20550786,0.22418432,1.1563122,275.00103)"
       cx="15.626953"
       cy="18.620087"
       fx="15.626953"
       fy="18.620087"
       r="19.90332" />
    <linearGradient
       id="linearGradient837"
       inkscape:collect="always">
      <stop
         id="stop833"
         offset="0"
         style="stop-color:#d35f5f;stop-opacity:1" />
      <stop
         id="stop835"
         offset="1"
         style="stop-color:#aa0000;stop-opacity:1" />
    </linearGradient>
  </defs>
  <sodipodi:namedview
     id="base"
     pagecolor="#ffffff"
     bordercolor="#666666"
     borderopacity="1.0"
     inkscape:pageopacity="0.0"
     inkscape:pageshadow="2"
     inkscape:zoom="2.0742188"
     inkscape:cx="32"
     inkscape:cy="32"
     inkscape:document-units="mm"
     inkscape:current-layer="layer1"
     showgrid="false"
     units="px"
     inkscape:snap-smooth-nodes="true"
     showguides="true"
     inkscape:guide-bbox="true"
     inkscape:snap-global="true"
     inkscape:window-width="1366"
     inkscape:window-height="719"
     inkscape:window-x="0"
     inkscape:window-y="25"
     inkscape:window-maximized="1" />
  <metadata
     id="metadata901">
    <rdf:RDF>
      <cc:Work
         rdf:about="">
        <dc:format>image/svg+xml</dc:format>
        <dc:type
           rdf:resource="http://purl.org/dc/dcmitype/StillImage" />
        <dc:title></dc:title>
      </cc:Work>
    </rdf:RDF>
  </metadata>
  <g
     inkscape:label="Capa 1"
     inkscape:groupmode="layer"
     id="layer1"
     transform="translate(0,-280.06665)">
    <path
       d="m 8.4666669,281.06678 a 7.4722371,7.4722371 0 0 0 -7.4665417,7.46653 7.4722371,7.4722371 0 0 0 7.4665417,7.46654 7.4722371,7.4722371 0 0 0 7.4665411,-7.46654 7.4722371,7.4722371 0 0 0 -7.4665411,-7.46653 z"
       style="color:#000000;overflow:visible;fill:url(#linearGradient853);fill-opacity:1;stroke-width:0.28476509;marker:none"
       overflow="visible"
       id="path44"
       inkscape:connector-curvature="0" />
    <path
       inkscape:connector-curvature="0"
       d="m 15.568708,288.53331 a 7.1020427,7.1020427 0 1 1 -14.2040838,0 7.1020427,7.1020427 0 0 1 14.2040838,0 z"
       style="color:#000000;overflow:visible;opacity:0.3;fill:none;stroke:url(#h-4-3);stroke-width:0.28476509;stroke-linecap:round;stroke-linejoin:round;marker:none"
       overflow="visible"
       id="path46" />
    <path
       style="font-style:normal;font-variant:normal;font-weight:normal;font-stretch:normal;font-size:10.58333302px;line-height:1.25;font-family:RaghuMalayalam;-inkscape-font-specification:RaghuMalayalam;letter-spacing:0px;word-spacing:0px;fill:url(#radialGradient837);fill-opacity:1;stroke:none;stroke-width:0.22972453"
       d="m 8.6404325,283.24135 a 0.48110759,0.47118873 0 0 0 -0.481108,0.47129 0.48110759,0.47118873 0 0 0 0.481108,0.47129 0.48110759,0.47118873 0 0 0 0.4811075,-0.47129 0.48110759,0.47118873 0 0 0 -0.4811075,-0.47129 z m -0.5131469,1.92547 v 0.76636 0.0264 0.29249 4.0225 0.0543 l 0.4470011,0.83044 h 0.5152136 v -2.31149 -0.15038 -0.54312 -0.19534 -1.70687 -0.29042 h 0.3400311 1.4242076 c 0.469961,0 0.819369,0.0894 1.047998,0.26717 0.231802,0.17782 0.347783,0.44578 0.347783,0.8046 0,0.36199 -0.115981,0.63195 -0.347783,0.80977 -0.228629,0.17465 -0.578037,0.262 -1.047998,0.262 H 9.4295314 v 0.78135 h 1.5435806 c 0.517592,0 0.900052,0.10608 1.147733,0.31884 0.250855,0.20956 0.376205,0.53678 0.376204,0.98134 0,0.44139 -0.125349,0.77006 -0.376204,0.98598 -0.247681,0.21276 -0.630141,0.31936 -1.147733,0.31936 H 9.4295314 8.4678329 8.4621523 l -0.2092894,-0.38964 v 0.0176 L 5.5476025,286.0165 5.5186635,285.9617 5.0959503,285.16743 H 4.892862 l 0.00206,0.004 H 3.8040365 v 7.11119 h 0.9337931 v -5.94951 l 3.152779,5.94951 h 0.9968384 2.133208 c 0.797025,0 1.411446,-0.17324 1.843299,-0.51935 0.431856,-0.34612 0.648022,-0.83666 0.648022,-1.47174 0,-0.48266 -0.132285,-0.88439 -0.395841,-1.2051 -0.260384,-0.3239 -0.627057,-0.53658 -1.100192,-0.6382 0.39375,-0.0634 0.692328,-0.2239 0.895553,-0.48111 0.203224,-0.2572 0.304891,-0.60314 0.304891,-1.03818 0,-0.56204 -0.198389,-0.99584 -0.595313,-1.30069 -0.396926,-0.3048 -0.961987,-0.4573 -1.695503,-0.4573 H 8.4859137 v -0.004 z"
       id="path835"
       inkscape:connector-curvature="0" />
  </g>
</svg>
