<?xml version="1.0" encoding="UTF-8" standalone="no"?>
<!-- Created with Inkscape (http://www.inkscape.org/) -->

<svg
   xmlns:dc="http://purl.org/dc/elements/1.1/"
   xmlns:cc="http://creativecommons.org/ns#"
   xmlns:rdf="http://www.w3.org/1999/02/22-rdf-syntax-ns#"
   xmlns:svg="http://www.w3.org/2000/svg"
   xmlns="http://www.w3.org/2000/svg"
   xmlns:xlink="http://www.w3.org/1999/xlink"
   xmlns:sodipodi="http://sodipodi.sourceforge.net/DTD/sodipodi-0.dtd"
   xmlns:inkscape="http://www.inkscape.org/namespaces/inkscape"
   width="64"
   height="64"
   viewBox="0 0 16.933333 16.933334"
   version="1.1"
   id="svg904"
   inkscape:version="0.92.3 (2405546, 2018-03-11)"
   sodipodi:docname="LOGO.svg">
  <defs
     id="defs898">
    <linearGradient
       xlink:href="#a"
       id="h"
       gradientUnits="userSpaceOnUse"
       gradientTransform="matrix(0.35671125,0,0,0.35671125,-17.121187,279.48721)"
       x1="71.199997"
       y1="6.2399998"
       x2="71.199997"
       y2="44.34" />
    <linearGradient
       id="a">
      <stop
         offset="0"
         stop-color="#fff"
         id="stop2" />
      <stop
         offset=".51"
         stop-color="#fff"
         stop-opacity=".24"
         id="stop4" />
      <stop
         offset=".83"
         stop-color="#fff"
         stop-opacity=".16"
         id="stop6" />
      <stop
         offset="1"
         stop-color="#fff"
         stop-opacity=".39"
         id="stop8" />
    </linearGradient>
    <radialGradient
       xlink:href="#d"
       id="g"
       cx="35.799999"
       cy="11.56"
       fx="35.799999"
       fy="11.56"
       r="20.5"
       gradientTransform="matrix(0.3384206,0,0,0.3384206,-6.4240832,280.41061)"
       gradientUnits="userSpaceOnUse" />
    <linearGradient
       id="d">
      <stop
         offset="0"
         stop-color="#4d4d4d"
         id="stop27" />
      <stop
         offset="1"
         id="stop29" />
    </linearGradient>
    <linearGradient
       inkscape:collect="always"
       id="linearGradient5332">
      <stop
         style="stop-color:#ff2a2a;stop-opacity:1"
         offset="0"
         id="stop5328" />
      <stop
         style="stop-color:#aa0000;stop-opacity:1"
         offset="1"
         id="stop5330" />
    </linearGradient>
    <linearGradient
       xlink:href="#a"
       id="h-4"
       gradientUnits="userSpaceOnUse"
       gradientTransform="matrix(0.38392034,0,0,0.38392034,-19.072969,278.7972)"
       x1="71.199997"
       y1="6.2399998"
       x2="71.199997"
       y2="44.34" />
    <radialGradient
       xlink:href="#d"
       id="g-9"
       cx="35.799999"
       cy="11.56"
       fx="35.799999"
       fy="11.56"
       r="20.5"
       gradientTransform="matrix(0.36423453,0,0,0.36423453,-7.5599149,279.79103)"
       gradientUnits="userSpaceOnUse" />
    <radialGradient
       inkscape:collect="always"
       xlink:href="#linearGradient5332"
       id="radialGradient837"
       gradientUnits="userSpaceOnUse"
       gradientTransform="matrix(1.7993909,1.6494862,-0.77672262,0.84731082,3.801453,-19.810507)"
       cx="15.626953"
       cy="18.620087"
       fx="15.626953"
       fy="18.620087"
       r="19.90332" />
    <radialGradient
       inkscape:collect="always"
       xlink:href="#linearGradient5332"
       id="radialGradient843"
       gradientUnits="userSpaceOnUse"
       gradientTransform="matrix(1.7993909,1.6494862,-0.77672262,0.84731082,5.3193441,-18.846463)"
       cx="15.626953"
       cy="18.620087"
       fx="15.626953"
       fy="18.620087"
       r="19.90332" />
  </defs>
  <sodipodi:namedview
     id="base"
     pagecolor="#ffffff"
     bordercolor="#666666"
     borderopacity="1.0"
     inkscape:pageopacity="0.0"
     inkscape:pageshadow="2"
     inkscape:zoom="8.296875"
     inkscape:cx="32"
     inkscape:cy="32"
     inkscape:document-units="mm"
     inkscape:current-layer="layer1"
     showgrid="false"
     units="px"
     inkscape:snap-smooth-nodes="true"
     showguides="true"
     inkscape:guide-bbox="true"
     inkscape:snap-global="true"
     inkscape:window-width="1366"
     inkscape:window-height="719"
     inkscape:window-x="0"
     inkscape:window-y="25"
     inkscape:window-maximized="1" />
  <metadata
     id="metadata901">
    <rdf:RDF>
      <cc:Work
         rdf:about="">
        <dc:format>image/svg+xml</dc:format>
        <dc:type
           rdf:resource="http://purl.org/dc/dcmitype/StillImage" />
        <dc:title></dc:title>
      </cc:Work>
    </rdf:RDF>
  </metadata>
  <g
     inkscape:label="Capa 1"
     inkscape:groupmode="layer"
     id="layer1"
     transform="translate(0,-280.06665)">
    <path
       d="m 8.4666662,281.06678 a 7.4722369,7.4722369 0 0 0 -7.4665416,7.46653 7.4722369,7.4722369 0 0 0 7.4665416,7.46654 7.4722369,7.4722369 0 0 0 7.4665418,-7.46654 7.4722369,7.4722369 0 0 0 -7.4665418,-7.46653 z"
       style="color:#000000;overflow:visible;fill:url(#g-9);stroke-width:0.28476509;marker:none"
       overflow="visible"
       id="path44"
       inkscape:connector-curvature="0" />
    <path
       style="font-style:normal;font-variant:normal;font-weight:normal;font-stretch:normal;font-size:10.58333302px;line-height:1.25;font-family:RaghuMalayalam;-inkscape-font-specification:RaghuMalayalam;letter-spacing:0px;word-spacing:0px;opacity:0.26600001;fill:url(#radialGradient843);fill-opacity:1;stroke:none;stroke-width:0.86825019"
       d="M 33.605469 12.298828 A 1.8183594 1.7808708 0 0 0 31.787109 14.080078 A 1.8183594 1.7808708 0 0 0 33.605469 15.861328 A 1.8183594 1.7808708 0 0 0 35.423828 14.080078 A 1.8183594 1.7808708 0 0 0 33.605469 12.298828 z M 31.787109 19.576172 L 31.787109 22.472656 L 31.787109 22.572266 L 31.787109 23.677734 L 31.787109 38.880859 L 31.787109 39.085938 L 33.476562 42.224609 L 35.423828 42.224609 L 35.423828 33.488281 L 35.423828 32.919922 L 35.423828 30.867188 L 35.423828 30.128906 L 35.423828 23.677734 L 35.423828 22.580078 L 36.708984 22.580078 L 42.091797 22.580078 C 43.868027 22.580078 45.188625 22.917957 46.052734 23.589844 C 46.928836 24.261919 47.367188 25.274689 47.367188 26.630859 C 47.367188 27.999011 46.928836 29.019331 46.052734 29.691406 C 45.188625 30.351501 43.868027 30.681641 42.091797 30.681641 L 36.708984 30.681641 L 36.708984 33.634766 L 42.542969 33.634766 C 44.499222 33.634766 45.944742 34.035711 46.880859 34.839844 C 47.828973 35.631882 48.302738 36.868601 48.302734 38.548828 C 48.302734 40.217074 47.828973 41.459277 46.880859 42.275391 C 45.944742 43.079485 44.499222 43.482422 42.542969 43.482422 L 36.708984 43.482422 L 33.074219 43.482422 L 33.052734 43.482422 L 32.261719 42.009766 L 32.261719 42.076172 L 22.037109 22.787109 L 21.927734 22.580078 L 20.330078 19.578125 L 19.5625 19.578125 L 19.570312 19.59375 L 15.447266 19.59375 L 15.447266 46.470703 L 18.976562 46.470703 L 18.976562 23.984375 L 30.892578 46.470703 L 34.660156 46.470703 L 42.722656 46.470703 C 45.735034 46.470703 48.057253 45.815945 49.689453 44.507812 C 51.321665 43.199642 52.138672 41.345615 52.138672 38.945312 C 52.138672 37.121086 51.638695 35.602757 50.642578 34.390625 C 49.65845 33.166436 48.272602 32.362591 46.484375 31.978516 C 47.972564 31.738894 49.101046 31.132289 49.869141 30.160156 C 50.637231 29.188062 51.021484 27.880574 51.021484 26.236328 C 51.021484 24.112082 50.27167 22.472501 48.771484 21.320312 C 47.271288 20.168161 45.135625 19.591797 42.363281 19.591797 L 33.142578 19.591797 L 33.142578 19.576172 L 31.787109 19.576172 z "
       transform="matrix(0.26458333,0,0,0.26458333,0,280.06665)"
       id="path841" />
    <path
       inkscape:connector-curvature="0"
       d="m 15.568708,288.53331 a 7.1020424,7.1020424 0 1 1 -14.2040842,0 7.1020426,7.1020426 0 0 1 14.2040842,0 z"
       style="color:#000000;overflow:visible;opacity:0.3;fill:none;stroke:url(#h-4);stroke-width:0.28476509;stroke-linecap:round;stroke-linejoin:round;marker:none"
       overflow="visible"
       id="path46" />
    <path
       style="font-style:normal;font-variant:normal;font-weight:normal;font-stretch:normal;font-size:10.58333302px;line-height:1.25;font-family:RaghuMalayalam;-inkscape-font-specification:RaghuMalayalam;letter-spacing:0px;word-spacing:0px;fill:url(#radialGradient837);fill-opacity:1;stroke:none;stroke-width:0.86825019"
       d="M 32.087891 11.333984 A 1.8183594 1.7808708 0 0 0 30.269531 13.115234 A 1.8183594 1.7808708 0 0 0 32.087891 14.896484 A 1.8183594 1.7808708 0 0 0 33.90625 13.115234 A 1.8183594 1.7808708 0 0 0 32.087891 11.333984 z M 30.148438 18.611328 L 30.148438 21.507812 L 30.148438 21.607422 L 30.148438 22.712891 L 30.148438 37.916016 L 30.148438 38.121094 L 31.837891 41.259766 L 33.785156 41.259766 L 33.785156 32.523438 L 33.785156 31.955078 L 33.785156 29.902344 L 33.785156 29.164062 L 33.785156 22.712891 L 33.785156 21.615234 L 35.070312 21.615234 L 40.453125 21.615234 C 42.229356 21.615234 43.549953 21.953113 44.414062 22.625 C 45.290165 23.297076 45.728516 24.309846 45.728516 25.666016 C 45.728516 27.034167 45.290165 28.054487 44.414062 28.726562 C 43.549953 29.386657 42.229356 29.716797 40.453125 29.716797 L 35.070312 29.716797 L 35.070312 32.669922 L 40.904297 32.669922 C 42.86055 32.669922 44.30607 33.070868 45.242188 33.875 C 46.190301 34.667038 46.664066 35.903758 46.664062 37.583984 C 46.664062 39.25223 46.190301 40.494471 45.242188 41.310547 C 44.30607 42.114679 42.86055 42.517578 40.904297 42.517578 L 35.070312 42.517578 L 31.435547 42.517578 L 31.414062 42.517578 L 30.623047 41.044922 L 30.623047 41.111328 L 20.398438 21.822266 L 20.289062 21.615234 L 18.691406 18.613281 L 17.923828 18.613281 L 17.931641 18.628906 L 13.808594 18.628906 L 13.808594 45.505859 L 17.337891 45.505859 L 17.337891 23.019531 L 29.253906 45.505859 L 33.021484 45.505859 L 41.083984 45.505859 C 44.096362 45.505859 46.418581 44.851101 48.050781 43.542969 C 49.682993 42.234799 50.5 40.380771 50.5 37.980469 C 50.5 36.156242 50.000023 34.637914 49.003906 33.425781 C 48.019778 32.201592 46.63393 31.397747 44.845703 31.013672 C 46.333892 30.77405 47.462374 30.167445 48.230469 29.195312 C 48.998559 28.223218 49.382812 26.91573 49.382812 25.271484 C 49.382812 23.147239 48.632994 21.507658 47.132812 20.355469 C 45.632616 19.203318 43.496953 18.626953 40.724609 18.626953 L 31.503906 18.626953 L 31.503906 18.611328 L 30.148438 18.611328 z "
       transform="matrix(0.26458333,0,0,0.26458333,0,280.06665)"
       id="path835" />
  </g>
</svg>
