<svg xmlns="http://www.w3.org/2000/svg" xmlns:xlink="http://www.w3.org/1999/xlink" width="128" height="128"><defs><linearGradient id="a"><stop offset="0" stop-color="#e20800"/><stop offset="1" stop-color="#9c0f0f"/></linearGradient><linearGradient gradientTransform="translate(0 -1)" xlink:href="#b" id="g" x1="125" y1="1007.25" x2="125" y2="1010.74" gradientUnits="userSpaceOnUse"/><linearGradient id="b"><stop offset="0"/><stop offset="1" stop-opacity=".05"/></linearGradient><linearGradient xlink:href="#c" id="f" x1="26.37" y1="110.28" x2="26.37" y2="28.13" gradientUnits="userSpaceOnUse" gradientTransform="translate(-.03 924.36)"/><linearGradient id="c"><stop offset="0"/><stop offset="1" stop-color="#666"/></linearGradient><linearGradient gradientTransform="matrix(3.91005 0 0 3.91005 51.077 -1055.03)" xlink:href="#d" id="j" gradientUnits="userSpaceOnUse" x1="6.26" y1="285.17" x2="13.95" y2="286.63"/><linearGradient id="d"><stop offset="0" stop-color="#003380"/><stop offset="1" stop-color="#0cf"/></linearGradient><linearGradient xlink:href="#d" id="i" gradientUnits="userSpaceOnUse" x1="6.26" y1="285.17" x2="13.95" y2="286.63" gradientTransform="translate(51.077 40.057) scale(1.03452)"/><linearGradient id="e"><stop offset="0"/><stop offset="1" stop-color="#333"/></linearGradient><linearGradient xlink:href="#d" id="h" gradientUnits="userSpaceOnUse" gradientTransform="matrix(3.91005 0 0 3.91005 51.077 -1055.03)" x1="6.26" y1="285.17" x2="13.95" y2="286.63"/></defs><g transform="translate(0 -924.36)"><path d="M2.97 973.72v58.63a2.9 2.9 0 0 0 2.99 3.01h115.98c2.13 0 3.03-1.35 3.03-2.97v-75.43a4.6 4.6 0 0 0-4.62-4.6H60.7v5.36h-.03c0 .22.03.42.03.64a15.54 15.54 0 0 1-2.62 8.6 15.37 15.37 0 0 1-12.74 6.76H15.33z" fill="url(#f)"/><path d="M17.7 942.38c-8.14 0-14.7 5.7-14.7 12.77 0 .18.02.35.03.52H3v14.05h38.62c8.14 0 14.7-5.7 14.7-12.76 0-.18-.03-.35-.04-.53h.03v-14.05H22.13z" fill="#3771c8"/><path d="M3 1007.36v9h122v-9z" opacity=".43"/><rect width="122" height="1" x="3" y="1016.36" rx="0" ry="1" opacity=".11" fill="#fff"/><path d="M3 1007.36v9l122-4v-5z" opacity=".57" fill="url(#g)"/></g><path word-spacing="0" letter-spacing="0" font-size="14.99" font-weight="400" d="M56.031 63.203v38.514l2.58-.313V67.817l21.897 33.9h2.268L57.83 63.203zM59.98 63.21L84.9 101.723h1.52V63.21h-2.813v32.826L62.504 63.209z" style="line-height:1.25;-inkscape-font-specification:Suruma" font-family="Suruma"/><path d="M87.703 59.176a4.614 4.731 0 0 0 4.105-4.692 4.614 4.731 0 0 0-4.105-4.692z"/><path word-spacing="0" letter-spacing="0" font-size="14.99" font-weight="400" style="line-height:1.25;-inkscape-font-specification:Suruma" d="M90.792 63.203h-3.128v38.514h3.088V65.823zM92.63 63.203v2.62h9.422c2.581 0 4.497.547 5.748 1.642 1.251 1.095 1.916 2.855 1.955 5.279 0 5.24-2.346 7.859-6.92 7.859h-8.603v2.659h8.954c5.474 0 8.25 2.502 8.25 7.546 0 5.513-2.306 8.25-6.92 8.25H92.629v2.66h12.356c7.546 0 11.34-3.676 11.34-10.949 0-4.34-2.347-7.429-7-9.267 3.558-1.642 5.357-4.535 5.357-8.602 0-3.44-.938-5.865-2.815-7.429-1.877-1.525-4.731-2.268-8.602-2.268z" font-family="Suruma"/><path d="M86.412 49.83a4.614 4.731 0 0 0-3.792 4.654 4.614 4.731 0 0 0 3.792 4.692z"/><g fill="#ccc"><path style="line-height:1.25;-inkscape-font-specification:Suruma" d="M53.854 61.445V99.96l2.58-.313V66.06l21.896 33.9h2.268L55.652 61.445zM57.802 61.451l24.921 38.515h1.521V61.451H81.43v32.825L60.326 61.451z" font-weight="400" font-size="14.99" letter-spacing="0" word-spacing="0" font-family="Suruma"/><path d="M85.525 57.418a4.614 4.731 0 0 0 4.105-4.692 4.614 4.731 0 0 0-4.105-4.692z"/></g><path d="M88.614 61.445h-3.128V99.96h3.089V64.065z" style="line-height:1.25;-inkscape-font-specification:Suruma" font-weight="400" font-size="14.99" letter-spacing="0" word-spacing="0" font-family="Suruma" fill="url(#h)"/><path d="M90.452 61.445v2.62h9.423c2.58 0 4.496.547 5.748 1.642 1.25 1.095 1.915 2.855 1.955 5.279 0 5.24-2.346 7.859-6.921 7.859h-8.602v2.659h8.954c5.474 0 8.25 2.502 8.25 7.546 0 5.513-2.307 8.25-6.92 8.25H90.451v2.66h12.355c7.547 0 11.34-3.676 11.34-10.949 0-4.34-2.347-7.429-7-9.267 3.559-1.642 5.357-4.535 5.357-8.602 0-3.44-.938-5.865-2.815-7.429-1.877-1.525-4.731-2.268-8.602-2.268z" style="line-height:1.25;-inkscape-font-specification:Suruma" font-weight="400" font-size="14.99" letter-spacing="0" word-spacing="0" font-family="Suruma" fill="url(#i)"/><path d="M84.235 48.073a4.614 4.731 0 0 0-3.793 4.653 4.614 4.731 0 0 0 3.793 4.692z" fill="url(#j)"/></svg>