<svg xmlns="http://www.w3.org/2000/svg" xmlns:xlink="http://www.w3.org/1999/xlink" version="1" width="64" height="64" viewBox="0 0 60 60"><defs><radialGradient gradientUnits="userSpaceOnUse" gradientTransform="matrix(0 1.10307 -1.20982 0 104.25 -45.59)" r="31" cy="51.7" cx="69.45" id="m"><stop stop-color="#80b3ff" offset="0"/><stop stop-color="#aef" offset=".26"/><stop stop-color="#0cf" offset=".66"/><stop stop-color="#045" offset="1"/></radialGradient><linearGradient id="g"><stop offset="0"/><stop offset=".27" stop-color="#333" stop-opacity=".15"/><stop offset=".73" stop-color="#333" stop-opacity="0"/><stop offset="1"/></linearGradient><linearGradient id="f"><stop offset="0"/><stop offset=".27" stop-color="#333"/><stop offset=".73" stop-color="#333"/><stop offset="1"/></linearGradient><linearGradient id="c"><stop offset="0" stop-color="#37c837"/><stop offset="1" stop-color="#165016"/></linearGradient><linearGradient id="b"><stop offset="0" stop-color="#4d4d4d"/><stop offset=".24" stop-color="#1a1a1a"/><stop offset=".28" stop-color="#4d4d4d"/><stop offset="1"/></linearGradient><linearGradient id="a"><stop offset="0" stop-color="#fff"/><stop offset=".32" stop-color="#fff"/><stop offset=".37" stop-color="#fff" stop-opacity=".69"/><stop offset="1" stop-color="#fff" stop-opacity="0"/></linearGradient><radialGradient id="e" cx="69.45" cy="51.7" r="31" gradientTransform="matrix(0 1.10307 -1.20982 0 104.25 -45.59)" gradientUnits="userSpaceOnUse"><stop offset="0" stop-color="#80ff80"/><stop offset=".26" stop-color="#2aff2a"/><stop offset=".66" stop-color="green"/><stop offset="1" stop-color="#002b00"/></radialGradient><linearGradient id="d"><stop offset="0" stop-color="#fff"/><stop offset="0" stop-color="#fff" stop-opacity=".24"/><stop offset=".5" stop-color="#fff" stop-opacity=".16"/><stop offset="1" stop-color="#fff" stop-opacity=".39"/></linearGradient><linearGradient xlink:href="#f" id="p" x1="3.63" y1="29.94" x2="56.25" y2="29.94" gradientUnits="userSpaceOnUse"/><linearGradient xlink:href="#g" id="q" x1="3.63" y1="29.94" x2="56.25" y2="29.94" gradientUnits="userSpaceOnUse" gradientTransform="translate(0 -59.88)"/><radialGradient id="h" cx="69.45" cy="51.7" r="31" gradientTransform="matrix(0 1.10307 -1.20982 0 104.25 -45.59)" gradientUnits="userSpaceOnUse"><stop offset="0" stop-color="#80ff80"/><stop offset=".26" stop-color="#2aff2a"/><stop offset=".66" stop-color="green"/><stop offset="1" stop-color="#002b00"/></radialGradient><radialGradient id="i" cx="69.45" cy="51.7" r="31" gradientTransform="matrix(0 1.10307 -1.20982 0 104.25 -45.59)" gradientUnits="userSpaceOnUse"><stop offset="0" stop-color="#80ff80"/><stop offset=".26" stop-color="#2aff2a"/><stop offset=".66" stop-color="green"/><stop offset="1" stop-color="#002b00"/></radialGradient><radialGradient id="j" cx="69.45" cy="51.7" r="31" gradientTransform="matrix(0 1.10307 -1.20982 0 104.25 -45.59)" gradientUnits="userSpaceOnUse"><stop offset="0" stop-color="#80ff80"/><stop offset=".26" stop-color="#2aff2a"/><stop offset=".66" stop-color="green"/><stop offset="1" stop-color="#002b00"/></radialGradient><radialGradient id="k" cx="69.45" cy="51.7" r="31" gradientTransform="matrix(0 1.10307 -1.20982 0 104.25 -45.59)" gradientUnits="userSpaceOnUse"><stop offset="0" stop-color="#80ff80"/><stop offset=".26" stop-color="#2aff2a"/><stop offset=".66" stop-color="green"/><stop offset="1" stop-color="#002b00"/></radialGradient><linearGradient id="l"><stop offset="0" stop-color="#0f0"/><stop offset=".26" stop-color="green"/><stop offset=".66" stop-color="#68b723"/><stop offset="1" stop-color="#1d7e0d"/></linearGradient><linearGradient xlink:href="#m" id="s" x1="165.36" y1="-175.11" x2="165.44" y2="-117.39" gradientUnits="userSpaceOnUse" gradientTransform="translate(-95.57 124.7) scale(.64655)"/><linearGradient xlink:href="#n" id="r" x1="165.36" y1="-175.11" x2="165.44" y2="-117.39" gradientUnits="userSpaceOnUse" gradientTransform="matrix(.7112 0 0 .7112 -108.12 134.18)"/><radialGradient gradientUnits="userSpaceOnUse" gradientTransform="matrix(0 1.10307 -1.20982 0 104.25 -45.59)" r="31" cy="51.7" cx="69.45" id="n"><stop stop-color="#80b3ff" offset="0"/><stop stop-color="#aef" offset=".26"/><stop stop-color="#0cf" offset=".66"/><stop stop-color="#045" offset="1"/></radialGradient><linearGradient xlink:href="#o" id="t" x1="165.36" y1="-175.11" x2="165.44" y2="-117.39" gradientUnits="userSpaceOnUse" gradientTransform="translate(-70.45 105.77) scale(.51724)"/><radialGradient gradientUnits="userSpaceOnUse" gradientTransform="matrix(0 1.10307 -1.20982 0 104.25 -45.59)" r="31" cy="51.7" cx="69.45" id="o"><stop stop-color="#80b3ff" offset="0"/><stop stop-color="#aef" offset=".26"/><stop stop-color="#0cf" offset=".66"/><stop stop-color="#045" offset="1"/></radialGradient></defs><rect width="52.62" height="52.41" x="3.63" y="3.74" ry="8.75" fill="url(#p)"/><rect width="52.62" height="52.41" x="3.63" y="-56.15" ry="8.75" transform="rotate(90)" fill="url(#q)"/><path d="M50.63 32.06v-4.12l-4.27-.14a16.9 16.9 0 0 0-1.09-4.07l3.63-2.26-2.07-3.57-3.77 2.02a16.58 16.58 0 0 0-2.98-2.98l2.02-3.77-3.57-2.06-2.26 3.63a16.4 16.4 0 0 0-4.06-1.1l-.14-4.27h-4.13l-.14 4.27c-1.42.2-2.79.57-4.07 1.09l-2.25-3.63-3.58 2.07 2.02 3.77a16.6 16.6 0 0 0-2.97 2.98l-3.78-2.02-2.06 3.57 3.63 2.26a16.36 16.36 0 0 0-1.08 4.07l-4.29.14v4.12l4.29.14c.18 1.43.55 2.78 1.08 4.06l-3.63 2.26 2.06 3.58 3.77-2.02a16.59 16.59 0 0 0 2.98 2.97l-2.02 3.78 3.58 2.06 2.25-3.63a16.22 16.22 0 0 0 4.07 1.08l.14 4.29h4.12l.14-4.29c1.43-.18 2.79-.55 4.07-1.08l2.26 3.63 3.57-2.06-2.02-3.77a16.6 16.6 0 0 0 2.98-2.98l3.77 2.02 2.06-3.58-3.63-2.25a15.93 15.93 0 0 0 1.1-4.07zM30 40.31a10.32 10.32 0 0 1 0-20.62 10.32 10.32 0 0 1 0 20.62z" fill="url(#r)" opacity=".16"/><path d="M48.75 31.88v-3.75L44.87 28c-.17-1.3-.52-2.53-.99-3.7l3.3-2.05L45.3 19l-3.42 1.83a15.07 15.07 0 0 0-2.71-2.7L41 14.7l-3.25-1.87-2.05 3.3a14.9 14.9 0 0 0-3.69-1l-.13-3.88h-3.75L28 15.13c-1.3.17-2.53.52-3.7.99l-2.05-3.3L19 14.7l1.84 3.42a15.08 15.08 0 0 0-2.7 2.71L14.7 19l-1.87 3.25 3.3 2.05a14.88 14.88 0 0 0-.99 3.7l-3.89.13v3.75l3.9.12c.16 1.3.5 2.53.98 3.69l-3.3 2.06L14.7 41l3.43-1.84a15.08 15.08 0 0 0 2.7 2.7L19 45.3l3.25 1.87 2.05-3.3a14.74 14.74 0 0 0 3.7.99l.12 3.89h3.75l.13-3.9c1.3-.16 2.53-.5 3.7-.97l2.05 3.3L41 45.3l-1.83-3.43a15.08 15.08 0 0 0 2.7-2.7L45.3 41l1.87-3.25-3.3-2.05a14.48 14.48 0 0 0 1-3.7zM30 39.38a9.38 9.38 0 0 1 0-18.76 9.38 9.38 0 0 1 0 18.75z" fill="url(#s)"/><path d="M45 31.5v-3l-3.1-.1a12.3 12.3 0 0 0-.8-2.96l2.64-1.64-1.5-2.6-2.74 1.47a12.06 12.06 0 0 0-2.17-2.17l1.47-2.74-2.6-1.5-1.64 2.64a11.92 11.92 0 0 0-2.95-.8l-.1-3.1h-3l-.1 3.1c-1.04.14-2.04.42-2.97.8l-1.64-2.64-2.6 1.5 1.47 2.74a12.07 12.07 0 0 0-2.16 2.17l-2.75-1.47-1.5 2.6 2.64 1.64a11.9 11.9 0 0 0-.79 2.96l-3.11.1v3l3.11.1c.14 1.04.4 2.02.79 2.95l-2.64 1.65 1.5 2.6 2.74-1.47a12.06 12.06 0 0 0 2.17 2.16l-1.47 2.75 2.6 1.5 1.64-2.64a11.8 11.8 0 0 0 2.96.79l.1 3.11h3l.1-3.11c1.04-.14 2.03-.4 2.96-.79l1.64 2.64 2.6-1.5-1.47-2.74a12.07 12.07 0 0 0 2.17-2.17l2.74 1.47 1.5-2.6-2.64-1.64a11.59 11.59 0 0 0 .8-2.96zm-15 6a7.5 7.5 0 0 1 0-15 7.5 7.5 0 0 1 0 15z" opacity=".19" fill="url(#t)"/></svg>