<svg xmlns="http://www.w3.org/2000/svg" xmlns:xlink="http://www.w3.org/1999/xlink" version="1" width="64" height="64" viewBox="0 0 60 60"><defs><radialGradient gradientUnits="userSpaceOnUse" gradientTransform="matrix(0 1.10307 -1.20982 0 104.25 -45.59)" r="31" cy="51.7" cx="69.45" id="m"><stop stop-color="#faa" offset="0"/><stop stop-color="#ff8080" offset=".26"/><stop stop-color="#f55" offset=".66"/><stop stop-color="#d40000" offset="1"/></radialGradient><linearGradient id="g"><stop offset="0"/><stop offset=".27" stop-color="#333" stop-opacity=".15"/><stop offset=".73" stop-color="#333" stop-opacity="0"/><stop offset="1"/></linearGradient><linearGradient id="f"><stop offset="0"/><stop offset=".27" stop-color="#333"/><stop offset=".73" stop-color="#333"/><stop offset="1"/></linearGradient><linearGradient id="c"><stop offset="0" stop-color="#37c837"/><stop offset="1" stop-color="#165016"/></linearGradient><linearGradient id="b"><stop offset="0" stop-color="#4d4d4d"/><stop offset=".24" stop-color="#1a1a1a"/><stop offset=".28" stop-color="#4d4d4d"/><stop offset="1"/></linearGradient><linearGradient id="a"><stop offset="0" stop-color="#fff"/><stop offset=".32" stop-color="#fff"/><stop offset=".37" stop-color="#fff" stop-opacity=".69"/><stop offset="1" stop-color="#fff" stop-opacity="0"/></linearGradient><radialGradient id="e" cx="69.45" cy="51.7" r="31" gradientTransform="matrix(0 1.10307 -1.20982 0 104.25 -45.59)" gradientUnits="userSpaceOnUse"><stop offset="0" stop-color="#80ff80"/><stop offset=".26" stop-color="#2aff2a"/><stop offset=".66" stop-color="green"/><stop offset="1" stop-color="#002b00"/></radialGradient><linearGradient id="d"><stop offset="0" stop-color="#fff"/><stop offset="0" stop-color="#fff" stop-opacity=".24"/><stop offset=".5" stop-color="#fff" stop-opacity=".16"/><stop offset="1" stop-color="#fff" stop-opacity=".39"/></linearGradient><linearGradient xlink:href="#f" id="n" x1="3.63" y1="29.94" x2="56.25" y2="29.94" gradientUnits="userSpaceOnUse"/><linearGradient xlink:href="#g" id="o" x1="3.63" y1="29.94" x2="56.25" y2="29.94" gradientUnits="userSpaceOnUse" gradientTransform="translate(0 -59.88)"/><radialGradient id="h" cx="69.45" cy="51.7" r="31" gradientTransform="matrix(0 1.10307 -1.20982 0 104.25 -45.59)" gradientUnits="userSpaceOnUse"><stop offset="0" stop-color="#80ff80"/><stop offset=".26" stop-color="#2aff2a"/><stop offset=".66" stop-color="green"/><stop offset="1" stop-color="#002b00"/></radialGradient><radialGradient id="i" cx="69.45" cy="51.7" r="31" gradientTransform="matrix(0 1.10307 -1.20982 0 104.25 -45.59)" gradientUnits="userSpaceOnUse"><stop offset="0" stop-color="#80ff80"/><stop offset=".26" stop-color="#2aff2a"/><stop offset=".66" stop-color="green"/><stop offset="1" stop-color="#002b00"/></radialGradient><radialGradient id="j" cx="69.45" cy="51.7" r="31" gradientTransform="matrix(0 1.10307 -1.20982 0 104.25 -45.59)" gradientUnits="userSpaceOnUse"><stop offset="0" stop-color="#80ff80"/><stop offset=".26" stop-color="#2aff2a"/><stop offset=".66" stop-color="green"/><stop offset="1" stop-color="#002b00"/></radialGradient><radialGradient id="k" cx="69.45" cy="51.7" r="31" gradientTransform="matrix(0 1.10307 -1.20982 0 104.25 -45.59)" gradientUnits="userSpaceOnUse"><stop offset="0" stop-color="#80ff80"/><stop offset=".26" stop-color="#2aff2a"/><stop offset=".66" stop-color="green"/><stop offset="1" stop-color="#002b00"/></radialGradient><linearGradient id="l"><stop offset="0" stop-color="#0f0"/><stop offset=".26" stop-color="green"/><stop offset=".66" stop-color="#68b723"/><stop offset="1" stop-color="#1d7e0d"/></linearGradient><radialGradient xlink:href="#m" id="p" cx="24.73" cy="25.43" fx="24.73" fy="25.43" r="18.28" gradientUnits="userSpaceOnUse" gradientTransform="matrix(1.1427 .78706 -.61642 .89494 12.15 -16.79)"/></defs><rect width="52.62" height="52.41" x="3.63" y="3.74" ry="8.75" fill="url(#n)"/><rect width="52.62" height="52.41" x="3.63" y="-56.15" ry="8.75" transform="rotate(90)" fill="url(#o)"/><path d="M30 13.57a16.4 16.4 0 0 0 0 32.82 16.4 16.4 0 0 0 0-32.82zm0 3a13.32 13.32 0 0 1 8.7 3.26L19.83 38.7c-2.01-2.36-3.25-5.41-3.25-8.73A13.41 13.41 0 0 1 30 16.58zm10.75 5.46a13.32 13.32 0 0 1 2.63 7.95A13.41 13.41 0 0 1 30 43.38a13.32 13.32 0 0 1-7.97-2.63z" fill="#d40000" opacity=".31"/><path d="M30 9.84a20.16 20.16 0 0 0 0 40.32 20.16 20.16 0 0 0 0-40.32zm0 3.68a16.36 16.36 0 0 1 10.7 4l-23.2 23.2A16.51 16.51 0 0 1 13.52 30 16.48 16.48 0 0 1 30 13.54zm13.2 6.71A16.36 16.36 0 0 1 46.44 30 16.48 16.48 0 0 1 30 46.46a16.36 16.36 0 0 1-9.8-3.23z" fill="#d40000" opacity=".19"/><path d="M30 11.72a18.28 18.28 0 0 0 0 36.56 18.28 18.28 0 0 0 0-36.56zm0 3.33a14.84 14.84 0 0 1 9.7 3.64L18.66 39.72A14.98 14.98 0 0 1 15.05 30 14.95 14.95 0 0 1 30 15.08zm11.98 6.1A14.84 14.84 0 0 1 44.9 30 14.95 14.95 0 0 1 30 44.93 14.84 14.84 0 0 1 21.12 42z" fill="url(#p)"/></svg>