<svg xmlns="http://www.w3.org/2000/svg" xmlns:xlink="http://www.w3.org/1999/xlink" version="1" width="64" height="64" viewBox="0 0 60 60"><defs><linearGradient id="h"><stop offset="0" stop-color="#fea"/><stop offset=".38" stop-color="#fd5"/><stop offset=".64" stop-color="#d4aa00"/><stop offset="1" stop-color="#d4aa00"/></linearGradient><linearGradient id="g"><stop offset="0"/><stop offset=".27" stop-color="#333" stop-opacity=".15"/><stop offset=".73" stop-color="#333" stop-opacity="0"/><stop offset="1"/></linearGradient><linearGradient id="f"><stop offset="0"/><stop offset=".27" stop-color="#333"/><stop offset=".73" stop-color="#333"/><stop offset="1"/></linearGradient><linearGradient id="c"><stop offset="0" stop-color="#37c837"/><stop offset="1" stop-color="#165016"/></linearGradient><linearGradient id="b"><stop offset="0" stop-color="#4d4d4d"/><stop offset=".24" stop-color="#1a1a1a"/><stop offset=".28" stop-color="#4d4d4d"/><stop offset="1"/></linearGradient><linearGradient id="a"><stop offset="0" stop-color="#fff"/><stop offset=".32" stop-color="#fff"/><stop offset=".37" stop-color="#fff" stop-opacity=".69"/><stop offset="1" stop-color="#fff" stop-opacity="0"/></linearGradient><radialGradient id="e" cx="69.45" cy="51.7" r="31" gradientTransform="matrix(0 1.10307 -1.20982 0 104.25 -45.59)" gradientUnits="userSpaceOnUse"><stop offset="0" stop-color="#80ff80"/><stop offset=".26" stop-color="#2aff2a"/><stop offset=".66" stop-color="green"/><stop offset="1" stop-color="#002b00"/></radialGradient><linearGradient id="d"><stop offset="0" stop-color="#fff"/><stop offset="0" stop-color="#fff" stop-opacity=".24"/><stop offset=".5" stop-color="#fff" stop-opacity=".16"/><stop offset="1" stop-color="#fff" stop-opacity=".39"/></linearGradient><linearGradient xlink:href="#f" id="i" x1="3.63" y1="29.94" x2="56.25" y2="29.94" gradientUnits="userSpaceOnUse"/><linearGradient xlink:href="#g" id="j" x1="3.63" y1="29.94" x2="56.25" y2="29.94" gradientUnits="userSpaceOnUse" gradientTransform="translate(0 -59.88)"/><linearGradient xlink:href="#h" id="k" x1="15.36" y1="46.29" x2="34.59" y2="5.04" gradientUnits="userSpaceOnUse"/></defs><rect width="52.62" height="52.41" x="3.63" y="3.74" ry="8.75" fill="url(#i)"/><rect width="52.62" height="52.41" x="3.63" y="-56.15" ry="8.75" transform="rotate(90)" fill="url(#j)"/><path d="M41.1 10.78c-.46 0-1 .28-1.43.98l-1.81 3.45-1.57 3.53-1.91 3.84-1.33 3.16-1.47-.62-2.12-.93h-.51l-.45.13-.7.95-2.08 2.76.1.28.22.32 1.53.93 1.92 1.2c2.31 1.42 3.66 3.29 6.16 4l3.11.37h.52l.04-.14.45-2.82.37-2.28.04-.49-.27-.5-1.83-.86-1.05-.46-.65-.42-.07-.03.08-.14 1.08-2.72.98-2.4 1.22-3.24.94-2.3.8-2.04.65-1.98c.24-.87-.28-1.51-.96-1.53zM25.53 28.46l-2.27 2.61-1.74 1.73-1.95 1.32-2.34 1.24-2.7 1.02-1.7.4-.08.23.1.6.4 1 .83 1.64.81 1.22 1.58 1.67.71.72.64.23 2.9-.03-1.72 1.2-.02.3 1.03.82 1.4.83c1.82 1.02 3.45-1 3.45-1s-.88 1.53-.82 2.07h1.72l.91-.15 1.04-.52-.35.54 1.87.03c1.98-.05 3.29-1.2 4.46-2.44l1.23-1.48.96-1.47.71-1.34 1.13-2.67.87-2.17.41-1.15h-.4l-3.12-.36c-2.5-.72-3.84-2.59-6.16-4.02l-1.92-1.2-1.52-.92-.22-.32-.05-.13z" opacity=".1" fill="#ffc62f"/><path d="M42.53 13.6c-.44-.01-.96.26-1.37.92l-1.72 3.28-1.48 3.35-1.82 3.65-1.26 3-1.4-.59-2-.87h-.5l-.42.11-.68.9-1.96 2.63.1.26.2.31 1.45.88 1.83 1.14c2.2 1.35 3.47 3.13 5.85 3.8l2.95.36h.5l.03-.13.43-2.69.36-2.16.03-.47-.26-.48-1.73-.8-1-.44-.62-.4-.07-.03.09-.14 1.02-2.58.93-2.28 1.15-3.08.9-2.18.76-1.94.62-1.88c.22-.83-.27-1.44-.91-1.45zm-14.8 16.79l-2.15 2.48-1.66 1.64-1.85 1.25-2.22 1.19-2.57.97-1.61.38-.07.21.09.57.37.95.8 1.56.77 1.16 1.5 1.59.68.68.6.22 2.76-.03-1.63 1.14-.03.28.98.79 1.34.78c1.72.97 3.27-.95 3.27-.95s-.83 1.45-.78 1.97h1.64l.86-.14.98-.5-.33.52 1.78.02c1.88-.04 3.12-1.14 4.23-2.32l1.17-1.4.92-1.4.67-1.27 1.08-2.54.82-2.06.4-1.09h-.4l-2.95-.35c-2.37-.68-3.65-2.45-5.85-3.81l-1.83-1.14-1.44-.87-.21-.31-.05-.12z" opacity=".26" fill="#ffc62f"/><path d="M41.94 11.72c-.44 0-.95.26-1.36.92l-1.72 3.29-1.49 3.35-1.82 3.65-1.25 3-1.4-.6-2.01-.87h-.5l-.42.12-.67.9-1.97 2.63.1.26.2.3 1.46.88 1.82 1.14c2.2 1.36 3.48 3.13 5.85 3.81l2.96.35h.5l.03-.13.43-2.68.35-2.17.03-.46-.25-.49-1.73-.8-1-.44-.62-.4-.07-.03.08-.13 1.03-2.58.92-2.28 1.16-3.08.9-2.18.75-1.94.63-1.88c.22-.84-.27-1.45-.92-1.46zm-14.8 16.8L25 31l-1.65 1.63-1.85 1.26-2.22 1.18-2.58.97-1.6.38-.08.21.1.57.37.95.8 1.57.76 1.15 1.5 1.6.68.68.6.21 2.77-.02-1.64 1.13-.02.29.98.78 1.33.78c1.72.97 3.28-.95 3.28-.95s-.84 1.46-.79 1.97h1.64l.86-.14.99-.5-.33.52 1.78.03c1.88-.05 3.12-1.15 4.23-2.33l1.17-1.4.91-1.39.68-1.28 1.07-2.53.82-2.06.4-1.1h-.39l-2.95-.34c-2.38-.68-3.66-2.46-5.86-3.81l-1.82-1.14-1.45-.88-.21-.3-.04-.13z" fill="url(#k)"/></svg>