<svg xmlns="http://www.w3.org/2000/svg" xmlns:xlink="http://www.w3.org/1999/xlink" version="1" width="64" height="64" viewBox="0 0 60 60"><defs><linearGradient id="h"><stop offset="0" stop-color="#fea"/><stop offset=".38" stop-color="#fd5"/><stop offset=".64" stop-color="#d4aa00"/><stop offset="1" stop-color="#d4aa00"/></linearGradient><linearGradient id="g"><stop offset="0"/><stop offset=".27" stop-color="#333" stop-opacity=".15"/><stop offset=".73" stop-color="#333" stop-opacity="0"/><stop offset="1"/></linearGradient><linearGradient id="f"><stop offset="0"/><stop offset=".27" stop-color="#333"/><stop offset=".73" stop-color="#333"/><stop offset="1"/></linearGradient><linearGradient id="c"><stop offset="0" stop-color="#37c837"/><stop offset="1" stop-color="#165016"/></linearGradient><linearGradient id="b"><stop offset="0" stop-color="#4d4d4d"/><stop offset=".24" stop-color="#1a1a1a"/><stop offset=".28" stop-color="#4d4d4d"/><stop offset="1"/></linearGradient><linearGradient id="a"><stop offset="0" stop-color="#fff"/><stop offset=".32" stop-color="#fff"/><stop offset=".37" stop-color="#fff" stop-opacity=".69"/><stop offset="1" stop-color="#fff" stop-opacity="0"/></linearGradient><radialGradient id="e" cx="69.45" cy="51.7" r="31" gradientTransform="matrix(0 1.10307 -1.20982 0 104.25 -45.59)" gradientUnits="userSpaceOnUse"><stop offset="0" stop-color="#80ff80"/><stop offset=".26" stop-color="#2aff2a"/><stop offset=".66" stop-color="green"/><stop offset="1" stop-color="#002b00"/></radialGradient><linearGradient id="d"><stop offset="0" stop-color="#fff"/><stop offset="0" stop-color="#fff" stop-opacity=".24"/><stop offset=".5" stop-color="#fff" stop-opacity=".16"/><stop offset="1" stop-color="#fff" stop-opacity=".39"/></linearGradient><linearGradient xlink:href="#f" id="i" x1="3.63" y1="29.94" x2="56.25" y2="29.94" gradientUnits="userSpaceOnUse"/><linearGradient xlink:href="#g" id="j" x1="3.63" y1="29.94" x2="56.25" y2="29.94" gradientUnits="userSpaceOnUse" gradientTransform="translate(0 -59.88)"/><linearGradient xlink:href="#h" id="k" x1="11.42" y1="30" x2="48.58" y2="30" gradientUnits="userSpaceOnUse" gradientTransform="translate(2.75 2.75) scale(.90832)"/></defs><rect width="52.62" height="52.41" x="3.63" y="3.74" ry="8.75" fill="url(#i)"/><rect width="52.62" height="52.41" x="3.63" y="-56.15" ry="8.75" transform="rotate(90)" fill="url(#j)"/><path d="M30.01 11.44a18.54 18.54 0 0 1 18.57 18.53 18.45 18.45 0 0 1-5.46 13.14l5.46 5.45H32.3V32.32l7.5 7.47a13.85 13.85 0 0 0 4.14-9.82A13.93 13.93 0 0 0 30 16.07a13.93 13.93 0 0 0-13.9 13.9 13.9 13.9 0 0 0 9.26 13.14v4.83a18.54 18.54 0 0 1-13.93-17.97A18.54 18.54 0 0 1 30 11.44z" opacity=".14" fill="#ff0"/><path d="M30.01 15.7a14.29 14.29 0 0 1 14.3 14.28 14.22 14.22 0 0 1-4.2 10.13l4.2 4.2H31.79V31.79l5.77 5.75a10.67 10.67 0 0 0 3.2-7.56 10.74 10.74 0 0 0-10.76-10.72 10.74 10.74 0 0 0-10.72 10.72 10.72 10.72 0 0 0 7.15 10.13v3.72a14.29 14.29 0 0 1-10.74-13.85 14.29 14.29 0 0 1 14.3-14.29z" opacity=".14" fill="#ff0"/><path d="M30.01 13.14a16.84 16.84 0 0 1 16.86 16.84 16.76 16.76 0 0 1-4.95 11.93l4.95 4.95H32.1V32.1l6.81 6.79a12.58 12.58 0 0 0 3.76-8.91A12.65 12.65 0 0 0 30 17.35a12.65 12.65 0 0 0-12.63 12.63 12.63 12.63 0 0 0 8.42 11.93v4.38a16.84 16.84 0 0 1-12.65-16.31 16.84 16.84 0 0 1 16.86-16.84z" fill="url(#k)"/></svg>