<svg xmlns="http://www.w3.org/2000/svg" xmlns:xlink="http://www.w3.org/1999/xlink" version="1" width="64" height="64" viewBox="0 0 60 60"><defs><radialGradient gradientUnits="userSpaceOnUse" gradientTransform="matrix(0 1.10307 -1.20982 0 104.25 -45.59)" r="31" cy="51.7" cx="69.45" id="m"><stop stop-color="#80b3ff" offset="0"/><stop stop-color="#aef" offset=".26"/><stop stop-color="#0cf" offset=".66"/><stop stop-color="#045" offset="1"/></radialGradient><linearGradient id="g"><stop offset="0"/><stop offset=".27" stop-color="#333" stop-opacity=".15"/><stop offset=".73" stop-color="#333" stop-opacity="0"/><stop offset="1"/></linearGradient><linearGradient id="f"><stop offset="0"/><stop offset=".27" stop-color="#333"/><stop offset=".73" stop-color="#333"/><stop offset="1"/></linearGradient><linearGradient id="c"><stop offset="0" stop-color="#37c837"/><stop offset="1" stop-color="#165016"/></linearGradient><linearGradient id="b"><stop offset="0" stop-color="#4d4d4d"/><stop offset=".24" stop-color="#1a1a1a"/><stop offset=".28" stop-color="#4d4d4d"/><stop offset="1"/></linearGradient><linearGradient id="a"><stop offset="0" stop-color="#fff"/><stop offset=".32" stop-color="#fff"/><stop offset=".37" stop-color="#fff" stop-opacity=".69"/><stop offset="1" stop-color="#fff" stop-opacity="0"/></linearGradient><radialGradient id="e" cx="69.45" cy="51.7" r="31" gradientTransform="matrix(0 1.10307 -1.20982 0 104.25 -45.59)" gradientUnits="userSpaceOnUse"><stop offset="0" stop-color="#80ff80"/><stop offset=".26" stop-color="#2aff2a"/><stop offset=".66" stop-color="green"/><stop offset="1" stop-color="#002b00"/></radialGradient><linearGradient id="d"><stop offset="0" stop-color="#fff"/><stop offset="0" stop-color="#fff" stop-opacity=".24"/><stop offset=".5" stop-color="#fff" stop-opacity=".16"/><stop offset="1" stop-color="#fff" stop-opacity=".39"/></linearGradient><linearGradient xlink:href="#f" id="p" x1="3.63" y1="29.94" x2="56.25" y2="29.94" gradientUnits="userSpaceOnUse"/><linearGradient xlink:href="#g" id="q" x1="3.63" y1="29.94" x2="56.25" y2="29.94" gradientUnits="userSpaceOnUse" gradientTransform="translate(0 -59.88)"/><radialGradient id="h" cx="69.45" cy="51.7" r="31" gradientTransform="matrix(0 1.10307 -1.20982 0 104.25 -45.59)" gradientUnits="userSpaceOnUse"><stop offset="0" stop-color="#80ff80"/><stop offset=".26" stop-color="#2aff2a"/><stop offset=".66" stop-color="green"/><stop offset="1" stop-color="#002b00"/></radialGradient><radialGradient id="i" cx="69.45" cy="51.7" r="31" gradientTransform="matrix(0 1.10307 -1.20982 0 104.25 -45.59)" gradientUnits="userSpaceOnUse"><stop offset="0" stop-color="#80ff80"/><stop offset=".26" stop-color="#2aff2a"/><stop offset=".66" stop-color="green"/><stop offset="1" stop-color="#002b00"/></radialGradient><radialGradient id="j" cx="69.45" cy="51.7" r="31" gradientTransform="matrix(0 1.10307 -1.20982 0 104.25 -45.59)" gradientUnits="userSpaceOnUse"><stop offset="0" stop-color="#80ff80"/><stop offset=".26" stop-color="#2aff2a"/><stop offset=".66" stop-color="green"/><stop offset="1" stop-color="#002b00"/></radialGradient><radialGradient id="k" cx="69.45" cy="51.7" r="31" gradientTransform="matrix(0 1.10307 -1.20982 0 104.25 -45.59)" gradientUnits="userSpaceOnUse"><stop offset="0" stop-color="#80ff80"/><stop offset=".26" stop-color="#2aff2a"/><stop offset=".66" stop-color="green"/><stop offset="1" stop-color="#002b00"/></radialGradient><linearGradient id="l"><stop offset="0" stop-color="#0f0"/><stop offset=".26" stop-color="green"/><stop offset=".66" stop-color="#68b723"/><stop offset="1" stop-color="#1d7e0d"/></linearGradient><radialGradient gradientUnits="userSpaceOnUse" gradientTransform="matrix(0 1.10307 -1.20982 0 104.25 -45.59)" r="31" cy="51.7" cx="69.45" id="n"><stop stop-color="#80b3ff" offset="0"/><stop stop-color="#aef" offset=".26"/><stop stop-color="#0cf" offset=".66"/><stop stop-color="#045" offset="1"/></radialGradient><radialGradient gradientUnits="userSpaceOnUse" gradientTransform="matrix(0 1.10307 -1.20982 0 104.25 -45.59)" r="31" cy="51.7" cx="69.45" id="o"><stop stop-color="#80b3ff" offset="0"/><stop stop-color="#aef" offset=".26"/><stop stop-color="#0cf" offset=".66"/><stop stop-color="#045" offset="1"/></radialGradient><radialGradient xlink:href="#n" id="r" cx="20.16" cy="22.18" fx="20.16" fy="22.18" r="17.97" gradientTransform="matrix(1.67166 1.2196 -.89316 1.2242 6.27 -29.59)" gradientUnits="userSpaceOnUse"/></defs><rect width="52.62" height="52.41" x="3.63" y="3.74" ry="8.75" fill="url(#p)"/><rect width="52.62" height="52.41" x="3.63" y="-56.15" ry="8.75" transform="rotate(90)" fill="url(#q)"/><path d="M34.64 10.43a14.54 14.69 0 0 0-14.57 14.71 14.4 14.55 0 0 0 3.5 9.54l-.59.62H21.2L10.04 46.6l3.34 3.38 11.17-11.29v-1.76l.62-.63a14.46 14.6 0 0 0 9.47 3.54 14.54 14.69 0 0 0 0-29.38zm0 4.55a10.06 10.16 0 0 1 0 20.32 10.06 10.16 0 1 1 0-20.32z" opacity=".19" fill="#0ff"/><path d="M34.72 11.95a13.41 13.41 0 0 0-13.44 13.44 13.29 13.29 0 0 0 3.24 8.7l-.55.57h-1.65l-10.3 10.3 3.09 3.1 10.3-10.31v-1.61l.57-.58a13.34 13.34 0 0 0 8.74 3.23 13.41 13.41 0 0 0 0-26.82zm0 4.15a9.28 9.28 0 0 1 0 18.56 9.28 9.28 0 1 1 0-18.56z" fill="url(#r)"/></svg>