<svg xmlns="http://www.w3.org/2000/svg" xmlns:xlink="http://www.w3.org/1999/xlink" width="64" height="64" version="1"><defs><linearGradient id="f"><stop offset="0" stop-color="#fff"/><stop offset="1" stop-opacity="0" stop-color="#fff"/></linearGradient><linearGradient id="e"><stop offset="0" stop-color="#333"/><stop offset="1"/></linearGradient><linearGradient id="c"><stop offset="0" stop-color="#bdbdbd"/><stop offset="1" stop-color="#8c8c8c"/></linearGradient><linearGradient id="b"><stop offset="0" stop-color="#333"/><stop offset="1"/></linearGradient><linearGradient id="d"><stop offset="0" stop-color="#fff"/><stop offset="1" stop-color="#fff" stop-opacity="0"/></linearGradient><linearGradient id="a"><stop offset="0"/><stop offset="1" stop-opacity="0"/></linearGradient><radialGradient id="h" cx="26.376" cy="12.313" r="8" gradientTransform="matrix(2.3497 -.18993 .18353 2.27047 -37.33 -11.303)" gradientUnits="userSpaceOnUse" xlink:href="#e"/><radialGradient id="g" cx="25" cy="28.66" r="16" gradientTransform="matrix(1.88024 0 0 .53473 -22.168 25.27)" gradientUnits="userSpaceOnUse" xlink:href="#e"/></defs><path d="M25.554 25.553c.66 3.119 1.027 5.478.492 8.596-4.17 3.46-14.834 5.014-14.818 8.595L9.795 53.488c0 3.56 9.942 6.447 22.205 6.447 12.263 0 22.205-2.886 22.205-6.447l-1.433-10.744c-.017-3.065-10.744-5.014-14.863-8.595-.351-2.894-.071-5.701.538-8.596H25.553z" fill="url(#g)"/><path d="M32 4.065c-5.933 0-10.744 4.49-10.744 10.028.047 2.05.222 4.484 1.433 10.028.716 2.149 7.105 7.879 7.163 8.595 1.389.717 3.58.717 5.013 0 0-.716 5.73-6.446 6.447-8.595 1.363-5.761 1.36-7.88 1.433-10.028 0-5.538-4.81-10.028-10.745-10.028z" fill="url(#h)"/></svg>