<svg xmlns="http://www.w3.org/2000/svg" xmlns:xlink="http://www.w3.org/1999/xlink" width="64" height="64" version="1"><defs><linearGradient id="c" gradientUnits="userSpaceOnUse" x1="73.34" y1="101.83" x2="125.6" y2="101.83"><stop offset=".02" stop-color="#b3925d"/><stop offset=".03" stop-color="#b7975d"/><stop offset=".03" stop-color="#d1b55a"/><stop offset=".05" stop-color="#e5cd58"/><stop offset=".06" stop-color="#f4de56"/><stop offset=".07" stop-color="#fce855"/><stop offset=".08" stop-color="#ffeb55"/><stop offset=".1" stop-color="#fce242"/><stop offset=".13" stop-color="#f8d525"/><stop offset=".16" stop-color="#f5cb11"/><stop offset=".19" stop-color="#f4c504"/><stop offset=".21" stop-color="#f3c300"/><stop offset=".29" stop-color="#dfae00"/><stop offset=".38" stop-color="#d19e00"/><stop offset=".44" stop-color="#c90"/><stop offset=".7" stop-color="#e3ad00"/><stop offset=".84" stop-color="#fd0"/><stop offset=".86" stop-color="#ffe72f"/><stop offset=".89" stop-color="#fff468"/><stop offset=".91" stop-color="#fffc8c"/><stop offset=".92" stop-color="#ff9"/><stop offset=".93" stop-color="#fcfb96"/><stop offset=".94" stop-color="#f2ee8d"/><stop offset=".96" stop-color="#e3da7f"/><stop offset=".97" stop-color="#cdbd6b"/><stop offset=".99" stop-color="#b19851"/><stop offset="1" stop-color="#8f6b32"/></linearGradient><linearGradient id="a" gradientUnits="userSpaceOnUse" x1="74.43" y1="81.95" x2="124.51" y2="81.95"><stop offset="0" stop-color="#666"/><stop offset=".18" stop-color="#4d4d4d"/><stop offset=".39" stop-color="#333"/><stop offset=".5"/><stop offset="1" stop-color="#666"/></linearGradient><linearGradient id="j" gradientUnits="userSpaceOnUse" x1="78.54" y1="62.58" x2="120.4" y2="62.58"><stop offset=".01" stop-color="#333"/><stop offset=".11" stop-color="#4d4d4d"/><stop offset=".28" stop-color="#999"/><stop offset=".56" stop-color="#666"/><stop offset=".74"/><stop offset="1" stop-color="#333"/></linearGradient><linearGradient id="i" gradientUnits="userSpaceOnUse" x1="78.54" y1="62.58" x2="99.47" y2="62.58"><stop offset=".01" stop-color="#888"/><stop offset=".18" stop-color="#bbb"/><stop offset=".44" stop-color="#c4c4c4"/><stop offset=".86" stop-color="#dbdbdb"/><stop offset=".89" stop-color="#ddd"/><stop offset="1" stop-color="#bbb"/></linearGradient><linearGradient id="h" gradientUnits="userSpaceOnUse" x1="99.47" y1="62.58" x2="120.4" y2="62.58"><stop offset=".01" stop-color="#888"/><stop offset=".18" stop-color="#bbb"/><stop offset=".44" stop-color="#c4c4c4"/><stop offset=".86" stop-color="#dbdbdb"/><stop offset=".89" stop-color="#ddd"/><stop offset="1" stop-color="#bbb"/></linearGradient><linearGradient id="g" gradientUnits="userSpaceOnUse" x1="117.23" y1="64.21" x2="83.03" y2="64.21" gradientTransform="matrix(1 0 0 .9812 0 1.25)"><stop offset="0" stop-color="#888"/><stop offset=".01" stop-color="#868686"/><stop offset=".15" stop-color="#626262"/><stop offset=".22" stop-color="#555"/><stop offset=".25" stop-color="#575757"/><stop offset=".74" stop-color="#7b7b7b"/><stop offset="1" stop-color="#888"/></linearGradient><linearGradient id="e" gradientUnits="userSpaceOnUse" x1="118.4" y1="63.51" x2="80.39" y2="63.51"><stop offset=".29" stop-color="#fff"/><stop offset=".46" stop-color="#ececec"/><stop offset=".81" stop-color="#c8c8c8"/><stop offset="1" stop-color="#bbb"/></linearGradient><linearGradient xlink:href="#a" id="n" gradientUnits="userSpaceOnUse" gradientTransform="matrix(-.82113 0 0 -.8366 113.74 129.74)" x1="74.43" y1="81.95" x2="124.51" y2="81.95"/><linearGradient xlink:href="#a" id="m" gradientUnits="userSpaceOnUse" gradientTransform="matrix(-.82113 0 0 1.69345 113.68 -106.5)" x1="74.43" y1="81.95" x2="124.51" y2="81.95"/><linearGradient gradientTransform="translate(-4.34 -.34)" xlink:href="#b" id="l" x1="-48.29" y1="46.42" x2="-7.04" y2="46.42" gradientUnits="userSpaceOnUse"/><linearGradient id="b"><stop offset="0"/><stop offset=".16" stop-color="#333"/><stop offset=".5"/><stop offset=".7" stop-color="#1c1c1c"/><stop offset=".86" stop-color="#333"/><stop offset="1"/></linearGradient><linearGradient xlink:href="#c" id="k" gradientUnits="userSpaceOnUse" gradientTransform="matrix(.78927 0 0 .76564 -110.5 -31.89)" x1="126.43" y1="101.83" x2="73.34" y2="101.83"/><linearGradient xlink:href="#d" id="u" x1="89.91" y1="36" x2="89.91" y2="32" gradientUnits="userSpaceOnUse" gradientTransform="matrix(.5001 0 -.02008 .25005 .7 8.42)"/><linearGradient id="d"><stop offset="0" stop-color="#323232"/><stop offset="1" stop-opacity="0"/></linearGradient><linearGradient xlink:href="#e" id="t" gradientUnits="userSpaceOnUse" gradientTransform="matrix(.7647 0 0 .79089 -44.09 -34.07)" x1="118.4" y1="63.51" x2="80.39" y2="63.51"/><radialGradient xlink:href="#f" id="s" gradientUnits="userSpaceOnUse" gradientTransform="matrix(.7647 0 0 .77602 -44.09 -33.08)" cx="98.67" cy="83.24" r="36.66"/><radialGradient id="f" cx="98.67" cy="83.24" r="36.66" gradientTransform="matrix(1 0 0 .9812 0 1.25)" gradientUnits="userSpaceOnUse"><stop offset=".25" stop-color="#fff"/><stop offset=".29" stop-color="#f2f2f2"/><stop offset=".46" stop-color="#b9b9b9"/><stop offset=".58" stop-color="#959595"/><stop offset=".65" stop-color="#888"/><stop offset=".85" stop-color="#a9a9a9"/><stop offset="1" stop-color="#bbb"/></radialGradient><linearGradient xlink:href="#g" id="r" gradientUnits="userSpaceOnUse" gradientTransform="matrix(.7647 0 0 .77602 -44.09 -33.08)" x1="117.23" y1="64.21" x2="83.03" y2="64.21"/><linearGradient xlink:href="#h" id="q" gradientUnits="userSpaceOnUse" x1="99.47" y1="62.58" x2="120.4" y2="62.58" gradientTransform="matrix(.7647 0 0 .79089 -44.09 -34.07)"/><linearGradient xlink:href="#i" id="p" gradientUnits="userSpaceOnUse" x1="78.54" y1="62.58" x2="99.47" y2="62.58" gradientTransform="matrix(.7647 0 0 .79089 -44.09 -34.07)"/><linearGradient xlink:href="#j" id="o" gradientUnits="userSpaceOnUse" gradientTransform="matrix(.7647 0 0 .79089 -44.09 -34.07)" x1="78.54" y1="62.58" x2="120.4" y2="62.58"/></defs><path transform="scale(-1 1)" fill="url(#k)" d="M-52.62 29.58h41.25v33h-41.25z"/><path transform="scale(-1 1)" fill="url(#l)" d="M-52.62 29.58h41.25v33h-41.25z"/><path d="M52.56 29.44c-.32 3.92-9.4 5.65-20.56 5.65-11.16 0-20.24-1.73-20.56-5.65z" fill="url(#m)"/><path d="M52.62 62.58c-.32-1.94-9.4-2.79-20.56-2.79-11.16 0-20.23.85-20.56 2.79z" fill="url(#n)"/><path d="M25.42 1.06v-1.4z" fill="#fff" fill-opacity=".76"/><path d="M31.98 1.42c-8.84 0-16 7.24-16 16.17v11.83h5.87v-11.9a10.13 10.13 0 0 1 20.25-.1h5.88c-.1-8.86-7.22-16-16-16z" fill="url(#o)"/><path d="M15.97 17.6v11.82h.92V17.6c0-8.94 6.75-16.18 15.09-16.18-8.84 0-16 7.24-16 16.18z" fill="url(#p)"/><path d="M33.52 1.5c7.56.82 13.47 7.62 13.55 15.92h.91A16.1 16.1 0 0 0 33.52 1.49z" fill="url(#q)"/><path d="M32.8 4.07c-8.08 0-13.39 4.82-13.39 13.22v12.13h2.05V17.2c0-6.44 5.09-11.69 11.34-11.69 6.26 0 11.35 5.25 11.35 11.7v.2h1.4v-.12c0-8.4-4.66-13.22-12.75-13.22z" fill="url(#r)"/><path d="M31.26 5.18c-7.18.28-11.85 4.86-11.85 12.65v11.6h1.92v-11.7c0-6.16 4.77-11.19 10.63-11.19 5.76 0 10.46 4.86 10.61 10.88h1.33c-.14-7.8-4.5-12.24-11.94-12.24h-.7z" fill="url(#s)"/><path d="M31.98 2.42c-7.91 0-14.32 6.96-14.32 14.95v12.05h.64V18.7c0-8 5.77-14.48 13.68-14.48 8.16 0 13.17 5.08 13.64 13.2h.67v-.48c0-8.34-6.15-14.51-14.31-14.51z" fill="url(#t)"/><path d="M42.07 16.42c.05.3.06.66.03 1h5.88a4.37 4.37 0 0 0-.03-.77l-.05-.23z" fill="url(#u)"/></svg>