<svg xmlns="http://www.w3.org/2000/svg" xmlns:xlink="http://www.w3.org/1999/xlink" height="64" width="64"><defs><linearGradient x1="25.13" y1=".99" x2="25.13" y2="62.71" id="j" xlink:href="#a" gradientUnits="userSpaceOnUse" gradientTransform="matrix(1.0578 0 0 .2752 6.63 4.03)"/><linearGradient id="a"><stop offset="0" stop-color="#333"/><stop offset="1" stop-color="#dbdbdb"/></linearGradient><linearGradient x1="33.21" y1="46.35" x2="33.21" y2="11.29" id="i" xlink:href="#b" gradientUnits="userSpaceOnUse" gradientTransform="matrix(1.0578 0 0 .44456 6.63 37.7)"/><linearGradient id="b"><stop offset="0" stop-color="#e6e6e6"/><stop offset="1" stop-color="gray"/></linearGradient><radialGradient gradientTransform="translate(.84 -2.1) scale(1.94857)" xlink:href="#c" id="h" cx="27.5" cy="18" fx="27.5" fy="18" r="1" gradientUnits="userSpaceOnUse"/><linearGradient id="c"><stop offset="0" stop-color="#0cceff"/><stop offset="1" stop-color="#0cceff" stop-opacity="0"/></linearGradient><linearGradient gradientTransform="translate(.84 -2.1) scale(1.94857)" xlink:href="#d" id="g" x1="1.48" y1="9.59" x2="1.51" y2="27.67" gradientUnits="userSpaceOnUse"/><linearGradient id="d"><stop offset="0"/><stop offset=".26" stop-color="#333"/><stop offset=".28"/><stop offset="1" stop-color="#333"/></linearGradient><linearGradient xlink:href="#e" id="l" x1="36.5" y1="44.5" x2="36" y2="32" gradientUnits="userSpaceOnUse" gradientTransform="translate(-8.03 -7.67) scale(1.45455)"/><linearGradient id="e"><stop offset="0" stop-color="#280b0b"/><stop offset="1" stop-color="red"/></linearGradient><linearGradient gradientTransform="matrix(.71114 0 0 .7104 27.26 28.32)" gradientUnits="userSpaceOnUse" xlink:href="#f" id="k" y2="44.53" x2="24" y1="2.01" x1="24"/><linearGradient id="f"><stop offset="0" stop-color="#ff0"/><stop offset="1" stop-color="#f60"/></linearGradient></defs><path d="M7.66 16.41h48.71c2.53 0 3.9 6.48 3.9 9.74v23.39c.02 1.88-2.01 2.08-3.43 1.95H5.7c-1.88.02-2.08-2.02-1.95-3.44v-21.9s.93-9.74 3.9-9.74z" style="marker:none" color="#000" overflow="visible" fill="url(#g)" stroke="#000" stroke-width=".97"/><path style="marker:none" color="#000" overflow="visible" fill="url(#h)" d="M52.48 31.03h3.9v3.9h-3.9z"/><path d="M13.5 42.72h37.03v16.56H13.5V42.72z" fill="url(#i)"/><path d="M20.33 44.67v1.94H33.3v-1.94zm18.2 0v1.94h5.18v-1.94zm-18.2 3.9v1.94h7.79v-1.95zm12.97 0v1.94h10.4v-1.95zm-12.97 3.89v1.95H43.7v-1.95z" style="marker:none" color="#000" overflow="visible" opacity=".6"/><path style="marker:none" color="#000" overflow="visible" opacity=".69" d="M12.53 40.82H51.5v1.95H12.53z"/><path d="M13.5 4.72h37.03v16.56H13.5V4.72z" fill="url(#j)"/><path d="M60.1 56.73L46.21 30.55a2.15 2.15 0 0 0-1.92-1.13c-.8 0-1.53.48-1.94 1.21L28.57 56.81c-.33.65-.33 1.54.07 2.19.4.64 1.04.97 1.84.97h27.68c.8 0 1.53-.4 1.85-1.06.4-.64.41-1.45.1-2.18z" fill="url(#k)"/><path d="M44.34 38.87c-1.05 0-1.9.87-1.9 1.94 0 1.94.63 4.53 1.26 9.7h1.26c.63-5.17 1.26-7.76 1.26-9.7 0-1.07-.84-1.94-1.89-1.94zm0 13.58c-1.05 0-1.9.87-1.9 1.94 0 1.07.85 1.94 1.9 1.94 1.04 0 1.88-.87 1.88-1.94 0-1.07-.84-1.94-1.89-1.94z" fill="url(#l)"/></svg>