<svg xmlns="http://www.w3.org/2000/svg" xmlns:xlink="http://www.w3.org/1999/xlink" height="64" width="64"><defs><linearGradient x1="25.13" y1=".99" x2="25.13" y2="62.71" id="i" xlink:href="#a" gradientUnits="userSpaceOnUse" gradientTransform="matrix(1.0578 0 0 .2752 6.63 4.03)"/><linearGradient id="a"><stop offset="0" stop-color="#333"/><stop offset="1" stop-color="#dbdbdb"/></linearGradient><linearGradient x1="33.21" y1="46.35" x2="33.21" y2="11.29" id="h" xlink:href="#b" gradientUnits="userSpaceOnUse" gradientTransform="matrix(1.0578 0 0 .44456 6.63 37.7)"/><linearGradient id="b"><stop offset="0" stop-color="#e6e6e6"/><stop offset="1" stop-color="gray"/></linearGradient><radialGradient gradientTransform="translate(.84 -2.1) scale(1.94857)" xlink:href="#c" id="g" cx="27.5" cy="18" fx="27.5" fy="18" r="1" gradientUnits="userSpaceOnUse"/><linearGradient id="c"><stop offset="0" stop-color="#0cceff"/><stop offset="1" stop-color="#0cceff" stop-opacity="0"/></linearGradient><linearGradient gradientTransform="translate(.84 -2.1) scale(1.94857)" xlink:href="#d" id="f" x1="1.48" y1="9.59" x2="1.51" y2="27.67" gradientUnits="userSpaceOnUse"/><linearGradient id="d"><stop offset="0"/><stop offset=".26" stop-color="#333"/><stop offset=".28"/><stop offset="1" stop-color="#333"/></linearGradient><linearGradient xlink:href="#e" id="j" x1="26.17" y1="-2.12" x2="26.29" y2="44.63" gradientUnits="userSpaceOnUse" gradientTransform="matrix(.7647 0 0 .7647 31.88 30.68)"/><radialGradient id="e" cx="69.45" cy="51.7" r="31" gradientTransform="matrix(0 1.10307 -1.20982 0 104.25 -45.59)" gradientUnits="userSpaceOnUse"><stop stop-color="#002b00" offset="0"/><stop stop-color="green" offset=".34"/><stop stop-color="#2aff2a" offset=".74"/><stop stop-color="#80ff80" offset="1"/></radialGradient></defs><path d="M7.66 16.41h48.71c2.53 0 3.9 6.48 3.9 9.74v23.39c.02 1.88-2.01 2.08-3.43 1.95H5.7c-1.88.02-2.08-2.02-1.95-3.44v-21.9s.93-9.74 3.9-9.74z" style="marker:none" color="#000" overflow="visible" fill="url(#f)" stroke="#000" stroke-width=".97"/><path style="marker:none" color="#000" overflow="visible" fill="url(#g)" d="M52.48 31.03h3.9v3.9h-3.9z"/><path d="M13.5 42.72h37.03v16.56H13.5V42.72z" fill="url(#h)"/><path d="M20.33 44.67v1.94H33.3v-1.94zm18.2 0v1.94h5.18v-1.94zm-18.2 3.9v1.94h7.79v-1.95zm12.97 0v1.94h10.4v-1.95zm-12.97 3.89v1.95H43.7v-1.95z" style="marker:none" color="#000" overflow="visible" opacity=".6"/><path style="marker:none" color="#000" overflow="visible" opacity=".69" d="M12.53 40.82H51.5v1.95H12.53z"/><path d="M13.5 4.72h37.03v16.56H13.5V4.72z" fill="url(#i)"/><path style="marker:none" d="M46.82 34.9v13.05h-7.65l11.1 12.94L61.3 47.95h-7.55V34.89z" overflow="visible" fill="url(#j)"/></svg>