<svg xmlns="http://www.w3.org/2000/svg" xmlns:xlink="http://www.w3.org/1999/xlink" viewBox="0 0 48 48"><defs><linearGradient id="f"><stop offset="0" stop-color="#0ff"/><stop offset="1" stop-color="#0ff" stop-opacity=".06"/></linearGradient><linearGradient id="e"><stop offset="0" stop-color="#afe"/><stop offset="1" stop-color="#008066"/></linearGradient><linearGradient id="d"><stop offset="0" stop-color="#666"/><stop offset="1" stop-color="#e6e6e6"/></linearGradient><linearGradient id="c"><stop offset="0"/><stop offset="1" stop-color="#333"/></linearGradient><linearGradient id="b"><stop offset="0"/><stop offset="1" stop-color="#333"/></linearGradient><linearGradient id="a"><stop offset="0" stop-color="#333"/><stop offset="1"/></linearGradient><radialGradient xlink:href="#a" id="k" cx="18.92" cy="19.3" fx="18.92" fy="19.3" r="12" gradientTransform="matrix(1.13572 .2877 -.27853 1.0995 2.8 -7.36)" gradientUnits="userSpaceOnUse"/><linearGradient xlink:href="#b" id="g" x1="19.86" y1="45.52" x2="44.91" y2="3.14" gradientUnits="userSpaceOnUse"/><linearGradient xlink:href="#c" id="h" x1="8.18" y1="8.41" x2="8.33" y2="39.81" gradientUnits="userSpaceOnUse"/><radialGradient xlink:href="#a" id="l" gradientUnits="userSpaceOnUse" gradientTransform="matrix(1.13572 .2877 -.27853 1.0995 2.8 -7.36)" cx="18.92" cy="19.3" fx="18.92" fy="19.3" r="12"/><linearGradient xlink:href="#d" id="i" x1="8.27" y1="8.14" x2="8.24" y2="37.32" gradientUnits="userSpaceOnUse"/><radialGradient xlink:href="#e" id="m" cx="18.78" cy="29.28" fx="18.78" fy="29.28" r="2" gradientUnits="userSpaceOnUse" gradientTransform="matrix(1.90383 .2884 -.22995 1.518 -51.06 -15.1)"/><linearGradient xlink:href="#f" id="j" gradientUnits="userSpaceOnUse" x1="33.37" y1="36.99" x2="14.5" y2="36.9"/></defs><circle cx="24" cy="24.02" r="21" fill="url(#g)"/><circle cx="24" cy="24.02" r="16" fill="url(#h)"/><path d="M14.5 36.9a16 16 0 0 1-5.68-17.92A16 16 0 0 1 24.09 8.02a16 16 0 0 1 15.15 11.12A16 16 0 0 1 33.37 37L24 24.02z" fill="url(#i)"/><path d="M14.5 36.9a16 16 0 0 1-5.68-17.92A16 16 0 0 1 24.08 8.02a16 16 0 0 1 15.16 11.12 16 16 0 0 1-5.87 17.85L24 24.02z" fill="url(#j)"/><path d="M24 36.03c-6.61 0-12-5.38-12-12s5.39-12 12-12c6.62 0 12 5.38 12 12s-5.38 12-12 12z" fill="url(#l)" transform="rotate(-74.66 24 24.03)"/><circle cx="-21.34" cy="35.47" r="2" transform="rotate(-74.66)" fill="url(#m)"/></svg>