<svg xmlns="http://www.w3.org/2000/svg" xmlns:xlink="http://www.w3.org/1999/xlink" version="1" width="64" height="64"><defs><linearGradient id="n"><stop offset="0"/><stop offset=".33"/><stop offset=".77" stop-color="#333"/><stop offset="1"/></linearGradient><linearGradient id="m"><stop offset="0" stop-color="#280b0b"/><stop offset="1" stop-color="red"/></linearGradient><linearGradient id="e"><stop offset="0" stop-color="#fff"/><stop offset="1" stop-color="#fff" stop-opacity="0"/></linearGradient><linearGradient id="d"><stop offset="0"/><stop offset="1" stop-color="#999"/></linearGradient><linearGradient id="b"><stop offset="0" stop-color="#fff"/><stop offset=".03" stop-color="#fff" stop-opacity=".24"/><stop offset=".97" stop-color="#fff" stop-opacity=".16"/><stop offset="1" stop-color="#fff" stop-opacity=".39"/></linearGradient><linearGradient id="g"><stop offset="0" stop-color="#fff"/><stop offset="1" stop-color="#fff" stop-opacity="0"/></linearGradient><linearGradient id="c"><stop offset="0"/><stop offset="1" stop-color="#666"/></linearGradient><linearGradient id="f"><stop offset="0" stop-color="#3d3d3d"/><stop offset=".5" stop-color="#686868" stop-opacity=".5"/><stop offset="1" stop-color="#686868" stop-opacity="0"/></linearGradient><linearGradient id="a"><stop offset="0" stop-color="#f89b7e"/><stop offset=".26" stop-color="#e35d4f"/><stop offset=".66" stop-color="#c6262e"/><stop offset="1" stop-color="#690b2c"/></linearGradient><linearGradient gradientTransform="matrix(.71114 0 0 .7104 28.12 29.87)" gradientUnits="userSpaceOnUse" xlink:href="#h" id="s" y2="44.53" x2="24" y1="2.01" x1="24"/><linearGradient id="i"><stop offset="0" stop-color="#fff"/><stop offset=".57" stop-color="#fff" stop-opacity=".24"/><stop offset=".93" stop-color="#fff" stop-opacity=".16"/><stop offset="1" stop-color="#fff" stop-opacity=".39"/></linearGradient><linearGradient id="l"><stop offset="0"/><stop offset="1" stop-opacity="0"/></linearGradient><linearGradient id="j"><stop offset="0"/><stop offset="1" stop-color="#333"/></linearGradient><linearGradient id="k"><stop offset="0" stop-color="#fff"/><stop offset="1" stop-color="#fff" stop-opacity="0"/></linearGradient><linearGradient id="h"><stop offset="0" stop-color="#ff0"/><stop offset="1" stop-color="#f60"/></linearGradient><linearGradient xlink:href="#m" id="t" x1="36.5" y1="44.5" x2="36" y2="32" gradientUnits="userSpaceOnUse" gradientTransform="matrix(1.45455 0 0 1.45455 -7.17 -6.12)"/><linearGradient y2="35.72" x2="17.77" y1="17.46" x1="13.68" gradientTransform="matrix(1.96748 0 0 2.7918 -8.33 -40.89)" gradientUnits="userSpaceOnUse" id="r" xlink:href="#e"/><linearGradient x1="-20.45" y1="-93.09" x2="-48.48" y2="-93.09" id="q" xlink:href="#c" gradientUnits="userSpaceOnUse" gradientTransform="matrix(.23927 0 0 .20908 38.23 25.98)" spreadMethod="reflect"/><linearGradient x1="-5.82" y1="-91.31" x2="-32.68" y2="-90.71" id="p" xlink:href="#d" gradientUnits="userSpaceOnUse" gradientTransform="matrix(.824 0 0 .20908 53.56 26.28)" spreadMethod="reflect"/><linearGradient y2="25" x2="36.61" y1="25" x1="12.03" gradientTransform="matrix(1.34146 0 0 1.34146 -64.2 -.2)" gradientUnits="userSpaceOnUse" id="o" xlink:href="#n"/></defs><rect width="33.54" height="52.32" rx="18.11" ry="2.01" x="-48.77" y="7.18" style="marker:none" transform="scale(-1 1)" color="#000" display="block" overflow="visible" fill="url(#o)"/><path d="M32 7.18c-9.29 0-16.77.9-16.77 2.02v2.68c0-1.12 7.48-2.01 16.77-2.01s16.77.9 16.77 2V9.2c0-1.12-7.48-2.02-16.77-2.02z" style="marker:none" color="#000" overflow="visible" fill="url(#p)"/><path d="M36.7 7.27V5.63C36.7 5 34.6 4.5 32 4.5s-4.7.5-4.7 1.13v1.64" style="marker:none" color="#000" overflow="visible" fill="url(#q)"/><path d="M26.63 7.3c-4.3.17-6.04.5-8.04.97v50.14c2 .48 3.73.8 8.04.96z" style="marker:none" overflow="visible" opacity=".3" fill="url(#r)"/><path d="M60.96 58.28L47.07 32.1a2.15 2.15 0 0 0-1.92-1.13c-.8 0-1.53.48-1.94 1.21L29.43 58.36c-.33.65-.33 1.54.07 2.19.4.64 1.04.97 1.84.97h27.68c.8 0 1.53-.4 1.85-1.06.4-.64.41-1.45.1-2.18z" fill="url(#s)"/><path d="M45.2 40.42c-1.05 0-1.9.87-1.9 1.94 0 1.94.63 4.53 1.26 9.7h1.26c.63-5.17 1.26-7.76 1.26-9.7 0-1.07-.84-1.94-1.89-1.94zm0 13.58c-1.05 0-1.9.87-1.9 1.94 0 1.07.85 1.94 1.9 1.94 1.04 0 1.88-.87 1.88-1.94 0-1.07-.84-1.94-1.89-1.94z" fill="url(#t)"/></svg>