<svg xmlns="http://www.w3.org/2000/svg" xmlns:xlink="http://www.w3.org/1999/xlink" version="1" width="64" height="64"><defs><linearGradient id="e"><stop offset="0" stop-color="#fff"/><stop offset="1" stop-color="#fff" stop-opacity="0"/></linearGradient><linearGradient id="d"><stop offset="0"/><stop offset="1" stop-color="#999"/></linearGradient><linearGradient id="b"><stop offset="0" stop-color="#fff"/><stop offset=".03" stop-color="#fff" stop-opacity=".24"/><stop offset=".97" stop-color="#fff" stop-opacity=".16"/><stop offset="1" stop-color="#fff" stop-opacity=".39"/></linearGradient><linearGradient id="g"><stop offset="0" stop-color="#fff"/><stop offset="1" stop-color="#fff" stop-opacity="0"/></linearGradient><linearGradient id="c"><stop offset="0"/><stop offset="1" stop-color="#666"/></linearGradient><linearGradient id="f"><stop offset="0" stop-color="#3d3d3d"/><stop offset=".5" stop-color="#686868" stop-opacity=".5"/><stop offset="1" stop-color="#686868" stop-opacity="0"/></linearGradient><linearGradient id="a"><stop offset="0" stop-color="#f89b7e"/><stop offset=".26" stop-color="#e35d4f"/><stop offset=".66" stop-color="#c6262e"/><stop offset="1" stop-color="#690b2c"/></linearGradient><linearGradient id="i"><stop offset="0" stop-color="#fff"/><stop offset=".57" stop-color="#fff" stop-opacity=".24"/><stop offset=".93" stop-color="#fff" stop-opacity=".16"/><stop offset="1" stop-color="#fff" stop-opacity=".39"/></linearGradient><linearGradient id="l"><stop offset="0"/><stop offset="1" stop-opacity="0"/></linearGradient><linearGradient id="j"><stop offset="0"/><stop offset="1" stop-color="#333"/></linearGradient><linearGradient id="k"><stop offset="0" stop-color="#fff"/><stop offset="1" stop-color="#fff" stop-opacity="0"/></linearGradient><linearGradient id="h"><stop offset="0" stop-color="#ff0"/><stop offset="1" stop-color="#f60"/></linearGradient><linearGradient y2="35.72" x2="17.77" y1="17.46" x1="13.68" gradientTransform="matrix(1.96748 0 0 2.7918 -8.33 -40.89)" gradientUnits="userSpaceOnUse" id="q" xlink:href="#e"/><linearGradient x1="-20.45" y1="-93.09" x2="-48.48" y2="-93.09" id="p" xlink:href="#c" gradientUnits="userSpaceOnUse" gradientTransform="matrix(.23927 0 0 .20908 38.23 25.98)" spreadMethod="reflect"/><linearGradient x1="-5.82" y1="-91.31" x2="-31.86" y2="-90.91" id="o" xlink:href="#d" gradientUnits="userSpaceOnUse" gradientTransform="matrix(.824 0 0 .20908 53.56 26.28)" spreadMethod="reflect"/><linearGradient y2="25" x2="36.61" y1="25" x1="12.03" gradientTransform="matrix(1.34146 0 0 1.34146 -64.2 -.2)" gradientUnits="userSpaceOnUse" id="n" xlink:href="#j"/><linearGradient gradientUnits="userSpaceOnUse" y2="24.88" x2="36.33" y1="26" x1="11.4" id="r" xlink:href="#m" gradientTransform="matrix(1.26146 0 0 .40258 1.72 40.63)"/><linearGradient id="m"><stop offset="0" stop-color="#ffe16b" stop-opacity=".02"/><stop offset=".5" stop-color="#e9b740" stop-opacity=".97"/><stop offset="1" stop-color="#d48e15" stop-opacity="0"/></linearGradient></defs><rect width="33.54" height="52.32" rx="18.11" ry="2.01" x="-48.77" y="7.18" style="marker:none" transform="scale(-1 1)" color="#000" display="block" overflow="visible" fill="url(#n)"/><path d="M32 7.18c-9.29 0-16.77.9-16.77 2.02v2.68c0-1.12 7.48-2.01 16.77-2.01s16.77.9 16.77 2V9.2c0-1.12-7.48-2.02-16.77-2.02z" style="marker:none" color="#000" overflow="visible" fill="url(#o)"/><path d="M36.7 7.27V5.63C36.7 5 34.6 4.5 32 4.5s-4.7.5-4.7 1.13v1.64" style="marker:none" color="#000" overflow="visible" fill="url(#p)"/><path d="M26.63 7.3c-4.3.17-6.04.5-8.04.97v50.14c2 .48 3.73.8 8.04.96z" style="marker:none" overflow="visible" opacity=".3" fill="url(#q)"/><rect style="marker:none" y="43.65" x="16.23" ry="1.86" rx="17.03" height="14.9" width="31.54" color="#000" overflow="visible" fill="url(#r)"/><g opacity=".4"><path d="M32.76 43.69c-.3 0-.46-.04-.76-.04-.91 0-1.47.1-2.34.11L28 50.5z" fill="#fff"/><path d="M27.28 18.94l-5.32 15.78h9.93l-2.23 9.04c.87-.01 1.43-.11 2.34-.11.3 0 .47.04.76.04l9.28-13.28h-9.7l6.5-11.47z"/><path d="M31.78 43.66c-.97 0-1.56.1-2.48.12L28 49.06z" style="marker:none" color="#000" overflow="visible"/><path d="M27.28 17.5l-5.32 15.78h9.93l-2.59 10.5c.92-.02 1.51-.12 2.48-.12l10.26-14.68h-9.7l6.5-11.48z" style="marker:none" color="#000" overflow="visible" fill="#fff"/></g></svg>