<svg xmlns="http://www.w3.org/2000/svg" xmlns:xlink="http://www.w3.org/1999/xlink" version="1" width="64" height="64"><defs><linearGradient id="e"><stop offset="0" stop-color="#fff"/><stop offset="1" stop-color="#fff" stop-opacity="0"/></linearGradient><linearGradient id="d"><stop offset="0"/><stop offset="1" stop-color="#999"/></linearGradient><linearGradient id="b"><stop offset="0" stop-color="#fff"/><stop offset=".03" stop-color="#fff" stop-opacity=".24"/><stop offset=".97" stop-color="#fff" stop-opacity=".16"/><stop offset="1" stop-color="#fff" stop-opacity=".39"/></linearGradient><linearGradient id="g"><stop offset="0" stop-color="#fff"/><stop offset="1" stop-color="#fff" stop-opacity="0"/></linearGradient><linearGradient id="c"><stop offset="0"/><stop offset="1" stop-color="#666"/></linearGradient><linearGradient id="f"><stop offset="0" stop-color="#3d3d3d"/><stop offset=".5" stop-color="#686868" stop-opacity=".5"/><stop offset="1" stop-color="#686868" stop-opacity="0"/></linearGradient><linearGradient id="a"><stop offset="0" stop-color="#f89b7e"/><stop offset=".26" stop-color="#e35d4f"/><stop offset=".66" stop-color="#c6262e"/><stop offset="1" stop-color="#690b2c"/></linearGradient><linearGradient id="i"><stop offset="0" stop-color="#fff"/><stop offset=".57" stop-color="#fff" stop-opacity=".24"/><stop offset=".93" stop-color="#fff" stop-opacity=".16"/><stop offset="1" stop-color="#fff" stop-opacity=".39"/></linearGradient><linearGradient id="l"><stop offset="0"/><stop offset="1" stop-opacity="0"/></linearGradient><linearGradient id="j"><stop offset="0"/><stop offset="1" stop-color="#333"/></linearGradient><linearGradient id="k"><stop offset="0" stop-color="#fff"/><stop offset="1" stop-color="#fff" stop-opacity="0"/></linearGradient><linearGradient id="h"><stop offset="0" stop-color="#ff0"/><stop offset="1" stop-color="#f60"/></linearGradient><linearGradient y2="35.72" x2="17.77" y1="17.46" x1="13.68" gradientTransform="matrix(1.96748 0 0 2.7918 -8.33 -40.89)" gradientUnits="userSpaceOnUse" id="s" xlink:href="#e"/><linearGradient x1="-20.45" y1="-93.09" x2="-48.48" y2="-93.09" id="r" xlink:href="#c" gradientUnits="userSpaceOnUse" gradientTransform="matrix(.23927 0 0 .20908 38.23 25.98)" spreadMethod="reflect"/><linearGradient x1="-5.82" y1="-91.31" x2="-31.86" y2="-90.91" id="q" xlink:href="#d" gradientUnits="userSpaceOnUse" gradientTransform="matrix(.824 0 0 .20908 53.56 26.28)" spreadMethod="reflect"/><linearGradient y2="25" x2="36.61" y1="25" x1="12.03" gradientTransform="matrix(1.34146 0 0 1.34146 -64.2 -.2)" gradientUnits="userSpaceOnUse" id="o" xlink:href="#j"/><linearGradient id="m"><stop offset="0" stop-color="#ffe16b" stop-opacity=".02"/><stop offset=".5" stop-color="#e9b740" stop-opacity=".97"/><stop offset="1" stop-color="#d48e15" stop-opacity="0"/></linearGradient><linearGradient gradientTransform="matrix(1.24 0 0 .88915 2.12 18.77)" xlink:href="#n" id="p" x1="11.4" y1="26" x2="36.5" y2="26" gradientUnits="userSpaceOnUse"/><linearGradient id="n"><stop offset="0" stop-color="#0ff" stop-opacity=".07"/><stop offset=".49" stop-color="#0ff"/><stop offset="1" stop-color="#0ff" stop-opacity=".01"/></linearGradient></defs><rect width="33.54" height="52.32" rx="18.11" ry="2.01" x="-48.77" y="7.18" style="marker:none" transform="scale(-1 1)" color="#000" display="block" overflow="visible" fill="url(#o)"/><path d="M16.38 34.3v22.14c0 1.05 6.91 1.9 15.5 1.9s15.5-.85 15.5-1.9V34.3z" style="marker:none" color="#000" overflow="visible" fill="url(#p)"/><path d="M32 7.18c-9.29 0-16.77.9-16.77 2.02v2.68c0-1.12 7.48-2.01 16.77-2.01s16.77.9 16.77 2V9.2c0-1.12-7.48-2.02-16.77-2.02z" style="marker:none" color="#000" overflow="visible" fill="url(#q)"/><path d="M36.7 7.27V5.63C36.7 5 34.6 4.5 32 4.5s-4.7.5-4.7 1.13v1.64" style="marker:none" color="#000" overflow="visible" fill="url(#r)"/><path d="M26.63 7.3c-4.3.17-6.04.5-8.04.97v50.14c2 .48 3.73.8 8.04.96z" style="marker:none" overflow="visible" opacity=".3" fill="url(#s)"/><g opacity=".4"><path d="M39.33 34.3H22.1l-.14.42h9.93L28 50.5z" fill="#fff"/><path d="M27.28 18.94L22.1 34.29h17.23l2.71-3.88h-9.7l6.5-11.47z"/><path d="M38.33 34.3h-6.69L28 49.05z" style="marker:none" color="#000" overflow="visible"/><path d="M27.28 17.5l-5.32 15.78h9.93l-.25 1.01h6.69l3.71-5.31h-9.7l6.5-11.48z" style="marker:none" color="#000" overflow="visible" fill="#fff"/></g></svg>