<svg xmlns="http://www.w3.org/2000/svg" xmlns:xlink="http://www.w3.org/1999/xlink" width="64" height="64"><defs><linearGradient id="b"><stop offset="0"/><stop offset="1" stop-color="#333"/></linearGradient><linearGradient xlink:href="#a" id="c" x1="16.18" y1="49.14" x2="16.18" y2="14.86" gradientUnits="userSpaceOnUse" gradientTransform="matrix(.76667 0 0 .76667 23.47 22.14)"/><linearGradient id="a"><stop offset="0" stop-color="#540"/><stop offset="1" stop-color="#ffd42a"/></linearGradient><linearGradient xlink:href="#b" id="d" x1="21.56" y1="18.53" x2="34.26" y2="57.5" gradientUnits="userSpaceOnUse" gradientTransform="matrix(.76667 0 0 .76667 23.47 22.14)"/></defs><g transform="translate(.12)"><rect ry="5.95" y="33.53" x="35.87" height="26.29" width="24.26" fill="url(#c)"/><path d="M47.96 36.37c-2.7 0-4.91 2.18-4.91 4.9v1.95h-2.96v11.79c0 1.1.9 1.97 1.97 1.97h11.79a1.97 1.97 0 0 0 1.94-1.97l.12-11.73-2.09-.06h-.96v-1.94c0-2.7-2.21-4.91-4.9-4.91zm0 1.85a3.04 3.04 0 0 1 3.02 3.06v1.94H44.9v-1.94a3.06 3.06 0 0 1 3.06-3.06z" fill="url(#d)"/></g></svg>