<svg xmlns="http://www.w3.org/2000/svg" xmlns:xlink="http://www.w3.org/1999/xlink" width="64" height="64"><path d="M59.68 19.16a37 37 0 0 0-27.71-12.6 37 37 0 0 0-27.63 12.5c-.43.5-5.09 5.83.08 11.02 6.39 7.36 16.5 18.6 22.52 24.93 5.03 5.21 9.71.48 10.17 0a928.56 928.56 0 0 0 22.55-25.08c5.03-5.04.45-10.28.02-10.77z" fill="url(#a)" fill-rule="evenodd"/><defs><linearGradient id="c"><stop offset="0" stop-color="#0ff" stop-opacity=".07"/><stop offset=".51" stop-color="#0ff" stop-opacity=".94"/><stop offset="1" stop-color="#0ff" stop-opacity="0"/></linearGradient><linearGradient xlink:href="#b" id="a" x1="2" y1="32" x2="62" y2="32" gradientUnits="userSpaceOnUse"/><linearGradient id="b"><stop offset="0" stop-color="#333"/><stop offset=".5"/><stop offset="1" stop-color="#333"/></linearGradient><linearGradient xlink:href="#c" id="d" x1="9.4" y1="35.49" x2="54.72" y2="35.49" gradientUnits="userSpaceOnUse"/></defs><path d="M52.97 25.97a28.19 28.19 0 0 0-20.93-9.33 28.18 28.18 0 0 0-20.87 9.26c-.33.37-3.85 4.32.05 8.16a680.04 680.04 0 0 0 17.01 18.48c3.8 3.86 7.34.35 7.69 0 4.55-4.7 12.1-13.01 17.04-18.58 3.8-3.74.34-7.62 0-7.99z" fill="url(#d)" fill-rule="evenodd"/></svg>