<svg xmlns="http://www.w3.org/2000/svg" xmlns:xlink="http://www.w3.org/1999/xlink" width="64" height="64"><defs><linearGradient id="c"><stop offset="0" stop-color="#666"/><stop offset="1"/></linearGradient><linearGradient id="b"><stop offset="0"/><stop offset="1" stop-color="#333"/></linearGradient><linearGradient xlink:href="#a" id="d" x1="16.18" y1="49.14" x2="16.18" y2="14.86" gradientUnits="userSpaceOnUse" gradientTransform="matrix(.76667 0 0 .76667 23.47 22.14)"/><linearGradient id="a"><stop offset="0" stop-color="#540"/><stop offset="1" stop-color="#ffd42a"/></linearGradient><linearGradient xlink:href="#b" id="e" x1="21.56" y1="18.53" x2="34.26" y2="57.5" gradientUnits="userSpaceOnUse" gradientTransform="matrix(.76667 0 0 .76667 23.47 22.14)"/><radialGradient xlink:href="#c" id="f" cx="11.91" cy="23.98" fx="11.91" fy="23.98" r="4.69" gradientTransform="matrix(1 0 0 .98718 18.17 .65)" gradientUnits="userSpaceOnUse"/><radialGradient xlink:href="#c" id="g" cx="11.91" cy="23.98" fx="11.91" fy="23.98" r="4.69" gradientTransform="matrix(1 0 0 .98718 34.17 .65)" gradientUnits="userSpaceOnUse"/><radialGradient xlink:href="#c" id="h" cx="11.91" cy="23.98" fx="11.91" fy="23.98" r="4.69" gradientTransform="matrix(1 0 0 .98718 2.17 .65)" gradientUnits="userSpaceOnUse"/></defs><g transform="translate(.12)"><rect ry="5.95" y="33.53" x="35.87" height="26.29" width="24.26" fill="url(#d)"/><path d="M47.96 36.37c-2.7 0-4.91 2.18-4.91 4.9v1.95h-2.96v11.79c0 1.1.9 1.97 1.97 1.97h11.79a1.97 1.97 0 0 0 1.94-1.97l.12-11.73-2.09-.06h-.96v-1.94c0-2.7-2.21-4.91-4.9-4.91zm0 1.85a3.04 3.04 0 0 1 3.02 3.06v1.94H44.9v-1.94a3.06 3.06 0 0 1 3.06-3.06z" fill="url(#e)"/></g><ellipse ry="4.63" rx="4.69" cy="26" cx="32" fill="url(#f)"/><ellipse ry="4.63" rx="4.69" cy="26" cx="48" fill="url(#g)"/><ellipse ry="4.63" rx="4.69" cy="26" cx="16" fill="url(#h)"/></svg>