<svg xmlns="http://www.w3.org/2000/svg" xmlns:xlink="http://www.w3.org/1999/xlink" width="64" height="64"><defs><linearGradient id="b"><stop offset="0" stop-color="#333"/><stop offset=".5"/><stop offset="1" stop-color="#333"/></linearGradient><linearGradient id="a"><stop offset="0" stop-color="#0ff" stop-opacity=".05"/><stop offset=".49" stop-color="#0ff"/><stop offset="1" stop-color="#0ff" stop-opacity=".02"/></linearGradient><linearGradient xlink:href="#a" id="f" x1="17.44" y1="39.46" x2="47.29" y2="39.1" gradientUnits="userSpaceOnUse"/><linearGradient xlink:href="#b" id="e" x1="2" y1="32" x2="62" y2="32" gradientUnits="userSpaceOnUse"/><linearGradient id="d"><stop offset="0"/><stop offset="1" stop-color="#333"/></linearGradient><linearGradient xlink:href="#c" id="g" x1="16.18" y1="49.14" x2="16.18" y2="14.86" gradientUnits="userSpaceOnUse" gradientTransform="matrix(.76667 0 0 .76667 23.47 22.14)"/><linearGradient id="c"><stop offset="0" stop-color="#540"/><stop offset="1" stop-color="#ffd42a"/></linearGradient><linearGradient xlink:href="#d" id="h" x1="21.56" y1="18.53" x2="34.26" y2="57.5" gradientUnits="userSpaceOnUse" gradientTransform="matrix(.76667 0 0 .76667 23.47 22.14)"/></defs><path d="M59.68 19.16a37 37 0 0 0-27.71-12.6 37 37 0 0 0-27.63 12.5c-.43.5-5.09 5.83.08 11.02 6.39 7.36 16.5 18.6 22.52 24.93 5.03 5.21 9.71.48 10.17 0a928.56 928.56 0 0 0 22.55-25.08c5.03-5.04.45-10.28.02-10.77z" fill="url(#e)" fill-rule="evenodd"/><path d="M45.66 37.83a19.15 19.15 0 0 0-13.68-5.62 19.15 19.15 0 0 0-13.63 5.57c-.21.22-2.51 2.6.04 4.91 3.15 3.28 8.14 8.3 11.11 11.11 2.48 2.33 4.8.22 5.02 0 2.97-2.82 7.9-7.82 11.13-11.17 2.48-2.25.22-4.59 0-4.8z" fill="url(#f)" fill-rule="evenodd"/><rect ry="5.95" y="33.53" x="35.87" height="26.29" width="24.26" fill="url(#g)"/><path d="M47.96 36.37c-2.7 0-4.91 2.18-4.91 4.9v1.95h-2.96v11.79c0 1.1.9 1.97 1.97 1.97h11.79a1.97 1.97 0 0 0 1.94-1.97l.12-11.73-2.09-.06h-.96v-1.94c0-2.7-2.21-4.91-4.9-4.91zm0 1.85a3.04 3.04 0 0 1 3.02 3.06v1.94H44.9v-1.94a3.06 3.06 0 0 1 3.06-3.06z" fill="url(#h)"/></svg>