<svg xmlns="http://www.w3.org/2000/svg" xmlns:xlink="http://www.w3.org/1999/xlink" width="64" height="64"><path d="M59.68 19.16a37 37 0 0 0-27.71-12.6 37 37 0 0 0-27.63 12.5c-.43.5-5.09 5.83.08 11.02 6.39 7.36 16.5 18.6 22.52 24.93 5.03 5.21 9.71.48 10.17 0a928.56 928.56 0 0 0 22.55-25.08c5.03-5.04.45-10.28.02-10.77z" fill="url(#a)" fill-rule="evenodd"/><defs><linearGradient id="b"><stop offset="0" stop-color="#0ff" stop-opacity=".03"/><stop offset=".5" stop-color="#0ff"/><stop offset="1" stop-color="#0ff" stop-opacity="0"/></linearGradient><linearGradient xlink:href="#b" id="f" x1="6" y1="32" x2="58" y2="32" gradientUnits="userSpaceOnUse"/><linearGradient xlink:href="#c" id="g" x1="16.18" y1="49.14" x2="16.18" y2="14.86" gradientUnits="userSpaceOnUse" gradientTransform="matrix(.76667 0 0 .76667 23.47 22.14)"/><linearGradient id="c"><stop offset="0" stop-color="#540"/><stop offset="1" stop-color="#ffd42a"/></linearGradient><linearGradient xlink:href="#d" id="h" x1="21.56" y1="18.53" x2="34.26" y2="57.5" gradientUnits="userSpaceOnUse" gradientTransform="matrix(.76667 0 0 .76667 23.47 22.14)"/><linearGradient id="d"><stop offset="0"/><stop offset="1" stop-color="#333"/></linearGradient><linearGradient xlink:href="#e" id="a" x1="2" y1="32" x2="62" y2="32" gradientUnits="userSpaceOnUse"/><linearGradient id="e"><stop offset="0" stop-color="#333"/><stop offset=".5"/><stop offset="1" stop-color="#333"/></linearGradient></defs><path d="M55.99 20.87A32.07 32.07 0 0 0 31.97 9.96 32.07 32.07 0 0 0 8.03 20.79c-.38.42-4.41 5.04.06 9.54a789.82 789.82 0 0 0 19.52 21.6c4.36 4.53 8.42.43 8.82 0a804.75 804.75 0 0 0 19.54-21.72c4.36-4.38.4-8.92.02-9.34z" fill="url(#f)" fill-rule="evenodd"/><rect ry="5.95" y="33.53" x="35.87" height="26.29" width="24.26" fill="url(#g)"/><path d="M47.96 36.37c-2.7 0-4.91 2.18-4.91 4.9v1.95h-2.96v11.79c0 1.1.9 1.97 1.97 1.97h11.79a1.97 1.97 0 0 0 1.94-1.97l.12-11.73-2.09-.06h-.96v-1.94c0-2.7-2.21-4.91-4.9-4.91zm0 1.85a3.04 3.04 0 0 1 3.02 3.06v1.94H44.9v-1.94a3.06 3.06 0 0 1 3.06-3.06z" fill="url(#h)"/></svg>