<svg xmlns="http://www.w3.org/2000/svg" xmlns:xlink="http://www.w3.org/1999/xlink" width="64" height="64"><defs><linearGradient xlink:href="#a" id="c" x1="2" y1="32" x2="62" y2="32" gradientUnits="userSpaceOnUse"/><linearGradient id="a"><stop offset="0" stop-color="#333"/><stop offset=".5"/><stop offset="1" stop-color="#333"/></linearGradient><radialGradient xlink:href="#b" id="d" cx="11.91" cy="23.98" fx="11.91" fy="23.98" r="4.69" gradientTransform="matrix(1 0 0 .98718 18.17 .65)" gradientUnits="userSpaceOnUse"/><linearGradient id="b"><stop offset="0" stop-color="#fff" stop-opacity=".97"/><stop offset="1" stop-color="#999"/></linearGradient><radialGradient xlink:href="#b" id="e" cx="11.91" cy="23.98" fx="11.91" fy="23.98" r="4.69" gradientTransform="matrix(1 0 0 .98718 2.17 .65)" gradientUnits="userSpaceOnUse"/><radialGradient xlink:href="#b" id="f" cx="11.91" cy="23.98" fx="11.91" fy="23.98" r="4.69" gradientTransform="matrix(1 0 0 .98718 34.17 .65)" gradientUnits="userSpaceOnUse"/></defs><path d="M59.68 19.16a37 37 0 0 0-27.71-12.6 37 37 0 0 0-27.63 12.5c-.43.5-5.09 5.83.08 11.02 6.39 7.36 16.5 18.6 22.52 24.93 5.03 5.21 9.71.48 10.17 0a928.56 928.56 0 0 0 22.55-25.08c5.03-5.04.45-10.28.02-10.77z" fill="url(#c)" fill-rule="evenodd"/><ellipse ry="4.63" rx="4.69" cy="26" cx="32" fill="url(#d)"/><ellipse ry="4.63" rx="4.69" cy="26" cx="16" fill="url(#e)"/><ellipse ry="4.63" rx="4.69" cy="26" cx="48" fill="url(#f)"/></svg>