<svg xmlns="http://www.w3.org/2000/svg" xmlns:xlink="http://www.w3.org/1999/xlink" width="64" height="64"><defs><linearGradient xlink:href="#a" id="d" x1="2" y1="32" x2="62" y2="32" gradientUnits="userSpaceOnUse"/><linearGradient id="a"><stop offset="0" stop-color="#333"/><stop offset=".5"/><stop offset="1" stop-color="#333"/></linearGradient><linearGradient gradientTransform="matrix(.71114 0 0 .7104 27.26 28.32)" gradientUnits="userSpaceOnUse" xlink:href="#b" id="e" y2="44.53" x2="24" y1="2.01" x1="24"/><linearGradient id="b"><stop offset="0" stop-color="#ff0"/><stop offset="1" stop-color="#f60"/></linearGradient><linearGradient xlink:href="#c" id="f" x1="36.5" y1="44.5" x2="36" y2="32" gradientUnits="userSpaceOnUse" gradientTransform="translate(-8.03 -7.67) scale(1.45455)"/><linearGradient id="c"><stop offset="0" stop-color="#280b0b"/><stop offset="1" stop-color="red"/></linearGradient></defs><path d="M59.68 19.16a37 37 0 0 0-27.71-12.6 37 37 0 0 0-27.63 12.5c-.43.5-5.09 5.83.08 11.02 6.39 7.36 16.5 18.6 22.52 24.93 5.03 5.21 9.71.48 10.17 0a928.56 928.56 0 0 0 22.55-25.08c5.03-5.04.45-10.28.02-10.77z" fill="url(#d)" fill-rule="evenodd"/><path d="M60.1 56.73L46.21 30.55a2.15 2.15 0 0 0-1.92-1.13c-.8 0-1.53.48-1.94 1.21L28.57 56.81c-.33.65-.33 1.54.07 2.19.4.64 1.04.97 1.84.97h27.68c.8 0 1.53-.4 1.85-1.06.4-.64.41-1.45.1-2.18z" fill="url(#e)" transform="matrix(.87499 0 0 .87499 7.03 7.76)"/><path d="M44.34 38.87c-1.05 0-1.9.87-1.9 1.94 0 1.94.63 4.53 1.26 9.7h1.26c.63-5.17 1.26-7.76 1.26-9.7 0-1.07-.84-1.94-1.89-1.94zm0 13.58c-1.05 0-1.9.87-1.9 1.94 0 1.07.85 1.94 1.9 1.94 1.04 0 1.88-.87 1.88-1.94 0-1.07-.84-1.94-1.89-1.94z" fill="url(#f)" transform="matrix(.87499 0 0 .87499 7.03 7.76)"/></svg>