<svg xmlns="http://www.w3.org/2000/svg" xmlns:xlink="http://www.w3.org/1999/xlink" width="64" height="64"><path d="M59.68 19.16a37 37 0 0 0-27.71-12.6 37 37 0 0 0-27.63 12.5c-.43.5-5.09 5.83.08 11.02 6.39 7.36 16.5 18.6 22.52 24.93 5.03 5.21 9.71.48 10.17 0a928.56 928.56 0 0 0 22.55-25.08c5.03-5.04.45-10.28.02-10.77z" fill="url(#a)" fill-rule="evenodd"/><defs><linearGradient id="b"><stop offset="0" stop-color="#0ff" stop-opacity=".03"/><stop offset=".5" stop-color="#0ff"/><stop offset="1" stop-color="#0ff" stop-opacity="0"/></linearGradient><linearGradient xlink:href="#b" id="d" x1="6" y1="32" x2="58" y2="32" gradientUnits="userSpaceOnUse"/><linearGradient xlink:href="#c" id="a" x1="2" y1="32" x2="62" y2="32" gradientUnits="userSpaceOnUse"/><linearGradient id="c"><stop offset="0" stop-color="#333"/><stop offset=".5"/><stop offset="1" stop-color="#333"/></linearGradient></defs><path d="M55.99 20.87A32.07 32.07 0 0 0 31.97 9.96 32.07 32.07 0 0 0 8.03 20.79c-.38.42-4.41 5.04.06 9.54a789.82 789.82 0 0 0 19.52 21.6c4.36 4.53 8.42.43 8.82 0a804.75 804.75 0 0 0 19.54-21.72c4.36-4.38.4-8.92.02-9.34z" fill="url(#d)" fill-rule="evenodd"/></svg>