<svg xmlns="http://www.w3.org/2000/svg" xmlns:xlink="http://www.w3.org/1999/xlink" width="64" height="64"><defs><linearGradient id="b"><stop offset="0" stop-color="#333"/><stop offset=".5"/><stop offset="1" stop-color="#333"/></linearGradient><linearGradient id="a"><stop offset="0" stop-color="#0ff" stop-opacity=".05"/><stop offset=".49" stop-color="#0ff"/><stop offset="1" stop-color="#0ff" stop-opacity=".02"/></linearGradient><linearGradient xlink:href="#a" id="d" x1="17.44" y1="39.46" x2="47.29" y2="39.1" gradientUnits="userSpaceOnUse"/><linearGradient xlink:href="#b" id="c" x1="2" y1="32" x2="62" y2="32" gradientUnits="userSpaceOnUse"/></defs><path d="M59.68 19.16a37 37 0 0 0-27.71-12.6 37 37 0 0 0-27.63 12.5c-.43.5-5.09 5.83.08 11.02 6.39 7.36 16.5 18.6 22.52 24.93 5.03 5.21 9.71.48 10.17 0a928.56 928.56 0 0 0 22.55-25.08c5.03-5.04.45-10.28.02-10.77z" fill="url(#c)" fill-rule="evenodd"/><path d="M45.66 37.83a19.15 19.15 0 0 0-13.68-5.62 19.15 19.15 0 0 0-13.63 5.57c-.21.22-2.51 2.6.04 4.91 3.15 3.28 8.14 8.3 11.11 11.11 2.48 2.33 4.8.22 5.02 0 2.97-2.82 7.9-7.82 11.13-11.17 2.48-2.25.22-4.59 0-4.8z" fill="url(#d)" fill-rule="evenodd"/></svg>