<svg xmlns="http://www.w3.org/2000/svg" xmlns:xlink="http://www.w3.org/1999/xlink" width="64" height="64"><defs><linearGradient id="b"><stop offset="0" stop-color="#f9f9f9"/><stop offset="1" stop-color="#f9f9f9" stop-opacity="0"/></linearGradient><linearGradient id="a"><stop offset="0" stop-color="#f9f9f9"/><stop offset="1" stop-color="gray"/></linearGradient><radialGradient id="d" cx="12.01" cy="13.2" r="20" gradientTransform="matrix(0 2.20138 -2.6867 0 54.7 -11.37)" gradientUnits="userSpaceOnUse"><stop offset="0" stop-color="#4d4d4d"/><stop offset=".26" stop-color="#333"/><stop offset=".7"/><stop offset="1"/></radialGradient><linearGradient id="e" x1="24" x2="24" y1="44" y2="3.9" gradientTransform="matrix(1.1086 0 0 1.31027 5.39 -2.33)" gradientUnits="userSpaceOnUse"><stop offset="0"/><stop offset="1" stop-color="#333"/></linearGradient><filter id="f" x="-.14" width="1.29" y="-.14" height="1.29"><feGaussianBlur stdDeviation=".48"/></filter><filter id="h" x="-.14" width="1.29" y="-.14" height="1.29"><feGaussianBlur stdDeviation=".48"/></filter><filter id="i" x="-.14" width="1.29" y="-.14" height="1.29"><feGaussianBlur stdDeviation=".48"/></filter><filter id="j" x="-.14" width="1.29" y="-.14" height="1.29"><feGaussianBlur stdDeviation=".48"/></filter><linearGradient id="c" x1="24" x2="24" y1="44" y2="3.9" gradientTransform="matrix(1.10798 0 0 1.4665 5.4 -3.02)" gradientUnits="userSpaceOnUse"><stop offset="0"/><stop offset="1" stop-color="#333"/></linearGradient><filter id="k" x="-.09" width="1.18" y="-.09" height="1.18" color-interpolation-filters="sRGB"><feGaussianBlur stdDeviation=".29"/></filter><radialGradient xlink:href="#a" id="l" cx="31.86" cy="26.85" fx="31.86" fy="26.85" r="13.31" gradientUnits="userSpaceOnUse" gradientTransform="matrix(.93512 0 0 .93512 2.08 2.09)"/><radialGradient xlink:href="#b" id="g" cx="13.15" cy="6.04" fx="13.15" fy="6.04" r="2.76" gradientUnits="userSpaceOnUse" gradientTransform="matrix(.93488 1.36689 -1.31553 .89976 10.02 -15.67)"/><radialGradient xlink:href="#b" id="m" cx="13.15" cy="6.04" fx="13.15" fy="6.04" r="2.76" gradientUnits="userSpaceOnUse" gradientTransform="matrix(.93488 1.36689 -1.31553 .89976 43 -15.67)"/><radialGradient xlink:href="#b" id="n" cx="13.15" cy="6.04" fx="13.15" fy="6.04" r="2.76" gradientUnits="userSpaceOnUse" gradientTransform="matrix(.93488 1.36689 -1.31553 .89976 43 25.16)"/><radialGradient xlink:href="#b" id="o" cx="13.15" cy="6.04" fx="13.15" fy="6.04" r="2.76" gradientUnits="userSpaceOnUse" gradientTransform="matrix(.93488 1.36689 -1.31553 .89976 9.8 25.26)"/></defs><rect x="10.39" y="3.58" width="43.21" height="57.2" rx="1.76" ry="2.33" fill="gray" stroke="url(#c)" stroke-width=".45" stroke-linecap="round" stroke-linejoin="round"/><rect x="10.38" y="3.57" width="43.24" height="51.1" rx="1.76" ry="2.08" fill="url(#d)" stroke="url(#e)" stroke-width=".42" stroke-linecap="round" stroke-linejoin="round"/><circle transform="matrix(.64508 0 0 .64508 -39.99 3.77)" r="4" cy="7.5" cx="86" opacity=".7" stroke="#000" stroke-width=".5" filter="url(#f)"/><circle r="2.58" cy="8.41" cx="15.49" fill="url(#g)"/><circle transform="matrix(.64508 0 0 .64508 -7.01 3.77)" r="4" cy="7.5" cx="86" opacity=".7" stroke="#000" stroke-width=".5" filter="url(#h)"/><circle transform="matrix(.64508 0 0 .64508 -40.21 44.7)" r="4" cy="7.5" cx="86" opacity=".7" stroke="#000" stroke-width=".5" filter="url(#i)"/><circle transform="matrix(.64508 0 0 .64508 -7.01 44.59)" r="4" cy="7.5" cx="86" opacity=".7" stroke="#000" stroke-width=".5" filter="url(#j)"/><path d="M17.97 56.34h28.06v3.74H17.97z" fill="#292c2e"/><path d="M19.84 57.28v1.87h1.87v-1.87zm2.8 0v1.87h1.88v-1.87zm2.81 0v1.87h1.87v-1.87zm2.8 0v1.87h1.88v-1.87zm2.81 0v1.87h1.87v-1.87zm2.81 0v1.87h1.87v-1.87zm2.8 0v1.87h1.88v-1.87zm2.81 0v1.87h1.87v-1.87zm2.8 0v1.87h1.88v-1.87z" fill="#ff0"/><circle transform="matrix(3.11142 0 0 3.11142 -235.74 4.78)" r="4" cy="7.5" cx="86" opacity=".7" stroke="#000" stroke-width=".5" filter="url(#k)"/><circle r="12.45" cy="27.2" cx="31.87" fill="url(#l)"/><circle r="2.58" cy="8.41" cx="48.47" fill="url(#m)"/><circle r="2.58" cy="49.24" cx="48.47" fill="url(#n)"/><circle r="2.58" cy="49.34" cx="15.27" fill="url(#o)"/></svg>