<svg xmlns="http://www.w3.org/2000/svg" xmlns:xlink="http://www.w3.org/1999/xlink" width="64" height="64"><defs><linearGradient id="h"><stop offset="0" stop-color="#333"/><stop offset="1"/></linearGradient><linearGradient id="b"><stop offset="0"/><stop stop-color="#333" offset="1"/></linearGradient><linearGradient id="d"><stop offset="0" stop-color="#b30000"/><stop offset="1" stop-color="#ff6868"/></linearGradient><linearGradient id="c"><stop offset="0" stop-color="#bababa"/><stop offset=".08" stop-color="#e7e7e7"/><stop offset="1" stop-color="#bababa"/></linearGradient><linearGradient id="f"><stop offset="0" stop-color="#fff"/><stop offset="1" stop-opacity="0"/></linearGradient><linearGradient id="g"><stop offset="0" stop-color="#afafaf"/><stop offset="1" stop-color="#5a5a5a"/></linearGradient><linearGradient id="e"><stop offset="0" stop-color="#a60000"/><stop offset="1" stop-color="#a60000" stop-opacity="0"/></linearGradient><linearGradient id="a"><stop offset="0" stop-color="#fff"/><stop offset="1" stop-color="#fff" stop-opacity="0"/></linearGradient><radialGradient xlink:href="#a" id="u" gradientUnits="userSpaceOnUse" gradientTransform="matrix(1.62226 0 0 1.68672 -416.98 -211.17)" cx="661.94" cy="307.5" fx="665.27" fy="307.79" r="20.51"/><filter x="-.21" width="1.41" y="-.12" height="1.24" id="v"><feGaussianBlur stdDeviation="3.51"/></filter><radialGradient xlink:href="#b" id="t" gradientUnits="userSpaceOnUse" gradientTransform="matrix(.18803 0 0 .53533 -68.64 -145.95)" cx="534.99" cy="300.16" fx="534.99" fy="305.8" r="8.98"/><linearGradient xlink:href="#c" id="s" gradientUnits="userSpaceOnUse" gradientTransform="matrix(.46881 0 0 .46155 -218.24 -128.05)" x1="533.92" y1="291.82" x2="533.92" y2="324.82"/><linearGradient xlink:href="#a" id="r" gradientUnits="userSpaceOnUse" gradientTransform="matrix(.42545 0 0 .35424 -256.65 -94.48)" x1="678.13" y1="324.57" x2="678.13" y2="329.89"/><linearGradient xlink:href="#d" id="q" gradientUnits="userSpaceOnUse" gradientTransform="matrix(.42545 0 0 .35424 -256.65 -94.48)" x1="678.13" y1="332.24" x2="678.13" y2="337.07"/><radialGradient xlink:href="#e" id="o" gradientUnits="userSpaceOnUse" gradientTransform="matrix(1 0 0 2.66667 0 -552.11)" cx="678.13" cy="331.27" fx="678.13" fy="331.27" r="2.34"/><filter x="-.27" width="1.53" y="-.1" height="1.2" id="p"><feGaussianBlur stdDeviation=".52"/></filter><linearGradient id="n" x1="16" x2="11.56" y1="33" y2="34.51" gradientUnits="userSpaceOnUse" xlink:href="#f" gradientTransform="translate(-2.65 -1.84) scale(1.41054)"/><linearGradient id="m" x1="32.99" x2="37.13" y1="33.05" y2="34.62" gradientUnits="userSpaceOnUse" xlink:href="#f" gradientTransform="translate(-2.65 -1.84) scale(1.41054)"/><linearGradient id="l" x1="24.5" x2="24.5" y1="3" y2="44.5" gradientUnits="userSpaceOnUse" xlink:href="#g" gradientTransform="matrix(1.41054 0 0 1.37629 -2.65 -1.05)"/><linearGradient id="j" x1="23.82" x2="24.56" y1="4.11" y2="44" gradientUnits="userSpaceOnUse" gradientTransform="translate(12.19 -11.2)"><stop offset="0" stop-color="#fff"/><stop offset="1" stop-color="#fff" stop-opacity="0"/></linearGradient><filter id="k" x="-.08" width="1.16" y="-.05" height="1.1" color-interpolation-filters="sRGB"><feGaussianBlur stdDeviation=".79"/></filter><radialGradient xlink:href="#h" id="i" cx="23.43" cy="20.4" fx="23.43" fy="20.4" r="18.31" gradientTransform="matrix(1.2205 -.03332 .05199 1.90455 -6.23 -24.4)" gradientUnits="userSpaceOnUse"/></defs><path d="M32.02 3.09c-6.14 0-12.32 1.4-15.23 4.18-4.4 9.27-3.36 17.99-1.46 26.84-.23 6.46-.69 6.35 0 12.71h.06c.6 7.87 7.81 14.1 16.58 14.1 8.74 0 15.9-6.23 16.53-14.12.72-6.23.13-6.42.03-12.38 1.98-8.98 3.18-17.75-1.27-27.15C44.34 4.5 38.22 3.1 32.05 3.1z" fill="url(#i)"/><path d="M30.51 3.77h2.81V32.7h-2.8z" opacity=".6" fill="#fff"/><path transform="matrix(1.2867 0 0 1.3122 -15.29 14.71)" d="M36.78-6.7c-4.12 0-8.22 1.05-9.97 2.59-2.88 6.24-2.24 12.03-.9 18.19a.99.99 0 0 1 .03.25c-.17 4.53-.47 4.51-.03 8.68a.99.99 0 0 1 0 .03.99.99 0 0 1 .06.2c.38 5.02 5 9.05 10.75 9.05s10.34-4.03 10.72-9.06a.99.99 0 0 1 .03-.06c.5-4.35.08-4.33 0-8.63a.99.99 0 0 1 .03-.25c1.38-6.24 2.14-12.1-.78-18.4-1.74-1.55-5.81-2.6-9.94-2.6z" opacity=".52" fill="none" stroke="url(#j)" stroke-width="1.87" filter="url(#k)"/><path d="M31.2 3.09h1.4v28.9h-1.4z" fill="url(#l)"/><path d="M47.86 34.24c-1.45 6.3-3.97 13.24-3.97 21.03 1.4-1.7 4.45-3.52 4.24-14.83z" opacity=".5" fill="url(#m)"/><path d="M15.97 33.81c1.46 6.3 3.97 13.7 3.97 21.46-1.4-1.7-4.47-3.52-4.24-14.83z" opacity=".5" fill="url(#n)"/><path d="M24.47 4.1a24.64 24.64 0 0 0-5.85 18.24c0-2.25.6-5.93 1.16-8.47a22.36 22.36 0 0 1 4.77-9.27 2.46 2.46 0 0 1-.08-.53z" fill-opacity=".5" fill-rule="evenodd"/><rect transform="matrix(.85086 0 0 .4428 -545.14 -123.97)" width="4.69" height="12.5" x="675.78" y="325.02" rx="10.44" ry="10.44" fill="url(#o)" filter="url(#p)"/><rect ry="2.73" rx="3.26" y="20.65" x="30.86" height="4.42" width="1.99" fill="url(#q)"/><path d="M31.6 20.94c-.3 0-.53.21-.53.45v.53c.48-.03 1.03 0 1.59.03v-.56c0-.26-.27-.45-.53-.45z" fill="url(#r)"/><rect ry="21.7" rx="16.13" y="7.09" x="28.84" height="12.74" width="6.46" stroke="url(#s)" stroke-width="1.85" stroke-linecap="round" stroke-linejoin="round" stroke-dashoffset="1.09"/><path d="M34.57 13.44c0 4.56-1.12 5.57-2.47 5.57s-2.46-1.28-2.46-5.57c0-4.18 1.11-5.56 2.46-5.56 1.35 0 2.47 1.11 2.47 5.56z" fill="url(#t)"/><path d="M39.65 4.1a24.64 24.64 0 0 1 5.83 18.24c.03-2.25-.6-5.93-1.17-8.47a22.36 22.36 0 0 0-4.76-9.27 2.46 2.46 0 0 0 .1-.53zm3.05 53.2c-1.4-8.58 1.32-19.15 5.27-27.31a84.06 84.06 0 0 0-3.79 11.66c-1 5-1.77 9.88-1.06 14.57-.13.18-.32.87-.42 1.08zm-21.49 0c1.44-8.58-1.3-19.15-5.24-27.31a84.06 84.06 0 0 1 3.79 11.66c.98 5 1.77 9.88 1.06 14.57.1.18.29.87.4 1.08z" fill-opacity=".5" fill-rule="evenodd"/><path transform="matrix(.2775 0 0 .23105 -158.1 -55.43)" d="M654.94 272.9c-12.42 15.81-17.52 42.24-11.9 65.94a22.44 22.44 0 0 0 11.52 3.25c9.57 0 17.96-6.27 22.82-15.75v-37.71c-4.8-9.34-13.05-15.56-22.44-15.72zm24.4 20.32v28.6a42.5 42.5 0 0 0 2.44-14.32c0-5.1-.88-9.92-2.44-14.28z" opacity=".59" fill="url(#u)" fill-rule="evenodd" filter="url(#v)"/></svg>