<svg xmlns="http://www.w3.org/2000/svg" xmlns:xlink="http://www.w3.org/1999/xlink" height="64" width="64"><defs><linearGradient id="n"><stop offset="0" stop-color="#333"/><stop offset="1"/></linearGradient><linearGradient id="m"><stop offset="0"/><stop offset="1" stop-color="#333"/></linearGradient><linearGradient id="e"><stop offset="0" stop-color="teal" stop-opacity="0"/><stop offset=".15" stop-color="teal"/><stop offset="1" stop-color="teal" stop-opacity="0"/></linearGradient><linearGradient id="b"><stop offset="0"/><stop offset="1" stop-opacity="0"/></linearGradient><linearGradient id="c"><stop offset="0" stop-color="#fff"/><stop offset=".06" stop-color="#fff" stop-opacity=".24"/><stop offset=".94" stop-color="#fff" stop-opacity=".16"/><stop offset="1" stop-color="#fff" stop-opacity=".39"/></linearGradient><linearGradient id="a"><stop offset="0" stop-color="#4d4d4d"/><stop offset="1" stop-color="#ccc"/></linearGradient><linearGradient id="d"><stop offset="0" stop-color="#4d4d4d"/><stop offset=".09" stop-color="#333"/><stop offset=".92" stop-color="#1a1a1a"/><stop offset="1"/></linearGradient><linearGradient x1="25.13" y1=".99" x2="25.13" y2="62.71" id="r" xlink:href="#f" gradientUnits="userSpaceOnUse" gradientTransform="matrix(1.0578 0 0 .2752 6.63 2.03)"/><linearGradient id="f"><stop offset="0" stop-color="#333"/><stop offset="1" stop-color="#dbdbdb"/></linearGradient><linearGradient id="g"><stop offset="0" stop-color="#e6e6e6"/><stop offset="1" stop-color="gray"/></linearGradient><radialGradient gradientTransform="translate(.84 -4.1) scale(1.94857)" xlink:href="#h" id="q" cx="27.5" cy="18" fx="27.5" fy="18" r="1" gradientUnits="userSpaceOnUse"/><linearGradient id="h"><stop offset="0" stop-color="#0cceff"/><stop offset="1" stop-color="#0cceff" stop-opacity="0"/></linearGradient><linearGradient gradientTransform="translate(.84 -4.1) scale(1.94857)" xlink:href="#i" id="p" x1="1.48" y1="9.59" x2="1.51" y2="27.67" gradientUnits="userSpaceOnUse"/><linearGradient id="i"><stop offset="0"/><stop offset=".26" stop-color="#333"/><stop offset=".28"/><stop offset="1" stop-color="#333"/></linearGradient><linearGradient gradientTransform="matrix(.93898 0 0 .89496 10.16 20.88)" gradientUnits="userSpaceOnUse" xlink:href="#j" id="t" y2="46.04" x2="23.14" y1="38.3" x1="23.1"/><linearGradient id="j"><stop offset="0"/><stop offset=".44" stop-color="#333"/><stop offset="1"/></linearGradient><linearGradient id="k"><stop offset="0" stop-color="#474747" stop-opacity="0"/><stop offset=".1" stop-color="#474747"/><stop offset=".9" stop-color="#474747"/><stop offset="1" stop-color="#474747" stop-opacity="0"/></linearGradient><linearGradient id="l"><stop offset="0" stop-color="#fff" stop-opacity="0"/><stop offset=".11" stop-color="#d9d9d9"/><stop offset=".92" stop-color="#d9d9d9"/><stop offset="1" stop-color="#fff" stop-opacity="0"/></linearGradient><linearGradient xlink:href="#m" id="o" x1="30.23" y1="52.15" x2="34.09" y2="52.15" gradientUnits="userSpaceOnUse"/><linearGradient xlink:href="#n" id="s" x1="5.2" y1="57.56" x2="5.2" y2="61.14" gradientUnits="userSpaceOnUse" gradientTransform="translate(0 -118.1)"/></defs><path fill="url(#o)" d="M30.23 48.94h3.85v6.42h-3.85z"/><path d="M7.66 14.41h48.71c2.53 0 3.9 6.48 3.9 9.74v23.39c.02 1.88-2.01 2.08-3.43 1.95H5.7c-1.88.02-2.08-2.02-1.95-3.44v-21.9s.93-9.74 3.9-9.74z" style="marker:none" color="#000" overflow="visible" fill="url(#p)" stroke="#000" stroke-width=".97"/><path style="marker:none" color="#000" overflow="visible" fill="url(#q)" d="M52.48 29.03h3.9v3.9h-3.9z"/><path style="marker:none" color="#000" overflow="visible" opacity=".89" d="M12.53 38.82H51.5v1.95H12.53z"/><path d="M13.5 2.72h37.03v16.56H13.5V2.72z" fill="url(#r)"/><path style="marker:none" transform="scale(1 -1)" display="block" overflow="visible" fill="url(#s)" d="M5.2-60.53h53.93v3.57H5.2z"/><path d="M29.3 54.76h-4.14c-.75 0-1.35.54-1.35 1.23v5.23c0 .7.6 1.24 1.35 1.24h14c.75 0 1.35-.55 1.35-1.24V56c0-.69-.6-1.23-1.35-1.23h-3.62z" style="marker:none" display="block" overflow="visible" fill="url(#t)"/></svg>