<svg xmlns="http://www.w3.org/2000/svg" xmlns:xlink="http://www.w3.org/1999/xlink" height="64" width="64"><defs><linearGradient id="e"><stop offset="0" stop-color="teal" stop-opacity="0"/><stop offset=".15" stop-color="teal"/><stop offset="1" stop-color="teal" stop-opacity="0"/></linearGradient><linearGradient id="b"><stop offset="0"/><stop offset="1" stop-opacity="0"/></linearGradient><linearGradient id="c"><stop offset="0" stop-color="#fff"/><stop offset=".06" stop-color="#fff" stop-opacity=".24"/><stop offset=".94" stop-color="#fff" stop-opacity=".16"/><stop offset="1" stop-color="#fff" stop-opacity=".39"/></linearGradient><linearGradient id="a"><stop offset="0" stop-color="#4d4d4d"/><stop offset="1" stop-color="#ccc"/></linearGradient><linearGradient id="d"><stop offset="0" stop-color="#4d4d4d"/><stop offset=".09" stop-color="#333"/><stop offset=".92" stop-color="#1a1a1a"/><stop offset="1"/></linearGradient><linearGradient xlink:href="#a" id="j" gradientUnits="userSpaceOnUse" gradientTransform="matrix(.91184 0 0 .8566 10.12 10.13)" x1="25.13" y1=".99" x2="34.86" y2="50.73"/><linearGradient xlink:href="#b" id="h" x1="-45.79" y1="-2.54" x2="-1.5" y2="59.5" gradientUnits="userSpaceOnUse" gradientTransform="translate(59.92 .98) scale(1.0339)"/><linearGradient y2="42.73" x2="16.81" y1="20.62" x1="16.81" gradientTransform="matrix(2.34247 0 0 2.72491 -6.24 -54.3)" gradientUnits="userSpaceOnUse" id="g" xlink:href="#c"/><linearGradient gradientTransform="translate(-2.12 -1020.88) scale(1.0339)" gradientUnits="userSpaceOnUse" y2="1048.36" x2="33" y1="988.36" x1="33" id="f" xlink:href="#d"/><linearGradient xlink:href="#e" id="i" x1="11.38" y1="42.45" x2="11.38" y2="24.05" gradientUnits="userSpaceOnUse"/></defs><rect y="1.5" x="5.64" ry="3.1" rx="3.1" height="61" width="52.73" fill="url(#f)"/><rect width="50.66" height="58.93" rx="2.07" ry="2.07" x="6.67" y="2.53" fill="none" stroke="url(#g)" stroke-width="1.03" stroke-linecap="round" stroke-linejoin="round" opacity=".71"/><rect width="44.46" height="52.73" rx="1.03" ry="1.03" x="9.77" y="5.64" style="marker:none" color="#000" overflow="visible" opacity=".9" fill="url(#h)"/><path opacity=".8" fill="url(#i)" d="M9.25 20.68h45.49v21.66H9.25z"/><path opacity=".8" fill="#fff" d="M9.25 39.67h45.49v1.03H9.25z"/><path d="M16.04 12.29h31.92v39.42H16.04V12.3z" fill="url(#j)"/><path d="M19.8 16.5H22zm2.52 0h2.05zm2.38 0h1.81zm2.1 0h.8zm1.12 0h1.76zm2.11 0h4.64zm4.93 0h3.55zm3.85 0h1.08zM19.8 18.4h3.43zm3.81 0h1.64zm1.94 0h.82zm1.14 0h1.5zm1.82 0h1.52zm1.82 0h2.43zm2.76 0h3.16zm3.46 0h2.1zm2.4 0h.53zM19.8 20.25h2.9zm3.2 0h4.75zm5.04 0h2.32zm2.61 0h2.17zm2.46 0h1.85zm2.15 0l2.9.03zm3.16.03h4.73zM19.8 22.14h4.02zm4.34 0h4.34zm4.63 0h1.73zm2.03 0h4.07zm4.34 0h2.79zm3.1 0h1.12zm1.42 0h.61zm.93 0h1.74zm-20.8 1.88h1.5zm1.97 0h5.55zm-1.96 3.74h2.9zm3.2 0h4.75zm5.04 0h2.32zm2.61 0h2.17zm2.46 0h1.85zm2.15 0l2.9.03zm3.16.03h4.73zM19.8 29.65H22zm2.52 0h2.02zm2.38 0h1.81zm2.1 0h.8zm1.12 0h1.76zm2.11 0h4.61zm4.93 0h3.52zm3.82 0h1.11zm1.4 0h2.64zM19.8 31.53h3.7zm3.99 0h3.96zm4.25 0h1.53zm1.82 0h3.72zm4.02 0h4.7zm5.01 0h1.73zM19.8 33.4h4.03zm4.35 0h4.34zm4.63 0h1.73zm2.03 0h4.07zm4.34 0h2.79zm3.1 0h1.12zm1.42 0h.61zm.93 0h1.74zm-20.8 1.87h3.44zm3.82 0h1.64zm1.94 0h.82zm1.14 0h1.5zm1.82 0h1.52zm1.82 0h2.43zm2.76 0h3.16zm3.46 0h2.1zm2.4 0h.53zM19.8 39.02h2.9zm3.2 0h4.75zm5.04 0h2.32zm2.61 0h2.17zm2.46 0h1.85zm2.15 0l2.9.03zm3.16.03h4.73zM19.8 40.91h3.43zm3.81 0h1.64zm1.94 0h.82zm1.14 0h1.5zm1.82 0h1.52zm1.82 0h2.43zm2.76 0h3.16zm3.46 0h2.1zm2.4 0h.53zM19.8 42.8h3.63zm3.96 0h1.14zm1.43 0h2.62zm2.9 0h3.85zm4.17 0h2.61zm2.88 0h.56zm.85 0h3.31zm3.67 0h1.73zM19.8 44.67h3.63zm3.96 0h1.64zm1.93 0h2.58zm2.88 0h2.78zm3.1 0h1.12zm1.42 0h.61zm.93 0h1.73z" opacity=".59" fill="none" stroke="#fff" stroke-width=".94"/><rect y="5.64" x="9.77" ry="1.03" rx="1.03" height="52.73" width="44.46" opacity=".5" fill="none" stroke="#000" stroke-width="1.03"/></svg>