<svg xmlns="http://www.w3.org/2000/svg" xmlns:xlink="http://www.w3.org/1999/xlink" width="64" height="64" viewBox="0 0 16.93 16.93"><defs><linearGradient id="d"><stop offset="0" stop-color="#333"/><stop offset="1"/></linearGradient><linearGradient id="c"><stop offset="0" stop-color="#d69127"/><stop offset="1" stop-color="#d3bc5f"/></linearGradient><linearGradient id="b"><stop offset="0"/><stop offset="1" stop-color="#333"/></linearGradient><linearGradient id="a"><stop offset="0" stop-color="#4d4d4d"/><stop offset="1"/></linearGradient><radialGradient xlink:href="#d" id="h" cx="7.65" cy="9.84" fx="7.65" fy="9.84" r="1.85" gradientUnits="userSpaceOnUse" gradientTransform="matrix(1.15044 0 0 1.15044 -1.28 -3.7)"/><linearGradient xlink:href="#b" id="g" x1="3.24" y1="5.97" x2="14.09" y2="13.74" gradientUnits="userSpaceOnUse" gradientTransform="matrix(.49305 0 0 .49305 4.29 3.25)"/><linearGradient xlink:href="#c" id="f" x1="4.23" y1="15.08" x2="4.23" y2="6.09" gradientUnits="userSpaceOnUse" gradientTransform="matrix(1.15044 0 0 1.15044 -1.28 -3.7)"/><linearGradient xlink:href="#b" id="e" x1="3.24" y1="5.97" x2="14.09" y2="13.74" gradientUnits="userSpaceOnUse" gradientTransform="matrix(1.15044 0 0 1.15044 -1.28 -3.7)"/></defs><path d="M8.47 1.33a7.1 7.1 0 0 0-2.92.6H2.87a.93.93 0 0 0-.93.95v2.7a7.1 7.1 0 0 0 0 5.8v2.68c0 .51.41.92.93.92h2.7a7.1 7.1 0 0 0 5.8 0h2.7c.5 0 .92-.4.92-.92v-2.7a7.1 7.1 0 0 0 0-5.8v-2.7c0-.5-.43-.92-.94-.92h-2.7a7.1 7.1 0 0 0-2.88-.61z" style="marker:none" overflow="visible" color="#000" fill="#1a1a1a"/><circle style="marker:none" cx="8.47" cy="8.46" r="6.4" overflow="visible" color="#000" fill="url(#e)"/><circle style="marker:none" cx="8.47" cy="8.46" r="5.17" overflow="visible" color="#000" fill="url(#f)"/><path style="marker:none" d="M3.3 2.99a.3.3 0 0 0-.32.3.3.3 0 0 0 .31.31.3.3 0 0 0 .3-.31.3.3 0 0 0-.3-.3zm10.34 0a.3.3 0 0 0-.31.3.3.3 0 0 0 .3.31.3.3 0 0 0 .3-.31.3.3 0 0 0-.3-.3zM3.29 13.32a.3.3 0 0 0-.31.3.3.3 0 0 0 .31.31.3.3 0 0 0 .3-.31.3.3 0 0 0-.3-.3zm10.35 0a.3.3 0 0 0-.31.3.3.3 0 0 0 .3.31.3.3 0 0 0 .3-.31.3.3 0 0 0-.3-.3z" overflow="visible" color="#000" fill="gray"/><circle style="marker:none" cx="8.47" cy="8.46" r="2.74" overflow="visible" color="#000" fill="url(#g)"/><circle style="marker:none" cx="8.47" cy="8.46" r="2.13" overflow="visible" color="#000" fill="url(#h)"/></svg>