<svg xmlns="http://www.w3.org/2000/svg" xmlns:xlink="http://www.w3.org/1999/xlink" width="64" height="64" viewBox="0 0 16.93 16.93"><defs><linearGradient id="d"><stop offset="0" stop-color="#4d4d4d"/><stop offset="1"/></linearGradient><linearGradient id="c"><stop offset="0" stop-color="#4d4d4d"/><stop offset="1"/></linearGradient><linearGradient id="b"><stop offset="0" stop-color="#4d4d4d"/><stop offset="1"/></linearGradient><linearGradient id="a"><stop offset="0" stop-color="#4d4d4d"/><stop offset="1"/></linearGradient><radialGradient xlink:href="#a" id="f" cx="5.08" cy="4.26" fx="5.08" fy="4.26" r="1.96" gradientTransform="matrix(.99992 .01275 -.03318 2.60137 .14 -7.29)" gradientUnits="userSpaceOnUse"/><radialGradient xlink:href="#b" id="e" cx="10.81" cy="4.97" fx="10.81" fy="4.97" r="2.62" gradientTransform="matrix(.99998 .00639 -.01242 1.94461 .06 -4.76)" gradientUnits="userSpaceOnUse"/><radialGradient xlink:href="#c" id="h" cx="5.71" cy="11.93" fx="5.71" fy="11.93" r="2.65" gradientTransform="matrix(1 0 0 1.15967 0 -1.9)" gradientUnits="userSpaceOnUse"/><radialGradient xlink:href="#d" id="g" cx="11.47" cy="11.88" fx="11.47" fy="11.88" r="2.41" gradientTransform="matrix(.99993 -.01211 .02698 2.22705 -.32 -14.44)" gradientUnits="userSpaceOnUse"/></defs><g font-weight="400" font-size="1.41" font-family="sans-serif" letter-spacing="0" word-spacing="0"><path d="M10.82 1.92c-.8.05-1.44.35-1.92.91A3.2 3.2 0 0 0 8.2 5c0 .89.2 1.57.58 2.05.39.48 1.01.8 1.87.94.07.01.12.02.14.01h.09l.1-.01c.8-.07 1.41-.36 1.82-.89.42-.52.63-1.23.63-2.12 0-.89-.23-1.6-.68-2.12-.5-.59-1.14-.9-1.93-.94zm0 .8c.35 0 .66.2.9.58.26.38.39.94.39 1.66 0 .71-.13 1.26-.38 1.65-.27.43-.58.64-.91.64-.35 0-.65-.2-.9-.6-.27-.41-.4-.97-.4-1.69s.13-1.28.38-1.67c.25-.38.55-.57.92-.57z" style="line-height:.75" fill="url(#e)" transform="matrix(1.22776 0 0 1.22776 -1.93 -1.93)"/><path d="M5.48 1.98c-.6 0-1.1.15-1.5.44a.5.5 0 0 0-.2.38.4.4 0 0 0 .16.38c.1.07.2.1.32.11.12 0 .25-.05.37-.16.13-.1.3-.17.5-.2.2-.01.43.04.69.18l.14.1c.05.04.1.1.13.21.04.1.07.19.08.26.01.16-.05.34-.2.55a108.64 108.64 0 0 1-2.29 3.01.46.46 0 0 0-.06.5c.08.18.21.28.42.28h2.89c.16 0 .3-.06.4-.18.11-.11.16-.25.16-.4v-.02a.55.55 0 0 0-.16-.4.56.56 0 0 0-.4-.16H5.48a31.8 31.8 0 0 1 1.29-1.59c.48-.54.72-1.06.72-1.58 0-.5-.18-.92-.56-1.24a2.17 2.17 0 0 0-1.45-.47z" style="line-height:.75" fill="url(#f)" transform="matrix(1.22776 0 0 1.22776 -1.93 -1.93)"/><path d="M11.43 8.83c-.7 0-1.24.14-1.62.43-.38.3-.57.67-.57 1.12 0 .57.35.99 1.04 1.23a1.9 1.9 0 0 0-.93.63c-.2.27-.29.56-.29.9 0 .58.26 1.04.79 1.38.44.28 1 .42 1.7.42.69 0 1.25-.17 1.68-.51.43-.34.65-.8.65-1.35 0-.33-.1-.63-.33-.88a2.03 2.03 0 0 0-.92-.59c.32-.11.57-.27.74-.49.18-.21.27-.46.27-.74 0-.45-.2-.82-.58-1.12-.39-.29-.93-.43-1.63-.43zm-.08.56c.06 0 .1.01.16.03.28.04.5.17.66.37.2.26.26.61.2 1.06a.6.6 0 0 1-.3.4.7.7 0 0 1-.53.1l-.2-.03a.96.96 0 0 1-.61-.33c-.18-.24-.23-.57-.17-1v-.02a.65.65 0 0 1 .32-.45c.15-.1.31-.15.47-.13zm-.08 2.73h.2c.25 0 .47.09.65.27.18.18.28.56.28 1.15v.02c0 .21-.08.4-.24.56a.72.72 0 0 1-.55.22h-.06a.95.95 0 0 1-.7-.3c-.21-.18-.32-.6-.32-1.21 0-.2.08-.37.23-.5.14-.14.31-.21.5-.21z" style="line-height:.75" fill="url(#g)" transform="matrix(1.22776 0 0 1.22776 -1.93 -1.93)"/><path d="M6 8.85c-.24 0-.41.1-.54.27l-2.2 3.26c-.14.2-.2.32-.2.38 0 .2.07.38.22.54.15.15.31.23.5.23h2.3l-.09.73c-.02.2.04.39.2.55.14.13.3.2.49.2.2 0 .36-.07.5-.2.12-.13.18-.31.18-.54v-.74h.5c.17 0 .3-.08.4-.26.1-.17.13-.35.06-.54-.09-.22-.24-.33-.47-.33h-.49V9.7c0-.3-.06-.52-.19-.65a.63.63 0 0 0-.46-.2zm.08 1.06v2.49H4.5v-.04z" style="line-height:.75" fill="url(#h)" transform="matrix(1.22776 0 0 1.22776 -1.93 -1.93)"/></g></svg>