<svg xmlns="http://www.w3.org/2000/svg" xmlns:xlink="http://www.w3.org/1999/xlink" width="64" height="64" viewBox="0 0 16.933 16.933"><defs><linearGradient id="a"><stop offset="0" stop-color="#666"/><stop offset="1" stop-color="#333"/></linearGradient><linearGradient xlink:href="#a" id="c" x1="1.292" y1="6.269" x2="11.355" y2="6.269" gradientUnits="userSpaceOnUse" gradientTransform="matrix(1.39932 0 0 1.39932 -.381 -.306)"/><radialGradient xlink:href="#b" id="d" cx="3.551" cy="8.247" fx="3.551" fy="8.247" r="3.687" gradientTransform="matrix(3.36914 -.15941 .22523 4.76016 -9.272 -26.803)" gradientUnits="userSpaceOnUse"/><linearGradient id="b"><stop offset="0"/><stop offset="1" stop-color="#333"/></linearGradient></defs><rect width="14.082" height="14.835" x="1.426" y="1.049" ry="1.958" fill="url(#c)" stroke-width=".37" stroke="#000"/><path d="M8.506 3.792c-1.74-.206-6.416 9.336-4.9 10.14 1.948 1.033 7.976-3.379 7.812-3.254.017-.08-6.809 2.886-6.244.797.575-2.124 2.891-5.846 3.404-5.502 2.258 1.514 4.85 7.778 5 7.487.425.42-2.037-8.026-4.912-9.618a.435.435 0 0 0-.16-.05z" opacity=".137" fill="#fff"/><path d="M8.506 3.35c-1.74-.205-6.416 9.337-4.9 10.142 1.948 1.033 7.976-3.38 7.812-3.255.017-.08-6.809 2.887-6.244.798.575-2.125 2.891-5.847 3.404-5.503 2.258 1.515 4.85 7.778 5 7.487.425.42-2.037-8.025-4.912-9.618a.435.435 0 0 0-.16-.05z" fill="url(#d)"/></svg>