<?xml version="1.0" encoding="UTF-8" standalone="no"?><svg xmlns:dc="http://purl.org/dc/elements/1.1/" xmlns:cc="http://creativecommons.org/ns#" xmlns:rdf="http://www.w3.org/1999/02/22-rdf-syntax-ns#" xmlns="http://www.w3.org/2000/svg" xmlns:xlink="http://www.w3.org/1999/xlink" width="64pt" height="64pt" viewBox="0 0 64 64"><metadata><rdf:RDF><cc:Work><dc:format>image/svg+xml</dc:format><dc:type rdf:resource="http://purl.org/dc/dcmitype/StillImage"/><dc:title/></cc:Work></rdf:RDF></metadata><defs><filter id="a" width="1" height="1" x="0" y="0" filterUnits="objectBoundingBox"><feColorMatrix in="SourceGraphic" values="0 0 0 0 1 0 0 0 0 1 0 0 0 0 1 0 0 0 1 0"/></filter><clipPath id="b"><path d="M0 0h384v384H0z"/></clipPath><g id="h" clip-path="url(#b)"><path d="M54.25 315.99v34.37c0 4.39 2.79 8.09 6.7 9.47.25.1.5.17.74.23l.15.04a9.8 9.8 0 0 0 1.04.2 9.55 9.55 0 0 0 1.45.12h255.34a10.06 10.06 0 0 0 10.08-10.06v-6.87c0 5.57-4.5 10.06-10.08 10.06H64.32a10.1 10.1 0 0 1-3.38-.6v-13.74c1.06.38 2.2.59 3.38.59h255.36c5.58 0 10.07-4.49 10.07-10.06v-13.75c0 5.57-4.5 10.06-10.07 10.06H64.32A10.05 10.05 0 0 1 54.25 316zm10 16.93h6.25H64.26zm0 0"/></g><clipPath id="c"><path d="M0 0h384v384H0z"/></clipPath><mask id="g"><path fill-opacity=".3" d="M0 0h384v384H0z" filter="url(#d)"/></mask><filter id="d" width="1" height="1" x="0" y="0" filterUnits="objectBoundingBox"><feColorMatrix in="SourceGraphic" values="0 0 0 0 1 0 0 0 0 1 0 0 0 0 1 0 0 0 1 0"/></filter><linearGradient xlink:href="#e" id="f" x1="54.25" y1="178.25" x2="329.75" y2="178.25" gradientUnits="userSpaceOnUse" gradientTransform="matrix(.1751 0 0 -.1751 -1.56 65.62)"/><linearGradient id="e"><stop offset="0" stop-color="#4d4d4d"/><stop offset="1"/></linearGradient></defs><g transform="matrix(1 0 0 -1 0 64)"><path d="M9.7 56.68h44.72c.98 0 1.77-.8 1.77-1.76V4.27c0-.97-.8-1.76-1.77-1.76H9.71c-.98 0-1.77.79-1.77 1.76v50.65c0 .97.8 1.76 1.77 1.76zm0 0"/><path d="M9.7 61.5h44.71c.98 0 1.77-.8 1.77-1.77V9.09c0-.98-.8-1.77-1.77-1.77H9.71c-.98 0-1.77.8-1.77 1.77v50.64c0 .97.79 1.76 1.76 1.76zm0 0" fill="url(#f)"/><path d="M9.7 61.5c-.97 0-1.76-.8-1.76-1.77V4.27c0-.96.77-1.74 1.73-1.76h6.14V61.5zm0 0"/><path d="M56.18 9.09c0-.98-.78-1.77-1.76-1.77H9.71c-.21 0-.41.04-.6.1v-3.6c.19-.07.39-.1.6-.1h44.7c.99 0 1.77.78 1.77 1.75zm0 0" fill="#fff"/><use transform="matrix(.1751 0 0 -.1751 -1.56 65.62)" mask="url(#g)" xlink:href="#h" width="100%" height="100%" stroke-width="5.71"/></g><path d="M20.07 2.5v40.18l3.98-5.74 3.97 5.74V2.5z" fill="red"/></svg>