<?xml version="1.0" encoding="UTF-8" standalone="no"?><!--Created with Inkscape (http://www.inkscape.org/)--><svg xmlns:dc="http://purl.org/dc/elements/1.1/" xmlns:cc="http://creativecommons.org/ns#" xmlns:rdf="http://www.w3.org/1999/02/22-rdf-syntax-ns#" xmlns="http://www.w3.org/2000/svg" xmlns:xlink="http://www.w3.org/1999/xlink" width="64" height="64" version="1" viewBox="0 0 60 60"><defs><linearGradient id="i"><stop offset="0"/><stop offset="1" stop-color="#fff"/></linearGradient><linearGradient id="a"><stop offset="0" stop-color="#f9f9f9"/><stop offset=".43" stop-color="#666"/><stop offset=".59"/><stop offset=".8"/><stop offset="1"/></linearGradient><linearGradient id="c"><stop offset="0" stop-color="#5f4721"/><stop offset="1" stop-color="#dab475"/></linearGradient><linearGradient id="f"><stop offset="0" stop-color="#fff"/><stop offset="1" stop-color="#fff" stop-opacity="0"/></linearGradient><linearGradient id="d"><stop offset="0" stop-color="#252525"/><stop offset=".5" stop-color="#252525"/><stop offset=".75" stop-color="#252525"/><stop offset="1"/></linearGradient><linearGradient id="e"><stop offset="0" stop-color="#2d2d2d"/><stop offset=".5"/><stop offset="1"/></linearGradient><linearGradient id="g"><stop offset="0" stop-color="#fff"/><stop offset="1" stop-color="#252525" stop-opacity="0"/></linearGradient><radialGradient xlink:href="#b" id="p" gradientUnits="userSpaceOnUse" gradientTransform="matrix(.3534 0 0 .06746 41.16 26.16)" cx="9.69" cy="82.52" fx="54.62" fy="83.51" r="56.16"/><linearGradient id="b"><stop offset="0"/><stop offset="1" stop-opacity="0"/></linearGradient><radialGradient r="3.41" fy="120.64" fx="42.62" cy="120.64" cx="42.62" gradientTransform="matrix(-1.3506 1.15232 10.51575 12.20071 -1125.7 -1431.62)" gradientUnits="userSpaceOnUse" id="k" xlink:href="#c"/><radialGradient r="2.61" fy="58.09" fx="15.73" cy="58.09" cx="15.73" gradientTransform="matrix(-1.68284 1.2962 18.65521 24.49151 -991.14 -1384.08)" gradientUnits="userSpaceOnUse" id="l" xlink:href="#d"/><radialGradient r="47.75" fy="100.75" fx="89.45" cy="100.75" cx="89.45" gradientTransform="matrix(-.05817 .0435 .55912 .74452 6.28 -20.87)" gradientUnits="userSpaceOnUse" id="m" xlink:href="#e"/><radialGradient r="47.6" fy="7.46" fx="34.68" cy="7.46" cx="34.68" gradientTransform="matrix(-1.03308 .003 -.00008 -.01037 -38.15 18.83)" gradientUnits="userSpaceOnUse" id="n" xlink:href="#f"/><radialGradient r="1.72" fy="2.67" fx="49.01" cy="2.67" cx="49.01" gradientTransform="matrix(1.51245 0 0 .18397 -90.08 24.57)" gradientUnits="userSpaceOnUse" id="o" xlink:href="#g"/><linearGradient id="h"><stop offset="0" stop-color="#a0a0a0"/><stop offset="1" stop-color="#c8c8c8"/></linearGradient><linearGradient xlink:href="#i" id="j" x1="12.89" y1="8.65" x2="51.37" y2="57.31" gradientUnits="userSpaceOnUse"/></defs><metadata><rdf:RDF><cc:Work><dc:format>image/svg+xml</dc:format><dc:type rdf:resource="http://purl.org/dc/dcmitype/StillImage"/><cc:license rdf:resource="http://creativecommons.org/licenses/GPL/2.0/"/><dc:contributor><cc:Agent><dc:title>Oxygen team</dc:title></cc:Agent></dc:contributor><dc:title/></cc:Work><cc:License rdf:about="http://creativecommons.org/licenses/LGPL/2.1/"><cc:permits rdf:resource="http://web.resource.org/cc/Reproduction"/><cc:permits rdf:resource="http://web.resource.org/cc/Distribution"/><cc:requires rdf:resource="http://web.resource.org/cc/Notice"/><cc:permits rdf:resource="http://web.resource.org/cc/DerivativeWorks"/><cc:requires rdf:resource="http://web.resource.org/cc/ShareAlike"/><cc:requires rdf:resource="http://web.resource.org/cc/SourceCode"/></cc:License></rdf:RDF></metadata><path d="M12.45 8.26l-.06 49.29 38.98-.24L49.98 7.7z" fill="#333"/><path d="M12.89 8.65l-.13 47.76 22.93-.18 15-.56L49.33 8.1z" fill="url(#j)"/><path d="M17.43 8.65l-.13 47.76" opacity=".59" fill="#80b3ff" fill-rule="evenodd" stroke="#f6abab" stroke-width=".47" stroke-linecap="round" stroke-linejoin="round"/><path d="M12.87 14.67l36.6-.24zm.05 2.39l36.61-.2zm-.02 2.49l36.7-.24zm-.02 2.42l36.8-.2zm0 2.46l36.92-.25zm-.01 2.4l36.94-.23zm0 2.46l37.03-.23zm-.03 2.45l37.13-.26zm0 2.44l37.2-.23zm0 2.44l37.23-.25zm.01 2.4l37.33-.23zm0 2.48l37.38-.26zm-.02 2.35l37.5-.22zm-.01 2.42l37.55-.23zm-.02 2.43l37.61-.2zm0 2.42l37.7-.2zm0 2.55l37.77-.22z" opacity=".44" fill="#80b3ff" fill-rule="evenodd" stroke="#80b3ff" stroke-width=".23" stroke-linecap="round" stroke-linejoin="round"/><path d="M18.84 15.95h2.79m.4 0h2.6m.41 0h2.32m.38 0h1m.4 0h2.23m.44 0h5.86m.4 0h4.47m.4 0h1.36m-25.45 2.47h4.32m.5 0h2.08m.37 0h1.03m.42 0h1.9m.4 0h1.96m.36 0h3.08m.4 0h4.04m-20.87 2.5h3.67m.37 0h6.04m.38 0h2.92m.38 0h2.73m.4 0h2.34m.37 0l3.68.02m-23.28 2.53h5.09m.4 0h5.52m.37 0h2.17m.4 0h5.15m.35 0h3.53m.4 0h1.4m.4 0h.77m-25.95 2.52h1.9m.59 0h7.04m-9.53 12.62h4.33m.5 0h2.08m.37 0h1.02m.43 0h1.9m.4 0h1.96m.36 0h3.07m-16.42 5.03h3.67m.37 0h6.04m.38 0h2.92m10.35.07h5.99m-29.72-7.62h5.09m.4 0h5.52m.37 0h2.17m.4 0h5.15m-19.1-5.05h2.79m.4 0h2.6m.41 0h2.32m.38 0h1m.4 0h2.23m.44 0h5.86m.4 0h4.47m-23.7 2.53h4.71m.36 0h5m.37 0h1.96m.38 0h4.7m.37 0h5.13M18.84 46.19h4.4m.46 0h1.94m.46 0h.97m.3 0h1.91m.26 0h10.09m.47 0h2.7m.36 0h.68m-20 2.52h1.44m-6.45 0h4.59m2.21 0h3.34m.36 0h4.9m.38 0h3.31m.34 0h.7m.37 0h4.21m.43 0h2.21m-22.34 2.53h2.02m-7.03 0h4.59m2.88 0h2.85" fill="none" stroke="#ececec" stroke-width=".94"/><g stroke-width="1.99"><path d="M13.53 2.58c-.18-.24-1.55-.25-3.1.92-1.57 1.19-1.97 2.43-1.74 2.74l.46.6L14 3.2l-.46-.6M49.1 54.58l-11.21-9.77-.07-.08L42.6 41l.08.1z" fill-rule="evenodd"/><path d="M102.36 108.81L81.5 90.65l-.12-.16 9.01-7.05.17.22z" transform="translate(-2.85 -.74) scale(.50139)" fill="url(#k)" fill-rule="evenodd"/><path d="M86.59 87.9c-1.2.9-2.27.4-2.7.73a.54.54 0 0 0-.15.2l-57.8-76.36 4.69-3.53 57.9 76.5c-.2-.03-.37-.04-.5.07-.4.29-.25 1.48-1.44 2.38z" transform="translate(-2.85 -.74) scale(.50139)" fill="url(#l)"/><path d="M26.12 12.35l57.74 76.3c-.38.34-.12 1.27-.84 1.82-.77.58-1.36-.1-1.86.28L23.38 14.4z" transform="translate(-2.85 -.74) scale(.50139)" fill="url(#m)"/><path d="M42.25 42.04c-.38.27-.77-.06-.96.09L12.33 3.87l1.39-1.05L42.68 41.1l-.02.02c-.15.11-.03.64-.41.92z" fill="#131313"/><path d="M-24.8 18.86a49.17.48 0 0 1-48.8.48 49.17.48 0 0 1-49.54-.47 49.17.48 0 0 1 48-.5 49.17.48 0 0 1 50.3.47" transform="matrix(-.30238 -.39994 .4 -.30231 -2.85 -.74)" fill="url(#n)"/><path d="M44.28 50.4c.81 0 1.63-1.15 2.12-1.48l2.7 5.66z" fill-rule="evenodd"/><path transform="matrix(-.40011 .30216 .30296 .3995 -2.85 -.74)" d="M-18.57 24.6h5.22v1.14h-5.22z" fill="url(#o)"/></g><ellipse transform="matrix(.91266 .40873 -.31677 .9485 0 0)" cx="44.59" cy="31.72" rx="19.85" ry="3.79" opacity=".2" fill="url(#p)"/></svg>