<?xml version="1.0" encoding="UTF-8" standalone="no"?><!--Created with Inkscape (http://www.inkscape.org/)--><svg xmlns:dc="http://purl.org/dc/elements/1.1/" xmlns:cc="http://creativecommons.org/ns#" xmlns:rdf="http://www.w3.org/1999/02/22-rdf-syntax-ns#" xmlns="http://www.w3.org/2000/svg" xmlns:xlink="http://www.w3.org/1999/xlink" width="64" height="64" version="1" viewBox="0 0 60 60"><defs><linearGradient id="c"><stop offset="0" stop-color="#b6f3ff"/><stop offset="1" stop-color="#b6f3ff" stop-opacity="0"/></linearGradient><linearGradient y2="20" x2="60.13" y1="12" x1="60.13" gradientUnits="userSpaceOnUse" id="g"><stop offset="0" stop-color="#4e7bc0"/><stop offset=".5" stop-color="#92b2e2"/><stop offset="1" stop-color="#c9d9f0"/></linearGradient><linearGradient id="b"><stop offset="0" stop-color="#d4d4d4"/><stop offset="1" stop-color="#ebebeb"/></linearGradient><linearGradient xlink:href="#b" id="a" gradientUnits="userSpaceOnUse" gradientTransform="translate(62.93)" x1="215.1" y1="120.07" x2="215.1" y2="54.82"/><linearGradient id="d" y1="540.8" y2="531.8" gradientUnits="userSpaceOnUse" x2="0"><stop stop-color="#1e1f21"/><stop offset="1" stop-color="#242628"/></linearGradient><linearGradient id="e" y1="540.8" y2="531.8" gradientUnits="userSpaceOnUse" x2="0"><stop stop-color="#1e1f21"/><stop offset="1" stop-color="#242628"/></linearGradient><linearGradient id="l" y1="540.92" y2="522.55" x2="0" gradientUnits="userSpaceOnUse" gradientTransform="matrix(1.00504 0 0 1.14862 -380.98 -503.33)"><stop stop-color="#197cf1"/><stop offset="1" stop-color="#05a0eb"/></linearGradient><radialGradient xlink:href="#f" id="k" gradientUnits="userSpaceOnUse" gradientTransform="matrix(2.9704 0 0 .23462 -163.98 80.94)" cx="65.22" cy="-7.33" fx="65.22" fy="-7.33" r="28.78"/><linearGradient id="f"><stop offset="0" stop-color="#fff"/><stop offset="1" stop-color="#fff" stop-opacity="0"/></linearGradient><linearGradient xlink:href="#g" id="j" gradientUnits="userSpaceOnUse" gradientTransform="matrix(.42496 0 0 .10953 4.38 74.75)" x1="59.7" y1="16.75" x2="59.7" y2="137.35"/><linearGradient xlink:href="#h" id="i" x1="-65" y1="123" x2="-65" y2="8" gradientUnits="userSpaceOnUse" gradientTransform="matrix(.55008 0 0 .43855 46.94 69.12)"/><linearGradient id="h"><stop offset="0" stop-color="#4d4d4d"/><stop offset="1"/></linearGradient></defs><metadata><rdf:RDF><cc:Work><dc:format>image/svg+xml</dc:format><dc:type rdf:resource="http://purl.org/dc/dcmitype/StillImage"/><dc:title/></cc:Work></rdf:RDF></metadata><g transform="translate(0 -68)"><rect width="46.76" height="50.43" x="6.37" y="72.63" rx="4.65" ry="5.38" fill="url(#i)"/><rect ry=".33" rx=".3" y="79.22" x="10.34" height="9.12" width="38.82" fill="url(#j)"/><path d="M11.15 79.22c-.44 0-.8.37-.8.84v6.47c10.52-.73 20.36-3.68 30-7.31zm38 1.07l-10.1 4.26c4.22-.34 7.2-.23 10.1-.1z" opacity=".4" fill="url(#k)"/><path d="M43.23 79.78l.5.52h2.47l.5-.52zM46.9 79.99l-.5.52v2.56l.5.52zM43.04 79.98l.5.52v2.57l-.5.52zM43.23 87.6l.5-.53h2.47l.5.52zM46.9 87.4l-.5-.53V84.3l.5-.52zM43.04 87.4l.5-.53v-2.56l-.5-.52z" opacity=".6"/><path d="M43.23 83.71l.5-.52h2.47l.5.52z" opacity=".6" fill-opacity=".22"/><rect height="9.05" rx="0" y="108.94" x="13.57" width="9.05" fill="#a00"/><rect height="21.11" rx="0" y="96.88" x="37.69" width="8.04" fill="url(#l)"/><path d="M39.7 111.96v1h4.02v-1zm0 2v1.01h4.02v-1z" fill="#fff"/><g transform="matrix(1.00504 0 0 1.00504 -380.98 -425.54)" fill="#a00" stroke-width=".93"><rect height="9" rx="0" y="519.8" x="392.57" width="9"/><rect height="9" rx="0" y="519.8" x="404.57" width="9"/></g><rect height="9.05" rx="0" y="108.94" x="25.63" width="9.05" fill="#a00"/><g transform="matrix(1.00504 0 0 1.00504 -380.98 -425.54)" fill="#fff" stroke-width=".93"><path d="M396.57 521.8v2h-2v1h2v2h1v-2h2v-1h-2v-2z"/><rect transform="rotate(90)" height="5" rx="0" y="-411.57" x="523.8" width="1"/><path d="M397.07 533.8a.5.5 0 0 0-.5.5.5.5 0 0 0 .5.5.5.5 0 0 0 .5-.5.5.5 0 0 0-.5-.5m-2.5 2v1h5v-1zm2.5 2a.5.5 0 0 0-.5.5.5.5 0 0 0 .5.5.5.5 0 0 0 .5-.5.5.5 0 0 0-.5-.5M407.28 533.8l-.71.7 1.8 1.8-1.8 1.8.7.7 1.8-1.8 1.8 1.8.7-.7-1.8-1.8 1.8-1.8-.7-.7-1.8 1.8z"/></g></g></svg>