<svg xmlns="http://www.w3.org/2000/svg" xmlns:xlink="http://www.w3.org/1999/xlink" width="64" height="64" overflow="visible" enable-background="new 0 0 128 128"><defs><linearGradient id="f"><stop offset="0"/><stop offset="1" stop-color="#333"/></linearGradient><linearGradient id="e"><stop offset="0" stop-color="#fff"/><stop offset="1" stop-color="#fff" stop-opacity=".56"/></linearGradient><linearGradient id="c"><stop offset="0" stop-color="#696969" stop-opacity=".15"/><stop offset=".6" stop-color="#919191"/><stop offset="1" stop-color="#bdbdbd" stop-opacity=".39"/></linearGradient><linearGradient id="a"><stop offset="0" stop-color="#b3b3b3" stop-opacity=".15"/><stop offset=".67" stop-color="#919191"/><stop offset="1" stop-color="#bdbdbd" stop-opacity=".39"/></linearGradient><linearGradient id="d"><stop offset="0" stop-color="#696969" stop-opacity=".15"/><stop offset=".67" stop-color="#919191"/><stop offset="1" stop-color="#bdbdbd" stop-opacity=".39"/></linearGradient><linearGradient id="b"><stop offset="0" stop-color="#696969" stop-opacity=".15"/><stop offset=".5" stop-color="#919191"/><stop offset="1" stop-color="#bdbdbd" stop-opacity=".39"/></linearGradient><filter id="t"><feGaussianBlur stdDeviation=".13"/></filter><linearGradient xlink:href="#a" id="s" x1="25.99" y1="103.69" x2="109.88" y2="103.69" gradientUnits="userSpaceOnUse"/><linearGradient xlink:href="#b" id="u" x1="25.99" y1="101.69" x2="109.88" y2="101.69" gradientUnits="userSpaceOnUse"/><linearGradient xlink:href="#b" id="v" x1="50.26" y1="98.03" x2="109.88" y2="99.69" gradientUnits="userSpaceOnUse"/><linearGradient xlink:href="#b" id="w" x1="35.85" y1="105.32" x2="109.88" y2="105.69" gradientUnits="userSpaceOnUse"/><linearGradient xlink:href="#c" id="x" x1="25.99" y1="107.69" x2="109.88" y2="107.69" gradientUnits="userSpaceOnUse"/><linearGradient xlink:href="#b" id="y" x1="44.89" y1="108.76" x2="90.47" y2="109.69" gradientUnits="userSpaceOnUse"/><linearGradient xlink:href="#d" id="z" x1="25.99" y1="111.69" x2="109.88" y2="111.69" gradientUnits="userSpaceOnUse"/><linearGradient xlink:href="#b" id="A" x1="66.16" y1="113.69" x2="109.88" y2="113.69" gradientUnits="userSpaceOnUse"/><linearGradient xlink:href="#e" id="r" x1="20" y1="25" x2="99.5" y2="25" gradientUnits="userSpaceOnUse"/><radialGradient gradientUnits="userSpaceOnUse" gradientTransform="matrix(.9963 .0481 .0026 .8585 3.06 -24.93)" r="193.41" cy="30.88" cx="7.29" id="o"><stop offset=".49" stop-color="#fff"/><stop offset=".91" stop-color="#d3d7cf"/></radialGradient><radialGradient gradientUnits="userSpaceOnUse" gradientTransform="matrix(.9963 .0481 .0026 .8585 3.06 -24.93)" r="185.81" cy="29.64" cx="9.08" id="p"><stop offset=".49" stop-color="#fff"/><stop offset=".91" stop-color="#d3d7cf"/></radialGradient><radialGradient gradientUnits="userSpaceOnUse" gradientTransform="matrix(.9963 .0481 .0026 .8585 3.06 -24.93)" r="192.94" cy="23.81" cx="4.64" id="q"><stop offset=".49" stop-color="#fff"/><stop offset=".91" stop-color="#d3d7cf"/></radialGradient><linearGradient id="k" gradientUnits="userSpaceOnUse" x1="70.73" y1="116.31" x2="111.53" y2="90.54" gradientTransform="matrix(.50414 0 0 .50414 .45 -.26)"><stop offset=".31"/><stop offset="1" stop-color="#666"/></linearGradient><linearGradient id="j" gradientUnits="userSpaceOnUse" x1="17.64" y1="56.16" x2="24.73" y2="55.17" gradientTransform="matrix(.50414 0 0 .50414 .45 -.26)"><stop offset="0"/><stop offset=".32" stop-color="#fff"/><stop offset=".6" stop-color="#333"/></linearGradient><linearGradient id="i" gradientUnits="userSpaceOnUse" x1="8.97" y1="68.41" x2="19.36" y2="67.09" gradientTransform="matrix(.50414 0 0 .50414 .45 -.26)"><stop offset=".31"/><stop offset=".59"/><stop offset=".86" stop-color="#333"/><stop offset=".92" stop-color="#4d4d4d"/><stop offset=".96" stop-color="#333"/><stop offset="1"/></linearGradient><linearGradient id="g" gradientUnits="userSpaceOnUse" x1="66.36" y1="118.28" x2="66.36" y2="99.06" gradientTransform="matrix(.50414 0 0 .50414 .45 -.26)"><stop offset="0" stop-color="#4d4d4d"/><stop offset="1" stop-color="#b3b3b3"/></linearGradient><linearGradient xlink:href="#f" id="h" x1="56.91" y1="46.71" x2="6.42" y2="4.93" gradientUnits="userSpaceOnUse"/><radialGradient gradientUnits="userSpaceOnUse" gradientTransform="matrix(.9963 .0481 .0026 .8585 3.06 -24.93)" r="193.41" cy="30.88" cx="7.29" id="l"><stop offset=".49" stop-color="#fff"/><stop offset=".91" stop-color="#d3d7cf"/></radialGradient><radialGradient gradientUnits="userSpaceOnUse" gradientTransform="matrix(.9963 .0481 .0026 .8585 3.06 -24.93)" r="185.81" cy="29.64" cx="9.08" id="m"><stop offset=".49" stop-color="#fff"/><stop offset=".91" stop-color="#d3d7cf"/></radialGradient><radialGradient gradientUnits="userSpaceOnUse" gradientTransform="matrix(.9963 .0481 .0026 .8585 3.06 -24.93)" r="192.94" cy="23.81" cx="4.64" id="n"><stop offset=".49" stop-color="#fff"/><stop offset=".91" stop-color="#d3d7cf"/></radialGradient></defs><path d="M56.9 46.71s.27 7.65-.85 9.86l-44.27 4.89c-1.71.26-.83-10.28 1.13-10.45z" overflow="visible" fill="url(#g)"/><path d="M58.65 45.36L50.8 2.44c-.12-.88-.57-1.01-1.64-.91L8.05 4.7l-.63.2-.58-.01-1.02.09C5.06 5.05 11.06 62 11.06 62l.72-.54c-1.71.26-.83-10.28 1.13-10.45l43.85-4.28.69-.07c1.07-.2 1.32-.42 1.2-1.3z" overflow="visible" fill="url(#h)"/><path d="M11.78 61.46c-1.71.26-.83-10.28 1.13-10.45L6.84 4.89l-1.02.09c-.76.07-1.3 1.4-1.47 2.24-.16.85-.12 5.7-.12 5.7L9.75 59.8c.24 1.06.7 2.87 1.8 2.7l1.79-.2.51-1.06z" overflow="visible" fill="url(#i)"/><path d="M12.9 51l1.79-.17L8.23 4.68l-.18.02-.63.2h-.58l-.42.03 6.31 46.12a.6.6 0 0 1 .18-.04z" overflow="visible" opacity=".5" fill="url(#j)"/><path d="M57.39 56.2l-.43-9.54-.05.05s.26 7.65-.86 9.85l-44.27 4.9.16.99 43.76-4.46c1.07-.1 1.8-.9 1.69-1.78z" fill="url(#k)"/><g overflow="visible" opacity=".28"><path d="M46.7 58.38c-.46-.96-.66-1.08-2-.92l-6.74.82c-1.1.13-1.36.3-1.54 1.29l-.9 4.95c-.4 2.13-.54 3.4-.48 3.9.08.55.34.8 1.42.77l1.49-.03c.34.2.44.93.07 1.15-1.18.04-2.56.2-4.66.39-1.46.16-3.04.44-4.23.61-.29-.15-.47-.87-.23-1.13l1.44-.3c1.04-.21 1.95-.82 2.35-2.54.52-2.18 1.37-5.28 2.55-10.57l2.84-12.65c.4-1.69.55-2.56.32-3.25a4.94 4.94 0 0 0 2.05-2c.26-.03.58.02.72.32.85 1.87 1.84 3.83 2.79 5.7l8.79 17.48c1.9 3.81 2.6 4.44 4.6 4.45h1.26c.36.2.38.95.18 1.16-1.9.12-3.51.25-5.57.48-2.19.25-3.9.54-5.21.73-.39-.14-.54-.88-.26-1.14l1.3-.3c.94-.2 1.54-.54 1.47-1a9.83 9.83 0 0 0-.94-2.38zm-9.4-2.96c-.21 1.08-.16 1.12 1.08.97l5.48-.67c1.3-.16 1.36-.35.78-1.52l-3.44-7.04a31.25 31.25 0 0 0-1.4-2.68l-.1.01c-.1.24-.39 1.37-.69 2.77z" fill="url(#l)" transform="matrix(.50414 0 0 .50414 .45 .62)"/><path d="M57.07 41.77c-.4-2.65-.49-2.91-1.96-3.54l-.5-.2c-.24-.1-.33-.73-.13-.9.98-.54 3.05-1.41 4.63-2.54.18-.02.38.04.5.21.14 1.58.36 3.6.67 5.59l1.31 8.55c.12.78.33.94.6.9 1.1-.83 2.8-1.88 5.05-2.16 5.27-.67 9.5 2.84 10.33 7.94 1.02 6.2-2.8 11.09-9.07 11.79-1.72.2-3.08.01-4.05-.16-1.02-.22-1.66-.43-2.03-.4-.37.05-.69.46-.87.82-.04.05-.08.05-.18.06a.53.53 0 0 1-.5-.22c-.05-.66-.14-1.55-.5-3.97zm6.36 19.11a6.72 6.72 0 0 0 1.78 3.9c.94.9 2.28 1.32 3.77 1.15 4.4-.5 5.53-4.44 4.89-8.45-.78-4.77-3.82-8.14-8.4-7.58a5.91 5.91 0 0 0-3 1.12c-.4.38-.42.9-.15 2.68z" fill="url(#m)" transform="matrix(.50414 0 0 .50414 .45 .62)"/><path d="M95.2 44.97c.44.28.9.98 1.05 1.77.15.84-.17 1.79-.75 1.86a.9.9 0 0 1-.73-.24c-1.27-1.13-3.25-2.12-5.2-1.88-3.31.42-6.1 3.36-5.26 8.29.61 3.64 3.93 7.73 9.06 7.14a5.55 5.55 0 0 0 4.86-3.46c.37-.14.87.14 1 .57-1.03 3.7-4.43 5.44-7.23 5.76a9.86 9.86 0 0 1-6.97-1.68 9.94 9.94 0 0 1-3.91-6.62c-.84-5.02 1.85-10.78 9.7-11.77 1.1-.13 3-.14 4.38.26z" fill="url(#n)" transform="matrix(.50414 0 0 .50414 .45 .62)"/></g><g overflow="visible"><path d="M46.7 58.38c-.46-.96-.66-1.08-2-.92l-6.74.82c-1.1.13-1.36.3-1.54 1.29l-.9 4.95c-.4 2.13-.54 3.4-.48 3.9.08.55.34.8 1.42.77l1.49-.03c.34.2.44.93.07 1.15-1.18.04-2.56.2-4.66.39-1.46.16-3.04.44-4.23.61-.29-.15-.47-.87-.23-1.13l1.44-.3c1.04-.21 1.95-.82 2.35-2.54.52-2.18 1.37-5.28 2.55-10.57l2.84-12.65c.4-1.69.55-2.56.32-3.25a4.94 4.94 0 0 0 2.05-2c.26-.03.58.02.72.32.85 1.87 1.84 3.83 2.79 5.7l8.79 17.48c1.9 3.81 2.6 4.44 4.6 4.45h1.26c.36.2.38.95.18 1.16-1.9.12-3.51.25-5.57.48-2.19.25-3.9.54-5.21.73-.39-.14-.54-.88-.26-1.14l1.3-.3c.94-.2 1.54-.54 1.47-1a9.83 9.83 0 0 0-.94-2.38zm-9.4-2.96c-.21 1.08-.16 1.12 1.08.97l5.48-.67c1.3-.16 1.36-.35.78-1.52l-3.44-7.04a31.25 31.25 0 0 0-1.4-2.68l-.1.01c-.1.24-.39 1.37-.69 2.77z" fill="url(#o)" transform="matrix(.50414 0 0 .50414 .45 -.26)"/><path d="M57.07 41.77c-.4-2.65-.49-2.91-1.96-3.54l-.5-.2c-.24-.1-.33-.73-.13-.9.98-.54 3.05-1.41 4.63-2.54.18-.02.38.04.5.21.14 1.58.36 3.6.67 5.59l1.31 8.55c.12.78.33.94.6.9 1.1-.83 2.8-1.88 5.05-2.16 5.27-.67 9.5 2.84 10.33 7.94 1.02 6.2-2.8 11.09-9.07 11.79-1.72.2-3.08.01-4.05-.16-1.02-.22-1.66-.43-2.03-.4-.37.05-.69.46-.87.82-.04.05-.08.05-.18.06a.53.53 0 0 1-.5-.22c-.05-.66-.14-1.55-.5-3.97zm6.36 19.11a6.72 6.72 0 0 0 1.78 3.9c.94.9 2.28 1.32 3.77 1.15 4.4-.5 5.53-4.44 4.89-8.45-.78-4.77-3.82-8.14-8.4-7.58a5.91 5.91 0 0 0-3 1.12c-.4.38-.42.9-.15 2.68z" fill="url(#p)" transform="matrix(.50414 0 0 .50414 .45 -.26)"/><path d="M95.2 44.97c.44.28.9.98 1.05 1.77.15.84-.17 1.79-.75 1.86a.9.9 0 0 1-.73-.24c-1.27-1.13-3.25-2.12-5.2-1.88-3.31.42-6.1 3.36-5.26 8.29.61 3.64 3.93 7.73 9.06 7.14a5.55 5.55 0 0 0 4.86-3.46c.37-.14.87.14 1 .57-1.03 3.7-4.43 5.44-7.23 5.76a9.86 9.86 0 0 1-6.97-1.68 9.94 9.94 0 0 1-3.91-6.62c-.84-5.02 1.85-10.78 9.7-11.77 1.1-.13 3-.14 4.38.26z" fill="url(#q)" transform="matrix(.50414 0 0 .50414 .45 -.26)"/></g><path overflow="visible" opacity=".5" fill="none" stroke="url(#r)" stroke-width=".5" stroke-linecap="round" d="M50.36 11.08l-39.58 3.53"/><path overflow="visible" fill="none" stroke="#fff" stroke-width=".5" stroke-linecap="round" d="M50.36 10.58L10.78 14.1"/><path transform="matrix(.50414 0 0 .50414 .45 -.26)" fill="none" stroke="url(#s)" filter="url(#t)" d="M26.49 108.04l82.89-8.71"/><path transform="matrix(.50414 0 0 .50414 .45 -.26)" fill="none" stroke="url(#u)" filter="url(#t)" d="M26.49 106.04l82.89-8.71"/><path transform="matrix(.50414 0 0 .50414 .45 -.26)" fill="none" stroke="url(#v)" filter="url(#t)" d="M26.49 104.04l82.89-8.71"/><path transform="matrix(.50414 0 0 .50414 .45 -.26)" fill="none" stroke="url(#w)" filter="url(#t)" d="M26.49 110.04l82.89-8.71"/><path transform="matrix(.50414 0 0 .50414 .45 -.26)" fill="none" stroke="url(#x)" filter="url(#t)" d="M26.49 112.04l82.89-8.71"/><path transform="matrix(.50414 0 0 .50414 .45 -.26)" fill="none" stroke="url(#y)" filter="url(#t)" d="M26.49 114.04l82.89-8.71"/><path transform="matrix(.50414 0 0 .50414 .45 -.26)" fill="none" stroke="url(#z)" filter="url(#t)" d="M26.49 116.04l82.89-8.71"/><path transform="matrix(.50414 0 0 .50414 .45 -.26)" fill="#d45500" stroke="url(#A)" stroke-linecap="round" filter="url(#t)" d="M26.49 118.04l82.89-8.71"/></svg>