<svg xmlns="http://www.w3.org/2000/svg" xmlns:xlink="http://www.w3.org/1999/xlink" width="64pt" height="64pt" viewBox="0 0 64 64"><defs><linearGradient xlink:href="#c" id="e" x1="54.25" y1="178.25" x2="329.75" y2="178.25" gradientUnits="userSpaceOnUse" gradientTransform="matrix(.1751 0 0 -.1751 -1.56 65.62)"/><linearGradient id="c"><stop offset="0" stop-color="#4d4d4d"/><stop offset="1"/></linearGradient><linearGradient id="d"><stop offset="0" stop-color="#333"/><stop offset="1"/></linearGradient><clipPath id="a"><path d="M0 0h384v384H0z"/></clipPath><filter id="b" width="1" height="1" x="0" y="0" filterUnits="objectBoundingBox"><feColorMatrix in="SourceGraphic" values="0 0 0 0 1 0 0 0 0 1 0 0 0 0 1 0 0 0 1 0"/></filter><mask id="f"><path fill-opacity=".3" d="M0 0h384v384H0z" filter="url(#b)"/></mask><g id="g" clip-path="url(#a)"><path d="M54.25 315.99v34.37c0 4.39 2.79 8.09 6.7 9.47.25.1.5.17.74.23l.15.04a9.8 9.8 0 001.04.2 9.55 9.55 0 001.45.12h255.34a10.06 10.06 0 0010.08-10.06v-6.87c0 5.57-4.5 10.06-10.08 10.06H64.32a10.1 10.1 0 01-3.38-.6v-13.74c1.06.38 2.2.59 3.38.59h255.36c5.58 0 10.07-4.49 10.07-10.06v-13.75c0 5.57-4.5 10.06-10.07 10.06H64.32A10.05 10.05 0 0154.25 316zm10 16.93h6.25-6.24zm0 0"/></g></defs><g transform="translate(0 -.01)"><path d="M9.7 56.68h44.72c.98 0 1.77-.8 1.77-1.76V4.27c0-.97-.8-1.76-1.77-1.76H9.71c-.98 0-1.77.79-1.77 1.76v50.65c0 .97.8 1.76 1.77 1.76zm0 0"/><path d="M9.7 61.5h44.71c.98 0 1.77-.8 1.77-1.77V9.09c0-.98-.8-1.77-1.77-1.77H9.71c-.98 0-1.77.8-1.77 1.77v50.64c0 .97.79 1.76 1.76 1.76zm0 0" fill="url(#e)"/><path d="M9.7 61.5c-.97 0-1.76-.8-1.76-1.77V4.27c0-.96.77-1.74 1.73-1.76h6.14V61.5zm0 0"/><path d="M56.18 9.09c0-.98-.78-1.77-1.76-1.77H9.71c-.21 0-.41.04-.6.1v-3.6c.19-.07.39-.1.6-.1h44.7c.99 0 1.77.78 1.77 1.75zm0 0" fill="#fff"/><use transform="matrix(.1751 0 0 -.1751 -1.56 65.62)" mask="url(#f)" xlink:href="#g" width="100%" height="100%" stroke-width="5.71"/></g><path style="line-height:1.25" d="M35.503 18.083a14.82 14.82 0 00-5.54 1.048 13.512 13.512 0 00-7.615 7.497 13.963 13.963 0 00-1.049 5.368c0 1.956.34 3.782 1.03 5.491a13.574 13.574 0 007.54 7.417 14.34 14.34 0 0010.033.21 14.623 14.623 0 004.233-2.283l-1.395-1.728a12.174 12.174 0 01-3.547 1.931 12.23 12.23 0 01-8.484-.173 11.04 11.04 0 01-3.764-2.443 11.328 11.328 0 01-2.585-3.794 12.038 12.038 0 01-.883-4.616c0-1.993.457-3.837 1.358-5.54a11.15 11.15 0 013.813-4.153 11.39 11.39 0 013.24-1.48 12.78 12.78 0 013.652-.519c1.814 0 3.492.364 5.029 1.086a10.637 10.637 0 013.936 3.097 8.595 8.595 0 011.469 2.697c.333.968.493 2.005.493 3.11 0 1.826-.426 3.319-1.283 4.473a5.152 5.152 0 01-3.53 2.06V25.438H39.44v2.03a5.862 5.862 0 00-4.923-2.344 5.442 5.442 0 00-4.32 1.937c-1.11 1.296-1.665 2.974-1.665 5.035 0 2.067.549 3.739 1.653 5.034a5.479 5.479 0 004.332 1.913c1.067 0 1.993-.185 2.789-.555a5.942 5.942 0 002.134-1.765v2.388c2.894-.062 5.159-.876 6.8-2.45 1.641-1.567 2.462-3.708 2.462-6.422a11.44 11.44 0 00-2.382-6.985 12.883 12.883 0 00-4.726-3.825 13.864 13.864 0 00-6.084-1.345zm-.413 9.292c1.258 0 2.258.432 3.004 1.283.74.845 1.111 1.993 1.111 3.437 0 1.468-.364 2.622-1.098 3.467a3.72 3.72 0 01-2.987 1.271c-1.277 0-2.283-.42-3.023-1.252-.728-.852-1.092-2.012-1.092-3.486 0-1.456.364-2.604 1.098-3.456a3.776 3.776 0 012.987-1.264z" font-weight="400" font-size="46.83" letter-spacing="0" word-spacing="0" font-family="sans-serif" fill="#fff"/><path style="line-height:1.25" d="M35.46 20.254c-1.777 0-3.456.321-5.047.963a12.31 12.31 0 00-6.942 6.824 12.723 12.723 0 00-.962 4.893c0 1.777.314 3.443.944 4.998a12.365 12.365 0 006.873 6.756 13.068 13.068 0 009.144.197 13.327 13.327 0 003.85-2.085l-1.27-1.567a11.094 11.094 0 01-3.228 1.746 11.143 11.143 0 01-7.73-.155 9.995 9.995 0 01-3.431-2.227 10.323 10.323 0 01-2.357-3.455 10.97 10.97 0 01-.802-4.208c0-1.814.413-3.499 1.234-5.047a10.162 10.162 0 013.473-3.782 10.424 10.424 0 012.95-1.358 11.94 11.94 0 013.332-.463c1.653 0 3.183.327 4.584.988a9.687 9.687 0 013.585 2.82 7.836 7.836 0 011.339 2.455c.308.882.456 1.826.456 2.838 0 1.666-.395 3.023-1.172 4.072a4.695 4.695 0 01-3.22 1.882V26.961h-2.018v1.851a5.343 5.343 0 00-4.486-2.135c-1.604 0-2.919.587-3.937 1.765-1.018 1.172-1.524 2.703-1.524 4.584 0 1.882.506 3.412 1.512 4.585a4.998 4.998 0 003.949 1.752c.969 0 1.814-.173 2.542-.512a5.411 5.411 0 001.944-1.604v2.172c2.634-.062 4.701-.803 6.194-2.228 1.5-1.431 2.246-3.387 2.246-5.861 0-1.154-.185-2.27-.567-3.357a10.427 10.427 0 00-1.605-3.005 11.742 11.742 0 00-4.306-3.486 12.636 12.636 0 00-5.547-1.228zm-.377 8.466c1.148 0 2.061.395 2.734 1.172.678.771 1.018 1.814 1.018 3.134 0 1.333-.333 2.388-1 3.16a3.394 3.394 0 01-2.727 1.16 3.468 3.468 0 01-2.752-1.148c-.666-.771-1-1.827-1-3.172 0-1.326.334-2.375 1-3.146a3.443 3.443 0 012.727-1.16z" font-weight="400" font-size="46.83" letter-spacing="0" word-spacing="0" font-family="sans-serif" opacity=".27" fill="#666"/><path style="line-height:1.25" d="M35.46 19.317c-1.777 0-3.456.32-5.047.962a12.31 12.31 0 00-6.942 6.83 12.723 12.723 0 00-.962 4.893c0 1.777.314 3.443.944 4.998a12.365 12.365 0 006.873 6.756 13.068 13.068 0 009.144.198 13.327 13.327 0 003.85-2.086l-1.27-1.567a11.094 11.094 0 01-3.228 1.746 11.143 11.143 0 01-7.73-.154 9.995 9.995 0 01-3.431-2.228 10.323 10.323 0 01-2.357-3.455 10.97 10.97 0 01-.802-4.208c0-1.814.413-3.498 1.234-5.053a10.162 10.162 0 013.473-3.782 10.776 10.776 0 012.95-1.358 11.94 11.94 0 013.332-.463c1.653 0 3.183.334 4.584.988a9.687 9.687 0 013.585 2.826 7.836 7.836 0 011.345 2.45c.308.881.456 1.825.456 2.837 0 1.666-.394 3.024-1.172 4.073a4.695 4.695 0 01-3.22 1.875V26.017H39.05v1.851a5.343 5.343 0 00-4.486-2.128c-1.604 0-2.918.586-3.936 1.758-1.018 1.179-1.524 2.709-1.524 4.59 0 1.882.506 3.406 1.511 4.585a4.998 4.998 0 003.95 1.752c.968 0 1.813-.173 2.541-.512a5.411 5.411 0 001.944-1.604v2.172c2.634-.062 4.701-.802 6.194-2.234 1.5-1.425 2.246-3.381 2.246-5.855a9.99 9.99 0 00-.567-3.357 10.427 10.427 0 00-1.605-3.005 11.742 11.742 0 00-4.306-3.486 12.636 12.636 0 00-5.547-1.227zm-.377 8.465c1.148 0 2.061.389 2.734 1.172.678.771 1.018 1.814 1.018 3.135 0 1.332-.333 2.387-1 3.159a3.394 3.394 0 01-2.727 1.153 3.468 3.468 0 01-2.752-1.141c-.666-.771-1-1.826-1-3.171 0-1.327.334-2.376 1-3.147a3.443 3.443 0 012.727-1.16z" font-weight="400" font-size="46.83" letter-spacing="0" word-spacing="0" font-family="sans-serif" fill="#fff"/><path style="line-height:1.25" d="M35.46 18.379c-1.777 0-3.456.32-5.047.956a12.31 12.31 0 00-6.942 6.83 12.723 12.723 0 00-.962 4.9c0 1.776.314 3.442.944 4.997a12.365 12.365 0 006.873 6.756 13.068 13.068 0 009.144.198 13.327 13.327 0 003.85-2.092l-1.27-1.567a11.094 11.094 0 01-3.228 1.752 11.143 11.143 0 01-7.73-.154 9.995 9.995 0 01-3.431-2.227 10.323 10.323 0 01-2.357-3.456 10.97 10.97 0 01-.802-4.208c0-1.814.413-3.498 1.234-5.053a10.162 10.162 0 013.473-3.782 10.776 10.776 0 012.95-1.358 11.94 11.94 0 013.332-.462c1.653 0 3.183.333 4.584.987a9.687 9.687 0 013.585 2.826 7.836 7.836 0 011.339 2.455c.308.883.456 1.827.456 2.839 0 1.66-.395 3.023-1.172 4.072a4.695 4.695 0 01-3.22 1.876V25.079h-2.018v1.851a5.343 5.343 0 00-4.486-2.128c-1.604 0-2.919.586-3.937 1.758-1.018 1.172-1.524 2.709-1.524 4.59 0 1.883.506 3.407 1.512 4.585a4.998 4.998 0 003.949 1.746c.969 0 1.814-.166 2.542-.506a5.411 5.411 0 001.944-1.604v2.166c2.634-.056 4.701-.796 6.194-2.222 1.5-1.431 2.246-3.387 2.246-5.861a9.99 9.99 0 00-.567-3.357 10.427 10.427 0 00-1.605-3.004 11.742 11.742 0 00-4.306-3.486 12.636 12.636 0 00-5.547-1.234zm-.377 8.465c1.148 0 2.061.389 2.734 1.172.678.772 1.018 1.814 1.018 3.135 0 1.332-.333 2.388-1 3.159a3.394 3.394 0 01-2.727 1.154 3.468 3.468 0 01-2.752-1.142c-.666-.771-1-1.826-1-3.171 0-1.327.334-2.382 1-3.147a3.443 3.443 0 012.727-1.16z" font-weight="400" font-size="46.83" letter-spacing="0" word-spacing="0" font-family="sans-serif" opacity=".27" fill="#ccc"/></svg>