<svg xmlns="http://www.w3.org/2000/svg" xmlns:xlink="http://www.w3.org/1999/xlink" width="64" height="64"><defs><linearGradient id="a"><stop stop-color="#00c8f1" stop-opacity=".88" offset="0"/><stop stop-color="#0d76ff" stop-opacity=".79" offset=".36"/><stop stop-color="#d00bf6" stop-opacity="0" offset="1"/></linearGradient><linearGradient gradientTransform="translate(.42 -1.34)" xlink:href="#b" id="e" gradientUnits="userSpaceOnUse" x1="-6.47" y1="68.75" x2="53.98" y2="26.69"/><linearGradient id="b"><stop offset="0" stop-color="#ccc"/><stop offset="1" stop-color="#ccc" stop-opacity="0"/></linearGradient><filter id="f" x="-.06" width="1.12" y="-.06" height="1.12" color-interpolation-filters="sRGB"><feGaussianBlur stdDeviation="1.17"/></filter><linearGradient xlink:href="#c" id="d" x1="15.88" y1="-7.25" x2="52.62" y2="-43.3" gradientUnits="userSpaceOnUse" gradientTransform="matrix(1.20478 0 0 1.20478 -6.05 63.3)"/><linearGradient id="c"><stop offset="0" stop-color="#2256fe"/><stop offset="1" stop-color="#00c8f1" stop-opacity=".99"/></linearGradient></defs><path d="M32.5 1.3A30.67 30.67 0 0 0 1.85 31.98c0 5.48 1.46 10.63 3.99 15.08a30.62 30.71 0 0 0 .89 1.56 30.62 30.71 0 0 0 1.78 2.5 30.62 30.71 0 0 0 2.02 2.3 30.62 30.71 0 0 0 2.24 2.1 30.62 30.71 0 0 0 2.43 1.85 30.62 30.71 0 0 0 2.61 1.6 30.62 30.71 0 0 0 2.76 1.34 30.62 30.71 0 0 0 2.87 1.05 30.62 30.71 0 0 0 2.97.77 30.62 30.71 0 0 0 3.02.45 30.62 30.71 0 0 0 3.06.16 30.62 30.71 0 0 0 2.17-.08 30.62 30.71 0 0 0 3.03-.37 30.62 30.71 0 0 0 2.99-.67 30.62 30.71 0 0 0 2.9-.97 30.62 30.71 0 0 0 2.8-1.25 30.62 30.71 0 0 0 2.65-1.53 30.62 30.71 0 0 0 2.5-1.79 30.62 30.71 0 0 0 2.29-2.02 30.62 30.71 0 0 0 2.09-2.25 30.62 30.71 0 0 0 1.16-1.53 30.62 30.71 0 0 0 .02-.02 30.42 30.42 0 0 0 6.07-18.28A30.67 30.67 0 0 0 32.5 1.3zm14.02 8.8c.09 0 .2.07.33.22-.13-.15-.24-.23-.33-.23zm-.52.12zm-4.07 3.22zm6.86 2.64zm-14.08 2.5zm-2.08 1.92zm-3.11.6zm-4.08.53zm27.14 2.23zm.18.17zm-3.23.91c-1.03.08-2.08 0-3.07.08.98-.07 2.04 0 3.07-.08zm-29.72 1.7a9.45 9.45 0 0 0 0 0zm-5.34 2.28zm-2.18 2zm-4 1.56zM7.97 45.5z" fill="#215afe"/><path d="M32.5 3.05A28.93 28.93 0 0 0 7.35 46.2a28.88 28.97 0 0 0 .84 1.47 28.88 28.97 0 0 0 1.68 2.35 28.88 28.97 0 0 0 1.9 2.18 28.88 28.97 0 0 0 2.12 1.97 28.88 28.97 0 0 0 2.3 1.75 28.88 28.97 0 0 0 2.46 1.52 28.88 28.97 0 0 0 2.6 1.26 28.88 28.97 0 0 0 2.7.99 28.88 28.97 0 0 0 2.8.72 28.88 28.97 0 0 0 2.86.43 28.88 28.97 0 0 0 2.88.14 28.88 28.97 0 0 0 2.04-.07 28.88 28.97 0 0 0 2.87-.35 28.88 28.97 0 0 0 2.82-.63 28.88 28.97 0 0 0 2.73-.91 28.88 28.97 0 0 0 2.64-1.19 28.88 28.97 0 0 0 2.5-1.44 28.88 28.97 0 0 0 2.35-1.68 28.88 28.97 0 0 0 2.17-1.91 28.88 28.97 0 0 0 1.97-2.12 28.88 28.97 0 0 0 1.1-1.44 28.88 28.97 0 0 0 .01-.03 28.69 28.69 0 0 0 5.73-17.24A28.93 28.93 0 0 0 32.5 3.05zm13.22 8.29c.09 0 .2.07.32.2-.12-.13-.23-.2-.32-.2zm-.49.11zm-3.84 3.05zm6.48 2.48zm-13.29 2.36zm-1.96 1.81zm-2.93.58zm-3.85.49zm25.6 2.1zm.16.17zm-3.04.85c-.97.08-1.96.01-2.9.08.94-.07 1.93 0 2.9-.08zm-28.03 1.61a8.91 8.91 0 0 0 0 0zm-5.04 2.15zm-2.05 1.89zm-3.77 1.46zm-.32 12.29z"/><path d="M55.69 49.21A29.05 29.05 0 0 1 41.28 59.5c-.88-1.43-2.86-3.48-2.64-5.08.07-1.14.12-2.63.27-3.92.14-1.28.63-12.05 2.48-14.9 1.85-2.86 6.38-5.73 8.28-6.4 1.78-.64 2.22-1.29 2.22-1.93 0-.64.05-2.72-.45-2.93-2.34 1.84-5.35.46-7.57 1.5.62-3.05 1.83-6.9 4-8.85.5-.85.7-1.98-.23-3.2-.93-1.2-1.56-2.44-1.92-2.44-1.18 0-3.47 2.73-4.33 3.16-.86.43-7.6 5.24-8.25 6.1a2.73 2.73 0 0 1-2.44 1.17c-.93-.08-3.86-.12-4.86.45-1 .57-5.56 5.23-6.7 5.8-1.14.57-2.6.87-3.31.94-.72.07-3 2.85-3.73 3.2-.64.3-4.06.25-5.31.67.8 4.27 3.84 6.9 4.25 8.59.69.11-.55 3.05-3.69 4.78a28.88 28.97 0 0 0 .84 1.47 28.88 28.97 0 0 0 1.68 2.35 28.88 28.97 0 0 0 1.9 2.18 28.88 28.97 0 0 0 2.12 1.97 28.88 28.97 0 0 0 2.3 1.75 28.88 28.97 0 0 0 2.46 1.52 28.88 28.97 0 0 0 2.6 1.26 28.88 28.97 0 0 0 2.7.99 28.88 28.97 0 0 0 2.8.72 28.88 28.97 0 0 0 2.86.43 28.88 28.97 0 0 0 2.88.14 28.88 28.97 0 0 0 2.04-.07 28.88 28.97 0 0 0 2.87-.35 28.88 28.97 0 0 0 2.82-.63 28.88 28.97 0 0 0 2.73-.91 28.88 28.97 0 0 0 2.64-1.19 28.88 28.97 0 0 0 2.5-1.44 28.88 28.97 0 0 0 2.35-1.68 28.88 28.97 0 0 0 2.17-1.91 28.88 28.97 0 0 0 1.97-2.12 28.88 28.97 0 0 0 1.11-1.47zm-24.84-24.5c.28 0 .6.04.98.1 2.22 3.34-4.36 4.76-7.08 6.22a20.04 20.04 0 0 1 3.99-5.76c.7-.36 1.25-.59 2.1-.57z" fill="url(#d)"/><path d="M39.56 55.31a23.97 24.04 0 0 0 .7-.23 23.97 24.04 0 0 0 2.18-.98 23.97 24.04 0 0 0 2.08-1.2 23.97 24.04 0 0 0 1.95-1.4 23.97 24.04 0 0 0 1.8-1.58 23.97 24.04 0 0 0 1.63-1.76 23.97 24.04 0 0 0 .91-1.2 23.97 24.04 0 0 0 .02-.02 24 24 0 0 0 4.75-14.3 24.07 24.07 0 0 0-4.1-13.43 24.13 24.13 0 0 0-15.06-10.1c-1.38-.27-2.8-.39-4.25-.42a24 24 0 0 0-20.63 35.79c2.6-1.44 3.63-3.88 3.07-3.97-.35-1.4-2.86-3.59-3.53-7.13 1.03-.35 3.87-.3 4.4-.56.61-.29 2.5-2.6 3.1-2.66.59-.06 1.8-.3 2.75-.78.94-.47 4.73-4.34 5.56-4.81.83-.47 3.26-.43 4.03-.37.77.05 1.5-.26 2.03-.97.53-.71 6.13-4.71 6.84-5.07.71-.35 2.62-2.62 3.6-2.62.3 0 .82 1.02 1.6 2.03.76 1 .6 1.95.18 2.66-1.74 1.56-2.72 4.6-3.24 7.1.2-.04.37-.12.57-.14-.2.02-.38.1-.57.14-.02.07-.06.16-.07.24 1.64-.77 3.79-.04 5.62-.94.22-.11.45-.15.66-.31.41.18.37 1.9.37 2.44 0 .53-.36 1.07-1.84 1.6-1.58.55-5.34 2.94-6.88 5.3-1.53 2.37-1.94 11.31-2.06 12.38-.12 1.06-.16 2.3-.22 3.25-.17 1.27 1.28 2.85 2.05 4.02zm2.99-39.8c.07 0 .16.06.27.17-.1-.11-.2-.17-.27-.17zm-.4.1zm-3.2 2.52zm5.38 2.06zm-11.02 1.96zm-1.63 1.5zm-2.44.48zm-3.19.4zM47.3 26.3zm-16.26.34a3.3 3.3 0 0 0-1.75.47 16.64 16.64 0 0 0-3.3 4.78c2.25-1.2 7.71-2.38 5.87-5.15-.31-.06-.58-.1-.82-.1zm-9.4 1.83a7.4 7.4 0 0 0 0 0zm-4.18 1.79zm-1.7 1.56zm-3.13 1.22zm-.27 10.2z" transform="matrix(1.20478 0 0 1.20478 -6.55 -7.38)" opacity=".6" fill="url(#e)" filter="url(#f)"/></svg>