<svg xmlns="http://www.w3.org/2000/svg" xmlns:xlink="http://www.w3.org/1999/xlink" width="64" height="64" version="1"><defs><linearGradient id="a"><stop offset="0" stop-color="#4d4d4d"/><stop offset="1"/></linearGradient><radialGradient xlink:href="#a" id="e" cx="16" cy="19.25" fx="16" fy="19.25" r="28" gradientUnits="userSpaceOnUse" gradientTransform="matrix(.88378 .33898 -.35812 .93367 8.75 -4.15)"/><linearGradient id="b"><stop offset="0" stop-color="#00f"/><stop offset="1" stop-color="teal"/></linearGradient><linearGradient id="c"><stop offset="0" stop-color="#a00"/><stop offset="1" stop-color="#ff2a2a"/></linearGradient><linearGradient gradientTransform="translate(-.73 -.3) scale(1.36269)" xlink:href="#d" id="f" x1="30.21" y1="43" x2="14" y2="10" gradientUnits="userSpaceOnUse"/><linearGradient id="d"><stop offset="0" stop-color="#f5d"/><stop offset="1" stop-color="#ab37c8"/></linearGradient></defs><path d="M32 4C16.49 4 4 16.49 4 32s12.49 28 28 28 28-12.49 28-28S47.51 4 32 4z" fill="url(#e)"/><path d="M36.23 11.96s-4.35 2.98-4.65 4.68c0 0-9.22-2.91-17.32 4.85h4.1S7.63 28.2 7.44 32.4c.19-.11 1.97-1.04 2.73-1.36 0 0-2.6 6-.63 11.85A24.39 24.39 0 0 0 31.8 57.04c.3 0 .6-.03.89-.04.34-1.17 1.92-7.2-.99-10.95-2.5-3.24-6.87-12.03-1.07-15.02 0 0 3.66 5.14 7.96 5.64 0 0 .5 4.4 5.7 1.6 1.38-.74 1.9-3.2.5-5.19l-1.1-1.6s-3.65-8.76-6.25-11.35c0 0-1.36-4.09 0-6.81 0 0-1.54 1.14-2.04 2.04 0 0 .34-2.91.84-3.4z" fill="url(#f)"/></svg>