<svg xmlns="http://www.w3.org/2000/svg" xmlns:xlink="http://www.w3.org/1999/xlink" width="64" height="64" version="1"><defs><linearGradient id="a"><stop offset="0" stop-color="#4d4d4d"/><stop offset="1"/></linearGradient><radialGradient xlink:href="#a" id="b" cx="16" cy="19.25" fx="16" fy="19.25" r="28" gradientUnits="userSpaceOnUse" gradientTransform="matrix(.88378 .33898 -.35812 .93367 8.75 -4.15)"/></defs><path d="M32 4C16.49 4 4 16.49 4 32s12.49 28 28 28 28-12.49 28-28S47.51 4 32 4z" fill="url(#b)"/><path d="M29.82 18.09l-3.84 3.83 11.46 11.4L25.98 44.9l3.84 3.83 11.4-11.5 3.84-3.84-3.83-3.79-11.46-11.5z" opacity=".13" fill="#f60" fill-opacity=".99"/><path d="M27.82 16.09l-3.84 3.83 11.46 11.4L23.98 42.9l3.84 3.83 11.4-11.5 3.84-3.84-3.83-3.79-11.46-11.5z" fill="#f60" fill-opacity=".99"/></svg>