<svg xmlns="http://www.w3.org/2000/svg" xmlns:xlink="http://www.w3.org/1999/xlink" width="64" height="64" version="1"><defs><linearGradient id="b"><stop offset="0" stop-color="#14ddb1"/><stop offset="1" stop-color="#2086e7"/></linearGradient><radialGradient gradientTransform="matrix(2.07143 0 0 2.07143 -17.71 -17.71)" xlink:href="#a" id="c" cx="18.12" cy="18.12" fx="18.12" fy="18.12" r="14" gradientUnits="userSpaceOnUse"/><linearGradient id="a"><stop offset="0" stop-color="#4d4d4d"/><stop offset="1"/></linearGradient><linearGradient xlink:href="#b" id="d" gradientUnits="userSpaceOnUse" gradientTransform="matrix(2.07143 0 0 2.07143 -17.71 -17.71)" x1="14" y1="23.98" x2="21.03" y2="24.87"/></defs><path d="M58.93 61H5.07A2.07 2.07 0 0 1 3 58.93V5.07C3 3.93 3.93 3 5.07 3h53.86C60.07 3 61 3.93 61 5.07v53.86c0 1.14-.93 2.07-2.07 2.07z" fill="url(#c)"/><path d="M39.53 11.43c-3.01 0-5.4 1-7.16 3.02-1.76 2.02-2.64 4.75-2.64 8.22 0 3.44.87 6.17 2.61 8.18 1.74 2 4.1 3 7.07 3 2.66 0 4.81-.72 6.46-2.15a8.03 8.03 0 0 0 2.67-5.84h-4.29a4.72 4.72 0 0 1-1.43 3.17 4.71 4.71 0 0 1-3.29 1.12c-1.7 0-3.03-.66-3.99-1.97-.94-1.31-1.4-3.13-1.4-5.46 0-2.36.48-4.21 1.46-5.54s2.34-2 4.08-2c2.5 0 4.03 1.29 4.57 3.85h4.2a7.74 7.74 0 0 0-2.73-5.57c-1.6-1.35-3.67-2.03-6.19-2.03zM16 11.78L8.4 33.17h4.49l1.44-4.31h8l1.41 4.3h4.52l-7.4-21.38H16zm2.35 5.05l2.78 8.36h-5.57l2.79-8.36zM11.29 46.5v4.14h18.64V46.5H11.29z" fill="url(#d)"/></svg>