<svg xmlns="http://www.w3.org/2000/svg" width="64" height="64" version="1"><defs><linearGradient id="a"><stop offset="0" stop-color="#4d4d4d"/><stop offset="1"/></linearGradient><linearGradient id="b" x1="24" x2="24.17" y1="6" y2="44.5" gradientTransform="matrix(1.3141 0 0 1.3309 .3 -1.81)" gradientUnits="userSpaceOnUse"><stop offset="0" stop-color="#4d4d4d"/><stop offset=".31" stop-color="#333"/><stop offset=".57" stop-color="#1a1a1a"/><stop offset="1"/></linearGradient><linearGradient id="c" x1="17" x2="17" y1="45" y2="6" gradientTransform="matrix(1.3141 0 0 1.3309 .3 -1.81)" gradientUnits="userSpaceOnUse"><stop offset="0" stop-color="#333"/><stop offset="1"/></linearGradient><linearGradient id="d" x1="20.53" x2="12.85" y1="31.19" y2="12.24" gradientTransform="matrix(1.52916 0 0 .7866 -.03 1.22)" gradientUnits="userSpaceOnUse"><stop offset="0" stop-color="#fff" stop-opacity="0"/><stop offset="1" stop-color="#fff"/></linearGradient></defs><path d="M31.63 11.76C43.83-.6 60.61 10.79 60.5 22.5c-.1 10.71-8.17 15.85-28.43 34.9C10.87 39.68 3.4 35.6 3.5 22.88 3.61 9.73 17.97-.15 31.63 11.76z" fill="url(#b)" fill-rule="evenodd" stroke="url(#c)"/><path d="M18.43 6.76c-7.87.7-10.77 4.83-13.31 9.33-1.11 3.57-3.3 9.68-.21 13.46 2.3 2.82 8.7 4.03 14.43 3.65 7.66 0 10.7-7.85 14.73-9.89 3.66-1.38 3.95-1.5 7.82-1.5 5.38 0 15.1-3.9 15.1-7.75-1.65-3.1-5.33-6.24-14.1-7.68-5.14.6-10 4.27-11.26 6.1-3.1-2.75-7.07-5.72-13.2-5.72z" opacity=".28" fill="url(#d)" fill-rule="evenodd"/></svg>