<?xml version="1.0" encoding="UTF-8" standalone="no"?><!--Created with Inkscape (http://www.inkscape.org/)--><svg xmlns:dc="http://purl.org/dc/elements/1.1/" xmlns:cc="http://creativecommons.org/ns#" xmlns:rdf="http://www.w3.org/1999/02/22-rdf-syntax-ns#" xmlns="http://www.w3.org/2000/svg" xmlns:xlink="http://www.w3.org/1999/xlink" width="68.27" height="68.27" version="1" viewBox="0 0 64 64"><defs><linearGradient id="k"><stop offset="0" stop-color="#2e220f"/><stop offset="1" stop-color="#2e220f" stop-opacity="0"/></linearGradient><linearGradient id="e"><stop offset="0" stop-color="#fff"/><stop offset="1" stop-color="#fff" stop-opacity="0"/></linearGradient><linearGradient id="d"><stop offset="0" stop-color="#fcfcfc"/><stop offset=".52" stop-color="#f8f8f8"/><stop offset=".77" stop-color="#f0efef"/><stop offset=".9" stop-color="#e3e1e1"/><stop offset="1" stop-color="#cecbcb"/></linearGradient><linearGradient id="b"><stop offset="0" stop-color="#fff"/><stop offset="1" stop-color="#fff" stop-opacity="0"/></linearGradient><linearGradient id="a"><stop offset="0" stop-color="#eeecec"/><stop offset=".4" stop-color="#f4f4f4"/><stop offset="1" stop-color="#f6f5f5"/></linearGradient><linearGradient xlink:href="#d" id="c" gradientUnits="userSpaceOnUse" gradientTransform="matrix(1.01199 0 0 1.01199 -.9 -.99)" x1="86.74" y1="93.62" x2="95.46" y2="102.34"/><radialGradient gradientUnits="userSpaceOnUse" r="126.41" cy="8.33" cx="7.5" id="j"><stop offset=".27" stop-color="#dbc298"/><stop offset=".45" stop-color="#c7b08a"/><stop offset=".72" stop-color="#b99c6f"/><stop offset=".88" stop-color="#b09469"/><stop offset="1" stop-color="#a48a5f"/></radialGradient><linearGradient id="g"><stop offset="0" stop-color="#616881" stop-opacity=".94"/><stop offset="1" stop-color="#c2c5d7"/></linearGradient><linearGradient y2="119" x2="61" y1="58" x1="61" gradientUnits="userSpaceOnUse" id="m"><stop offset=".05" stop-color="#eeeeec"/><stop offset="1" stop-color="#f3f3f2"/></linearGradient><linearGradient y2="119" x2="67" y1="58" x1="67" gradientUnits="userSpaceOnUse" id="l"><stop offset=".05" stop-color="#bdbec4"/><stop offset="1" stop-color="#fff"/></linearGradient><linearGradient gradientTransform="matrix(-1 0 0 1 134 0)" y2="101.31" x2="73.86" y1="94.65" x1="72.53" gradientUnits="userSpaceOnUse" id="A"><stop offset=".05" stop-color="#eeeeec"/><stop offset="1" stop-color="#888a85"/></linearGradient><linearGradient y2="105.31" x2="67.86" y1="98.65" x1="66.53" gradientUnits="userSpaceOnUse" id="B"><stop offset=".05" stop-color="#eeeeec"/><stop offset="1" stop-color="#888a85"/></linearGradient><linearGradient gradientTransform="matrix(-1 0 0 1 134 0)" y2="109.31" x2="73.86" y1="102.65" x1="72.53" gradientUnits="userSpaceOnUse" id="w"><stop offset=".05" stop-color="#eeeeec"/><stop offset="1" stop-color="#888a85"/></linearGradient><linearGradient y2="113.31" x2="67.86" y1="106.65" x1="66.53" gradientUnits="userSpaceOnUse" id="x"><stop offset=".05" stop-color="#eeeeec"/><stop offset="1" stop-color="#888a85"/></linearGradient><linearGradient gradientTransform="matrix(-1 0 0 1 134 0)" y2="117.31" x2="73.86" y1="110.65" x1="72.53" gradientUnits="userSpaceOnUse" id="y"><stop offset=".05" stop-color="#eeeeec"/><stop offset="1" stop-color="#888a85"/></linearGradient><linearGradient y2="121.31" x2="67.86" y1="114.65" x1="66.53" gradientUnits="userSpaceOnUse" id="z"><stop offset=".05" stop-color="#eeeeec"/><stop offset="1" stop-color="#888a85"/></linearGradient><linearGradient id="f"><stop offset="0" stop-color="#bbbecc" stop-opacity=".94"/><stop offset="1" stop-color="#363a52"/></linearGradient><linearGradient y2="70.9" x2="55.89" y1="61.9" x1="54.89" gradientUnits="userSpaceOnUse" id="C"><stop offset=".05" stop-color="#eeeeec"/><stop offset="1" stop-color="#888a85"/></linearGradient><linearGradient gradientTransform="scale(-1 1) rotate(53.4 4.4 -77.51)" y2="51.57" x2="84.4" y1="44.91" x1="83.06" gradientUnits="userSpaceOnUse" id="D"><stop offset=".05" stop-color="#eeeeec"/><stop offset="1" stop-color="#888a85"/></linearGradient><linearGradient gradientTransform="scale(-1 1) rotate(64.89 7.84 -50.77)" y2="43.13" x2="84.72" y1="36.47" x1="83.39" gradientUnits="userSpaceOnUse" id="E"><stop offset=".05" stop-color="#eeeeec"/><stop offset="1" stop-color="#888a85"/></linearGradient><linearGradient gradientTransform="scale(-1 1) rotate(75.19 10.55 -34.54)" y2="35.18" x2="85.34" y1="28.52" x1="84.01" gradientUnits="userSpaceOnUse" id="F"><stop offset=".05" stop-color="#eeeeec"/><stop offset="1" stop-color="#888a85"/></linearGradient><linearGradient y2="83.62" x2="67.05" y1="69.63" x1="62.05" gradientUnits="userSpaceOnUse" id="G"><stop offset="0" stop-color="#fff"/><stop offset=".13" stop-color="#fafafa"/><stop offset=".29" stop-color="#ecedec"/><stop offset=".45" stop-color="#d5d6d5"/><stop offset=".62" stop-color="#b5b6b4"/><stop offset=".8" stop-color="#8c8d8a"/><stop offset=".98" stop-color="#5a5c58"/><stop offset="1" stop-color="#555753"/></linearGradient><path d="M53.06 56.97a1.47 1.47 0 0 0 .04-.26 2.86 2.86 0 0 0-.04.26z" id="h"/><radialGradient xlink:href="#j" id="i" gradientUnits="userSpaceOnUse" cx="7.5" cy="8.33" r="126.41"/><radialGradient id="n" cx="52" cy="-9" r="111" gradientUnits="userSpaceOnUse"><stop offset=".15" stop-color="#c20600"/><stop offset=".57" stop-color="#860202"/><stop offset="1" stop-color="#760101"/></radialGradient><radialGradient xlink:href="#j" id="o" gradientUnits="userSpaceOnUse" cx="7.5" cy="8.33" r="126.41"/><radialGradient xlink:href="#b" id="H" gradientUnits="userSpaceOnUse" gradientTransform="matrix(1.68421 -.0843 .06886 1.37588 87.54 -138.5)" cx="64" cy="64" fx="63.79" fy="47.27" r="47.5"/><linearGradient id="p"><stop offset="0" stop-color="#ffdfbf"/><stop offset="1" stop-color="#ffdfbf" stop-opacity="0"/></linearGradient><linearGradient y2="60.58" x2="1.1" y1="60.58" x1=".6" gradientUnits="userSpaceOnUse" id="q"><stop offset="0" stop-color="#544c3e"/><stop offset="1"/></linearGradient><linearGradient y2="60.66" x2="3.2" y1="60.72" x1="2.2" gradientUnits="userSpaceOnUse" id="r"><stop offset="0" stop-color="#b39e7c"/><stop offset="1" stop-color="#544c3e"/></linearGradient><linearGradient y2="60.58" x2="103.4" y1="60.58" x1="103.9" gradientUnits="userSpaceOnUse" id="s"><stop offset="0" stop-color="#544c3e"/><stop offset=".22" stop-color="#50483b"/><stop offset=".44" stop-color="#443d32"/><stop offset=".66" stop-color="#2f2b23"/><stop offset=".88" stop-color="#13110e"/><stop offset="1"/></linearGradient><linearGradient y2="60.71" x2="102.3" y1="60.66" x1="101.3" gradientUnits="userSpaceOnUse" id="t"><stop offset="0" stop-color="#544c3e"/><stop offset="1" stop-color="#b39e7c"/></linearGradient><radialGradient gradientUnits="userSpaceOnUse" r="126.41" cy="8.33" cx="7.5" id="u"><stop offset=".27" stop-color="#dbc298"/><stop offset=".45" stop-color="#c7b08a"/><stop offset=".72" stop-color="#b99c6f"/><stop offset=".88" stop-color="#b09469"/><stop offset="1" stop-color="#a48a5f"/></radialGradient><linearGradient xlink:href="#v" id="I" x1="15.78" y1="79.61" x2="15.78" y2="72.63" gradientUnits="userSpaceOnUse"/><linearGradient id="v"><stop offset="0"/><stop offset="1" stop-color="#333"/></linearGradient><linearGradient xlink:href="#v" id="J" x1="15.78" y1="112.36" x2="15.78" y2="79.61" gradientUnits="userSpaceOnUse"/><linearGradient xlink:href="#w" id="K" gradientUnits="userSpaceOnUse" gradientTransform="matrix(-.76826 0 0 .76826 117.65 -22.96)" x1="72.53" y1="102.65" x2="73.86" y2="109.31"/><linearGradient xlink:href="#x" id="L" gradientUnits="userSpaceOnUse" gradientTransform="translate(14.7 -22.96) scale(.76826)" x1="66.53" y1="106.65" x2="67.86" y2="113.31"/><linearGradient xlink:href="#y" id="M" gradientUnits="userSpaceOnUse" gradientTransform="matrix(-.25406 0 0 .25406 50 64.74)" x1="72.53" y1="110.65" x2="73.86" y2="117.31"/><linearGradient xlink:href="#z" id="N" gradientUnits="userSpaceOnUse" gradientTransform="matrix(.25406 0 0 .25406 15.96 64.74)" x1="66.53" y1="114.65" x2="67.86" y2="121.31"/><linearGradient xlink:href="#A" id="ah" gradientUnits="userSpaceOnUse" gradientTransform="matrix(-.76826 0 0 .76826 117.65 -3.96)" x1="72.53" y1="94.65" x2="73.86" y2="101.31"/><linearGradient xlink:href="#B" id="ai" gradientUnits="userSpaceOnUse" gradientTransform="translate(14.7 -3.96) scale(.76826)" x1="66.53" y1="98.65" x2="67.86" y2="105.31"/><linearGradient xlink:href="#w" id="Q" gradientUnits="userSpaceOnUse" gradientTransform="matrix(-.25406 0 0 .25406 50 71.02)" x1="72.53" y1="102.65" x2="73.86" y2="109.31"/><linearGradient xlink:href="#x" id="ak" gradientUnits="userSpaceOnUse" gradientTransform="translate(14.7 -3.96) scale(.76826)" x1="66.53" y1="106.65" x2="67.86" y2="113.31"/><linearGradient xlink:href="#y" id="S" gradientUnits="userSpaceOnUse" gradientTransform="matrix(-.25406 0 0 .25406 50 71.02)" x1="72.53" y1="110.65" x2="73.86" y2="117.31"/><linearGradient xlink:href="#z" id="T" gradientUnits="userSpaceOnUse" gradientTransform="matrix(.25406 0 0 .25406 15.96 71.02)" x1="66.53" y1="114.65" x2="67.86" y2="121.31"/><linearGradient xlink:href="#y" id="U" gradientUnits="userSpaceOnUse" gradientTransform="matrix(-.25406 0 0 .25406 50 73)" x1="72.53" y1="110.65" x2="73.86" y2="117.31"/><linearGradient xlink:href="#z" id="V" gradientUnits="userSpaceOnUse" gradientTransform="matrix(.25406 0 0 .25406 15.96 73)" x1="66.53" y1="114.65" x2="67.86" y2="121.31"/><linearGradient xlink:href="#y" id="W" gradientUnits="userSpaceOnUse" gradientTransform="matrix(-.25406 0 0 .25406 50 75.02)" x1="72.53" y1="110.65" x2="73.86" y2="117.31"/><linearGradient xlink:href="#C" id="X" gradientUnits="userSpaceOnUse" gradientTransform="translate(14.7 -22.96) scale(.76826)" x1="54.89" y1="61.9" x2="55.89" y2="70.9"/><linearGradient xlink:href="#D" id="aa" gradientUnits="userSpaceOnUse" gradientTransform="scale(-.76824 .76824) rotate(53.4 24.54 -111.49)" x1="83.06" y1="44.91" x2="84.4" y2="51.57"/><linearGradient xlink:href="#E" id="an" gradientUnits="userSpaceOnUse" gradientTransform="scale(-.76825 .76825) rotate(64.89 21.78 -80.77)" x1="83.39" y1="36.47" x2="84.72" y2="43.13"/><linearGradient xlink:href="#F" id="am" gradientUnits="userSpaceOnUse" gradientTransform="scale(-.76827 .76827) rotate(75.19 20.39 -61.91)" x1="84.01" y1="28.52" x2="85.34" y2="35.18"/><linearGradient xlink:href="#G" id="ad" gradientUnits="userSpaceOnUse" gradientTransform="matrix(.4448 0 0 .37744 4 58.93)" x1="62.05" y1="69.63" x2="67.05" y2="83.62"/><linearGradient xlink:href="#x" id="ae" gradientUnits="userSpaceOnUse" gradientTransform="matrix(.25406 0 0 .25406 15.96 77.05)" x1="66.53" y1="106.65" x2="67.86" y2="113.31"/><linearGradient xlink:href="#y" id="af" gradientUnits="userSpaceOnUse" gradientTransform="matrix(-.25406 0 0 .25406 50 77.05)" x1="72.53" y1="110.65" x2="73.86" y2="117.31"/><linearGradient xlink:href="#z" id="ag" gradientUnits="userSpaceOnUse" gradientTransform="translate(14.7 -22.96) scale(.76826)" x1="66.53" y1="114.65" x2="67.86" y2="121.31"/><linearGradient xlink:href="#w" id="aj" gradientUnits="userSpaceOnUse" gradientTransform="matrix(-.76826 0 0 .76826 117.65 -3.96)" x1="72.53" y1="102.65" x2="73.86" y2="109.31"/><linearGradient xlink:href="#y" id="al" gradientUnits="userSpaceOnUse" gradientTransform="matrix(-.76826 0 0 .76826 117.65 -3.96)" x1="72.53" y1="110.65" x2="73.86" y2="117.31"/><linearGradient xlink:href="#A" id="O" gradientUnits="userSpaceOnUse" gradientTransform="matrix(-.76826 0 0 .76826 117.65 -3.96)" x1="72.53" y1="94.65" x2="73.86" y2="101.31"/><linearGradient xlink:href="#B" id="P" gradientUnits="userSpaceOnUse" gradientTransform="translate(14.7 -3.96) scale(.76826)" x1="66.53" y1="98.65" x2="67.86" y2="105.31"/><linearGradient xlink:href="#x" id="R" gradientUnits="userSpaceOnUse" gradientTransform="translate(14.7 -3.96) scale(.76826)" x1="66.53" y1="106.65" x2="67.86" y2="113.31"/><linearGradient xlink:href="#D" id="Y" gradientUnits="userSpaceOnUse" gradientTransform="scale(-.76824 .76824) rotate(53.4 24.54 -111.49)" x1="83.06" y1="44.91" x2="84.4" y2="51.57"/><linearGradient xlink:href="#E" id="Z" gradientUnits="userSpaceOnUse" gradientTransform="scale(-.76825 .76825) rotate(64.89 21.78 -80.77)" x1="83.39" y1="36.47" x2="84.72" y2="43.13"/><linearGradient xlink:href="#E" id="ab" gradientUnits="userSpaceOnUse" gradientTransform="scale(-.76825 .76825) rotate(64.89 21.78 -80.77)" x1="83.39" y1="36.47" x2="84.72" y2="43.13"/><linearGradient xlink:href="#F" id="ac" gradientUnits="userSpaceOnUse" gradientTransform="scale(-.76827 .76827) rotate(75.19 20.39 -61.91)" x1="84.01" y1="28.52" x2="85.34" y2="35.18"/></defs><metadata><rdf:RDF><cc:Work><dc:format>image/svg+xml</dc:format><dc:type rdf:resource="http://purl.org/dc/dcmitype/StillImage"/><dc:title/></cc:Work></rdf:RDF></metadata><path d="M153.73-111.34c-.34 0-.5.24-.5.5V-1.87c0 .82.68 1.5 1.5 1.5l55 .03h1.7c10.09-4 25.4-22.45 34.35-31.45 1.48-1.66 1.11-1.15 1.45-2.89v-76.16c0-.32-.16-.5-.5-.5z" opacity=".85" fill="url(#H)" transform="translate(0 -68)"/><g transform="matrix(1.4248 0 0 1.4248 -13.9 -99.79)" stroke-width=".7"><rect rx="1.86" ry="1.86" y="72.63" x="15.78" height="39.72" width="32.88" fill="url(#I)"/><path d="M48.66 79.77c-.74.17-1.44.29-2.21.51a36.87 36.87 0 0 0-4.78 1.75c-1.6.73-3.2 1.6-4.77 2.64a29.84 29.84 0 0 0-4.5 3.7 36.83 36.83 0 0 0-6.53-5.18 32.41 32.41 0 0 0-6.31-3c-1.36-.47-2.56-.68-3.78-.94v.36c1 .2 1.89.3 2.97.63a32.06 32.06 0 0 1 10.17 5.36c1.17.9 2.33 1.91 3.47 3.06a29.86 29.86 0 0 1 4.5-3.7 32.54 32.54 0 0 1 4.78-2.64c1.6-.72 3.22-1.3 4.78-1.75.77-.22 1.47-.34 2.21-.51z" fill="#fff"/><path d="M48.66 80.06c-.74.17-1.44.29-2.21.51a36.89 36.89 0 0 0-4.78 1.75c-1.6.73-3.2 1.6-4.77 2.64a29.86 29.86 0 0 0-4.5 3.7 36.41 36.41 0 0 0-6.96-5.43 32.06 32.06 0 0 0-6.69-2.99c-1.08-.34-1.98-.43-2.97-.63v30.1a2.64 2.64 0 0 0 2.65 2.65H46a2.64 2.64 0 0 0 2.65-2.65z" fill="url(#J)"/><path d="M34.28 87.3a.62.62 0 0 0 .02-.1 1.27 1.27 0 0 0-.01.05l-.01.06" fill="#828282"/><path d="M61.57 56.17l.77 1.54a1.54 1.54 0 0 1 3.07 0v1.53h-7.68v-3.07z" fill="url(#K)" transform="matrix(.33069 0 0 .33069 11.1 72.33)" stroke-width="1.21"/><path d="M66.18 59.24l-.77 1.54a1.54 1.54 0 0 0-3.07 0v1.54h7.68v-3.08z" fill="url(#L)" transform="matrix(.33069 0 0 .33069 11.1 72.33)" stroke-width="1.21"/><path d="M31.46 92.94l.25.5a.5.5 0 0 1 1.02 0v.51h-2.54v-1.01z" fill="url(#M)"/><path d="M32.98 93.95l-.25.51a.5.5 0 0 0-1.02 0v.5h2.54v-1z" fill="url(#N)"/><path d="M61.57 69.02l.77 1.54a1.54 1.54 0 0 1 3.07 0v1.54h-7.68v-3.08z" fill="url(#O)" transform="matrix(.33069 0 0 .33069 11.1 72.33)" stroke-width="1.21"/><path d="M66.18 72.1l-.77 1.53a1.54 1.54 0 0 0-3.07 0v1.54h7.68V72.1z" fill="url(#P)" transform="matrix(.33069 0 0 .33069 11.1 72.33)" stroke-width="1.21"/><path d="M31.46 97.19l.25.5a.5.5 0 0 1 1.02 0v.51h-2.54V97.2z" fill="url(#Q)"/><path d="M66.18 78.24l-.77 1.54a1.54 1.54 0 0 0-3.07 0v1.54h7.68v-3.08z" fill="url(#R)" transform="matrix(.33069 0 0 .33069 11.1 72.33)" stroke-width="1.21"/><path d="M31.46 99.22l.25.5a.5.5 0 0 1 1.02 0v.51h-2.54v-1.01z" fill="url(#S)"/><path d="M32.98 100.23l-.25.51a.5.5 0 0 0-1.02 0v.51h2.54v-1.02z" fill="url(#T)"/><path d="M31.46 101.2l.25.51a.5.5 0 0 1 1.02 0v.5h-2.54v-1z" fill="url(#U)"/><path d="M32.98 102.22l-.25.5a.5.5 0 0 0-1.02 0v.52h2.54v-1.02z" fill="url(#V)"/><path d="M31.46 103.22l.25.51a.5.5 0 0 1 1.02 0v.5h-2.54v-1z" fill="url(#W)"/><path d="M56.25 26.32l1.55.73a1.54 1.54 0 1 1 2.42-1.9l.95 1.21-6.04 4.75-1.9-2.42z" fill="url(#X)" transform="matrix(.26443 0 0 .32124 14.12 76.84)" stroke-width="1.21"/><path d="M50.8 22.53l1.7.3a1.54 1.54 0 1 1 1.82-2.47l1.24.92-4.58 6.17-2.47-1.84z" fill="url(#Y)" transform="matrix(.26443 0 0 .32124 13.99 76.92)" stroke-width="1.21"/><path d="M44.84 19.47l1.72-.05a1.54 1.54 0 1 1 1.3-2.78l1.4.65-3.27 6.96-2.78-1.3 1.63-3.48z" fill="url(#Z)" transform="matrix(.26172 .0378 -.04593 .31794 15.09 75.24)" stroke-width="1.21"/><path d="M50.8 22.53l1.7.3a1.54 1.54 0 1 1 1.82-2.47l1.24.92-4.58 6.17-2.47-1.84z" fill="url(#aa)" transform="matrix(-.26238 .03285 .03991 .31875 48.03 76.57)" stroke-width="1.21"/><path d="M44.84 19.47l1.72-.05a1.54 1.54 0 1 1 1.3-2.78l1.4.65-3.27 6.96-2.78-1.3 1.63-3.48z" fill="url(#ab)" transform="matrix(-.25732 .06091 .074 .3126 47.21 75.54)" stroke-width="1.21"/><path d="M39.18 17.87l1.68-.35a1.54 1.54 0 1 1 .79-2.97l1.48.39-1.96 7.43-2.97-.79z" fill="url(#ac)" transform="matrix(-.25058 .08445 .1026 .30442 46.67 74.53)" stroke-width="1.21"/><path d="M29.36 87.45c-.01.14.07.27.2.34.69.35 1.12 1.18 1.12 2.1 0 .2.2.37.45.37h2.67c.24 0 .44-.17.44-.38 0-.91.44-1.74 1.12-2.1.14-.06.22-.2.2-.33a3.07 3.07 0 0 0-3.1-2.85 3.07 3.07 0 0 0-3.1 2.85z" fill="url(#ad)"/><path d="M30.49 88.66c-.26 0-.47.16-.47.37v8.3c0 .22.21.38.47.38h3.73c.26 0 .47-.16.47-.37v-8.3c0-.22-.21-.38-.47-.38zm.81.75h2.1c.2 0 .35.13.35.28v.57c0 .16-.15.28-.35.28h-2.1c-.19 0-.35-.12-.35-.28v-.57c0-.15.16-.28.35-.28zm.12 3.78h1.87c.25 0 .46.16.46.37v3.02c0 .21-.2.38-.46.38h-1.87c-.26 0-.47-.17-.47-.38v-3.02c0-.2.21-.37.47-.37z" fill="#b3b3b3"/><path d="M32.98 104.23l-.25.51a.5.5 0 0 0-1.02 0v.5h2.54v-1z" fill="url(#ae)"/><path d="M31.46 105.25l.25.5a.5.5 0 0 1 1.02 0v.52h-2.54v-1.02z" fill="url(#af)"/><path d="M66.18 65.39l-.77 1.54a1.54 1.54 0 0 0-3.07 0v1.53h7.68V65.4z" fill="url(#ag)" transform="matrix(.33069 0 0 .33069 11.1 84.64)" stroke-width="1.21"/><path d="M61.57 69.02l.77 1.54a1.54 1.54 0 0 1 3.07 0v1.54h-7.68v-3.08z" fill="url(#ah)" transform="matrix(.33069 0 0 .33069 11.1 84.44)" stroke-width="1.21"/><path d="M66.18 72.1l-.77 1.53a1.54 1.54 0 0 0-3.07 0v1.54h7.68V72.1z" fill="url(#ai)" transform="matrix(.33069 0 0 .33069 11.1 84.44)" stroke-width="1.21"/><path d="M61.57 75.17l.77 1.54a1.54 1.54 0 0 1 3.07 0v1.53h-7.68v-3.07z" fill="url(#aj)" transform="matrix(.33069 0 0 .33069 11.1 84.43)" stroke-width="1.21"/><path d="M66.18 78.24l-.77 1.54a1.54 1.54 0 0 0-3.07 0v1.54h7.68v-3.08z" fill="url(#ak)" transform="matrix(.33069 0 0 .33069 11.1 84.43)" stroke-width="1.21"/><path d="M61.57 81.32l.77 1.53a1.54 1.54 0 0 1 3.07 0v1.54h-7.68v-3.07z" fill="url(#al)" transform="matrix(.33069 0 0 .33069 11.1 84.43)" stroke-width="1.21"/><path d="M39.18 17.87l1.68-.35a1.54 1.54 0 1 1 .79-2.97l1.48.39-1.96 7.43-2.97-.79z" fill="url(#am)" transform="matrix(-.25058 .08445 .1026 .30442 48.44 73.5)" stroke-width="1.21"/><path d="M44.84 19.47l1.72-.05a1.54 1.54 0 1 1 1.3-2.78l1.4.65-3.27 6.96-2.78-1.3 1.63-3.48z" fill="url(#an)" transform="matrix(.26172 .0378 -.04593 .31794 13.38 74.05)" stroke-width="1.21"/></g></svg>