<svg xmlns="http://www.w3.org/2000/svg" xmlns:xlink="http://www.w3.org/1999/xlink" width="64" height="64"><defs><linearGradient id="a"><stop offset="0" stop-color="#333"/><stop offset="1" stop-color="#d40000"/></linearGradient><path id="b" d="M.73 43.06L24 .71l23.09 42.31s-2.21-.15-5.27-.3c-2.85-.12-1.8.12-8.28-1.08-4.91-.91-8.52-2.87-15.25-2.73-7.46.16-17.55 4.15-17.55 4.15"/><linearGradient gradientTransform="matrix(1.2219 0 0 1.2219 2.82 -14.23)" xlink:href="#a" id="c" x1="-4.12" y1="17.2" x2="47.57" y2="59.83" gradientUnits="userSpaceOnUse"/></defs><use xlink:href="#b" width="100%" height="100%" transform="matrix(1.30202 0 0 1.30202 .87 3.5)"/><path d="M32.12 10.13L19.91 32.95 8.29 54.76l.9-.39c.1-.18.23-.29.35-.29.07 0 .13.02.17.07l1.33-.5v-.28c0-.88.33-1.58.72-1.58.34 0 .65.59.68 1.36l1.08-.35v-3.1c0-.86.29-1.58.66-1.58.38 0 .67.72.67 1.58v2.7l1.27-.33v-6c0-.88.34-1.57.75-1.57.4 0 .73.7.73 1.57v5.68c.48-.09.96-.18 1.42-.23v-8.67c0-.88.34-1.58.75-1.58s.74.7.74 1.58v8.46l1.23-.1V40.07c0-.86.36-1.58.82-1.58.44 0 .82.72.82 1.58v11.05h1.3V38.3c0-.88.35-1.58.82-1.58.44 0 .8.7.8 1.58v12.87l1.14.09V39.47c0-.86.38-1.55.82-1.55.45 0 .82.7.82 1.55V51.4l.94.13V39.69c0-.86.36-1.57.82-1.57.45 0 .8.71.8 1.57v12.1l1.32.22V41.93c0-.88.38-1.58.86-1.58.46 0 .85.7.85 1.58v10.45c.44.07.89.18 1.37.29l.08.02v-8.25c0-.88.31-1.58.69-1.58.36 0 .66.7.66 1.58v8.52l1.66.35v-6.5c0-.87.3-1.56.68-1.56.36 0 .67.7.67 1.56v6.76l1.62.33v-4.22c0-.86.34-1.57.75-1.57s.74.71.74 1.57v4.53l1.21.24v-2.26c0-.86.28-1.57.6-1.57.34 0 .6.71.6 1.57v2.5l.99.14v-.71c0-.86.27-1.58.63-1.58.34 0 .63.72.63 1.58V55l.8.09c0-.83.26-1.47.55-1.47.31 0 .57.7.57 1.56l.85.04c.1-.39.28-.64.46-.64.2 0 .34.25.46.67h1.46c.07-.1.15-.16.24-.16.08 0 .17.05.22.16l1.54.58 1.6.15-12.7-23.05-12.18-22.78z" color="#000" fill="url(#c)" fill-rule="evenodd"/></svg>