<svg xmlns="http://www.w3.org/2000/svg" xmlns:xlink="http://www.w3.org/1999/xlink" width="64" height="64"><defs><linearGradient id="b"><stop offset="0" stop-color="#333"/><stop offset="1"/></linearGradient><linearGradient id="a"><stop offset="0" stop-color="#f55"/><stop offset="1" stop-color="#d40000" stop-opacity=".93"/></linearGradient><radialGradient xlink:href="#a" id="d" cx="31.88" cy="26.03" fx="31.88" fy="26.03" r="25.91" gradientTransform="matrix(1 0 0 .78368 0 6.35)" gradientUnits="userSpaceOnUse"/><radialGradient xlink:href="#b" id="c" cx="17.08" cy="14.09" fx="17.08" fy="14.09" r="27.67" gradientUnits="userSpaceOnUse"/></defs><rect width="54.83" height="54.83" x="4.59" y="4.59" ry="6.88" fill="url(#c)" stroke="#000" stroke-width=".5"/><path d="M30.64 6.46c-.08.04-1.49 3.82-3.55 7.57-4.96 9-8.11 12.93-13.2 16.32-2.2 1.47-5.66 3.31-6.42 4.32-.72.97-.28.38 2.66-.47 7.33-2.1 6.78-3.77 1.24 2.87-7.55 9.05-3.76 6.24 4.15-1.15 3.63-3.4 7.58-5.77 8.6-6.17 1.1-.42 1.8-.72 3.18-.81 1.62-.11 2.56.05 3.17 1.84.5 1.52 1.67 4.3 3.5 6.46a7.8 7.8 0 0 0 2.08 1.73c.63.38 1.26.8 2.13.97 1.73.38 2.89.19 4.1.13 2.6-.15 7.03-2.53 10.07-4.97 4.85-3.9 5.5-5.1 5.43-10.02l-.04-5.6-2.31 3.42c-4.97 7.4-10.93 12.33-14.94 12.33-8.88 0-10.06-6.85-1.63-10.32 7.27-2.99 16.36-9 18.67-12.76l-.01-.84a6.38 6.38 0 0 0-.55-2.22c-.34-.69-.95-1.15-1.44-1.61-.46-.32-.73-.5-1.07-.47-.43.15-.6.37-.74.77-1.08 3.17-17.1 15.76-21.33 15.76-.4 0-.57-3.23-.92-8.12-.36-5.08-.23-9.25-.83-8.96zm-1.8 10.38l.34 3.92a4.93 4.93 0 0 1-3.07 4.7c-1.56.65-3.1 1.78-2.96.02.07-.92 1.47-2.4 3.15-4.77zM5.97 46.88l.09.17v-.09c0 .02-.05 0-.09-.08z" fill="url(#d)"/><path style="marker:none" color="#000" overflow="visible" opacity=".34" fill="#fff" d="M11 47.32h42v1.5H11zM11 50.32h42v1.5H11zM11 53.32h27v1.5H11z"/></svg>