<svg xmlns="http://www.w3.org/2000/svg" xmlns:xlink="http://www.w3.org/1999/xlink" width="64" height="64" version="1"><defs><linearGradient id="b"><stop offset="0" stop-color="#afe"/><stop offset="1" stop-color="#b7c8c4"/></linearGradient><linearGradient id="a"><stop offset="0" stop-color="#4d4d4d"/><stop offset="1"/></linearGradient><radialGradient xlink:href="#a" id="c" cx="16" cy="19.25" fx="16" fy="19.25" r="28" gradientUnits="userSpaceOnUse" gradientTransform="matrix(.88378 .33898 -.35812 .93367 8.75 -4.15)"/><linearGradient xlink:href="#b" id="d" x1="25.56" y1="5.12" x2="53.67" y2="53.41" gradientUnits="userSpaceOnUse"/></defs><path d="M32 4C16.49 4 4 16.49 4 32s12.49 28 28 28 28-12.49 28-28S47.51 4 32 4z" fill="url(#c)"/><path d="M32 5.81A26.19 26.19 0 0 0 5.81 32 26.19 26.19 0 0 0 32 58.19 26.19 26.19 0 0 0 58.19 32 26.19 26.19 0 0 0 32 5.81zm0 2.79A23.4 23.4 0 0 1 55.4 32 23.4 23.4 0 0 1 32 55.4 23.4 23.4 0 0 1 8.6 32 23.4 23.4 0 0 1 32 8.6zm-.6 12.67a12.7 12.7 0 0 0-8.12 2.63c-.97.8-1.38 1.88-.96 2.74 1.03 2.15 3.2.95 5.01-.3a8.16 8.16 0 0 1 3.46-1.24 5.5 5.5 0 0 1 3.09.5c.74.45 1.05 1.98.3 2.76-.3.32-1.2.81-2.96.97-1.72.17-3.11.68-4.22 1.17-1.11.49-2.04 1.02-2.8 1.59-.74.57-2.9 2.11-2.9 4.88 0 1.66.5 3.05 1.64 4.03 1.54 1.33 3.84 1.93 6.73 1.67 3.38-.3 6.98-1.67 6.98-1.67 0 .05.39.32 1.16.82.78.49 1.53.7 2.25.66 2.12 0 2.67-1.72 2.64-2.25-.1-1.72-2.1-1.3-2.17-3.3-.02-.7-.08-1.77-.08-3.22-.05-1.7-.06-3.02-.04-3.95.03-.93.04-1.63.04-2.1-.15-1.75-.4-3.61-2.57-4.94-1.4-.86-3.35-1.45-6.48-1.45zm2.03 11.9c.5-.02.94.05 1.13.31.61.86.4 2.03.12 2.4-.28.37-1.21 1.11-3.14 1.64-.69.18-1.3.28-1.87.23a2 2 0 0 1-1.31-.39c-.31-.26-.5-.51-.55-.77a1.6 1.6 0 0 1 .2-1.4c.28-.46.82-.85 1.63-1.16.8-.31 1.59-.53 2.36-.66.39-.07.93-.17 1.43-.2z" fill="url(#d)"/></svg>