<svg xmlns="http://www.w3.org/2000/svg" xmlns:xlink="http://www.w3.org/1999/xlink" width="64" height="64"><defs><linearGradient id="b"><stop offset="0" stop-color="gray"/><stop offset="1" stop-color="#e6e6e6"/></linearGradient><linearGradient id="a"><stop offset="0"/><stop offset="1" stop-color="#333"/></linearGradient><linearGradient xlink:href="#c" id="s" x1="1.05" y1="7.1" x2="1.11" y2=".19" gradientUnits="userSpaceOnUse" gradientTransform="matrix(4.92522 0 0 4.92522 .72 .65)"/><linearGradient id="c"><stop offset="0"/><stop offset=".45" stop-color="#333"/><stop offset="1"/></linearGradient><radialGradient xlink:href="#d" id="r" gradientUnits="userSpaceOnUse" gradientTransform="matrix(-.47683 0 0 5.56396 59.28 -375.29)" cx="20.67" cy="74.12" fx="20.67" fy="74.12" r="2.45"/><linearGradient id="d"><stop offset="0" stop-color="#fff"/><stop offset="1" stop-color="#fff" stop-opacity="0"/></linearGradient><radialGradient xlink:href="#d" id="q" gradientUnits="userSpaceOnUse" gradientTransform="matrix(.47683 0 0 -4.07839 32.45 284.07)" cx="38.92" cy="60.77" fx="38.92" fy="60.77" r="2.83"/><linearGradient xlink:href="#e" id="p" gradientUnits="userSpaceOnUse" gradientTransform="matrix(-.47683 0 0 .54488 69.08 5.38)" x1="37.08" y1="99.37" x2="36.78" y2="58.49"/><linearGradient id="e"><stop offset="0"/><stop offset="1" stop-opacity="0"/></linearGradient><linearGradient gradientTransform="translate(15.86 -5.85) scale(7.53638)" xlink:href="#f" id="o" gradientUnits="userSpaceOnUse" x1="-9.34" y1="5.27" x2="-9.34" y2="7.86"/><linearGradient id="f"><stop offset="0" stop-color="#ccc"/><stop offset="1" stop-color="#4d4d4d"/></linearGradient><radialGradient xlink:href="#d" id="n" gradientUnits="userSpaceOnUse" gradientTransform="matrix(.47683 0 0 5.56396 4.72 -375.29)" cx="20.67" cy="74.12" fx="20.67" fy="74.12" r="2.45"/><radialGradient xlink:href="#d" id="m" gradientUnits="userSpaceOnUse" gradientTransform="matrix(-.47683 0 0 -4.07839 31.55 284.07)" cx="38.92" cy="60.77" fx="38.92" fy="60.77" r="2.83"/><linearGradient xlink:href="#e" id="l" gradientUnits="userSpaceOnUse" gradientTransform="matrix(.47683 0 0 .54488 -5.08 5.38)" x1="37.08" y1="99.37" x2="36.78" y2="58.49"/><linearGradient gradientTransform="translate(63.1 -5.85) scale(7.53638)" xlink:href="#f" id="k" gradientUnits="userSpaceOnUse" x1="-9.34" y1="5.27" x2="-9.34" y2="7.86"/><linearGradient xlink:href="#g" id="j" x1="6.15" y1="2.38" x2="6.12" y2="1.11" gradientUnits="userSpaceOnUse" gradientTransform="matrix(4.92522 0 0 4.92522 .72 .65)"/><linearGradient id="g"><stop offset="0" stop-color="#333"/><stop offset="1"/></linearGradient><linearGradient gradientTransform="translate(-.68 -.76) scale(5.14369)" xlink:href="#h" id="i" x1="6.06" y1="4.21" x2="5.85" y2="10.2" gradientUnits="userSpaceOnUse"/><linearGradient id="h"><stop offset="0" stop-color="#ff0"/><stop offset="1" stop-color="#a00"/></linearGradient></defs><path d="M14.6 46.3h8.96l1.43-13.41.75 18.38.68-12.05 1.51 22.6 1.43-32.33.76 28.27.67-18.47.76 4.98 1.43-9.88.75 24.72.68-18.39 1.43 10.63.76-9.2.75 4.23V33.34l1.43 19.37 1.43-10.63.76 4.22h17.48" fill="none" stroke="url(#i)" stroke-width=".68" stroke-linejoin="round"/><path d="M30.87 6.13A22.38 22.38 0 0 0 8.26 28.6v1.05c0-7.83 4.07-14.7 10.1-18.76l1.05.53 1.06.52 1.05-.6a22.11 22.11 0 0 1 9.2-1.96h2.34c3.31 0 6.48.76 9.26 1.96l.98.6 1.06-.52 1.13-.53a22.63 22.63 0 0 1 10.02 18.84v-1.13A22.38 22.38 0 0 0 33.13 6.13z" fill="url(#j)"/><path d="M11.58 36.2s-2.11 5.35-5.35 5.35a1.06 1.06 0 0 0-1.06 1.06v6.48c0 .6.45 1.05 1.06 1.05 3.24 0 5.35 5.35 5.35 5.35z"/><rect width="2.11" x="-9.47" y="33.87" rx="1.96" height="19.52" ry="1.96" transform="scale(-1 1)" fill="url(#k)"/><circle cx="8.34" cy="45.85" r="1.06" fill="#2b2d30"/><path d="M14.67 32.73a1.58 1.58 0 0 1 1.28-.6c.15 0 .3.23.3.45 0 0-.45 6.94-.45 13.42 0 6.56.22 12.58.22 12.58 0 .16 0 .76-.6.76h-.3c-.45 0-1.13-.76-1.13-.9V46.06c0-6.55.3-12.8.3-12.8 0-.16.23-.46.38-.54z" fill="#555753"/><path d="M17.3 32.2h.15c.9 0 1.89.69 1.96 3.32l-.15 9.88.15 9.94c0 2.57-1.28 3.77-2.48 3.77h-.3c-.53 0-.6-.37-.6-.53 0 0-.38-6.48-.38-12.96.07-6.4.6-12.81.6-12.81 0-.53.53-.75.98-.75z"/><path d="M13.91 32.81H14c.3 0 .3.23.3.75 0 0-.15 2.94-.23 9.05v15.45c0 .3-.22.52-.37.52-.76 0-2.11-1.73-2.11-3.54V35.82c0-.22 1.2-3.01 2.26-3.01z" fill="#b5b5b5"/><path d="M13.84 32.73h.15c.22 0 .22.3.22.9 0 0-.15 2.87-.22 8.98v15.37c0 .3-.15.53-.3.53-.76 0-2.11-1.66-2.11-3.47v-19.3c0-.14 1.13-3 2.26-3z" opacity=".66" fill="url(#l)"/><path d="M13.76 33.19c-1.05.22-2.1 2.79-2.18 3.01v9.65c.6-2.34 1.5-4.37 2.56-6.03l.15-5.73a2.26 2.26 0 0 0 0-.75v-.08h-.53z" opacity=".66" fill="url(#m)"/><path d="M14.74 32.73c.15-.15.45-.37 1.13-.37.15 0-.6 3.39-.22 1.5 0 0-.76 5.43-.76 11.99l.23 13.34c-.45 0-.98-.76-.98-.98 0 0 .15-5.73.15-12.29 0-6.48.15-12.5.15-12.5 0-.23.15-.53.3-.69z" opacity=".57" fill="url(#n)"/><path d="M52.42 36.2s2.11 5.35 5.35 5.35c.6 0 1.06.45 1.06 1.06v6.48c0 .6-.45 1.05-1.06 1.05-3.24 0-5.35 5.35-5.35 5.35z"/><rect transform="scale(-1 1)" ry="1.96" height="19.52" rx="1.96" y="33.87" x="-56.72" width="2.11" fill="url(#o)"/><circle transform="scale(-1 1)" r="1.06" cy="45.85" cx="-55.66" fill="#2b2d30"/><path d="M49.33 32.73a1.58 1.58 0 0 0-1.28-.6c-.15 0-.3.23-.3.45a239.05 239.05 0 0 0 .23 26c0 .16 0 .76.6.76h.3c.45 0 1.13-.76 1.13-.9V46.06c0-6.55-.3-12.8-.3-12.8 0-.16-.23-.46-.38-.54z" fill="#555753"/><path d="M46.7 32.2h-.15c-.9 0-1.89.69-1.96 3.32l.15 9.95-.15 9.95c0 2.56 1.28 3.77 2.48 3.77h.3c.53 0 .6-.38.6-.53 0 0 .38-6.48.38-12.96-.07-6.4-.6-12.81-.6-12.81 0-.53-.53-.76-.98-.76z"/><path d="M50.09 32.81H50c-.3 0-.3.23-.3.75 0 0 .15 2.94.23 9.05v15.45c0 .3.22.52.37.52.76 0 2.11-1.73 2.11-3.54V35.82c0-.22-1.2-3.01-2.26-3.01z" fill="#b5b5b5"/><path d="M50.16 32.73h-.15c-.22 0-.22.3-.22.9 0 0 .15 2.87.22 8.98v15.37c0 .3.15.53.3.53.76 0 2.11-1.66 2.11-3.47v-19.3c0-.14-1.13-3-2.26-3z" opacity=".66" fill="url(#p)"/><path d="M50.24 33.19c1.05.22 2.1 2.79 2.18 3.01v9.65c-.6-2.34-1.5-4.37-2.56-6.03l-.15-5.73a2.26 2.26 0 0 1 0-.75v-.08h.53z" opacity=".66" fill="url(#q)"/><path d="M49.26 32.73c-.15-.15-.45-.37-1.13-.37-.15 0 .6 3.39.22 1.5 0 0 .76 5.43.76 11.99l-.23 13.34c.45 0 .98-.76.98-.98 0 0-.15-5.73-.15-12.29 0-6.48-.15-12.5-.15-12.5 0-.23-.15-.53-.3-.69z" opacity=".57" fill="url(#r)"/><path d="M32 1.84A25.7 25.7 0 0 0 6.23 27.6v7.54c0 .6.45 1.05 1.05 1.05h2.19c.6 0 1.05-.45 1.05-1.05v-9.73a21.48 21.48 0 1 1 42.96 0v9.73c0 .6.45 1.05 1.05 1.05h2.19c.53 0 1.05-.45 1.05-1.05V27.6A25.71 25.71 0 0 0 32 1.84z" fill="url(#s)"/></svg>