<svg xmlns="http://www.w3.org/2000/svg" xmlns:xlink="http://www.w3.org/1999/xlink" width="64" height="64" viewBox="0 0 60 60"><defs><linearGradient id="c" gradientUnits="userSpaceOnUse" x1="40.12" y1="49" x2="48.12" y2="49"><stop stop-color="#333" offset="0"/><stop stop-color="#1a1a1a" offset=".51"/><stop offset="1"/></linearGradient><linearGradient id="a"><stop offset="0"/><stop offset="1" stop-color="#4d4d4d"/></linearGradient><linearGradient id="n"><stop offset="0" stop-color="#fff"/><stop offset="1" stop-color="#fff" stop-opacity="0"/></linearGradient><linearGradient id="b"><stop offset="0" stop-color="#666"/><stop offset="1" stop-color="gray"/></linearGradient><linearGradient y2="49" x2="48.12" y1="49" x1="40.12" gradientUnits="userSpaceOnUse" id="h"><stop offset="0" stop-color="#008e00"/><stop offset="1" stop-color="#004d00"/></linearGradient><linearGradient id="d"><stop offset="0" stop-color="#1a1a1a"/><stop offset=".5" stop-color="#e6e6e6"/><stop offset="1" stop-color="#ececec" stop-opacity=".618"/></linearGradient><linearGradient id="g"><stop offset="0" stop-color="#c3ff6a"/><stop offset="1" stop-color="#a6ff88" stop-opacity="0"/></linearGradient><radialGradient id="e" cx="23.78" cy="100" r="25.2" gradientUnits="userSpaceOnUse"><stop offset="0"/><stop offset=".5" stop-color="#333"/><stop offset="1"/></radialGradient><radialGradient gradientUnits="userSpaceOnUse" fy="88.67" fx="17.12" r="14" cy="94" cx="19.78" id="f"><stop offset="0" stop-color="#fff"/><stop offset=".5" stop-color="#fff" stop-opacity=".71"/><stop offset="1" stop-color="#fff" stop-opacity="0"/></radialGradient><radialGradient gradientUnits="userSpaceOnUse" id="i" r="26.42" cy="18.09" cx="54.21"/><radialGradient gradientUnits="userSpaceOnUse" fy="88.67" fx="17.12" r="14" cy="94" cx="19.78" id="j"><stop offset="0" stop-color="#fff"/><stop offset=".5" stop-color="#fff" stop-opacity=".71"/><stop offset="1" stop-color="#fff" stop-opacity="0"/></radialGradient><linearGradient xlink:href="#k" id="B" gradientUnits="userSpaceOnUse" x1="31.784" y1="25.289" x2="34.514" y2="25.289"/><linearGradient id="k"><stop offset="0" stop-color="#333"/><stop offset="1"/></linearGradient><linearGradient xlink:href="#d" id="C" gradientUnits="userSpaceOnUse" x1="44.14" y1="3.49" x2="44.14" y2="94.16"/><filter x="-.56" width="2.12" y="-.01" height="1.02" id="D"><feGaussianBlur stdDeviation=".47"/></filter><linearGradient xlink:href="#l" id="E" gradientUnits="userSpaceOnUse" x1="16.778" y1="43.229" x2="34.514" y2="39.884"/><linearGradient id="l"><stop offset="0"/><stop offset=".483" stop-color="#333"/><stop offset="1"/></linearGradient><radialGradient xlink:href="#m" id="F" gradientUnits="userSpaceOnUse" gradientTransform="matrix(.68623 -.27888 .26073 .68336 -.07 33.86)" cx="22.5" cy="91.36" fx="19.84" fy="86.02" r="14"/><radialGradient gradientUnits="userSpaceOnUse" fy="88.67" fx="17.12" r="14" cy="94" cx="19.78" id="m"><stop offset="0" stop-color="#fff"/><stop offset=".5" stop-color="#fff" stop-opacity=".71"/><stop offset="1" stop-color="#fff" stop-opacity="0"/></radialGradient><filter id="G"><feGaussianBlur stdDeviation=".61"/></filter><radialGradient xlink:href="#n" id="H" cx="47.005" cy="109.679" fx="47.005" fy="109.679" r="13.788" gradientTransform="matrix(1 0 0 .5868 0 45.319)" gradientUnits="userSpaceOnUse"/><filter x="-.07" width="1.15" y="-.14" height="1.28" id="I"><feGaussianBlur stdDeviation=".73"/></filter><linearGradient xlink:href="#o" id="J" gradientUnits="userSpaceOnUse" x1="34.514" y1="16.884" x2="43.589" y2="26.185"/><linearGradient id="o"><stop offset="0"/><stop offset="1" stop-color="#333"/></linearGradient><radialGradient xlink:href="#n" id="K" cx="81.44" cy="40.175" fx="81.44" fy="40.175" r="8.04" gradientTransform="matrix(1 0 0 1.76493 0 -30.73)" gradientUnits="userSpaceOnUse"/><filter id="L"><feGaussianBlur stdDeviation=".37"/></filter><filter x="-.56" width="2.12" y="-.01" height="1.02" id="s"><feGaussianBlur stdDeviation=".47"/></filter><radialGradient xlink:href="#p" id="u" gradientUnits="userSpaceOnUse" gradientTransform="matrix(.68623 -.27888 .26073 .68336 -.07 33.86)" cx="22.5" cy="91.36" fx="19.84" fy="86.02" r="14"/><radialGradient gradientUnits="userSpaceOnUse" fy="88.67" fx="17.12" r="14" cy="94" cx="19.78" id="p"><stop offset="0" stop-color="#fff"/><stop offset=".5" stop-color="#fff" stop-opacity=".71"/><stop offset="1" stop-color="#fff" stop-opacity="0"/></radialGradient><filter id="v"><feGaussianBlur stdDeviation=".61"/></filter><radialGradient xlink:href="#n" id="w" cx="47.005" cy="109.679" fx="47.005" fy="109.679" r="13.788" gradientTransform="matrix(1 0 0 .5868 0 45.319)" gradientUnits="userSpaceOnUse"/><filter x="-.07" width="1.15" y="-.14" height="1.28" id="x"><feGaussianBlur stdDeviation=".73"/></filter><radialGradient xlink:href="#n" id="z" cx="81.44" cy="40.175" fx="81.44" fy="40.175" r="8.04" gradientTransform="matrix(1 0 0 1.76493 0 -30.73)" gradientUnits="userSpaceOnUse"/><filter id="A"><feGaussianBlur stdDeviation=".37"/></filter><linearGradient xlink:href="#k" id="q" gradientUnits="userSpaceOnUse" x1="31.784" y1="25.289" x2="34.514" y2="25.289"/><linearGradient xlink:href="#d" id="r" gradientUnits="userSpaceOnUse" x1="44.14" y1="3.49" x2="44.14" y2="94.16"/><linearGradient xlink:href="#l" id="t" gradientUnits="userSpaceOnUse" x1="16.778" y1="43.229" x2="34.514" y2="39.884"/><linearGradient xlink:href="#o" id="y" gradientUnits="userSpaceOnUse" x1="34.514" y1="16.884" x2="43.589" y2="26.185"/></defs><path d="M31.784 8.052h2.73v34.473l-2.73-1.823z" fill="url(#q)" transform="translate(-7.483 -6.621) scale(1.01189)"/><path d="M43.12 3v90.66l2 .5V3z" transform="matrix(.54585 0 0 -.35889 1.482 35.696)" opacity=".7" fill="url(#r)" filter="url(#s)"/><path d="M17.117 46.043c1.337 2.767 6.23 3.756 10.947 2.199 4.709-1.558 7.448-5.057 6.11-7.833-1.337-2.767-6.229-3.747-10.947-2.19-4.709 1.558-7.448 5.057-6.11 7.824z" fill="url(#t)" transform="translate(-7.483 -6.621) scale(1.01189)"/><path d="M34.45 87.55c-7.63 4.16-12.1 10.31-9.57 13.16 1.1 1.24 3.23 1.54 4.82 1.57 4.13.08 9.45-1.43 14.24-4.04 7.63-4.17 12.1-10.32 9.56-13.16-1.1-1.24-3.23-1.54-4.82-1.57-4.12-.08-9.44 1.43-14.23 4.04z" transform="matrix(.41433 -.04846 .04243 .3325 -4.417 6.392)" opacity=".8" fill="url(#u)" filter="url(#v)"/><path d="M46.87 109c-7.17 1.88-12.58.6-11.92 3.13.27 1.05 1.3 1.84 2.12 2.31 2.24 1.31 6.43 2.24 11.47.92 7.17-1.88 10.92-6.96 10.26-9.5-.27-1.04-1.3-1.82-2.12-2.3-2.24-1.31-4.77 4.12-9.8 5.44z" transform="matrix(.42501 .0184 -.05554 .42577 5.156 -8.777)" opacity=".6" fill="url(#w)" filter="url(#x)"/><path d="M38.004 14.254c-1.842-2.198-2.776-4.882-3.463-6.202l-.027 8.832c12.477 5.24 4.415 19.174 4.415 19.174 9.225-9.482.77-19.788-.916-21.804z" fill="url(#y)" transform="translate(-7.483 -6.621) scale(1.01189)"/><path transform="matrix(.54585 0 0 .54485 -12.947 -11.56)" d="M79.26 35.83c-3.12-3.83-3.78-6.4-4.52-7.48 0 11.96 3.9 11.82.32 11.13C81.4 42.74 86.28 47.23 88.14 52c-2.09-7.85-6.25-12.94-8.88-16.17z" fill="url(#z)" filter="url(#A)"/><g><path d="M31.784 8.052h2.73v34.473l-2.73-1.823z" fill="url(#B)" transform="translate(8.503 8.911) scale(1.01189)"/><path d="M43.12 3v90.66l2 .5V3z" transform="matrix(.54585 0 0 -.35889 17.468 51.229)" opacity=".7" fill="url(#C)" filter="url(#D)"/><path d="M17.117 46.043c1.337 2.767 6.23 3.756 10.947 2.199 4.709-1.558 7.448-5.057 6.11-7.833-1.337-2.767-6.229-3.747-10.947-2.19-4.709 1.558-7.448 5.057-6.11 7.824z" fill="url(#E)" transform="translate(8.503 8.911) scale(1.01189)"/><path d="M34.45 87.55c-7.63 4.16-12.1 10.31-9.57 13.16 1.1 1.24 3.23 1.54 4.82 1.57 4.13.08 9.45-1.43 14.24-4.04 7.63-4.17 12.1-10.32 9.56-13.16-1.1-1.24-3.23-1.54-4.82-1.57-4.12-.08-9.44 1.43-14.23 4.04z" transform="matrix(.41433 -.04846 .04243 .3325 11.569 21.924)" opacity=".8" fill="url(#F)" filter="url(#G)"/><path d="M46.87 109c-7.17 1.88-12.58.6-11.92 3.13.27 1.05 1.3 1.84 2.12 2.31 2.24 1.31 6.43 2.24 11.47.92 7.17-1.88 10.92-6.96 10.26-9.5-.27-1.04-1.3-1.82-2.12-2.3-2.24-1.31-4.77 4.12-9.8 5.44z" transform="matrix(.42501 .0184 -.05554 .42577 21.141 6.756)" opacity=".6" fill="url(#H)" filter="url(#I)"/><path d="M38.004 14.254c-1.842-2.198-2.776-4.882-3.463-6.202l-.027 8.832c12.477 5.24 4.415 19.174 4.415 19.174 9.225-9.482.77-19.788-.916-21.804z" fill="url(#J)" transform="translate(8.503 8.911) scale(1.01189)"/><path transform="matrix(.54585 0 0 .54485 3.039 3.973)" d="M79.26 35.83c-3.12-3.83-3.78-6.4-4.52-7.48 0 11.96 3.9 11.82.32 11.13C81.4 42.74 86.28 47.23 88.14 52c-2.09-7.85-6.25-12.94-8.88-16.17z" fill="url(#K)" filter="url(#L)"/></g></svg>