<svg xmlns="http://www.w3.org/2000/svg" xmlns:xlink="http://www.w3.org/1999/xlink" width="64" height="64" version="1"><defs><linearGradient id="b"><stop offset="0" stop-color="#333"/><stop offset="1"/></linearGradient><linearGradient id="a"><stop offset="0" stop-color="#4d4d4d"/><stop offset="1"/></linearGradient><radialGradient xlink:href="#b" id="c" cx="15.7" cy="14.09" fx="15.7" fy="14.09" r="30" gradientTransform="matrix(1.06328 .90283 -1.0272 1.20976 13.48 -13.61)" gradientUnits="userSpaceOnUse"/></defs><path d="M19.14 7.9a7.5 7.5 0 0 0-6.76 4.28H9.5a7.5 7.5 0 0 0-7.5 7.5v19.28a7.5 7.5 0 0 0 7.5 7.5H13a7.5 7.5 0 0 0 6.14 3.22h2.23a7.5 7.5 0 0 0 7.42 6.43h6.42a7.5 7.5 0 0 0 7.42-6.43h2.23A7.5 7.5 0 0 0 51 46.46h3.5a7.5 7.5 0 0 0 7.5-7.5V19.68a7.5 7.5 0 0 0-7.5-7.5h-2.88a7.5 7.5 0 0 0-6.76-4.29h-6.43A7.5 7.5 0 0 0 32 11.55a7.5 7.5 0 0 0-6.43-3.66z" fill="url(#c)"/><path d="M19.14 16.8v4.28h6.43V16.8zm19.29 0v4.28h6.43V16.8zM9.5 21.08v4.29h6.43v-4.29zm38.57 0v4.29h6.43v-4.29zM28.8 23.23v4.28h6.42v-4.28zm-9.65 1.07v4.28h6.43V24.3zm19.29 0v4.28h6.43V24.3zM9.5 28.58v4.29h6.43v-4.29zm38.57 0v4.29h6.43v-4.29zM28.8 30.73V35h6.42v-4.28zm-9.65 1.07v4.28h6.43V31.8zm19.29 0v4.28h6.43V31.8zM9.5 36.08v4.29h6.43v-4.29zm38.57 0v4.29h6.43v-4.29zM28.8 38.23v4.28h6.42v-4.28zm-9.65 1.07v4.28h6.43V39.3zm19.29 0v4.28h6.43V39.3zm-9.64 6.43V50h6.42v-4.28z" fill="#a02c89"/><path d="M19.14 15.4v4.28h6.43v-4.29zm19.29 0v4.28h6.43v-4.29zM9.5 19.67v4.28h6.43v-4.28zm38.57 0v4.28h6.43v-4.28zM28.8 21.82v4.29h6.42v-4.29zm-9.65 1.07v4.29h6.43v-4.29zm19.29 0v4.29h6.43v-4.29zM9.5 27.18v4.28h6.43v-4.28zm38.57 0v4.28h6.43v-4.28zM28.8 29.32v4.29h6.42v-4.29zm-9.65 1.07v4.29h6.43v-4.29zm19.29 0v4.29h6.43v-4.29zM9.5 34.68v4.28h6.43v-4.28zm38.57 0v4.28h6.43v-4.28zM28.8 36.82v4.29h6.42v-4.29zm-9.65 1.07v4.29h6.43v-4.29zm19.29 0v4.29h6.43v-4.29zm-9.64 6.43v4.29h6.42v-4.29z" fill="#de87cd"/></svg>