<?xml version="1.0" encoding="UTF-8" standalone="no"?><!--Created with Inkscape (http://www.inkscape.org/)--><svg xmlns:dc="http://purl.org/dc/elements/1.1/" xmlns:cc="http://creativecommons.org/ns#" xmlns:rdf="http://www.w3.org/1999/02/22-rdf-syntax-ns#" xmlns="http://www.w3.org/2000/svg" xmlns:xlink="http://www.w3.org/1999/xlink" width="64" height="64"><metadata><rdf:RDF><cc:Work><dc:format>image/svg+xml</dc:format><dc:type rdf:resource="http://purl.org/dc/dcmitype/StillImage"/><dc:title/></cc:Work></rdf:RDF></metadata><defs><linearGradient id="b"><stop offset="0" stop-color="#333"/><stop offset="1" stop-color="#333" stop-opacity=".02"/></linearGradient><linearGradient id="a"><stop offset="0" stop-color="#fff"/><stop offset="1" stop-color="#fff" stop-opacity="0"/></linearGradient><linearGradient id="g" x1="-20.75" x2="-19.5" y1="29" y2="18.75" gradientTransform="matrix(2.21215 0 0 2.75185 73.2 -37.09)" gradientUnits="userSpaceOnUse" xlink:href="#b"/><linearGradient id="f" x1="-15.06" x2="-19.2" y1="33.74" y2="26.49" gradientTransform="matrix(2.22734 0 0 2.99711 73.8 -45.26)" gradientUnits="userSpaceOnUse"><stop offset="0" stop-color="#002b00"/><stop offset="1" stop-color="#0a0"/></linearGradient><linearGradient id="e" x1="-15.86" x2="-11.91" y1="25.28" y2="30.3" gradientTransform="matrix(2.21654 0 0 3.01138 73.32 -45.53)" gradientUnits="userSpaceOnUse"><stop offset="0" stop-color="#00f"/><stop offset="1" stop-color="#005"/></linearGradient><linearGradient id="d" x1="-25.29" x2="-16.96" y1="17.74" y2="32.4" gradientTransform="matrix(2.21668 0 0 2.76665 73.32 -37.67)" gradientUnits="userSpaceOnUse"><stop offset="0" stop-color="#333"/><stop offset="1"/></linearGradient><linearGradient id="c" x1="8.81" x2="19.73" y1="5.94" y2="29.86" gradientUnits="userSpaceOnUse" gradientTransform="matrix(1.33294 0 0 1.33294 .02 0)"><stop offset="0" stop-color="#333"/><stop offset="1"/></linearGradient></defs><path d="M32 6.66C21.82 6.6 11.07 11.52 6.23 20.83c-2.19 3.89-2.3 8.4-2.2 12.74A19.26 19.26 0 0 0 8.84 47.7c4.6 5.18 11.04 8.23 17.82 9.25V28.12h33.24c-.76-8.74-7.57-15.89-15.5-19.04a32.7 32.7 0 0 0-12.4-2.42z" fill="url(#c)"/><path d="M57.75 29.94C54.69 21.14 44.33 14.66 32 14.66c-12.33 0-22.69 6.48-25.74 15.28h-.92v5.38c0 11.41 11.93 20.66 26.66 20.66 14.72 0 26.65-9.25 26.65-20.66v-5.38h-.91z"/><path d="M58.66 29.99c0 12.15-11.93 22-26.65 22-14.73 0-26.66-9.85-26.66-22s11.93-22 26.66-22c14.72 0 26.65 9.85 26.65 22z" fill="url(#d)"/><path d="M41.21 28.12V56.1c7.83-2.13 15.24-7.32 17.91-15.2 1.3-3.95.8-8.13.84-12.21l-.05-.58h-18.7z" fill="#00002b"/><path d="M58.66 35.99l-.03-5.8c-3.06 12.05-9.94 17.16-18.58 19.66v5.2c9.28-2.24 18.08-9.12 18.61-19.06z" fill="#00002b"/><path d="M58.66 28.11c.95 16.37-15.2 22.16-17.64 22.54L32 28l26.65.11z" fill="url(#e)"/><path d="M26.67 54.65v2.29a35.73 35.73 0 0 0 14.54-.83v-1.46H26.67z" fill="#002b00"/><path d="M26.67 51.11c4.99.63 9.56.74 14.5-.45l.04 4.12c-4.13 1.31-10.54 1.51-14.54.8v-4.47z" fill="#002b00"/><path d="M32 27.99l9.2 22.66c-6.53 2.11-13.2 1.33-14.53.82z" fill="url(#f)"/><path d="M58 29.99c0 11.78-11.64 21.33-26 21.33-14.35 0-25.99-9.55-25.99-21.33 0-11.78 11.64-21.33 26-21.33C46.36 8.66 58 18.21 58 30z" display="block" opacity=".31" fill="none" stroke="url(#g)"/></svg>