<svg xmlns="http://www.w3.org/2000/svg" xmlns:xlink="http://www.w3.org/1999/xlink" width="64" height="64" version="1"><defs><linearGradient id="a"><stop offset="0" stop-color="#4d4d4d"/><stop offset="1"/></linearGradient><radialGradient xlink:href="#a" id="b" cx="16" cy="19.25" fx="16" fy="19.25" r="28" gradientUnits="userSpaceOnUse" gradientTransform="matrix(.88378 .33898 -.35812 .93367 8.75 -4.15)"/></defs><path d="M32 4C16.49 4 4 16.49 4 32s12.49 28 28 28 28-12.49 28-28S47.51 4 32 4z" fill="url(#b)"/><path d="M28.09 16.18v5.6h-7v2.8h2.35c1.32 0 1.7.94 1.85 1.54v13.87c-.04.38 0 1.4-.9 1.44h-3.3v2.8h7v5.59l2.8-.04v-5.55h2.75l.12 5.59h2.8l-.08-5.6c8.43 0 8.43-4.23 8.43-6.3 0-2.12-.87-4.92-4.2-4.92 1.89 0 2.8-3.18 2.8-5.6 0-3.17-2.8-5.63-7-5.63v-5.59h-2.8v5.6h-2.83v-5.6zm2.8 8.4c2.83 0 7.02 0 7.02 3.5 0 3.52-4.2 3.52-7.03 3.52zm0 9.82c5.63 0 8.42 0 8.42 3.51 0 3.52-2.8 3.52-8.43 3.52z" opacity=".2" fill="#ff0"/><path d="M26.09 14.18v5.6h-7v2.8h2.35c1.32 0 1.7.94 1.85 1.54v13.87c-.04.38 0 1.4-.9 1.44h-3.3v2.8h7v5.59l2.8-.04v-5.55h2.75l.12 5.59h2.8l-.08-5.6c8.43 0 8.43-4.23 8.43-6.3 0-2.12-.87-4.92-4.2-4.92 1.89 0 2.8-3.18 2.8-5.6 0-3.17-2.8-5.63-7-5.63v-5.59h-2.8v5.6h-2.83v-5.6zm2.8 8.4c2.83 0 7.02 0 7.02 3.5 0 3.52-4.2 3.52-7.03 3.52zm0 9.82c5.63 0 8.42 0 8.42 3.51 0 3.52-2.8 3.52-8.43 3.52z" fill="#ff0"/></svg>