<svg xmlns="http://www.w3.org/2000/svg" width="64" height="64" version="1"><defs><linearGradient id="i"><stop offset="0"/><stop offset=".36" stop-color="#1c241c"/><stop offset="1" stop-color="#0f0"/></linearGradient><linearGradient id="f"><stop stop-color="#d40000" offset="0"/><stop stop-color="#ff8080" offset="1"/></linearGradient><linearGradient id="b"><stop offset="0" stop-color="#333"/><stop offset=".5"/><stop offset="1"/></linearGradient><linearGradient id="a"><stop offset="0" stop-color="#fdfdfd"/><stop offset="1" stop-color="#fdfdfd" stop-opacity="0"/></linearGradient><linearGradient id="c"><stop offset="0"/><stop offset="1" stop-color="#e6e6e6"/></linearGradient><linearGradient id="d"><stop offset="0" stop-color="#d40000"/><stop offset="1" stop-color="#ff8080"/></linearGradient><linearGradient id="e"><stop offset="0"/><stop stop-color="#4d4d4d" offset="1"/></linearGradient><linearGradient id="g"><stop offset="0"/><stop offset="1" stop-opacity="0"/></linearGradient><linearGradient id="h" y1="544.8" y2="503.8" gradientUnits="userSpaceOnUse" x2="0" gradientTransform="translate(-384.57 -499.8)"><stop stop-color="#4ea979"/><stop offset="1" stop-color="#5eb085"/></linearGradient><linearGradient gradientUnits="userSpaceOnUse" x2="0" y2="503.8" y1="544.8" id="j"><stop offset="0" stop-color="#44484c"/><stop stop-color="#1d1e1e" offset="1"/></linearGradient></defs><path d="M36.7 3.02l-9.73.06c-1.06.16-2.25 1.04-2.25 1.04.02.01.05-.03.08-.03.82-.49 2.1-.58 2.9.23l1.77 3.04 3.02 5.24 3.81 6.6c-1.72.98-5.02 2.9-5.02 2.9l15.84 4.24 4.25-15.83-5.03 2.89-5.24-9.08c-.59-.83-1.56-1.14-2.39-1.28a25.6 25.6 0 0 0-2.02-.02zM19.29 24.39L3.45 28.63l5.02 2.9-5.24 9.08c-.43.93-.21 1.92.08 2.71a2645.03 2645.03 0 0 0 5.9 10.14 6.24 6.24 0 0 0 2.04 1.44c0-.03-.06-.03-.07-.06-.83-.46-1.56-1.53-1.26-2.63l1.76-3.05 3.02-5.23 3.81-6.6c1.71 1 5.02 2.9 5.02 2.9zM42.13 37.8l-11.6 11.6 11.6 11.59v-5.8h10.49c1-.1 1.76-.78 2.3-1.43.11-.15.56-.9 1.03-1.73 0 0 4.6-8.06 4.8-8.45.4-1 .23-2.48.23-2.48-.02.02 0 .07-.02.09.02.95-.54 2.11-1.65 2.4H42.13v-5.8z"/><path d="M16.04 18.28l9.82 5.69c.03-.02.9-1.48 1.93-3.27l3.29-5.66 1.4-2.44-4.77-8.28a2.25 2.25 0 0 0-2.93-.22c-.53.42-.7.62-1.16 1.4-.66 1.08-7.57 12.78-7.58 12.78M52.8 26.36l-9.58 5.8c0 .04.83 1.53 1.86 3.31l3.26 5.68 1.41 2.44h9.56c1.12-.29 1.8-1.39 1.65-2.43-.1-.66-.19-.91-.62-1.7-.61-1.11-7.54-13.09-7.54-13.1M27.63 55.19v-11.6H14.7l-4.78 8.62c-.3 1.11.31 2.25 1.28 2.65.63.24.89.29 1.79.3 1.27.03 14.63.02 14.65.03" fill="gray"/></svg>