<svg xmlns="http://www.w3.org/2000/svg" xmlns:xlink="http://www.w3.org/1999/xlink" width="64" height="64" version="1"><defs><linearGradient id="o"><stop offset="0" stop-color="#67a4f2"/><stop offset="1"/></linearGradient><linearGradient id="p"><stop offset="0" stop-color="#4d4d4d"/><stop offset="1"/></linearGradient><linearGradient id="l"><stop offset="0" stop-color="#910000"/><stop offset="1" stop-color="#ff9506"/></linearGradient><linearGradient id="j"><stop offset="0"/><stop offset="1" stop-opacity="0"/></linearGradient><linearGradient id="i"><stop offset="0" stop-color="#67a4f2"/><stop offset="1" stop-color="#1161c7"/></linearGradient><linearGradient id="h"><stop offset="0" stop-color="#ffbf38"/><stop offset="1" stop-color="#cf6600"/></linearGradient><linearGradient id="g"><stop offset="0" stop-color="#9d4600"/><stop offset="1" stop-color="#ff7f15"/></linearGradient><linearGradient id="c"><stop offset="0" stop-color="#fff"/><stop offset="1" stop-color="#fff" stop-opacity="0"/></linearGradient><linearGradient id="b"><stop offset="0" stop-color="#fcfcfc"/><stop offset=".52" stop-color="#f8f8f8"/><stop offset=".77" stop-color="#f0efef"/><stop offset=".9" stop-color="#e3e1e1"/><stop offset="1" stop-color="#cecbcb"/></linearGradient><linearGradient id="m"><stop offset="0" stop-color="#fff"/><stop offset="1" stop-color="#fff" stop-opacity="0"/></linearGradient><linearGradient xlink:href="#b" id="a" gradientUnits="userSpaceOnUse" gradientTransform="matrix(1.01199 0 0 1.01199 -.9 -.99)" x1="86.74" y1="93.62" x2="95.46" y2="102.34"/><linearGradient id="d"><stop offset="0" stop-color="#fff"/><stop offset="1" stop-color="#dadada"/></linearGradient><linearGradient id="e"><stop offset="0" stop-color="#fff"/><stop offset="1" stop-color="#fff" stop-opacity="0"/></linearGradient><linearGradient id="f"><stop offset="0" stop-color="#fffe90"/><stop offset="1" stop-color="#fff" stop-opacity="0"/></linearGradient><radialGradient xlink:href="#h" id="k" gradientUnits="userSpaceOnUse" gradientTransform="matrix(1.03948 0 0 .8444 157.15 10.31)" cx="189.03" cy="72.3" fx="186.98" fy="96.03" r="37.1"/><radialGradient xlink:href="#m" id="n" gradientUnits="userSpaceOnUse" gradientTransform="matrix(1.58979 -.07957 .065 1.29875 -45.5 -17.6)" cx="64" cy="64" fx="63.79" fy="47.27" r="47.5"/><radialGradient xlink:href="#c" id="t" gradientUnits="userSpaceOnUse" gradientTransform="matrix(4.99351 0 0 3.84367 75.28 -3.35)" cx="22.36" cy="12.91" fx="22.36" fy="12.91" r="20.28"/><filter id="u" x="-.02" width="1.04" y="-.03" height="1.06" color-interpolation-filters="sRGB"><feGaussianBlur stdDeviation=".58"/></filter><radialGradient xlink:href="#o" id="s" gradientUnits="userSpaceOnUse" gradientTransform="matrix(.81344 0 0 .74208 90.59 46.77)" cx="-60.2" cy="70.77" fx="-59.85" fy="76.97" r="9.21"/><linearGradient xlink:href="#d" id="r" gradientUnits="userSpaceOnUse" x1="34.65" y1="34.58" x2="34.65" y2="18.92" gradientTransform="matrix(1.1203 0 0 1.14469 6.69 70.49)"/><radialGradient xlink:href="#p" id="q" gradientUnits="userSpaceOnUse" gradientTransform="matrix(.84556 0 0 .68686 -118.82 50.03)" cx="189.03" cy="72.3" fx="186.98" fy="96.03" r="37.1"/></defs><g transform="translate(0 -64)"><path d="M33.85 72.15c-.8 0-1.61.22-2.24.66-.64.44-.95.97-1 1.5-.03.52.21 1.06.77 1.52 2.6 2.05 5.18 4.16 7.78 6.2l.61.51H15.04c-1.32 0-2.33.3-3.05.82a3.25 3.25 0 0 0-1.33 2.13c-.26 1.5.9 3.4 3.1 3.4 4.04.01 8.11 0 12.16-.02h.84l-.7.51-21.65 16.04H4.4s.02.02-.06.08a5.08 5.08 0 0 0-1.88 2.72c-.24.98-.07 1.94.51 2.7 1.2 1.52 3.77 1.56 5.75-.03l11.82-9.69c.25-.21.48-.01.46.23 0 0-.17 1.32-.16 2.06.02.73.25 2.29.61 3.46a18.25 18.25 0 0 0 3.97 6.8 20.42 20.42 0 0 0 6.91 4.97 22.32 22.32 0 0 0 9.1 1.9c3.19 0 6.27-.67 9.1-1.93 2.7-1.2 5-2.89 6.9-4.98a18.45 18.45 0 0 0 3.96-6.84c.4-1.26.6-2.55.7-3.84.1-1.26.09-2.5-.1-3.76a17.67 17.67 0 0 0-2.5-6.89 19.29 19.29 0 0 0-4.61-5.06L36.01 72.83v-.02c-.08-.06-.09-.07-.03-.03h-.02a3.46 3.46 0 0 0-2.11-.63z" fill="url(#q)" fill-rule="evenodd"/><ellipse ry="11.59" rx="12.95" cy="99.96" cx="41.63" style="marker:none" overflow="visible" fill="url(#r)" enable-background="accumulate"/><path d="M34.14 98.95c.1-1.86 1-3.5 2.37-4.66a7.88 7.88 0 0 1 5.1-1.83c1.97 0 3.77.7 5.12 1.83a6.58 6.58 0 0 1 2.37 4.66 6.47 6.47 0 0 1-2 5 7.8 7.8 0 0 1-5.48 2.17 7.8 7.8 0 0 1-5.49-2.18 6.47 6.47 0 0 1-2-5z" fill="url(#s)" fill-rule="evenodd"/><path d="M194.41 37.94c-.82 0-1.64.21-2.28.66-.59.41-.87.9-.9 1.31-.01.08-.02.32.1.57.08.2.23.35.4.5v-.16c.03-.4.31-.9.9-1.31a4.02 4.02 0 0 1 2.28-.66c.81 0 1.51.23 2.04.63h.03l.03.03a.7.7 0 0 1 .03.03l.03.03.03.03c7.7 5.9 15.6 11.62 23.13 17.75 2.32 1.9 4.25 4 5.68 6.31a.7.7 0 0 0-.06-.18 25.43 25.43 0 0 0-6.12-7.04c-7.54-6.13-15.44-11.84-23.13-17.75l-.03-.03-.03-.03a.7.7 0 0 0-.03-.03l-.03-.03h-.03a3.37 3.37 0 0 0-2.04-.63zm7.54 11.88c0 .14-.02.29-.07.44-.06.18 0 .12-.15.15-.16.03-.53 0-.97 0-9.44.09-29.56.07-29.56.07-.93 0-1.99.23-2.91.75-.92.5-1.77 1.4-1.84 2.59-.06.82.24 1.52.68 2.03-.13-.34-.21-.7-.18-1.13.07-1.19.92-2.08 1.84-2.59a6.15 6.15 0 0 1 2.9-.75s20.13.02 29.57-.06c.44 0 .81.03.97 0 .15-.03.09.03.15-.16a1.1 1.1 0 0 0-.37-1.28l-.06-.06zm-16.29 8.16c-.07.05-.12.07-.34.25L158.88 78.6h-.06v.03h-.06l-.1.06-.06.07a.66.66 0 0 0-.06.06c-.03.03-.08.08-.13.16l-.03.03a5.36 5.36 0 0 0-1.75 2.65 2.9 2.9 0 0 0 .44 2.53l.1.1a3.18 3.18 0 0 1-.04-1.72c.23-.93.86-1.89 1.75-2.66l.03-.03c.04-.07.1-.12.13-.16a.66.66 0 0 1 .06-.06l.06-.06.1-.06h.06v-.03h.06l26.44-20.38.5-.37c0-.02.01-.1-.03-.22-.1-.3-.33-.47-.63-.57zM179.41 73c0 .08.02.16 0 .25a.7.7 0 0 0-.03.03s-.17 1.52-.15 2.31a.7.7 0 0 0 0 .06c.16 2.28.82 4.4 1.75 6.38a.7.7 0 0 0 0 .03c.1.18.22.37.34.53a17.75 17.75 0 0 1-1.6-6.03.7.7 0 0 1 0-.06c0-.8.16-2.32.16-2.32a.7.7 0 0 1 .03-.03c.07-.46-.14-.9-.5-1.15z" transform="translate(-124.34 41.64) scale(.81344)" fill="url(#t)" fill-rule="evenodd" filter="url(#u)"/></g></svg>