<svg xmlns="http://www.w3.org/2000/svg" xmlns:xlink="http://www.w3.org/1999/xlink" width="64" height="64" version="1"><defs><linearGradient id="a"><stop offset="0" stop-color="#4d4d4d"/><stop offset="1"/></linearGradient><linearGradient id="b"><stop offset="0" stop-color="#00f"/><stop offset="1" stop-color="teal"/></linearGradient><linearGradient id="c"><stop offset="0" stop-color="#a00"/><stop offset="1" stop-color="#ff2a2a"/></linearGradient><linearGradient id="j" gradientUnits="userSpaceOnUse" x1="254" y1="-126.33" x2="254" y2="-168.67" gradientTransform="matrix(.1285 0 0 .1285 -.64 25.03)"><stop offset="0"/><stop offset="1" stop-color="#4d4d4d"/></linearGradient><linearGradient id="i" gradientUnits="userSpaceOnUse" x1="254" y1="-126.33" x2="254" y2="-168.67" gradientTransform="translate(-5.3 27.35) scale(.14686)"><stop offset="0" stop-color="#4d4d4d"/><stop offset="1"/></linearGradient><linearGradient gradientTransform="translate(-40.55 -4.23) scale(1.17479)" xlink:href="#d" id="h" x1="48.52" y1="11.08" x2="74.98" y2="11.08" gradientUnits="userSpaceOnUse"/><linearGradient id="d" gradientUnits="userSpaceOnUse" x1="213.48" y1="3.06" x2="293.68" y2="3.06" gradientTransform="translate(30 26.88) scale(.12501)"><stop offset="0"/><stop stop-color="#333" offset=".49"/><stop offset="1"/></linearGradient><radialGradient xlink:href="#e" id="f" cx="21.17" cy="30.78" fx="21.17" fy="30.78" r="17.2" gradientTransform="matrix(1.1748 0 0 1.17472 -5.3 -4.22)" gradientUnits="userSpaceOnUse"/><linearGradient id="e" gradientUnits="userSpaceOnUse" x1="254" y1="233.5" x2="254" y2="-41.67" gradientTransform="translate(0 26.88) scale(.12501)"><stop offset="0" stop-color="#424242"/><stop offset="1"/></linearGradient><linearGradient y2="3.06" x2="293.68" y1="3.06" x1="213.48" gradientTransform="translate(-5.3 27.35) scale(.14686)" gradientUnits="userSpaceOnUse" id="g" xlink:href="#d"/></defs><path d="M32 21.23c11.16 0 20.2 6.96 20.2 15.54v9.33c0 8.58-9.04 15.54-20.2 15.54S11.8 54.68 11.8 46.1v-9.33c0-8.58 9.04-15.54 20.2-15.54zm0 0" fill="url(#f)"/><path d="M32 23.56c4.29 0 7.77 1.05 7.77 2.33 0 1.3-3.48 2.33-7.77 2.33-4.3 0-7.77-1.04-7.77-2.33 0-1.28 3.47-2.33 7.77-2.33zm0 0" fill="#e0e0e0" fill-opacity=".24"/><path d="M32 10.35c3.43 0 6.22.7 6.22 1.55v14c0 .85-2.79 1.55-6.22 1.55-3.43 0-6.22-.7-6.22-1.56V11.9c0-.85 2.79-1.55 6.22-1.55zm0 0" fill="url(#g)"/><path d="M28.89 2.58h6.22c6.87 0 12.43 1.4 12.43 3.1v6.22c0 1.72-5.56 3.11-12.43 3.11h-6.22c-6.87 0-12.43-1.39-12.43-3.1V5.68c0-1.72 5.56-3.11 12.43-3.11zm0 0" fill="url(#h)"/><path d="M28.89 2.58c-6.89 0-12.43 1.39-12.43 3.1 0 1.73 5.54 3.12 12.43 3.12h6.22c6.88 0 12.43-1.4 12.43-3.11 0-1.72-5.55-3.11-12.43-3.11zm0 0" fill="url(#i)" stroke="#212121" stroke-width=".44" stroke-linecap="round" stroke-linejoin="round"/><path d="M29.28 3.36c-6.03 0-10.88 1.21-10.88 2.72 0 1.5 4.85 2.72 10.88 2.72h5.44c6.03 0 10.88-1.22 10.88-2.72 0-1.5-4.85-2.72-10.88-2.72zm0 0" fill="url(#j)" stroke="#212121" stroke-width=".39" stroke-linecap="round" stroke-linejoin="round"/></svg>