<svg xmlns="http://www.w3.org/2000/svg" xmlns:xlink="http://www.w3.org/1999/xlink" width="64" height="64" version="1"><defs><linearGradient id="c"><stop offset="0" stop-color="#ccc"/><stop offset="1" stop-color="#ccc"/></linearGradient><linearGradient id="b"><stop offset="0"/><stop offset="1" stop-color="#4d4d4d"/></linearGradient><linearGradient id="a"><stop offset="0" stop-color="#4d4d4d"/><stop offset="1"/></linearGradient><radialGradient xlink:href="#a" id="d" cx="16" cy="19.25" fx="16" fy="19.25" r="28" gradientUnits="userSpaceOnUse" gradientTransform="matrix(.88378 .33898 -.35812 .93367 8.75 -4.15)"/><linearGradient xlink:href="#c" id="e" x1="29.17" y1="15.24" x2="29.37" y2="50.2" gradientUnits="userSpaceOnUse"/></defs><path d="M32 4C16.49 4 4 16.49 4 32s12.49 28 28 28 28-12.49 28-28S47.51 4 32 4z" fill="url(#d)"/><path d="M32 15a17 17 0 0 0-2.83.24v23.84c0 .79-.64 1.42-1.42 1.42h-1.42c-.78 0-1.41-.63-1.41-1.42V16.57A17 17 0 0 0 15 32a17 17 0 0 0 17 17 17 17 0 0 0 17-17 17 17 0 0 0-17-17m-.7 8.5a.7.77 0 0 1 .33.1l12.75 7.72a.7.77 0 0 1 0 1.36L31.63 40.4a.7.77 0 0 1-1.05-.67V24.27a.7.77 0 0 1 .72-.77" fill="url(#e)"/></svg>