<?xml version="1.0" encoding="UTF-8" standalone="no"?><svg xmlns:dc="http://purl.org/dc/elements/1.1/" xmlns:cc="http://creativecommons.org/ns#" xmlns:rdf="http://www.w3.org/1999/02/22-rdf-syntax-ns#" xmlns="http://www.w3.org/2000/svg" xmlns:xlink="http://www.w3.org/1999/xlink" width="64" height="64"><defs><linearGradient id="a"><stop offset="0" stop-color="#fff"/><stop offset=".51" stop-color="#fff" stop-opacity=".24"/><stop offset=".83" stop-color="#fff" stop-opacity=".16"/><stop offset="1" stop-color="#fff" stop-opacity=".39"/></linearGradient><linearGradient id="b"><stop offset="0" stop-color="#919caf"/><stop offset=".26" stop-color="#68758e"/><stop offset=".7" stop-color="#485a6c"/><stop offset="1" stop-color="#444c5c"/></linearGradient><linearGradient id="c"><stop offset="0"/><stop offset="1" stop-opacity="0"/></linearGradient><linearGradient xlink:href="#a" id="h" gradientUnits="userSpaceOnUse" gradientTransform="matrix(1.3482 0 0 1.3482 -64.71 -3.47)" x1="71.2" y1="6.24" x2="71.2" y2="44.34"/><radialGradient xlink:href="#d" id="g" cx="35.8" cy="11.56" fx="35.8" fy="11.56" r="20.5" gradientTransform="matrix(1.27907 0 0 1.27907 -24.28 .02)" gradientUnits="userSpaceOnUse"/><linearGradient id="d"><stop offset="0" stop-color="#4d4d4d"/><stop offset="1"/></linearGradient><radialGradient xlink:href="#c" id="e" gradientUnits="userSpaceOnUse" gradientTransform="matrix(.38235 0 0 .11152 -5.93 36.34)" cx="99.19" cy="185.3" fx="99.19" fy="185.3" r="62.77"/><radialGradient xlink:href="#c" id="f" gradientUnits="userSpaceOnUse" gradientTransform="matrix(.2549 0 0 .07966 6.72 44.24)" cx="99.19" cy="185.3" fx="99.19" fy="185.3" r="62.77"/></defs><metadata><rdf:RDF><cc:Work><dc:format>image/svg+xml</dc:format><dc:type rdf:resource="http://purl.org/dc/dcmitype/StillImage"/><dc:title/></cc:Work></rdf:RDF></metadata><g stroke-width="1.1"><path d="M56 57a24 7 0 1 1-48 0 24 7 0 1 1 48 0z" opacity=".2" fill="url(#e)" transform="matrix(.906 0 0 .91362 3 1.03)"/><path d="M48 59a16 5 0 1 1-32 0 16 5 0 1 1 32 0z" opacity=".4" fill="url(#f)" transform="matrix(.906 0 0 .91362 3 1.03)"/></g><path d="M32 4.5A26.24 26.24 0 0 0 5.78 30.72 26.24 26.24 0 0 0 32 56.94a26.24 26.24 0 0 0 26.22-26.22A26.24 26.24 0 0 0 32 4.5z" style="marker:none" color="#000" overflow="visible" fill="url(#g)"/><path d="M56.94 30.72a24.94 24.94 0 1 1-49.88 0 24.94 24.94 0 0 1 49.88 0z" style="marker:none" color="#000" overflow="visible" opacity=".3" fill="none" stroke="url(#h)" stroke-linecap="round" stroke-linejoin="round"/><path style="isolation:auto;mix-blend-mode:normal;marker:none" d="M32 10.25a3.87 3.87 0 0 0-3.84 3.84v15.35c0 2.11 1.73 3.85 3.84 3.85 2.1 0 3.84-1.74 3.84-3.85V14.1c0-2.1-1.73-3.84-3.84-3.84zm-8.15 6.23c-.74 0-1.3.27-1.67.45a1.29 1.29 0 0 0-.12.06l-.8.48a1.29 1.29 0 0 0-.04.03 18.36 18.36 0 0 0-7.92 11.57l-.23.54a1.29 1.29 0 0 0 0 .02c-.1.54-.05.69-.01.43-.12.78-.25 1.63-.25 2.58 0 10.26 8.63 18.55 19.19 18.55s19.2-8.3 19.2-18.55c0-.81-.08-1.58-.18-2.33-.06-.47-.17-.69-.17-.7a18.36 18.36 0 0 0-8.07-12.11 1.29 1.29 0 0 0-.05-.03l-.8-.48a1.29 1.29 0 0 0-.1-.06c-.38-.18-.94-.45-1.68-.45a3.94 3.94 0 0 0-3.92 3.93c0 1.28.64 2.37 1.52 3.08.25.2.55.41.94.58l-.2-.11a11.21 11.21 0 0 1 4.58 6.23c.15.52.2.6.08.15.24.87.35 1.75.35 2.7 0 6.09-5.1 11.02-11.5 11.02s-11.5-4.93-11.5-11.02c0-.95.11-1.83.35-2.7-.12.43-.08.39.08-.15a11.21 11.21 0 0 1 4.59-6.23l-.21.11c.39-.17.7-.38.94-.58.88-.71 1.52-1.8 1.52-3.08a3.94 3.94 0 0 0-3.92-3.93z" color="#000" overflow="visible" opacity=".15" fill="#fff"/><path style="isolation:auto;mix-blend-mode:normal;marker:none" d="M23.85 17.77c-.4 0-.78.16-1.12.32l-.8.48a17.05 17.05 0 0 0-7.52 11.27h-.08c-.02.13.02.27 0 .4-.12.8-.24 1.57-.24 2.4 0 9.54 8.02 17.27 17.91 17.27s17.9-7.73 17.9-17.27c0-.73-.06-1.45-.15-2.16-.03-.22-.12-.42-.16-.64a17.05 17.05 0 0 0-7.52-11.27l-.8-.48a2.66 2.66 0 0 0-1.12-.32 2.64 2.64 0 0 0-2.63 2.64c0 .83.44 1.6 1.04 2.08.19.15.4.3.63.4a12.5 12.5 0 0 1 5.12 6.95c.02.06.07.1.08.16.27.98.4 1.98.4 3.04 0 6.81-5.73 12.31-12.79 12.31-7.06 0-12.8-5.5-12.8-12.31 0-1.06.14-2.06.4-3.04.02-.06.07-.1.09-.16a12.5 12.5 0 0 1 5.12-6.95c.22-.1.44-.25.63-.4a2.74 2.74 0 0 0 1.04-2.08 2.64 2.64 0 0 0-2.63-2.64zM32 11.54a2.55 2.55 0 0 1 2.56 2.55v15.35a2.55 2.55 0 1 1-5.12 0V14.1A2.55 2.55 0 0 1 32 11.54z" color="#000" overflow="visible" opacity=".3" fill="#fff"/><path style="isolation:auto;mix-blend-mode:normal;marker:none" d="M23.85 16.5c-.4 0-.78.15-1.12.31l-.8.48a17.05 17.05 0 0 0-7.52 11.27h-.08c-.02.13.02.27 0 .4-.12.8-.24 1.57-.24 2.4 0 9.54 8.02 17.27 17.91 17.27s17.9-7.73 17.9-17.27c0-.73-.06-1.45-.15-2.16-.03-.22-.12-.42-.16-.64a17.05 17.05 0 0 0-7.52-11.27l-.8-.48a2.66 2.66 0 0 0-1.12-.32 2.64 2.64 0 0 0-2.63 2.64c0 .83.44 1.6 1.04 2.08.19.15.4.3.63.4a12.5 12.5 0 0 1 5.12 6.95c.02.06.07.1.08.16.27.98.4 1.98.4 3.04 0 6.81-5.73 12.31-12.79 12.31-7.06 0-12.8-5.5-12.8-12.31 0-1.06.14-2.06.4-3.04.02-.05.07-.1.09-.16a12.5 12.5 0 0 1 5.12-6.95c.22-.1.44-.25.63-.4a2.74 2.74 0 0 0 1.04-2.08 2.64 2.64 0 0 0-2.63-2.64zM32 10.25a2.55 2.55 0 0 1 2.56 2.55v15.35a2.55 2.55 0 1 1-5.12 0V12.81A2.55 2.55 0 0 1 32 10.26z" color="#000" overflow="visible" fill="#fff"/></svg>