<svg xmlns="http://www.w3.org/2000/svg" xmlns:xlink="http://www.w3.org/1999/xlink" width="64" height="64" version="1"><defs><linearGradient id="d"><stop offset="0" stop-color="#4d4d4d"/><stop offset="1"/></linearGradient><linearGradient id="a"><stop offset="0" stop-color="#4d4d4d"/><stop offset="1"/></linearGradient><linearGradient xlink:href="#b" id="f" y1="47.75" x1="12.05" y2="42.4" x2="11.41" gradientUnits="userSpaceOnUse"/><linearGradient id="b" y1="42" x1="27" y2="38" x2="21" gradientUnits="userSpaceOnUse"><stop stop-color="gray"/><stop offset="1"/></linearGradient><radialGradient xlink:href="#c" id="e" cx="21.06" cy="21.76" fx="21.06" fy="21.76" r="10" gradientTransform="matrix(1.55965 0 0 1.87158 -5.3 -13.83)" gradientUnits="userSpaceOnUse"/><linearGradient id="c" y1="38" y2="13" x2="0" gradientUnits="userSpaceOnUse"><stop stop-color="#666"/><stop offset="1"/></linearGradient><linearGradient xlink:href="#b" id="g" gradientUnits="userSpaceOnUse" x1="12.05" y1="47.75" x2="11.41" y2="42.4"/><linearGradient xlink:href="#b" id="h" gradientUnits="userSpaceOnUse" x1="12.05" y1="47.75" x2="11.41" y2="42.4"/><radialGradient xlink:href="#d" id="i" cx="9.4" cy="19.35" fx="9.4" fy="19.35" r="5.47" gradientTransform="matrix(1.15974 0 0 1.13453 -4.99 -4.8)" gradientUnits="userSpaceOnUse"/><radialGradient xlink:href="#d" id="j" cx="9.4" cy="19.35" fx="9.4" fy="19.35" r="5.47" gradientTransform="matrix(.52393 0 0 .51254 27.12 -2.66)" gradientUnits="userSpaceOnUse"/><radialGradient xlink:href="#d" id="k" cx="9.4" cy="19.35" fx="9.4" fy="19.35" r="5.47" gradientTransform="matrix(.9478 0 0 .9272 41.77 -4.78)" gradientUnits="userSpaceOnUse"/><radialGradient xlink:href="#d" id="l" cx="9.4" cy="19.35" fx="9.4" fy="19.35" r="5.47" gradientTransform="matrix(1.15974 0 0 1.13453 40.4 20.86)" gradientUnits="userSpaceOnUse"/><radialGradient xlink:href="#d" id="m" cx="9.4" cy="19.35" fx="9.4" fy="19.35" r="5.47" gradientTransform="matrix(.73587 0 0 .71987 2.99 29.88)" gradientUnits="userSpaceOnUse"/></defs><path d="M32.12 16.12a15.6 15.6 0 0 0-15.6 15.6c.01 6.19 3.13 9.85 6.25 12.72 3.11 2.87 1.56 7.55 3.11 9.1h12.48c1.56-1.55 0-6.23 3.12-9.11 3.12-2.89 6.23-6.52 6.24-12.72a15.6 15.6 0 0 0-15.6-15.6" fill="url(#e)"/><path d="M25.88 53.55h12.48L36.8 55.1v4.68l-1.56 1.56H29l-1.56-1.56V55.1z" fill="#333"/><path d="M33.68 61.35h1.56l1.56-1.56V55.1l1.56-1.56H25.88z" fill-rule="evenodd"/><g transform="rotate(-15 -24.38 17.3) scale(1.55965)" fill="url(#f)" stroke-width="6.2" stroke-linecap="round" stroke-linejoin="bevel"><rect width="8" x="8.44" y="45.8" rx=".5" height="1" fill="url(#g)"/><rect width="8" x="8.96" y="43.87" rx=".5" height="1" fill="url(#h)"/></g><path d="M33.68 22.35l-7.8 12.48h4.68v9.36l7.8-12.48h-4.68z" fill="#ff0" fill-rule="evenodd"/><ellipse cx="8.53" cy="19.49" rx="6.35" ry="6.21" fill="url(#i)" fill-rule="evenodd"/><ellipse cx="33.23" cy="8.32" rx="2.87" ry="2.8" fill="url(#j)" fill-rule="evenodd"/><ellipse cx="52.82" cy="15.08" rx="5.19" ry="5.07" fill="url(#k)" fill-rule="evenodd"/><ellipse cx="53.92" cy="45.15" rx="6.35" ry="6.21" fill="url(#l)" fill-rule="evenodd"/><ellipse cx="11.57" cy="45.29" rx="4.03" ry="3.94" fill="url(#m)" fill-rule="evenodd"/></svg>