<svg xmlns="http://www.w3.org/2000/svg" xmlns:xlink="http://www.w3.org/1999/xlink" width="64" height="64" viewBox="0 0 16.93 16.93"><defs><linearGradient id="e"><stop offset="0" stop-color="#d35fbc"/><stop offset="1" stop-color="#f4d7ee"/></linearGradient><linearGradient id="d"><stop offset="0" stop-color="#4d4d4d"/><stop offset="1"/></linearGradient><linearGradient id="c"><stop offset="0" stop-color="#b3b3b3"/><stop offset="1" stop-color="#fff"/></linearGradient><linearGradient id="a"><stop offset="0" stop-color="#1064d3"/><stop offset="1" stop-color="#14c6fd"/></linearGradient><linearGradient id="b"><stop offset="0"/><stop offset="1" stop-opacity="0"/></linearGradient><radialGradient xlink:href="#d" id="f" cx="5.83" cy="5.44" fx="5.83" fy="5.44" r="5.75" gradientUnits="userSpaceOnUse" gradientTransform="matrix(1.32184 0 0 1.32184 -2.72 -2.72)"/><linearGradient xlink:href="#e" id="g" x1="8.37" y1="13.08" x2="8.3" y2="3.82" gradientUnits="userSpaceOnUse" gradientTransform="matrix(1.05254 0 0 1.05254 -.44 -.05)"/></defs><rect ry=".92" rx=".92" y=".86" x=".86" height="15.21" width="15.21" fill="url(#f)"/><path d="M9.07 13.23c.48-.4.61-.55 1.2-.97.33-.23.38-.3.33-.38-.05-.06-1.06-.53-1.57-.74-.53-.21-.6-.21-1.11 0-.47.19-1.46.65-1.55.74-.1.08-.05.16.18.32.48.32.9.68 1.33 1.04.61.52.56.52 1.2-.01zM6.6 11.25c.64-.3.74-.36 1.23-.8.4-.36.48-.47.43-.6a6.17 6.17 0 0 0-.7-.63c-.84-.72-.8-.62-.48-1.39.2-.45.24-.6.24-.73a.5.5 0 0 0-.22-.44c-.05-.04-.56-.24-1.13-.45a9.76 9.76 0 0 1-1.02-.42c0-.04.63-.1 1.08-.12h.35l.63.21c.55.2.63.24.67.31.03.05.05.12.05.15s-.1.49-.23 1.01c-.21.92-.22.96-.16 1.01.09.09.97.26 1.24.23.31-.02.96-.17 1.02-.23.05-.05.04-.11-.17-1.01L9.2 6.34c0-.03.02-.1.05-.15.04-.08.12-.11.61-.28.8-.28.78-.28 1.5-.21.33.03.61.06.63.08.02.01 0 .04-.05.06l-1.02.38c-.52.2-1 .39-1.07.43a.5.5 0 0 0-.24.45c0 .12.05.27.24.72.13.3.23.59.23.62 0 .15-.1.26-.7.76-.34.29-.64.56-.67.61a.3.3 0 0 0-.04.18c.02.07.43.47.84.8.18.15 1.24.67 1.4.7.15.02.3-.05.55-.26.24-.2.39-.4.49-.67.09-.26.07-.43-.12-.85-.14-.32-.17-.49-.13-.6.01-.04.4-.4.84-.8.99-.9 1.15-1.05 1.2-1.21.06-.18.02-.41-.12-.64-.32-.56-1.6-2.38-1.71-2.38-.58.1-1.05.36-1.67.46a3 3 0 0 1-.46-.12 6.22 6.22 0 0 0-1.31-.33c-.17 0-.45.07-1.32.33-.2.07-.41.12-.46.12-.6-.1-1.1-.36-1.72-.44-.1.07-.93 1.3-1.3 1.81-.41.61-.46.7-.5.92-.04.33 0 .38 1.27 1.52l.8.75c.04.12 0 .3-.14.62-.19.44-.2.56-.11.82.1.29.27.52.52.72.24.19.33.23.47.24.05 0 .33-.12.62-.25z" fill="url(#g)"/></svg>