<svg xmlns="http://www.w3.org/2000/svg" xmlns:xlink="http://www.w3.org/1999/xlink" width="48" height="48"><defs><linearGradient id="r"><stop offset="0" stop-color="#333"/><stop offset="1" stop-color="#999"/></linearGradient><linearGradient id="q"><stop offset="0"/><stop offset="1" stop-color="#333"/></linearGradient><linearGradient id="p"><stop offset="0" stop-color="#f0ff80"/><stop offset="1" stop-color="#f0ff80" stop-opacity="0"/></linearGradient><linearGradient id="o"><stop offset="0" stop-color="#fca"/><stop offset="1" stop-color="#ffb380" stop-opacity="0"/></linearGradient><linearGradient id="n"><stop offset="0" stop-color="#fca"/><stop offset="1" stop-color="#ffb380" stop-opacity="0"/></linearGradient><linearGradient id="m"><stop offset="0" stop-color="#803300"/><stop offset=".48" stop-color="#f95"/><stop offset="1" stop-color="#a40"/></linearGradient><linearGradient id="l"><stop offset="0" stop-color="#803300"/><stop offset="1" stop-color="#ff7f2a"/></linearGradient><linearGradient id="k"><stop offset="0" stop-color="#f60"/><stop offset="1" stop-color="#803300"/></linearGradient><linearGradient id="g"><stop offset="0" stop-color="#333"/><stop offset="1" stop-color="gray"/></linearGradient><linearGradient y2="49" x2="48.12" y1="49" x1="40.12" gradientUnits="userSpaceOnUse" id="a"><stop offset="0" stop-color="#008e00"/><stop offset=".23" stop-color="#008700"/><stop offset=".51" stop-color="#007800"/><stop offset=".82" stop-color="#005f00"/><stop offset="1" stop-color="#004d00"/></linearGradient><linearGradient id="b"><stop offset="0" stop-color="#00a208"/><stop offset=".5" stop-color="#dfffa8"/><stop offset="1" stop-color="#8aff47" stop-opacity=".63"/></linearGradient><radialGradient id="c" cx="23.78" cy="100" r="25.2" gradientUnits="userSpaceOnUse"><stop offset="0" stop-color="#287f00"/><stop offset=".5" stop-color="#3cf000"/><stop offset="1" stop-color="#003a00"/></radialGradient><radialGradient gradientUnits="userSpaceOnUse" fy="88.67" fx="17.12" r="14" cy="94" cx="19.78" id="d"><stop offset="0" stop-color="#fff"/><stop offset=".5" stop-color="#fff" stop-opacity=".71"/><stop offset="1" stop-color="#fff" stop-opacity="0"/></radialGradient><linearGradient id="e"><stop offset="0" stop-color="#c3ff6a"/><stop offset="1" stop-color="#a6ff88" stop-opacity="0"/></linearGradient><radialGradient gradientUnits="userSpaceOnUse" id="f" r="26.42" cy="18.09" cx="54.21"><stop offset=".33" stop-color="#f0ff80"/><stop offset=".67" stop-color="#0f0" stop-opacity="0"/></radialGradient><filter x="-.56" width="2.12" y="-.01" height="1.02" id="x"><feGaussianBlur stdDeviation=".47"/></filter><radialGradient id="h" cx="23.78" cy="100" r="25.2" gradientUnits="userSpaceOnUse"><stop offset="0" stop-color="#287f00"/><stop offset=".5" stop-color="#3cf000"/><stop offset="1" stop-color="#003a00"/></radialGradient><radialGradient xlink:href="#i" id="z" gradientUnits="userSpaceOnUse" gradientTransform="matrix(.68623 -.27888 .26073 .68336 -.07 33.86)" cx="22.5" cy="91.36" fx="19.84" fy="86.02" r="14"/><radialGradient gradientUnits="userSpaceOnUse" fy="88.67" fx="17.12" r="14" cy="94" cx="19.78" id="i"><stop offset="0" stop-color="#fff"/><stop offset=".5" stop-color="#fff" stop-opacity=".71"/><stop offset="1" stop-color="#fff" stop-opacity="0"/></radialGradient><filter id="A"><feGaussianBlur stdDeviation=".61"/></filter><filter x="-.07" width="1.15" y="-.14" height="1.28" id="C"><feGaussianBlur stdDeviation=".73"/></filter><radialGradient gradientUnits="userSpaceOnUse" id="j" r="26.42" cy="18.09" cx="54.21"><stop offset=".33" stop-color="#f0ff80"/><stop offset=".67" stop-color="#0f0" stop-opacity="0"/></radialGradient><filter id="E"><feGaussianBlur stdDeviation=".37"/></filter><linearGradient xlink:href="#k" id="v" x1="22.41" y1="20.56" x2="25.32" y2="20.56" gradientUnits="userSpaceOnUse"/><linearGradient xlink:href="#l" id="u" x1="25.32" y1="17.11" x2="34.55" y2="17.11" gradientUnits="userSpaceOnUse" gradientTransform="translate(-.18)"/><linearGradient xlink:href="#m" id="y" x1="6.78" y1="42.68" x2="25.32" y2="34.23" gradientUnits="userSpaceOnUse"/><radialGradient xlink:href="#n" id="B" cx="47.37" cy="114.49" fx="47.37" fy="114.49" r="13.79" gradientTransform="matrix(1 0 0 .5868 0 45.32)" gradientUnits="userSpaceOnUse"/><linearGradient xlink:href="#o" id="w" x1="42.5" y1="3.15" x2="42.5" y2="95.21" gradientUnits="userSpaceOnUse"/><radialGradient xlink:href="#p" id="D" cx="81.12" cy="34.7" fx="81.12" fy="34.7" r="8.04" gradientTransform="matrix(1 0 0 1.76493 0 -30.73)" gradientUnits="userSpaceOnUse"/><linearGradient xlink:href="#q" id="t" x1="7.5" y1="7.5" x2="45.55" y2="42.33" gradientUnits="userSpaceOnUse"/><linearGradient xlink:href="#r" id="s" x1="12" y1="6.67" x2="39.55" y2="39.55" gradientUnits="userSpaceOnUse"/></defs><g stroke-width="2" stroke-linejoin="round"><path d="M24 2A22 22 0 0 0 2 24a22 22 0 0 0 22 22 22 22 0 0 0 22-22A22 22 0 0 0 24 2zm0 6.8a15.2 15.2 0 0 1 1.52.08 15.2 15.2 0 0 1 1.5.22 15.2 15.2 0 0 1 1.47.38 15.2 15.2 0 0 1 1.43.52 15.2 15.2 0 0 1 1.37.66 15.2 15.2 0 0 1 1.3.8 15.2 15.2 0 0 1 1.2.91 15.2 15.2 0 0 1 1.11 1.04 15.2 15.2 0 0 1 1 1.14 15.2 15.2 0 0 1 .89 1.24 15.2 15.2 0 0 1 .76 1.32 15.2 15.2 0 0 1 .62 1.38 15.2 15.2 0 0 1 .47 1.45 15.2 15.2 0 0 1 .34 1.48 15.2 15.2 0 0 1 .18 1.5A15.2 15.2 0 0 1 39.2 24a15.2 15.2 0 0 1-.08 1.52 15.2 15.2 0 0 1-.22 1.5 15.2 15.2 0 0 1-.38 1.47 15.2 15.2 0 0 1-.52 1.43 15.2 15.2 0 0 1-.66 1.37 15.2 15.2 0 0 1-.8 1.3 15.2 15.2 0 0 1-.91 1.2 15.2 15.2 0 0 1-1.04 1.11 15.2 15.2 0 0 1-1.14 1 15.2 15.2 0 0 1-1.24.89 15.2 15.2 0 0 1-1.32.76 15.2 15.2 0 0 1-1.38.62 15.2 15.2 0 0 1-1.45.47 15.2 15.2 0 0 1-1.48.34 15.2 15.2 0 0 1-1.5.18 15.2 15.2 0 0 1-1.08.04 15.2 15.2 0 0 1-1.52-.08 15.2 15.2 0 0 1-1.5-.22 15.2 15.2 0 0 1-1.47-.38 15.2 15.2 0 0 1-1.43-.52 15.2 15.2 0 0 1-1.37-.66 15.2 15.2 0 0 1-1.3-.8 15.2 15.2 0 0 1-1.2-.91 15.2 15.2 0 0 1-1.11-1.04 15.2 15.2 0 0 1-1-1.14 15.2 15.2 0 0 1-.89-1.24 15.2 15.2 0 0 1-.76-1.32 15.2 15.2 0 0 1-.62-1.38 15.2 15.2 0 0 1-.47-1.45 15.2 15.2 0 0 1-.34-1.48 15.2 15.2 0 0 1-.18-1.5A15.2 15.2 0 0 1 8.8 24a15.2 15.2 0 0 1 .08-1.52 15.2 15.2 0 0 1 .22-1.5 15.2 15.2 0 0 1 .38-1.47 15.2 15.2 0 0 1 .52-1.43 15.2 15.2 0 0 1 .66-1.37 15.2 15.2 0 0 1 .8-1.3 15.2 15.2 0 0 1 .91-1.2 15.2 15.2 0 0 1 1.04-1.11 15.2 15.2 0 0 1 1.14-1 15.2 15.2 0 0 1 1.24-.89 15.2 15.2 0 0 1 1.32-.76 15.2 15.2 0 0 1 1.38-.62 15.2 15.2 0 0 1 1.45-.47 15.2 15.2 0 0 1 1.48-.34 15.2 15.2 0 0 1 1.5-.18A15.2 15.2 0 0 1 24 8.8z" fill="url(#s)"/><path d="M24 2A22 22 0 0 0 2 24a22 22 0 0 0 22 22 22 22 0 0 0 15.55-6.45l-2.12-2.12a19 19 0 0 0 .01 0l-2.68-2.69a15.2 15.2 0 0 1-.16.16 15.2 15.2 0 0 1-1.14 1 15.2 15.2 0 0 1-1.23.89 15.2 15.2 0 0 1-1.32.76 15.2 15.2 0 0 1-1.39.62 15.2 15.2 0 0 1-1.44.47 15.2 15.2 0 0 1-1.48.34 15.2 15.2 0 0 1-1.51.18 15.2 15.2 0 0 1-1.08.04 15.2 15.2 0 0 1-1.51-.08 15.2 15.2 0 0 1-1.5-.22 15.2 15.2 0 0 1-1.48-.38A15.2 15.2 0 0 1 18.1 38a15.2 15.2 0 0 1-1.37-.66 15.2 15.2 0 0 1-1.3-.8 15.2 15.2 0 0 1-1.2-.91 15.2 15.2 0 0 1-1.12-1.04 15.2 15.2 0 0 1-1-1.14 15.2 15.2 0 0 1-.89-1.24 15.2 15.2 0 0 1-.75-1.32 15.2 15.2 0 0 1-.62-1.38 15.2 15.2 0 0 1-.48-1.45 15.2 15.2 0 0 1-.33-1.48 15.2 15.2 0 0 1-.19-1.5A15.2 15.2 0 0 1 8.81 24a15.2 15.2 0 0 1 .08-1.52 15.2 15.2 0 0 1 .23-1.5 15.2 15.2 0 0 1 .37-1.47 15.2 15.2 0 0 1 .53-1.43 15.2 15.2 0 0 1 .66-1.37 15.2 15.2 0 0 1 .79-1.3 15.2 15.2 0 0 1 .92-1.2 15.2 15.2 0 0 1 1.04-1.11 15.2 15.2 0 0 1 1.14-1 15.2 15.2 0 0 1 1.23-.89 15.2 15.2 0 0 1 1.32-.76 15.2 15.2 0 0 1 1.39-.62 15.2 15.2 0 0 1 1.44-.47 15.2 15.2 0 0 1 1.48-.34 15.2 15.2 0 0 1 1.5-.18 15.2 15.2 0 0 1 1.08-.04 15.2 15.2 0 0 1 1.52.08 15.2 15.2 0 0 1 1.5.22 15.2 15.2 0 0 1 1.48.38 15.2 15.2 0 0 1 1.42.52 15.2 15.2 0 0 1 1.37.66 15.2 15.2 0 0 1 1.3.8 15.2 15.2 0 0 1 1.2.91 15.2 15.2 0 0 1 .96.89l2.68-2.69 2.1-2.12A22 22 0 0 0 24 2z" fill="url(#t)"/><path d="M28.86 8.8c-1.96-2.34-2.96-5.2-3.69-6.61l-.03 9.41c13.3 5.59 4.7 20.44 4.7 20.44 9.84-10.1.83-21.1-.97-23.24z" fill="url(#u)"/><path d="M22.41 2.19h2.91v36.74L22.42 37z" fill="url(#v)"/><path transform="matrix(.57495 0 0 -.37802 -2.02 38.18)" d="M43.12 3v90.66l2 .5V3z" opacity=".7" fill="url(#w)" filter="url(#x)"/><path d="M6.78 42.68c1.43 2.95 6.64 4 11.67 2.34 5.02-1.66 7.94-5.39 6.51-8.34-1.42-2.95-6.64-4-11.67-2.34-5.01 1.66-7.93 5.4-6.5 8.34z" fill="url(#y)"/><path transform="matrix(.43641 -.05104 .04469 .35023 -8.23 7.31)" d="M34.45 87.55c-7.63 4.16-12.1 10.31-9.57 13.16 1.1 1.24 3.23 1.54 4.82 1.57 4.13.08 9.45-1.43 14.24-4.04 7.63-4.17 12.1-10.32 9.56-13.16-1.1-1.24-3.23-1.54-4.82-1.57-4.12-.08-9.44 1.43-14.23 4.04z" opacity=".8" fill="url(#z)" filter="url(#A)"/><path transform="matrix(.44767 .01938 -.0585 .44847 1.85 -8.66)" d="M46.87 109c-7.17 1.88-12.58.6-11.92 3.13.27 1.05 1.3 1.84 2.12 2.31 2.24 1.31 6.43 2.24 11.47.92 7.17-1.88 10.92-6.96 10.26-9.5-.27-1.04-1.3-1.82-2.12-2.3-2.24-1.31-4.77 4.12-9.8 5.44z" opacity=".6" fill="url(#B)" filter="url(#C)"/><path d="M79.26 35.83c-3.12-3.83-3.78-6.4-4.52-7.48 0 11.96 3.9 11.82.32 11.13C81.4 42.74 86.28 47.23 88.14 52c-2.09-7.85-6.25-12.94-8.88-16.17z" transform="matrix(.57495 0 0 .5739 -17.22 -11.6)" fill="url(#D)" filter="url(#E)"/></g></svg>