<svg xmlns="http://www.w3.org/2000/svg" width="64" height="64"><defs><radialGradient id="b" cx="12.01" cy="13.2" r="20" gradientTransform="matrix(0 2.61817 -3.2572 0 59.52 -16.15)" gradientUnits="userSpaceOnUse"><stop offset="0" stop-color="#4d4d4d"/><stop offset=".26" stop-color="#333"/><stop offset=".7"/><stop offset="1"/></radialGradient><linearGradient id="c" x1="24" x2="24" y1="44" y2="3.9" gradientTransform="matrix(1.34401 0 0 1.55834 -.26 -5.4)" gradientUnits="userSpaceOnUse"><stop offset="0"/><stop offset="1" stop-color="#333"/></linearGradient><linearGradient id="a"><stop offset="0" stop-color="#535353"/><stop offset="1" stop-color="#7e7e7e"/></linearGradient></defs><rect x="5.79" y="1.61" width="52.42" height="60.78" rx="2.13" ry="2.47" fill="url(#b)" stroke="url(#c)" stroke-width=".51" stroke-linecap="round" stroke-linejoin="round"/><g fill="#c8b7b7"><path d="M10.5 16.14h43v1.3h-43zM10.5 48.71h43v1.3h-43z"/><path d="M13.1 13.53h1.3v39.1h-1.3zM49.6 13.53h1.3v39.1h-1.3z"/></g><path d="M24.83 23.96l-2.6 16.93-2.6-7.81h-3.99v2.6h1.85l3.08 9.12h3.7l3.17-18.24h18.24v2.6h2.6v-5.2z" fill="#fff"/><path d="M30.05 43.5l13.03-13.03M43.08 43.5L30.05 30.47" fill="none" stroke="#fff" stroke-width="2.61" stroke-linecap="round"/></svg>