<?xml version="1.0" encoding="UTF-8" standalone="no"?><svg xmlns:dc="http://purl.org/dc/elements/1.1/" xmlns:cc="http://creativecommons.org/ns#" xmlns:rdf="http://www.w3.org/1999/02/22-rdf-syntax-ns#" xmlns="http://www.w3.org/2000/svg" xmlns:xlink="http://www.w3.org/1999/xlink" width="48" height="48" version="1"><metadata><rdf:RDF><cc:Work><dc:format>image/svg+xml</dc:format><dc:type rdf:resource="http://purl.org/dc/dcmitype/StillImage"/><dc:title/></cc:Work></rdf:RDF></metadata><defs><linearGradient id="b"><stop stop-color="#4d4d4d" offset="0"/><stop offset=".29"/><stop offset=".6"/><stop stop-color="gray" offset="1"/></linearGradient><linearGradient xlink:href="#a" id="i" x1="33.68" y1="42.95" x2="54.92" y2="42.95" gradientUnits="userSpaceOnUse" gradientTransform="matrix(1.15063 0 0 1.15063 -26.97 -5.44)"/><linearGradient id="a"><stop offset="0" stop-color="gray"/><stop offset=".13" stop-color="#1a1a1a"/><stop offset=".51"/><stop offset=".72" stop-color="#1a1a1a"/><stop offset="1" stop-color="#999"/></linearGradient><linearGradient xlink:href="#b" id="j" x1="38.5" y1="18.99" x2="50.1" y2="18.99" gradientUnits="userSpaceOnUse" gradientTransform="matrix(1.15063 0 0 1.15063 -26.97 -5.44)"/><linearGradient id="d"><stop offset="0" stop-color="#333"/><stop offset=".29"/><stop offset=".6"/><stop offset="1" stop-color="#4d4d4d"/></linearGradient><radialGradient xlink:href="#c" id="k" gradientUnits="userSpaceOnUse" gradientTransform="matrix(2.16759 -.02515 .02885 2.48671 -78.52 -41.73)" cx="51.29" cy="32.8" fx="51.29" fy="32.8" r="10.61"/><linearGradient id="c"><stop offset="0" stop-color="#b3b3b3"/><stop offset=".2" stop-color="#333"/><stop offset=".29"/><stop offset=".47"/><stop offset=".66" stop-color="#1a1a1a"/><stop offset=".79" stop-color="#333"/><stop offset=".88" stop-color="#4d4d4d"/><stop offset="1" stop-color="#e6e6e6"/></linearGradient><linearGradient xlink:href="#d" id="l" x1="38.1" y1="28.59" x2="51.68" y2="28.68" gradientUnits="userSpaceOnUse" gradientTransform="matrix(1.15063 0 0 1.15063 -26.97 -5.44)"/><radialGradient xlink:href="#e" id="m" cx="47.39" cy="19.05" fx="47.39" fy="19.05" r="5.8" gradientTransform="matrix(.18182 -.19785 .51178 .47032 11.89 17.37)" gradientUnits="userSpaceOnUse"/><linearGradient id="e"><stop offset="0" stop-color="#fff"/><stop offset="1" stop-color="#fff" stop-opacity="0"/></linearGradient><linearGradient xlink:href="#f" id="n" x1="47.43" y1="4.07" x2="38.86" y2="16.5" gradientUnits="userSpaceOnUse" gradientTransform="matrix(1.15063 0 0 1.15063 -26.97 -5.44)"/><linearGradient id="f"><stop offset="0" stop-color="#b3b3b3"/><stop offset=".39" stop-color="#333"/><stop offset=".72"/><stop offset="1"/></linearGradient><radialGradient xlink:href="#g" id="o" cx="48.17" cy="8.29" fx="48.17" fy="8.29" r="6.06" gradientTransform="matrix(-.79698 .20676 -.21496 -.82862 66.6 2.1)" gradientUnits="userSpaceOnUse"/><linearGradient id="g"><stop offset="0" stop-color="#ccc"/><stop offset="1" stop-color="#666" stop-opacity="0"/></linearGradient><linearGradient xlink:href="#e" id="r" x1="47.31" y1="20.92" x2="47.11" y2="20.22" gradientUnits="userSpaceOnUse" gradientTransform="matrix(1.15063 0 0 1.15063 -26.97 -5.44)"/><radialGradient xlink:href="#e" id="p" cx="50.35" cy="32.14" fx="50.35" fy="32.14" r="7.38" gradientTransform="matrix(.42801 -.13094 .60852 1.98894 -10.15 -25.6)" gradientUnits="userSpaceOnUse"/><radialGradient xlink:href="#h" id="q" cx="38.08" cy="31.31" fx="38.08" fy="31.31" r="7.11" gradientTransform="matrix(.56246 -1.63666 .4234 .1455 -17.84 88.26)" gradientUnits="userSpaceOnUse"/><linearGradient id="h"><stop offset="0" stop-color="#999"/><stop offset="1" stop-color="#f9f9f9" stop-opacity="0"/></linearGradient></defs><path d="M12.4 41.05l-.62.23.02 2.2c1.1 1.38 3.85 3.43 12.13 3.43h.14c8.28 0 11.02-2.05 12.12-3.44l.03-2.18-.63-.25L24 43.73z" fill="url(#i)"/><path d="M20.43 13.54c-.2 1.5-1.43 2.28-3.1 2.8.06 2.18 3.1 2.79 6.6 2.93h.14c3.5-.14 6.54-.75 6.6-2.94-1.66-.5-2.9-1.3-3.1-2.8l-3.57.18z" fill="url(#j)"/><path d="M15.52 33.83c-1.47 2.1-4.54 2.21-3.53 7.46 1.95 1.84 5.9 2.73 11.94 2.62h.14c6.04.1 9.99-.8 11.94-2.62 1-5.25-2.06-5.35-3.53-7.46L24 36.44z" fill="url(#k)"/><path d="M23 18.66l-2.23.2c-.86 13.93-5.52 8.83-5.25 14.97 1.17 1.92 4.26 2.63 8.4 2.63h.15c4.15 0 7.24-.7 8.4-2.63.29-6.14-4.37-1.06-5.24-14.96L25 18.64l-1 .6z" fill="url(#l)"/><path d="M20.57 13.55c-.2 1.5-1.44 2.29-3.1 2.8.06 2.18 3.1 2.79 6.6 2.93h.15c3.5-.14 6.54-.75 6.6-2.94-1.66-.5-2.9-1.3-3.11-2.8l-3.57.18z" fill="url(#m)"/><ellipse ry="6.93" rx="6.97" cy="8.01" cx="24.02" fill="url(#n)"/><ellipse ry="6.93" rx="6.97" cy="8.01" cx="24.02" opacity=".58" fill="url(#o)"/><path d="M23.08 18.66l-2.24.2c-.87 13.93-5.53 8.83-5.25 14.97 1.17 1.92 4.26 2.63 8.4 2.63h.15c4.15 0 7.25-.7 8.41-2.63.28-6.14-4.37-1.06-5.25-14.96l-2.23-.23-1 .6z" opacity=".49" fill="url(#p)"/><path d="M15.57 32.29c.26.36.76.64 1.17.92.52.33 1.15.6 1.86.8 1.44.42 3.25.6 5.33.6h.14c2.07 0 3.89-.18 5.33-.6a6.98 6.98 0 0 0 1.85-.8c.37-.23.61-.55.86-.86-.71-3.34-4.2-1.31-4.94-13.49l-2.24-.2-1 .57-1-.57-2.23.2c-.65 12.75-4.88 9.74-5.13 13.43z" opacity=".42" fill="url(#q)"/><path d="M15.57 32.29c-.13.5-.16.71-.12 1.54 1.18 1.92 4.26 2.63 8.4 2.63H24c4.14 0 7.39-.65 8.55-2.63a5.34 5.34 0 0 0-.15-1.62 6.21 6.21 0 0 1-1.15 1c-.52.33-1.14.6-1.85.8-1.44.42-3.25.6-5.33.6h-.14c-2.07 0-3.89-.18-5.33-.6a6.98 6.98 0 0 1-1.86-.8c-.41-.28-.9-.56-1.17-.92z" opacity=".89"/><path d="M17.7 16.15c-.14.04-.22.14-.37.18.06 2.19 3.1 2.8 6.6 2.94h.14c3.5-.14 6.54-.75 6.6-2.94-.05-.01-.08-.04-.13-.07-.1.23-.12.5-.3.7-.34.35-.83.64-1.44.87-1.2.43-2.83.63-4.58.69v.02h-.15v-.01a15.82 15.82 0 0 1-4.6-.7c-.59-.23-1.08-.52-1.43-.88-.2-.23-.24-.53-.34-.8z"/><path d="M11.93 38.08c-.2.8-.24 1.8.02 3.2 1.96 1.84 5.92 2.74 11.97 2.63h.15c6.06.1 10.01-.8 11.97-2.62.27-1.4.23-2.42.02-3.22-.02.34.06.53-.01.9-.5.47-1.1.87-1.84 1.2-.75.35-1.61.62-2.61.84-2 .45-4.5.65-7.53.6h-.14c-3.04.05-5.53-.15-7.52-.6-1-.22-1.87-.5-2.6-.84a6.87 6.87 0 0 1-1.84-1.2c-.08-.37 0-.57-.04-.9z" opacity=".65"/><path d="M17.7 16.15c.1.27.12.57.34.8.35.36.84.65 1.44.88 1.2.43 2.84.63 4.6.69v.02h.13v-.01c1.75-.07 3.38-.27 4.58-.7.6-.23 1.1-.52 1.45-.88.17-.2.2-.46.29-.69-1.6-.5-2.77-1.28-2.97-2.72l-3.57.17-3.57-.17c-.18 1.35-1.29 2.1-2.72 2.6z" opacity=".33" fill="url(#r)"/></svg>