<svg xmlns="http://www.w3.org/2000/svg" xmlns:xlink="http://www.w3.org/1999/xlink" width="64" height="64" version="1"><defs><linearGradient id="j"><stop offset="0" stop-color="#d74845"/><stop offset="1" stop-color="#d74845" stop-opacity="0"/></linearGradient><linearGradient id="i"><stop offset="0" stop-color="#e98928"/><stop offset="1" stop-color="#e98928" stop-opacity="0"/></linearGradient><linearGradient id="h"><stop offset="0" stop-color="#e0ad2f"/><stop offset="1" stop-color="#e0ad2f" stop-opacity="0"/></linearGradient><linearGradient id="f"><stop offset="0" stop-color="#4fae53"/><stop offset="1" stop-color="#4fae53" stop-opacity="0"/></linearGradient><linearGradient id="g"><stop offset="0" stop-color="#479ae1"/><stop offset="1" stop-color="#479ae1" stop-opacity="0"/></linearGradient><linearGradient id="e"><stop offset="0" stop-color="#a458b8"/><stop offset="1" stop-color="#a458b8" stop-opacity="0"/></linearGradient><linearGradient id="d"><stop offset="0" stop-color="#333"/><stop offset="1"/></linearGradient><linearGradient id="c"><stop offset="0" stop-color="#333"/><stop offset="1"/></linearGradient><linearGradient id="b"><stop offset="0" stop-color="#14ddb1"/><stop offset="1" stop-color="#2086e7"/></linearGradient><linearGradient id="a"><stop offset="0" stop-color="#4d4d4d"/><stop offset="1"/></linearGradient><radialGradient xlink:href="#c" id="r" cx="24.08" cy="25.28" fx="24.08" fy="25.28" r="18.19" gradientUnits="userSpaceOnUse" gradientTransform="translate(.76 .76) scale(.97613)"/><radialGradient xlink:href="#d" id="k" cx="18.52" cy="18.68" fx="18.52" fy="18.68" r="31.06" gradientUnits="userSpaceOnUse" gradientTransform="translate(.76 .76) scale(.97613)"/><radialGradient xlink:href="#e" id="q" cx="25.42" cy="17.25" fx="25.42" fy="17.25" r="14.25" gradientTransform="matrix(1 0 0 1.03667 0 -.63)" gradientUnits="userSpaceOnUse"/><radialGradient xlink:href="#f" id="m" cx="46.78" cy="38.56" fx="46.78" fy="38.56" r="14.79" gradientTransform="matrix(1 0 0 .9656 0 1.33)" gradientUnits="userSpaceOnUse"/><radialGradient xlink:href="#g" id="l" cx="46.31" cy="17.74" fx="46.31" fy="17.74" r="14.32" gradientTransform="matrix(1 0 0 .99745 0 .05)" gradientUnits="userSpaceOnUse"/><radialGradient xlink:href="#h" id="n" cx="38.68" cy="46.77" fx="38.68" fy="46.77" r="14.28" gradientTransform="matrix(1 0 0 1.03253 0 -1.52)" gradientUnits="userSpaceOnUse"/><radialGradient xlink:href="#i" id="o" cx="17.71" cy="46.23" fx="17.71" fy="46.23" r="14.28" gradientTransform="matrix(1 0 0 .99489 0 .24)" gradientUnits="userSpaceOnUse"/><radialGradient xlink:href="#j" id="p" cx="17.21" cy="25.37" fx="17.21" fy="25.37" r="14.78" gradientTransform="matrix(1 0 0 .96857 0 .8)" gradientUnits="userSpaceOnUse"/></defs><circle r="30.32" cx="31.99" cy="32.02" fill="url(#k)"/><path d="M32 32.02l28.63-7.67a29.59 29.59 0 0 0-20.97-20.9z" fill="url(#l)"/><path d="M32 31.95l20.96 20.9a29.59 29.59 0 0 0 7.6-28.57z" fill="url(#m)"/><path d="M32 32.02l-7.6 28.5a29.59 29.59 0 0 0 28.56-7.68z" fill="url(#n)"/><path d="M32 32.02L3.41 39.7a29.59 29.59 0 0 0 20.9 20.75z" fill="url(#o)"/><path d="M32 32.02L11.16 11.05A29.59 29.59 0 0 0 3.42 39.7z" fill="url(#p)"/><path d="M32 32.02l7.66-28.57a29.59 29.59 0 0 0-28.49 7.75z" fill="url(#q)"/><path d="M32 14.2a17.75 17.75 0 1 0 17.75 17.75v-13.3a4.38 4.38 0 0 0-4.39-4.38zm11.83 2.99a2.92 2.92 0 0 1 3 2.92 2.92 2.92 0 0 1-2.93 3.07 2.92 2.92 0 0 1-3-3 2.92 2.92 0 0 1 2.93-2.99z" fill="url(#r)"/></svg>