<svg xmlns="http://www.w3.org/2000/svg" xmlns:xlink="http://www.w3.org/1999/xlink" width="64" height="64" version="1"><defs><linearGradient id="c" gradientUnits="userSpaceOnUse" x1="60" y1="12.85" x2="60" y2="120.21" gradientTransform="translate(145.71 -238.21)"><stop offset="0" stop-color="#fff"/><stop offset="1" stop-color="#fff" stop-opacity="0"/></linearGradient><linearGradient gradientTransform="translate(59.5 .27)" xlink:href="#a" id="h" x1="128.39" y1="-164.85" x2="128.38" y2="-128.13" gradientUnits="userSpaceOnUse"/><linearGradient id="a"><stop offset="0"/><stop offset="1" stop-color="#4d4d4d"/></linearGradient><linearGradient gradientTransform="translate(59.5 .27)" xlink:href="#b" id="g" x1="100.03" y1="-164.84" x2="100.03" y2="-128.13" gradientUnits="userSpaceOnUse"/><linearGradient id="b"><stop offset="0"/><stop offset="1" stop-color="#fff" stop-opacity="0"/></linearGradient><linearGradient xlink:href="#c" id="f" gradientUnits="userSpaceOnUse" gradientTransform="matrix(.48333 0 0 .48333 144.71 -175.21)" x1="60.45" y1="-10.7" x2="60.91" y2="56.84"/><linearGradient xlink:href="#d" id="e" x1="165.36" y1="-175.11" x2="165.44" y2="-117.39" gradientUnits="userSpaceOnUse" gradientTransform="translate(-20.5 .27)"/><linearGradient id="d"><stop offset="0" stop-color="#333"/><stop offset="1"/></linearGradient></defs><path d="M202.71-143.31v-5.8l-6-.2c-.27-2-.8-3.91-1.53-5.72l5.1-3.17-2.9-5.03-5.3 2.84a23.31 23.31 0 0 0-4.19-4.18l2.84-5.3-5.03-2.9-3.17 5.1a23.05 23.05 0 0 0-5.71-1.53l-.2-6.01h-5.8l-.2 6c-2 .27-3.92.8-5.72 1.53l-3.17-5.1-5.03 2.9 2.84 5.3a23.33 23.33 0 0 0-4.18 4.19l-5.31-2.84-2.9 5.03 5.1 3.17a23.01 23.01 0 0 0-1.52 5.72l-6.02.2v5.8l6.02.2c.26 2 .78 3.9 1.52 5.7l-5.1 3.18 2.9 5.03 5.3-2.84a23.32 23.32 0 0 0 4.19 4.18l-2.84 5.31 5.03 2.9 3.17-5.1c1.8.74 3.72 1.26 5.71 1.52l.2 6.02h5.8l.2-6.02c2-.26 3.91-.78 5.72-1.52l3.17 5.1 5.03-2.9-2.84-5.3a23.33 23.33 0 0 0 4.18-4.19l5.3 2.84 2.9-5.03-5.1-3.17c.75-1.8 1.27-3.72 1.53-5.71zm-29 11.6c-8 0-14.5-6.5-14.5-14.5s6.5-14.5 14.5-14.5 14.5 6.5 14.5 14.5-6.5 14.5-14.5 14.5z" fill="url(#e)" transform="matrix(1 0 0 1 -141.71 178.21)"/><path d="M171.28-174.73l-.18 5.54a.49.49 0 0 1-.42.47c-1.93.26-3.81.76-5.6 1.49a.48.48 0 0 1-.59-.2l-2.93-4.7-4.21 2.44 2.61 4.9c.04.06.06.14.06.22 0 .14-.07.29-.19.38a22.87 22.87 0 0 0-4.09 4.1.48.48 0 0 1-.61.12l-4.9-2.6-2.43 4.2 4.7 2.93a.48.48 0 0 1 .2.6 22.55 22.55 0 0 0-1.5 5.59.48.48 0 0 1-.46.42l-5.54.18v1.54a133 133 0 0 0 13.6 1.98l-.07-1.08a15 15 0 0 1 14.98-14.99 15 15 0 0 1 14.99 14.99l-.07 1.08c4.74-.44 9.3-1.1 13.6-1.97v-1.55l-5.54-.18a.49.49 0 0 1-.47-.42 22.6 22.6 0 0 0-1.49-5.6.48.48 0 0 1 .2-.6l4.7-2.91-2.44-4.22-4.9 2.61a.48.48 0 0 1-.6-.13 22.85 22.85 0 0 0-4.1-4.09.48.48 0 0 1-.12-.6l2.6-4.9-4.2-2.44-2.94 4.7a.48.48 0 0 1-.59.2 22.59 22.59 0 0 0-5.6-1.5.48.48 0 0 1-.41-.46l-.18-5.54h-4.87z" fill="url(#f)" transform="matrix(1 0 0 1 -141.71 178.21)"/><path d="M173.71-162.65a16.43 16.43 0 1 0 0 32.87 16.43 16.43 0 0 0 0-32.87zm0 28.52a12.1 12.1 0 0 1-12.08-12.08 12.1 12.1 0 0 1 12.08-12.09 12.1 12.1 0 0 1 12.09 12.09 12.1 12.1 0 0 1-12.09 12.08z" fill="url(#g)" transform="matrix(1 0 0 1 -141.71 178.21)"/><path style="line-height:1.25;-inkscape-font-specification:'Sawasdee Bold'" d="M32.26 22.61c-1.4 0-2.73.27-4.02.8a10.45 10.45 0 0 0-3.3 2.15 10.22 10.22 0 0 0-3.02 7.14 10.1 10.1 0 0 0 6.32 9.25 10.4 10.4 0 0 0 12.57-3.68l-1.7-1.1-1.22-.79a7.85 7.85 0 0 1-1.23 1.32c-.35.3-.71.57-1.1.79-.38.21-.86.4-1.44.57a6.78 6.78 0 0 1-6.55-1.66 6.75 6.75 0 0 1-1.41-2.1 6.36 6.36 0 0 1 0-5.07 6.5 6.5 0 0 1 3.55-3.48 6.7 6.7 0 0 1 4.43-.25 5.91 5.91 0 0 1 2.54 1.38 8.85 8.85 0 0 1 1.23 1.3l1.23-.88 1.67-1.2a8.4 8.4 0 0 0-1.14-1.35 9.5 9.5 0 0 0-2.13-1.7 9.1 9.1 0 0 0-3.23-1.24c-.66-.13-1.34-.2-2.05-.2z" font-weight="700" font-size="27.15" font-family="Sawasdee" letter-spacing="0" word-spacing="0" fill="#666"/><path d="M173.71-161.68a15.48 15.48 0 0 0-15.46 15.47c0 8.52 6.94 15.46 15.46 15.46 8.53 0 15.47-6.94 15.47-15.46 0-8.53-6.94-15.47-15.47-15.47zm0 27.55a12.1 12.1 0 0 1-12.08-12.08 12.1 12.1 0 0 1 12.08-12.09 12.1 12.1 0 0 1 12.09 12.09 12.1 12.1 0 0 1-12.09 12.08z" fill="url(#h)" transform="matrix(1 0 0 1 -141.71 178.21)"/><path style="line-height:1.25;-inkscape-font-specification:'Sawasdee Bold'" d="M32.26 21.96c-1.4 0-2.73.26-4.02.8a10.45 10.45 0 0 0-3.3 2.14 10.22 10.22 0 0 0-3.02 7.14 10.1 10.1 0 0 0 6.32 9.25 10.4 10.4 0 0 0 12.57-3.68l-1.7-1.1v.01l-1.22-.8a7.85 7.85 0 0 1-1.23 1.32c-.35.31-.71.57-1.1.79-.38.22-.86.4-1.44.57a6.78 6.78 0 0 1-6.55-1.66 6.75 6.75 0 0 1-1.41-2.09 6.36 6.36 0 0 1 0-5.07 6.5 6.5 0 0 1 3.55-3.48 6.7 6.7 0 0 1 4.43-.26 5.91 5.91 0 0 1 2.54 1.38 8.85 8.85 0 0 1 1.23 1.3l1.23-.88 1.67-1.2a8.4 8.4 0 0 0-1.14-1.34 9.5 9.5 0 0 0-2.13-1.71 9.1 9.1 0 0 0-3.23-1.23c-.66-.14-1.34-.2-2.05-.2z" font-weight="700" font-size="27.15" font-family="Sawasdee" letter-spacing="0" word-spacing="0" fill="#1a1a1a"/></svg>