<svg xmlns="http://www.w3.org/2000/svg" xmlns:xlink="http://www.w3.org/1999/xlink" width="64" height="64" version="1"><defs><linearGradient id="b"><stop offset="0" stop-color="#7fff2a"/><stop offset="1" stop-color="#0f0"/></linearGradient><linearGradient id="a"><stop offset="0" stop-color="#4d4d4d"/><stop offset="1"/></linearGradient><radialGradient xlink:href="#a" id="c" cx="16" cy="19.25" fx="16" fy="19.25" r="28" gradientUnits="userSpaceOnUse" gradientTransform="matrix(.9469 .3632 -.3837 1.00036 7.09 -6.73)"/><linearGradient xlink:href="#b" id="d" x1="9" y1="49.73" x2="46.95" y2="9.16" gradientUnits="userSpaceOnUse"/></defs><path d="M32 2C15.38 2 2 15.38 2 32c0 16.62 13.38 30 30 30 16.62 0 30-13.38 30-30C62 15.38 48.62 2 32 2z" fill="url(#c)"/><path d="M32 14.42c-1.76-.02-3.5.24-5.2.7-7.9 2.12-13.67 9.94-13.55 18.12H9c2.16 3.18 6.27 9.4 6.27 9.4l6.28-9.4h-4.1A14.24 14.24 0 0 1 21 23.8c4.29-5.15 12.05-7.3 18.02-2.92 1.89 2.48 6.02-.34 3.89-2.78A17.67 17.67 0 0 0 32 14.42zM48.73 23.83l-6.28 9.4h4.1A14.25 14.25 0 0 1 43 42.68c-4.29 5.15-12.05 7.3-18.02 2.92-1.89-2.48-6.02.33-3.89 2.78A17.67 17.67 0 0 0 32 52.06c1.77.01 3.51-.25 5.2-.71 7.9-2.12 13.68-9.93 13.56-18.11H55c-2.16-3.19-6.27-9.41-6.27-9.41z" opacity=".3" fill="#fff"/><path d="M32 12.42c-1.76-.02-3.5.24-5.2.7-7.9 2.13-13.68 9.94-13.56 18.12H9c2.16 3.18 6.27 9.4 6.27 9.4l6.27-9.4h-4.1A14.25 14.25 0 0 1 21 21.8c4.29-5.15 12.05-7.3 18.02-2.92 1.89 2.48 6.02-.34 3.89-2.78A17.67 17.67 0 0 0 32 12.42zm16.73 9.4l-6.27 9.42h4.1A14.25 14.25 0 0 1 43 40.67c-4.29 5.15-12.05 7.3-18.02 2.92-1.89-2.48-6.02.33-3.89 2.78A17.67 17.67 0 0 0 32 50.06c1.77.01 3.51-.25 5.2-.71 7.9-2.12 13.69-9.93 13.57-18.11H55c-2.16-3.19-6.27-9.41-6.27-9.41z" fill="url(#d)"/></svg>