<svg xmlns="http://www.w3.org/2000/svg" xmlns:xlink="http://www.w3.org/1999/xlink" width="64" height="64" version="1"><defs><linearGradient id="g"><stop offset="0" stop-color="navy"/><stop offset="1" stop-color="#fff" stop-opacity="0"/></linearGradient><linearGradient y2="102.09" x2="115.98" y1="72.34" x1="108" gradientUnits="userSpaceOnUse" id="k" xlink:href="#a"/><linearGradient y2="102.09" x2="115.98" y1="72.34" x1="108" gradientUnits="userSpaceOnUse" id="i" xlink:href="#a"/><linearGradient gradientTransform="translate(229.84 405.96)" y2="109.87" x2="12.73" y1="120.76" x1="23.98" gradientUnits="userSpaceOnUse" id="b"><stop offset="0" stop-color="#eee"/><stop offset="1" stop-color="#535353"/></linearGradient><clipPath id="h"><use width="1" height="1" xlink:href="#b"/></clipPath><linearGradient x1="115.98" y1="72.4" x2="115.98" y2="120.4" id="a" gradientUnits="userSpaceOnUse"><stop offset="0" stop-color="#00316e" stop-opacity="0"/><stop offset="1" stop-color="#00316e"/></linearGradient><filter x="-.29" width="1.58" y="-.06" height="1.11" id="j"><feGaussianBlur stdDeviation="2.41"/></filter><filter x="-.29" width="1.58" y="-.06" height="1.11" id="l"><feGaussianBlur stdDeviation="2.41"/></filter><linearGradient id="c"><stop offset="0" stop-color="#fff"/><stop offset="1" stop-color="#fff" stop-opacity="0"/></linearGradient><linearGradient id="d"><stop offset="0" stop-color="#fff"/><stop offset="1" stop-color="#fff" stop-opacity="0"/></linearGradient><linearGradient id="e"><stop offset="0" stop-color="#fff" stop-opacity="0"/><stop offset="1" stop-color="#fff"/></linearGradient><linearGradient id="f"><stop offset="0"/><stop offset="1" stop-color="#666"/></linearGradient><linearGradient xlink:href="#g" id="n" x1="23.48" y1="-26.34" x2="76.45" y2="50.82" gradientUnits="userSpaceOnUse" gradientTransform="matrix(.49158 0 0 .49158 .54 .54)"/><linearGradient xlink:href="#f" id="m" gradientUnits="userSpaceOnUse" gradientTransform="matrix(.5531 0 0 .5531 -3.34 .98)" x1="81.09" y1="96.36" x2="63.78" y2="15.27"/></defs><g clip-path="url(#h)" transform="translate(12.49 32.57) scale(.05638)" opacity=".6"><path d="M119.34 21.66c-.37-1.27-1.67-2.57-3.36-3.59-1.7 1.02-3 2.32-3.37 3.6-.07.23-6.96 23.98-6.5 46.7-.46 22.78 6.43 46.53 6.5 46.77.38 1.27 1.68 2.57 3.37 3.59 1.7-1.02 2.99-2.32 3.36-3.6.07-.23 6.97-23.98 6.5-46.7.47-22.78-6.43-46.53-6.5-46.77z" opacity=".8" fill="url(#i)" filter="url(#j)"/><path d="M119.34 21.66c-.37-1.27-1.67-2.57-3.36-3.59-1.7 1.02-3 2.32-3.37 3.6-.07.23-6.96 23.98-6.5 46.7-.46 22.78 6.43 46.53 6.5 46.77.38 1.27 1.68 2.57 3.37 3.59 1.7-1.02 2.99-2.32 3.36-3.6.07-.23 6.97-23.98 6.5-46.7.47-22.78-6.43-46.53-6.5-46.77z" transform="matrix(-1 0 0 1 139.2 0)" opacity=".8" fill="url(#k)" filter="url(#l)"/></g><rect width="61.88" height="44.15" x="1.06" y="9.92" rx="1.26" ry="1.26" fill="url(#m)" enable-background="new"/><path d="M62.43 10.23a1.22 1.22 0 0 0-.75-.3H2.32a1.25 1.25 0 0 0-1.26 1.25v41.64c0 .33.14.6.34.83z" opacity=".52" fill="url(#n)"/><path d="M9.5 41.13v7.3h6.91v-7.3zm9.52 0v7.3h6.91v-7.3zm9.52 0v7.3h6.92v-7.3zm9.53 0v7.3h6.9v-7.3zm9.52 0v7.3h6.9v-7.3z" fill="#fff"/></svg>