<?xml version="1.0" encoding="UTF-8" standalone="no"?><!--Created with Inkscape (http://www.inkscape.org/)--><svg xmlns:dc="http://purl.org/dc/elements/1.1/" xmlns:cc="http://creativecommons.org/ns#" xmlns:rdf="http://www.w3.org/1999/02/22-rdf-syntax-ns#" xmlns="http://www.w3.org/2000/svg" xmlns:xlink="http://www.w3.org/1999/xlink" width="64" height="64" version="1"><defs><linearGradient id="f"><stop offset="0" stop-color="navy"/><stop offset="1" stop-color="#fff" stop-opacity="0"/></linearGradient><linearGradient y2="102.09" x2="115.98" y1="72.34" x1="108" gradientUnits="userSpaceOnUse" id="k" xlink:href="#a"/><linearGradient y2="102.09" x2="115.98" y1="72.34" x1="108" gradientUnits="userSpaceOnUse" id="i" xlink:href="#a"/><linearGradient gradientTransform="translate(229.84 405.96)" y2="109.87" x2="12.73" y1="120.76" x1="23.98" gradientUnits="userSpaceOnUse" id="b"><stop offset="0" stop-color="#eee"/><stop offset="1" stop-color="#535353"/></linearGradient><clipPath id="h"><use width="1" height="1" xlink:href="#b"/></clipPath><linearGradient x1="115.98" y1="72.4" x2="115.98" y2="120.4" id="a" gradientUnits="userSpaceOnUse"><stop offset="0" stop-color="#00316e" stop-opacity="0"/><stop offset="1" stop-color="#00316e"/></linearGradient><filter x="-.29" width="1.58" y="-.06" height="1.11" id="j"><feGaussianBlur stdDeviation="2.41"/></filter><filter x="-.29" width="1.58" y="-.06" height="1.11" id="l"><feGaussianBlur stdDeviation="2.41"/></filter><linearGradient id="c"><stop offset="0" stop-color="#fff"/><stop offset="1" stop-color="#fff" stop-opacity="0"/></linearGradient><linearGradient id="d"><stop offset="0" stop-color="#fff"/><stop offset="1" stop-color="#fff" stop-opacity="0"/></linearGradient><linearGradient id="e"><stop offset="0" stop-color="#fff" stop-opacity="0"/><stop offset="1" stop-color="#fff"/></linearGradient><linearGradient xlink:href="#f" id="n" gradientUnits="userSpaceOnUse" gradientTransform="matrix(.48495 0 0 .4817 1.17 1.17)" x1="23.48" y1="-26.34" x2="76.45" y2="50.82"/><linearGradient xlink:href="#g" id="m" gradientUnits="userSpaceOnUse" gradientTransform="translate(-2.64 1.6) scale(.54199)" x1="81.09" y1="96.36" x2="63.78" y2="15.27"/><linearGradient id="g"><stop offset="0" stop-color="#333"/><stop offset="1" stop-color="#666"/></linearGradient></defs><metadata><rdf:RDF><cc:Work><dc:format>image/svg+xml</dc:format><dc:type rdf:resource="http://purl.org/dc/dcmitype/StillImage"/><dc:title/></cc:Work></rdf:RDF></metadata><g transform="translate(12.49 32.57) scale(.05638)" clip-path="url(#h)" opacity=".6"><path d="M119.34 21.66c-.37-1.27-1.67-2.57-3.36-3.59-1.7 1.02-3 2.32-3.37 3.6-.07.23-6.96 23.98-6.5 46.7-.46 22.78 6.43 46.53 6.5 46.77.38 1.27 1.68 2.57 3.37 3.59 1.7-1.02 2.99-2.32 3.36-3.6.07-.23 6.97-23.98 6.5-46.7.47-22.78-6.43-46.53-6.5-46.77z" opacity=".8" fill="url(#i)" filter="url(#j)"/><path transform="matrix(-1 0 0 1 139.2 0)" d="M119.34 21.66c-.37-1.27-1.67-2.57-3.36-3.59-1.7 1.02-3 2.32-3.37 3.6-.07.23-6.96 23.98-6.5 46.7-.46 22.78 6.43 46.53 6.5 46.77.38 1.27 1.68 2.57 3.37 3.59 1.7-1.02 2.99-2.32 3.36-3.6.07-.23 6.97-23.98 6.5-46.7.47-22.78-6.43-46.53-6.5-46.77z" opacity=".8" fill="url(#k)" filter="url(#l)"/></g><rect ry="2.56" rx="2.56" y="10.37" x="1.68" height="43.27" width="60.64" fill="url(#m)" enable-background="new"/><path d="M5.08 26.92h4.98v4.72H5.08zm0-13h4.98v4.72H5.08zm0 6.5h4.98v4.72H5.08z" fill="#fff"/><path d="M4.52 10.37a2.83 2.83 0 0 0-2.84 2.83v37.6c0 .78.32 1.5.83 2l.06.03 58.91-41.64a2.82 2.82 0 0 0-2-.82z" opacity=".52" fill="url(#n)"/><path d="M4.7 48.65a.5.5 0 0 0-.5.51v3.45h56.12v-3.45a.5.5 0 0 0-.5-.5z" fill="#1a1a1a" enable-background="new"/><path d="M4.94 49.66c0-.2.16-.35.35-.35h1.9c.18 0 .34.16.34.35v1.9c0 .18-.16.34-.35.34h-1.9a.35.35 0 0 1-.34-.35z" fill="#fff"/></svg>