<svg xmlns="http://www.w3.org/2000/svg" xmlns:xlink="http://www.w3.org/1999/xlink" width="64" height="64" version="1"><defs><linearGradient id="c" gradientUnits="userSpaceOnUse" x1="60" y1="12.85" x2="60" y2="120.21" gradientTransform="translate(145.71 -238.21)"><stop offset="0" stop-color="#fff"/><stop offset="1" stop-color="#fff" stop-opacity="0"/></linearGradient><linearGradient id="a"><stop offset="0"/><stop offset="1" stop-color="#4d4d4d"/></linearGradient><linearGradient id="b"><stop offset="0"/><stop offset="1" stop-color="#fff" stop-opacity="0"/></linearGradient><linearGradient id="d"><stop offset="0" stop-color="#333"/><stop offset="1"/></linearGradient><linearGradient gradientTransform="rotate(9.99 -524.98 -295.38) scale(.55288)" xlink:href="#a" id="s" x1="128.39" y1="-164.85" x2="128.38" y2="-128.13" gradientUnits="userSpaceOnUse"/><linearGradient gradientTransform="rotate(9.99 -524.98 -295.38) scale(.55288)" xlink:href="#b" id="r" x1="100.03" y1="-164.84" x2="100.03" y2="-128.13" gradientUnits="userSpaceOnUse"/><linearGradient xlink:href="#c" id="q" gradientUnits="userSpaceOnUse" gradientTransform="rotate(9.99 6.55 22.68) scale(.26722)" x1="60.45" y1="-10.7" x2="60.91" y2="56.84"/><linearGradient xlink:href="#d" id="p" x1="165.36" y1="-175.11" x2="165.44" y2="-117.39" gradientUnits="userSpaceOnUse" gradientTransform="rotate(9.99 -502.86 -548.44) scale(.55288)"/><linearGradient id="g"><stop offset="0" stop-color="#0ff"/><stop offset=".6" stop-color="#00f"/><stop offset="1" stop-color="#00f"/></linearGradient><linearGradient id="f"><stop offset="0"/><stop offset="1" stop-color="#333"/></linearGradient><linearGradient id="e"><stop offset="0" stop-color="#181818"/><stop offset="1" stop-color="#181818" stop-opacity="0"/></linearGradient><radialGradient xlink:href="#d" id="t" cx="17.49" cy="21.08" fx="17.49" fy="21.08" r="1.93" gradientTransform="matrix(1.25713 .45584 -.44505 1.22737 4.88 -32.77)" gradientUnits="userSpaceOnUse"/><radialGradient xlink:href="#d" id="u" cx="17.49" cy="21.08" fx="17.49" fy="21.08" r="1.93" gradientTransform="matrix(1.25713 .45584 -.44505 1.22737 9.88 -32.77)" gradientUnits="userSpaceOnUse"/><radialGradient xlink:href="#d" id="v" cx="17.49" cy="21.08" fx="17.49" fy="21.08" r="1.93" gradientTransform="matrix(1.25713 .45584 -.44505 1.22737 14.88 -32.77)" gradientUnits="userSpaceOnUse"/><radialGradient xlink:href="#d" id="w" cx="17.49" cy="21.08" fx="17.49" fy="21.08" r="1.93" gradientTransform="matrix(1.25713 .45584 -.44505 1.22737 19.88 -32.77)" gradientUnits="userSpaceOnUse"/><radialGradient xlink:href="#d" id="x" cx="17.49" cy="21.08" fx="17.49" fy="21.08" r="1.93" gradientTransform="matrix(1.25713 .45584 -.44505 1.22737 24.88 -32.77)" gradientUnits="userSpaceOnUse"/><radialGradient xlink:href="#d" id="y" cx="17.49" cy="21.08" fx="17.49" fy="21.08" r="1.93" gradientTransform="matrix(1.25713 .45584 -.44505 1.22737 29.88 -32.77)" gradientUnits="userSpaceOnUse"/><linearGradient xlink:href="#f" id="n" x1="7.5" y1="53.47" x2="7.35" y2="37.32" gradientUnits="userSpaceOnUse" gradientTransform="matrix(.89454 0 0 .89454 61.76 4.97)"/><linearGradient xlink:href="#d" id="o" gradientUnits="userSpaceOnUse" x1="16.12" y1="21.12" x2="16.12" y2="11" gradientTransform="matrix(.65053 0 0 .65053 65.02 35.43)"/><linearGradient xlink:href="#g" id="m" x1="37.61" y1="33.73" x2="37.61" y2="42.58" gradientUnits="userSpaceOnUse" gradientTransform="matrix(1.21014 0 0 .96811 5.6 7.19)"/><linearGradient xlink:href="#h" id="l" gradientUnits="userSpaceOnUse" gradientTransform="matrix(3.02878 0 0 2.17225 -38.03 -23.71)" x1="22.66" y1="23.32" x2="22.66" y2="17.97"/><linearGradient id="h"><stop offset="0" stop-color="gray"/><stop offset="1"/></linearGradient><linearGradient xlink:href="#f" id="k" gradientUnits="userSpaceOnUse" gradientTransform="matrix(2.88103 0 0 1.7773 -34.54 -15.56)" x1="15.09" y1="25.62" x2="14.97" y2="14.93"/><linearGradient xlink:href="#i" id="j" x1="3" y1="4.5" x2="2.96" y2="54.07" gradientUnits="userSpaceOnUse" gradientTransform="matrix(.96811 0 0 .9194 2.1 .06)"/><linearGradient id="i"><stop offset="0"/><stop offset=".74" stop-color="#333"/><stop offset=".74"/><stop offset=".8" stop-color="#1a1a1a"/><stop offset="1" stop-color="#333"/></linearGradient></defs><rect y="4.2" x="5" ry="1.83" rx="1.9" height="45.05" width="57.12" fill="url(#j)" fill-rule="evenodd" stroke="#1a1a1a" stroke-width=".48" stroke-linecap="round" stroke-linejoin="round"/><rect y="16.78" x="14.68" ry="1.45" rx="2.1" height="8.71" width="37.76" opacity=".9" fill="#fff" stroke="url(#k)" stroke-width=".97"/><rect y="15.81" x="13.71" ry="2.26" rx="3.2" height="10.65" width="39.69" opacity=".4" fill="none" stroke="url(#l)" stroke-width=".97"/><rect width="14.52" height="6.78" rx="2.28" ry="1.92" x="43.72" y="40.59" opacity=".9" fill="url(#m)"/><path d="M5.71 38.08h55.67" fill="none" stroke="#020202" stroke-width=".96" stroke-linecap="square"/><g transform="translate(-56 -.16) scale(.96811)"><path d="M75.62 38.96a7.16 7.16 0 1 0 .02 14.33 7.16 7.16 0 0 0-.02-14.33zm0 4.48a2.68 2.68 0 1 1 0 5.36 2.68 2.68 0 0 1 0-5.36z" fill="url(#n)"/><circle r="2.96" cy="45.88" cx="75.5" style="marker:none" color="#000" overflow="visible" fill="none" stroke="url(#o)" stroke-width=".88"/><path d="M32.56 22.14l.55-3.16-3.25-.68c.05-1.12-.06-2.2-.28-3.26l3.08-1.24-1.1-3.02-3.15 1.04a12.89 12.89 0 0 0-1.89-2.68l2.06-2.61-2.46-2.06-2.22 2.47a12.74 12.74 0 0 0-2.96-1.38l.47-3.3-3.16-.55-.68 3.25c-1.12-.04-2.21.06-3.27.28l-1.23-3.08-3.02 1.1 1.04 3.16A12.9 12.9 0 0 0 8.4 8.3L5.8 6.24 3.73 8.7l2.47 2.22a12.72 12.72 0 0 0-1.37 2.97l-3.3-.47-.56 3.16 3.26.68c-.05 1.12.05 2.2.28 3.25l-3.08 1.25 1.1 3.01 3.16-1.04a12.9 12.9 0 0 0 1.88 2.68L5.5 29.03l2.46 2.06 2.22-2.47c.9.58 1.9 1.04 2.96 1.37l-.47 3.3 3.16.56.69-3.26c1.11.05 2.2-.05 3.26-.28l1.23 3.08 3.02-1.1L23 29.14a12.9 12.9 0 0 0 2.68-1.88l2.61 2.05 2.07-2.46-2.48-2.22c.58-.9 1.05-1.9 1.38-2.96zm-16.9 3.53a8.02 8.02 0 1 1 2.79-15.8 8.02 8.02 0 0 1-2.8 15.8z" fill="url(#p)" transform="translate(58.56 28.34)"/><path d="M18.45 2.02l-.62 3a.27.27 0 0 1-.28.21c-1.07-.04-2.15.05-3.19.28a.27.27 0 0 1-.3-.17L12.9 2.5l-2.52.93.95 2.91c.01.04.02.09 0 .13a.27.27 0 0 1-.13.19A12.64 12.64 0 0 0 8.59 8.5a.27.27 0 0 1-.34 0L5.83 6.63 4.1 8.67l2.28 2.05a.27.27 0 0 1 .05.35 12.47 12.47 0 0 0-1.35 2.9.27.27 0 0 1-.3.18l-3.03-.43-.14.84a73.53 73.53 0 0 0 7.21 2.38l.07-.6a8.3 8.3 0 0 1 9.6-6.72 8.3 8.3 0 0 1 6.72 9.6l-.15.58c2.63.21 5.17.3 7.6.23l.15-.84-3-.63a.27.27 0 0 1-.22-.28 12.5 12.5 0 0 0-.27-3.19.27.27 0 0 1 .16-.3l2.84-1.14-.92-2.53-2.92.95a.27.27 0 0 1-.31-.13 12.63 12.63 0 0 0-1.85-2.62.27.27 0 0 1 0-.34l1.88-2.42-2.05-1.73-2.05 2.28a.27.27 0 0 1-.34.05 12.49 12.49 0 0 0-2.9-1.35.27.27 0 0 1-.19-.3l.44-3.03z" fill="url(#q)" transform="translate(58.56 28.34)"/><path d="M18.62 8.83a9.09 9.09 0 1 0-3.15 17.9 9.09 9.09 0 0 0 3.15-17.9zm-2.74 15.53a6.69 6.69 0 0 1-5.41-7.74 6.69 6.69 0 0 1 7.73-5.42 6.69 6.69 0 0 1 5.43 7.74 6.69 6.69 0 0 1-7.75 5.42z" fill="url(#r)" transform="translate(58.56 28.34)"/><path d="M18.53 9.36a8.56 8.56 0 0 0-9.9 6.94 8.56 8.56 0 0 0 16.84 2.96 8.56 8.56 0 0 0-6.94-9.9zm-2.65 15a6.69 6.69 0 0 1-5.41-7.74 6.69 6.69 0 0 1 7.73-5.42 6.69 6.69 0 0 1 5.43 7.74 6.69 6.69 0 0 1-7.75 5.42z" fill="url(#s)" transform="translate(58.56 28.34)"/></g><path d="M20.43 2a1.93 1.93 0 1 1-3.86 0 1.93 1.93 0 0 1 3.86 0z" fill="url(#t)" transform="translate(2.1 19.2) scale(.96811)"/><path d="M25.43 2a1.93 1.93 0 1 1-3.86 0 1.93 1.93 0 0 1 3.86 0z" fill="url(#u)" transform="translate(2.1 19.2) scale(.96811)"/><path d="M30.43 2a1.93 1.93 0 1 1-3.86 0 1.93 1.93 0 0 1 3.86 0z" fill="url(#v)" transform="translate(2.1 19.2) scale(.96811)"/><path d="M35.43 2a1.93 1.93 0 1 1-3.86 0 1.93 1.93 0 0 1 3.86 0z" fill="url(#w)" transform="translate(2.1 19.2) scale(.96811)"/><path d="M40.43 2a1.93 1.93 0 1 1-3.86 0 1.93 1.93 0 0 1 3.86 0z" fill="url(#x)" transform="translate(2.1 19.2) scale(.96811)"/><path d="M45.43 2a1.93 1.93 0 1 1-3.86 0 1.93 1.93 0 0 1 3.86 0z" fill="url(#y)" transform="translate(2.1 19.2) scale(.96811)"/></svg>