<svg xmlns="http://www.w3.org/2000/svg" xmlns:xlink="http://www.w3.org/1999/xlink" width="64" height="64"><defs><linearGradient id="b"><stop offset="0" stop-color="#80e5ff"/><stop offset="1" stop-color="#045"/></linearGradient><linearGradient id="a"><stop offset="0"/><stop offset="1" stop-color="#333"/></linearGradient><linearGradient xlink:href="#a" id="c" x1="26.38" y1="1037.24" x2="26.38" y2="1044.74" gradientUnits="userSpaceOnUse" gradientTransform="translate(0 -.7)"/><linearGradient id="e" x1="12.94" x2="15.25" y1="8.44" y2="19.81" gradientTransform="matrix(1.2543 0 0 1.6421 1.89 4.01)" gradientUnits="userSpaceOnUse"><stop offset="0" stop-color="#fff" stop-opacity=".27"/><stop offset="1" stop-color="#fff" stop-opacity="0"/></linearGradient><radialGradient xlink:href="#b" id="d" cx="21.95" cy="1029.22" fx="21.95" fy="1029.22" r="26.34" gradientTransform="matrix(.00492 -1.04 1.58983 .00752 -1589.54 1039.43)" gradientUnits="userSpaceOnUse"/></defs><path fill="url(#c)" d="M26.38 1036.55h11.25v7.5H26.38z" transform="translate(0 -988.36)"/><path d="M2 5.75v43.13h60V5.74z"/><path fill="#1a1a1a" d="M20.75 54.38h22.5v1.88h-22.5z"/><path d="M5.65 997.3h52.68v36.48H5.65z" fill="url(#d)" fill-rule="evenodd" transform="translate(0 -988.36)"/><path d="M5.65 8.94h52.68v13.13L5.65 33.57z" fill="url(#e)"/><path d="M7.56 10.78v7.58h48.88v-7.58z" color="#000" fill="#fff"/><path d="M9.78 13.3v2.53h3.34v-2.52H9.78zm5.56 0v2.53h3.33v-2.52h-3.33zm5.55 0v2.53h3.33v-2.52H20.9zm22.22.85v.84h11.1v-.84h-11.1z" color="#000" fill="#1a1a1a"/></svg>