<svg xmlns="http://www.w3.org/2000/svg" xmlns:xlink="http://www.w3.org/1999/xlink" width="64" height="64"><defs><linearGradient id="k"><stop offset="0"/><stop offset=".45"/><stop offset="1" stop-color="#333"/></linearGradient><linearGradient id="j"><stop stop-color="#333" offset="0"/><stop offset="1"/></linearGradient><linearGradient gradientTransform="matrix(-.03815 0 0 .03815 76.27 -5.13)" y2="255.08" x2="559.95" y1="822.11" x1="1520.16" gradientUnits="userSpaceOnUse" id="e"><stop stop-color="#fff" offset="0"/><stop offset=".32" stop-color="#ccc"/><stop stop-color="#fff" offset=".5"/><stop offset=".8" stop-color="#ccc"/><stop offset="1"/></linearGradient><radialGradient id="a" cx="34" cy="42" r="32" gradientTransform="matrix(.375 0 0 1 -22.75 -40)" gradientUnits="userSpaceOnUse"><stop offset="0" stop-color="#5f5f5f"/><stop offset=".65" stop-color="#252525"/><stop offset="1" stop-color="#3b3b3b"/></radialGradient><radialGradient id="b" cx="33.5" cy="77.83" r="75.67" gradientUnits="userSpaceOnUse" gradientTransform="translate(-44 -40)"><stop offset=".08" stop-color="#babdb6"/><stop offset=".09" stop-color="#b2b5af"/><stop offset=".11" stop-color="#9da19b"/><stop offset=".13" stop-color="#7a7e7c"/><stop offset=".15" stop-color="#4a4f50"/><stop offset=".17" stop-color="#2e3436"/><stop offset=".18" stop-color="#363b3d"/><stop offset=".19" stop-color="#4b5050"/><stop offset=".21" stop-color="#6e716e"/><stop offset=".22" stop-color="#888a85"/><stop offset=".29" stop-color="#90928c"/><stop offset=".39" stop-color="#a4a7a1"/><stop offset=".52" stop-color="#c6cac2"/><stop offset=".56" stop-color="#d3d7cf"/><stop offset=".58" stop-color="#eaece8"/><stop offset=".59" stop-color="#f9faf9"/><stop offset=".6" stop-color="#fff"/><stop offset=".61" stop-color="#e8eae6"/><stop offset=".62" stop-color="#d9dcd5"/><stop offset=".63" stop-color="#d3d7cf"/><stop offset=".72" stop-color="#babdb6"/><stop offset=".83" stop-color="#9ea19b"/><stop offset=".93" stop-color="#8e908b"/><stop offset="1" stop-color="#888a85"/></radialGradient><linearGradient gradientTransform="rotate(14.19 7.49 7.64)" y2="11.5" x2="7.46" y1="3.5" x1="7.46" gradientUnits="userSpaceOnUse" id="c"><stop offset="0" stop-color="#666"/><stop offset="1" stop-color="#333"/></linearGradient><linearGradient gradientTransform="rotate(24 9.04 7)" y2="7.58" x2="7.84" y1="8.58" x1="7.84" gradientUnits="userSpaceOnUse" id="d"><stop offset="0" stop-color="#333"/><stop offset="1"/></linearGradient><linearGradient id="f"><stop offset="0"/><stop offset="1" stop-color="#333"/></linearGradient><linearGradient gradientTransform="matrix(0 -1.8298 2.94135 0 -3.83 74.67)" xlink:href="#g" id="m" x1="13.03" y1="12.22" x2="35.51" y2="5.23" gradientUnits="userSpaceOnUse"/><linearGradient id="g"><stop offset="0" stop-color="teal"/><stop offset="1" stop-color="#0ff"/></linearGradient><linearGradient xlink:href="#h" id="n" x1="48" y1="38.75" x2="54.75" y2="94.84" gradientUnits="userSpaceOnUse" gradientTransform="matrix(.36781 0 0 .65623 8.53 -13.55)"/><linearGradient id="h"><stop offset="0" stop-color="#fff"/><stop offset="1" stop-color="#fff" stop-opacity="0"/></linearGradient><linearGradient gradientTransform="matrix(2.45798 0 0 2.45798 -27.04 -2.14)" xlink:href="#i" id="p" x1="21.16" y1="23" x2="21.14" y2="25.37" gradientUnits="userSpaceOnUse"/><linearGradient id="i"><stop offset="0" stop-color="#333"/><stop offset="1" stop-color="#333" stop-opacity=".25"/></linearGradient><radialGradient xlink:href="#j" id="l" cx="11.29" cy="10.44" fx="11.29" fy="10.44" r="21.48" gradientTransform="matrix(1.20867 2.46965 -1.6281 .7968 20 -26.82)" gradientUnits="userSpaceOnUse"/><linearGradient xlink:href="#k" id="o" x1="39.42" y1="58.77" x2="39.42" y2="54.31" gradientUnits="userSpaceOnUse"/></defs><path d="M17.67 3.34h28.64a7.18 7.18 0 0 1 7.17 7.15v43a7.18 7.18 0 0 1-7.17 7.17H17.69a7.18 7.18 0 0 1-7.17-7.18V10.5a7.18 7.18 0 0 1 7.17-7.15z" fill="url(#l)"/><path d="M12.34 50.88V9.66c0-.52.68-.94 1.54-.94h36.48c.84 0 1.53.42 1.53.94v41.22c0 .54-.7.96-1.53.96H13.88c-.86 0-1.54-.42-1.54-.96zm0 0" fill="#4d4d4d" opacity=".31"/><path d="M13.25 49.92v-39.3c0-.5.66-.9 1.48-.9h34.78c.8 0 1.46.4 1.46.9v39.3c0 .52-.66.92-1.46.92H14.73c-.82 0-1.48-.4-1.48-.92zm0 0" fill="url(#m)"/><path d="M13.29 30.98c3.45 2.12 7.88 3.38 13.3 3.38 9 0 18.53-3.45 24.25-8.68V9.4H13.29z" opacity=".2" fill="url(#n)"/><rect width="13.84" height="3.54" x="25.04" y="54.61" rx="1.99" ry="1.99" fill="url(#o)" stroke="url(#p)" stroke-width=".88" stroke-linecap="round" stroke-linejoin="round"/></svg>