<svg xmlns="http://www.w3.org/2000/svg" xmlns:xlink="http://www.w3.org/1999/xlink" width="64" height="64" version="1"><defs><linearGradient id="b"><stop offset="0" stop-color="#21d789"/><stop offset=".29" stop-color="#cf4f8c"/><stop offset=".68" stop-color="#2086e7"/><stop offset="1" stop-color="#6655e4"/></linearGradient><radialGradient gradientTransform="matrix(2.07143 0 0 2.07143 -17.71 -17.71)" xlink:href="#a" id="c" cx="18.12" cy="18.12" fx="18.12" fy="18.12" r="14" gradientUnits="userSpaceOnUse"/><linearGradient id="a"><stop offset="0" stop-color="#4d4d4d"/><stop offset="1"/></linearGradient><linearGradient xlink:href="#b" id="d" gradientUnits="userSpaceOnUse" gradientTransform="matrix(2.07143 0 0 2.07143 -17.71 -17.71)" x1="14.61" y1="23.14" x2="31.88" y2="28.3"/></defs><path d="M58.93 61H5.07A2.07 2.07 0 0 1 3 58.93V5.07C3 3.93 3.93 3 5.07 3h53.86C60.07 3 61 3.93 61 5.07v53.86c0 1.14-.93 2.07-2.07 2.07z" fill="url(#c)"/><path d="M40.9 11.37a9.72 9.72 0 0 0-7.49 3.11c-1.92 2.08-2.87 4.77-2.87 8.1 0 3.24.93 5.92 2.81 8.04a9.25 9.25 0 0 0 7.19 3.16 7.7 7.7 0 0 0 3.7-.82 8.05 8.05 0 0 0 2.75-2.6l.53 2.8h2.64V21.62h-8.57v3.67h4.87a5.37 5.37 0 0 1-.61 2.05 4.54 4.54 0 0 1-1.15 1.38 6.3 6.3 0 0 1-3.66 1.32c-1.78 0-3.25-.7-4.4-2.11a8.33 8.33 0 0 1-1.7-5.4c0-2.3.52-4.12 1.58-5.43a5.39 5.39 0 0 1 4.4-1.96c2.62 0 4.32 1.14 5.1 3.43h4.14a7.54 7.54 0 0 0-2.9-5.25c-1.67-1.3-3.79-1.94-6.37-1.94zm-30.44.41v21.39h8.35c3.11 0 5.36-.83 6.75-2.5 1.74-2.03 2.61-4.77 2.61-8.2 0-3.41-.87-6.15-2.6-8.22a6.26 6.26 0 0 0-2.7-1.88c-1.06-.4-2.41-.59-4.06-.59h-8.35zm4.4 3.67h3.95c3.3 0 4.96 2.35 4.96 7.04 0 4.67-1.65 7.01-4.96 7.01h-3.96V15.45zM11.28 46.5v4.14h18.64V46.5H11.29z" fill="url(#d)"/></svg>