<?xml version="1.0" encoding="UTF-8" standalone="no"?>
<svg
   xmlns:dc="http://purl.org/dc/elements/1.1/"
   xmlns:cc="http://creativecommons.org/ns#"
   xmlns:rdf="http://www.w3.org/1999/02/22-rdf-syntax-ns#"
   xmlns:svg="http://www.w3.org/2000/svg"
   xmlns="http://www.w3.org/2000/svg"
   xmlns:xlink="http://www.w3.org/1999/xlink"
   xmlns:sodipodi="http://sodipodi.sourceforge.net/DTD/sodipodi-0.dtd"
   xmlns:inkscape="http://www.inkscape.org/namespaces/inkscape"
   width="64"
   height="64"
   version="1"
   id="svg23"
   sodipodi:docname="debian-logo.svg"
   inkscape:version="0.92.4 (5da689c313, 2019-01-14)">
  <metadata
     id="metadata27">
    <rdf:RDF>
      <cc:Work
         rdf:about="">
        <dc:format>image/svg+xml</dc:format>
        <dc:type
           rdf:resource="http://purl.org/dc/dcmitype/StillImage" />
        <dc:title></dc:title>
      </cc:Work>
    </rdf:RDF>
  </metadata>
  <sodipodi:namedview
     pagecolor="#ffffff"
     bordercolor="#666666"
     borderopacity="1"
     objecttolerance="10"
     gridtolerance="10"
     guidetolerance="10"
     inkscape:pageopacity="0"
     inkscape:pageshadow="2"
     inkscape:window-width="1366"
     inkscape:window-height="717"
     id="namedview25"
     showgrid="false"
     inkscape:zoom="8.40625"
     inkscape:cx="32"
     inkscape:cy="32"
     inkscape:window-x="0"
     inkscape:window-y="25"
     inkscape:window-maximized="1"
     inkscape:current-layer="svg23" />
  <defs
     id="defs13">
    <linearGradient
       id="b">
      <stop
         offset="0"
         stop-color="#37abc8"
         id="stop2" />
      <stop
         offset="1"
         stop-color="#afdde9"
         id="stop4" />
    </linearGradient>
    <linearGradient
       id="a">
      <stop
         offset="0"
         stop-color="#4d4d4d"
         id="stop7" />
      <stop
         offset="1"
         id="stop9" />
    </linearGradient>
    <radialGradient
       xlink:href="#a"
       id="c"
       cx="16"
       cy="19.25"
       fx="16"
       fy="19.25"
       r="28"
       gradientUnits="userSpaceOnUse"
       gradientTransform="matrix(.88378 .33898 -.35812 .93367 8.75 -4.15)" />
  </defs>
  <path
     d="M32 4C16.49 4 4 16.49 4 32s12.49 28 28 28 28-12.49 28-28S47.51 4 32 4z"
     fill="url(#c)"
     id="path15" />
  <path
     style="fill:#c74372;fill-opacity:1;stroke-width:1.10005331"
     d="m 14.55203,24.819817 c 0.232925,-0.726762 0.274639,-1.162758 0.363545,-1.583967 -0.64133,0.836039 -0.294814,1.015349 -0.363017,1.584077 m 1.186297,-5.044845 c 0.115704,1.089384 -0.804556,1.512683 0.20361,0.793513 0.541336,-1.241081 -0.210573,-0.342403 -0.20361,-0.793513 M 33.35621,10.237619 c 0.501096,-0.186612 1.23261,-0.102659 1.766026,-0.225555 -0.694288,0.05918 -1.385188,0.09458 -2.067,0.183082 l 0.300952,0.04248 m 16.123481,20.344387 -0.108905,0.279412 c -0.199637,1.445362 -0.632223,2.875541 -1.293773,4.202204 0.731052,-1.399378 1.202358,-2.930322 1.402568,-4.481395 M 29.07577,35.099052 c -0.259502,-0.291009 -0.409968,-0.640648 -0.582236,-0.990313 0.163886,0.612467 0.499622,1.138887 0.811004,1.675052 l -0.228812,-0.683133 m -1.152856,0.0451 -0.104502,0.529126 c 0.488203,0.675169 0.875576,1.406528 1.497832,1.932464 -0.447964,-0.889613 -0.780202,-1.257251 -1.393108,-2.46192 m 6.076694,-24.321079 -0.278312,0.0594 0.259612,-0.0242 0.0187,-0.0352 m -0.789838,-0.22331 c 0.396328,0.07183 0.856216,0.127463 0.790147,0.224036 0.435049,-0.09762 0.532887,-0.185612 -0.790147,-0.224036 m 8.265801,18.599701 c 0.09038,-1.360986 -0.262736,-0.930072 -0.381432,-0.411684 0.138079,0.07384 0.24782,0.959906 0.381432,0.411684 m -1.469671,3.89639 c 0.443498,-0.621576 0.765307,-1.301254 0.879031,-2.004298 -0.09984,0.5007 -0.365526,0.93311 -0.617812,1.390248 -1.387167,0.889612 -0.131127,-0.527982 -9.93e-4,-1.067624 -1.490902,1.913211 -0.205622,1.147025 -0.26025,1.681652 m -3.982193,1.009848 c -0.741986,0.01 0.139553,0.388407 1.108523,0.540654 0.268678,-0.21341 0.510051,-0.427854 0.726586,-0.637238 -0.602412,0.150221 -1.216219,0.153743 -1.835109,0.0966 M 14.55522,24.820322 c 0.232925,-0.726783 0.274639,-1.162757 0.363535,-1.584077 -0.642146,0.836525 -0.295992,1.015063 -0.363535,1.584077 m 1.185967,-5.044405 c 0.115715,1.089405 -0.804546,1.512683 0.20362,0.793535 0.541326,-1.241192 -0.210572,-0.342403 -0.20362,-0.793535 m 17.616255,-9.539656 c 0.501096,-0.186625 1.23261,-0.102669 1.766025,-0.225566 -0.694287,0.05917 -1.385077,0.09457 -2.067,0.183082 l 0.300953,0.04248 m 16.123481,20.346585 -0.108762,0.279183 c -0.199648,1.44547 -0.632212,2.87576 -1.293773,4.202314 0.731041,-1.399488 1.202359,-2.930322 1.402459,-4.481508 m -20.403789,4.51649 c -0.25825,-0.291318 -0.410222,-0.64131 -0.58205,-0.989268 0.163886,0.612476 0.499612,1.138996 0.811004,1.675052 l -0.228944,-0.685818 m -1.152636,0.04552 -0.10479,0.529532 c 0.48818,0.675192 0.875554,1.406529 1.497832,1.932464 -0.447964,-0.889634 -0.780202,-1.25736 -1.392998,-2.462028 m 6.076034,-24.321079 -0.27861,0.05917 0.259734,-0.02428 0.01887,-0.0349 m 11.066532,18.942937 c 0.04092,1.142735 -0.320577,1.697932 -0.647535,2.67995 l -0.587957,0.304121 c -0.480657,0.9715 0.04772,0.616778 -0.296486,1.389147 -0.751205,0.693869 -2.27645,2.170515 -2.764654,2.305712 -0.356968,-0.0084 0.241462,-0.437976 0.319675,-0.605888 -1.004503,0.717037 -0.806229,1.076513 -2.342673,1.513014 l -0.04456,-0.104545 c -3.787924,1.854139 -9.050139,-1.819599 -8.981056,-6.831112 -0.04002,0.31785 -0.115044,0.238382 -0.198736,0.366098 -0.195545,-2.578304 1.145046,-5.16783 3.405766,-6.226742 2.211546,-1.138004 4.803932,-0.671626 6.38669,0.865082 -0.86944,-1.185307 -2.601626,-2.441898 -4.652786,-2.325732 -2.010348,0.03406 -3.891769,1.362636 -4.51902,2.805576 -1.029518,0.674002 -1.149555,2.599646 -1.597937,2.952323 -0.604347,4.616264 1.135475,6.60978 4.078997,8.956414 0.462001,0.32445 0.130049,0.374128 0.191894,0.621024 -0.977684,-0.475817 -1.87262,-1.194768 -2.609106,-2.07492 0.391068,0.594534 0.812587,1.172546 1.357796,1.626538 -0.92266,-0.32401 -2.154565,-2.323752 -2.513182,-2.405156 1.589246,2.959804 6.447192,5.190932 8.992276,4.083618 -1.177718,0.04538 -2.67335,0.02506 -3.995614,-0.483386 -0.557046,-0.297498 -1.311484,-0.912868 -1.176398,-1.02778 3.47243,1.348446 7.058383,1.020696 10.062188,-1.483752 0.764868,-0.619616 1.599698,-1.67296 1.84116,-1.687151 -0.363326,0.568507 0.06228,0.273385 -0.216909,0.775229 0.760313,-1.277492 -0.331512,-0.520281 0.786693,-2.206047 l 0.412894,0.591235 c -0.154602,-1.061375 1.266381,-2.348614 1.121834,-4.025975 0.326034,-0.512691 0.363325,0.552447 0.0176,1.732034 0.479733,-1.308734 0.12688,-1.519174 0.249646,-2.599646 0.132336,0.363238 0.308301,0.748718 0.397889,1.132285 -0.312855,-1.265171 0.319676,-2.129813 0.477005,-2.865419 -0.155503,-0.07096 -0.482461,0.559069 -0.557947,-0.934606 0.01166,-0.648943 0.174183,-0.34007 0.236446,-0.49993 -0.121886,-0.0733 -0.443366,-0.570884 -0.638449,-1.524894 0.140499,-0.224674 0.37833,0.58129 0.571147,0.613918 -0.124152,-0.7582 -0.337408,-1.336674 -0.346516,-1.918822 -0.563866,-1.22502 -0.199616,0.163665 -0.656182,-0.525958 -0.600233,-1.945883 0.497488,-0.451704 0.57205,-1.335246 0.908556,1.369238 1.426439,3.49311 1.66526,4.372052 -0.181883,-1.072222 -0.475201,-2.111332 -0.833994,-3.11645 0.276927,0.121556 -0.44517,-2.205607 0.359673,-0.66452 -0.862442,-3.28454 -3.676378,-6.353908 -6.265903,-7.793878 0.316815,0.301414 0.717234,0.679612 0.574228,0.739236 -1.289264,-0.796879 -1.062652,-0.859802 -1.247462,-1.196638 -1.04945,-0.443982 -1.117654,0.03652 -1.812888,10e-4 -1.977894,-1.091692 -2.358514,-0.975747 -4.178002,-1.65888 l 0.08279,0.402994 c -1.310052,-0.454058 -1.526544,0.171222 -2.942202,9.47e-4 -0.08594,-0.06949 0.453838,-0.253497 0.898546,-0.320204 -1.266932,0.174062 -1.20775,-0.260118 -2.4474,0.04777 0.305134,-0.222784 0.628902,-0.370828 0.954474,-0.559994 -1.032686,0.06526 -2.46632,0.625292 -2.023988,0.115406 -1.684732,0.782292 -4.677428,1.880102 -6.356769,3.517971 l -0.05276,-0.367043 c -0.769399,0.96061 -3.355382,2.869158 -3.561532,4.114639 l -0.205996,0.04966 c -0.399694,0.705202 -0.65935,1.504104 -0.97676,2.229148 -0.523383,0.928445 -0.767595,0.357584 -0.693011,0.503253 -1.029958,2.171945 -1.542385,3.996713 -1.983946,5.494106 0.314681,0.489523 0.0079,2.947703 0.126418,4.914819 -0.516564,9.71699 6.556317,19.150827 14.287493,21.327833 1.133164,0.422376 2.817896,0.40724 4.251266,0.448844 -1.690672,-0.503252 -1.908924,-0.2663 -3.556912,-0.863652 -1.188168,-0.58272 -1.448332,-1.24724 -2.290312,-2.007378 l 0.333316,0.61251 c -1.65063,-0.607757 -0.95995,-0.752018 -2.303292,-1.194218 l 0.356066,-0.4829 c -0.532426,-0.0418 -1.414669,-0.937246 -1.65668,-1.43447 l -0.585691,0.02414 c -0.703022,-0.901515 -1.078162,-1.552835 -1.050441,-2.05743 l -0.189187,0.350961 C 23.663209,46.554272 21.289603,43.55139 22.520892,44.250584 22.292169,44.033962 21.98796,43.897269 21.658274,43.273429 l 0.250571,-0.297499 c -0.591609,-0.793182 -1.090439,-1.809588 -1.052224,-2.148294 0.316024,0.44363 0.53522,0.526904 0.752591,0.603049 -1.496513,-3.861407 -1.580667,-0.212376 -2.713392,-3.93049 l 0.239174,-0.0198 c -0.18327,-0.28896 -0.295563,-0.600649 -0.442905,-0.907608 l 0.104587,-1.080759 c -1.076512,-1.295862 -0.300755,-5.509066 -0.144767,-7.819178 0.106705,-0.939446 0.898963,-1.940494 1.499593,-3.50917 l -0.366516,-0.06526 c 0.701174,-1.271332 4.002434,-5.107768 5.532168,-4.910858 0.740754,-0.967717 -0.147342,-0.0038 -0.292394,-0.246896 1.627528,-1.751505 2.139054,-1.23734 3.237236,-1.552835 1.183658,-0.730744 -1.016316,0.285662 -0.45518,-0.2786 2.04764,-0.543448 1.45053,-1.23635 4.12124,-1.512133 0.281922,0.166482 -0.653454,0.257303 -0.888094,0.473463 1.705192,-0.868382 5.397301,-0.670218 7.796517,0.481493 2.781375,1.353176 5.908826,5.35132 6.032472,9.113062 l 0.1405,0.03926 c -0.07094,1.495522 0.220098,3.225136 -0.285112,4.813394 l 0.3415,-0.752503 M 33.21056,10.602332 c 0.396306,0.07183 0.856194,0.127452 0.790136,0.224048 0.435048,-0.09761 0.532888,-0.185612 -0.790136,-0.224048 m 8.267891,18.601902 c 0.09039,-1.360986 -0.262715,-0.930096 -0.381411,-0.411684 0.138068,0.07385 0.247821,0.959928 0.381411,0.411684 m -1.471541,3.896388 c 0.443486,-0.621584 0.765307,-1.301362 0.87903,-2.004296 -0.09982,0.5007 -0.365514,0.93313 -0.617812,1.390357 -1.387057,0.889635 -0.131104,-0.528015 -9.93e-4,-1.067657 -1.490902,1.913323 -0.2056,1.147026 -0.260228,1.681652 m -3.981534,1.011014 c -0.741964,0.01016 0.139554,0.38843 1.108524,0.540655 0.268678,-0.213433 0.51004,-0.427877 0.726574,-0.637261 -0.60241,0.150212 -1.216218,0.153754 -1.834998,0.09659"
     id="path8"
     inkscape:connector-curvature="0" />
</svg>
