<svg xmlns="http://www.w3.org/2000/svg" xmlns:xlink="http://www.w3.org/1999/xlink" width="64" height="64" version="1"><defs><linearGradient id="b"><stop offset="0" stop-color="#6655e4"/><stop offset=".45" stop-color="#ff8c2a"/><stop offset="1" stop-color="#cf4f8c"/></linearGradient><radialGradient gradientTransform="matrix(2.07143 0 0 2.07143 -17.71 -17.71)" xlink:href="#a" id="c" cx="18.12" cy="18.12" fx="18.12" fy="18.12" r="14" gradientUnits="userSpaceOnUse"/><linearGradient id="a"><stop offset="0" stop-color="#4d4d4d"/><stop offset="1"/></linearGradient><linearGradient xlink:href="#b" id="d" gradientUnits="userSpaceOnUse" gradientTransform="matrix(2.07143 0 0 2.07143 -17.71 -17.71)" x1="14" y1="23.98" x2="32.42" y2="24.16"/></defs><path d="M58.93 61H5.07A2.07 2.07 0 0 1 3 58.93V5.07C3 3.93 3.93 3 5.07 3h53.86C60.07 3 61 3.93 61 5.07v53.86c0 1.14-.93 2.07-2.07 2.07z" fill="url(#c)"/><path d="M40.33 11.43c-3 0-5.4 1-7.15 3.02-1.76 2.02-2.64 4.75-2.64 8.22 0 3.44.87 6.17 2.6 8.18 1.75 2 4.1 3 7.08 3 2.66 0 4.8-.72 6.45-2.15a8.02 8.02 0 0 0 2.67-5.84h-4.28a4.72 4.72 0 0 1-1.44 3.17 4.71 4.71 0 0 1-3.29 1.12c-1.7 0-3.03-.66-3.99-1.97-.93-1.31-1.4-3.13-1.4-5.46 0-2.36.48-4.21 1.46-5.54s2.34-2 4.08-2c2.5 0 4.03 1.29 4.58 3.85h4.19a7.74 7.74 0 0 0-2.73-5.57c-1.6-1.35-3.66-2.03-6.19-2.03zm-29.87.35v21.39h8.35c3.11 0 5.36-.83 6.75-2.5 1.74-2.03 2.61-4.77 2.61-8.2 0-3.41-.87-6.15-2.6-8.22a6.26 6.26 0 0 0-2.7-1.88c-1.06-.4-2.41-.59-4.06-.59zm4.4 3.67h3.95c3.3 0 4.96 2.35 4.96 7.04 0 4.67-1.65 7.01-4.96 7.01h-3.96zM11.28 46.5v4.14h18.64V46.5z" fill="url(#d)"/></svg>