<svg xmlns="http://www.w3.org/2000/svg" xmlns:xlink="http://www.w3.org/1999/xlink" width="64" height="64" version="1"><defs><linearGradient id="b"><stop offset="0" stop-color="#14ddb1"/><stop offset=".4" stop-color="#cf4f8c"/><stop offset="1" stop-color="#6655e4"/></linearGradient><radialGradient gradientTransform="matrix(2.07143 0 0 2.07143 -17.71 -17.71)" xlink:href="#a" id="c" cx="18.12" cy="18.12" fx="18.12" fy="18.12" r="14" gradientUnits="userSpaceOnUse"/><linearGradient id="a"><stop offset="0" stop-color="#4d4d4d"/><stop offset="1"/></linearGradient><linearGradient xlink:href="#b" id="d" gradientUnits="userSpaceOnUse" gradientTransform="matrix(2.07143 0 0 2.07143 -17.71 -17.71)" x1="14" y1="23.98" x2="31.58" y2="23.86"/></defs><path d="M58.93 61H5.07A2.07 2.07 0 0 1 3 58.93V5.07C3 3.93 3.93 3 5.07 3h53.86C60.07 3 61 3.93 61 5.07v53.86c0 1.14-.93 2.07-2.07 2.07z" fill="url(#c)"/><path d="M10.46 11.78v21.39h8.35c3.11 0 5.36-.83 6.75-2.5 1.74-2.03 2.61-4.77 2.61-8.2 0-3.41-.87-6.15-2.6-8.22a6.26 6.26 0 0 0-2.7-1.88c-1.06-.4-2.41-.59-4.06-.59h-8.35zm21.25 0v21.39h4.4v-7.63h5.48c1.96 0 3.52-.65 4.7-1.94 1.17-1.29 1.76-3.02 1.76-5.19 0-2.15-.6-3.8-1.8-4.93-1.17-1.13-2.87-1.7-5.1-1.7h-9.44zm-16.86 3.67h3.96c3.3 0 4.96 2.35 4.96 7.04 0 4.67-1.65 7.01-4.96 7.01h-3.96V15.45zm21.26 0h4.1c1.18 0 2.04.26 2.59.8.56.52.85 1.33.85 2.43 0 2.13-1.15 3.2-3.43 3.2H36.1v-6.43zM11.29 46.5v4.14h18.64V46.5H11.29z" fill="url(#d)"/></svg>