<svg xmlns="http://www.w3.org/2000/svg" xmlns:xlink="http://www.w3.org/1999/xlink" width="64" height="64" version="1"><defs><linearGradient id="c"><stop offset="0" stop-color="#f0f"/><stop offset="1"/></linearGradient><linearGradient id="b"><stop offset="0" stop-color="#4d4d4d"/><stop offset="1"/></linearGradient><linearGradient id="a"><stop offset="0" stop-color="#4d4d4d"/><stop offset="1"/></linearGradient><radialGradient xlink:href="#b" id="e" cx="30.09" cy="23.79" fx="30.09" fy="23.79" r="24.29" gradientUnits="userSpaceOnUse"/><radialGradient xlink:href="#c" id="d" cx="11.79" cy="32.12" fx="11.79" fy="32.12" r="27.15" gradientUnits="userSpaceOnUse" gradientTransform="matrix(1.12248 .71125 -.60579 .95604 18.01 -6.97)"/></defs><circle r="27.15" cy="32" cx="29.15" fill="url(#d)"/><circle r="24.29" cy="32" cx="37.7" fill="url(#e)"/><path d="M4.82 24.86a1.43 1.43 0 0 0 0 2.85h54.3a1.43 1.43 0 1 0 0-2.85H4.81zm0 5.71a1.43 1.43 0 0 0 0 2.86h54.3a1.43 1.43 0 0 0 0-2.86H4.81zm0 5.72a1.43 1.43 0 1 0 0 2.85h54.3a1.43 1.43 0 0 0 0-2.85H4.81z" fill="#fff"/></svg>