<svg xmlns="http://www.w3.org/2000/svg" xmlns:xlink="http://www.w3.org/1999/xlink" width="64" height="64" version="1"><defs><linearGradient id="a"><stop offset="0" stop-color="#4d4d4d"/><stop offset="1"/></linearGradient><radialGradient xlink:href="#a" id="c" cx="16" cy="19.25" fx="16" fy="19.25" r="28" gradientUnits="userSpaceOnUse" gradientTransform="matrix(.88378 .33898 -.35812 .93367 8.75 -4.15)"/><radialGradient xlink:href="#b" id="d" cx="23.24" cy="23.11" fx="23.24" fy="23.11" r="15.71" gradientTransform="matrix(1.98354 1.76402 -1.1117 1.25003 -.84 -47.94)" gradientUnits="userSpaceOnUse"/><linearGradient id="b"><stop offset="0" stop-color="#bc5fd3"/><stop offset="1" stop-color="#441650"/></linearGradient></defs><path d="M32 4C16.49 4 4 16.49 4 32s12.49 28 28 28 28-12.49 28-28S47.51 4 32 4z" fill="url(#c)"/><path d="M43.63 13.1a11.86 11.86 0 0 0-3.73.61c1.3-.1 4.02.46 4.02 1.47.01 1.19-1.36 1.17-3.4 1.06-6.46-.35-16.1-2.9-18.84-1.39A3.08 3.08 0 0 0 20 17.58c0 1.53 1.4 3.95 3.66 6.24a43.6 43.6 0 0 0 7.3 5.76c1.62.96 1.66 1.05.33.74-6.3-1.48-12.87-.97-17.71 1.4-2.47 1.2-3.88 3.29-3.59 5.32.21 1.47.95 2.7 2.57 4.3 1.35 1.34 2.57 2.22 5.1 3.7 3.4 1.99 8.31 3.56 13.54 4.65.65.13 11.4 2.27 14.98-.24 2.22-1.54 2.44-5.06-.97-6.82.4 3.26-1.8 3.87-6.09 3.58a45.53 45.53 0 0 1-11.68-2.5c-3.86-1.34-7.99-3.96-7.23-6.42 2.12-5.4 17.57-3.8 20.47-4.02C37.22 30.63 26 23.24 29.2 19.47c1.36-1.6 5.37-.9 10.05-.06 4.24.77 10.61 3.14 10.77-2.2a3.84 3.84 0 0 0-2.26-3.52c-.6-.28-1.2-.66-4.14-.6z" opacity=".2" fill="#bc5fd3" stroke-width="4.82"/><path d="M42.72 15.83a11.07 11.07 0 0 0-3.48.58c1.22-.09 3.75.43 3.76 1.37 0 1.11-1.27 1.1-3.18 1-6.03-.34-15.03-2.72-17.59-1.3a2.88 2.88 0 0 0-1.56 2.55c0 1.42 1.3 3.68 3.42 5.82a40.7 40.7 0 0 0 6.82 5.38c1.5.9 1.55.98.3.69-5.87-1.39-12-.9-16.53 1.3-2.31 1.12-3.63 3.07-3.35 4.97.2 1.38.88 2.52 2.4 4.02a21.32 21.32 0 0 0 4.75 3.46c3.19 1.85 7.77 3.32 12.65 4.34.6.12 10.64 2.12 13.99-.23 2.07-1.44 2.28-4.72-.9-6.36.37 3.03-1.68 3.6-5.7 3.34a42.51 42.51 0 0 1-10.9-2.35c-3.6-1.24-7.46-3.69-6.75-5.98 1.98-5.05 16.4-3.56 19.1-3.76-3.23-2.46-13.7-9.36-10.7-12.88 1.26-1.5 5.01-.85 9.38-.06 3.96.72 9.9 2.94 10.06-2.05a3.58 3.58 0 0 0-2.11-3.3c-.56-.25-1.12-.6-3.88-.55z" opacity=".2" fill="#bc5fd3" stroke-width="4.5"/><path d="M42.72 14.34a11.07 11.07 0 0 0-3.48.58c1.22-.1 3.75.42 3.76 1.37 0 1.1-1.27 1.09-3.18.99-6.03-.33-15.03-2.71-17.59-1.3a2.88 2.88 0 0 0-1.56 2.55c0 1.43 1.3 3.68 3.42 5.82a40.7 40.7 0 0 0 6.82 5.38c1.5.9 1.55.99.3.7-5.87-1.4-12-.91-16.53 1.3-2.31 1.12-3.63 3.07-3.35 4.96.2 1.38.88 2.53 2.4 4.02a21.32 21.32 0 0 0 4.75 3.46c3.19 1.85 7.77 3.32 12.65 4.34.6.12 10.64 2.12 13.99-.22 2.07-1.45 2.28-4.73-.9-6.37.37 3.04-1.68 3.61-5.7 3.34a42.51 42.51 0 0 1-10.9-2.34c-3.6-1.24-7.46-3.7-6.75-5.99 1.98-5.05 16.4-3.55 19.1-3.76-3.23-2.45-13.7-9.36-10.7-12.88 1.26-1.49 5.01-.85 9.38-.05 3.96.71 9.9 2.93 10.06-2.06a3.58 3.58 0 0 0-2.11-3.29c-.56-.26-1.12-.61-3.88-.55z" fill="url(#d)" stroke-width="4.5"/></svg>