<svg xmlns="http://www.w3.org/2000/svg" xmlns:xlink="http://www.w3.org/1999/xlink" width="64" height="64" version="1"><defs><linearGradient id="d"><stop offset="0" stop-color="#cd87de"/><stop offset="1" stop-color="#441650"/></linearGradient><linearGradient id="c"><stop offset="0" stop-color="#ffb380"/><stop offset="1" stop-color="#ff7f2a"/></linearGradient><linearGradient id="b"><stop offset="0" stop-color="#333"/><stop offset=".5"/><stop offset="1"/></linearGradient><linearGradient xlink:href="#a" id="g" gradientUnits="userSpaceOnUse" gradientTransform="matrix(.48574 -.00257 -.00027 .46777 1.19 .74)" x1="67.64" y1="-14.27" x2="80.33" y2="79.55"/><linearGradient id="a"><stop offset="0" stop-color="#fdfdfd"/><stop offset="1" stop-color="#fdfdfd" stop-opacity="0"/></linearGradient><linearGradient xlink:href="#b" id="e" gradientUnits="userSpaceOnUse" x1="85.01" y1="34.89" x2="82.91" y2="147.23" gradientTransform="matrix(-.46984 -.03741 -.03741 .46984 65.66 70)"/><linearGradient xlink:href="#d" id="f" x1="26.72" y1="12.49" x2="32.52" y2="53.53" gradientUnits="userSpaceOnUse"/></defs><path d="M41.61 71.22a33.3 33.3 0 0 0-8.77-.84C16.62 70.96 3.78 82.9 4.17 97.04a23.23 23.23 0 0 0 6.03 14.88c-1.9 3.62-4.92 6.11-9.14 6.31 6.4 3 14.1 2.24 19.73 1.06a32.57 32.57 0 0 0 13.44 2.33c16.23-.58 29.08-12.53 28.7-26.68-.31-11.49-9.27-20.9-21.32-23.72z" fill="url(#e)" transform="translate(0 -64)"/><path d="M29.95 11.37c-1.55.1-2.95 1.3-2.99 2.55v.04c-.01.12.03.28.05.52v.04c1.6 7.58 2.16 15.2 3.75 22.63.98-.1 2.49-.3 3.5-.4-.21-7.36-.88-14.66-.97-22.08a2.94 2.94 0 0 0-2.62-3.28 4.63 4.63 0 0 0-.72-.02zM33.2 42.6a2.81 2.81 0 0 0-1.92.94v.04a3.46 3.46 0 0 0-.97 2.78v.04c.16 2.14 2.78 3.56 4.67 2.67h.05c1.85-.7 2.63-3.35 1.45-4.99a.2.2 0 0 1-.06-.04 3.25 3.25 0 0 0-2.46-1.43 5.97 5.97 0 0 0-.76-.01z" fill="#441650" opacity=".34"/><path d="M29.95 13.01c-1.55.11-2.95 1.3-2.99 2.55v.04c-.01.12.03.28.05.52v.05c1.6 7.57 2.16 15.18 3.75 22.62.98-.1 2.49-.3 3.5-.4-.21-7.36-.88-14.65-.97-22.08a2.94 2.94 0 0 0-2.62-3.28 4.63 4.63 0 0 0-.72-.02zm3.25 31.24a2.81 2.81 0 0 0-1.92.94v.04a3.46 3.46 0 0 0-.97 2.78v.04c.16 2.15 2.78 3.56 4.67 2.68h.05c1.85-.7 2.63-3.36 1.45-5a.2.2 0 0 1-.06-.03 3.25 3.25 0 0 0-2.46-1.44 5.97 5.97 0 0 0-.76-.01z" fill="url(#f)"/><path d="M34.13 6.35c-1.05 0-2.12.06-3.2.16C15.74 8 3.9 19.15 5.13 31.43c.04.44.1.88.18 1.3 7.02 2.5 16 3.95 25.1 3.9 11.73-.06 22.87-2.56 30.75-6.58.16-1.31.18-2.64.05-3.98-1-9.98-10.48-17.63-21.97-19.36a33.29 33.29 0 0 0-5.1-.36z" opacity=".64" fill="url(#g)"/></svg>