<svg xmlns="http://www.w3.org/2000/svg" xmlns:xlink="http://www.w3.org/1999/xlink" width="64" height="64"><defs><linearGradient id="a"><stop offset="0" stop-color="#333"/><stop offset="1"/></linearGradient><radialGradient xlink:href="#a" id="c" cx="17.08" cy="14.09" fx="17.08" fy="14.09" r="27.67" gradientUnits="userSpaceOnUse"/><radialGradient xlink:href="#b" id="d" cx="33.37" cy="29.25" fx="33.37" fy="29.25" r="16.8" gradientTransform="matrix(1.50975 -.308 .19801 .9706 -23.91 5.15)" gradientUnits="userSpaceOnUse"/><linearGradient id="b"><stop offset="0" stop-color="#f55"/><stop offset="1" stop-color="#d40000"/></linearGradient></defs><rect width="54.83" height="54.83" x="4.59" y="4.59" ry="6.88" fill="url(#c)" stroke="#000" stroke-width=".5"/><path style="marker:none" color="#000" overflow="visible" opacity=".34" fill="#fff" d="M11 47.32h42v1.5H11zM11 50.32h42v1.5H11zM11 53.32h27v1.5H11z"/><path d="M57.05 27.72c.2-1.38.54-2.74.67-4.14.17-2.23-.06-4.28-.26-6.34a37.67 37.67 0 0 1-20.7 15.86c-3.64 1.1-7.54 1.55-11.25.73 2.26-2.03 4.6-3.97 6.58-6.28 2.06-2.38 4-4.98 4.94-8 .48-1.51.69-3.11.51-4.68a8.63 8.63 0 0 0-1.72-4.37 8.51 8.51 0 0 0-3.2-2.44 9.98 9.98 0 0 0-3.96-.81 14.42 14.42 0 0 0-7.68 2.43 17.4 17.4 0 0 0-6.52 7.15 13.71 13.71 0 0 0-.91 9.55c.58 2.06 1.7 3.92 3.16 5.46a16.52 16.52 0 0 0 5.1 3.61 81.02 81.02 0 0 1-11.59 9.3 72.9 72.9 0 0 0 13.14-8.84 26.44 26.44 0 0 0 10.98 1.44 39.51 39.51 0 0 0 22.7-9.63zm-29.4-17.44a6.6 6.6 0 0 1 4.53 1.26 6.06 6.06 0 0 1 2.07 3.23 8.32 8.32 0 0 1 .05 3.86c-.54 2.54-2.01 4.78-3.59 6.86-2.06 2.78-4.5 5.24-6.9 7.73a13.19 13.19 0 0 1-4.15-2.08 10.86 10.86 0 0 1-3.37-4.81c-.93-2.77-.57-5.88.74-8.49a14.7 14.7 0 0 1 6.07-6.08 11.33 11.33 0 0 1 4.54-1.48z" fill="url(#d)"/></svg>