<svg xmlns="http://www.w3.org/2000/svg" xmlns:xlink="http://www.w3.org/1999/xlink" width="64" height="64" version="1"><defs><linearGradient id="b"><stop offset="0" stop-color="#333"/><stop offset="1"/></linearGradient><linearGradient id="a"><stop offset="0"/><stop offset="1" stop-opacity="0"/></linearGradient><linearGradient id="c"><stop offset="0" stop-color="#f2f2f2"/><stop offset="1" stop-color="#999"/></linearGradient><radialGradient id="g" cx="14" cy="4.92" r="2" gradientTransform="matrix(2.02696 0 0 3.16888 17.55 -9.55)" gradientUnits="userSpaceOnUse" spreadMethod="reflect" xlink:href="#b"/><radialGradient id="f" cx="14" cy="4.92" r="2" gradientTransform="matrix(2.02696 0 0 3.16888 -10.3 -9.55)" gradientUnits="userSpaceOnUse" spreadMethod="reflect" xlink:href="#b"/><radialGradient id="e" cx="12.06" cy="11.39" r="20" gradientTransform="matrix(0 1.52012 -2.18296 0 47.12 1.52)" gradientUnits="userSpaceOnUse"><stop offset="0" stop-color="#666"/><stop offset=".4" stop-color="#1a1a1a"/><stop offset="1"/></radialGradient><linearGradient id="d" x1="19.36" x2="19.36" y1="16.14" y2="44.98" gradientUnits="userSpaceOnUse" gradientTransform="translate(-1.43 -.02) scale(1.3931)"><stop offset="0" stop-color="#fff"/><stop offset="1" stop-color="#999"/></linearGradient></defs><rect ry="3.11" rx="3.11" height="54.33" width="54.33" y="7.6" x="4.83" fill="url(#d)" stroke="#000" stroke-width="1.39" stroke-linecap="round" stroke-linejoin="round"/><path d="M8.37 7.73a3.01 3.01 0 0 0-3.04 3.03v10.69h53.34V10.76c0-1.69-1.35-3.03-3.04-3.03H8.37z" fill="url(#e)"/><rect x="15.28" y="2.77" width="5.57" height="15.32" rx="2.52" ry="2.13" opacity=".4"/><rect x="15.28" y="10.7" width="5.57" height="6" rx="2.21" ry="2.21" fill="#fff"/><rect x="15.28" y="1.37" width="5.57" height="13.93" rx="2.52" ry="1.94" fill="url(#f)"/><rect x="43.14" y="2.77" width="5.57" height="15.32" rx="2.52" ry="2.13" opacity=".4"/><rect x="43.14" y="10.7" width="5.57" height="6" rx="2.21" ry="2.21" fill="#fff"/><rect x="43.14" y="1.37" width="5.57" height="13.93" rx="2.52" ry="1.94" fill="url(#g)"/><path style="line-height:1.25;-inkscape-font-specification:'Umpush Bold'" d="M23.56 27.25c-2.83 0-5.1.79-6.8 2.37-1.7 1.59-2.55 3.7-2.55 6.33h4.72c.06-1.36.49-2.43 1.27-3.2a4.43 4.43 0 0 1 3.28-1.18 4.9 4.9 0 0 1 3.03 1.02 3.1 3.1 0 0 1 1.35 2.57c0 .93-.2 1.84-.6 2.73-.41.88-1 1.73-1.75 2.56-.76.82-1.53 1.57-2.3 2.25-.76.69-1.68 1.5-2.77 2.42a41.23 41.23 0 0 0-2.61 2.4 16.54 16.54 0 0 0-2.85 3.95c-.83 1.57-1.3 3.2-1.43 4.89h19.03v-4.33H19.83c.51-.77 1.21-1.6 2.1-2.49.9-.89 1.8-1.7 2.7-2.46.9-.74 1.83-1.58 2.8-2.5.98-.95 1.84-1.87 2.58-2.76.73-.89 1.33-1.9 1.8-3.04.49-1.16.73-2.33.73-3.54 0-2.37-.82-4.3-2.46-5.77-1.63-1.48-3.8-2.22-6.52-2.22zm21.43.2c-.5 1.9-1.19 3.4-2.08 4.45a10.88 10.88 0 0 1-3.81 2.77v5.1c.79-.18 1.7-.58 2.75-1.21s2.1-1.54 3.14-2.73v20.53h4.72V27.44z" font-weight="700" font-size="40" font-family="Umpush" letter-spacing="0" word-spacing="0" fill="#1a1a1a"/></svg>