<svg xmlns="http://www.w3.org/2000/svg" xmlns:xlink="http://www.w3.org/1999/xlink" width="64" height="64" version="1"><defs><linearGradient id="b"><stop offset="0" stop-color="#37abc8"/><stop offset="1" stop-color="#afdde9"/></linearGradient><linearGradient id="a"><stop offset="0" stop-color="#4d4d4d"/><stop offset="1"/></linearGradient><radialGradient xlink:href="#a" id="c" cx="16" cy="19.25" fx="16" fy="19.25" r="28" gradientUnits="userSpaceOnUse" gradientTransform="matrix(.88378 .33898 -.35812 .93367 8.75 -4.15)"/></defs><path d="M32 4C16.49 4 4 16.49 4 32s12.49 28 28 28 28-12.49 28-28S47.51 4 32 4z" fill="url(#c)"/><path d="M20.94 14.33a.63.63 0 0 0-.28.07c-2.13 1.23-2.13 33.97 0 35.2 2.13 1.23 30.48-15.14 30.48-17.6 0-2.39-26.6-17.82-30.2-17.67z" opacity=".19" fill="green"/><path d="M22.31 17.83a.56.56 0 0 0-.25.06c-1.88 1.09-1.88 30.12 0 31.21 1.9 1.1 27.03-13.42 27.03-15.6 0-2.12-23.59-15.81-26.78-15.67z" fill="green" opacity=".23"/><path d="M22.07 16.33a.56.56 0 0 0-.25.06c-1.89 1.1-1.89 30.12 0 31.22 1.9 1.1 27.03-13.43 27.03-15.61 0-2.12-23.59-15.8-26.79-15.67z" fill="green"/></svg>