<svg xmlns="http://www.w3.org/2000/svg" xmlns:xlink="http://www.w3.org/1999/xlink" width="64" height="64" version="1"><defs><linearGradient id="d"><stop offset="0" stop-color="#666"/><stop offset="1"/></linearGradient><linearGradient id="c"><stop offset="0" stop-color="#ff7f2a"/><stop offset="1" stop-color="#a40"/></linearGradient><linearGradient id="a"><stop offset="0" stop-color="#4d4d4d"/><stop offset="1"/></linearGradient><radialGradient xlink:href="#a" id="e" cx="16" cy="19.25" fx="16" fy="19.25" r="28" gradientUnits="userSpaceOnUse" gradientTransform="matrix(.88378 .33898 -.35812 .93367 8.75 -4.15)"/><radialGradient id="b" cx="31.5" cy="46.71" r="20.92" gradientTransform="matrix(.99249 0 0 1.96877 58.35 -33.25)" gradientUnits="userSpaceOnUse"><stop offset="0" stop-color="#999"/><stop offset="1" stop-color="#fff"/></radialGradient><radialGradient xlink:href="#b" id="f" gradientUnits="userSpaceOnUse" gradientTransform="matrix(.8708 0 0 1.72739 2.48 -24.51)" cx="31.5" cy="46.71" r="20.92"/><linearGradient xlink:href="#c" id="h" x1="7.91" y1="47.59" x2="48.46" y2="47.59" gradientUnits="userSpaceOnUse" gradientTransform="matrix(.8774 0 0 .8774 3.93 4.66)"/><linearGradient xlink:href="#c" id="j" x1="7.55" y1="34.15" x2="34.55" y2="34.15" gradientUnits="userSpaceOnUse" gradientTransform="matrix(.8774 0 0 .8774 3.93 4.66)"/><linearGradient xlink:href="#c" id="i" x1="13.4" y1="17.4" x2="25.06" y2="17.4" gradientUnits="userSpaceOnUse" gradientTransform="matrix(.8774 0 0 .8774 3.93 4.66)"/><radialGradient xlink:href="#d" id="g" cx="38.68" cy="23.5" fx="38.68" fy="23.5" r="2.97" gradientTransform="matrix(.8774 0 0 .65805 3.93 9.81)" gradientUnits="userSpaceOnUse"/></defs><path d="M32 4C16.49 4 4 16.49 4 32s12.49 28 28 28 28-12.49 28-28S47.51 4 32 4z" fill="url(#e)"/><path d="M11.05 45.43c.2.35.35.73.57 1.06a24.57 24.57 0 0 0 34.14 6.63c.12-.08.22-.2.34-.28-2.04-2.04-7.07-7.43-6.93-12.26.08-2.72 1.62-5.17 6.65-6.56 2.4-.29 4.96-.4 7.67-.28-.45-3.5-3.85-7.18-9.22-8.3-.92-.44-6.37-8.6-17.5-8.63-3.22-.01-6.91.61-11.11 2.35 5.76.45 8.23 1.25 8.37 1.86-9.38-1.6-12.78 10.86-13.41 17.6-.04.41.09.4.07.77 0 0 3.5-4.27 4.66-4.68.36-.13.77-.25 1.2-.37-1.04 1.08-1.91 2-2.57 2.51-.23.46-.46 1.05-.74 1.55a34.02 34.02 0 0 0-2.2 7.03z" fill="url(#f)" fill-rule="evenodd"/><path d="M35.26 23.62s4.6-1.82 5.2 3.57c-4.54.47-5.2-3.57-5.2-3.57z" fill="url(#g)" fill-rule="evenodd"/><path d="M12.99 59.2s8.64-24.43 33.45-25.37c0 0-21.36-3.46-35.57 19.07-.08 3.18 2.12 6.29 2.12 6.29z" fill="url(#h)" fill-rule="evenodd"/><path d="M15.68 19.16s6.19.36 8.4 1.88c.92-.2 1.7-.82 1.84-1.68-.8-.33-8.04-.92-10.24-.2z" fill="url(#i)" fill-rule="evenodd"/><path d="M10.59 39.83s8-9.3 23.65-10.42c0 0-21.56.96-23.34 6.98-.5 1.44-.31 3.44-.31 3.44z" fill="url(#j)" fill-rule="evenodd"/></svg>