<svg xmlns="http://www.w3.org/2000/svg" xmlns:xlink="http://www.w3.org/1999/xlink" width="64" height="64"><defs><radialGradient id="a" cx="34" cy="42" r="32" gradientTransform="matrix(.375 0 0 1 -22.75 -40)" gradientUnits="userSpaceOnUse"><stop offset="0" stop-color="#5f5f5f"/><stop offset=".65" stop-color="#252525"/><stop offset="1" stop-color="#3b3b3b"/></radialGradient><radialGradient id="b" cx="33.5" cy="77.83" r="75.67" gradientUnits="userSpaceOnUse" gradientTransform="translate(-44 -40)"><stop offset=".08" stop-color="#babdb6"/><stop offset=".09" stop-color="#b2b5af"/><stop offset=".11" stop-color="#9da19b"/><stop offset=".13" stop-color="#7a7e7c"/><stop offset=".15" stop-color="#4a4f50"/><stop offset=".17" stop-color="#2e3436"/><stop offset=".18" stop-color="#363b3d"/><stop offset=".19" stop-color="#4b5050"/><stop offset=".21" stop-color="#6e716e"/><stop offset=".22" stop-color="#888a85"/><stop offset=".29" stop-color="#90928c"/><stop offset=".39" stop-color="#a4a7a1"/><stop offset=".52" stop-color="#c6cac2"/><stop offset=".56" stop-color="#d3d7cf"/><stop offset=".58" stop-color="#eaece8"/><stop offset=".59" stop-color="#f9faf9"/><stop offset=".6" stop-color="#fff"/><stop offset=".61" stop-color="#e8eae6"/><stop offset=".62" stop-color="#d9dcd5"/><stop offset=".63" stop-color="#d3d7cf"/><stop offset=".72" stop-color="#babdb6"/><stop offset=".83" stop-color="#9ea19b"/><stop offset=".93" stop-color="#8e908b"/><stop offset="1" stop-color="#888a85"/></radialGradient><radialGradient id="f" cx="12.01" cy="13.2" r="20" gradientTransform="matrix(0 2.36188 -3.40694 0 60.78 -11.44)" gradientUnits="userSpaceOnUse"><stop offset="0" stop-color="#4d4d4d"/><stop offset=".26" stop-color="#333"/><stop offset=".7"/><stop offset="1"/></radialGradient><linearGradient id="g" x1="24" x2="24" y1="44" y2="3.9" gradientTransform="translate(-1.75 -1.75) scale(1.4058)" gradientUnits="userSpaceOnUse"><stop offset="0"/><stop offset="1" stop-color="#333"/></linearGradient><linearGradient gradientTransform="rotate(14.19 7.49 7.64)" y2="11.5" x2="7.46" y1="3.5" x1="7.46" gradientUnits="userSpaceOnUse" id="c"><stop offset="0" stop-color="#666"/><stop offset="1" stop-color="#333"/></linearGradient><linearGradient gradientTransform="rotate(24 9.04 7)" y2="7.58" x2="7.84" y1="8.58" x1="7.84" gradientUnits="userSpaceOnUse" id="d"><stop offset="0" stop-color="#333"/><stop offset="1"/></linearGradient><linearGradient xlink:href="#e" id="h" x1="10.47" y1="16.45" x2="10.47" y2="47.55" gradientUnits="userSpaceOnUse" gradientTransform="translate(-.52 -2.46)"/><linearGradient id="e"><stop offset="0" stop-color="red"/><stop offset="1" stop-color="#ff2a2a"/></linearGradient></defs><rect x="4.58" y="4.58" width="54.83" height="54.83" rx="2.23" ry="2.23" fill="url(#f)" stroke="url(#g)" stroke-width=".5" stroke-linecap="round" stroke-linejoin="round"/><path style="line-height:1.25" d="M11 14.92v31.1h2.63V31.15h7.7v-3.54h-7.7v-9.16h8.54v-3.54zm13.36 0v31.1h12.53v-3.55h-9.9V31.2h9.26v-3.54h-9.26v-9.2h9.66v-3.54zm14.88 0v31.1h2.63V31.2h9.55v14.81h2.63v-31.1h-2.63v12.75h-9.55V14.92z" font-weight="400" font-size="5.33" font-family="sans-serif" letter-spacing="0" word-spacing="0" opacity=".2" fill="#d40000"/><path style="line-height:1.25" d="M9.95 13.99v31.1h2.63V30.22h7.7V26.7h-7.7v-9.16h8.54v-3.54zm13.36 0v31.1h12.53v-3.55h-9.9V30.27h9.26v-3.54h-9.26v-9.2h9.66v-3.54zm14.88 0v31.1h2.63V30.26h9.55v14.81h2.64v-31.1h-2.64v12.75h-9.55V14z" font-weight="400" font-size="5.33" font-family="sans-serif" letter-spacing="0" word-spacing="0" fill="url(#h)"/></svg>