<?xml version="1.0" encoding="UTF-8" standalone="no"?><!--Created with Inkscape (http://www.inkscape.org/)--><svg xmlns:dc="http://purl.org/dc/elements/1.1/" xmlns:cc="http://creativecommons.org/ns#" xmlns:rdf="http://www.w3.org/1999/02/22-rdf-syntax-ns#" xmlns="http://www.w3.org/2000/svg" xmlns:xlink="http://www.w3.org/1999/xlink" width="64" height="64" viewBox="0 0 60 60"><defs><linearGradient id="a"><stop offset="0"/><stop offset="1" stop-color="#666"/></linearGradient><filter id="b" width="1" height="1" x="0" y="0" filterUnits="objectBoundingBox"><feColorMatrix in="SourceGraphic" values="0 0 0 0 1 0 0 0 0 1 0 0 0 0 1 0 0 0 1 0"/></filter><linearGradient id="c"><stop offset="0" stop-color="#333"/><stop offset="1"/></linearGradient><radialGradient xlink:href="#c" id="d" cx="30" cy="30" fx="30" fy="30" r="26.36" gradientTransform="matrix(.96444 0 0 .9645 1.07 1.06)" gradientUnits="userSpaceOnUse"/><clipPath id="h"><path d="M89 89h206v206H89zm0 0"/></clipPath><clipPath id="i"><path d="M387.75 192.06c0 108.14-87.68 195.73-195.72 195.73C84 387.79-3.69 300.19-3.69 192.06S83.99-3.66 192.03-3.66c108.04 0 195.72 87.59 195.72 195.72zm0 0"/></clipPath><clipPath id="e"><path d="M0 0h384v384H0z"/></clipPath><clipPath id="f"><path d="M98 98h206v206H98zm0 0"/></clipPath><clipPath id="g"><path d="M396.75 201.06c0 108.14-87.68 195.73-195.72 195.73C93 396.79 5.31 309.19 5.31 201.06S92.99 5.34 201.03 5.34c108.04 0 195.72 87.59 195.72 195.72zm0 0"/></clipPath></defs><metadata><rdf:RDF><cc:Work><dc:format>image/svg+xml</dc:format><dc:type rdf:resource="http://purl.org/dc/dcmitype/StillImage"/><dc:title/></cc:Work></rdf:RDF></metadata><path d="M8.37 5.14a6.43 6.43 0 0 0-3.19 3.14 3.79 3.62 0 0 1 .3.03 3.79 3.62 0 0 1 .38.08 3.79 3.62 0 0 1 .35.11 3.79 3.62 0 0 1 .35.15 3.79 3.62 0 0 1 .33.18 3.79 3.62 0 0 1 .3.21 3.79 3.62 0 0 1 .3.24 3.79 3.62 0 0 1 .25.27 3.79 3.62 0 0 1 .23.29 3.79 3.62 0 0 1 .2.3 3.79 3.62 0 0 1 .16.33 3.79 3.62 0 0 1 .13.34 3.79 3.62 0 0 1 .1.35 3.79 3.62 0 0 1 .05.36 3.79 3.62 0 0 1 .02.36 3.79 3.62 0 0 1-.01.26 3.79 3.62 0 0 1-.05.36 3.79 3.62 0 0 1-.08.35 3.79 3.62 0 0 1-.12.34 3.79 3.62 0 0 1-.15.34 3.79 3.62 0 0 1-.2.3 3.79 3.62 0 0 1-.21.3 3.79 3.62 0 0 1-.25.28 3.79 3.62 0 0 1-.28.24 3.79 3.62 0 0 1-.3.22 3.79 3.62 0 0 1-.32.2 3.79 3.62 0 0 1-.34.15 3.79 3.62 0 0 1-.36.12 3.79 3.62 0 0 1-.37.1 3.79 3.62 0 0 1-.37.05 3.79 3.62 0 0 1-.38.01 3.79 3.62 0 0 1-.27 0v1.81a3.79 3.62 0 0 1 .27-.01 3.79 3.62 0 0 1 .27 0 3.79 3.62 0 0 1 .38.05 3.79 3.62 0 0 1 .37.08 3.79 3.62 0 0 1 .35.12 3.79 3.62 0 0 1 .35.14 3.79 3.62 0 0 1 .33.18 3.79 3.62 0 0 1 .3.21 3.79 3.62 0 0 1 .3.24 3.79 3.62 0 0 1 .25.27 3.79 3.62 0 0 1 .23.29 3.79 3.62 0 0 1 .2.3 3.79 3.62 0 0 1 .16.33 3.79 3.62 0 0 1 .13.34 3.79 3.62 0 0 1 .1.35 3.79 3.62 0 0 1 .05.36 3.79 3.62 0 0 1 .02.36 3.79 3.62 0 0 1-.01.26 3.79 3.62 0 0 1-.05.36 3.79 3.62 0 0 1-.08.35 3.79 3.62 0 0 1-.12.35 3.79 3.62 0 0 1-.15.33 3.79 3.62 0 0 1-.2.31 3.79 3.62 0 0 1-.21.3 3.79 3.62 0 0 1-.25.27 3.79 3.62 0 0 1-.28.24 3.79 3.62 0 0 1-.3.22 3.79 3.62 0 0 1-.32.2 3.79 3.62 0 0 1-.34.15 3.79 3.62 0 0 1-.36.12 3.79 3.62 0 0 1-.37.1 3.79 3.62 0 0 1-.37.05 3.79 3.62 0 0 1-.38.02 3.79 3.62 0 0 1-.27-.01v1.81a3.79 3.62 0 0 1 .27-.01 3.79 3.62 0 0 1 .27 0 3.79 3.62 0 0 1 .38.05 3.79 3.62 0 0 1 .37.08 3.79 3.62 0 0 1 .35.12 3.79 3.62 0 0 1 .35.14 3.79 3.62 0 0 1 .33.18 3.79 3.62 0 0 1 .3.22 3.79 3.62 0 0 1 .3.23 3.79 3.62 0 0 1 .25.27 3.79 3.62 0 0 1 .23.29 3.79 3.62 0 0 1 .2.3 3.79 3.62 0 0 1 .16.33 3.79 3.62 0 0 1 .13.34 3.79 3.62 0 0 1 .1.35 3.79 3.62 0 0 1 .05.36 3.79 3.62 0 0 1 .02.36 3.79 3.62 0 0 1-.01.26 3.79 3.62 0 0 1-.05.36 3.79 3.62 0 0 1-.08.35 3.79 3.62 0 0 1-.12.35 3.79 3.62 0 0 1-.15.33 3.79 3.62 0 0 1-.2.31 3.79 3.62 0 0 1-.21.3 3.79 3.62 0 0 1-.25.27 3.79 3.62 0 0 1-.28.24 3.79 3.62 0 0 1-.3.22 3.79 3.62 0 0 1-.32.2 3.79 3.62 0 0 1-.34.15 3.79 3.62 0 0 1-.36.12 3.79 3.62 0 0 1-.37.1 3.79 3.62 0 0 1-.37.05 3.79 3.62 0 0 1-.38.02 3.79 3.62 0 0 1-.27-.01v1.81a3.79 3.62 0 0 1 .27-.01 3.79 3.62 0 0 1 .27.01 3.79 3.62 0 0 1 .38.04 3.79 3.62 0 0 1 .37.08 3.79 3.62 0 0 1 .35.12 3.79 3.62 0 0 1 .35.14 3.79 3.62 0 0 1 .33.18 3.79 3.62 0 0 1 .3.22 3.79 3.62 0 0 1 .3.23 3.79 3.62 0 0 1 .25.27 3.79 3.62 0 0 1 .23.29 3.79 3.62 0 0 1 .2.3 3.79 3.62 0 0 1 .16.33 3.79 3.62 0 0 1 .13.34 3.79 3.62 0 0 1 .1.35 3.79 3.62 0 0 1 .05.36 3.79 3.62 0 0 1 .02.36 3.79 3.62 0 0 1-.01.26 3.79 3.62 0 0 1-.05.36 3.79 3.62 0 0 1-.08.35 3.79 3.62 0 0 1-.12.35 3.79 3.62 0 0 1-.15.33 3.79 3.62 0 0 1-.2.31 3.79 3.62 0 0 1-.21.3 3.79 3.62 0 0 1-.25.27 3.79 3.62 0 0 1-.28.24 3.79 3.62 0 0 1-.3.22 3.79 3.62 0 0 1-.32.2 3.79 3.62 0 0 1-.34.15 3.79 3.62 0 0 1-.36.12 3.79 3.62 0 0 1-.37.1 3.79 3.62 0 0 1-.37.05 3.79 3.62 0 0 1-.38.02 3.79 3.62 0 0 1-.27-.01v1.81a3.79 3.62 0 0 1 .27 0 3.79 3.62 0 0 1 .27 0 3.79 3.62 0 0 1 .38.04 3.79 3.62 0 0 1 .37.08 3.79 3.62 0 0 1 .35.12 3.79 3.62 0 0 1 .35.15 3.79 3.62 0 0 1 .33.18 3.79 3.62 0 0 1 .3.2 3.79 3.62 0 0 1 .3.25 3.79 3.62 0 0 1 .25.26 3.79 3.62 0 0 1 .23.29 3.79 3.62 0 0 1 .2.3 3.79 3.62 0 0 1 .16.33 3.79 3.62 0 0 1 .13.34 3.79 3.62 0 0 1 .1.35 3.79 3.62 0 0 1 .05.36 3.79 3.62 0 0 1 .02.36 3.79 3.62 0 0 1-.01.26 3.79 3.62 0 0 1-.05.36 3.79 3.62 0 0 1-.08.35 3.79 3.62 0 0 1-.12.35 3.79 3.62 0 0 1-.15.33 3.79 3.62 0 0 1-.2.31 3.79 3.62 0 0 1-.21.3 3.79 3.62 0 0 1-.25.27 3.79 3.62 0 0 1-.28.25 3.79 3.62 0 0 1-.3.21 3.79 3.62 0 0 1-.32.2 3.79 3.62 0 0 1-.34.15 3.79 3.62 0 0 1-.36.13 3.79 3.62 0 0 1-.37.09 3.79 3.62 0 0 1-.37.05 3.79 3.62 0 0 1-.07 0 6.43 6.43 0 0 0 3.22 3.21 3.62 3.79 0 0 1 .03-.33 3.62 3.79 0 0 1 .08-.37 3.62 3.79 0 0 1 .12-.36 3.62 3.79 0 0 1 .15-.34 3.62 3.79 0 0 1 .18-.33 3.62 3.79 0 0 1 .2-.3 3.62 3.79 0 0 1 .25-.3 3.62 3.79 0 0 1 .26-.25 3.62 3.79 0 0 1 .29-.23 3.62 3.79 0 0 1 .3-.2 3.62 3.79 0 0 1 .33-.16 3.62 3.79 0 0 1 .34-.13 3.62 3.79 0 0 1 .35-.1 3.62 3.79 0 0 1 .36-.05 3.62 3.79 0 0 1 .36-.02 3.62 3.79 0 0 1 .26 0 3.62 3.79 0 0 1 .36.05 3.62 3.79 0 0 1 .35.09 3.62 3.79 0 0 1 .35.12 3.62 3.79 0 0 1 .33.15 3.62 3.79 0 0 1 .31.19 3.62 3.79 0 0 1 .3.22 3.62 3.79 0 0 1 .27.25 3.62 3.79 0 0 1 .25.28 3.62 3.79 0 0 1 .21.3 3.62 3.79 0 0 1 .2.32 3.62 3.79 0 0 1 .15.34 3.62 3.79 0 0 1 .13.36 3.62 3.79 0 0 1 .09.36 3.62 3.79 0 0 1 .05.38 3.62 3.79 0 0 1 .02.38 3.62 3.79 0 0 1-.01.25h1.81a3.62 3.79 0 0 1 0-.25 3.62 3.79 0 0 1 0-.27 3.62 3.79 0 0 1 .04-.38 3.62 3.79 0 0 1 .08-.37 3.62 3.79 0 0 1 .12-.36 3.62 3.79 0 0 1 .15-.34 3.62 3.79 0 0 1 .18-.33 3.62 3.79 0 0 1 .2-.3 3.62 3.79 0 0 1 .25-.3 3.62 3.79 0 0 1 .26-.25 3.62 3.79 0 0 1 .29-.23 3.62 3.79 0 0 1 .3-.2 3.62 3.79 0 0 1 .33-.16 3.62 3.79 0 0 1 .34-.13 3.62 3.79 0 0 1 .36-.1 3.62 3.79 0 0 1 .35-.05 3.62 3.79 0 0 1 .36-.02 3.62 3.79 0 0 1 .26 0 3.62 3.79 0 0 1 .36.05 3.62 3.79 0 0 1 .35.09 3.62 3.79 0 0 1 .35.12 3.62 3.79 0 0 1 .33.15 3.62 3.79 0 0 1 .31.19 3.62 3.79 0 0 1 .3.22 3.62 3.79 0 0 1 .27.25 3.62 3.79 0 0 1 .25.28 3.62 3.79 0 0 1 .22.3 3.62 3.79 0 0 1 .18.32 3.62 3.79 0 0 1 .16.34 3.62 3.79 0 0 1 .13.36 3.62 3.79 0 0 1 .09.36 3.62 3.79 0 0 1 .05.38 3.62 3.79 0 0 1 .02.38 3.62 3.79 0 0 1-.01.25h1.81a3.62 3.79 0 0 1 0-.25 3.62 3.79 0 0 1 0-.27 3.62 3.79 0 0 1 .05-.38 3.62 3.79 0 0 1 .07-.37 3.62 3.79 0 0 1 .12-.36 3.62 3.79 0 0 1 .15-.34 3.62 3.79 0 0 1 .18-.33 3.62 3.79 0 0 1 .2-.3 3.62 3.79 0 0 1 .25-.3 3.62 3.79 0 0 1 .26-.25 3.62 3.79 0 0 1 .29-.23 3.62 3.79 0 0 1 .3-.2 3.62 3.79 0 0 1 .33-.16 3.62 3.79 0 0 1 .34-.13 3.62 3.79 0 0 1 .36-.1 3.62 3.79 0 0 1 .35-.05 3.62 3.79 0 0 1 .37-.02 3.62 3.79 0 0 1 .25 0 3.62 3.79 0 0 1 .36.05 3.62 3.79 0 0 1 .36.09 3.62 3.79 0 0 1 .34.12 3.62 3.79 0 0 1 .33.15A3.62 3.79 0 0 1 32 52a3.62 3.79 0 0 1 .3.22 3.62 3.79 0 0 1 .27.25 3.62 3.79 0 0 1 .25.28 3.62 3.79 0 0 1 .22.3 3.62 3.79 0 0 1 .19.32 3.62 3.79 0 0 1 .15.34 3.62 3.79 0 0 1 .13.36 3.62 3.79 0 0 1 .09.36 3.62 3.79 0 0 1 .05.38 3.62 3.79 0 0 1 .02.38 3.62 3.79 0 0 1-.01.25h1.82a3.62 3.79 0 0 1-.02-.25 3.62 3.79 0 0 1 .01-.27 3.62 3.79 0 0 1 .05-.38 3.62 3.79 0 0 1 .08-.37 3.62 3.79 0 0 1 .11-.36 3.62 3.79 0 0 1 .15-.34 3.62 3.79 0 0 1 .18-.33 3.62 3.79 0 0 1 .2-.3 3.62 3.79 0 0 1 .25-.3 3.62 3.79 0 0 1 .26-.25 3.62 3.79 0 0 1 .29-.23 3.62 3.79 0 0 1 .3-.2 3.62 3.79 0 0 1 .34-.16 3.62 3.79 0 0 1 .34-.13 3.62 3.79 0 0 1 .35-.1 3.62 3.79 0 0 1 .35-.05 3.62 3.79 0 0 1 .37-.02 3.62 3.79 0 0 1 .25 0 3.62 3.79 0 0 1 .36.05 3.62 3.79 0 0 1 .36.09 3.62 3.79 0 0 1 .34.12 3.62 3.79 0 0 1 .33.15 3.62 3.79 0 0 1 .31.19 3.62 3.79 0 0 1 .3.22 3.62 3.79 0 0 1 .27.25 3.62 3.79 0 0 1 .25.28 3.62 3.79 0 0 1 .22.3 3.62 3.79 0 0 1 .19.32 3.62 3.79 0 0 1 .15.34 3.62 3.79 0 0 1 .13.36 3.62 3.79 0 0 1 .09.36 3.62 3.79 0 0 1 .05.38 3.62 3.79 0 0 1 .02.38 3.62 3.79 0 0 1-.01.25h1.81a3.62 3.79 0 0 1 0-.25 3.62 3.79 0 0 1 0-.27 3.62 3.79 0 0 1 .05-.38 3.62 3.79 0 0 1 .08-.37 3.62 3.79 0 0 1 .1-.36 3.62 3.79 0 0 1 .16-.34 3.62 3.79 0 0 1 .18-.33 3.62 3.79 0 0 1 .2-.3 3.62 3.79 0 0 1 .25-.3 3.62 3.79 0 0 1 .26-.25 3.62 3.79 0 0 1 .29-.23 3.62 3.79 0 0 1 .3-.2 3.62 3.79 0 0 1 .34-.16 3.62 3.79 0 0 1 .34-.13 3.62 3.79 0 0 1 .35-.1 3.62 3.79 0 0 1 .35-.05 3.62 3.79 0 0 1 .37-.02 3.62 3.79 0 0 1 .25 0 3.62 3.79 0 0 1 .36.05 3.62 3.79 0 0 1 .36.09 3.62 3.79 0 0 1 .34.12 3.62 3.79 0 0 1 .33.15 3.62 3.79 0 0 1 .31.19 3.62 3.79 0 0 1 .3.22 3.62 3.79 0 0 1 .27.25 3.62 3.79 0 0 1 .25.28 3.62 3.79 0 0 1 .22.3 3.62 3.79 0 0 1 .19.32 3.62 3.79 0 0 1 .15.34 3.62 3.79 0 0 1 .13.36 3.62 3.79 0 0 1 .09.36 3.62 3.79 0 0 1 .05.38 3.62 3.79 0 0 1 0 .01 6.43 6.43 0 0 0 3.12-3.17 3.79 3.62 0 0 1-.24-.03 3.79 3.62 0 0 1-.36-.07 3.79 3.62 0 0 1-.36-.12 3.79 3.62 0 0 1-.35-.15 3.79 3.62 0 0 1-.33-.18 3.79 3.62 0 0 1-.3-.2 3.79 3.62 0 0 1-.3-.25 3.79 3.62 0 0 1-.25-.26 3.79 3.62 0 0 1-.23-.29 3.79 3.62 0 0 1-.2-.3 3.79 3.62 0 0 1-.16-.34 3.79 3.62 0 0 1-.13-.34 3.79 3.62 0 0 1-.1-.35 3.79 3.62 0 0 1-.05-.35 3.79 3.62 0 0 1-.02-.37 3.79 3.62 0 0 1 .01-.25 3.79 3.62 0 0 1 .05-.36 3.79 3.62 0 0 1 .08-.36 3.79 3.62 0 0 1 .12-.34 3.79 3.62 0 0 1 .15-.33 3.79 3.62 0 0 1 .2-.31 3.79 3.62 0 0 1 .21-.3 3.79 3.62 0 0 1 .25-.27 3.79 3.62 0 0 1 .28-.25 3.79 3.62 0 0 1 .3-.22 3.79 3.62 0 0 1 .32-.19 3.79 3.62 0 0 1 .34-.15 3.79 3.62 0 0 1 .36-.13 3.79 3.62 0 0 1 .37-.09 3.79 3.62 0 0 1 .37-.05 3.79 3.62 0 0 1 .38-.02 3.79 3.62 0 0 1 .16 0v-1.8a3.79 3.62 0 0 1-.16 0 3.79 3.62 0 0 1-.27 0 3.79 3.62 0 0 1-.38-.05 3.79 3.62 0 0 1-.36-.08 3.79 3.62 0 0 1-.36-.11 3.79 3.62 0 0 1-.35-.15 3.79 3.62 0 0 1-.33-.18 3.79 3.62 0 0 1-.3-.21 3.79 3.62 0 0 1-.3-.24 3.79 3.62 0 0 1-.25-.26 3.79 3.62 0 0 1-.23-.3 3.79 3.62 0 0 1-.2-.3 3.79 3.62 0 0 1-.16-.33 3.79 3.62 0 0 1-.13-.34 3.79 3.62 0 0 1-.1-.35 3.79 3.62 0 0 1-.05-.36 3.79 3.62 0 0 1-.02-.36 3.79 3.62 0 0 1 .01-.25 3.79 3.62 0 0 1 .05-.36 3.79 3.62 0 0 1 .08-.36 3.79 3.62 0 0 1 .12-.34 3.79 3.62 0 0 1 .15-.33 3.79 3.62 0 0 1 .2-.32 3.79 3.62 0 0 1 .21-.29 3.79 3.62 0 0 1 .25-.27 3.79 3.62 0 0 1 .28-.25 3.79 3.62 0 0 1 .3-.22 3.79 3.62 0 0 1 .32-.19 3.79 3.62 0 0 1 .34-.15 3.79 3.62 0 0 1 .36-.13 3.79 3.62 0 0 1 .37-.09 3.79 3.62 0 0 1 .37-.05 3.79 3.62 0 0 1 .38-.02 3.79 3.62 0 0 1 .16 0v-1.8a3.79 3.62 0 0 1-.16 0 3.79 3.62 0 0 1-.27 0 3.79 3.62 0 0 1-.38-.05 3.79 3.62 0 0 1-.36-.08 3.79 3.62 0 0 1-.36-.11 3.79 3.62 0 0 1-.35-.15 3.79 3.62 0 0 1-.33-.18 3.79 3.62 0 0 1-.3-.21 3.79 3.62 0 0 1-.3-.24 3.79 3.62 0 0 1-.25-.27 3.79 3.62 0 0 1-.23-.28 3.79 3.62 0 0 1-.2-.31 3.79 3.62 0 0 1-.16-.33 3.79 3.62 0 0 1-.13-.34 3.79 3.62 0 0 1-.1-.35 3.79 3.62 0 0 1-.05-.36 3.79 3.62 0 0 1-.02-.36 3.79 3.62 0 0 1 .01-.26 3.79 3.62 0 0 1 .05-.35 3.79 3.62 0 0 1 .08-.36 3.79 3.62 0 0 1 .12-.34 3.79 3.62 0 0 1 .15-.33 3.79 3.62 0 0 1 .2-.32 3.79 3.62 0 0 1 .21-.3 3.79 3.62 0 0 1 .25-.26 3.79 3.62 0 0 1 .28-.25 3.79 3.62 0 0 1 .3-.22 3.79 3.62 0 0 1 .32-.19 3.79 3.62 0 0 1 .34-.16 3.79 3.62 0 0 1 .36-.12 3.79 3.62 0 0 1 .37-.09 3.79 3.62 0 0 1 .37-.05 3.79 3.62 0 0 1 .38-.02 3.79 3.62 0 0 1 .16 0v-1.8a3.79 3.62 0 0 1-.16 0 3.79 3.62 0 0 1-.27 0 3.79 3.62 0 0 1-.38-.05 3.79 3.62 0 0 1-.37-.08 3.79 3.62 0 0 1-.35-.11 3.79 3.62 0 0 1-.35-.15 3.79 3.62 0 0 1-.33-.18 3.79 3.62 0 0 1-.3-.21 3.79 3.62 0 0 1-.3-.24 3.79 3.62 0 0 1-.25-.27 3.79 3.62 0 0 1-.23-.28 3.79 3.62 0 0 1-.2-.31 3.79 3.62 0 0 1-.16-.33 3.79 3.62 0 0 1-.13-.34 3.79 3.62 0 0 1-.1-.35 3.79 3.62 0 0 1-.05-.36 3.79 3.62 0 0 1-.02-.36 3.79 3.62 0 0 1 .01-.26 3.79 3.62 0 0 1 .05-.36 3.79 3.62 0 0 1 .08-.35 3.79 3.62 0 0 1 .12-.34 3.79 3.62 0 0 1 .15-.33 3.79 3.62 0 0 1 .2-.32 3.79 3.62 0 0 1 .21-.3 3.79 3.62 0 0 1 .25-.26 3.79 3.62 0 0 1 .28-.25 3.79 3.62 0 0 1 .3-.22 3.79 3.62 0 0 1 .32-.19 3.79 3.62 0 0 1 .34-.16 3.79 3.62 0 0 1 .36-.12 3.79 3.62 0 0 1 .37-.1 3.79 3.62 0 0 1 .37-.05 3.79 3.62 0 0 1 .38-.01 3.79 3.62 0 0 1 .16 0v-1.8a3.79 3.62 0 0 1-.16 0 3.79 3.62 0 0 1-.27 0 3.79 3.62 0 0 1-.38-.05 3.79 3.62 0 0 1-.37-.08 3.79 3.62 0 0 1-.35-.11 3.79 3.62 0 0 1-.35-.15 3.79 3.62 0 0 1-.33-.18 3.79 3.62 0 0 1-.3-.21 3.79 3.62 0 0 1-.3-.24 3.79 3.62 0 0 1-.25-.27 3.79 3.62 0 0 1-.23-.29 3.79 3.62 0 0 1-.2-.3 3.79 3.62 0 0 1-.16-.33 3.79 3.62 0 0 1-.13-.34 3.79 3.62 0 0 1-.1-.35 3.79 3.62 0 0 1-.05-.36 3.79 3.62 0 0 1-.02-.36 3.79 3.62 0 0 1 .01-.26 3.79 3.62 0 0 1 .05-.36 3.79 3.62 0 0 1 .08-.35 3.79 3.62 0 0 1 .12-.34 3.79 3.62 0 0 1 .15-.33 3.79 3.62 0 0 1 .19-.32 3.79 3.62 0 0 1 .22-.3 3.79 3.62 0 0 1 .25-.27 3.79 3.62 0 0 1 .28-.24 3.79 3.62 0 0 1 .3-.22 3.79 3.62 0 0 1 .32-.2 3.79 3.62 0 0 1 .34-.15 3.79 3.62 0 0 1 .36-.12 3.79 3.62 0 0 1 .37-.1 3.79 3.62 0 0 1 .3-.04 6.43 6.43 0 0 0-3.09-3.1 3.62 3.79 0 0 1-.02.21 3.62 3.79 0 0 1-.08.37 3.62 3.79 0 0 1-.12.36 3.62 3.79 0 0 1-.15.35 3.62 3.79 0 0 1-.18.32 3.62 3.79 0 0 1-.2.31 3.62 3.79 0 0 1-.25.29 3.62 3.79 0 0 1-.26.25 3.62 3.79 0 0 1-.29.23 3.62 3.79 0 0 1-.3.2 3.62 3.79 0 0 1-.33.17 3.62 3.79 0 0 1-.34.13 3.62 3.79 0 0 1-.36.09 3.62 3.79 0 0 1-.35.06 3.62 3.79 0 0 1-.36.02 3.62 3.79 0 0 1-.26-.01 3.62 3.79 0 0 1-.36-.05 3.62 3.79 0 0 1-.35-.08 3.62 3.79 0 0 1-.35-.12 3.62 3.79 0 0 1-.33-.16 3.62 3.79 0 0 1-.31-.19 3.62 3.79 0 0 1-.3-.22 3.62 3.79 0 0 1-.27-.25 3.62 3.79 0 0 1-.25-.27 3.62 3.79 0 0 1-.22-.3 3.62 3.79 0 0 1-.18-.33 3.62 3.79 0 0 1-.16-.34 3.62 3.79 0 0 1-.13-.35 3.62 3.79 0 0 1-.09-.37 3.62 3.79 0 0 1-.05-.37 3.62 3.79 0 0 1-.02-.38 3.62 3.79 0 0 1 0-.18h-1.8a3.62 3.79 0 0 1 .01.18 3.62 3.79 0 0 1-.01.26 3.62 3.79 0 0 1-.04.38 3.62 3.79 0 0 1-.08.37 3.62 3.79 0 0 1-.12.36 3.62 3.79 0 0 1-.15.35 3.62 3.79 0 0 1-.18.32 3.62 3.79 0 0 1-.2.31 3.62 3.79 0 0 1-.25.29 3.62 3.79 0 0 1-.26.25 3.62 3.79 0 0 1-.29.23 3.62 3.79 0 0 1-.3.2 3.62 3.79 0 0 1-.33.17 3.62 3.79 0 0 1-.34.13 3.62 3.79 0 0 1-.35.09 3.62 3.79 0 0 1-.36.06 3.62 3.79 0 0 1-.36.01 3.62 3.79 0 0 1-.26 0 3.62 3.79 0 0 1-.36-.05 3.62 3.79 0 0 1-.35-.08 3.62 3.79 0 0 1-.35-.12 3.62 3.79 0 0 1-.33-.16 3.62 3.79 0 0 1-.31-.19 3.62 3.79 0 0 1-.3-.22 3.62 3.79 0 0 1-.27-.25 3.62 3.79 0 0 1-.25-.27 3.62 3.79 0 0 1-.21-.3 3.62 3.79 0 0 1-.2-.33 3.62 3.79 0 0 1-.15-.34 3.62 3.79 0 0 1-.13-.35 3.62 3.79 0 0 1-.09-.37 3.62 3.79 0 0 1-.05-.37 3.62 3.79 0 0 1-.02-.38 3.62 3.79 0 0 1 0-.18h-1.8a3.62 3.79 0 0 1 0 .18 3.62 3.79 0 0 1 0 .27 3.62 3.79 0 0 1-.04.37 3.62 3.79 0 0 1-.08.37 3.62 3.79 0 0 1-.12.36 3.62 3.79 0 0 1-.15.35 3.62 3.79 0 0 1-.18.32 3.62 3.79 0 0 1-.2.31 3.62 3.79 0 0 1-.25.29 3.62 3.79 0 0 1-.26.25 3.62 3.79 0 0 1-.29.23 3.62 3.79 0 0 1-.3.2 3.62 3.79 0 0 1-.33.17 3.62 3.79 0 0 1-.34.13 3.62 3.79 0 0 1-.36.09 3.62 3.79 0 0 1-.35.06 3.62 3.79 0 0 1-.37.01 3.62 3.79 0 0 1-.25 0 3.62 3.79 0 0 1-.36-.05 3.62 3.79 0 0 1-.35-.08 3.62 3.79 0 0 1-.35-.12 3.62 3.79 0 0 1-.33-.16 3.62 3.79 0 0 1-.31-.19 3.62 3.79 0 0 1-.3-.22 3.62 3.79 0 0 1-.27-.25 3.62 3.79 0 0 1-.25-.27 3.62 3.79 0 0 1-.22-.3 3.62 3.79 0 0 1-.18-.33 3.62 3.79 0 0 1-.16-.34 3.62 3.79 0 0 1-.13-.35 3.62 3.79 0 0 1-.09-.37 3.62 3.79 0 0 1-.05-.37 3.62 3.79 0 0 1-.02-.38 3.62 3.79 0 0 1 0-.18h-1.8a3.62 3.79 0 0 1 0 .18 3.62 3.79 0 0 1 0 .26 3.62 3.79 0 0 1-.05.38 3.62 3.79 0 0 1-.07.37 3.62 3.79 0 0 1-.12.36 3.62 3.79 0 0 1-.15.35 3.62 3.79 0 0 1-.18.32 3.62 3.79 0 0 1-.2.31 3.62 3.79 0 0 1-.25.29 3.62 3.79 0 0 1-.26.25 3.62 3.79 0 0 1-.29.23 3.62 3.79 0 0 1-.3.2 3.62 3.79 0 0 1-.34.17 3.62 3.79 0 0 1-.34.13 3.62 3.79 0 0 1-.35.09 3.62 3.79 0 0 1-.35.06 3.62 3.79 0 0 1-.37.01 3.62 3.79 0 0 1-.25 0 3.62 3.79 0 0 1-.36-.05 3.62 3.79 0 0 1-.36-.08 3.62 3.79 0 0 1-.34-.12 3.62 3.79 0 0 1-.33-.16 3.62 3.79 0 0 1-.31-.19 3.62 3.79 0 0 1-.3-.22 3.62 3.79 0 0 1-.27-.25 3.62 3.79 0 0 1-.25-.27 3.62 3.79 0 0 1-.22-.3 3.62 3.79 0 0 1-.19-.33 3.62 3.79 0 0 1-.15-.34 3.62 3.79 0 0 1-.13-.35 3.62 3.79 0 0 1-.09-.37 3.62 3.79 0 0 1-.05-.37 3.62 3.79 0 0 1-.02-.38 3.62 3.79 0 0 1 0-.18h-1.8a3.62 3.79 0 0 1 0 .18 3.62 3.79 0 0 1 0 .27 3.62 3.79 0 0 1-.05.37 3.62 3.79 0 0 1-.08.37 3.62 3.79 0 0 1-.11.36 3.62 3.79 0 0 1-.15.35 3.62 3.79 0 0 1-.18.32 3.62 3.79 0 0 1-.2.31 3.62 3.79 0 0 1-.25.29 3.62 3.79 0 0 1-.26.25 3.62 3.79 0 0 1-.3.23 3.62 3.79 0 0 1-.3.2 3.62 3.79 0 0 1-.33.17 3.62 3.79 0 0 1-.34.13 3.62 3.79 0 0 1-.35.09 3.62 3.79 0 0 1-.36.06 3.62 3.79 0 0 1-.36.01 3.62 3.79 0 0 1-.25 0 3.62 3.79 0 0 1-.36-.05A3.62 3.79 0 0 1 11 8.4a3.62 3.79 0 0 1-.34-.12 3.62 3.79 0 0 1-.33-.16 3.62 3.79 0 0 1-.31-.19 3.62 3.79 0 0 1-.3-.22 3.62 3.79 0 0 1-.27-.25 3.62 3.79 0 0 1-.25-.27 3.62 3.79 0 0 1-.22-.3 3.62 3.79 0 0 1-.19-.33 3.62 3.79 0 0 1-.15-.34 3.62 3.79 0 0 1-.13-.35 3.62 3.79 0 0 1-.09-.37 3.62 3.79 0 0 1-.05-.37z" fill="url(#d)" fill-rule="evenodd"/><g transform="translate(4.13 4.03) scale(.12925)" clip-path="url(#e)" stroke-width="9.07"><g clip-path="url(#f)"><g clip-path="url(#g)"><path d="M140.33 98.95L98.91 282.57h33.64l19.52-82.17h91.84l-86.03 76.93 22.4 25.78 11.47-5.91c21.71-11.14 30.82-4.62 47.27-.07 16.03 4.42 31.12 9.17 62.36-8.81l-6.2-31.77c-34.05 24.23-44.88 2.63-69.18 1.72l69.54-58.83 7.55-31.44H157.4l9.4-37.67h95.5l6.59-31.44H140.3m.07.03"/></g></g></g><g transform="matrix(.13787 0 0 .13787 3.53 3.53)" clip-path="url(#h)" fill="#fff" stroke-width="9.07"><g clip-path="url(#i)"><path d="M131.33 89.95L89.91 273.57h33.64l19.52-82.17h91.84l-86.03 76.93 22.4 25.78 11.47-5.91c21.71-11.14 30.82-4.62 47.27-.07 16.03 4.42 31.12 9.17 62.36-8.81l-6.2-31.77c-34.05 24.23-44.88 2.63-69.18 1.72l69.54-58.83 7.55-31.44H148.4l9.4-37.67h95.5l6.59-31.44H131.3m.07.03"/></g></g></svg>