<?xml version="1.0" encoding="UTF-8" standalone="no"?><svg xmlns:dc="http://purl.org/dc/elements/1.1/" xmlns:cc="http://creativecommons.org/ns#" xmlns:rdf="http://www.w3.org/1999/02/22-rdf-syntax-ns#" xmlns="http://www.w3.org/2000/svg" xmlns:xlink="http://www.w3.org/1999/xlink" width="64" height="64" version="1"><metadata><rdf:RDF><cc:Work><dc:format>image/svg+xml</dc:format><dc:type rdf:resource="http://purl.org/dc/dcmitype/StillImage"/><dc:title/></cc:Work></rdf:RDF></metadata><defs><linearGradient id="c"><stop offset="0" stop-color="#d7e3f4"/><stop offset=".75" stop-color="#2c5aa0"/><stop offset="1" stop-color="#162d50"/></linearGradient><linearGradient id="b"><stop offset="0" stop-color="#666"/><stop offset="1"/></linearGradient><linearGradient id="a"><stop offset="0" stop-color="#afc6e9"/><stop offset="1" stop-color="#214478"/></linearGradient><linearGradient xlink:href="#b" id="d" x1="10.76" y1="54.61" x2="11.16" y2="5.25" gradientUnits="userSpaceOnUse"/><radialGradient xlink:href="#c" id="e" cx="32" cy="32.01" fx="32" fy="32.01" r="28" gradientTransform="matrix(1 0 0 1.036 0 -1.15)" gradientUnits="userSpaceOnUse"/></defs><path d="M45.38 8.38A27.97 27.97 0 0 0 32 5c-8.44 0-15.98 3.7-21.1 9.56-.68 21.82 23.88 45.8 34.46 38.11 6-4.36 2.06-30.25.02-44.3z" fill="url(#d)"/><path d="M41.84 3l-.34.42c-.05.07-.1.14-.17.21-1.3 1.72-1.63 3.66-2.4 5.75-.3.8-.61 2-.79 3.01-.17 1-.19 2.44-.02 3.32.43 2.34 1 4.53 2.45 6.4 1.67 1.81 3.48 3.81 4.16 5.28.93 2 1.32 3.8 1.32 6.03 0 .67-.03 1.36-.1 1.77-1.4 6.6-6.07 11.77-12.62 11.81-4.15.02-9.73-1.8-10.48-6.08 2 .3 3.5.19 4.92.18 1.32 0 2.98-.3 4.51-1.1 2.3-1.23 3.43-1.06 4.05-.98.93.1 1.04.1 1.25-.02.42-.27.55-.38.3-.9a5.13 5.13 0 0 0-4.44-2.3c-.94 0-1.73.25-3.43.77-1.69.5-3.02.58-4.07.3-4.33-1.04-7.33-5.1-5.22-7.9 1.27-.07 4.24 1.39 5.05 1.94.77-.76-.5-2.52-.77-3.58 0-1.33 2.7-1.7 3.81-2.2a32.1 32.1 0 0 0 1.58-.75c.3-.17.9-.74 1.13-1.09.36-.53.6-1.5.45-1.86-.18-.45-1.42-.72-4.41-.99-1.13-.1-1.9-1.02-2.5-2.07-1.05-2.41 2.05-5.9 3.37-7.12-2.1-1.15-5.41 2.06-6.66 3.24-.4.4-.28.39-1.5.07l-.25-.06-.1-.02-.17-.04-.12-.02-.14-.03-.15-.02-.11-.02a15.76 15.76 0 0 0-2.1-.2h-.32a11.3 11.3 0 0 0-.98.05h-.02c-.1 0-.18.02-.26.03l-.12.02c-.4 0-.77.11-1.08.26-1.06-1.78-1.31-5.73-2.13-7.5-1.91 1-3.23 6.73-3.55 8.4-.13.67-.27 1.97-.27 2.43l-.02.14A28 28 0 1 0 60 33c0-9.8-4.39-14.83-8.73-21.71l-.02-.01c-.64-.96-1.2-2.81-1.64-3.86-.07-.23-.15-.41-.18-.41-.02 0-.03 0-.05.02-.56.68-.84 4.14-1.14 4.97-2.18-3.03-4.9-5.24-6.32-8.59z" fill="url(#e)"/></svg>