<?xml version="1.0" encoding="UTF-8" standalone="no"?>
<svg
   xmlns:dc="http://purl.org/dc/elements/1.1/"
   xmlns:cc="http://creativecommons.org/ns#"
   xmlns:rdf="http://www.w3.org/1999/02/22-rdf-syntax-ns#"
   xmlns:svg="http://www.w3.org/2000/svg"
   xmlns="http://www.w3.org/2000/svg"
   xmlns:xlink="http://www.w3.org/1999/xlink"
   xmlns:sodipodi="http://sodipodi.sourceforge.net/DTD/sodipodi-0.dtd"
   xmlns:inkscape="http://www.inkscape.org/namespaces/inkscape"
   width="64"
   height="64"
   version="1"
   id="svg31"
   sodipodi:docname="firefox.svg"
   inkscape:version="0.92.3 (2405546, 2018-03-11)">
  <sodipodi:namedview
     pagecolor="#ffffff"
     bordercolor="#666666"
     borderopacity="1"
     objecttolerance="10"
     gridtolerance="10"
     guidetolerance="10"
     inkscape:pageopacity="0"
     inkscape:pageshadow="2"
     inkscape:window-width="1366"
     inkscape:window-height="719"
     id="namedview33"
     showgrid="false"
     inkscape:zoom="8.40625"
     inkscape:cx="32"
     inkscape:cy="32"
     inkscape:window-x="0"
     inkscape:window-y="25"
     inkscape:window-maximized="1"
     inkscape:current-layer="svg31"
     showguides="true"
     inkscape:guide-bbox="true">
    <sodipodi:guide
       position="35.925651,10.349442"
       orientation="1,0"
       id="guide842"
       inkscape:locked="false" />
  </sodipodi:namedview>
  <metadata
     id="metadata2">
    <rdf:RDF>
      <cc:Work>
        <dc:format>image/svg+xml</dc:format>
        <dc:type
           rdf:resource="http://purl.org/dc/dcmitype/StillImage" />
        <dc:title></dc:title>
      </cc:Work>
    </rdf:RDF>
  </metadata>
  <defs
     id="defs25">
    <linearGradient
       inkscape:collect="always"
       id="linearGradient848">
      <stop
         style="stop-color:#ffffff;stop-opacity:1;"
         offset="0"
         id="stop844" />
      <stop
         id="stop858"
         offset="0.413791"
         style="stop-color:#ffb380;stop-opacity:1" />
      <stop
         id="stop856"
         offset="0.57753831"
         style="stop-color:#ff7f2a;stop-opacity:1" />
      <stop
         id="stop854"
         offset="0.71009141"
         style="stop-color:#ff6600;stop-opacity:1" />
      <stop
         id="stop852"
         offset="0.84069002"
         style="stop-color:#aa4400;stop-opacity:1" />
      <stop
         style="stop-color:#550000;stop-opacity:1"
         offset="1"
         id="stop846" />
    </linearGradient>
    <linearGradient
       inkscape:collect="always"
       id="linearGradient879">
      <stop
         style="stop-color:#333333;stop-opacity:1"
         offset="0"
         id="stop875" />
      <stop
         style="stop-color:#000000;stop-opacity:1"
         offset="1"
         id="stop877" />
    </linearGradient>
    <linearGradient
       id="c">
      <stop
         offset="0"
         stop-color="#fca"
         id="stop4" />
      <stop
         offset=".78"
         stop-color="#f60"
         id="stop6" />
      <stop
         offset="1"
         stop-color="#d45500"
         id="stop8" />
    </linearGradient>
    <linearGradient
       id="b">
      <stop
         offset="0"
         stop-color="#666"
         id="stop11" />
      <stop
         offset="1"
         id="stop13" />
    </linearGradient>
    <linearGradient
       id="a">
      <stop
         offset="0"
         stop-color="#ffe6d5"
         id="stop16" />
      <stop
         stop-color="#f60"
         offset=".76"
         id="stop18" />
      <stop
         offset="1"
         stop-color="#d45500"
         id="stop20" />
    </linearGradient>
    <linearGradient
       xlink:href="#b"
       id="d"
       x1="10.76"
       y1="54.61"
       x2="11.16"
       y2="5.25"
       gradientUnits="userSpaceOnUse" />
    <radialGradient
       xlink:href="#c"
       id="e"
       cx="32"
       cy="32.01"
       fx="32"
       fy="32.01"
       r="28"
       gradientTransform="matrix(1,0,0,1.036,120,-1.15)"
       gradientUnits="userSpaceOnUse" />
    <radialGradient
       id="o"
       cx="241.30049"
       cy="225.0865"
       r="322.09"
       gradientTransform="matrix(0.17072081,0,0,-0.16749334,-5.382844,37.468009)"
       gradientUnits="userSpaceOnUse"
       fx="241.30049"
       fy="225.0865">
      <stop
         stop-color="#fff"
         offset=".12"
         id="stop94" />
      <stop
         stop-color="#FFFFFD"
         offset=".12"
         id="stop96" />
      <stop
         stop-color="#FFE953"
         offset=".25"
         id="stop98" />
      <stop
         stop-color="#FFE447"
         offset=".29"
         id="stop100" />
      <stop
         stop-color="#F9D61E"
         offset=".35"
         id="stop102" />
      <stop
         stop-color="#F2C500"
         offset=".41"
         id="stop104" />
      <stop
         stop-color="#ECA300"
         offset=".47"
         id="stop106" />
      <stop
         stop-color="#E67D00"
         offset=".55"
         id="stop108" />
      <stop
         stop-color="#DE510E"
         offset=".76"
         id="stop110" />
      <stop
         stop-color="#C8331A"
         offset=".9"
         id="stop112" />
      <stop
         stop-color="#B6151E"
         offset="1"
         id="stop114" />
    </radialGradient>
    <radialGradient
       inkscape:collect="always"
       xlink:href="#linearGradient879"
       id="radialGradient881"
       cx="25.576204"
       cy="16.748665"
       fx="25.576204"
       fy="16.748665"
       r="27.475838"
       gradientTransform="matrix(1,0,0,0.99442384,0,0.17744214)"
       gradientUnits="userSpaceOnUse" />
    <radialGradient
       inkscape:collect="always"
       xlink:href="#linearGradient848"
       id="radialGradient850"
       cx="35.925652"
       cy="-2.77665"
       fx="35.925652"
       fy="-2.77665"
       r="30.023595"
       gradientTransform="matrix(0.0054528,2.0325948,-1.476945,0.0039622,31.628796,-72.449276)"
       gradientUnits="userSpaceOnUse" />
  </defs>
  <ellipse
     style="opacity:1;fill:url(#radialGradient881);fill-opacity:1;stroke:none;stroke-width:0.85861993;stroke-opacity:0.31782945"
     id="path873"
     cx="30.810406"
     cy="31.821562"
     rx="27.475838"
     ry="27.322628" />
  <path
     d="m 53.170164,49.213883 c 1.657823,-3.121652 3.880016,-4.938205 5.114576,-7.089851 1.604915,-2.857105 4.656014,-10.916963 2.363282,-17.407177 1.058185,4.056384 0.705448,8.200951 -2.645469,10.264416 1.09346,-2.857105 1.763646,-9.135682 0.652542,-14.81462 -0.723092,-3.66838 -3.033468,-6.966394 -4.532558,-7.989307 1.375634,1.040547 2.486738,4.761841 2.469094,6.454941 A 24.602845,24.602845 0 0 0 41.847564,7.1333188 c 5.537845,3.6507462 7.60131,6.7547582 8.924043,9.5236842 -1.481458,-1.516734 -4.021111,-3.104019 -5.731845,-3.227473 2.557285,1.904739 6.86058,7.583672 6.402031,16.154985 a 17.283719,17.283719 0 0 0 -2.716015,-4.30329 c 0.917094,8.430221 0.105766,10.229138 -0.440908,12.468968 -0.123443,-1.022915 -0.493824,-1.798917 -0.705462,-2.275102 0,0 -0.105766,2.645467 -1.81655,6.384393 -1.305098,2.857105 -2.64547,3.72129 -3.227473,3.63311 -0.176363,0 -0.24691,-0.08817 -0.24691,-0.08817 0.03521,-0.370365 0.08822,-0.758367 0,-1.005278 0,0 -0.564365,0.176365 -0.917096,0.705459 -0.141094,0.176364 -0.317454,0.370366 -0.564365,0.564366 l 0.352728,-0.529093 c -0.211637,0.176364 -0.440909,0.370365 -0.670185,0.617275 -0.828912,0.881822 -1.587279,1.83419 -1.992918,1.552007 0.370367,-0.105819 0.670185,-0.564366 0.74073,-1.022914 -0.317455,0.229274 -1.164005,0.846549 -3.03347,1.128734 -0.776002,0.105817 -4.038746,0.705457 -8.377312,-1.463827 0.634913,-0.07054 1.587282,-0.299819 2.29274,0.123456 -0.705458,-0.776003 -2.469104,-0.617276 -3.703655,-1.005278 -1.09346,-0.352728 -2.522012,-1.8871 -3.350923,-2.645467 3.350923,0.811277 6.895849,0.211637 8.959313,-1.181642 2.063464,-1.410916 3.298016,-2.469103 4.409113,-2.222193 1.09346,0.24691 1.834188,-0.846549 0.970004,-1.83419 a 5.7494821,5.7494821 0 0 0 -5.749484,-1.58728 c -2.151646,0.529093 -4.003472,2.275102 -7.03694,1.058186 l -0.564368,-0.246911 c -0.176365,-0.105824 0.634913,0.105826 0.440914,0 -0.582006,-0.229273 -1.657828,-0.705458 -1.904738,-0.881822 -0.05288,-0.03526 0.423274,0.07055 0.388003,0.05291 -2.892379,-1.710735 -2.698379,-3.068742 -2.698379,-3.915292 0,-0.670185 0.405638,-1.587278 1.181645,-2.010552 0.405636,0.141088 0.670183,0.282181 0.670183,0.282181 0,0 -0.176365,-0.29982 -0.317457,-0.44091 l 0.08822,-0.01765 c 0.35273,0.105798 1.111097,0.388003 1.499097,0.582003 0.529098,0.264546 0.70546,0.529092 0.70546,0.529092 0,0 0.105849,-0.07055 -0.01767,-0.352728 a 1.8694633,1.8694633 0 0 0 -0.758368,-0.740738 h 0.01767 c 0.282182,0.105819 0.564365,0.24691 0.881823,0.423275 0.105763,-0.458548 0.299817,-0.934732 0.176361,-1.763646 -0.105766,-0.599643 -0.08822,-0.758371 -0.229272,-0.970008 -0.141096,-0.176365 0.03521,-0.264548 0.229272,-0.105776 a 2.6454672,2.6454672 0 0 0 -0.193997,-0.423275 c 0.158733,-0.740731 4.479658,-2.998202 4.814751,-3.245106 0.44091,-0.335093 0.899454,-0.846555 1.181641,-1.42855 0.211637,-0.38801 0.352728,-0.917097 0.317458,-1.693107 -0.01767,-0.546729 -0.352733,-0.881823 -4.973481,-0.846547 -1.252187,0 -2.081098,-0.740726 -2.574922,-1.428553 l -0.264544,-0.440907 c -0.123442,-0.176364 -0.176366,-0.352729 -0.246911,-0.493823 a 9.9116842,9.9116842 0 0 1 3.386198,-5.14984 c 0.105766,-0.08822 -0.423276,0.05288 -0.317455,-0.03522 0.123435,-0.105766 0.846547,-0.458549 0.987639,-0.529096 0.176366,-0.105765 -0.793639,-0.352727 -1.622549,-0.193997 -0.846552,0.176363 -1.00528,0.264544 -1.428554,0.493822 0.176361,-0.176371 0.740729,-0.458548 0.599635,-0.440915 -0.899456,0.211637 -1.97528,0.811274 -2.874739,1.446187 v -0.282179 c -0.423276,0.22927 -1.446189,1.022912 -1.710735,1.622549 l -0.01767,-0.352726 c -0.299819,0.282186 -0.582002,0.599637 -0.846549,0.952369 v 0.01767 A 12.416058,12.416058 0 0 0 11.706881,14.7347 c -0.458549,-0.335091 -1.181642,-0.846548 -2.3456504,-2.627834 -0.07055,-0.105764 -0.07055,0.246912 -0.1410952,0.123442 A 8.2891304,8.2891304 0 0 1 8.338315,9.0204744 c 0,0 -0.740731,0.4409052 -1.234553,1.9752716 l -0.193999,0.582005 c -0.03521,0.03529 0.0352,-0.493813 0,-0.458549 -0.08822,0.194005 -0.352731,0.493823 -0.440912,0.846548 -0.05288,0.246912 -0.176364,0.405642 -0.211637,0.740735 0,-0.07055 0,-0.352725 -0.0352,-0.299818 -0.211637,0.564362 -0.423275,1.216916 -0.582003,1.940008 a 17.195536,17.195536 0 0 0 -0.335093,4.761839 c 0,0.176362 0.03521,0.335093 0.01767,0.47618 a 13.756429,13.756429 0 0 0 -1.375647,2.292745 c -0.881823,1.728371 -1.798921,4.37384 -2.522013,8.500767 0,0 0.493824,-1.552009 1.463828,-3.315655 -0.705461,2.222196 -1.287466,5.661304 -0.952373,10.846418 0,-0.176363 0.176362,-1.48146 0.54673,-3.245105 0.194006,3.439107 1.005279,7.671854 3.703654,12.257331 2.028188,3.492017 7.407309,11.622418 20.91683,14.655886 a 6.4549397,6.4549397 0 0 1 -2.416221,-1.26983 c 0,0 5.044027,1.622554 8.730042,1.481461 -1.146367,-0.211637 -1.375641,-0.758366 -1.375641,-0.758366 0,0 13.086242,0.74073 17.601176,-5.432024 -1.552007,1.798917 -5.467298,2.310374 -6.94876,2.328006 2.257461,-2.063463 7.230941,-2.028188 12.645333,-7.336759 2.962909,-2.910024 3.280368,-5.132216 3.615458,-7.213316 -0.493835,2.716012 -3.086397,4.356202 -5.784772,5.820026 z"
     id="path325"
     style="fill:url(#radialGradient850);stroke-width:1.76364493;fill-opacity:1"
     inkscape:connector-curvature="0" />
</svg>
