<?xml version="1.0" encoding="UTF-8" standalone="no"?>
<svg
   xmlns:dc="http://purl.org/dc/elements/1.1/"
   xmlns:cc="http://creativecommons.org/ns#"
   xmlns:rdf="http://www.w3.org/1999/02/22-rdf-syntax-ns#"
   xmlns:svg="http://www.w3.org/2000/svg"
   xmlns="http://www.w3.org/2000/svg"
   xmlns:xlink="http://www.w3.org/1999/xlink"
   xmlns:sodipodi="http://sodipodi.sourceforge.net/DTD/sodipodi-0.dtd"
   xmlns:inkscape="http://www.inkscape.org/namespaces/inkscape"
   width="64"
   height="64"
   version="1"
   id="svg12"
   sodipodi:docname="firefox-developer-edition.svg"
   inkscape:version="0.92.3 (2405546, 2018-03-11)">
  <metadata
     id="metadata18">
    <rdf:RDF>
      <cc:Work
         rdf:about="">
        <dc:format>image/svg+xml</dc:format>
        <dc:type
           rdf:resource="http://purl.org/dc/dcmitype/StillImage" />
        <dc:title></dc:title>
      </cc:Work>
    </rdf:RDF>
  </metadata>
  <defs
     id="defs16">
    <linearGradient
       inkscape:collect="always"
       id="linearGradient852">
      <stop
         style="stop-color:#666666;stop-opacity:1"
         offset="0"
         id="stop848" />
      <stop
         style="stop-color:#000000;stop-opacity:1"
         offset="1"
         id="stop850" />
    </linearGradient>
    <linearGradient
       inkscape:collect="always"
       id="linearGradient821">
      <stop
         style="stop-color:#afc6e9;stop-opacity:1"
         offset="0"
         id="stop817" />
      <stop
         style="stop-color:#214478;stop-opacity:1"
         offset="1"
         id="stop819" />
    </linearGradient>
    <radialGradient
       inkscape:collect="always"
       xlink:href="#linearGradient821"
       id="radialGradient823"
       cx="31.999999"
       cy="32.000015"
       fx="31.999999"
       fy="32.000015"
       r="27.99957"
       gradientTransform="matrix(1,0,0,1.0357308,0,-1.1433848)"
       gradientUnits="userSpaceOnUse" />
    <linearGradient
       inkscape:collect="always"
       xlink:href="#linearGradient852"
       id="linearGradient854"
       x1="10.759451"
       y1="54.613121"
       x2="11.162685"
       y2="5.2520628"
       gradientUnits="userSpaceOnUse" />
  </defs>
  <sodipodi:namedview
     pagecolor="#ffffff"
     bordercolor="#666666"
     borderopacity="1"
     objecttolerance="10"
     gridtolerance="10"
     guidetolerance="10"
     inkscape:pageopacity="0"
     inkscape:pageshadow="2"
     inkscape:window-width="1366"
     inkscape:window-height="715"
     id="namedview14"
     showgrid="false"
     inkscape:zoom="2.0585938"
     inkscape:cx="32"
     inkscape:cy="32"
     inkscape:window-x="0"
     inkscape:window-y="27"
     inkscape:window-maximized="1"
     inkscape:current-layer="svg12" />
  <path
     style="fill:url(#linearGradient854);fill-opacity:1"
     d="M 45.376725,8.3755937 C 41.40657,6.222286 36.851166,5.0008903 32,5.0008903 c -8.43797,0 -15.981135,3.6952177 -21.106148,9.5623067 -0.669383,21.811882 23.881383,45.794804 34.462743,38.108968 6.001952,-4.359554 2.066862,-30.25645 0.02014,-44.296571 z"
     id="path2"
     inkscape:connector-curvature="0" />
  <path
     style="fill:url(#radialGradient823);fill-opacity:1"
     d="M 41.838131,2.9999992 41.50454,3.4156178 c -0.0574,0.071259 -0.113618,0.1436518 -0.172257,0.2187467 -1.29554,1.7184176 -1.631517,3.6595236 -2.405703,5.7448336 -0.295116,0.8000599 -0.608005,2.0066319 -0.78202,3.0105009 -0.174438,1.006627 -0.189737,2.444184 -0.02734,3.324308 0.429234,2.331469 1.010573,4.528413 2.45143,6.387403 1.670177,1.818558 3.485803,3.823047 4.162413,5.285465 0.930285,2.012091 1.323415,3.803237 1.323415,6.029203 0,0.670968 -0.0383,1.360675 -0.0957,1.771849 -1.410197,6.593857 -6.079301,11.776979 -12.632244,11.812319 -4.148175,0.01555 -9.726407,-1.800401 -10.478344,-6.085209 1.998084,0.304285 3.496041,0.195397 4.923185,0.185277 1.31881,-0.0094 2.97692,-0.292613 4.513559,-1.107937 2.289524,-1.222489 3.422907,-1.047538 4.049397,-0.974949 0.923148,0.106958 1.039513,0.104819 1.241389,-0.02188 0.428114,-0.268627 0.550888,-0.37644 0.303512,-0.887474 -0.312335,-0.645182 -1.408111,-1.54616 -2.326919,-1.914033 -0.769566,-0.308149 -1.188739,-0.384982 -2.110903,-0.385542 -0.939108,-5.32e-4 -1.735571,0.243659 -3.428705,0.756883 -1.690195,0.512406 -3.026826,0.589379 -4.06925,0.298043 -4.335459,-1.037658 -7.337611,-5.086868 -5.227284,-7.900503 1.269221,-0.05852 4.248327,1.394639 5.051923,1.943571 0.768868,-0.755583 -0.500321,-2.517542 -0.767989,-3.579887 0,-1.326038 2.701901,-1.69764 3.811666,-2.197299 0.731069,-0.328099 1.443882,-0.664867 1.58318,-0.746472 0.302675,-0.177437 0.886234,-0.743875 1.12381,-1.090997 0.362455,-0.529922 0.600477,-1.511237 0.453899,-1.864816 -0.183957,-0.444368 -1.421394,-0.720917 -4.415948,-0.987094 -1.130202,-0.100519 -1.903349,-1.017538 -2.499179,-2.068264 -1.043832,-2.413577 2.05368,-5.908989 3.37652,-7.12487 -2.104028,-1.148374 -5.415677,2.065702 -6.668658,3.242117 -0.401374,0.397188 -0.278678,0.3911 -1.495679,0.07109 -0.0812,-0.02142 -0.165317,-0.04028 -0.25156,-0.06016 -0.0308,-0.007 -0.06217,-0.01516 -0.09297,-0.02188 -0.056,-0.0126 -0.114868,-0.02393 -0.172263,-0.03555 -0.0406,-0.0084 -0.08105,-0.01664 -0.123044,-0.02461 -0.0476,-0.0084 -0.0943,-0.0188 -0.142184,-0.02734 -0.0504,-0.0084 -0.09971,-0.01622 -0.150388,-0.02461 -0.0364,-0.0056 -0.07298,-0.01036 -0.10938,-0.0164 -0.322275,-0.05082 -0.658957,-0.09441 -0.998032,-0.125774 -0.370854,-0.03416 -0.742701,-0.05695 -1.101936,-0.06562 -0.107798,-0.0028 -0.215199,-0.0028 -0.319916,-0.0028 -0.113398,-2.38e-4 -0.222497,-1.49e-4 -0.330855,0.0028 -0.021,5.46e-4 -0.04189,0.0013 -0.06289,0.0028 -0.091,0.0028 -0.180748,0.0067 -0.267966,0.01092 -0.014,6.86e-4 -0.02435,0.0013 -0.03554,0.0028 -0.0966,0.0056 -0.188884,0.01316 -0.278903,0.02188 -0.014,7.14e-4 -0.01486,0.0013 -0.02188,0.0028 -0.0924,0.0084 -0.178218,0.02106 -0.262496,0.03282 h -0.0028 c -0.0378,0.0056 -0.07844,0.01008 -0.114841,0.0164 -0.401093,-0.0014 -0.76892,0.112306 -1.082795,0.257026 C 13.293728,12.726652 13.038328,8.7822483 12.219761,7.0008596 10.30515,8.0042382 8.993637,13.735435 8.667862,15.416039 c -0.124598,0.668308 -0.267265,1.966062 -0.267965,2.425353 -1.27e-4,0.06611 -0.01662,0.09187 -0.01914,0.139452 -2.766291,4.341364 -4.380328,9.490197 -4.380328,15.019617 0,15.463734 12.535834,27.99957 27.99957,27.99957 15.463735,0 27.99957,-12.535836 27.99957,-27.99957 0,-9.79985 -4.388546,-14.834892 -8.73346,-21.713339 0,-0.0042 3.28e-4,-0.0067 -0.0138,-0.01094 -0.64035,-0.957672 -1.194523,-2.8096291 -1.643334,-3.8521493 -0.07,-0.2298205 -0.153098,-0.418353 -0.183197,-0.418353 -0.014,0 -0.02694,0.00908 -0.04376,0.02461 -0.56448,0.6824632 -0.83745,4.1408413 -1.140127,4.9704933 C 46.056532,8.9737575 43.347286,6.7638002 41.920162,3.4101493 Z"
     id="path8"
     inkscape:connector-curvature="0" />
</svg>
