<svg xmlns="http://www.w3.org/2000/svg" xmlns:xlink="http://www.w3.org/1999/xlink" width="64" height="64" version="1"><defs><linearGradient id="b"><stop offset="0" stop-color="#e3d7f4"/><stop offset=".41" stop-color="#aa87de"/><stop offset=".58" stop-color="#8d5fd3"/><stop offset=".71" stop-color="#7137c8"/><stop offset=".84" stop-color="#442178"/><stop offset="1" stop-color="#170b28"/></linearGradient><linearGradient id="a"><stop offset="0" stop-color="#333"/><stop offset="1"/></linearGradient><radialGradient xlink:href="#a" id="c" cx="25.58" cy="16.75" fx="25.58" fy="16.75" r="27.48" gradientTransform="matrix(1 0 0 .99442 0 .18)" gradientUnits="userSpaceOnUse"/><radialGradient xlink:href="#b" id="d" cx="35.93" cy="-2.78" fx="35.93" fy="-2.78" r="30.02" gradientTransform="matrix(.00545 2.0326 -1.47694 .00396 31.63 -72.45)" gradientUnits="userSpaceOnUse"/></defs><ellipse cx="30.81" cy="31.82" rx="27.48" ry="27.32" fill="url(#c)"/><path d="M53.17 49.21c1.66-3.12 3.88-4.93 5.11-7.09 1.61-2.85 4.66-10.91 2.37-17.4 1.06 4.05.7 8.2-2.65 10.26 1.1-2.86 1.77-9.13.66-14.81-.73-3.67-3.04-6.97-4.54-8 1.38 1.05 2.49 4.77 2.47 6.46a24.6 24.6 0 0 0-14.74-11.5c5.54 3.65 7.6 6.76 8.92 9.53-1.48-1.52-4.02-3.1-5.73-3.23 2.56 1.9 6.86 7.58 6.4 16.15a17.28 17.28 0 0 0-2.71-4.3c.91 8.43.1 10.23-.45 12.47-.12-1.02-.49-1.8-.7-2.27 0 0-.1 2.64-1.82 6.38-1.3 2.86-2.64 3.72-3.22 3.63-.18 0-.25-.09-.25-.09.03-.37.09-.75 0-1 0 0-.57.18-.92.7a3.4 3.4 0 0 1-.56.57l.35-.53c-.21.18-.44.37-.67.62-.83.88-1.59 1.83-2 1.55.38-.1.68-.57.75-1.02-.32.23-1.17.84-3.04 1.12-.77.11-4.03.71-8.37-1.46.63-.07 1.58-.3 2.29.12-.7-.77-2.47-.61-3.7-1-1.1-.35-2.53-1.89-3.36-2.65 3.36.82 6.9.22 8.96-1.18 2.07-1.4 3.3-2.47 4.41-2.22 1.1.25 1.84-.85.97-1.83a5.75 5.75 0 0 0-5.75-1.6c-2.15.54-4 2.28-7.03 1.07l-.57-.25c-.17-.1.64.1.44 0-.58-.23-1.65-.7-1.9-.88-.05-.04.42.07.39.05-2.9-1.71-2.7-3.07-2.7-3.91 0-.67.4-1.6 1.18-2.01.4.14.67.28.67.28s-.18-.3-.32-.44l.1-.02c.34.1 1.1.39 1.49.58.53.27.7.53.7.53s.11-.07-.01-.35a1.87 1.87 0 0 0-.76-.74h.02c.28.1.56.24.88.42.1-.46.3-.94.18-1.76-.11-.6-.1-.76-.23-.97-.15-.18.03-.27.23-.11a2.65 2.65 0 0 0-.2-.42c.16-.74 4.48-3 4.82-3.25.44-.33.9-.84 1.18-1.43.2-.38.35-.91.32-1.69-.02-.55-.36-.88-4.98-.85a3.14 3.14 0 0 1-2.57-1.42l-.27-.45c-.12-.17-.17-.35-.24-.49a9.91 9.91 0 0 1 3.38-5.15c.1-.09-.42.05-.32-.03.13-.11.85-.46 1-.53.17-.11-.8-.36-1.63-.2-.85.18-1 .27-1.43.5.18-.18.74-.46.6-.44-.9.2-1.98.8-2.87 1.44v-.28A4.96 4.96 0 0 0 19.48 14l-.01-.35c-.3.28-.59.6-.85.95v.02a12.42 12.42 0 0 0-6.91.1c-.46-.33-1.18-.84-2.35-2.62-.07-.1-.07.24-.14.12a8.29 8.29 0 0 1-.88-3.21S7.6 9.46 7.1 11l-.19.58c-.04.03.03-.5 0-.46-.09.2-.35.5-.44.85-.05.24-.18.4-.21.74 0-.07 0-.36-.04-.3-.21.56-.42 1.21-.58 1.94a17.2 17.2 0 0 0-.34 4.76c0 .17.04.33.02.47a13.76 13.76 0 0 0-1.37 2.3c-.88 1.73-1.8 4.37-2.53 8.5 0 0 .5-1.55 1.47-3.32-.7 2.22-1.29 5.66-.95 10.85 0-.18.17-1.48.54-3.25.2 3.44 1 7.68 3.7 12.26 2.03 3.5 7.41 11.62 20.92 14.66a6.45 6.45 0 0 1-2.41-1.27s5.04 1.62 8.73 1.48c-1.15-.21-1.38-.76-1.38-.76s13.09.74 17.6-5.43c-1.55 1.8-5.46 2.3-6.95 2.33 2.26-2.07 7.24-2.03 12.65-7.34 2.96-2.91 3.28-5.13 3.61-7.21-.49 2.71-3.08 4.35-5.78 5.82z" fill="url(#d)"/></svg>