<svg xmlns="http://www.w3.org/2000/svg" xmlns:xlink="http://www.w3.org/1999/xlink" width="64" height="64"><defs><linearGradient id="g"><stop offset="0" stop-color="#fff"/><stop offset=".13" stop-color="#fff" stop-opacity=".01"/><stop offset=".88" stop-color="#fff" stop-opacity=".02"/><stop offset="1" stop-color="#fff" stop-opacity=".99"/></linearGradient><linearGradient id="b"><stop offset="0" stop-color="#fff"/><stop offset="1" stop-color="#fff" stop-opacity="0"/></linearGradient><linearGradient id="a"><stop offset="0" stop-color="#729fcf"/><stop offset="1" stop-color="#396ea7"/></linearGradient><linearGradient id="c"><stop offset="0" stop-color="#fef291"/><stop offset="1" stop-color="#d3bc5f"/></linearGradient><linearGradient id="d"><stop offset="0"/><stop offset="1" stop-opacity="0"/></linearGradient><linearGradient xlink:href="#e" id="k" x1="20.19" y1="16.93" x2="28.02" y2="25.43" gradientUnits="userSpaceOnUse" gradientTransform="matrix(1.76967 0 0 1.76967 -10.47 -5.34)"/><linearGradient id="e"><stop offset="0" stop-color="#2aff2a"/><stop offset="1" stop-color="#0b280b"/></linearGradient><radialGradient xlink:href="#f" id="j" cx="21.56" cy="10.29" fx="21.56" fy="10.29" r="7.68" gradientTransform="matrix(1.76967 0 0 2.18342 -10.47 -10.9)" gradientUnits="userSpaceOnUse"/><linearGradient id="f"><stop offset="0" stop-color="#333"/><stop offset="1"/></linearGradient><radialGradient xlink:href="#f" id="h" cx="24.11" cy="10.71" fx="24.11" fy="10.71" r="16.7" gradientTransform="matrix(2.84731 -.0431 .01737 1.14734 -36.83 12.77)" gradientUnits="userSpaceOnUse"/><linearGradient xlink:href="#g" id="i" x1="12.35" y1="49.75" x2="51.65" y2="49.75" gradientUnits="userSpaceOnUse" gradientTransform="matrix(1 0 0 .97032 0 1.78)"/></defs><path d="M32 24.02c-15.43 0-29.55 8.16-29.55 13.45 0 2.46 10.03 1.06 10.38 3.2l2.5 16.87c0 1.6.85 2.88 1.95 2.88a57.1 57.1 0 0 0 29.4 0c1.09 0 1.99-1.27 1.99-2.88l2.48-16.87c.48-1.82 10.4-.74 10.4-3.2 0-5.29-14.12-13.45-29.55-13.45z" style="marker:none" overflow="visible" fill="url(#h)"/><path d="M12.35 40.15c1.49 2.32 2.35 13.2 3.54 19.81 1.4-5.85 0-17.17 2.56-19.58-1.54.98-4.47-.12-6.1-.23zm6.39 0c-.1.06-.2.14-.3.22.11-.06.2-.13.3-.22zm26.52 0c.1.09.19.16.3.22a1.8 1.8 0 0 0-.3-.22zm6.39 0c-1.63.11-4.56 1.2-6.1.23 2.56 2.41 1.16 13.73 2.56 19.58 1.19-6.6 2.05-17.5 3.54-19.8z" opacity=".19" fill="url(#i)"/><path d="M32 1.65a13.57 13.57 0 0 0-7.34 25c2.44 2.8 1.36 1.88 1.77 5.32 0 .88.72 1.64 1.62 1.64 2.9 2.23 5.49 1.99 7.9 0 .9 0 1.64-.74 1.64-1.64.48-3.37-.21-2.94 1.54-5.17A13.57 13.57 0 0 0 32 1.67z" fill="url(#j)"/><path d="M25.63 27.8c.5.88.51 1.76.78 4.15 0 .9.72 1.65 1.63 1.65 2.88 2.24 5.48 2 7.84 0 .9 0 1.75-.71 1.75-1.63.3-2.21.42-3.63.76-4.4l-2.21 1.3H27.8z" style="marker:none" overflow="visible" fill="url(#k)"/></svg>