<svg xmlns="http://www.w3.org/2000/svg" xmlns:xlink="http://www.w3.org/1999/xlink" width="64" height="64" version="1"><defs><linearGradient id="b"><stop offset="0" stop-color="#37abc8"/><stop offset="1" stop-color="#afdde9"/></linearGradient><linearGradient id="a"><stop offset="0" stop-color="#4d4d4d"/><stop offset="1"/></linearGradient><radialGradient xlink:href="#a" id="c" cx="16" cy="19.25" fx="16" fy="19.25" r="28" gradientUnits="userSpaceOnUse" gradientTransform="matrix(.88378 .33898 -.35812 .93367 8.75 -4.15)"/></defs><path d="M32 4C16.49 4 4 16.49 4 32s12.49 28 28 28 28-12.49 28-28S47.51 4 32 4z" fill="url(#c)"/><rect ry="0" y="22.9" x="48.15" height="6.79" width=".79" opacity=".43" fill="#999" paint-order="markers fill stroke"/><path d="M15.27 32h4.86l-4.86-13.6z" fill="red"/><path d="M15.27 32h-4.86l4.86-13.6z" fill="#ff2a2a"/><path d="M15.27 32h4.86l-4.86 13.6z" fill="maroon"/><path d="M15.27 32h-4.86l4.86 13.6z" fill="#d40000"/><path d="M48.73 32h4.86l-4.86-13.6z" fill="red"/><path d="M48.73 32h-4.86l4.86-13.6z" fill="#ff2a2a"/><path d="M48.73 32h4.86l-4.86 13.6z" fill="maroon"/><path d="M48.73 32h-4.86l4.86 13.6z" fill="#d40000"/><path d="M32 32h6.04L32 15.1z" fill="red"/><path d="M32 32h-6.04L32 15.1z" fill="#ff2a2a"/><path d="M32 32h6.04L32 48.9z" fill="maroon"/><path d="M32 32h-6.04L32 48.9z" fill="#d40000"/></svg>