<svg xmlns="http://www.w3.org/2000/svg" xmlns:xlink="http://www.w3.org/1999/xlink" width="64" height="64" viewBox="0 0 16.93 16.93"><defs><linearGradient id="b"><stop offset="0" stop-color="#4d4d4d"/><stop offset="1"/></linearGradient><linearGradient id="a"><stop offset="0" stop-color="#4d4d4d"/><stop offset="1"/></linearGradient><linearGradient x1="511.05" y1="52.92" x2="478.61" y2="52.92" id="i" gradientTransform="matrix(.0155 -.01984 .13838 .10811 -3.23 15.92)" gradientUnits="userSpaceOnUse"><stop offset="0%"/><stop stop-color="#FFD052" offset="49.15%"/><stop offset="100%"/></linearGradient><linearGradient x1="30.11" y1="76.84" x2="33.52" y2="98.73" id="g" gradientTransform="matrix(.0666 0 0 .0664 .15 2.12)" gradientUnits="userSpaceOnUse"><stop stop-color="#FFF" offset="0%"/><stop stop-color="#FFF" stop-opacity=".32" offset="100%"/></linearGradient><radialGradient cx="122.98" cy="94.54" fx="122.98" fy="94.54" r="86.74" gradientTransform="matrix(.07332 0 0 .0603 .15 2.12)" id="d" gradientUnits="userSpaceOnUse"><stop stop-color="#4d4d4d" offset="0%"/><stop offset="100%"/></radialGradient><radialGradient xlink:href="#c" id="e" cx="341.03" cy="97.5" fx="341.03" fy="97.5" r="30.55" gradientTransform="matrix(.0665 0 0 .0663 -13.28 .8)" gradientUnits="userSpaceOnUse"/><linearGradient id="c"><stop offset="0" stop-color="#fff"/><stop offset="1" stop-color="gray"/></linearGradient><radialGradient xlink:href="#c" id="f" cx="285.42" cy="99.84" fx="285.42" fy="99.84" r="20.36" gradientTransform="matrix(.0665 0 0 .0663 -13.28 .8)" gradientUnits="userSpaceOnUse"/><radialGradient xlink:href="#b" id="h" cx="14.91" cy="14.66" fx="14.91" fy="14.66" r=".79" gradientTransform="matrix(.98278 -.18478 .27047 1.43849 -3.74 -3.84)" gradientUnits="userSpaceOnUse"/></defs><g transform="matrix(1.07166 0 0 1.07166 -.82 -1.27)"><path d="M4.55 3.95c.97 1.9 2.78 2.63 5.42 2.18 3.96-.68 4.72-4.29 5.05-3.64.33.66.94 7.95-2.5 9.97-2.29 1.35-5.15.9-8.6-1.35-1.28-.76-1.87-1.36-1.76-1.81C3.55 8.74 4.29 8.3 4.4 8c.1-.31.15-1.66.15-4.05z" fill="url(#d)" fill-rule="evenodd"/><path d="M7.68 11.15a4.4 4.4 0 0 0 2.93-.67c.04-.04-.11-.16-.44-.35 1 .33.79.72-.62 1.14a3.5 3.5 0 0 1-1.87-.12z" fill="#ccc" fill-rule="evenodd"/><ellipse ry="2.18" rx="1.67" cy="9.09" cx="-1.95" transform="rotate(-29)" fill-rule="evenodd"/><ellipse ry="2.03" rx="2.03" cy="7.27" cx="9.4" fill="url(#e)" fill-rule="evenodd"/><ellipse ry=".83" rx=".83" cy="7.74" cx="9.87" fill="gray" fill-rule="evenodd"/><ellipse ry=".47" rx=".47" cy="7.79" cx="9.92" fill="#171717" fill-rule="evenodd"/><ellipse ry="1.35" rx="1.35" cy="7.43" cx="5.7" fill="url(#f)" fill-rule="evenodd"/><ellipse ry=".68" rx=".68" cy="7.79" cx="5.85" fill="gray" fill-rule="evenodd"/><ellipse ry=".38" rx=".38" cy="7.83" cx="5.9" fill="#171717" fill-rule="evenodd"/><ellipse ry=".73" rx=".73" cy="7.95" cx="2.16" fill="url(#g)" fill-rule="evenodd"/><path d="M13.8 6.6c-.11-.28.65-1.77 1.2-4.24l.07-.23c-.93 2.77-1.43 4.09-1.26 4.47z" fill="#666"/><path d="M16.44 16.03c-1.4-.32-2.01-.91-1.85-1.78.2-.59 1.16-.25 1.3.4.13.44.3.9.55 1.38z" fill="url(#h)" fill-rule="evenodd"/><path d="M10.13 11.06c-.03 0 .03-.06.16-.2.2-.2.4-.36 2.22 1.03 1.2.93 2.07 1.62 2.57 2.06l-.5.5-2.66-2.02c-.58-.46-1.18-.92-1.8-1.37z" fill="url(#i)" fill-rule="evenodd"/><path d="M13.19 12.42c.86.67 1.49 1.18 1.89 1.53l-.5.5-1.9-1.43.51-.6z" fill="#d8d8d8" fill-rule="evenodd"/></g></svg>