<svg xmlns="http://www.w3.org/2000/svg" xmlns:xlink="http://www.w3.org/1999/xlink" id="b" width="64" height="64"><defs id="defs4"><style id="current-color-scheme"></style><radialGradient xlink:href="#linearGradient892" id="radialGradient894" cx="7.76" cy="10.88" fx="7.76" fy="10.88" r="9" gradientTransform="matrix(3.33338 0 0 3.33343 -8 -8)" gradientUnits="userSpaceOnUse"/><linearGradient id="linearGradient892"><stop offset="0" id="stop888" stop-color="#333"/><stop offset="1" id="stop890"/></linearGradient></defs><path d="M31.94 2c-.99 0-1.98.38-2.73 1.13l-5.45 5.44-2.66 2.68L3.13 29.2a3.86 3.86 0 0 0 0 5.46l26.2 26.2a3.86 3.86 0 0 0 5.46 0l26.08-26.08a3.86 3.86 0 0 0 0-5.46l-26.2-26.2A3.84 3.84 0 0 0 31.94 2zm3.45 14.57zm.59 25.7zm.67 3.42z" id="path861" fill="url(#radialGradient894)" stroke-width="3.33"/><path d="M23.76 8.57l-2.67 2.67 6.8 6.8a4.6 4.6 0 0 0 2.5 6.04v16.47a4.6 4.6 0 1 0 3.78.13V24.36l6.2 6.2a4.6 4.6 0 1 0 2.76-2.59l-6.65-6.65a4.6 4.6 0 0 0-5.82-5.85z" id="path861-3" fill="#d40000" stroke-width="3.33"/><path d="M23.22 9.08l-2.73 2.72 6.95 6.92A4.66 4.66 0 0 0 30 24.85v16.74a4.7 4.7 0 0 0-2.91 4.33 4.69 4.69 0 1 0 6.78-4.19v-16.6l6.32 6.32a4.66 4.66 0 0 0 4.35 6.45 4.69 4.69 0 0 0 3.32-7.98A4.7 4.7 0 0 0 43 28.8l-6.8-6.76c.57-1.64.2-3.52-1.11-4.83a4.7 4.7 0 0 0-4.82-1.12z" id="path861-3-5" opacity=".21" fill="#d40000" stroke-width="3.4"/></svg>