<svg xmlns="http://www.w3.org/2000/svg" xmlns:xlink="http://www.w3.org/1999/xlink" width="64" height="64" viewBox="0 0 48 48"><defs><linearGradient id="b"><stop offset="0"/><stop offset=".68" stop-color="#333"/><stop offset="1"/></linearGradient><linearGradient id="a"><stop offset="0" stop-color="#4d4d4d"/><stop offset="1" stop-color="#999"/></linearGradient><linearGradient xlink:href="#a" id="c" x1="10.74" y1="42.73" x2="10.74" y2="9.9" gradientUnits="userSpaceOnUse"/><linearGradient xlink:href="#b" id="d" x1="14.48" y1="1.07" x2="14.51" y2="11.55" gradientUnits="userSpaceOnUse"/></defs><rect width="32.36" height="38.05" x="7.82" y="7.81" rx="1.48" ry="1.48"/><path fill="url(#c)" d="M10.74 9.9h26.33v32.83H10.74z"/><path d="M24.2 1.14a4.89 4.89 0 0 0-4.85 4.42h-3.39c-.82 0-1.48.66-1.48 1.48v3.24c0 .82.66 1.48 1.48 1.48h16.5c.82 0 1.48-.66 1.48-1.48V7.04c0-.82-.66-1.48-1.48-1.48h-3.4a4.89 4.89 0 0 0-4.85-4.42zm.01 1.8a2.15 2.15 0 0 1 2.15 2.15 2.15 2.15 0 0 1-2.15 2.15 2.15 2.15 0 0 1-2.14-2.15 2.15 2.15 0 0 1 2.14-2.15z" fill="url(#d)"/><rect width="17.63" height="2.07" x="15.4" y="8.75" rx=".9" ry=".76" fill="#fff" opacity=".2"/><g fill="#fff" opacity=".41"><path d="M14.2 16.73h19.42c.56 0 1.02.3 1.02.68v.27c0 .38-.46.68-1.02.68H14.2c-.57 0-1.03-.3-1.03-.68v-.27c0-.38.46-.68 1.03-.68zm0 0M14.2 20.68h19.42c.56 0 1.02.3 1.02.68v.28c0 .37-.46.67-1.02.67H14.2c-.57 0-1.03-.3-1.03-.67v-.28c0-.37.46-.68 1.03-.68zm0 0M14.2 24.56h19.42c.56 0 1.02.3 1.02.68v.28c0 .37-.46.67-1.02.67H14.2c-.57 0-1.03-.3-1.03-.67v-.28c0-.37.46-.68 1.03-.68zm0 0"/></g><g fill="#fff" opacity=".41"><path d="M14.2 28.42h19.42c.56 0 1.02.3 1.02.67v.28c0 .37-.46.68-1.02.68H14.2c-.57 0-1.03-.3-1.03-.68v-.28c0-.37.46-.67 1.03-.67zm0 0M14.2 32.37h19.42c.56 0 1.02.3 1.02.68v.27c0 .38-.46.68-1.02.68H14.2c-.57 0-1.03-.3-1.03-.68v-.27c0-.38.46-.68 1.03-.68zm0 0M14.2 36.25h19.42c.56 0 1.02.3 1.02.67v.28c0 .37-.46.68-1.02.68H14.2c-.57 0-1.03-.3-1.03-.68v-.28c0-.37.46-.67 1.03-.67zm0 0"/></g></svg>