<svg xmlns="http://www.w3.org/2000/svg" xmlns:xlink="http://www.w3.org/1999/xlink" width="64" height="64" viewBox="0 0 16.93 16.93"><defs><linearGradient id="e"><stop offset="0" stop-color="#2b0000"/><stop offset="1" stop-color="red"/></linearGradient><linearGradient id="d"><stop offset="0" stop-color="#ff2a2a"/><stop offset="1" stop-color="red"/></linearGradient><linearGradient id="c"><stop offset="0" stop-color="#2b0000"/><stop offset="1" stop-color="red"/></linearGradient><linearGradient id="b"><stop offset="0" stop-color="#500"/><stop offset="1" stop-color="#b63728"/></linearGradient><linearGradient id="a"><stop offset="0" stop-color="#333"/><stop offset="1"/></linearGradient><radialGradient xlink:href="#a" id="f" cx="3.54" cy="3.82" fx="3.54" fy="3.82" r="8.2" gradientTransform="matrix(1.85592 .45662 -.37626 1.5293 -1.6 -2.48)" gradientUnits="userSpaceOnUse"/><linearGradient xlink:href="#c" id="h" x1="1" y1="10.69" x2="1.18" y2="55.3" gradientUnits="userSpaceOnUse"/><linearGradient xlink:href="#d" id="i" x1=".26" y1="10.43" x2=".25" y2="2.26" gradientUnits="userSpaceOnUse"/><linearGradient xlink:href="#e" id="g" x1="2.43" y1="8.04" x2="2.39" y2="14.48" gradientUnits="userSpaceOnUse"/></defs><path d="M1.65 2.28v.01a1.23 1.23 0 0 0-.14 0A1.23 1.23 0 0 0 .28 3.56v10.01a1 1 0 0 0 1.01 1h14.34c.57 0 1.05-.44 1.05-1V3.55v-.01a1.23 1.23 0 0 0-1.3-1.25z" fill="url(#f)"/><path d="M14.5 14.48L8.46 9.85l-6.08 4.63" fill="none" stroke="url(#g)" stroke-width=".41" stroke-linejoin="round"/><path d="M59.05 11.06c-2.16 0-5.35 2.14-5.35 4.26v39.84h5.35a3.9 3.9 0 0 0 3.95-3.8v-37.9c0-2.12-1.8-2.4-3.95-2.4zm-54.2.06c-1.88 0-3.42.3-3.77 1.8-.05.21-.08.45-.08.7v37.73c0 2.13 1.7 3.81 3.86 3.81h5.44V16.11c0-.26-.03-.5-.08-.7-.35-1.52-3.48-4.3-5.36-4.3z" transform="scale(.26458)" fill="url(#h)"/><path d="M1.5 2.3a1.23 1.23 0 0 0-.77 2.18l6.96 5.73a1.23 1.23 0 0 0 1.56 0l6.96-5.73a1.23 1.23 0 1 0-1.57-1.9l-6.17 5.1-6.18-5.1a1.23 1.23 0 0 0-.8-.29z" fill="url(#i)" fill-rule="evenodd"/></svg>