<svg xmlns="http://www.w3.org/2000/svg" width="64" height="64"><defs><radialGradient id="a" cx="12.01" cy="13.2" r="20" gradientTransform="matrix(0 2.61817 -3.2572 0 59.52 -16.15)" gradientUnits="userSpaceOnUse"><stop offset="0" stop-color="#4d4d4d"/><stop offset=".26" stop-color="#333"/><stop offset=".7"/><stop offset="1"/></radialGradient><linearGradient id="b" x1="24" x2="24" y1="44" y2="3.9" gradientTransform="matrix(1.34401 0 0 1.55834 -.26 -5.4)" gradientUnits="userSpaceOnUse"><stop offset="0"/><stop offset="1" stop-color="#333"/></linearGradient></defs><rect x="5.79" y="1.61" width="52.42" height="60.78" rx="2.13" ry="2.47" fill="url(#a)" stroke="url(#b)" stroke-width=".51" stroke-linecap="round" stroke-linejoin="round"/><path style="marker:none" d="M11.88 9v46H39.9l12.22-12.22V9H11.87zm5.2 1.4h33.43v30.86H38.17V53.6H17.05c.01-.07.04-.13.04-.2v-43zm3.9 6v1.56h26.2v-1.55h-26.2zm0 5.53v1.55h26.2v-1.55h-26.2zm0 5.52V29h26.2v-1.55h-26.2zm0 5.52v1.55h26.2v-1.55h-26.2z" color="#000" overflow="visible" fill="#87decd"/></svg>