<?xml version="1.0" encoding="UTF-8" standalone="no"?><!--Created with Inkscape (http://www.inkscape.org/)--><svg xmlns:dc="http://purl.org/dc/elements/1.1/" xmlns:cc="http://creativecommons.org/ns#" xmlns:rdf="http://www.w3.org/1999/02/22-rdf-syntax-ns#" xmlns="http://www.w3.org/2000/svg" xmlns:xlink="http://www.w3.org/1999/xlink" width="64" height="64" version="1" viewBox="0 0 60 60"><defs><linearGradient id="x"><stop offset="0" stop-color="#540"/><stop offset="1" stop-color="#540" stop-opacity="0"/></linearGradient><linearGradient id="w"><stop offset="0" stop-color="#540"/><stop offset="1" stop-color="#540" stop-opacity="0"/></linearGradient><linearGradient id="y"><stop offset="0" stop-color="#fd5"/><stop offset="1" stop-color="#a80"/></linearGradient><linearGradient id="v"><stop offset="0" stop-color="#ffe680"/><stop offset="1" stop-color="#a80"/></linearGradient><linearGradient id="z"><stop offset="0" stop-color="#e6e6e6"/><stop offset="1" stop-color="#e6e6e6" stop-opacity="0"/></linearGradient><linearGradient id="C"><stop offset="0"/><stop offset="1" stop-opacity="0"/></linearGradient><linearGradient id="A"><stop offset="0" stop-color="#fd5"/><stop offset="1" stop-color="#a80"/></linearGradient><linearGradient id="u"><stop offset="0" stop-color="#fff"/><stop offset="1" stop-color="#fff" stop-opacity="0"/></linearGradient><linearGradient id="D"><stop offset="0"/><stop offset=".09"/><stop offset=".5" stop-color="#666"/><stop offset=".92"/><stop offset="1"/></linearGradient><linearGradient id="t"><stop offset="0" stop-color="#fff"/><stop offset="1" stop-color="#fff" stop-opacity="0"/></linearGradient><linearGradient id="r"><stop offset="0" stop-color="#fff823" stop-opacity=".84"/><stop offset="1" stop-color="#ffff02" stop-opacity="0"/></linearGradient><linearGradient id="q"><stop offset="0" stop-color="#3a3a3a"/><stop offset="1" stop-color="#3a3a3a" stop-opacity="0"/></linearGradient><linearGradient id="p"><stop offset="0" stop-color="#fff"/><stop offset="1" stop-color="#fff" stop-opacity="0"/></linearGradient><linearGradient id="m"><stop offset="0" stop-color="#fffaa8"/><stop offset="1" stop-color="#fff" stop-opacity="0"/></linearGradient><linearGradient id="l"><stop offset="0" stop-color="#fff727" stop-opacity=".73"/><stop offset="1" stop-color="#ffb266" stop-opacity="0"/></linearGradient><linearGradient id="o"><stop offset="0"/><stop offset="1" stop-opacity="0"/></linearGradient><linearGradient id="k"><stop offset="0" stop-color="#3a3a3a" stop-opacity=".47"/><stop offset="1" stop-color="#3a3a3a" stop-opacity="0"/></linearGradient><linearGradient id="n"><stop offset="0" stop-color="#3a3a3a"/><stop offset="1" stop-color="#3a3a3a" stop-opacity="0"/></linearGradient><linearGradient id="b"><stop offset="0"/><stop offset="1" stop-opacity="0"/></linearGradient><linearGradient id="g"><stop offset="0" stop-color="#0060c8"/><stop offset="1" stop-color="#003772" stop-opacity="0"/></linearGradient><linearGradient id="i"><stop offset="0" stop-color="#fff"/><stop offset="1" stop-color="#fff" stop-opacity="0"/></linearGradient><linearGradient id="f"><stop offset="0" stop-color="#002145"/><stop offset="1" stop-color="#001d3d" stop-opacity="0"/></linearGradient><linearGradient id="c"><stop offset="0" stop-color="#4da3ff"/><stop offset="1" stop-color="#004895"/></linearGradient><linearGradient id="d"><stop offset="0" stop-color="#d7ebff"/><stop offset="1" stop-color="#b9dbff" stop-opacity="0"/></linearGradient><linearGradient id="e"><stop offset="0" stop-color="#003d7f"/><stop offset=".81" stop-color="#004da0"/><stop offset="1" stop-color="#00438a" stop-opacity="0"/></linearGradient><linearGradient id="a"><stop offset="0" stop-color="#a5a5a5"/><stop offset=".08" stop-color="#dfe1e1"/><stop offset=".5" stop-color="#e2dcdc"/><stop offset=".78" stop-color="#fff"/><stop offset=".9" stop-color="#dfd9df"/><stop offset="1" stop-color="#d5d5d5"/></linearGradient><linearGradient id="h"><stop offset="0"/><stop offset="1" stop-opacity="0"/></linearGradient><linearGradient id="j"><stop offset="0" stop-color="#9a7600"/><stop offset=".09" stop-color="#e3ad00"/><stop offset=".5" stop-color="#ffcd2c"/><stop offset=".92" stop-color="#e3ad00"/><stop offset="1" stop-color="#b98d00"/></linearGradient><linearGradient xlink:href="#n" id="I" gradientUnits="userSpaceOnUse" gradientTransform="matrix(.69032 0 0 .77994 34.75 -1.38)" x1="79.83" y1="98.21" x2="114.62" y2="65.5"/><filter x="-.15" width="1.3" y="-.05" height="1.1" id="s"><feGaussianBlur stdDeviation=".57"/></filter><radialGradient xlink:href="#t" id="E" cx="105.6" cy="61.78" fx="106.33" fy="51.09" r="19.97" gradientTransform="matrix(.81247 -.583 1.3642 1.90113 -56.96 15.72)" gradientUnits="userSpaceOnUse"/><filter id="F"><feGaussianBlur stdDeviation=".27"/></filter><linearGradient xlink:href="#u" id="V" x1="173.97" y1="100.29" x2="57.13" y2="27.46" gradientUnits="userSpaceOnUse" gradientTransform="matrix(.46964 0 0 .4717 -24.98 77.8)"/><radialGradient xlink:href="#u" id="U" gradientUnits="userSpaceOnUse" gradientTransform="matrix(-.0548 .01286 .05909 .25177 14.37 73.18)" cx="26.69" cy="54.47" fx="10.49" fy="51.84" r="35.41"/><radialGradient xlink:href="#v" id="T" gradientUnits="userSpaceOnUse" gradientTransform="matrix(-.09661 .01172 .00622 .05123 18.27 71.05)" cx="60.11" cy="72.83" fx="60.11" fy="72.83" r="49.68"/><linearGradient xlink:href="#w" id="S" gradientUnits="userSpaceOnUse" gradientTransform="matrix(-.12295 -.0524 -.0524 .12295 22.8 80.71)" x1="61" y1="-8" x2="52.76" y2="22.74"/><linearGradient xlink:href="#x" id="R" gradientUnits="userSpaceOnUse" gradientTransform="matrix(-.20095 .02667 .02667 .20095 24.03 71.64)" x1="79.52" y1="38.19" x2="59.35" y2="38.83"/><linearGradient xlink:href="#y" id="Q" gradientUnits="userSpaceOnUse" gradientTransform="matrix(-.13268 .0161 .0161 .13268 21.1 76.27)" spreadMethod="reflect" x1="49.32" y1="32.59" x2="94.13" y2="37.34"/><radialGradient xlink:href="#z" id="P" gradientUnits="userSpaceOnUse" gradientTransform="matrix(-.08378 .03922 .03964 .08469 15.73 78.26)" cx="46.32" cy="97.56" fx="20.89" fy="91.12" r="47.04"/><radialGradient xlink:href="#A" id="O" gradientUnits="userSpaceOnUse" gradientTransform="matrix(-.13268 .0161 .00862 .07106 21.65 80.76)" cx="60.11" cy="72.83" fx="60.11" fy="72.83" r="49.68"/><clipPath id="N"><path d="M59.44-44.03l-4.84.78 2.17 17.16c.09 2.88 1.98 5.06 3.42 7.4.99-3.22 1.83-5.01 1.42-8.27z" fill="none" stroke="#000" stroke-width=".46" stroke-linecap="round" stroke-linejoin="round" stroke-dashoffset="4" filter="url(#B)"/></clipPath><filter x="-.15" width="1.3" y="-.05" height="1.1" id="B"><feGaussianBlur stdDeviation=".57"/></filter><linearGradient xlink:href="#a" id="M" gradientUnits="userSpaceOnUse" gradientTransform="matrix(-.08588 .0139 .01094 .08619 8.34 85.25)" x1="-48.32" y1="102.86" x2="-81.93" y2="102.85"/><radialGradient xlink:href="#C" id="K" gradientUnits="userSpaceOnUse" gradientTransform="matrix(1 0 0 .73684 0 19.36)" cx="92.45" cy="73.55" fx="91.04" fy="73.81" r="3.36"/><filter id="L"><feGaussianBlur stdDeviation=".21"/></filter><filter x="-.13" width="1.26" y="-.12" height="1.24" id="J"><feGaussianBlur stdDeviation="1.81"/></filter><radialGradient xlink:href="#u" id="H" gradientUnits="userSpaceOnUse" gradientTransform="matrix(-.61112 -.044 -.0067 .11985 70.78 86.94)" cx="68.97" cy="74.72" fx="68.97" fy="74.72" r="47.78"/><linearGradient xlink:href="#D" id="G" gradientUnits="userSpaceOnUse" gradientTransform="matrix(-.46326 0 0 .43601 59.92 71.44)" x1="32.53" y1="9.35" x2="104.6" y2="130.29"/></defs><metadata><rdf:RDF><cc:Work><dc:format>image/svg+xml</dc:format><dc:type rdf:resource="http://purl.org/dc/dcmitype/StillImage"/><cc:license rdf:resource="http://creativecommons.org/licenses/GPL/2.0/"/><dc:contributor><cc:Agent><dc:title>Oxygen team</dc:title></cc:Agent></dc:contributor><dc:title/></cc:Work><cc:License rdf:about="http://creativecommons.org/licenses/LGPL/2.1/"><cc:permits rdf:resource="http://web.resource.org/cc/Reproduction"/><cc:permits rdf:resource="http://web.resource.org/cc/Distribution"/><cc:requires rdf:resource="http://web.resource.org/cc/Notice"/><cc:permits rdf:resource="http://web.resource.org/cc/DerivativeWorks"/><cc:requires rdf:resource="http://web.resource.org/cc/ShareAlike"/><cc:requires rdf:resource="http://web.resource.org/cc/SourceCode"/></cc:License></rdf:RDF></metadata><path d="M-68.6-151.35v-2.8zM175.48-180.14v-2.8zM103-404.04v-2.8zM150.8-519.37v-2.8z" fill="#fff" fill-opacity=".76"/><path d="M97.12 46.69a468.95 468.95 0 0 0 39.34 55.9" opacity=".65" fill="none" stroke="url(#E)" stroke-linecap="round" stroke-linejoin="round" filter="url(#F)" transform="translate(0 -68)"/><g transform="translate(0 -68)"><path d="M40.91 86.35c-9.63 7.18-27.66 5.63-40.55 5.4l10.58 26.28 2.67 4.94c1.59.16 2.84.19 4.56.07 14.55-1.02 31.32-1.97 41.55-9.97-7.33-8.58-13.12-17.64-18.8-26.72z" fill="url(#G)" fill-rule="evenodd"/><path d="M40.99 86.07l3.72 5.88c-10.38 6.83-28.34 5.63-41.94 5.3L.44 91.47c12.89.23 30.91 1.78 40.55-5.4z" opacity=".47" fill="url(#H)" fill-rule="evenodd"/><path d="M120.84 41.7l-10.61 4.04-4.01.41-2.2 1.76 2.17 8.16L96 64.66l-4.92 9.2.28.42 7.76-2.94 11.49-7.8 6.3 4.5 2.07-3.12 1.38-4.29 6.2-10.53-1.18-2.68.67-.51-1.62-1.61-.97-2.22-.62.61z" opacity=".54" fill="url(#I)" fill-rule="evenodd" filter="url(#J)" transform="matrix(-.50468 -.06447 -.04367 .43146 65.78 73.6)" stroke-width="2.13"/><ellipse ry="2.47" rx="3.36" cy="73.55" cx="92.45" transform="matrix(-.4463 -.14685 -.1462 .44826 68.04 79.97)" opacity=".39" fill="url(#K)" filter="url(#L)"/><path d="M15.9 88.12l-2.28.37 1.02 8.06c.04 1.35.93 2.37 1.6 3.48.47-1.52.86-2.36.67-3.9z" fill="url(#M)"/><path transform="translate(-12.03 108.79) scale(.46964)" clip-path="url(#N)" d="M59.44-44.03l-4.84.78 2.17 17.16c.09 2.88 1.98 5.06 3.42 7.4.99-3.22 1.83-5.01 1.42-8.27z" fill="none" stroke="#000" stroke-width=".97" stroke-linecap="round" stroke-linejoin="round" stroke-dashoffset="4" filter="url(#B)"/><path d="M13.88 83.37c3.54-.43 6.62.87 7 2.9.03.1.06.18.07.27.2 1.7-2.58 3.45-6.22 3.9-3.64.43-6.76-.6-6.97-2.3v-.28c-.1-2.07 2.58-4.06 6.12-4.49z" fill="url(#O)"/><path d="M13.9 83.51c3.34-.4 6.27.82 6.63 2.76.03.08.05.16.06.25.2 1.6-2.44 3.26-5.89 3.68-3.44.42-6.4-.56-6.6-2.17a1.4 1.4 0 0 1 0-.27c-.1-1.96 2.45-3.84 5.8-4.25z" opacity=".79" fill="url(#P)"/><path d="M9.8 76.3c.64.49 1.89.73 3.29.56 1.39-.17 2.55-.7 3.05-1.32l2.12 9.87v.03h-.03c-.56.83-2.06 1.55-3.89 1.77-1.82.22-3.45-.12-4.2-.78h-.04z" fill="url(#Q)"/><path d="M9.8 76.3c.64.49 1.89.73 3.29.56 1.39-.17 2.55-.7 3.05-1.32l2.12 9.87v.03h-.03c-.56.83-2.06 1.55-3.89 1.77-1.82.22-3.45-.12-4.2-.78h-.04z" opacity=".49" fill="url(#R)"/><path d="M9.8 76.3c.64.49 1.89.73 3.29.56 1.39-.17 2.55-.7 3.05-1.32l2.12 9.87v.03h-.03c-.56.83-2.06 1.55-3.89 1.77-1.82.22-3.45-.12-4.2-.78h-.04z" fill="url(#S)"/><path d="M12.61 72.94c2.58-.31 4.82.62 5.1 2.1l.05.18c.14 1.23-1.88 2.5-4.53 2.81-2.65.32-4.93-.41-5.07-1.64v-.2c-.08-1.5 1.88-2.94 4.45-3.25z" fill="url(#T)"/><path d="M9.8 76.3c.64.49 1.89.73 3.29.56 1.39-.17 2.55-.7 3.05-1.32l2.12 9.87v.03h-.03c-.56.83-2.06 1.55-3.89 1.77-1.82.22-3.45-.12-4.2-.78h-.04z" opacity=".74" fill="url(#U)"/><path d="M.35 91.75l10.69 26.52 2.57 4.68c1.82.26 3.38.17 5.38.03 14.36-1 30.69-2.05 40.73-9.9l-.28-.34c-10.06 7.72-26.14 9.05-40.41 10.04-2 .14-3.58.23-5.4-.03l-2.7-4.96L.47 91.75h-.1z" opacity=".42" fill="url(#V)" fill-rule="evenodd"/></g></svg>