<?xml version="1.0" encoding="UTF-8" standalone="no"?><svg xmlns:dc="http://purl.org/dc/elements/1.1/" xmlns:cc="http://creativecommons.org/ns#" xmlns:rdf="http://www.w3.org/1999/02/22-rdf-syntax-ns#" xmlns="http://www.w3.org/2000/svg" xmlns:xlink="http://www.w3.org/1999/xlink" width="64" height="64"><defs><linearGradient id="d"><stop offset="0" stop-color="#4d4d4d"/><stop offset="1"/></linearGradient><linearGradient id="a"><stop offset="0" stop-color="#fff"/><stop offset=".51" stop-color="#fff" stop-opacity=".24"/><stop offset=".83" stop-color="#fff" stop-opacity=".16"/><stop offset="1" stop-color="#fff" stop-opacity=".39"/></linearGradient><linearGradient id="b"><stop offset="0" stop-color="#333"/><stop offset="1"/></linearGradient><linearGradient id="c"><stop offset="0"/><stop offset="1" stop-opacity="0"/></linearGradient><linearGradient x1="71.2" y1="6.24" x2="71.2" y2="44.34" id="f" xlink:href="#a" gradientUnits="userSpaceOnUse" gradientTransform="matrix(1.36256 0 0 1.36256 -65.74 -2.55)"/><radialGradient xlink:href="#d" id="e" cx="15.77" cy="11.09" fx="15.77" fy="11.09" r="20.5" gradientUnits="userSpaceOnUse" gradientTransform="matrix(1.29268 0 0 1.29268 .98 .98)"/></defs><metadata><rdf:RDF><cc:Work><dc:format>image/svg+xml</dc:format><dc:type rdf:resource="http://purl.org/dc/dcmitype/StillImage"/><dc:title/></cc:Work></rdf:RDF></metadata><path d="M32 5.5A26.52 26.52 0 0 0 5.5 32 26.52 26.52 0 0 0 32 58.5 26.52 26.52 0 0 0 58.5 32 26.52 26.52 0 0 0 32 5.5z" style="marker:none" color="#000" overflow="visible" opacity=".99" fill="url(#e)"/><path d="M57.2 32a25.2 25.2 0 1 1-50.4 0 25.2 25.2 0 0 1 50.4 0z" style="marker:none" color="#000" overflow="visible" opacity=".5" fill="none" stroke="url(#f)" stroke-linecap="round" stroke-linejoin="round"/><path d="M32 12.5a18.97 18.97 0 1 0 0 37.95 18.97 18.97 0 0 0 0-37.95zm0 4.22a14.76 14.76 0 1 1 0 29.51 14.76 14.76 0 0 1 0-29.51zm0 10.54a4.22 4.22 0 0 0-4.22 4.21A4.22 4.22 0 0 0 32 35.7a4.22 4.22 0 0 0 4.22-4.22A4.22 4.22 0 0 0 32 27.26z" fill="#fff"/><path d="M32 13.87a18.97 18.97 0 1 0 0 37.95 18.97 18.97 0 0 0 0-37.95zm0 4.22a14.76 14.76 0 1 1 0 29.51 14.76 14.76 0 0 1 0-29.51zm0 10.54a4.22 4.22 0 0 0-4.22 4.22A4.22 4.22 0 0 0 32 37.06a4.22 4.22 0 0 0 4.22-4.21A4.22 4.22 0 0 0 32 28.63z" opacity=".3" fill="#fff"/><path d="M32 12.62a20.47 20.47 0 1 0 0 40.95 20.47 20.47 0 0 0 0-40.95zm0 4.55a15.92 15.92 0 1 1 0 31.85 15.92 15.92 0 0 1 0-31.85zm0 11.38a4.55 4.55 0 0 0-4.55 4.55A4.55 4.55 0 0 0 32 37.65a4.55 4.55 0 0 0 4.55-4.55A4.55 4.55 0 0 0 32 28.55z" opacity=".15" fill="#fff"/></svg>