<?xml version="1.0" encoding="UTF-8" standalone="no"?><svg xmlns:dc="http://purl.org/dc/elements/1.1/" xmlns:cc="http://creativecommons.org/ns#" xmlns:rdf="http://www.w3.org/1999/02/22-rdf-syntax-ns#" xmlns="http://www.w3.org/2000/svg" xmlns:xlink="http://www.w3.org/1999/xlink" width="64" height="64" viewBox="0 0 16.93 16.93"><metadata><rdf:RDF><cc:Work><dc:format>image/svg+xml</dc:format><dc:type rdf:resource="http://purl.org/dc/dcmitype/StillImage"/><dc:title/></cc:Work></rdf:RDF></metadata><defs><linearGradient x1="21.13" y1="14.63" x2="29" y2="28" id="f" xlink:href="#a" gradientUnits="userSpaceOnUse" gradientTransform="translate(.25 283.78) scale(.25321)"/><linearGradient id="a"><stop offset="0" stop-color="#fff" stop-opacity=".33"/><stop offset="1" stop-color="#fff" stop-opacity=".6"/></linearGradient><linearGradient id="b"><stop offset="0"/><stop offset="1" stop-opacity="0"/></linearGradient><linearGradient xlink:href="#c" id="d" x1="3.38" y1="8.18" x2="9.44" y2="2.12" gradientUnits="userSpaceOnUse"/><linearGradient id="c"><stop offset="0" stop-color="#333"/><stop offset=".49"/><stop offset="1" stop-color="#1a1a1a"/></linearGradient><linearGradient xlink:href="#a" id="e" gradientUnits="userSpaceOnUse" gradientTransform="translate(.25 283.78) scale(.25321)" x1="21.13" y1="14.63" x2="29" y2="28"/></defs><g stroke-width=".57"><path d="M6.33.85A4.2 4.2 0 0 0 2.1 5.07a4.2 4.2 0 0 0 4.23 4.22 4.2 4.2 0 0 0 4.22-4.22A4.2 4.2 0 0 0 6.33.85zm0 5.23c-.56 0-1.02-.46-1.02-1.01 0-.56.46-1.02 1.02-1.02a1.02 1.02 0 0 1 0 2.03z" fill="url(#d)" transform="translate(-2.61 -.41) scale(1.75147)"/><path transform="translate(-2.61 -498.36) scale(1.75147)" d="M7.45 285.45l-.72 2.84c.22.06.4.2.53.4l2.51-1.54a3.82 3.82 0 0 0-2.32-1.7z" fill="url(#e)"/><path transform="translate(-2.61 -498.36) scale(1.75147)" d="M4.9 293.17l.96-2.77a.9.9 0 0 1-.5-.44l-2.63 1.32a3.82 3.82 0 0 0 2.17 1.89z" fill="url(#f)"/><path d="M8.35 5.34a3.04 3.13 0 1 0 0 6.25 3.04 3.13 0 0 0 0-6.25zm0 4.82c-.92 0-1.66-.76-1.66-1.7 0-.92.74-1.7 1.66-1.7.89 0 1.65.76 1.65 1.7 0 .92-.75 1.7-1.65 1.7z" fill="#1a1a1a"/></g></svg>