<svg xmlns="http://www.w3.org/2000/svg" xmlns:xlink="http://www.w3.org/1999/xlink" width="64" height="64"><defs><radialGradient xlink:href="#a" id="j" cx="24" cy="22.22" fx="24" fy="22.22" r="26.26" gradientTransform="matrix(1.63618 .49298 -.45606 1.51365 -7.2 -23.52)" gradientUnits="userSpaceOnUse"/><linearGradient id="a"><stop offset="0" stop-color="#ececec"/><stop offset="1" stop-color="#666"/></linearGradient><linearGradient gradientTransform="matrix(1.11426 0 0 1.11426 -4.8 -2.81)" xlink:href="#b" id="i" x1="47.37" y1="43.6" x2="47.19" y2="54.91" gradientUnits="userSpaceOnUse"/><linearGradient id="b"><stop offset="0" stop-color="red"/><stop offset="1" stop-color="#ff8080"/></linearGradient><linearGradient gradientTransform="matrix(1.11426 0 0 1.11426 -4.8 -2.81)" xlink:href="#c" id="h" x1="48.59" y1="9.54" x2="48.79" y2="19.4" gradientUnits="userSpaceOnUse"/><linearGradient id="c"><stop offset="0" stop-color="#999"/><stop offset="1" stop-color="#fff"/></linearGradient><linearGradient gradientTransform="matrix(1.11426 0 0 1.11426 -4.8 -2.81)" xlink:href="#c" id="g" x1="12.08" y1="8.4" x2="12.28" y2="19.34" gradientUnits="userSpaceOnUse"/><linearGradient gradientTransform="matrix(1.11426 0 0 1.11426 -4.8 -2.81)" xlink:href="#c" id="f" x1="30.68" y1="25.41" x2="30.56" y2="38.02" gradientUnits="userSpaceOnUse"/><radialGradient xlink:href="#d" id="e" cx="20.18" cy="17.56" fx="20.18" fy="17.56" r="25.49" gradientUnits="userSpaceOnUse" gradientTransform="matrix(1.5301 .40681 -.5434 2.04381 -3.64 -27.34)"/><linearGradient id="d"><stop offset="0" stop-color="#333"/><stop offset="1"/></linearGradient></defs><path d="M3.86 3.86v56.28h56.28V3.86z" fill="url(#e)"/><path style="line-height:1.25" d="M33.1 26.67c-1.16 0-2.1.36-2.8 1.08a3.9 3.9 0 0 0-1.05 2.85c0 1.21.34 2.17 1 2.87.68.7 1.6 1.04 2.75 1.04a3.04 3.04 0 0 0 2.66-1.38 5.6 5.6 0 0 1-.94 3.17c-.54.69-1.32 1.03-2.35 1.03-.39 0-.78-.05-1.18-.14-.4-.1-.8-.24-1.2-.43v1.42c.44.16.85.27 1.26.35.4.08.8.12 1.19.12 1.45 0 2.61-.54 3.47-1.63a6.8 6.8 0 0 0 1.3-4.35c0-1.95-.35-3.44-1.06-4.46a3.46 3.46 0 0 0-3.05-1.54zm0 1.24c.7 0 1.26.24 1.66.73.42.48.62 1.13.62 1.96 0 .83-.2 1.5-.62 1.97-.4.48-.96.72-1.66.72s-1.25-.24-1.67-.72a2.95 2.95 0 0 1-.6-1.97c0-.83.2-1.48.6-1.96.42-.49.97-.73 1.67-.73z" font-weight="400" font-size="40" font-family="sans-serif" letter-spacing="0" word-spacing="0" fill="url(#f)"/><path style="line-height:1.25" d="M12.75 6.92c-1.14 0-2.04.27-2.7.8a2.68 2.68 0 0 0-.99 2.2c0 .66.2 1.21.56 1.67.38.46.9.77 1.57.94-.75.17-1.34.52-1.76 1.03a2.84 2.84 0 0 0-.64 1.87c0 1.11.35 1.97 1.03 2.57.68.6 1.66.9 2.93.9 1.27 0 2.25-.3 2.93-.9.69-.6 1.03-1.46 1.03-2.57a2.84 2.84 0 0 0-2.39-2.9 2.8 2.8 0 0 0 1.55-.94c.38-.46.57-1.01.57-1.67 0-.93-.33-1.65-.98-2.2a4.15 4.15 0 0 0-2.7-.8zm0 1.24c.67 0 1.2.17 1.57.5.38.34.57.8.57 1.4 0 .6-.19 1.07-.57 1.4-.38.34-.9.5-1.57.5s-1.2-.16-1.57-.5c-.38-.33-.56-.8-.56-1.4 0-.6.18-1.06.56-1.4.37-.33.9-.5 1.57-.5zm0 5.03c.75 0 1.33.2 1.76.6.42.4.64.94.64 1.64 0 .69-.22 1.23-.64 1.64-.43.4-1.02.59-1.76.59s-1.33-.2-1.75-.6c-.43-.4-.64-.94-.64-1.63 0-.7.21-1.25.64-1.64.42-.4 1-.6 1.75-.6z" font-weight="400" font-size="40" font-family="sans-serif" letter-spacing="0" word-spacing="0" fill="url(#g)"/><path style="line-height:1.25" d="M52.1 7.27l-2.76.55v1.42l2.78-.55v8.8h-2.55v1.32h6.64v-1.32h-2.55V7.27z" font-weight="400" font-size="40" font-family="sans-serif" letter-spacing="0" word-spacing="0" fill="url(#h)"/><path style="line-height:1.25" d="M52.66 45.97l-4.8 7.31v1.5h5.2v2.73h1.56V54.8h1.64v-1.3h-1.64v-7.52zm.4 1.36v6.16h-3.94z" font-weight="400" font-size="40" font-family="sans-serif" letter-spacing="0" word-spacing="0" fill="url(#i)"/><path d="M2.74 2.74v58.52h58.52V2.74zm1.12 1.12h18.09v18.09H3.85zm20.1 0h18.1v18.09h-18.1zm20.1 0h16.08v18.09H44.06zm-40.2 20.1h18.09v18.1H3.85zm20.1 0h18.1v18.1h-18.1zm20.1 0h16.08v18.1H44.06zm-40.2 20.1h18.09v16.08H3.85zm20.1 0h18.1v16.08h-18.1zm20.1 0h16.08v16.08H44.06z" fill="url(#j)"/></svg>