<svg xmlns="http://www.w3.org/2000/svg" xmlns:xlink="http://www.w3.org/1999/xlink" version="1" width="64" height="64" viewBox="0 0 48 48"><defs><radialGradient xlink:href="#a" id="c" cx="34.79" cy="27.15" fx="34.79" fy="27.15" r="9.19" gradientTransform="matrix(1.41013 0 0 1.82771 -23.05 -29.83)" gradientUnits="userSpaceOnUse"/><linearGradient id="a"><stop offset="0" stop-color="#333"/><stop offset="1"/></linearGradient><radialGradient xlink:href="#a" id="b" cx="34.79" cy="27.15" fx="34.79" fy="27.15" r="9.19" gradientTransform="matrix(1.41013 0 0 1.82771 -38.36 -41.9)" gradientUnits="userSpaceOnUse"/></defs><path d="M27.4 1.41c.74.34 1.31.92 1.63 1.63l.28.63-.02 14.44-.03 14.43-.32.56a2.93 2.93 0 0 1-1.54 1.4l-.59.27H16.45c-8.33 0-10.45-.03-10.85-.14a3.18 3.18 0 0 1-1.87-1.6l-.35-.67V18.04c0-16-.05-14.85.77-15.79.23-.26.57-.56.76-.66.86-.44.72-.44 11.6-.42 10.39.02 10.4.02 10.9.24z" fill="url(#b)" stroke="#333" stroke-width=".74"/><g transform="matrix(.33472 0 0 .33472 -58.56 -177.51)" opacity=".18" fill="#ff2a2a"><path d="M217.77 549.61c-2.48-.46-.38 1.48.06 2.53 2.28 3.58 1.51 7.97 1.82 12 .06 1.66.1 3.32.04 4.98-5.07.94-10.13 1.97-15.24 2.7-1.24-.63-1.3-3-3.02-2.58-1.47.6-2.95 1.17-4.43 1.75 2.4 2.09 3.5 5.06 4.73 7.9 2.12 4.2 4 8.53 5.26 13.06 1.07 3.32 6.11 1.57 3.88-1.68-.72-.9 1.73-.4 2.33-.73 1.94-.26 3.9-.4 5.85-.58a295.8 295.8 0 0 1-.57 14.9c.07 4.5-.13 9.02.1 13.5.1 1.1.16 2.34 1.11 3.05 2.47-.99 2.77-4.06 3.14-6.4.58-3.49.28-7.05.47-10.57l.31-15.05c6-.65 12.04-1.07 18.03-1.87 1.64-.5 2.25-2.99.19-3.4-2.01-.08.33-1.79.66-2.75 1.49-2.08 2.77-4.33 4.37-6.3 1.29-1.14 3.62-2.17 2.3-4.26-1.24-1.85-3.38-2.82-5.03-4.28-2.38-2.65-5.34-.49-7.67.87-3.93 1.13-8.01 1.45-12.06 1.9.08-4.26.53-8.5.66-12.76.48-1.26 2.39-3.09.12-3.91a12.3 12.3 0 0 0-7.41-2.02zm21.62 21.17c.48 2.55-.37 5.39-1 7.93-.77 1.9-.81 4.93-3.47 4.64-3.72.69-7.5.97-11.24 1.44l.72-12.65c5-.5 9.96-1.42 15-1.36zm-19.95 2.12l-.39 12.36-9.76 1.15-3.74-11.6 13.9-1.91z"/><use xlink:href="#facesize" height="1060" width="774" transform="translate(172.25 424.5)"/></g><g transform="matrix(.33472 0 0 .33472 -58.56 -178.37)" fill="red"><path d="M217.77 549.61c-2.48-.46-.38 1.48.06 2.53 2.28 3.58 1.51 7.97 1.82 12 .06 1.66.1 3.32.04 4.98-5.07.94-10.13 1.97-15.24 2.7-1.24-.63-1.3-3-3.02-2.58-1.47.6-2.95 1.17-4.43 1.75 2.4 2.09 3.5 5.06 4.73 7.9 2.12 4.2 4 8.53 5.26 13.06 1.07 3.32 6.11 1.57 3.88-1.68-.72-.9 1.73-.4 2.33-.73 1.94-.26 3.9-.4 5.85-.58a295.8 295.8 0 0 1-.57 14.9c.07 4.5-.13 9.02.1 13.5.1 1.1.16 2.34 1.11 3.05 2.47-.99 2.77-4.06 3.14-6.4.58-3.49.28-7.05.47-10.57l.31-15.05c6-.65 12.04-1.07 18.03-1.87 1.64-.5 2.25-2.99.19-3.4-2.01-.08.33-1.79.66-2.75 1.49-2.08 2.77-4.33 4.37-6.3 1.29-1.14 3.62-2.17 2.3-4.26-1.24-1.85-3.38-2.82-5.03-4.28-2.38-2.65-5.34-.49-7.67.87-3.93 1.13-8.01 1.45-12.06 1.9.08-4.26.53-8.5.66-12.76.48-1.26 2.39-3.09.12-3.91a12.3 12.3 0 0 0-7.41-2.02zm21.62 21.17c.48 2.55-.37 5.39-1 7.93-.77 1.9-.81 4.93-3.47 4.64-3.72.69-7.5.97-11.24 1.44l.72-12.65c5-.5 9.96-1.42 15-1.36zm-19.95 2.12l-.39 12.36-9.76 1.15-3.74-11.6 13.9-1.91z"/><use xlink:href="#facesize" height="1060" width="774" transform="translate(172.25 424.5)"/></g><path d="M42.72 13.48c.73.34 1.3.92 1.62 1.63l.28.63-.02 14.44-.03 14.43-.32.56a2.93 2.93 0 0 1-1.54 1.4l-.59.27H31.76c-8.33 0-10.45-.03-10.85-.14a3.18 3.18 0 0 1-1.87-1.6l-.35-.67V30.1c0-16-.05-14.85.77-15.79.23-.26.57-.56.76-.66.86-.44.73-.44 11.6-.42 10.39.02 10.4.02 10.9.24z" fill="url(#c)" stroke="#333" stroke-width=".74"/><path d="M35.24 20.22c-.08.01-.26.08-.4.16-.16.07-.74.78-1.31 1.53l-1.05 1.4-.36-.33c-.52-.45-.75-.42-.9.13-.06.26-.13.74-.14 1.1v.63l.38-.03c.44-.04.66.06 2.1.95a9.8 9.8 0 0 0 1.32.69c.17.03.55.3.85.58l.55.52-.58-.37c-.81-.54-1.59-.48-3.35.24-.7.3-.75.33-.72.62.03.17.05.65.06 1.07l.02.77-.59.6c-.31.32-.8.76-1.08.97-.76.55-.69.71.29.65.6-.04.95-.13 1.49-.4.38-.18.74-.44.8-.56.09-.14.1-.48.06-.96-.12-1.29.27-2.1 1.04-2.1.5 0 .66.28.5.9a3.9 3.9 0 0 0-.12.75c0 .29.54 1.33.8 1.55.23.18 1.44.07 1.88-.19.48-.28.85-.85.8-1.25l-.03-.32-1.03.03c-1.03.03-1.03.03-1.1-.23-.09-.38.02-.64.49-1.18l.4-.47.17.25c.1.14.17.38.17.53 0 .13.08.36.2.48.16.2.35.26 1.3.35 1.42.15 3.8.14 3.95-.02.3-.3-.36-.78-1.92-1.4-1.52-.6-2.06-.87-2.95-1.52l-.98-.72-.25-.17.42-.32c.22-.18.78-.53 1.23-.78.46-.24.85-.5.88-.6.05-.14-.4-1.1-.66-1.38-.23-.26-.72.07-1.87 1.27l-1.11 1.18-.61-.38c-.33-.21-.6-.44-.6-.48 0-.1 1.3-1.3 1.94-1.77.65-.48.66-.59.17-1.32-.23-.36-.49-.65-.55-.65zm-6.38.85c-.19 0-.7.18-1.14.4-.62.3-.95.4-1.5.43-.82.05-.88.1-.73.9.2.98.43 1.04 1.43.33.83-.57 1.24-.72 1.5-.53.24.18.17.6-.3 1.58l-.33.74-.96-.08a7.24 7.24 0 0 1-1.2-.17c-.15-.05-.36-.1-.48-.1-.2 0-.21.06-.17.53.03.28.16.69.29.9.23.37.25.38.93.38h.7l-.37.45a15.33 15.33 0 0 1-3.87 3.46c-.75.47-1.52 1.13-1.52 1.31 0 .48 4.06-.76 4.81-1.48.22-.2.29-.37.29-.7 0-.24.05-.5.1-.6.08-.1.1-.08.1.18 0 .17.07.41.16.53.15.2.16.2.45-.02.48-.35.96-.58 1.26-.58.21 0 .26.06.26.27 0 .41-.26.98-.55 1.15-.13.08-.55.21-.93.28-.77.16-.85.23-.85.7 0 .6-.33 1.58-.75 2.28-.49.8-.67 1.66-.38 1.76.32.12.7-.06 1.23-.6.52-.5 1.07-.74 1.44-.59.32.12.17 1.7-.27 2.85-.17.46-.29.6-.49.66-.36.1-1.04-.22-1.65-.78-.7-.61-.9-.57-.56.13.39.75.88 1.3 1.88 2.1.58.47 1.1.84 1.2.84.39 0 1.72-3.27 1.84-4.56.09-.76.31-1.4.54-1.55.17-.1.13-.54-.07-.7-.53-.47-.84-.54-1.9-.4a5.1 5.1 0 0 1-1.06.06c-.11-.1.35-1 .56-1.11.1-.07.5-.21.88-.34.98-.33 1.1-.48 1.33-1.57.18-.94.49-1.6.9-1.98.29-.27.28-.35-.11-.55-.42-.22-1.04-.15-2.6.27-.61.16-1.08.26-1.06.2l.78-1.04c.39-.52.97-1.43 1.3-2.03.56-1.03.9-1.47 1.51-1.98.16-.13.29-.29.29-.35 0-.37-1.54-1.28-2.16-1.28zm5.63 10.55c-.24 0-.49.06-.76.17-1.5.59-2 .76-2.27.76-.54 0-.61.12-.4.69.27.68.57.8 1.04.45.58-.43 1.47-.84 1.77-.8.41.04.41.3-.01 1.2l-.38.77-1.05-.3c-1.3-.39-1.66-.4-1.6-.08.02.15.34.45.96.87l.93.64-.45.47a9.15 9.15 0 0 1-2.72 1.56c-.24.05-.34.13-.32.24.06.29.51.45 1.26.44 1.26 0 1.45-.09 2.36-.97a6.1 6.1 0 0 1 1.03-.88c.16-.04.54.18 1.52.91a27.1 27.1 0 0 1 1.9 1.54c.34.32.66.58.71.58.05 0 .21-.09.34-.2.21-.16.26-.32.3-1.03.07-1.42.04-1.46-1.35-2.18-.67-.34-1.44-.7-1.7-.81-.27-.1-.5-.18-.51-.2-.12-.06.73-1.85 1.11-2.35.14-.2.24-.43.2-.51a2.5 2.5 0 0 0-.66-.54c-.48-.3-.86-.44-1.25-.44z" fill="#0fc"/><path d="M35.24 21c-.08 0-.26.07-.4.15-.16.08-.74.78-1.31 1.53l-1.05 1.4-.36-.32c-.52-.46-.75-.43-.9.12-.06.26-.13.75-.14 1.1v.64l.38-.04c.44-.04.66.07 2.1.95a9.8 9.8 0 0 0 1.32.69c.17.03.55.3.85.58l.55.53-.58-.38c-.81-.54-1.59-.47-3.35.25-.7.28-.75.33-.72.61.03.17.05.65.06 1.08l.02.76-.59.6c-.31.33-.8.76-1.08.97-.76.56-.69.72.29.65.6-.04.95-.12 1.49-.39.38-.2.74-.45.8-.56.09-.15.1-.5.06-.97-.12-1.29.27-2.1 1.04-2.1.5 0 .66.28.5.91a3.9 3.9 0 0 0-.12.74c0 .29.54 1.33.8 1.55.23.19 1.44.07 1.88-.19.48-.27.85-.85.8-1.25l-.03-.32-1.03.03c-1.03.03-1.03.03-1.1-.23-.09-.37.02-.64.49-1.18l.4-.47.17.26c.1.14.17.37.17.52 0 .14.08.36.2.49.16.2.35.25 1.3.35 1.42.15 3.8.14 3.95-.02.3-.31-.36-.8-1.92-1.4-1.52-.6-2.06-.88-2.95-1.53l-.98-.72-.25-.17.42-.32c.22-.18.78-.53 1.23-.77.46-.25.85-.51.88-.6.05-.15-.4-1.11-.66-1.39-.23-.26-.72.07-1.87 1.27L34.9 25.6l-.61-.38c-.33-.21-.6-.43-.6-.48 0-.1 1.3-1.3 1.94-1.77.65-.48.66-.59.17-1.32-.23-.36-.49-.65-.55-.65zm-6.38.84c-.19 0-.7.18-1.14.4-.62.3-.95.4-1.5.43-.82.06-.88.1-.73.9.2.98.43 1.05 1.43.33.83-.57 1.24-.72 1.5-.53.24.18.17.6-.3 1.59l-.33.73-.96-.07a7.24 7.24 0 0 1-1.2-.17c-.15-.06-.36-.1-.48-.1-.2 0-.21.05-.17.52.03.29.16.7.29.9.23.38.25.39.93.39h.7l-.37.44a15.33 15.33 0 0 1-3.87 3.47c-.75.46-1.52 1.12-1.52 1.3 0 .48 4.06-.76 4.81-1.47.22-.22.29-.38.29-.7 0-.25.05-.51.1-.6.08-.12.1-.08.1.17 0 .17.07.41.16.53.15.2.16.2.45-.02.48-.35.96-.57 1.26-.57.21 0 .26.05.26.26 0 .42-.26.98-.55 1.15-.13.08-.55.21-.93.29-.77.16-.85.22-.85.69 0 .6-.33 1.58-.75 2.28-.49.8-.67 1.66-.38 1.77.32.11.7-.07 1.23-.6.52-.5 1.07-.74 1.44-.6.32.12.17 1.7-.27 2.85-.17.46-.29.6-.49.66-.36.1-1.04-.22-1.65-.77-.7-.62-.9-.58-.56.12.39.75.88 1.31 1.88 2.1.58.48 1.1.85 1.2.85.39 0 1.72-3.28 1.84-4.57.09-.76.31-1.4.54-1.54.17-.1.13-.54-.07-.71-.53-.47-.84-.54-1.9-.4a5.1 5.1 0 0 1-1.06.07c-.11-.1.35-1.01.56-1.12.1-.06.5-.21.88-.34.98-.33 1.1-.48 1.33-1.57.18-.94.49-1.6.9-1.98.29-.26.28-.35-.11-.55-.42-.21-1.04-.15-2.6.28-.61.15-1.08.25-1.06.2l.78-1.04c.39-.52.97-1.44 1.3-2.03.56-1.03.9-1.48 1.51-2 .16-.12.29-.28.29-.34 0-.36-1.54-1.28-2.16-1.28zM34.5 32.4c-.24 0-.49.06-.76.16-1.5.59-2 .76-2.27.76-.54 0-.61.13-.4.69.27.68.57.8 1.04.46.58-.44 1.47-.84 1.77-.81.41.04.41.3-.01 1.2l-.38.78-1.05-.31c-1.3-.39-1.66-.4-1.6-.08.02.15.34.45.96.87l.93.64-.45.47a9.15 9.15 0 0 1-2.72 1.56c-.24.05-.34.13-.32.25.06.28.51.44 1.26.43 1.26 0 1.45-.08 2.36-.97a6.1 6.1 0 0 1 1.03-.88c.16-.04.54.18 1.52.92a27.1 27.1 0 0 1 1.9 1.54c.34.32.66.57.71.57.05 0 .21-.08.34-.19.21-.17.26-.33.3-1.04.07-1.41.04-1.46-1.35-2.18-.67-.34-1.44-.7-1.7-.8l-.51-.2c-.12-.06.73-1.86 1.11-2.36.14-.19.24-.42.2-.5a2.5 2.5 0 0 0-.66-.55c-.48-.3-.86-.44-1.25-.43z" opacity=".15" fill="#0ff"/></svg>