<svg xmlns="http://www.w3.org/2000/svg" xmlns:xlink="http://www.w3.org/1999/xlink" width="64" height="64"><defs><linearGradient id="d"><stop offset="0" stop-color="#333"/><stop offset="1"/></linearGradient><linearGradient id="a"><stop offset="0"/><stop offset="1" stop-color="#333"/></linearGradient><linearGradient id="b"><stop offset="0" stop-color="#d40000"/><stop offset="1" stop-color="#ff2a2a"/></linearGradient><linearGradient id="c"><stop offset="0" stop-color="#4d4d4d"/><stop offset="1"/></linearGradient><radialGradient xlink:href="#d" id="e" gradientUnits="userSpaceOnUse" gradientTransform="matrix(1 0 0 -.85758 0 59.44)" cx="32" cy="38.45" fx="32" fy="38.45" r="30.21"/></defs><path d="M7.86 6.1a6.05 6.05 0 0 0-6.07 6.05v28a6.05 6.05 0 0 0 6.07 6.06l37.44.01 7.04 11.69V46.22h3.8a6.05 6.05 0 0 0 6.07-6.07v-28a6.05 6.05 0 0 0-6.07-6.06zm-1.2 4.63h6.93c.38 0 .68.3.68.68v5.18c0 .38-.3.68-.68.68H6.65a.68.68 0 0 1-.68-.68V11.4c0-.38.3-.68.68-.68zm43.45 0h6.93c.38 0 .69.3.69.68v5.18c0 .38-.3.68-.69.68h-6.93a.68.68 0 0 1-.69-.68V11.4c0-.38.3-.68.69-.68zm-43.46 12h6.94c.38 0 .68.3.68.68v5.18c0 .38-.3.68-.68.68H6.65a.68.68 0 0 1-.68-.68V23.4c0-.38.3-.68.68-.68zm43.46 0h6.93c.38 0 .69.3.69.68v5.18c0 .38-.3.68-.69.68h-6.93a.68.68 0 0 1-.69-.68V23.4c0-.38.3-.68.69-.68zm-43.46 12h6.94c.38 0 .68.3.68.68v5.18c0 .38-.3.68-.68.68H6.65a.68.68 0 0 1-.68-.68V35.4c0-.38.3-.68.68-.68zm43.46 0h6.93c.38 0 .69.3.69.68v5.18c0 .38-.3.68-.69.68h-6.93a.68.68 0 0 1-.69-.68V35.4c0-.38.3-.68.69-.68z" fill="url(#e)" stroke="#333" stroke-width=".5"/><path d="M43.21 36.03v-2.06H33.17v2.06zm-11.59 0v-2.06H20.79v2.06zm11.6-6v-2.06h-7.28v2.06zm-9.3 0v-2.06h-4.08v2.06zm-5.8 0v-2.06h-7.33v2.06zm15.1-6v-2.06h-4.23v2.06zm-6.33 0v-2.06h-16.1v2.06zm6.32-6v-2.06H20.8v2.06z" opacity=".42" fill="#fff"/></svg>