<svg xmlns="http://www.w3.org/2000/svg" xmlns:xlink="http://www.w3.org/1999/xlink" width="64" height="64" viewBox="0 0 16.93 16.93"><defs><linearGradient x1="21.13" y1="14.63" x2="29" y2="28" id="e" xlink:href="#a" gradientUnits="userSpaceOnUse" gradientTransform="matrix(.44349 0 0 .44349 -2.17 -1.33)"/><linearGradient id="a"><stop offset="0" stop-color="#fff" stop-opacity=".33"/><stop offset="1" stop-color="#fff" stop-opacity=".6"/></linearGradient><linearGradient id="b"><stop offset="0" stop-color="#333"/><stop offset=".49"/><stop offset="1" stop-color="#1a1a1a"/></linearGradient><linearGradient xlink:href="#a" id="d" gradientUnits="userSpaceOnUse" gradientTransform="matrix(.44349 0 0 .44349 -2.17 -1.3)" x1="21.13" y1="14.63" x2="29" y2="28"/><linearGradient xlink:href="#b" id="c" gradientUnits="userSpaceOnUse" gradientTransform="translate(-2.61 -.41) scale(1.75147)" x1="3.38" y1="8.18" x2="9.44" y2="2.12"/></defs><path d="M8.48 1.08a7.36 7.36 0 0 0-7.41 7.39 7.36 7.36 0 0 0 7.4 7.4 7.36 7.36 0 0 0 7.4-7.4 7.36 7.36 0 0 0-7.4-7.4zm0 5.52a1.85 1.86 0 0 1 .19.01 1.85 1.86 0 0 1 .18.03 1.85 1.86 0 0 1 .18.04 1.85 1.86 0 0 1 .17.07 1.85 1.86 0 0 1 .17.08 1.85 1.86 0 0 1 .15.1 1.85 1.86 0 0 1 .15.11 1.85 1.86 0 0 1 .14.13 1.85 1.86 0 0 1 .12.14 1.85 1.86 0 0 1 .1.15 1.85 1.86 0 0 1 .1.16 1.85 1.86 0 0 1 .07.17 1.85 1.86 0 0 1 .06.18 1.85 1.86 0 0 1 .04.18 1.85 1.86 0 0 1 .02.18 1.85 1.86 0 0 1 0 .14 1.85 1.86 0 0 1 0 .18 1.85 1.86 0 0 1-.03.19 1.85 1.86 0 0 1-.04.18 1.85 1.86 0 0 1-.07.17 1.85 1.86 0 0 1-.08.17 1.85 1.86 0 0 1-.1.16 1.85 1.86 0 0 1-.1.15 1.85 1.86 0 0 1-.13.13 1.85 1.86 0 0 1-.14.12 1.85 1.86 0 0 1-.15.11 1.85 1.86 0 0 1-.16.1 1.85 1.86 0 0 1-.17.07 1.85 1.86 0 0 1-.18.06 1.85 1.86 0 0 1-.18.04 1.85 1.86 0 0 1-.18.02 1.85 1.86 0 0 1-.13 0 1.85 1.86 0 0 1-.18 0 1.85 1.86 0 0 1-.19-.03 1.85 1.86 0 0 1-.18-.04 1.85 1.86 0 0 1-.17-.07 1.85 1.86 0 0 1-.17-.08 1.85 1.86 0 0 1-.15-.1 1.85 1.86 0 0 1-.15-.11 1.85 1.86 0 0 1-.13-.13 1.85 1.86 0 0 1-.13-.14 1.85 1.86 0 0 1-.1-.15 1.85 1.86 0 0 1-.1-.16 1.85 1.86 0 0 1-.07-.17 1.85 1.86 0 0 1-.06-.18 1.85 1.86 0 0 1-.04-.18 1.85 1.86 0 0 1-.02-.18 1.85 1.86 0 0 1 0-.14 1.85 1.86 0 0 1 0-.18 1.85 1.86 0 0 1 .03-.19 1.85 1.86 0 0 1 .05-.18 1.85 1.86 0 0 1 .06-.17 1.85 1.86 0 0 1 .08-.17 1.85 1.86 0 0 1 .1-.16 1.85 1.86 0 0 1 .1-.15 1.85 1.86 0 0 1 .13-.13A1.85 1.86 0 0 1 7.33 7a1.85 1.86 0 0 1 .15-.11 1.85 1.86 0 0 1 .16-.1 1.85 1.86 0 0 1 .17-.07A1.85 1.86 0 0 1 8 6.67a1.85 1.86 0 0 1 .18-.04 1.85 1.86 0 0 1 .18-.02 1.85 1.86 0 0 1 .13 0z" fill="url(#c)"/><path d="M10.44 1.63L9.18 6.6c.38.1.7.35.93.7l4.4-2.7a6.7 6.7 0 0 0-4.07-2.97z" fill="url(#d)"/><path d="M5.97 15.12l1.68-4.85a1.58 1.58 0 0 1-.87-.77l-4.6 2.3a6.7 6.7 0 0 0 3.8 3.32z" fill="url(#e)"/><path d="M8.43 5.43A3.04 3.02 0 0 0 5.4 8.45a3.04 3.02 0 0 0 3.03 3.02 3.04 3.02 0 0 0 3.04-3.02 3.04 3.02 0 0 0-3.04-3.02zm.04 1.63a1.38 1.4 0 0 1 .14.01 1.38 1.4 0 0 1 .13.02 1.38 1.4 0 0 1 .14.04 1.38 1.4 0 0 1 .13.04 1.38 1.4 0 0 1 .12.07 1.38 1.4 0 0 1 .12.07 1.38 1.4 0 0 1 .11.08 1.38 1.4 0 0 1 .1.1 1.38 1.4 0 0 1 .1.1 1.38 1.4 0 0 1 .07.12 1.38 1.4 0 0 1 .07.12 1.38 1.4 0 0 1 .06.13 1.38 1.4 0 0 1 .04.13 1.38 1.4 0 0 1 .03.13 1.38 1.4 0 0 1 .02.14 1.38 1.4 0 0 1 0 .1 1.38 1.4 0 0 1 0 .14 1.38 1.4 0 0 1-.02.14 1.38 1.4 0 0 1-.04.13 1.38 1.4 0 0 1-.05.13 1.38 1.4 0 0 1-.06.13 1.38 1.4 0 0 1-.07.12 1.38 1.4 0 0 1-.08.11 1.38 1.4 0 0 1-.1.1 1.38 1.4 0 0 1-.1.1 1.38 1.4 0 0 1-.11.08 1.38 1.4 0 0 1-.12.07 1.38 1.4 0 0 1-.13.05 1.38 1.4 0 0 1-.13.05 1.38 1.4 0 0 1-.14.03 1.38 1.4 0 0 1-.13.01 1.38 1.4 0 0 1-.1 0 1.38 1.4 0 0 1-.14 0 1.38 1.4 0 0 1-.14-.02 1.38 1.4 0 0 1-.13-.04 1.38 1.4 0 0 1-.13-.04 1.38 1.4 0 0 1-.12-.06 1.38 1.4 0 0 1-.12-.08 1.38 1.4 0 0 1-.11-.08 1.38 1.4 0 0 1-.1-.1 1.38 1.4 0 0 1-.1-.1 1.38 1.4 0 0 1-.08-.11 1.38 1.4 0 0 1-.07-.13 1.38 1.4 0 0 1-.05-.12 1.38 1.4 0 0 1-.04-.14 1.38 1.4 0 0 1-.04-.13 1.38 1.4 0 0 1-.01-.14 1.38 1.4 0 0 1 0-.1 1.38 1.4 0 0 1 0-.14 1.38 1.4 0 0 1 .02-.14 1.38 1.4 0 0 1 .04-.13 1.38 1.4 0 0 1 .04-.13 1.38 1.4 0 0 1 .06-.13 1.38 1.4 0 0 1 .08-.12 1.38 1.4 0 0 1 .08-.1 1.38 1.4 0 0 1 .1-.11 1.38 1.4 0 0 1 .1-.1 1.38 1.4 0 0 1 .11-.07 1.38 1.4 0 0 1 .12-.07 1.38 1.4 0 0 1 .13-.06 1.38 1.4 0 0 1 .13-.04 1.38 1.4 0 0 1 .13-.04 1.38 1.4 0 0 1 .14-.01 1.38 1.4 0 0 1 .1 0z" fill="#1a1a1a" stroke="#000" stroke-width=".2539488" stroke-opacity=".01"/></svg>