<?xml version="1.0" encoding="UTF-8" standalone="no"?><svg xmlns:dc="http://purl.org/dc/elements/1.1/" xmlns:cc="http://creativecommons.org/ns#" xmlns:rdf="http://www.w3.org/1999/02/22-rdf-syntax-ns#" xmlns="http://www.w3.org/2000/svg" xmlns:xlink="http://www.w3.org/1999/xlink" width="64" height="64"><defs><linearGradient id="d"><stop offset="0" stop-color="#4d4d4d"/><stop offset="1"/></linearGradient><linearGradient id="a"><stop offset="0" stop-color="#fff"/><stop offset=".51" stop-color="#fff" stop-opacity=".24"/><stop offset=".83" stop-color="#fff" stop-opacity=".16"/><stop offset="1" stop-color="#fff" stop-opacity=".39"/></linearGradient><linearGradient id="b"><stop offset="0" stop-color="#333"/><stop offset="1"/></linearGradient><linearGradient id="c"><stop offset="0"/><stop offset="1" stop-opacity="0"/></linearGradient><linearGradient x1="71.2" y1="6.24" x2="71.2" y2="44.34" id="f" xlink:href="#a" gradientUnits="userSpaceOnUse" gradientTransform="matrix(1.36256 0 0 1.36256 -65.74 -2.55)"/><radialGradient xlink:href="#d" id="e" cx="15.77" cy="11.09" fx="15.77" fy="11.09" r="20.5" gradientUnits="userSpaceOnUse" gradientTransform="matrix(1.29268 0 0 1.29268 .98 .98)"/></defs><metadata><rdf:RDF><cc:Work><dc:format>image/svg+xml</dc:format><dc:type rdf:resource="http://purl.org/dc/dcmitype/StillImage"/><dc:title/></cc:Work></rdf:RDF></metadata><path d="M32 5.5A26.52 26.52 0 0 0 5.5 32 26.52 26.52 0 0 0 32 58.5 26.52 26.52 0 0 0 58.5 32 26.52 26.52 0 0 0 32 5.5z" style="marker:none" color="#000" overflow="visible" opacity=".99" fill="url(#e)"/><path d="M57.2 32a25.2 25.2 0 1 1-50.4 0 25.2 25.2 0 0 1 50.4 0z" style="marker:none" color="#000" overflow="visible" opacity=".5" fill="none" stroke="url(#f)" stroke-linecap="round" stroke-linejoin="round"/><path d="M33.52 15.79a1.56 1.56 0 0 0-1.48 1.57v8.63H15.88a1.56 1.56 0 0 0-1.57 1.57v8.87A1.56 1.56 0 0 0 15.88 38h16.16v8.63a1.56 1.56 0 0 0 2.63 1.16l16.26-14.6a1.56 1.56 0 0 0 0-2.3L34.67 16.2a1.56 1.56 0 0 0-1.15-.41z" style="marker:none" color="#000" overflow="visible" opacity=".15" fill="#fff"/><path d="M33.61 17.37l16.25 14.68-16.25 14.57v-10.2H15.88v-8.86h17.73z" style="marker:none" color="#000" overflow="visible" opacity=".3" fill="#fff"/><path d="M33.61 15.9l16.25 14.67-16.25 14.57V34.95H15.88v-8.87h17.73z" style="marker:none" overflow="visible" fill="#fff"/></svg>