<?xml version="1.0" encoding="UTF-8" standalone="no"?><svg xmlns:dc="http://purl.org/dc/elements/1.1/" xmlns:cc="http://creativecommons.org/ns#" xmlns:rdf="http://www.w3.org/1999/02/22-rdf-syntax-ns#" xmlns="http://www.w3.org/2000/svg" xmlns:xlink="http://www.w3.org/1999/xlink" width="64" height="64"><defs><linearGradient id="d"><stop offset="0" stop-color="#4d4d4d"/><stop offset="1"/></linearGradient><linearGradient id="a"><stop offset="0" stop-color="#fff"/><stop offset=".51" stop-color="#fff" stop-opacity=".24"/><stop offset=".83" stop-color="#fff" stop-opacity=".16"/><stop offset="1" stop-color="#fff" stop-opacity=".39"/></linearGradient><linearGradient id="b"><stop offset="0" stop-color="#333"/><stop offset="1"/></linearGradient><linearGradient id="c"><stop offset="0"/><stop offset="1" stop-opacity="0"/></linearGradient><linearGradient x1="71.2" y1="6.24" x2="71.2" y2="44.34" id="f" xlink:href="#a" gradientUnits="userSpaceOnUse" gradientTransform="matrix(1.36256 0 0 1.36256 -65.74 -2.55)"/><radialGradient xlink:href="#d" id="e" cx="15.77" cy="11.09" fx="15.77" fy="11.09" r="20.5" gradientUnits="userSpaceOnUse" gradientTransform="matrix(1.29268 0 0 1.29268 .98 .98)"/></defs><metadata><rdf:RDF><cc:Work><dc:format>image/svg+xml</dc:format><dc:type rdf:resource="http://purl.org/dc/dcmitype/StillImage"/><dc:title/></cc:Work></rdf:RDF></metadata><path d="M32 5.5A26.52 26.52 0 0 0 5.5 32 26.52 26.52 0 0 0 32 58.5 26.52 26.52 0 0 0 58.5 32 26.52 26.52 0 0 0 32 5.5z" style="marker:none" color="#000" overflow="visible" opacity=".99" fill="url(#e)"/><path d="M57.2 32a25.2 25.2 0 1 1-50.4 0 25.2 25.2 0 0 1 50.4 0z" style="marker:none" color="#000" overflow="visible" opacity=".5" fill="none" stroke="url(#f)" stroke-linecap="round" stroke-linejoin="round"/><path style="marker:none" d="M23.61 19.28a1.22 1.22 0 0 0-.77.33L10.09 31.13a1.22 1.22 0 0 0 0 1.8l12.75 11.45a1.22 1.22 0 0 0 2.06-.9V36.7h14.2v6.77a1.22 1.22 0 0 0 2.06.9l12.75-11.44a1.22 1.22 0 0 0 0-1.81L41.16 19.6a1.22 1.22 0 0 0-.9-.33 1.22 1.22 0 0 0-1.16 1.23v6.78H24.9V20.5a1.22 1.22 0 0 0-1.15-1.23 1.22 1.22 0 0 0-.14 0z" color="#000" overflow="visible" opacity=".15" fill="#fff"/><path style="marker:none" d="M23.67 20.53L10.92 32.04l12.75 11.43v-8h16.66v8l12.75-11.43-12.75-11.51v7.99H23.67z" color="#000" overflow="visible" opacity=".3" fill="#fff"/><path style="marker:none" d="M23.67 19.37L10.92 30.88l12.75 11.43v-8h16.66v8l12.75-11.43-12.75-11.51v7.99H23.67z" overflow="visible" fill="#fff"/></svg>