<svg xmlns="http://www.w3.org/2000/svg" xmlns:xlink="http://www.w3.org/1999/xlink" width="64" height="64" version="1" viewBox="0 0 60 60"><defs><linearGradient id="a"><stop offset="0" stop-color="#fff"/><stop offset="1" stop-color="#fff" stop-opacity="0"/></linearGradient><linearGradient id="d"><stop offset="0"/><stop offset="1" stop-opacity="0"/></linearGradient><linearGradient id="b"><stop offset="0" stop-color="#dfdfdf"/><stop offset="1" stop-color="#606060"/></linearGradient><linearGradient id="c"><stop offset="0" stop-color="#b3b3b3"/><stop offset="1" stop-color="#333"/></linearGradient><linearGradient id="e"><stop offset="0" stop-color="#666"/><stop offset="1" stop-color="#333"/></linearGradient><linearGradient id="f"><stop offset="0" stop-color="#1a1a1a"/><stop offset="1"/></linearGradient><radialGradient xlink:href="#g" id="m" cx="24" cy="42.72" fx="24" fy="42.72" r="2.55" gradientTransform="matrix(.6819 0 0 .61308 7.62 9.25)" gradientUnits="userSpaceOnUse"/><linearGradient id="g"><stop offset="0" stop-color="#b3b3b3"/><stop offset="1" stop-color="#666"/></linearGradient><radialGradient xlink:href="#g" id="n" cx="5.33" cy="13.96" fx="5.33" fy="13.96" r="2.49" gradientTransform="matrix(.90614 .19932 -.14315 .6508 8.42 5.68)" gradientUnits="userSpaceOnUse"/><radialGradient xlink:href="#g" id="o" cx="10.28" cy="22.95" fx="10.28" fy="22.95" r="2.55" gradientTransform="matrix(.6819 0 0 .56763 7.62 8.95)" gradientUnits="userSpaceOnUse"/><radialGradient xlink:href="#g" id="p" cx="23.09" cy="22.01" fx="23.09" fy="22.01" r="2.48" gradientTransform="matrix(.6819 0 0 .68878 7.62 6.15)" gradientUnits="userSpaceOnUse"/><radialGradient xlink:href="#g" id="q" cx="5.33" cy="13.96" fx="5.33" fy="13.96" r="2.49" gradientTransform="matrix(-.90614 .19932 .14315 .6508 39.55 5.7)" gradientUnits="userSpaceOnUse"/><radialGradient xlink:href="#g" id="r" cx="10.28" cy="22.95" fx="10.28" fy="22.95" r="2.55" gradientTransform="matrix(-.6819 0 0 .56763 40.35 8.95)" gradientUnits="userSpaceOnUse"/><radialGradient xlink:href="#g" id="s" cx="10.28" cy="22.95" fx="10.28" fy="22.95" r="2.55" gradientTransform="matrix(-.36688 .5748 .47847 .3054 21.73 .37)" gradientUnits="userSpaceOnUse"/><radialGradient xlink:href="#g" id="t" cx="10.28" cy="22.95" fx="10.28" fy="22.95" r="2.55" gradientTransform="matrix(.36688 .5748 -.47847 .3054 26.29 .34)" gradientUnits="userSpaceOnUse"/><radialGradient xlink:href="#g" id="u" cx="10.28" cy="22.95" fx="10.28" fy="22.95" r="2.55" gradientTransform="matrix(.36688 -.5748 -.47847 -.3054 26.29 42.9)" gradientUnits="userSpaceOnUse"/><radialGradient xlink:href="#g" id="v" cx="10.28" cy="22.95" fx="10.28" fy="22.95" r="2.55" gradientTransform="matrix(-.36688 -.5748 .47847 -.3054 21.75 42.97)" gradientUnits="userSpaceOnUse"/><radialGradient xlink:href="#g" id="w" cx="5.33" cy="13.96" fx="5.33" fy="13.96" r="2.49" gradientTransform="matrix(.90614 -.19932 -.14315 -.6508 8.45 38.31)" gradientUnits="userSpaceOnUse"/><radialGradient xlink:href="#g" id="x" cx="5.33" cy="13.96" fx="5.33" fy="13.96" r="2.49" gradientTransform="matrix(-.90614 -.19932 .14315 -.6508 39.58 38.33)" gradientUnits="userSpaceOnUse"/><radialGradient xlink:href="#g" id="y" cx="24" cy="42.72" fx="24" fy="42.72" r="2.55" gradientTransform="matrix(.6819 0 0 -.61308 7.69 34.75)" gradientUnits="userSpaceOnUse"/><radialGradient xlink:href="#h" id="l" cx="87.26" cy="48.89" fx="87.26" fy="99.35" r="74.64" gradientUnits="userSpaceOnUse" gradientTransform="matrix(.22935 0 0 .17318 10.35 32.23)"/><linearGradient id="h"><stop offset="0" stop-color="#fff" stop-opacity=".43"/><stop offset="1" stop-color="#fff" stop-opacity="0"/></linearGradient><clipPath id="i"><circle r="99.09" cy="661.71" cx="513.65" transform="translate(-816.25 -161.96) scale(1.01142)" stroke-width="2.8" stroke-linecap="round" stroke-linejoin="round"/></clipPath><filter id="j" x="-.11" width="1.22" y="-.21" height="1.42"><feGaussianBlur stdDeviation="9.12"/></filter><filter id="k"><feGaussianBlur stdDeviation="3.04"/></filter></defs><ellipse ry="23.04" rx="22.82" cy="30" cx="29.98"/><g clip-path="url(#i)" transform="matrix(.22774 0 0 .23123 97.55 -87.17)" opacity=".77" fill="#fff"><path d="M-296.74 402.1c-55.32 0-100.2 44.9-100.2 100.22 0 1.62.06 3.24.13 4.84 2.69-52.92 46.47-95.06 100.07-95.06 53.59 0 97.4 42.14 100.09 95.06.08-1.6.12-3.22.12-4.84 0-55.32-44.9-100.22-100.21-100.22z" filter="url(#j)"/><path d="M-296.74 399.1c-55.32 0-100.2 44.9-100.2 100.22 0 1.62.06 3.24.13 4.84 2.69-52.92 46.47-95.06 100.07-95.06 53.59 0 97.4 42.14 100.09 95.06.08-1.6.12-3.22.12-4.84 0-55.32-44.9-100.22-100.21-100.22z" filter="url(#k)"/></g><ellipse cx="30.36" cy="40.7" rx="17.12" ry="12.92" fill="url(#l)"/><g transform="matrix(1.8747 0 0 1.8747 -15 -11.24)"><path d="M25.66 34.16l-.77-.18a4 4 0 0 0-1.82 0l-.8.19s-.24-.1.72 1.84c1.11 2.25 2.08-.02 2.08-.02a8.5 8.5 0 0 0 .65-1.79c.01-.04-.02-.03-.06-.04z" fill="url(#m)"/><path d="M12.68 17.41c.03.03.04 0 .07-.03l.54-.58c.41-.46.73-1 .9-1.6l.24-.79s.2-.17-1.94-.3c-2.48-.14-1.02 1.83-1.02 1.83a9.18 9.18 0 0 0 1.2 1.47z" fill="url(#n)"/><path d="M16.6 20.6c-.64 0-2.47.64-2.47 1.44 0 .8 1.84 1.44 2.47 1.44.87 0 1-.64 1-1.44 0-.8-.06-1.45-1-1.45z" fill="url(#o)"/><ellipse ry="1.71" rx="1.69" cy="21.99" cx="23.99" fill="url(#p)"/><path d="M35.3 17.43c-.04.03-.05 0-.07-.03l-.54-.59c-.42-.45-.73-1-.91-1.59l-.24-.8s-.2-.16 1.94-.29c2.48-.14 1.02 1.83 1.02 1.83a9.18 9.18 0 0 1-1.2 1.47z" fill="url(#q)"/><path d="M31.37 20.6c.64 0 2.47.64 2.47 1.44 0 .8-1.84 1.44-2.47 1.44-.87 0-1-.64-1-1.44 0-.8.06-1.45 1-1.45z" fill="url(#r)"/><path d="M26.71 14.2c.35-.54 1.88-1.72 2.55-1.3.67.43.23 2.33-.1 2.86-.48.74-1.1.5-1.77.07-.67-.43-1.18-.83-.68-1.62z" fill="url(#s)"/><path d="M21.3 14.17c-.34-.54-1.87-1.73-2.54-1.3-.68.43-.23 2.33.1 2.86.47.74 1.1.5 1.77.07.67-.43 1.18-.83.67-1.63z" fill="url(#t)"/><path d="M21.3 29.07c-.34.54-1.87 1.73-2.54 1.3-.68-.43-.23-2.32.1-2.85.47-.74 1.1-.5 1.77-.08.67.43 1.18.84.67 1.63z" fill="url(#u)"/><path d="M26.73 29.13c.35.55 1.87 1.73 2.55 1.3.67-.43.23-2.32-.11-2.85-.47-.74-1.09-.5-1.76-.07-.68.42-1.19.83-.68 1.62z" fill="url(#v)"/><path d="M12.7 26.58c.04-.03.05 0 .07.03l.54.59c.42.45.73 1 .91 1.59l.24.8s.2.16-1.94.29c-2.48.14-1.02-1.83-1.02-1.83a9.18 9.18 0 0 1 1.2-1.47z" fill="url(#w)"/><path d="M35.32 26.6c-.03-.03-.04 0-.07.03l-.54.58c-.41.46-.73 1-.9 1.6l-.24.79s-.2.17 1.94.3c2.48.14 1.02-1.83 1.02-1.83a9.18 9.18 0 0 0-1.2-1.47z" fill="url(#x)"/><path d="M25.73 9.84l-.77.18a4 4 0 0 1-1.82 0l-.8-.19s-.24.1.72-1.84c1.11-2.25 2.08.02 2.08.02a8.5 8.5 0 0 1 .65 1.79c.01.04-.02.03-.06.04z" fill="url(#y)"/></g></svg>