<svg xmlns="http://www.w3.org/2000/svg" xmlns:xlink="http://www.w3.org/1999/xlink" width="64" height="64"><defs><linearGradient id="e"><stop offset="0" stop-color="#e2450e"/><stop offset="1" stop-color="#f60"/></linearGradient><radialGradient id="a" cx="34" cy="42" r="32" gradientTransform="matrix(.375 0 0 1 -22.75 -40)" gradientUnits="userSpaceOnUse"><stop offset="0" stop-color="#5f5f5f"/><stop offset=".65" stop-color="#252525"/><stop offset="1" stop-color="#3b3b3b"/></radialGradient><radialGradient id="b" cx="33.5" cy="77.83" r="75.67" gradientUnits="userSpaceOnUse" gradientTransform="translate(-44 -40)"><stop offset=".08" stop-color="#babdb6"/><stop offset=".09" stop-color="#b2b5af"/><stop offset=".11" stop-color="#9da19b"/><stop offset=".13" stop-color="#7a7e7c"/><stop offset=".15" stop-color="#4a4f50"/><stop offset=".17" stop-color="#2e3436"/><stop offset=".18" stop-color="#363b3d"/><stop offset=".19" stop-color="#4b5050"/><stop offset=".21" stop-color="#6e716e"/><stop offset=".22" stop-color="#888a85"/><stop offset=".29" stop-color="#90928c"/><stop offset=".39" stop-color="#a4a7a1"/><stop offset=".52" stop-color="#c6cac2"/><stop offset=".56" stop-color="#d3d7cf"/><stop offset=".58" stop-color="#eaece8"/><stop offset=".59" stop-color="#f9faf9"/><stop offset=".6" stop-color="#fff"/><stop offset=".61" stop-color="#e8eae6"/><stop offset=".62" stop-color="#d9dcd5"/><stop offset=".63" stop-color="#d3d7cf"/><stop offset=".72" stop-color="#babdb6"/><stop offset=".83" stop-color="#9ea19b"/><stop offset=".93" stop-color="#8e908b"/><stop offset="1" stop-color="#888a85"/></radialGradient><radialGradient id="f" cx="12.01" cy="13.2" r="20" gradientTransform="matrix(0 2.36188 -3.40694 0 60.78 -11.44)" gradientUnits="userSpaceOnUse"><stop offset="0" stop-color="#4d4d4d"/><stop offset=".26" stop-color="#333"/><stop offset=".7"/><stop offset="1"/></radialGradient><linearGradient id="g" x1="24" x2="24" y1="44" y2="3.9" gradientTransform="translate(-1.75 -1.75) scale(1.4058)" gradientUnits="userSpaceOnUse"><stop offset="0"/><stop offset="1" stop-color="#333"/></linearGradient><linearGradient gradientTransform="rotate(14.19 7.49 7.64)" y2="11.5" x2="7.46" y1="3.5" x1="7.46" gradientUnits="userSpaceOnUse" id="c"><stop offset="0" stop-color="#666"/><stop offset="1" stop-color="#333"/></linearGradient><linearGradient gradientTransform="rotate(24 9.04 7)" y2="7.58" x2="7.84" y1="8.58" x1="7.84" gradientUnits="userSpaceOnUse" id="d"><stop offset="0" stop-color="#333"/><stop offset="1"/></linearGradient><linearGradient xlink:href="#e" id="h" x1="18.67" y1="14.5" x2="18.69" y2="47.94" gradientUnits="userSpaceOnUse"/></defs><rect x="4.58" y="4.58" width="54.83" height="54.83" rx="2.23" ry="2.23" fill="url(#f)" stroke="url(#g)" stroke-width=".5" stroke-linecap="round" stroke-linejoin="round"/><path d="M31.62 47.43a19.7 19.7 0 0 1-3.45-.85 11.17 11.17 0 0 1-6.8-7.13c-.6-1.85-.59-1.78-.67-13.85-.05-6.7-.03-11.43-.03-11.43h10.06l-4 8.33h3.94v16.67H39v-25h8.33v15.96c0 14.74 0 15.6-.18 15.69-.48.25-5.43 1.1-8.39 1.46-1.7.2-6.03.3-7.14.15z" opacity=".1" fill="#f60"/><path d="M29.62 47.77a19.7 19.7 0 0 1-3.45-.85 11.17 11.17 0 0 1-6.8-7.13c-.6-1.86-.59-1.79-.67-13.85-.05-6.7-.03-11.44-.03-11.44h10.06l-4 8.33h3.94V39.5H37v-25h8.33v15.96c0 14.75 0 15.6-.18 15.7-.48.24-5.43 1.1-8.39 1.45-1.7.2-6.03.3-7.14.16z" fill="url(#h)"/></svg>