<svg xmlns="http://www.w3.org/2000/svg" xmlns:xlink="http://www.w3.org/1999/xlink" width="64" height="64" version="1"><defs><linearGradient id="b"><stop offset="0" stop-color="#21d789"/><stop offset=".49" stop-color="#6655e4"/><stop offset="1" stop-color="#2086e7"/></linearGradient><radialGradient gradientTransform="matrix(2.07143 0 0 2.07143 -17.71 -17.71)" xlink:href="#a" id="c" cx="18.12" cy="18.12" fx="18.12" fy="18.12" r="14" gradientUnits="userSpaceOnUse"/><linearGradient id="a"><stop offset="0" stop-color="#4d4d4d"/><stop offset="1"/></linearGradient><linearGradient xlink:href="#b" id="d" gradientUnits="userSpaceOnUse" gradientTransform="matrix(2.07143 0 0 2.07143 -17.71 -17.71)" x1="14" y1="23.98" x2="33.66" y2="23.74"/></defs><path d="M58.93 61H5.07A2.07 2.07 0 0 1 3 58.93V5.07C3 3.93 3.93 3 5.07 3h53.86C60.07 3 61 3.93 61 5.07v53.86c0 1.14-.93 2.07-2.07 2.07z" fill="url(#c)"/><path d="M19.63 11.37a9.71 9.71 0 0 0-7.47 3.11c-1.92 2.08-2.88 4.77-2.88 8.1 0 3.24.94 5.92 2.82 8.04a9.24 9.24 0 0 0 7.18 3.16 7.7 7.7 0 0 0 3.7-.82 8.05 8.05 0 0 0 2.76-2.6l.53 2.8h2.63V21.62h-8.56v3.67h4.87a5.37 5.37 0 0 1-.62 2.05 4.54 4.54 0 0 1-1.14 1.38 6.32 6.32 0 0 1-3.67 1.32c-1.78 0-3.24-.7-4.4-2.11a8.33 8.33 0 0 1-1.7-5.4c0-2.3.53-4.12 1.59-5.43a5.39 5.39 0 0 1 4.4-1.96c2.61 0 4.32 1.14 5.1 3.43h4.13A7.54 7.54 0 0 0 26 13.3c-1.66-1.3-3.78-1.94-6.37-1.94zm22.5.06a9.58 9.58 0 0 0-7.46 3.14c-1.88 2.1-2.82 4.78-2.82 8.07 0 3.28.94 5.97 2.82 8.06 1.88 2.1 4.37 3.14 7.48 3.14 3.13 0 5.62-1.04 7.48-3.14a11.48 11.48 0 0 0 2.82-7.92c0-3.4-.95-6.14-2.85-8.21-1.9-2.1-4.39-3.14-7.48-3.14zm.02 3.76c1.8 0 3.23.68 4.28 2.05 1.08 1.37 1.61 3.2 1.61 5.51 0 2.2-.54 3.96-1.64 5.31a5.17 5.17 0 0 1-4.25 2.03 5.2 5.2 0 0 1-4.28-2.03c-1.08-1.37-1.62-3.17-1.62-5.42s.54-4.05 1.62-5.4a5.18 5.18 0 0 1 4.28-2.05zM11.29 46.5v4.14h18.64V46.5H11.29z" fill="url(#d)"/></svg>