<svg xmlns="http://www.w3.org/2000/svg" xmlns:xlink="http://www.w3.org/1999/xlink" width="64" height="64" id="svg13"><defs id="defs5"><style id="current-color-scheme"></style><linearGradient xlink:href="#linearGradient844" id="linearGradient846" x1="30.21" y1="24.86" x2="29.85" y2="57.87" gradientUnits="userSpaceOnUse" gradientTransform="translate(-2.26 -2.2) scale(1.07065)"/><linearGradient id="linearGradient844"><stop offset="0" id="stop840" stop-color="#a80"/><stop offset="1" id="stop842" stop-color="#fd5"/></linearGradient><radialGradient xlink:href="#linearGradient828" id="radialGradient830" cx="28.73" cy="28.43" fx="28.73" fy="28.43" r="7.42" gradientTransform="matrix(1.76327 .53196 -.55058 1.82498 -6.5 -38.93)" gradientUnits="userSpaceOnUse"/><linearGradient id="linearGradient828"><stop offset="0" id="stop824" stop-color="#2a7fff"/><stop offset="1" id="stop826"/></linearGradient><linearGradient xlink:href="#linearGradient852" id="linearGradient854" x1="5.59" y1="57.44" x2="5.83" y2="17.35" gradientUnits="userSpaceOnUse" gradientTransform="translate(-2.26 -2.2) scale(1.07065)"/><linearGradient id="linearGradient852"><stop offset="0" id="stop848" stop-color="#0b280b"/><stop offset="1" id="stop850" stop-color="#37c837"/></linearGradient><linearGradient xlink:href="#linearGradient836" id="linearGradient838" x1="13.96" y1="16.63" x2="55.38" y2="16.63" gradientUnits="userSpaceOnUse" gradientTransform="translate(-2.26 -2.2) scale(1.07065)"/><linearGradient id="linearGradient836"><stop offset="0" id="stop832" stop-color="maroon"/><stop offset="1" id="stop834" stop-color="#ff2a2a"/></linearGradient><radialGradient xlink:href="#linearGradient860" id="radialGradient862" cx="32" cy="31.94" fx="32" fy="31.94" r="29" gradientTransform="matrix(1.04512 0 0 1.0393 -1.44 -1.2)" gradientUnits="userSpaceOnUse"/><linearGradient id="linearGradient860"><stop id="stop858" offset="0"/><stop id="stop856" offset="1" stop-color="#1a1a1a"/></linearGradient></defs><ellipse id="path814" cx="32" cy="32" rx="30.31" ry="30.14" fill="url(#radialGradient862)" stroke-width=".47"/><path d="M31.94 4.24c-7.52 0-14.25 3.1-19.26 7.95l8.57 14.78a11.83 11.83 0 0 1 10.69-6.83h25.1c-4.48-9.4-14-15.9-25.1-15.9z" id="path822" color="#090d11" fill="url(#linearGradient838)" stroke-width="3.98"/><path d="M9.08 16.29a27.49 27.49 0 0 0-4.97 15.77 27.73 27.73 0 0 0 21.37 26.96l8.82-15.28a11.9 11.9 0 0 1-12.67-5.72L9.08 16.28z" id="path820" color="#090d11" fill="url(#linearGradient854)" stroke-width="3.98"/><path d="M31.94 24.11a7.95 7.95 0 0 0-7.33 11.06l.5.87a7.87 7.87 0 0 0 13.29.62l.12-.12c.1-.15.16-.34.25-.5a7.93 7.93 0 0 0 1.12-3.98c0-4.39-3.56-7.95-7.96-7.95z" id="path818" color="#090d11" fill="url(#radialGradient830)" stroke-width="3.98"/><path d="M40.76 24.11a11.83 11.83 0 0 1 1.49 13.92c-.14.23-.22.52-.37.74l-.13.25L29.7 59.76c.74.06 1.49.13 2.24.13a27.83 27.83 0 0 0 27.82-27.83c0-2.75-.37-5.44-1.11-7.95h-17.9z" id="path7" color="#090d11" fill="url(#linearGradient846)" stroke-width="3.98"/></svg>