<svg xmlns="http://www.w3.org/2000/svg" xmlns:xlink="http://www.w3.org/1999/xlink" width="64" height="64" version="1"><defs><linearGradient id="c"><stop offset="0" stop-color="#ffb380"/><stop offset="1" stop-color="#ff7f2a"/></linearGradient><linearGradient id="b"><stop offset="0" stop-color="#333"/><stop offset=".5"/><stop offset="1"/></linearGradient><linearGradient xlink:href="#a" id="g" gradientUnits="userSpaceOnUse" gradientTransform="matrix(.48574 -.00257 -.00027 .46777 1.19 64.74)" x1="67.64" y1="-14.27" x2="80.33" y2="79.55"/><linearGradient id="a"><stop offset="0" stop-color="#fdfdfd"/><stop offset="1" stop-color="#fdfdfd" stop-opacity="0"/></linearGradient><linearGradient xlink:href="#b" id="e" gradientUnits="userSpaceOnUse" x1="85.01" y1="34.89" x2="82.91" y2="147.23" gradientTransform="matrix(-.46984 -.03741 -.03741 .46984 65.66 70)"/><linearGradient xlink:href="#d" id="f" x1="16" y1="21" x2="15.94" y2="43.33" gradientUnits="userSpaceOnUse" gradientTransform="translate(-.8 -1.4) scale(1.0625)"/><linearGradient id="d"><stop offset="0" stop-color="green"/><stop offset="1" stop-color="#0f0"/></linearGradient></defs><path d="M41.61 71.22a33.3 33.3 0 0 0-8.77-.84C16.62 70.96 3.78 82.9 4.17 97.04a23.23 23.23 0 0 0 6.03 14.88c-1.9 3.62-4.92 6.11-9.14 6.31 6.4 3 14.1 2.24 19.73 1.06a32.57 32.57 0 0 0 13.44 2.33c16.23-.58 29.08-12.53 28.7-26.68-.31-11.49-9.27-20.9-21.32-23.72z" fill="url(#e)" transform="translate(0 -64)"/><path style="marker:none" d="M17.41 19.71v12.75h8.5v4.25c0 1.17-.95 2.12-2.12 2.12h-1.07v4.25h1.07a6.38 6.38 0 0 0 6.37-6.37v-17zm21.25 0v12.75h8.5v4.25c0 1.17-.95 2.12-2.12 2.12h-1.07v4.25h1.07a6.38 6.38 0 0 0 6.37-6.37v-17z" color="#000" overflow="visible" opacity=".32" fill="green"/><path style="marker:none" d="M16.2 20.92v12.75h8.5v4.25c0 1.17-.95 2.12-2.12 2.12h-1.06v4.25h1.06a6.38 6.38 0 0 0 6.38-6.37v-17zm21.26 0v12.75h8.5v4.25c0 1.17-.96 2.12-2.13 2.12h-1.06v4.25h1.06a6.38 6.38 0 0 0 6.38-6.37v-17z" color="#000" overflow="visible" fill="url(#f)"/><path d="M34.13 70.35c-1.05 0-2.12.06-3.2.16C15.74 72 3.9 83.15 5.13 95.43c.04.44.1.88.18 1.3 7.02 2.5 16 3.95 25.1 3.9 11.73-.06 22.87-2.56 30.75-6.58.16-1.31.18-2.64.05-3.98-1-9.98-10.48-17.63-21.97-19.36a33.29 33.29 0 0 0-5.1-.36z" opacity=".64" fill="url(#g)" transform="translate(0 -64)"/></svg>