<svg xmlns="http://www.w3.org/2000/svg" xmlns:xlink="http://www.w3.org/1999/xlink" width="64" height="64"><defs><linearGradient id="b"><stop offset="0" stop-color="#0ff"/><stop offset="1" stop-color="#003380"/></linearGradient><linearGradient id="a"><stop offset="0" stop-color="#5df"/><stop offset="1" stop-color="#04a"/></linearGradient><radialGradient id="c" cx="12.01" cy="13.2" r="20" gradientTransform="matrix(0 2.36188 -3.40694 0 60.79 -11.43)" gradientUnits="userSpaceOnUse"><stop offset="0" stop-color="#4d4d4d"/><stop offset=".26" stop-color="#333"/><stop offset=".7"/><stop offset="1"/></radialGradient><linearGradient id="d" x1="24" x2="24" y1="44" y2="3.9" gradientTransform="translate(-1.74 -1.74) scale(1.4058)" gradientUnits="userSpaceOnUse"><stop offset="0"/><stop offset="1" stop-color="#333"/></linearGradient><radialGradient xlink:href="#b" id="e" gradientUnits="userSpaceOnUse" gradientTransform="matrix(1 0 0 .86084 0 5)" cx="14.87" cy="16.44" fx="14.87" fy="16.44" r="27"/></defs><rect x="4.59" y="4.59" width="54.83" height="54.83" rx="2.23" ry="2.23" fill="url(#c)" stroke="url(#d)" stroke-width=".5" stroke-linecap="round" stroke-linejoin="round"/><path d="M19.36 12.76c-2.08 0-4.3.24-6.67.71-2.4.55-4.74 1.7-6.97 3.49-.38.36-.74.73-1.08 1.1V35.7c2.11 2.2 5.06 3.33 8.86 3.38.77 0 1.56-.06 2.43-.16l-.48 1.32c-.2.44-.29.99-.29 1.66 0 1.11.25 2.05.77 2.85.44.81.96 1.6 1.53 2.32-1.78.05-4.03.26-6.73.65-2.1.37-4.13 1.03-6.09 1.96v5a8 8 0 0 1 3.99-3.6l1.68-.7c1.69-.49 3.32-.82 4.93-1.05.82-.07 1.47-.13 1.98-.15.5-.03.86-.03 1.06 0 .66 0 1.24.02 1.74.07a46.67 46.67 0 0 1 6.38 5.01 7.31 7.31 0 0 1 1.95 4.9H33.05c.22-.9.36-1.84.36-2.81-.05-2.6-.66-4.72-1.87-6.33a26.76 26.76 0 0 0-4.51-4.32l-2.74-2.14c-.4-.37-.8-.8-1.22-1.3a2.76 2.76 0 0 1-.73-1.97c0-.82.24-1.52.73-2.14.42-.59.88-1.13 1.38-1.6.86-.7 1.68-1.37 2.45-2.03.69-.67 1.33-1.4 1.95-2.2 1.26-1.63 1.93-3.81 1.98-6.53 0-1.49-.18-2.8-.53-3.9a14.42 14.42 0 0 0-3.2-5.1c-.61-.56-1.16-.99-1.65-1.29h4.72l4.85-2.74H19.36zm-4.8 2.53c1.6.05 3.03.5 4.27 1.37 1.21.92 2.18 2.1 2.93 3.56a19.48 19.48 0 0 1 2.4 9.05c0 .69-.1 1.57-.24 2.58a6.88 6.88 0 0 1-1.66 2.95 7.52 7.52 0 0 1-5.2 2.17 6.52 6.52 0 0 1-4.16-1.45 11.76 11.76 0 0 1-2.98-3.54 18.2 18.2 0 0 1-2.38-8.57 9.17 9.17 0 0 1 1.72-5.64 6.97 6.97 0 0 1 5.3-2.48z" fill="url(#e)" stroke-width=".84"/></svg>