<svg xmlns="http://www.w3.org/2000/svg" xmlns:xlink="http://www.w3.org/1999/xlink" width="64" height="64"><defs><linearGradient id="d"><stop offset="0" stop-color="#333"/><stop offset="1"/></linearGradient><linearGradient id="c"><stop offset="0" stop-color="#1a1a1a"/><stop offset="1" stop-color="#333"/></linearGradient><linearGradient id="b"><stop offset="0" stop-color="#f9f9f9"/><stop offset="1" stop-color="#f9f9f9" stop-opacity="0"/></linearGradient><linearGradient id="a"><stop offset="0" stop-color="#f9f9f9"/><stop offset="1" stop-color="gray"/></linearGradient><radialGradient id="f" cx="12.01" cy="13.2" r="20" gradientTransform="matrix(0 2.20138 -2.6867 0 54.7 -11.37)" gradientUnits="userSpaceOnUse"><stop offset="0" stop-color="#4d4d4d"/><stop offset=".26" stop-color="#333"/><stop offset=".7"/><stop offset="1"/></radialGradient><linearGradient id="g" x1="24" x2="24" y1="44" y2="3.9" gradientTransform="matrix(1.1086 0 0 1.31027 5.39 -2.33)" gradientUnits="userSpaceOnUse"><stop offset="0"/><stop offset="1" stop-color="#333"/></linearGradient><filter id="h" x="-.14" width="1.29" y="-.14" height="1.29"><feGaussianBlur stdDeviation=".48"/></filter><filter id="j" x="-.14" width="1.29" y="-.14" height="1.29"><feGaussianBlur stdDeviation=".48"/></filter><filter id="k" x="-.14" width="1.29" y="-.14" height="1.29"><feGaussianBlur stdDeviation=".48"/></filter><filter id="l" x="-.14" width="1.29" y="-.14" height="1.29"><feGaussianBlur stdDeviation=".48"/></filter><linearGradient id="e" x1="24" x2="24" y1="44" y2="3.9" gradientTransform="matrix(1.10798 0 0 1.4665 5.4 -3.02)" gradientUnits="userSpaceOnUse"><stop offset="0"/><stop offset="1" stop-color="#333"/></linearGradient><filter id="m" x="-.09" width="1.18" y="-.09" height="1.18" color-interpolation-filters="sRGB"><feGaussianBlur stdDeviation=".29"/></filter><radialGradient xlink:href="#b" id="i" cx="13.15" cy="6.04" fx="13.15" fy="6.04" r="2.76" gradientUnits="userSpaceOnUse" gradientTransform="matrix(.93488 1.36689 -1.31553 .89976 10.02 -15.67)"/><radialGradient xlink:href="#b" id="n" cx="13.15" cy="6.04" fx="13.15" fy="6.04" r="2.76" gradientUnits="userSpaceOnUse" gradientTransform="matrix(.93488 1.36689 -1.31553 .89976 43 -15.67)"/><radialGradient xlink:href="#b" id="o" cx="13.15" cy="6.04" fx="13.15" fy="6.04" r="2.76" gradientUnits="userSpaceOnUse" gradientTransform="matrix(.93488 1.36689 -1.31553 .89976 43 25.16)"/><radialGradient xlink:href="#b" id="p" cx="13.15" cy="6.04" fx="13.15" fy="6.04" r="2.76" gradientUnits="userSpaceOnUse" gradientTransform="matrix(.93488 1.36689 -1.31553 .89976 9.8 25.26)"/><linearGradient xlink:href="#c" id="r" x1="-19.1" y1="14.89" x2="-19.11" y2="39.95" gradientUnits="userSpaceOnUse"/><radialGradient xlink:href="#d" id="q" cx="28.71" cy="29.52" fx="28.71" fy="29.52" r="6.26" gradientUnits="userSpaceOnUse" gradientTransform="matrix(-1.63908 -3.34062 2.80367 -1.37562 2.32 175.58)"/></defs><rect x="10.39" y="3.58" width="43.21" height="57.2" rx="1.76" ry="2.33" fill="gray" stroke="url(#e)" stroke-width=".45" stroke-linecap="round" stroke-linejoin="round"/><rect x="10.38" y="3.57" width="43.24" height="51.1" rx="1.76" ry="2.08" fill="url(#f)" stroke="url(#g)" stroke-width=".42" stroke-linecap="round" stroke-linejoin="round"/><circle transform="translate(-39.99 3.77) scale(.64508)" r="4" cy="7.5" cx="86" opacity=".7" stroke="#000" stroke-width=".5" filter="url(#h)"/><circle r="2.58" cy="8.41" cx="15.49" fill="url(#i)"/><circle transform="translate(-7.01 3.77) scale(.64508)" r="4" cy="7.5" cx="86" opacity=".7" stroke="#000" stroke-width=".5" filter="url(#j)"/><circle transform="translate(-40.21 44.7) scale(.64508)" r="4" cy="7.5" cx="86" opacity=".7" stroke="#000" stroke-width=".5" filter="url(#k)"/><circle transform="translate(-7.01 44.59) scale(.64508)" r="4" cy="7.5" cx="86" opacity=".7" stroke="#000" stroke-width=".5" filter="url(#l)"/><path d="M17.97 56.34h28.06v3.74H17.97z" fill="#292c2e"/><path d="M19.84 57.28v1.87h1.87v-1.87zm2.8 0v1.87h1.88v-1.87zm2.81 0v1.87h1.87v-1.87zm2.8 0v1.87h1.88v-1.87zm2.81 0v1.87h1.87v-1.87zm2.81 0v1.87h1.87v-1.87zm2.8 0v1.87h1.88v-1.87zm2.81 0v1.87h1.87v-1.87zm2.8 0v1.87h1.88v-1.87z" fill="#ff0"/><circle transform="translate(-235.74 4.78) scale(3.11142)" r="4" cy="7.5" cx="86" opacity=".7" stroke="#000" stroke-width=".5" filter="url(#m)"/><circle r="2.58" cy="8.41" cx="48.47" fill="url(#n)"/><circle r="2.58" cy="49.24" cx="48.47" fill="url(#o)"/><circle r="2.58" cy="49.34" cx="15.27" fill="url(#p)"/><circle style="marker:none" transform="scale(-1 1)" cx="-31.88" cy="27.18" r="12.27" color="#000" overflow="visible" fill="red" enable-background="accumulate"/><path style="marker:none" d="M25.75 16.55A12.27 12.27 0 0 0 20.03 24l11.85 3.18z" color="#000" overflow="visible" fill="#f60" enable-background="accumulate"/><path d="M43.73 24a12.27 12.27 0 0 0-11.85-9.09v12.27z" style="marker:none" color="#000" overflow="visible" fill="#2a7fff" enable-background="accumulate"/><path style="marker:none" d="M20.03 24a12.27 12.27 0 0 0 5.72 13.8l6.13-10.62z" color="#000" overflow="visible" fill="#0f0" enable-background="accumulate"/><path style="marker:none" d="M31.88 14.91a12.27 12.27 0 0 0-6.13 1.64l6.13 10.63z" color="#000" overflow="visible" fill="#7137c8" enable-background="accumulate"/><circle transform="matrix(-.23646 0 0 -.23646 39.56 34.84)" style="marker:none" cx="32.5" cy="32.25" r="19.03" color="#000" overflow="visible" enable-background="accumulate" fill="url(#q)"/><circle style="marker:none" transform="scale(-1 1)" cx="-31.88" cy="27.18" r="12.27" color="#000" overflow="visible" fill="none" stroke="url(#r)" enable-background="accumulate"/></svg>