<svg xmlns="http://www.w3.org/2000/svg" xmlns:xlink="http://www.w3.org/1999/xlink" width="64" height="64" version="1" viewBox="0 0 60 60"><defs><linearGradient id="a"><stop offset="0" stop-color="#fff"/><stop offset="1" stop-color="#fff" stop-opacity="0"/></linearGradient><linearGradient id="d"><stop offset="0"/><stop offset="1" stop-opacity="0"/></linearGradient><linearGradient id="b"><stop offset="0" stop-color="#dfdfdf"/><stop offset="1" stop-color="#606060"/></linearGradient><linearGradient id="c"><stop offset="0" stop-color="#b3b3b3"/><stop offset="1" stop-color="#333"/></linearGradient><linearGradient id="e"><stop offset="0" stop-color="#666"/><stop offset="1" stop-color="#333"/></linearGradient><linearGradient id="f"><stop offset="0" stop-color="#1a1a1a"/><stop offset="1"/></linearGradient><linearGradient id="g"><stop offset="0" stop-color="#b3b3b3"/><stop offset="1" stop-color="#666"/></linearGradient><linearGradient id="h"><stop offset="0" stop-color="#fff" stop-opacity=".43"/><stop offset="1" stop-color="#fff" stop-opacity="0"/></linearGradient><radialGradient xlink:href="#h" id="p" cx="87.26" cy="48.89" fx="87.26" fy="99.35" r="74.64" gradientUnits="userSpaceOnUse" gradientTransform="matrix(.22039 0 0 .16452 -30.64 44.53)"/><clipPath id="m"><circle r="99.09" cy="661.71" cx="513.65" transform="translate(-816.25 -161.96) scale(1.01142)" stroke-width="2.8" stroke-linecap="round" stroke-linejoin="round"/></clipPath><filter id="n" x="-.11" width="1.22" y="-.21" height="1.42"><feGaussianBlur stdDeviation="9.12"/></filter><filter id="o"><feGaussianBlur stdDeviation="3.04"/></filter><linearGradient xlink:href="#i" id="l" x1="-101.81" y1="364.36" x2="-96.49" y2="351.33" gradientUnits="userSpaceOnUse" gradientTransform="scale(-.42266 .42266) rotate(23.87 686.77 249.9)"/><linearGradient id="i"><stop offset="0" stop-color="#1a1a1a"/><stop offset="1" stop-color="#fff"/></linearGradient><clipPath id="j"><path d="M203.36 387.44c-4.62-.02-9.97 1.1-16.1 3.65a3.45 3.45 0 1 0 2.66 6.35c11.03-4.6 17.06-3.7 21.85-.94 4.79 2.76 8.53 8.1 13.09 13.44a3.45 3.45 0 1 0 5.25-4.47c-4.2-4.92-8.26-11.14-14.9-14.97a23.45 23.45 0 0 0-11.85-3.06z" fill="#ffe804" fill-rule="evenodd" stroke-width="6.9" stroke-linecap="round" stroke-linejoin="round"/></clipPath><filter id="k" x="-.07" width="1.15" y="-.16" height="1.32"><feGaussianBlur stdDeviation="1.41"/></filter></defs><path d="M38.88 3.87c1.27-.56 2.87-.95 4.85-1.08a.96.96 0 0 1 .93.4c.2.28.19.66-.02 1-.22.29-.59.49-.97.48-3.54.23-5.11 1.18-6.13 2.44-1.02 1.26-1.49 3.02-2.15 4.9a1.08 1.08 0 0 1-.78.7 1.03 1.03 0 0 1-.98-.22.85.85 0 0 1-.18-.95c.62-1.71 1.07-3.73 2.5-5.48a7.79 7.79 0 0 1 2.94-2.17z" fill="#ffe804" fill-rule="evenodd"/><g fill-rule="evenodd"><path transform="rotate(-156.13 38.77 -52.2) scale(.30172 -.2672)" clip-path="url(#j)" d="M202.47 391.2c-3.49 0-7.74.95-13.25 3.25-1.16.6-2.54.47-3.6-.29-.3-.22-.6-.48-.81-.78a3.43 3.43 0 0 0 .81 4.78c1.06.76 2.44.88 3.6.29 11.03-4.6 17.05-3.7 21.84-.94 4.79 2.76 8.53 8.1 13.1 13.44.77 1 2.03 1.49 3.28 1.28a3.51 3.51 0 0 0 2.71-2.32c.36-1.05.16-2.2-.46-3.09a3.43 3.43 0 0 1-5.53.13c-4.57-5.33-8.31-10.68-13.1-13.44a16.56 16.56 0 0 0-8.6-2.31z" fill="#f0b400" filter="url(#k)"/><path d="M202.47 392.28c-3.49 0-7.74.95-13.25 3.25-1.16.6-2.54.48-3.6-.28-.3-.22-.6-.48-.81-.78a3.43 3.43 0 0 0 .81 4.78c1.06.76 2.44.88 3.6.28 11.03-4.6 17.05-3.7 21.84-.93 4.79 2.76 8.53 8.1 13.1 13.43.77 1 2.03 1.5 3.28 1.29a3.51 3.51 0 0 0 2.71-2.32c.36-1.05.16-2.2-.46-3.1a3.43 3.43 0 0 1-5.53.13c-4.57-5.32-8.31-10.67-13.1-13.43a16.56 16.56 0 0 0-8.6-2.32z" clip-path="url(#j)" transform="rotate(-156.13 38.77 -52.2) scale(.30172 -.2672)" fill="#f08400" filter="url(#k)"/></g><path d="M36.46 12.02a16.35 16.35 0 0 0-3.93-.72c-.67-.04-1.28.3-1.4.97l-.74 3.91c-.13.68.3 1.31.97 1.43l3.93.73a1.2 1.2 0 0 0 1.42-.97l.73-3.93c.13-.65-.34-1.21-.98-1.42z" fill="url(#l)"/><circle cx="-12.21" cy="44.17" r="22.01" transform="scale(-1 1) rotate(23.87)" fill="#1a1a1a"/><g transform="scale(.21967 -.21967) rotate(23.57 1516.59 1202.08)" clip-path="url(#m)" opacity=".29" fill="#fff"><path d="M-296.74 402.1c-55.32 0-100.2 44.9-100.2 100.22 0 1.62.06 3.24.13 4.84 2.69-52.92 46.47-95.06 100.07-95.06 53.59 0 97.4 42.14 100.09 95.06.08-1.6.12-3.22.12-4.84 0-55.32-44.9-100.22-100.21-100.22z" filter="url(#n)"/><path d="M-296.74 399.1c-55.32 0-100.2 44.9-100.2 100.22 0 1.62.06 3.24.13 4.84 2.69-52.92 46.47-95.06 100.07-95.06 53.59 0 97.4 42.14 100.09 95.06.08-1.6.12-3.22.12-4.84 0-55.32-44.9-100.22-100.21-100.22z" filter="url(#o)"/></g><g clip-path="url(#m)" transform="scale(-.21967 .21967) rotate(23.87 603.94 723.89)" opacity=".77" fill="#fff"><path d="M-296.74 402.1c-55.32 0-100.2 44.9-100.2 100.22 0 1.62.06 3.24.13 4.84 2.69-52.92 46.47-95.06 100.07-95.06 53.59 0 97.4 42.14 100.09 95.06.08-1.6.12-3.22.12-4.84 0-55.32-44.9-100.22-100.21-100.22z" filter="url(#n)"/><path d="M-296.74 399.1c-55.32 0-100.2 44.9-100.2 100.22 0 1.62.06 3.24.13 4.84 2.69-52.92 46.47-95.06 100.07-95.06 53.59 0 97.4 42.14 100.09 95.06.08-1.6.12-3.22.12-4.84 0-55.32-44.9-100.22-100.21-100.22z" filter="url(#o)"/></g><ellipse cx="-11.4" cy="52.57" rx="16.44" ry="12.28" transform="scale(-1 1) rotate(23.87)" fill="url(#p)"/></svg>