<svg xmlns="http://www.w3.org/2000/svg" xmlns:xlink="http://www.w3.org/1999/xlink" width="64" height="64" viewBox="0 0 16.93 16.93"><defs><linearGradient id="b"><stop offset="0" stop-color="teal"/><stop offset="1" stop-color="#0ff"/></linearGradient><radialGradient xlink:href="#a" id="c" cx="4.48" cy="4.21" fx="4.48" fy="4.21" r="4.34" gradientTransform="matrix(1.85251 0 0 1.28972 -3.3 .28)" gradientUnits="userSpaceOnUse"/><linearGradient id="a"><stop offset="0" stop-color="#333"/><stop offset="1"/></linearGradient><linearGradient xlink:href="#b" id="d" x1="8.09" y1="8.62" x2="15.26" y2="8.62" gradientUnits="userSpaceOnUse"/></defs><path d="M2.28 2.86c-1.03 0-1.86.34-1.86.75v9.71c0 .42.83.75 1.86.75 1.04 0 1.87-.33 1.87-.75v-2.54H6.7v2.44c0 .45 1.31.82 2.94.82h3.94c1.63 0 2.94-.37 2.94-.82V3.68c0-.45-1.31-.82-2.94-.82H9.64c-1.63 0-2.94.37-2.94.82v3.46H4.15V3.61c0-.41-.83-.75-1.87-.75z" fill="url(#c)" stroke-width=".13" stroke="#666"/><path d="M8.1 4.22h7.16v5.49H10.4v1.14h4.86v2.17H8.09V7.54h5V6.4h-5z" fill="url(#d)" stroke-width="1.85"/></svg>