<svg xmlns="http://www.w3.org/2000/svg" xmlns:xlink="http://www.w3.org/1999/xlink" width="64" height="64" version="1"><defs><linearGradient id="a"><stop offset="0" stop-color="#4d4d4d"/><stop offset="1"/></linearGradient><radialGradient xlink:href="#a" id="c" cx="16" cy="19.25" fx="16" fy="19.25" r="28" gradientUnits="userSpaceOnUse" gradientTransform="matrix(.88378 .33898 -.35812 .93367 8.75 -4.15)"/><linearGradient id="b"><stop offset="0" stop-color="#fea"/><stop offset="1" stop-color="#fc0"/></linearGradient></defs><path d="M32 4C16.49 4 4 16.49 4 32s12.49 28 28 28 28-12.49 28-28S47.51 4 32 4z" fill="url(#c)"/><path d="M32.584 11.02c-1.839-.088-3.642 1.292-3.882 3.167a4.874 4.874 0 0 0-.062.816c.888 8.709 1.913 17.366 2.67 26.111h2.422c.627-8.4 1.647-16.75 2.378-25.134.376-1.985-.648-4.346-2.743-4.827a3.385 3.385 0 0 0-.783-.132zm-.267 35.38a3.605 3.605 0 0 0-2.44.92 3.955 3.955 0 0 0-1.504 3.103c-.094 2.59 2.76 4.624 5.194 3.803 2.361-.606 3.604-3.57 2.397-5.68a4.064 4.064 0 0 0-3.642-2.146h-.002z" opacity=".3" fill="#fff"/><path d="M31.87 10.307c-1.838-.089-3.641 1.291-3.882 3.167a4.874 4.874 0 0 0-.062.815c.888 8.709 1.913 17.366 2.67 26.111h2.422c.627-8.4 1.647-16.749 2.378-25.134.376-1.985-.648-4.346-2.743-4.827a3.385 3.385 0 0 0-.782-.132zm-.267 35.38a3.605 3.605 0 0 0-2.44.92 3.955 3.955 0 0 0-1.504 3.102c-.094 2.591 2.76 4.624 5.194 3.804 2.362-.606 3.604-3.57 2.398-5.68a4.064 4.064 0 0 0-3.642-2.147h-.003z" fill="#fff"/></svg>