<svg xmlns="http://www.w3.org/2000/svg" xmlns:xlink="http://www.w3.org/1999/xlink" width="64" height="64" version="1"><defs><linearGradient id="b"><stop offset="0" stop-color="#f7c73c"/><stop offset=".48" stop-color="#2cbfeb"/><stop offset="1" stop-color="#6655e4"/></linearGradient><radialGradient gradientTransform="matrix(2.07143 0 0 2.07143 -17.71 -17.71)" xlink:href="#a" id="c" cx="18.12" cy="18.12" fx="18.12" fy="18.12" r="14" gradientUnits="userSpaceOnUse"/><linearGradient id="a"><stop offset="0" stop-color="#4d4d4d"/><stop offset="1"/></linearGradient><linearGradient xlink:href="#b" id="d" gradientUnits="userSpaceOnUse" gradientTransform="matrix(2.07143 0 0 2.07143 -17.42 -17.71)" x1="14" y1="23.98" x2="29.69" y2="23.98"/></defs><path d="M58.93 61H5.07A2.07 2.07 0 0 1 3 58.93V5.07C3 3.93 3.93 3 5.07 3h53.86C60.07 3 61 3.93 61 5.07v53.86c0 1.14-.93 2.07-2.07 2.07z" fill="url(#c)"/><path d="M9.96 12.03V33.4h4.4v-9.7h8.48v9.7h4.4V12.03h-4.43v8h-8.45v-8h-4.4zm21.95 0V33.4h9.62c1.42 0 2.66-.2 3.7-.58a5.2 5.2 0 0 0 2.31-1.56 6.14 6.14 0 0 0 1.5-4.02c0-2.07-1.19-3.8-3.55-5.19a7.53 7.53 0 0 0 2.26-2c.45-.68.67-1.48.67-2.4a5 5 0 0 0-.32-1.73 6.4 6.4 0 0 0-1.06-1.79 4.9 4.9 0 0 0-2.17-1.52c-.96-.4-2.1-.6-3.43-.6H31.9zm4.4 3.67h4.78c2.07 0 3.1.8 3.1 2.43 0 1.6-1.03 2.4-3.1 2.4H36.3V15.7zm0 8.5h5.25c2.17 0 3.25.93 3.25 2.79 0 1.84-1.08 2.76-3.25 2.76H36.3V24.2zM11.57 46.5v4.14h18.64V46.5H11.58z" fill="url(#d)"/></svg>