<?xml version="1.0" encoding="UTF-8" standalone="no"?><!--Created with Inkscape (http://www.inkscape.org/)--><svg xmlns:dc="http://purl.org/dc/elements/1.1/" xmlns:cc="http://creativecommons.org/ns#" xmlns:rdf="http://www.w3.org/1999/02/22-rdf-syntax-ns#" xmlns="http://www.w3.org/2000/svg" xmlns:xlink="http://www.w3.org/1999/xlink" width="64" height="64" viewBox="0 0 60 60"><defs><linearGradient id="e"><stop offset="0" stop-color="#fff"/><stop offset=".49" stop-color="#fff" stop-opacity=".06"/><stop offset="1" stop-color="#fff" stop-opacity="0"/></linearGradient><linearGradient id="b"><stop offset="0" stop-color="#87aade"/><stop offset="1" stop-color="#0055d4"/></linearGradient><linearGradient id="a"><stop offset="0" stop-color="#4d4d4d"/><stop offset="1"/></linearGradient><linearGradient id="c"><stop offset="0"/><stop offset="1" stop-color="#4d4d4d"/></linearGradient><radialGradient xlink:href="#d" id="g" cx="-46.17" cy="33.98" fx="-46.17" fy="33.98" r="13.5" gradientUnits="userSpaceOnUse" gradientTransform="matrix(3.06338 .78959 -.69019 2.67774 121.93 -11.82)"/><linearGradient id="d" x1="17.51" x2="4.51" y1="17.51" y2="4.51" gradientTransform="matrix(2.0764 0 0 2.0772 -58.86 .13)" gradientUnits="userSpaceOnUse"><stop offset="0" stop-color="#333"/><stop offset="1"/></linearGradient><radialGradient id="f" cx="4.08" cy="5.08" r="9.99" gradientTransform="matrix(3.95687 2.48988 -1.39399 2.21529 7.02 -6.94)" gradientUnits="userSpaceOnUse" fx="4.08" fy="5.08"><stop offset="0" stop-color="#333"/><stop offset="1"/></radialGradient><linearGradient xlink:href="#e" id="h" x1="-10.68" y1="12.28" x2="-17.45" y2="51.14" gradientUnits="userSpaceOnUse"/></defs><metadata><rdf:RDF><cc:Work><dc:format>image/svg+xml</dc:format><dc:type rdf:resource="http://purl.org/dc/dcmitype/StillImage"/><dc:title/></cc:Work></rdf:RDF></metadata><rect ry="2.34" rx="2.34" height="49.69" width="49.69" y="5.16" x="5.16" fill="url(#f)"/><rect ry="1.38" rx="1.38" height="34.4" width="34.4" y="11.53" x="-47.2" transform="scale(-1 1)" fill="url(#g)"/><path d="M33.64 38.86l2.73.06v2.55H24.9v-2.55h2.55v-10.2H24.9v-2.54h8.92v12.74M33.82 20.45a3.19 3.19 0 1 1-6.37 0 3.19 3.19 0 1 1 6.37 0z" fill="#fff"/><rect ry="1.38" rx="1.38" height="34.4" width="34.4" y="11.53" x="-47.2" transform="scale(-1 1)" opacity=".44" fill="url(#h)"/></svg>