<svg xmlns="http://www.w3.org/2000/svg" xmlns:xlink="http://www.w3.org/1999/xlink" width="64" height="64"><defs><linearGradient id="a"><stop offset="0"/><stop offset="1" stop-color="#1a1a1a"/></linearGradient><radialGradient id="b" cx="12.01" cy="13.2" r="20" gradientTransform="matrix(0 2.36188 -3.40694 0 60.79 -11.43)" gradientUnits="userSpaceOnUse"><stop offset="0" stop-color="#4d4d4d"/><stop offset=".26" stop-color="#333"/><stop offset=".7"/><stop offset="1"/></radialGradient><linearGradient id="c" x1="24" x2="24" y1="44" y2="3.9" gradientTransform="translate(-1.74 -1.74) scale(1.4058)" gradientUnits="userSpaceOnUse"><stop offset="0"/><stop offset="1" stop-color="#333"/></linearGradient><filter id="f" x="-.07" y="-.15" width="1.14" height="1.31" color-interpolation-filters="sRGB"><feGaussianBlur stdDeviation="1.02"/></filter><linearGradient gradientTransform="matrix(1.22222 0 0 1.22222 -7.1 -2.22)" xlink:href="#a" id="e" x1="16.57" y1="28" x2="47.43" y2="28" gradientUnits="userSpaceOnUse"/></defs><rect x="4.59" y="4.59" width="54.83" height="54.83" rx="2.23" ry="2.23" fill="url(#b)" stroke="url(#c)" stroke-width=".5" stroke-linecap="round" stroke-linejoin="round"/><g transform="matrix(1.04762 0 0 1.04762 -1.52 1.62)" fill="#efce27"><rect style="marker:none" width="2" height="4" x="17" y="8" rx="1" ry="1" overflow="visible" id="d" color="#000" stroke-width="2"/><use xlink:href="#d" transform="translate(4)" width="64" height="64"/><use xlink:href="#d" transform="rotate(90 32 29)" width="64" height="64"/><use xlink:href="#d" transform="matrix(0 1 1 0 3 -3)" width="64" height="64"/><use height="64" width="64" transform="translate(0 38)" xlink:href="#d"/><use height="64" width="64" transform="translate(16)" xlink:href="#d"/><use height="64" width="64" transform="rotate(90 26 35)" xlink:href="#d"/><use height="64" width="64" transform="matrix(0 1 1 0 3 9)" xlink:href="#d"/><use xlink:href="#d" transform="translate(12 38)" width="64" height="64"/><use xlink:href="#d" transform="translate(8)" width="64" height="64"/><use xlink:href="#d" transform="rotate(90 30 31)" width="64" height="64"/><use xlink:href="#d" transform="matrix(0 1 1 0 3 1)" width="64" height="64"/><use height="64" width="64" transform="translate(4 38)" xlink:href="#d"/><use height="64" width="64" transform="translate(20)" xlink:href="#d"/><use height="64" width="64" transform="rotate(90 24 37)" xlink:href="#d"/><use height="64" width="64" transform="matrix(0 1 1 0 3 13)" xlink:href="#d"/><use xlink:href="#d" transform="translate(16 38)" width="64" height="64"/><use height="64" width="64" transform="translate(12)" xlink:href="#d"/><use height="64" width="64" transform="rotate(90 28 33)" xlink:href="#d"/><use height="64" width="64" transform="matrix(0 1 1 0 3 5)" xlink:href="#d"/><use xlink:href="#d" transform="translate(8 38)" width="64" height="64"/><use height="64" width="64" transform="translate(24)" xlink:href="#d"/><use height="64" width="64" transform="rotate(90 22 39)" xlink:href="#d"/><use height="64" width="64" transform="matrix(0 1 1 0 3 17)" xlink:href="#d"/><use xlink:href="#d" transform="translate(20 38)" width="64" height="64"/><use xlink:href="#d" transform="translate(28)" width="64" height="64"/><use height="64" width="64" transform="rotate(90 20 41)" xlink:href="#d"/><use height="64" width="64" transform="matrix(0 1 1 0 3 21)" xlink:href="#d"/><use xlink:href="#d" transform="translate(24 38)" width="64" height="64"/><use xlink:href="#d" transform="rotate(90 18 43)" width="64" height="64"/><use xlink:href="#d" transform="matrix(0 1 1 0 3 25)" width="64" height="64"/><use height="64" width="64" transform="translate(28 38)" xlink:href="#d"/></g><path style="marker:none" d="M15.25 13.14l-2.1 2.1v33.5l2.1 2.11h33.5l2.1-2.1v-33.5l-2.1-2.1z" overflow="visible" color="#000" fill="url(#e)"/><path d="M6.93 27.5h6.57l2-10 4 15 3-9 3 6 3-2h12.58" transform="matrix(1.05802 0 0 1.05802 6.6 5.47)" fill="none" stroke="#0f0" stroke-width="1.3" stroke-linecap="round" stroke-linejoin="round" filter="url(#f)"/><path d="M13.93 34.57h6.96L23 23.98l4.23 15.87 3.18-9.52 3.17 6.35 3.17-2.11h13.32" fill="none" stroke="#0f0" stroke-width=".69" stroke-linecap="round" stroke-linejoin="round"/></svg>