<svg xmlns="http://www.w3.org/2000/svg" xmlns:xlink="http://www.w3.org/1999/xlink" width="64" height="64" viewBox="0 0 48 48"><defs><linearGradient id="e"><stop offset="0"/><stop offset="1" stop-opacity=".01"/></linearGradient><filter id="a" width="1" height="1" x="0" y="0" filterUnits="objectBoundingBox"><feColorMatrix in="SourceGraphic" values="0 0 0 0 1 0 0 0 0 1 0 0 0 0 1 0 0 0 1 0"/></filter><clipPath id="b"><path d="M0 0h384v384H0z"/></clipPath><linearGradient id="d"><stop offset="0"/><stop offset="1" stop-color="#333"/></linearGradient><linearGradient xlink:href="#c" id="g" gradientUnits="userSpaceOnUse" gradientTransform="matrix(.13133 0 0 .13133 -1.81 -1.11)" x1="212.88" y1="27.39" x2="212.88" y2="230.08"/><linearGradient id="c"><stop offset="0" stop-color="#fff"/><stop offset="1" stop-color="#fff" stop-opacity="0"/></linearGradient><radialGradient xlink:href="#d" id="f" cx="30.04" cy="-.73" fx="30.04" fy="-.73" r="22.52" gradientTransform="matrix(-1.01118 1.71828 -1.55878 -.91731 51.95 -35.01)" gradientUnits="userSpaceOnUse"/><linearGradient xlink:href="#e" id="h" x1="24.43" y1="41.98" x2="24.87" y2="22.23" gradientUnits="userSpaceOnUse"/></defs><path d="M23.62 1.8c-1.4-.02-2.77.5-3.77 1.52L3.22 20.33c-5.62 6.96 3.82 6.15 7.87 8.15 1.45 1.49-5.57 2.58-4.11 4.07 1.45 1.48 8.77 2.86 10.23 4.34 1.45 1.48-2.97 3.06-1.52 4.54 1.45 1.48 4.8.03 5.44 3.46.44 2.45 6.05 1.1 8.79-.9 1.45-1.5-2.78-1.36-1.33-2.84 3.61-3.7 6.97-1.34 8.2-5.04.62-1.83-5.3-2.81-3.85-4.3 4.17-2.44 18.61-4.03 11.76-10.88L27.47 3.32a5.58 5.58 0 0 0-3.85-1.53zm-7.75 27.6c.44.28 7.16 1.64 8.8 1.92.57.12.17.7-.62 1.1-1.77.47-10.35-3.02-8.18-3.02z" fill="url(#f)"/><path d="M26.64 3.8l6.98 7.1c.66.67.65 1.99.28 2.36l-3.47-2.77-.68 4.1-2.9-1.52L22.23 16l-1.54-6.18-2.49 4.31h-3.8c-1.56 0-1.74-1.97-.33-3.38 2.46-2.66 5.3-5.37 6.83-6.94a4.12 4.12 0 0 1 5.75 0z" fill="url(#g)"/><path d="M23.62 1.8c-1.4-.02-2.77.5-3.77 1.52L3.22 20.33c-5.62 6.96 3.82 6.15 7.87 8.15 1.45 1.49-5.57 2.58-4.11 4.07 1.45 1.48 8.77 2.86 10.23 4.34 1.45 1.48-2.97 3.06-1.52 4.54 1.45 1.48 4.8.03 5.44 3.46.44 2.45 6.05 1.1 8.79-.9 1.45-1.5-2.78-1.36-1.33-2.84 3.61-3.7 6.97-1.34 8.2-5.04.62-1.83-5.3-2.81-3.85-4.3 4.17-2.44 18.61-4.03 11.76-10.88L27.47 3.32a5.58 5.58 0 0 0-3.85-1.53zm-7.75 27.6c.44.28 7.16 1.64 8.8 1.92.57.12.17.7-.62 1.1-1.77.47-10.35-3.02-8.18-3.02z" fill="url(#h)"/></svg>