<svg xmlns="http://www.w3.org/2000/svg" xmlns:xlink="http://www.w3.org/1999/xlink" width="64" height="64" version="1"><defs><radialGradient gradientTransform="matrix(2.07143 0 0 2.07143 -17.71 -17.71)" xlink:href="#a" id="c" cx="18.12" cy="18.12" fx="18.12" fy="18.12" r="14" gradientUnits="userSpaceOnUse"/><linearGradient id="a"><stop offset="0" stop-color="#4d4d4d"/><stop offset="1"/></linearGradient><linearGradient id="b" gradientUnits="userSpaceOnUse" x1="27.1" y1="21.22" x2="17.31" y2="15.19"><stop offset="0" stop-color="#22d88f"/><stop offset=".45" stop-color="#0baace"/><stop offset="1" stop-color="#e33c8c"/></linearGradient><linearGradient xlink:href="#b" id="d" gradientUnits="userSpaceOnUse" gradientTransform="matrix(2.07143 0 0 2.07143 -17.71 -17.71)" x1="14" y1="23.98" x2="21.03" y2="24.87"/></defs><path d="M58.93 61H5.07A2.07 2.07 0 0 1 3 58.93V5.07C3 3.93 3.93 3 5.07 3h53.86C60.07 3 61 3.93 61 5.07v53.86c0 1.14-.93 2.07-2.07 2.07z" fill="url(#c)"/><path d="M10.46 11.78v21.39h4.4V11.78h-4.4zm16.79 0V27.6c0 .8-.2 1.42-.62 1.85-.4.43-1 .65-1.76.65-.84 0-1.44-.22-1.82-.65-.37-.45-.55-1.16-.55-2.14v-2.05h-4.4v2.1c0 1.24.2 2.3.61 3.2.41.89.96 1.56 1.65 2.03.68.45 1.38.77 2.1.97.75.2 1.52.3 2.33.3 2.19 0 3.88-.55 5.07-1.62 1.2-1.1 1.79-2.64 1.79-4.64V11.8h-4.4zM11.29 46.5v4.14h18.64V46.5H11.29z" fill="url(#d)"/></svg>