<svg xmlns="http://www.w3.org/2000/svg" xmlns:xlink="http://www.w3.org/1999/xlink" width="64" height="64" version="1"><defs><linearGradient id="p"><stop offset="0"/><stop offset="1" stop-color="#333"/></linearGradient><linearGradient id="j"><stop offset="0"/><stop offset="1" stop-opacity="0"/></linearGradient><linearGradient id="m"><stop offset="0"/><stop offset="1" stop-opacity="0"/></linearGradient><linearGradient id="f"><stop offset="0" stop-color="#fff"/><stop offset="1" stop-color="#fff" stop-opacity="0"/></linearGradient><linearGradient id="c"><stop offset="0" stop-color="#fff"/><stop offset="1" stop-color="#fff" stop-opacity="0"/></linearGradient><linearGradient id="i"><stop offset="0" stop-color="#979797" stop-opacity=".17"/><stop offset="1" stop-color="#979797" stop-opacity="0"/></linearGradient><filter id="b"><feGaussianBlur stdDeviation=".61"/></filter><radialGradient xlink:href="#c" id="a" gradientUnits="userSpaceOnUse" gradientTransform="matrix(1 0 0 .62087 43.26 231.4)" cx="1310.64" cy="610.34" fx="1310.64" fy="610.34" r="51.33"/><filter id="e"><feGaussianBlur stdDeviation=".69"/></filter><radialGradient xlink:href="#f" id="d" gradientUnits="userSpaceOnUse" gradientTransform="matrix(1 0 0 .49853 -153.36 317.31)" cx="1187.06" cy="632.76" fx="1187.06" fy="632.76" r="63.54"/><radialGradient xlink:href="#i" id="g" gradientUnits="userSpaceOnUse" gradientTransform="matrix(.50708 -.25718 .14231 .2806 -401.75 160.07)" cx="1039.24" cy="629.07" fx="1028.07" fy="623.9" r="42.84"/><radialGradient xlink:href="#j" id="h" gradientUnits="userSpaceOnUse" gradientTransform="matrix(.42412 0 0 .31462 -226 -128.6)" cx="1071.08" cy="624.55" fx="1071.08" fy="624.55" r="42.84"/><radialGradient xlink:href="#i" id="k" gradientUnits="userSpaceOnUse" gradientTransform="matrix(.59903 -.14559 .0867 .35672 -594.63 16.06)" cx="1184.54" cy="651.28" fx="1168.84" fy="663.21" r="56.16"/><radialGradient xlink:href="#m" id="l" gradientUnits="userSpaceOnUse" gradientTransform="matrix(.45275 0 0 .24386 -359.47 -82.37)" cx="1201.27" cy="653.34" fx="1201.27" fy="653.34" r="55.21"/><linearGradient xlink:href="#f" id="u" gradientUnits="userSpaceOnUse" gradientTransform="matrix(.63047 0 0 .63047 -147.05 -3.08)" x1="223.99" y1="-16" x2="316.53" y2="52.31"/><radialGradient xlink:href="#n" id="t" gradientUnits="userSpaceOnUse" gradientTransform="matrix(.68973 0 0 .74165 -59.1 -29.78)" spreadMethod="pad" cx="42.7" cy="103.58" fx="42.7" fy="103.58" r="42.56"/><linearGradient id="n"><stop offset="0" stop-color="#4d4d4d"/><stop offset="1"/></linearGradient><radialGradient xlink:href="#o" id="r" gradientUnits="userSpaceOnUse" gradientTransform="matrix(1.3469 -.35476 .13611 .51677 -86.02 58.95)" cx="222.95" cy="16.64" fx="222.95" fy="16.64" r="8.27"/><linearGradient id="o"><stop offset="0" stop-color="#fff"/><stop offset="1" stop-color="#fff" stop-opacity=".03"/></linearGradient><filter id="s" x="-.08" width="1.15" y="-.15" height="1.3"><feGaussianBlur stdDeviation=".59"/></filter><linearGradient xlink:href="#p" id="q" gradientUnits="userSpaceOnUse" gradientTransform="matrix(-.6207 -.0613 0 .62372 -85.17 -2.67)" x1="-249.21" y1="71.51" x2="-192.93" y2="-26.96"/></defs><image y="772.36" x="878.43" height="320" width="450" xlink:href="/home/pinheiro/Desktop/58931,1166038365,2.jpg"/><path d="M54.87 6.39l-42-4.15c-.54-.05-1.04 0-1.5.16L7.13 3.64c-.13.42 1.68 2.08 1.68 2.57V51.6c0 2.42 1.8 4.54 4.04 4.76l38.95 5.29 4.51-1.28c1.52-.48 2.59-1.96 2.59-3.83V11.16c0-2.42-1.8-4.55-4.04-4.77z" fill="url(#q)"/><path d="M218.23-16.29a7.32 7.32 0 0 1 4.33 1.01c1.38 1.37 2.82 2.7 3.17 4.9.41 1.2.25 2.4 0 3.6l-18.63-1.7z" transform="matrix(.62372 0 0 .62372 -82.3 16.75)" fill="url(#r)" fill-rule="evenodd" filter="url(#s)"/><rect width="50.33" height="54.12" x="-54.81" y="2.65" rx="4.06" ry="4.37" transform="skewY(5.64) scale(-.99516 1)" fill="url(#t)"/><path d="M12.74 15.84a28.27 28.27 0 0 0-4.84-.07v7.1c1.57-.18 3.18-.23 4.84-.06 13.36 1.32 24.2 14.1 24.2 28.54 0 1.8-.18 3.52-.5 5.18l6.58.65c.25-1.68.38-3.41.38-5.2 0-18.28-13.73-34.47-30.66-36.14zm0 13.94c-1.7-.16-3.33-.07-4.89.26.03.2.05.41.05.63v6.8c1.48-.6 3.1-.89 4.84-.71 6.24.61 11.3 6.58 11.3 13.32 0 1.87-.4 3.6-1.11 5.12l6.88.68c.44-1.63.68-3.35.68-5.17 0-10.58-7.95-19.96-17.75-20.93zm0 13.95c-2.67-.26-4.84 1.87-4.84 4.75 0 2.89 2.17 5.45 4.84 5.71 2.68.26 4.84-1.86 4.84-4.75 0-2.89-2.16-5.45-4.84-5.71z" fill="#f60"/><path d="M7.85 4.07C6.28 4.09 5 5.39 5 7.24v45.87c0 1 .37 1.93.97 2.62L52.5 9.19a3.3 3.3 0 0 0-1.9-.9L8.15 4.09l-.31-.02z" opacity=".55" fill="url(#u)"/></svg>