<svg xmlns="http://www.w3.org/2000/svg" xmlns:xlink="http://www.w3.org/1999/xlink" width="64" height="64" version="1"><defs><linearGradient id="h"><stop offset="0"/><stop offset="1" stop-color="#333"/></linearGradient><linearGradient id="d"><stop offset="0"/><stop offset="1" stop-opacity="0"/></linearGradient><linearGradient id="e"><stop offset="0"/><stop offset="1" stop-opacity="0"/></linearGradient><linearGradient id="b"><stop offset="0" stop-color="#fff"/><stop offset="1" stop-color="#fff" stop-opacity="0"/></linearGradient><linearGradient id="a"><stop offset="0" stop-color="#fff"/><stop offset="1" stop-color="#fff" stop-opacity="0"/></linearGradient><linearGradient id="c"><stop offset="0" stop-color="#979797" stop-opacity=".17"/><stop offset="1" stop-color="#979797" stop-opacity="0"/></linearGradient><linearGradient xlink:href="#b" id="m" gradientUnits="userSpaceOnUse" gradientTransform="translate(-147.05 -3.08) scale(.63047)" x1="223.99" y1="-16" x2="316.53" y2="52.31"/><radialGradient xlink:href="#f" id="l" gradientUnits="userSpaceOnUse" gradientTransform="matrix(.68973 0 0 .74165 -59.1 -29.78)" spreadMethod="pad" cx="42.7" cy="103.58" fx="42.7" fy="103.58" r="42.56"/><linearGradient id="f"><stop offset="0" stop-color="#4d4d4d"/><stop offset="1"/></linearGradient><radialGradient xlink:href="#g" id="j" gradientUnits="userSpaceOnUse" gradientTransform="matrix(1.3469 -.35476 .13611 .51677 -86.02 58.95)" cx="222.95" cy="16.64" fx="222.95" fy="16.64" r="8.27"/><linearGradient id="g"><stop offset="0" stop-color="#fff"/><stop offset="1" stop-color="#fff" stop-opacity=".03"/></linearGradient><filter id="k" x="-.08" width="1.15" y="-.15" height="1.3"><feGaussianBlur stdDeviation=".59"/></filter><linearGradient xlink:href="#h" id="i" gradientUnits="userSpaceOnUse" gradientTransform="matrix(-.6207 -.0613 0 .62372 -85.17 -2.67)" x1="-249.21" y1="71.51" x2="-192.93" y2="-26.96"/></defs><path d="M54.87 6.39l-42-4.15c-.54-.05-1.04 0-1.5.16L7.13 3.64C7 4.06 8.81 5.72 8.81 6.21V51.6c0 2.42 1.8 4.54 4.04 4.76l38.95 5.29 4.51-1.28c1.52-.48 2.59-1.96 2.59-3.83V11.16c0-2.42-1.8-4.55-4.04-4.77z" fill="url(#i)"/><path d="M218.23-16.29a7.32 7.32 0 0 1 4.33 1.01c1.38 1.37 2.82 2.7 3.17 4.9.41 1.2.25 2.4 0 3.6l-18.63-1.7z" transform="translate(-82.3 16.75) scale(.62372)" fill="url(#j)" fill-rule="evenodd" filter="url(#k)"/><rect width="50.33" height="54.12" x="-54.81" y="2.65" rx="4.06" ry="4.37" transform="skewY(5.64) scale(-.99516 1)" fill="url(#l)"/><path d="M12.74 15.84a28.27 28.27 0 0 0-4.84-.07v7.1a22.3 22.3 0 0 1 4.84-.06c13.36 1.32 24.2 14.1 24.2 28.54 0 1.8-.18 3.52-.5 5.18l6.58.65c.25-1.68.38-3.41.38-5.2 0-18.28-13.73-34.47-30.66-36.14zm0 13.94c-1.7-.16-3.33-.07-4.89.26.03.2.05.41.05.63v6.8a10 10 0 0 1 4.84-.71c6.24.61 11.3 6.58 11.3 13.32 0 1.87-.4 3.6-1.11 5.12l6.88.68c.44-1.63.68-3.35.68-5.17 0-10.58-7.95-19.96-17.75-20.93zm0 13.95c-2.67-.26-4.84 1.87-4.84 4.75 0 2.89 2.17 5.45 4.84 5.71 2.68.26 4.84-1.86 4.84-4.75 0-2.89-2.16-5.45-4.84-5.71z" fill="#f60"/><path d="M7.85 4.07C6.28 4.09 5 5.39 5 7.24v45.87a4 4 0 0 0 .97 2.62L52.5 9.19a3.3 3.3 0 0 0-1.9-.9L8.15 4.09l-.31-.02z" opacity=".55" fill="url(#m)"/></svg>