<?xml version="1.0" encoding="UTF-8" standalone="no"?><!--Created with Inkscape (http://www.inkscape.org/)--><svg xmlns:dc="http://purl.org/dc/elements/1.1/" xmlns:cc="http://creativecommons.org/ns#" xmlns:rdf="http://www.w3.org/1999/02/22-rdf-syntax-ns#" xmlns="http://www.w3.org/2000/svg" width="64" height="64"><metadata><rdf:RDF><cc:Work><dc:format>image/svg+xml</dc:format><dc:type rdf:resource="http://purl.org/dc/dcmitype/StillImage"/><dc:title/></cc:Work></rdf:RDF></metadata><defs><linearGradient id="a"><stop offset="0"/><stop offset="1" stop-opacity="0"/></linearGradient><radialGradient id="d" cx="24" cy="9.49" r="18.5" gradientTransform="scale(5.69642 1.9057) rotate(90 15.05 3)" gradientUnits="userSpaceOnUse"><stop offset="0" stop-color="#fff"/><stop offset="1" stop-color="#fff" stop-opacity="0"/></radialGradient><radialGradient id="b" cx="12.01" cy="13.2" r="20" gradientTransform="matrix(0 2.36188 -3.40694 0 60.79 -11.43)" gradientUnits="userSpaceOnUse"><stop offset="0" stop-color="#4d4d4d"/><stop offset=".26" stop-color="#333"/><stop offset=".7"/><stop offset="1"/></radialGradient><linearGradient id="c" x1="24" x2="24" y1="44" y2="3.9" gradientTransform="matrix(1.4058 0 0 1.4058 -1.74 -1.74)" gradientUnits="userSpaceOnUse"><stop offset="0"/><stop offset="1" stop-color="#333"/></linearGradient></defs><rect x="4.59" y="4.59" width="54.83" height="54.83" rx="2.23" ry="2.23" fill="url(#b)" stroke="url(#c)" stroke-width=".5" stroke-linecap="round" stroke-linejoin="round"/><path d="M44.64 14.08L33.48 32.92l-9.8-10.06-8.43 18.06-9.67-19.73v7.03l9.53 20 9.45-20.04 9.62 9.84L45.64 17.4l13.07 5.2v-2.5l-14.07-6.02z" style="text-indent:0;text-transform:none" color="#000" opacity=".8" fill="#fff"/><path d="M15.57 43.86l-9.58-17v29.22C6 57.14 6.86 58 7.93 58h48.14c1.07 0 1.94-.87 1.94-1.93V21.85l-13.45-5.1-10.98 21.18-7.83-11.53-10.18 17.46z" opacity=".4" fill="url(#d)"/></svg>