<svg xmlns="http://www.w3.org/2000/svg" xmlns:xlink="http://www.w3.org/1999/xlink" width="64" height="64"><defs><linearGradient id="f"><stop offset="0"/><stop offset="1" stop-color="#1a1a1a"/></linearGradient><linearGradient id="d"><stop offset="0" stop-color="#1a1a1a"/><stop offset="1"/></linearGradient><linearGradient id="b"><stop offset="0" stop-color="#80e5ff"/><stop offset="1" stop-color="#045"/></linearGradient><linearGradient id="a"><stop offset="0"/><stop offset="1" stop-color="#333"/></linearGradient><linearGradient xlink:href="#a" id="g" x1="26.38" y1="1037.24" x2="26.38" y2="1044.74" gradientUnits="userSpaceOnUse" gradientTransform="translate(0 -.7)"/><linearGradient id="j" x1="12.94" x2="15.25" y1="8.44" y2="19.81" gradientTransform="matrix(1.2543 0 0 1.6421 1.89 992.37)" gradientUnits="userSpaceOnUse"><stop offset="0" stop-color="#fff" stop-opacity=".27"/><stop offset="1" stop-color="#fff" stop-opacity="0"/></linearGradient><radialGradient xlink:href="#b" id="h" cx="21.95" cy="1029.22" fx="21.95" fy="1029.22" r="26.34" gradientTransform="matrix(.00492 -1.04 1.58983 .00752 -1589.54 1039.43)" gradientUnits="userSpaceOnUse"/><linearGradient id="c"><stop offset="0"/><stop offset="1" stop-color="#4d4d4d"/></linearGradient><linearGradient id="e"><stop offset="0" stop-color="#ef2929"/><stop offset="1" stop-color="#c00"/></linearGradient><linearGradient xlink:href="#f" id="i" x1="20.71" y1="17.27" x2="42.57" y2="39.33" gradientUnits="userSpaceOnUse" gradientTransform="matrix(1.28388 0 0 1.28388 -9.08 -7.95)"/></defs><path fill="url(#g)" d="M26.38 1036.55h11.25v7.5H26.38z" transform="translate(0 -988.36)"/><path d="M2 5.75v43.13h60V5.74z"/><path fill="#1a1a1a" d="M20.75 54.38h22.5v1.88h-22.5z"/><path d="M5.65 997.3h52.68v36.48H5.65z" fill="url(#h)" fill-rule="evenodd" transform="translate(0 -988.36)"/><path d="M18.43 40.15a1.3 1.3 0 0 0 1.3 1.3h24.54a1.3 1.3 0 0 0 1.3-1.3v-24.3a1.3 1.3 0 0 0-1.3-1.3H19.73a1.3 1.3 0 0 0-1.3 1.3zm1.59-.17v-3h3.42v3zm0-20.96v-3h3.42v3zm5.13 20.96v-3h3.42v3zm0-20.96v-3h3.42v3zm5.14 20.96v-3h3.42v3zm0-20.96v-3h3.42v3zm5.13 20.96v-3h3.42v3zm0-20.96v-3h3.42v3zm5.15 20.96v-3h3.42v3zm0-20.96v-3h3.42v3z" fill="url(#i)"/><ellipse style="marker:none" ry="5.74" rx="5.75" overflow="visible" cy="28" cx="32" opacity=".75" fill="red" fill-rule="evenodd"/><path d="M5.65 997.3h52.68v13.13l-52.68 11.5z" fill="url(#j)" transform="translate(0 -988.36)"/></svg>