<svg xmlns="http://www.w3.org/2000/svg" xmlns:xlink="http://www.w3.org/1999/xlink" width="64" height="64"><defs><linearGradient id="c"><stop offset="0" stop-color="#ececec"/><stop offset="1" stop-color="#1a1a1a"/></linearGradient><linearGradient id="a"><stop offset="0" stop-color="#afe9c6"/><stop offset="1" stop-color="#217821"/></linearGradient><radialGradient id="d" cx="62.2" cy="-8.73" r="9.76" gradientTransform="matrix(3.48077 0 0 3.48092 -184.5 46.2)" gradientUnits="userSpaceOnUse"><stop offset="0" stop-color="#666"/><stop offset="1"/></radialGradient><linearGradient id="b" gradientUnits="userSpaceOnUse" x1="97.81" y1="233.5" x2="366.05" y2="-162.67" gradientTransform="matrix(.14273 0 0 .14273 -4.43 26.77)"><stop offset="0" stop-color="#fc0"/><stop offset="1" stop-color="#806600"/></linearGradient><linearGradient id="g" gradientUnits="userSpaceOnUse" x1="1360.51" y1="1178.09" x2="748.07" y2="41.94" gradientTransform="matrix(.03757 0 0 .03757 -4.24 -3.73)" xlink:href="#b"><stop offset="0" stop-color="#876c00"/><stop offset="1" stop-color="#efbf00"/></linearGradient><linearGradient xlink:href="#b" id="f" gradientUnits="userSpaceOnUse" gradientTransform="matrix(.14273 0 0 .14273 -4.43 26.77)" x1="97.81" y1="233.5" x2="234.69" y2="27.21"/><radialGradient xlink:href="#c" id="e" cx="21.74" cy="18.69" fx="21.74" fy="18.69" r="27.45" gradientTransform="matrix(1.54885 1.49726 -.65684 .67947 .35 -25.9)" gradientUnits="userSpaceOnUse"/></defs><path d="M60.7 32a28.7 28.7 0 1 1-57.4 0 28.7 28.7 0 0 1 57.4 0z" fill="url(#d)"/><path d="M32.17 4.48c-2.2.19-4.37.54-6.48 1.23-1.77.7 1.29-.63-.54-.87-1.1-.2-1.56.93-2.53.96-1.12.04-1.89 1.04-2.93 1.15-.38 2.09-.86-.81-1.21.2.28 1.03-.11 1.72-.92 2.32-.87.99-.05 1.87.78 1 .4-1.2 1.72-2.54 2.99-1.74 1.26.7 2.53 2.38 3.59.59-1.09-.13-1.5-1.05-2.04-1.74-.56.04-3-.46-1.45-.35.77-.24 2.24-.98 2.78-.96-1.36.7.5 1.18 1.06 1.74.99.29 1.44 1.55.54 2.2-1.16.6.07 1.6.32 2.42.18 1.44 1.43.62 1.83-.26.58-1.61 2.42-1.56 3.75-2.24 1.45-.76 1.47-.78 2.16.29.54.3 2.3-.81 1.14-1.34-.99.06-1.64.66-.8-.88.19-.83.96-1.91.83-2.58zM18.65 9.82c.52.54 2.26 1.49 2.07.17-.21-.89-1.5-.9-2.07-.17zm26.2-.64c-1.18.25-2.36.52-3.3 1.34.29 1.13-1.2 1.3-1.85 1.92-.18.36-.04 2.65.74 1.66.84-1.12 1.2.6 2.08.76.65-.2.72-1.65.48-2.3.42-.7 1.08-1.62 1.95-1.55-.53.82-1.15 2.93.57 2.07.5 0-1.35 1.09-1.47 1.83-.7.75-1.43 1.31-2.44.75-.47-.42-.72-1.59-1.02-.27.62 1.07-1.58.08-1.53 1.5-.45.89-1.29 1.25-2.26 1.32.36.27 1.72 1.91.37 1.69-.86.1-2.15.58-1.78 1.67-.4 1.37.6 1.02 1.22 1.87 1.01-.28 1.67-.9 1.83-1.95.94-.28 1.06-1.35 2.1-1.32 1.04-.6 1.28 1.05 2.25 1.18.1.59-.48 1.85.65.67 1.1-.8-1.14-1.82-.43-2.03.99.33 1.34 1.27 1.5 2.2.82 1.4 1.01.64 1.08-.58 1.27-.57 1.65 2.36 3.44 1.64 1.34.27.87 1.2-.02 1.75-.73.69-1.94.26-2.78-.02-.82-.4-1.9-.35-2.34.56-.67-.32-1.37-1.32-2.04-1.9-1.68-.74-3.5-.1-5.18.35-1.45 1.68-3.18 3.2-3.79 5.39-.9.92.79 1.46-.35 2.25-.93.74.16 1.67.35 2.52.87 1.07 2.36 4.44 3.71 3.1.75-1.17 1.18.89 2.07-.43.72-.58 1.4.65 2.44.2 1 .61.81 1.5.4 2.44.22.78 1.35 1.34.9 2.4-.38 1 .85 1.74.6 2.6a6.3 6.3 0 0 0 .14 5.36c.6 1.5.97 3.1.93 4.72 1.08.32 1.64-1.05 2.71-.75 1.04.14 1.43-1.18 2.15-1.74.83-.68-.1-1.72 1.2-2.2 1.26-.6-1.59-1.47.03-2.02.67-.75 2.04-1 2.3-1.99-.48-1.5-.32-3.13-.24-4.67a7.69 7.69 0 0 1 2.06-3.22c.41-1.33 1.37-2.55 1.3-4-2.4.74-1.67-.3-.35-1.25.92-.61 2.03-1.22 2.46-2.26.2-1.16-.66-3.06-1.46-1.3-.36-.68-1.67-1.03-1.6-1.92-.26-1.82.5-.2 1.23.16 1.62-.87 2.43 2.56 3.45.51-.89-6.45-4.4-12.3-9.13-16.69-.83-1.58-1.34 1.08-2.17.98-.67-.7-1.93-1.65-.18-1.31 1.49-.43.48-1.02-.62-1a9.73 9.73 0 0 1-2.35-.68zm-29.66.64c-.39 1.96-2.9 1.72-3.76 3.66-4.3 4.55-6.3 10.66-7.02 16.86.38 1.46.94 2.01 2.17 2.66 1.04.61 2.57.34 3.15 1.61.64.54 1.35 1.58 2.29 1.26 1.35-.13.51 1.25.29 1.93-.09.89-1.17 1.44-.75 2.28-.36.96-.63 1.9.15 2.73.64 1.2 1.18 2.52 2.4 3.28.86.72 1.83 1.67 1.49 2.88-.18.98.06 1.9.53 2.75-.17.97-.51 1.96-.59 2.9 1.27.91 3.85 2.98 4.04.73.74-.65.78-1.7 2-1.7.55-.69.75-1.77 1.18-2.61-.63-.78.23-1.98 1.15-1.95 1.18.09 1.14-1.29 1.6-2.05-.01-1.12-.56-2.38.44-3.22.75-.67.68-1.68.8-2.6-1.7-1.05-3.92-1.58-5.25-2.99-.27-1.1-1.1-1.48-2.15-1.55-.45-.63-.38-2.11-1.15-2.19-1.01.2-2 .35-2.73-.53-.83-1.11-1.55.3-2.3.8-.71 1.23-2.69-.07-2.46-1.46.7-1.92-2.37.22-1.11-2.05.6-2.47-1.02-.57-1.87-.02-1.03 0-1.43-1.03-1.25-1.96-.13-1.14.7-1.72 1.55-2.29 1.12.17 1.4-.8 2.26-.68 1.05-.05 1.45.97 2.04 1.64.26-.97-.26-2.34.8-2.87.82-.62 1.65-1.23 1.84-2.3.2-1.11 1.86-.67 2.15-1.8.38-1.18 2.17-.22 2.58-1.4 1.26-1.18-.4-.82-1.3-.86-1.78.19.17-.47.84-.83a5.7 5.7 0 0 0 2.82-.54c.12 1.22.35 1.88.99.43-1.24-.3-.18-1.5-1.4-1.82-.96.08 0-2.04-1.17-1.81-1.54 1.02-.16-.73-1.42-.96-1-1.08-1.23.69-1.76 1.33.34 1.22-1.15.96-1.42 1.96-.6 1.8-.35-.13-1.08-.6-.88-.35-1.95-.53-1.95-1.71 1.18-.86 2.97-1.39 3.75-2.77.44-1.06-.39-1.64-1.4-1.57zm21.17 2.37c-.17.96.8 1.46.46 2.47-.33 1.1-.41 1.99.97 1.35 1.44-.75.53-1.3-.05-2.27-.39-.65-.35-1.84-1.38-1.54zm-1.07 1.59c-1.15-.35-.9 2.09-.18 1.45 1.05-.26.34-.75.17-1.45zm14.45 12.96c1.37 1.22 1.84 3.02 2.73 4.56 1.29.58.05 1.56.64 2.26 1.22 1.34-1.7.36-1.31-.97-.29-1.75-1.53-2.95-2.12-4.48-.06-.5-.56-1.03.06-1.37z" fill="url(#e)"/><path d="M49.2 8.74c0 9.29-6.2 19.27-14.74 26.83-7.87 6.95-18.72 12.5-26.05 13.2.75 2.27 2.26 3.78 5.29 4.53 7.96-1.92 17.58-6.9 24.74-13.23 8.31-7.35 14.6-15.72 16.04-26.04 0-2.27-2.03-4.75-5.27-5.29zm0 0" fill="url(#f)"/><path d="M54.33 14.35c-1.5 10.16-7.72 18.42-15.93 25.68-7.12 6.3-16.69 11.25-24.61 13.16a15.9 15.9 0 0 1-.68-.2c.33.3.68.58 1.03.86C22 51.88 31.38 47 38.4 40.78c8.27-7.31 14.52-15.64 15.96-25.91 0-.17 0-.35-.03-.52zm0 0" fill-opacity=".24"/><path d="M32.16 2.08c-2.19-.02-5.48.82-3.7 1.6 3.8 3.05 9.69 7.58 13.67 15.2 3.68 7.04 5.83 16.72 2.71 30.7a19.47 19.47 0 0 1-6.3-1.98c-1.47-.74-2.88 1.07-1.81 2.32l9.01 10.51c.6.7 1.68.7 2.28 0l9.02-10.51a1.5 1.5 0 0 0-1.81-2.32c-1.41.7-2.8 1.23-4.2 1.58 2.83-14.32.54-25.15-3.6-33.06-3.53-6.78-7.37-10.13-11.1-13.27-.75-.75-2.57-.75-3.75-.75l-.42-.02zm0 0" fill="url(#g)"/><path d="M72.16 2.08c-2.1-.02-5.21.75-3.9 1.5.71-.43 2.52-.76 3.9-.75l.42.02c1.18 0 3 0 3.75.75 3.73 3.14 7.57 6.5 11.1 13.27 2.83 5.4 4.8 12.19 4.86 20.52.06-8.67-1.94-15.7-4.85-21.27-3.54-6.78-7.38-10.13-11.1-13.27-.76-.75-2.58-.75-3.76-.75l-.42-.02zm14.19 35.18a58.5 58.5 0 0 1-1.5 12.33 19.47 19.47 0 0 1-6.31-2c-1.24-.61-2.45.6-2.14 1.73.23-.83 1.17-1.46 2.14-.97a19.47 19.47 0 0 0 6.3 1.99 58 58 0 0 0 1.5-13.08zm9.57 10.18h-.05c-.23 0-.44.06-.64.16-1.36.68-2.7 1.2-4.04 1.54l-.15.8c1.38-.36 2.78-.89 4.19-1.6a1.5 1.5 0 0 1 2.12.98 1.5 1.5 0 0 0-1.43-1.88zm0 0" fill="#fff" fill-opacity=".39"/><path d="M27.95 3.17c-1.05.3-1.6.75-.63 1.18 3.8 3.05 9.7 7.58 13.67 15.2 3.61 6.9 5.75 16.34 2.9 29.89l.95.15c3.12-14 .97-23.67-2.71-30.7-3.98-7.63-9.87-12.16-13.68-15.2-.39-.18-.54-.36-.5-.52zm8.67 44.93c-1.12.07-1.9 1.47-1.03 2.49l6.43 7.5c.43-.16.85-.33 1.27-.52l-6.56-7.65c-.51-.6-.46-1.31-.1-1.82zm0 0" fill-opacity=".24"/></svg>