<svg xmlns="http://www.w3.org/2000/svg" width="64" height="64" version="1"><defs><linearGradient id="c" gradientUnits="userSpaceOnUse" x1="306.92" y1="254.67" x2="306.92" y2="21.83" gradientTransform="matrix(.14159 0 0 .14159 -1.81 23.15)"><stop offset="0" stop-color="#e0e0e0"/><stop offset="1" stop-color="#bdbdbd"/></linearGradient><linearGradient id="b" gradientUnits="userSpaceOnUse" x1="247.97" y1="46.19" x2="147.71" y2="-138.3" gradientTransform="matrix(.14159 0 0 .14159 -3.96 25.91)"><stop offset="0" stop-color="#f0f"/><stop offset="1"/></linearGradient><linearGradient id="a" gradientUnits="userSpaceOnUse" x1="228.64" y1="37.56" x2="120.03" y2="258.29" gradientTransform="matrix(.14159 0 0 .14159 -3.96 25.91)"><stop offset="0"/><stop offset="1" stop-color="#ff0"/></linearGradient></defs><path d="M5.04 14.02c-.83 0-1.5.67-1.5 1.5v29.97c0 .54.29 1.04.76 1.3l26.98 14.99.03.01.03.02.06.03h.02l.07.03h.02l.07.04h.01l.09.02.09.02.1.01h.27l.1-.01.08-.02.09-.02.08-.03h.02l.07-.03.02-.01.06-.03.04-.02.03-.01 26.97-15c.48-.25.77-.75.77-1.3V15.52a1.5 1.5 0 0 0-2.22-1.3L32 28.79 5.75 14.21a1.45 1.45 0 0 0-.71-.19zm0 0"/><path d="M5.04 14.02c-.83 0-1.5.67-1.5 1.5v29.97c0 .54.29 1.04.76 1.3l26.98 14.99.03.01.03.02.06.03h.02l.07.03h.02l.07.04h.01l.09.02.09.02.1.01H32V28.8L5.75 14.21a1.45 1.45 0 0 0-.71-.19zm0 0" fill="url(#a)"/><path d="M32.03 2.03c-.22 0-.44.04-.63.13L4.42 14.15a1.5 1.5 0 0 0-.12 2.67l26.98 14.99c.45.25 1 .25 1.45 0L59.7 16.82a1.5 1.5 0 0 0-.12-2.67L32.6 2.16a1.38 1.38 0 0 0-.57-.13zm0 0" fill="url(#b)"/><path d="M37.15 50.21v3l10.49-6v-3zm0 0" fill="url(#c)"/></svg>