<svg xmlns="http://www.w3.org/2000/svg" xmlns:xlink="http://www.w3.org/1999/xlink" width="64" height="64"><defs><linearGradient id="c"><stop offset="0"/><stop offset="1" stop-color="#1a1a1a"/></linearGradient><linearGradient id="a"><stop offset="0" stop-color="#5df"/><stop offset="1" stop-color="#04a"/></linearGradient><radialGradient id="d" cx="12.01" cy="13.2" r="20" gradientTransform="matrix(0 2.36188 -3.40694 0 60.79 -11.43)" gradientUnits="userSpaceOnUse"><stop offset="0" stop-color="#4d4d4d"/><stop offset=".26" stop-color="#333"/><stop offset=".7"/><stop offset="1"/></radialGradient><linearGradient id="e" x1="24" x2="24" y1="44" y2="3.9" gradientTransform="translate(-1.74 -1.74) scale(1.4058)" gradientUnits="userSpaceOnUse"><stop offset="0"/><stop offset="1" stop-color="#333"/></linearGradient><linearGradient id="b"><stop offset="0" stop-color="#d40000"/><stop offset="1" stop-color="#ff2a2a"/></linearGradient><linearGradient xlink:href="#c" id="g" x1="16.57" y1="28" x2="47.43" y2="28" gradientUnits="userSpaceOnUse"/></defs><rect x="4.59" y="4.59" width="54.83" height="54.83" rx="2.23" ry="2.23" fill="url(#d)" stroke="url(#e)" stroke-width=".5" stroke-linecap="round" stroke-linejoin="round"/><path d="M6.82 4.59c-.08 0-.12.07-.2.08l.53.53H22.7V4.6h-.4v.16H7.32l-.17-.16h-.34zm17.85 0v.88h1.58c.1.39.44.68.85.68.36 0 .67-.23.8-.54h3.65v5.25h4.76l1.3 1.26h21.81v-.4h-6.67V10.1h-1.17v-.36h-2.65v1.17h2.65v-.4h.77v1.2H37.79l-1.3-1.25h-4.54V5.2h-4c-.02-.33-.33-.47-.61-.61h-.54c-.25.13-.54.22-.6.48h-1.12v-.48h-.4zm9.4 0v.16H32.7v3.82h2.75l.94.95h1.35l1.16 1.12h8.27l1.35-1.35h10.89v-.4H48.35L47 10.23h-7.9l-1.17-1.12h-1.35l-.86-.85v-3.5h-1.25v-.17h-.4zm13.57 0l.93.93h.36v.4h2.65V4.75h-2.65v.36h-.18l-.52-.52h-.59zm-20.54.3c.2 0 .36.16.36.36 0 .2-.16.36-.36.36a.36.36 0 0 1-.36-.36c0-.2.16-.36.36-.36zm-18.96.63a.92.92 0 0 0-.9.76H5.27v-.63h-.2c-.23.36-.48.71-.48 1.17v1.66h.68v-1.8h2.02c.1.29.33.52.63.59v2.02H6.84v2.79h2.74V9.29H8.32V7.27c.4-.1.72-.48.72-.9 0-.49-.4-.85-.9-.85zm29.65.13a.87.87 0 0 0-.85.9.87.87 0 0 0 1.26.8l1.97 1.99h4.85L46.1 8.2h2.83v.14h2.65V7.18h-2.65v.63h-2.96l-1.13 1.12h-4.49L38.51 7.1a.88.88 0 0 0 .18-.54.9.9 0 0 0-.9-.9zm-25.56.18v2.74h.54v1a.88.88 0 0 0-.63.84c0 .5.41.86.9.86.3 0 .56-.14.72-.36v.8c-.05.05-.18.14-.27.23a.78.78 0 0 0-.45-.13.9.9 0 0 0-.9.9c0 .48.41.85.9.85.49 0 .85-.37.85-.85a.87.87 0 0 0-.09-.45l.36-.36v-1.53l1.13-1.12v-.68h.8V5.83h-1.48v2.74h.27v.5l-1.03 1.03c-.1-.28-.33-.52-.63-.58v-.95h.54V5.83h-1.53zm4.72 0v2.74h.72v.45l-1.85 1.84a.88.88 0 0 0-.53-.22.9.9 0 0 0-.9.9c0 .49.4.9.9.9.48 0 .85-.41.85-.9a.85.85 0 0 0-.1-.36l2.03-1.98v-.63h.4V5.83h-1.52zm2.24 0v2.74h1.53V5.83H19.2zm-11.05.18c.2 0 .36.16.36.36 0 .2-.16.4-.36.4-.2 0-.36-.2-.36-.4s.16-.36.36-.36zm15.73.14v2.78h.76v1.93h-.4v1.71h1.93v-1.7h-1.13V8.92h1.17V6.15h-2.33zm4.58 0v2.78h.85v1.21h-1.4a.83.83 0 0 0-.8-.62.9.9 0 0 0-.9.9c0 .48.41.85.9.85.43 0 .78-.31.85-.72h1.35v.31h-1.17v1.71h1.89v-1.7h-.31V8.92h1.07V6.15h-2.33zm9.34.04c.2 0 .36.16.36.36 0 .2-.16.36-.36.36a.36.36 0 0 1-.36-.36c0-.2.16-.36.36-.36zm21.3.72a.87.87 0 0 0-.86.9c0 .49.37.85.85.85.14 0 .23-.09.34-.14v-.69c-.02.18-.15.34-.34.34a.36.36 0 0 1-.36-.36c0-.2.16-.36.36-.36.2 0 .32.15.34.34v-.72c-.11-.06-.2-.16-.34-.16zM4.58 9.5v.5c.17.04.32.15.32.32 0 .18-.15.32-.32.36v.5c.42-.02.76-.3.81-.72h.23v2.65h4.9l1.39 1.44h3.63l1.13-1.13h.75l.4-.4H16.5l-1.08 1.12H12.1l-1.4-1.43H6.03v-2.66h-.67a.85.85 0 0 0-.77-.55zm28.08 2.9v.17h3.05v-.18h-3.05zm26.6 1.16a.9.9 0 0 0-.9.9c0 .49.4.9.9.9.07 0 .08-.12.15-.14v-.56c-.06.05-.07.16-.16.16a.36.36 0 0 1-.36-.36c0-.2.16-.36.36-.36.1 0 .1.1.16.15v-.57c-.07-.02-.08-.12-.16-.12zM6.83 14v2.74h2.74V14H6.84zm2.74 1.53c0 .48.41.9.9.9a.9.9 0 0 0 .9-.9.87.87 0 0 0-.9-.86c-.49 0-.9.37-.9.86zm-4.99-.6v6.08h11.98v-.4H4.91v-.46h.4V17.3h-.4v-2.02l-.32-.32zm5.89.24c.2 0 .36.15.36.36 0 .2-.16.35-.36.35a.36.36 0 0 1-.36-.35c0-.2.16-.36.36-.36zm41.33.85a.88.88 0 0 0-.77.9c0 .49.37.85.86.85a.9.9 0 0 0 .85-.58h6.67v-.4h-6.63a.92.92 0 0 0-.9-.77h-.08zm.09.5c.2 0 .4.2.4.4s-.2.36-.4.36a.36.36 0 0 1-.36-.36c0-.2.16-.4.36-.4zm-37.29.98v2.7h1.48v-1.75h.48V18h-.48v-.5h-1.48zm32.82.59v.44h11.99v-.44h-12zm-39.24.94c-.2 0-.36.16-.36.36 0 .2.16.36.36.36.2 0 .36-.16.36-.36 0-.2-.16-.36-.36-.36zm39.24.4v.4h11.99v-.4h-12zm0 1.35v.4h11.43l.56.57v-.59l-.38-.38H47.43zM9.18 22.05v1.21H4.59v.45h4.99v-1.26h7v-.4h-7.4zm38.25.18v.4h10.53l1.46 1.48v-.56l-1.32-1.32H47.43zm.96 1.26l-.96 1.08v.6l1.14-1.28h8.04l2.34 2.38v.45h-.36V31h.83v-4.27h-.02v-.63l-2.65-2.6h-8.36zm5.57 3.23v1.89h-5.7l-.83.84v.57l1-1h5.53v1.97h1.22v-4.27h-1.22zm-49.37.4v.4h2.2v2.75h.9v.31h3.82v-1.2H7.7v.49h-.45v-2.75H4.6zm10.79 3.91c-.2 0-.36.16-.36.36 0 .2.15.36.36.36.2 0 .35-.16.35-.36 0-.2-.15-.36-.36-.36zm1.2.92l-1.7 1.69H4.6v.4h10.47l1.51-1.5v-.6zm-8.89.12v.4H4.6v.4h3.1v.4h3.82v-1.2H7.7zm47.94 2.42c-.5 0-.9.37-.9.86 0 .48.4.9.9.9.41 0 .76-.3.85-.68h2.94v-.4h-2.94a.87.87 0 0 0-.85-.68zm0 .5c.2 0 .35.15.35.36 0 .2-.15.36-.35.36-.2 0-.4-.16-.4-.36 0-.2.2-.36.4-.36zm-40.3.54a.93.93 0 0 0-.85.62H7.1l-1.3 1.3H4.59v.41h1.4l1.3-1.3h7.14c.06.43.46.76.9.76.49 0 .85-.4.85-.9 0-.48-.36-.9-.85-.9zm0 .53c.2 0 .36.16.36.36 0 .2-.16.36-.36.36a.36.36 0 0 1-.36-.36c0-.2.16-.36.36-.36zm-7.64.95v1.21h3.82v-.27h5.06v-.4h-5.06V37H7.7zm39.74.04v1.66c.43-.06.78-.4.78-.85 0-.44-.35-.75-.78-.8zm1.68.23v1.26h3.73v-1.26h-3.73zM5.85 39.57c-.43 0-.82.3-.9.72H4.6v.4h.4c.1.31.36.57.68.63v.8H17l-.42-.4v-.04H6.07v-.4c.38-.11.68-.45.68-.86a.87.87 0 0 0-.9-.85zm0 .5c.2 0 .36.15.36.35 0 .2-.16.36-.36.36a.36.36 0 0 1-.36-.36c0-.2.16-.36.36-.36zm43.26 1.34v.4h-1.78l-.4.4h.11a.87.87 0 0 0-.58.82c0 .49.37.9.85.9a.9.9 0 0 0 .9-.9.87.87 0 0 0-.58-.81h1.48v1.48h3.73v-1.53h6.58v-.4h-6.58v-.36h-3.73zm-41.42.9v1.21h3.82v-1.21H7.7zm9.61.14c-.23.15-.53.24-.53.53 0 .49.4.9.9.9.31 0 .55-.2.7-.45h-.08l-.99-.98zm37.25.62l-1.26 1.26H43.9l-1.4 1.44h-.62v-.59H38.1v1.26h3.77v-.27h.8l1.4-1.4h9.34s1.2-1.18 1.3-1.3h4.7v-.4h-4.87zm-16.44.36v.27h3.77v-.27H38.1zm-33.52.77v.4h22.46l1.49 1.48h4.71l.95.95h22.55l2.67 2.82v-.62l-2.5-2.6H34.39l-.95-.95h-4.71l-1.49-1.48H4.6zm44.52.67v1.26h3.73v-.05h6.58v-.4h-6.58v-.81h-3.73zm-41.42.31v1.22h3.82v-.5h14.33l.59.59c-.1.14-.18.3-.18.49 0 .49.4.9.9.9.48 0 .85-.41.85-.9a.83.83 0 0 0-.86-.85.84.84 0 0 0-.4.09l-.72-.72h-14.5v-.32H7.68zm6.6 2.03a.9.9 0 0 0-.9.8h-1.88v-.31H7.7v1.21h3.82v-.5h1.93c.14.33.49.55.86.55.48 0 .85-.37.85-.86 0-.48-.37-.9-.85-.9zm4.59.04a.9.9 0 0 0-.9.9c0 .22.09.43.23.58l-.68.68h-4.58l-1.35 1.3h-.09v-.45H7.7v1.21h3.82v-.36h.27l1.35-1.3h4.58l.81-.85c.1.04.25.04.36.04.49 0 .85-.36.85-.85s-.36-.9-.85-.9zm5.93.27a.9.9 0 0 0-.9.9c0 .49.41.85.9.85.14 0 .24-.03.36-.09L27 51.02h6.33c.09.4.43.72.86.72a.9.9 0 0 0 .9-.9.9.9 0 0 0-.9-.9.9.9 0 0 0-.86.68H27.2l-1.66-1.7c.1-.15.13-.3.13-.5 0-.49-.36-.9-.85-.9zm13.3 0v.54h-2.74v6.42h-2.34v1.62h-7.5v1.53h-1.4v1.79h1.8V56.5h7.5V54.9h2.34V48.5h2.34v.27h3.77v-1.26H38.1zm11 0v.4h-5.16l-1.49 1.49h-5.88v6.69H34.2v1.53h-.54v1.79h1.4v-1.8h-.46V56.5h2.38v-6.69h5.66l1.48-1.48h5v.45h3.72v-1.26h-3.73zm-34.81.18c.2 0 .36.2.36.4s-.16.36-.36.36c-.2 0-.4-.16-.4-.36 0-.2.2-.4.4-.4zm10.5.31c.2 0 .37.2.37.4s-.16.37-.36.37a.36.36 0 0 1-.36-.36c0-.2.16-.4.36-.4zm9.4 2.47c.2 0 .4.16.4.36 0 .2-.2.36-.4.36a.36.36 0 0 1-.36-.36c0-.2.16-.36.36-.36zm-11.82.23c-.2 0-.36.16-.36.36 0 .2.16.4.36.4.2 0 .36-.2.36-.4s-.16-.36-.36-.36zm-16.57.54a.93.93 0 0 0-.9.72h-.32v.4h.36c.1.38.45.67.86.67.48 0 .85-.4.85-.9 0-.48-.37-.9-.85-.9zm0 .54c.2 0 .36.16.36.36 0 .2-.16.36-.36.36a.36.36 0 0 1-.36-.36c0-.2.16-.36.36-.36zm24.88.8c-.4 0-.74.31-.85.68h-5.4l-2.15 2.34v2.02h-.54v1.79h1.4v-1.8h-.45V55.8l1.93-2.12h5.16c.08.41.47.72.9.72.5 0 .86-.4.86-.9 0-.48-.37-.9-.86-.9zm-12.98.28a.86.86 0 0 0-.85.67h-2.92l-2.16 2.16h-.27v-.4H7.7v1.2h3.82v-.36h.4s2.1-2.08 2.2-2.2h2.75c.1.39.44.68.85.68.49 0 .9-.37.9-.86a.9.9 0 0 0-.9-.9zm31.4.04v.58h-.58l-2.56 2.52h-4.1v-.4h-3.76v1.25h3.77v-.4h4.27l2.56-2.56h.4v.27h3.73V52.9h-3.73z" fill="#999"/><g transform="matrix(.85714 0 0 .85714 4.57 3.14)" fill="#efce27"><rect style="marker:none" width="2" height="4" x="17" y="8" rx="1" ry="1" color="#000" overflow="visible" stroke-width="2" id="f"/><use xlink:href="#f" transform="translate(4)" width="64" height="64"/><use xlink:href="#f" transform="rotate(90 32 29)" width="64" height="64"/><use xlink:href="#f" transform="matrix(0 1 1 0 3 -3)" width="64" height="64"/><use height="64" width="64" transform="translate(0 38)" xlink:href="#f"/><use height="64" width="64" transform="translate(16)" xlink:href="#f"/><use height="64" width="64" transform="rotate(90 26 35)" xlink:href="#f"/><use height="64" width="64" transform="matrix(0 1 1 0 3 9)" xlink:href="#f"/><use xlink:href="#f" transform="translate(12 38)" width="64" height="64"/><use xlink:href="#f" transform="translate(8)" width="64" height="64"/><use xlink:href="#f" transform="rotate(90 30 31)" width="64" height="64"/><use xlink:href="#f" transform="matrix(0 1 1 0 3 1)" width="64" height="64"/><use height="64" width="64" transform="translate(4 38)" xlink:href="#f"/><use height="64" width="64" transform="translate(20)" xlink:href="#f"/><use height="64" width="64" transform="rotate(90 24 37)" xlink:href="#f"/><use height="64" width="64" transform="matrix(0 1 1 0 3 13)" xlink:href="#f"/><use xlink:href="#f" transform="translate(16 38)" width="64" height="64"/><use height="64" width="64" transform="translate(12)" xlink:href="#f"/><use height="64" width="64" transform="rotate(90 28 33)" xlink:href="#f"/><use height="64" width="64" transform="matrix(0 1 1 0 3 5)" xlink:href="#f"/><use xlink:href="#f" transform="translate(8 38)" width="64" height="64"/><use height="64" width="64" transform="translate(24)" xlink:href="#f"/><use height="64" width="64" transform="rotate(90 22 39)" xlink:href="#f"/><use height="64" width="64" transform="matrix(0 1 1 0 3 17)" xlink:href="#f"/><use xlink:href="#f" transform="translate(20 38)" width="64" height="64"/><use xlink:href="#f" transform="translate(28)" width="64" height="64"/><use height="64" width="64" transform="rotate(90 20 41)" xlink:href="#f"/><use height="64" width="64" transform="matrix(0 1 1 0 3 21)" xlink:href="#f"/><use xlink:href="#f" transform="translate(24 38)" width="64" height="64"/><use xlink:href="#f" transform="rotate(90 18 43)" width="64" height="64"/><use xlink:href="#f" transform="matrix(0 1 1 0 3 25)" width="64" height="64"/><use height="64" width="64" transform="translate(28 38)" xlink:href="#f"/></g><path style="marker:none" d="M18.29 12.57l-1.72 1.72V41.7l1.72 1.72H45.7l1.72-1.72V14.3l-1.72-1.72z" color="#000" overflow="visible" fill="url(#g)"/><path style="marker:none" d="M17 50.1v9h2v-9zm4 0v9h2v-9zm4 0v9h2v-9zm4 0v9h2v-9zm4 0v9h2v-9zm4 0v9h2v-9zm4 0v9h2v-9zm4 0v9h2v-9z" color="#000" overflow="visible" fill="#efce27"/><path style="line-height:1.25;-inkscape-font-specification:RaghuMalayalam" d="M32.46 20.4a.63.62 0 0 0-.63.6.63.62 0 0 0 .63.62.63.62 0 0 0 .63-.61.63.62 0 0 0-.63-.62zm-.67 2.5v6.76l.58 1.08h.68v-6.79H35.35c.62 0 1.07.11 1.37.35.3.23.46.58.46 1.05 0 .47-.15.82-.46 1.06-.3.23-.75.34-1.37.34H33.5v1.02h2.02c.68 0 1.18.14 1.5.42.33.27.5.7.5 1.28 0 .58-.17 1-.5 1.29-.32.28-.82.42-1.5.42H32.23l-.28-.51v.02l-3.53-6.67-.04-.07-.55-1.04h-1.69v9.3h1.22v-7.78l4.12 7.78h4.1c1.03 0 1.84-.23 2.4-.68.57-.45.85-1.1.85-1.92a2.4 2.4 0 0 0-.52-1.58c-.34-.42-.82-.7-1.44-.83.52-.08.9-.3 1.17-.63.27-.34.4-.79.4-1.36 0-.73-.26-1.3-.78-1.7-.52-.4-1.25-.6-2.21-.6h-3.2z" font-weight="400" font-size="10.58" font-family="RaghuMalayalam" letter-spacing="0" word-spacing="0" fill="#b3b3b3"/></svg>