<svg xmlns="http://www.w3.org/2000/svg" xmlns:xlink="http://www.w3.org/1999/xlink" version="1" width="64" height="64" viewBox="0 0 48 48"><defs><linearGradient id="c"><stop offset="0" stop-color="#1a1a1a"/><stop offset="1"/></linearGradient><linearGradient gradientTransform="matrix(1.3403 0 0 1.3403 -4.17 -9.73)" xlink:href="#a" id="d" x1="3.99" y1="15.32" x2="3.99" y2="35.02" gradientUnits="userSpaceOnUse"/><linearGradient id="a"><stop offset="0" stop-color="#045"/><stop offset=".3" stop-color="#1b847f"/><stop offset="1" stop-color="#dbe3de"/></linearGradient><radialGradient gradientTransform="matrix(1.38417 0 0 1.38417 -5.1 -10.84)" xlink:href="#b" id="f" cx="7.5" cy="20.59" fx="7.5" fy="20.59" r="1.69" gradientUnits="userSpaceOnUse"/><linearGradient id="b"><stop offset="0" stop-color="#dbe3de"/><stop offset="1" stop-color="#f60"/></linearGradient><linearGradient xlink:href="#c" id="e" x1="47.76" y1="10.6" x2="1.18" y2="37.2" gradientUnits="userSpaceOnUse"/></defs><path d="M1.18 10.8v26.4c.4-.06 1.29-.28 2.38-.56 4.92-1.3 9.74-1.82 18.32-1.97 5.07-.08 9.42-.03 11.5.18 4.33.43 10.01 1.39 12.21 2.08.86.26 1.07.16 1.42.14V11.03c-.53.03-2.12.33-3.85.74-7.54 1.7-18.56 2.32-27.43 1.53-5.45-.49-10.5-1.27-13.02-2.05-.68-.2-1.17-.44-1.53-.45z" fill="url(#d)"/><path d="M.43 10.37v27.26c.42-.06 1.33-.28 2.45-.57 5.1-1.35 10.06-1.89 18.92-2.04 5.24-.09 9.74-.03 11.9.18 4.45.45 10.32 1.44 12.6 2.16.88.26 1.1.16 1.46.14V10.6c-.54.04-2.19.34-3.98.77-7.78 1.76-19.16 2.4-28.32 1.58-5.63-.5-10.84-1.31-13.45-2.12-.7-.21-1.21-.46-1.58-.46zm1.29 2.94l.9.21c1.76.36 7.5 1.29 9.22 1.5l1.7.18v7.34c0 4-.06 7.3-.15 7.3-.06 0-1.2-.8-2.45-1.8-1.3-.98-2.49-1.8-2.7-1.8-.2 0-1.64 1.12-3.23 2.46-1.59 1.38-3 2.52-3.09 2.55-.12.06-.2-3.95-.2-8.92zm43.99.08c.83-.03.77 1.18.77 7.02 0 3.86-.12 7.04-.27 7.04-.15 0-.45-.24-.66-.51-.87-1.05-2.7-2.16-3.23-1.95-.3.12-1.89 1.29-3.57 2.6L35.7 30v1.4c0 1.18-.1 1.45-.51 1.45-.51 0-.54-.6-.45-8.84.06-6.7.18-8.83.45-8.83.8 0 8.5-1.23 9.34-1.47.52-.15.9-.3 1.18-.31zm-12.57 1.96h.4c.03 0 .03 3.14 0 6.95l-.09 6.91-4.19-4.01c-2.51-2.4-4.43-4.01-4.79-4.04-.39 0-2.18 1.47-4.88 4.07l-4.25 4.07v1.77c0 1.38-.1 1.77-.45 1.77-.4 0-.45-1.17-.45-8.63 0-4.76.06-8.71.12-8.77.06-.06 2.3 0 4.94.15 2.96.18 6.59.18 9.4 0 1.87-.14 3.51-.22 4.24-.24z" fill="url(#e)"/><circle cx="6.04" cy="18.29" r="2.08" fill="url(#f)" stroke="#fd5" stroke-width=".52"/></svg>