<svg xmlns="http://www.w3.org/2000/svg" xmlns:xlink="http://www.w3.org/1999/xlink" width="64" height="64" id="svg13"><defs id="defs5"><linearGradient id="linearGradient873"><stop offset="0" id="stop869" stop-color="#ff2a2a"/><stop offset="1" id="stop871" stop-color="red"/></linearGradient><style id="current-color-scheme"/><linearGradient xlink:href="#linearGradient844" id="linearGradient846" x1="30.21" y1="24.86" x2="29.85" y2="57.87" gradientUnits="userSpaceOnUse" gradientTransform="translate(-2.26 -2.2) scale(1.07065)"/><linearGradient id="linearGradient844"><stop offset="0" id="stop840" stop-color="red"/><stop offset="1" id="stop842" stop-color="#ff2a2a"/></linearGradient><radialGradient xlink:href="#linearGradient828" id="radialGradient830" cx="28.73" cy="28.43" fx="28.73" fy="28.43" r="7.42" gradientTransform="matrix(1.76327 .53196 -.55058 1.82498 -6.5 -38.93)" gradientUnits="userSpaceOnUse"/><linearGradient id="linearGradient828"><stop offset="0" id="stop824" stop-color="red"/><stop offset="1" id="stop826"/></linearGradient><linearGradient xlink:href="#linearGradient852" id="linearGradient854" x1="5.59" y1="57.44" x2="5.83" y2="17.35" gradientUnits="userSpaceOnUse" gradientTransform="translate(-2.26 -2.2) scale(1.07065)"/><linearGradient id="linearGradient852"><stop offset="0" id="stop848" stop-color="#f55"/><stop offset="1" id="stop850" stop-color="#faa"/></linearGradient><linearGradient xlink:href="#linearGradient836" id="linearGradient838" x1="13.96" y1="16.63" x2="55.38" y2="16.63" gradientUnits="userSpaceOnUse" gradientTransform="translate(-2.26 -2.2) scale(1.07065)"/><linearGradient id="linearGradient836"><stop offset="0" id="stop832" stop-color="maroon"/><stop offset="1" id="stop834" stop-color="#ff2a2a"/></linearGradient><radialGradient xlink:href="#linearGradient860" id="radialGradient862" cx="32" cy="31.94" fx="32" fy="31.94" r="29" gradientTransform="matrix(1.04512 0 0 1.0393 -1.44 -1.2)" gradientUnits="userSpaceOnUse"/><linearGradient id="linearGradient860"><stop id="stop858" offset="0"/><stop id="stop856" offset="1" stop-color="#1a1a1a"/></linearGradient><linearGradient id="e" y1="540.8" y2="522.8" gradientUnits="userSpaceOnUse" x2="0" gradientTransform="matrix(2.5 0 0 2.5 -989.42 -1297.5)"><stop stop-color="#333" id="stop17"/><stop offset="1" id="stop19"/></linearGradient><radialGradient xlink:href="#e" id="radialGradient867" cx="15.11" cy="17.41" fx="15.11" fy="17.41" r="30" gradientTransform="matrix(1 0 0 .75 0 8)" gradientUnits="userSpaceOnUse"/><linearGradient xlink:href="#linearGradient873" id="linearGradient875" x1="7.02" y1="52" x2="7.02" y2="12" gradientUnits="userSpaceOnUse"/></defs><path id="path32" d="M2 9.5h60v45H2z" fill="url(#radialGradient867)" stroke-width="2.5" stroke-linejoin="bevel"/><path id="path34" d="M7.02 12v2.5h50V12zm0 7.5v25h2.5c7.5 0 10-5 10-12.46 0-7.53-2.5-12.55-10-12.55zm17.5 0h-.01v25h2.5V25.77L34.5 44.5H37v-25h-2.5v18.76l-7.38-18.49-.1-.27zm32.49 0c-7.5 0-14.99 2.5-14.99 12.42 0 10.08 4.99 12.58 12.49 12.58h2.5V32h-4.99v2.5h2.49V42c-7.5 0-9.99-2.5-9.99-9.93C44.52 24.5 49.51 22 57.01 22zM9.51 22c7.5 0 7.5 7.5 7.5 10s0 10-7.5 10zM7.02 49.5V52h50v-2.5z" fill="url(#linearGradient875)" stroke-width="2.5" stroke-linejoin="bevel"/></svg>