<svg xmlns="http://www.w3.org/2000/svg" xmlns:xlink="http://www.w3.org/1999/xlink" width="64" height="64"><defs><linearGradient id="d"><stop offset="0" stop-color="#333"/><stop offset="1"/></linearGradient><linearGradient id="f"><stop offset="0"/><stop offset="1" stop-color="#333"/></linearGradient><linearGradient id="b"><stop offset="0" stop-color="gray"/><stop offset=".26" stop-color="#1a1a1a"/><stop offset="1"/></linearGradient><linearGradient id="e"><stop offset="0"/><stop offset="1" stop-color="#333"/></linearGradient><linearGradient id="c"><stop offset="0" stop-color="#333"/><stop offset="1"/></linearGradient><linearGradient id="a"><stop offset="0" stop-color="#666"/><stop offset=".26" stop-color="#333"/><stop offset="1"/></linearGradient><linearGradient x1="36.68" y1="18.24" x2="43.45" y2="28" id="i" xlink:href="#f" gradientUnits="userSpaceOnUse" gradientTransform="matrix(2.9536 0 0 2.9536 -67.53 -30.34)"/><linearGradient x1="34.44" y1="35.45" x2="33.01" y2="22.58" id="h" xlink:href="#d" gradientUnits="userSpaceOnUse" gradientTransform="translate(-68.25 -31.73) scale(3.02519)"/><linearGradient x1="37.22" y1="7.71" x2="44.47" y2="43.09" id="g" xlink:href="#b" gradientUnits="userSpaceOnUse" gradientTransform="translate(-61.34 -26.74) scale(2.78522)"/></defs><path d="M2.87 11.75l31-8.84 27.24 8.81-1.6 31.94-29.15 17.43L6.35 43.87z" fill="url(#g)"/><path d="M2.87 11.75l3.48 32.12L30.38 61.1l-.7-36.35z" fill="url(#h)"/><path d="M29.68 24.74l.72 36.35 29.13-17.43 1.6-31.94z" fill="url(#i)"/><path d="M33.32 5.55a1.05 2.96 86.74 0 0-3.3 1.4 1.05 2.96 86.74 0 0 5.82-.7 1.05 2.96 86.74 0 0-2.52-.7zm-8.16 2.3a1.38 3.52 86.19 0 0-3.9 1.88 1.38 3.53 86.19 1 0 6.9-.94 1.38 3.52 86.19 0 0-2.99-.95h-.01zm22.97 2.57a1.5 3.71 89.6 0 0-3.5 1.79 1.5 3.72 89.6 1 0 7.32-.56 1.5 3.71 89.6 0 0-3.66-1.23 1.5 3.71 89.6 0 0-.16 0zm-31.71.77a1.3 3.9 84.17 0 0-4.6 1.97 1.3 3.9 84.17 1 0 7.58-1.24 1.3 3.9 84.17 0 0-2.61-.73 1.3 3.9 84.17 0 0-.37 0zM40.02 14a1.54 4 88.39 0 0-4.11 1.91 1.54 4 88.39 1 0 7.86-.75A1.54 4 88.39 0 0 40.04 14h-.02zm-8.73 3.28a1.77 4.44 85.37 0 0-.16 0 1.77 4.44 85.37 0 0-4.88 2.45 1.77 4.44 85.37 0 0 8.67-1.32 1.77 4.44 85.37 0 0-3.63-1.13zM8.76 19.5a3.57 2.15 67.16 0 0-1.13.58 3.57 2.15 67.16 1 0 3.94 5.64 3.57 2.15 67.16 0 0-2.81-6.22zm46.33.36a1.89 3.11 32.74 0 0-2.38 5.59 1.89 3.11 32.74 1 0 2.66-5.54 1.89 3.11 32.74 0 0-.28-.05zm-31.44 6a4.12 2.58 64.45 0 0-1.37.68 4.12 2.58 64.45 1 0 4.78 6.43 4.12 2.58 64.45 0 0-3.41-7.1zm14.7 1.25A2.49 3.98 39.17 0 0 35.07 34a2.49 3.98 39.17 1 0 3.66-6.83 2.49 3.98 39.17 0 0-.4-.04zm-22.2 4.5a3.57 2.15 67.16 0 0-1.13.58 3.57 2.15 67.16 1 0 3.95 5.63 3.57 2.15 67.16 0 0-2.82-6.22zm39 4.6a1.98 3.3 31.79 0 0-2.29 5.98 1.99 3.31 31.79 1 0 2.8-5.93 1.98 3.3 31.79 0 0-.3-.03 1.98 3.3 31.79 0 0-.21-.01zm-44.88.8a2.97 1.65 66.79 0 0-.81.55 2.97 1.65 66.79 1 0 3.33 4.47 2.97 1.65 66.79 0 0-2.46-5.02 2.97 1.65 66.79 0 0-.06 0zm13.2 8.11a3.91 2.07 62.02 0 0-1.12.87 3.91 2.07 62.02 1 0 4.86 5.45 3.91 2.07 62.02 0 0-3.73-6.32zm15.19.14a2.73 4.4 36.5 0 0-3.51 7.74 2.74 4.4 36.5 1 0 3.94-7.68 2.73 4.4 36.5 0 0-.43-.06z" fill="#d40000"/></svg>