<svg xmlns="http://www.w3.org/2000/svg" xmlns:xlink="http://www.w3.org/1999/xlink" width="64" height="64" version="1"><defs><linearGradient id="g"><stop stop-color="#d40000" offset="0"/><stop stop-color="#ff8080" offset="1"/></linearGradient><linearGradient id="c"><stop offset="0" stop-color="#ffb380"/><stop offset="1" stop-color="#ff7f2a"/></linearGradient><linearGradient id="b"><stop offset="0" stop-color="#333"/><stop offset=".5"/><stop offset="1"/></linearGradient><linearGradient xlink:href="#a" id="m" gradientUnits="userSpaceOnUse" gradientTransform="matrix(.48574 -.00257 -.00027 .46777 1.19 64.74)" x1="67.64" y1="-14.27" x2="80.33" y2="79.55"/><linearGradient id="a"><stop offset="0" stop-color="#fdfdfd"/><stop offset="1" stop-color="#fdfdfd" stop-opacity="0"/></linearGradient><linearGradient xlink:href="#b" id="h" gradientUnits="userSpaceOnUse" x1="85.01" y1="34.89" x2="82.91" y2="147.23" gradientTransform="matrix(-.46984 -.03741 -.03741 .46984 65.66 70)"/><linearGradient xlink:href="#d" id="l" gradientUnits="userSpaceOnUse" x1="48.09" y1="9.68" x2="60.86" y2="66.19" gradientTransform="matrix(.18995 -.06152 .0555 .17138 14.86 26.43)"/><linearGradient id="d"><stop offset="0"/><stop offset="1" stop-color="#e6e6e6"/></linearGradient><linearGradient xlink:href="#e" id="k" x1="-5.33" y1="29.03" x2="-1.88" y2="29.03" gradientUnits="userSpaceOnUse" gradientTransform="translate(12.35 18.67) scale(.80645)"/><linearGradient id="e"><stop offset="0" stop-color="#d40000"/><stop offset="1" stop-color="#ff8080"/></linearGradient><linearGradient xlink:href="#f" id="j" x1="78.57" y1="37.61" x2="71.97" y2="16.38" gradientUnits="userSpaceOnUse" gradientTransform="rotate(13.11 -35.51 -39.2) scale(.61021)"/><linearGradient id="f"><stop offset="0"/><stop stop-color="#4d4d4d" offset="1"/></linearGradient><linearGradient xlink:href="#g" id="i" x1="19.85" y1="28.88" x2="22.03" y2="28.88" gradientUnits="userSpaceOnUse" gradientTransform="translate(12.35 18.67) scale(.80645)"/></defs><path d="M41.61 71.22a33.3 33.3 0 0 0-8.77-.84C16.62 70.96 3.78 82.9 4.17 97.04a23.23 23.23 0 0 0 6.03 14.88c-1.9 3.62-4.92 6.11-9.14 6.31 6.4 3 14.1 2.24 19.73 1.06a32.57 32.57 0 0 0 13.44 2.33c16.23-.58 29.08-12.53 28.7-26.68-.31-11.49-9.27-20.9-21.32-23.72z" fill="url(#h)" transform="translate(0 -64)"/><g transform="translate(-11.97 -17.02) scale(1.40675)"><rect overflow="visible" transform="rotate(-17.94)" width="1.76" height="19.33" x="28.36" y="32.29" rx="1.16" ry="1.03" fill="url(#i)"/><path overflow="visible" d="M33.18 38.72l-.98.02.04 1.42a.86.86 0 0 1-.82.88l-3.46.1a.85.85 0 0 1-.88-.8l-.04-1.4-1.03.02v.15l.06 2.05a1.2 1.2 0 0 0 1.22 1.16l4.83-.16a1.2 1.2 0 0 0 1.15-1.24l-.07-2.05a1.21 1.21 0 0 0-.02-.16z" fill="#fff"/><path overflow="visible" d="M37.47 23.66L22.3 33.87l1.84 5.64 18.27-.6z" fill="url(#j)" fill-rule="evenodd"/><rect overflow="visible" transform="rotate(-17.94)" ry=".57" rx="3.27" y="38.6" x="8.05" height="6.96" width="2.78" fill="url(#k)"/><path overflow="visible" d="M37.47 23.66L22.3 33.87l1.84 5.64 18.27-.6z" fill="url(#l)" fill-rule="evenodd"/></g><path d="M34.13 70.35c-1.05 0-2.12.06-3.2.16C15.74 72 3.9 83.15 5.13 95.43c.04.44.1.88.18 1.3 7.02 2.5 16 3.95 25.1 3.9 11.73-.06 22.87-2.56 30.75-6.58.16-1.31.18-2.64.05-3.98-1-9.98-10.48-17.63-21.97-19.36a33.29 33.29 0 0 0-5.1-.36z" opacity=".64" fill="url(#m)" transform="translate(0 -64)"/></svg>