<svg xmlns="http://www.w3.org/2000/svg" xmlns:xlink="http://www.w3.org/1999/xlink" width="64" height="64" version="1"><defs><linearGradient id="c"><stop offset="0" stop-color="#ffb380"/><stop offset="1" stop-color="#ff7f2a"/></linearGradient><linearGradient id="b"><stop offset="0" stop-color="#333"/><stop offset=".5"/><stop offset="1"/></linearGradient><linearGradient xlink:href="#a" id="e" gradientUnits="userSpaceOnUse" gradientTransform="matrix(.48574 -.00257 -.00027 .46777 1.19 64.74)" x1="67.64" y1="-14.27" x2="80.33" y2="79.55"/><linearGradient id="a"><stop offset="0" stop-color="#fdfdfd"/><stop offset="1" stop-color="#fdfdfd" stop-opacity="0"/></linearGradient><linearGradient xlink:href="#b" id="d" gradientUnits="userSpaceOnUse" x1="85.01" y1="34.89" x2="82.91" y2="147.23" gradientTransform="matrix(-.46984 -.03741 -.03741 .46984 65.66 70)"/></defs><path d="M41.61 71.22a33.3 33.3 0 0 0-8.77-.84C16.62 70.96 3.78 82.9 4.17 97.04a23.23 23.23 0 0 0 6.03 14.88c-1.9 3.62-4.92 6.11-9.14 6.31 6.4 3 14.1 2.24 19.73 1.06a32.57 32.57 0 0 0 13.44 2.33c16.23-.58 29.08-12.53 28.7-26.68-.31-11.49-9.27-20.9-21.32-23.72z" fill="url(#d)" transform="translate(0 -64)"/><path d="M25.5 17.97c-.52 0-1.02.15-1.43.46-.55.43-.84.99-.95 1.65-.12.68 0 1.32.37 1.92.37.53.93.92 1.71 1.05.75.13 1.43.03 1.99-.4.54-.43.83-1 .95-1.7a2.58 2.58 0 0 0-.37-1.85 2.4 2.4 0 0 0-1.72-1.08 2.8 2.8 0 0 0-.55-.05zm19.77.12l-2.73.87a26.39 20.24 10.03 0 1 3.25 13.65 26.39 20.24 10.03 0 1-7.74 11.71l2.27 1.71a29.71 22.8 10.03 0 0 8.93-12.8 29.58 22.7 10.03 0 0-4.04-15.1l.06-.03zm-15.14 9.97v.05zm0 .05l-.59 3.23 9.23 1.63.58-3.22-9.24-1.64zm-8.49 4.84V33zm0 .05l-.14.78-.07.94c-.2 1.2-.57 2.37-.99 3.64a13.6 13.6 0 0 1-1.93 3.74l2.58 1.32a20.62 20.62 0 0 0 4.19-8.64l.08-.5.1-.61z" fill="#fff"/><path d="M26.37 19.52c-.52 0-1.02.15-1.43.46-.56.43-.84.99-.95 1.65-.13.68 0 1.32.37 1.92.37.53.93.92 1.71 1.05.74.13 1.43.03 1.98-.4.55-.43.84-1 .96-1.7a2.58 2.58 0 0 0-.37-1.85 2.4 2.4 0 0 0-1.73-1.08 2.8 2.8 0 0 0-.54-.05zm19.77.12l-2.73.87a26.39 20.24 10.03 0 1 3.25 13.65 26.39 20.24 10.03 0 1-7.74 11.71l2.27 1.71a29.71 22.8 10.03 0 0 8.93-12.8 29.58 22.7 10.03 0 0-4.05-15.1l.07-.03zm-15.15 9.97v.05zm0 .05l-.58 3.23 9.23 1.63.58-3.22-9.24-1.64zm-8.48 4.84v.05zm0 .05l-.15.78-.06.94c-.21 1.2-.57 2.37-1 3.63a13.6 13.6 0 0 1-1.93 3.75l2.58 1.31a20.62 20.62 0 0 0 4.2-8.63l.08-.5.1-.61z" opacity=".18" fill="#fff"/><path d="M34.13 70.35c-1.05 0-2.12.06-3.2.16C15.74 72 3.9 83.15 5.13 95.43c.04.44.1.88.18 1.3 7.02 2.5 16 3.95 25.1 3.9 11.73-.06 22.87-2.56 30.75-6.58.16-1.31.18-2.64.05-3.98-1-9.98-10.48-17.63-21.97-19.36a33.29 33.29 0 0 0-5.1-.36z" opacity=".64" fill="url(#e)" transform="translate(0 -64)"/></svg>