<svg xmlns="http://www.w3.org/2000/svg" xmlns:xlink="http://www.w3.org/1999/xlink" width="64" height="64" version="1"><defs><linearGradient id="o"><stop offset="0" stop-color="#666"/><stop offset=".74" stop-color="#333"/><stop offset="1"/></linearGradient><linearGradient id="n"><stop offset="0"/><stop offset=".7" stop-color="#333"/><stop offset="1" stop-color="#666"/></linearGradient><linearGradient id="r"><stop offset="0"/><stop offset=".7" stop-color="#333"/><stop offset="1" stop-color="gray"/></linearGradient><linearGradient id="j"><stop offset="0"/><stop offset="1" stop-opacity="0"/></linearGradient><linearGradient id="i"><stop offset="0" stop-color="#e7e7e7"/><stop offset="1" stop-color="#fff"/></linearGradient><linearGradient id="k"><stop offset="0" stop-color="#fff"/><stop offset=".41" stop-color="#343434"/><stop offset="1"/></linearGradient><linearGradient id="h"><stop offset="0"/><stop offset="1" stop-color="#4d4d4d"/></linearGradient><linearGradient id="f"><stop offset="0" stop-color="#fbfbfb"/><stop offset="1" stop-color="#fbfbfb" stop-opacity="0"/></linearGradient><linearGradient id="c"><stop offset="0"/><stop offset="1" stop-opacity="0"/></linearGradient><linearGradient id="b"><stop offset="0" stop-color="#fbfbfb"/><stop offset="1" stop-color="#bbb"/></linearGradient><radialGradient xlink:href="#b" id="a" gradientUnits="userSpaceOnUse" gradientTransform="matrix(2.33333 0 0 .96009 -85.33 2.63)" cx="64" cy="66" fx="64" fy="66" r="60"/><radialGradient xlink:href="#b" id="d" gradientUnits="userSpaceOnUse" gradientTransform="matrix(2.33333 0 0 .96009 -85.33 2.63)" cx="64" cy="66" fx="64" fy="66" r="60"/><radialGradient xlink:href="#b" id="e" gradientUnits="userSpaceOnUse" gradientTransform="matrix(2.33333 0 0 .96009 -85.33 2.63)" cx="64" cy="66" fx="64" fy="66" r="60"/><linearGradient xlink:href="#h" id="g" gradientUnits="userSpaceOnUse" gradientTransform="matrix(1.66667 0 0 1.66667 95.67 -44)" x1="62" y1="60.58" x2="62" y2="74.03"/><clipPath id="A"><path d="M191 60a9.98 9.98 0 0 0 0 12h16a9.98 9.98 0 0 0 0-12z" fill="url(#g)" stroke-width="2" stroke-linecap="round"/></clipPath><linearGradient xlink:href="#k" id="C" gradientUnits="userSpaceOnUse" x1="205.5" y1="62.5" x2="210" y2="62.5" spreadMethod="reflect"/><linearGradient xlink:href="#l" id="D" gradientUnits="userSpaceOnUse" x1="209.44" y1="57.68" x2="200.53" y2="68.57"/><linearGradient id="l"><stop offset="0" stop-color="#404040"/><stop offset="1" stop-color="#42429f"/></linearGradient><radialGradient xlink:href="#m" id="E" gradientUnits="userSpaceOnUse" gradientTransform="matrix(1.68445 0 0 2.05878 -141.76 -64.82)" cx="207.12" cy="60.88" fx="207.9" fy="60.04" r="4.5"/><linearGradient id="m"><stop offset="0" stop-color="#bfd9ff"/><stop offset="1" stop-color="#bfd9ff" stop-opacity="0"/></linearGradient><linearGradient xlink:href="#n" id="z" gradientUnits="userSpaceOnUse" spreadMethod="reflect" x1="56" y1="66" x2="62.02" y2="66" gradientTransform="matrix(2.1635 0 0 2.1635 -102.14 -45.7)"/><linearGradient xlink:href="#o" id="y" gradientUnits="userSpaceOnUse" x1="63.74" y1="62.99" x2="60.26" y2="69.01" gradientTransform="matrix(2.32944 0 0 2.32944 -165.26 -53.66)"/><linearGradient xlink:href="#n" id="x" gradientUnits="userSpaceOnUse" spreadMethod="reflect" x1="56" y1="66" x2="62.02" y2="66" gradientTransform="matrix(2.82919 0 0 2.82919 -143.41 -89.64)"/><linearGradient xlink:href="#o" id="w" gradientUnits="userSpaceOnUse" x1="65.07" y1="63.99" x2="59.44" y2="69.63" gradientTransform="matrix(2.9956 0 0 2.9956 -231.75 -106.43)"/><linearGradient xlink:href="#p" id="u" gradientUnits="userSpaceOnUse" x1="76.1" y1="39.31" x2="76.1" y2="63.46" gradientTransform="translate(-12)"/><linearGradient id="p"><stop offset="0" stop-color="#fff"/><stop offset="1" stop-color="#fff" stop-opacity="0"/></linearGradient><filter x="-.08" width="1.17" y="-.18" height="1.36" id="v"><feGaussianBlur stdDeviation="1.79"/></filter><linearGradient xlink:href="#q" id="t" x1="56.16" y1="68.68" x2="60.66" y2="64.19" gradientUnits="userSpaceOnUse" gradientTransform="translate(-334.94 -216.27) scale(4.65983)"/><linearGradient id="q"><stop offset="0" stop-color="#fff"/><stop offset="1" stop-color="#fff" stop-opacity=".09"/></linearGradient><linearGradient xlink:href="#r" id="s" gradientUnits="userSpaceOnUse" spreadMethod="reflect" x1="56.7" y1="66.13" x2="62.02" y2="66" gradientTransform="matrix(4.65983 0 0 4.65983 -256.9 -210.46)"/><linearGradient xlink:href="#k" id="B" gradientUnits="userSpaceOnUse" x1="205.5" y1="62.5" x2="210" y2="62.5" spreadMethod="reflect"/></defs><g transform="translate(0 -64)"><circle r="27.96" cy="97.09" cx="32" fill="url(#s)"/><circle r="27.96" cy="91.28" cx="-46.03" transform="rotate(-45)" fill="url(#t)" stroke="#000" stroke-width=".58" stroke-linecap="round"/><path d="M62 38a27.93 27.93 0 0 0-25.69 16.84l12.35 6.88A13.96 13.96 0 0 1 62 52a13.96 13.96 0 0 1 13.34 9.72l12.35-6.88A27.88 27.88 0 0 0 62 38z" transform="matrix(.88805 0 0 .88805 -23.06 36.74)" opacity=".39" fill="url(#u)" filter="url(#v)"/><circle r="17.97" cy="91.28" cx="-46.03" transform="rotate(-45)" fill="url(#w)"/><circle r="16.98" cy="97.09" cx="32" fill="url(#x)"/><circle r="13.98" cy="100.08" cx="-20.83" transform="rotate(-30)" fill="url(#y)"/><circle r="12.98" cy="97.09" cx="32" fill="url(#z)"/><circle transform="scale(1 -1)" cx="32" cy="-97.09" r="11.46" opacity=".72"/><g transform="matrix(1.3676 0 0 1.3676 -240.15 6.65)" clip-path="url(#A)"><ellipse transform="matrix(1.25708 -1.25708 1.02852 1.02852 -123.61 260.05)" cx="205.5" cy="62.5" rx="4.5" ry="5.5" fill="url(#B)"/><ellipse transform="matrix(1.1001 -1.1001 .90009 .90009 -83.33 235.82)" cx="205.5" cy="62.5" rx="4.5" ry="5.5"/><ellipse transform="matrix(.94295 -.94295 .7715 .7715 -43 211.56)" cx="205.5" cy="62.5" rx="4.5" ry="5.5" fill="url(#C)"/><ellipse transform="matrix(.7858 -.7858 .64292 .64292 -2.66 187.3)" cx="205.5" cy="62.5" rx="4.5" ry="5.5"/><ellipse transform="matrix(.62864 -.62864 .51434 .51434 37.67 163.04)" cx="205.5" cy="62.5" rx="4.5" ry="5.5" fill="url(#D)"/><ellipse transform="matrix(.42988 -.2866 .35172 .23448 88.68 108.42)" cx="205.5" cy="62.5" rx="4.5" ry="5.5" opacity=".78" fill="url(#E)"/></g></g></svg>