<svg xmlns="http://www.w3.org/2000/svg" width="64" height="64"><defs><radialGradient id="b" cx="12.01" cy="13.2" r="20" gradientTransform="matrix(0 2.61817 -3.2572 0 59.52 -16.15)" gradientUnits="userSpaceOnUse"><stop offset="0" stop-color="#4d4d4d"/><stop offset=".26" stop-color="#333"/><stop offset=".7"/><stop offset="1"/></radialGradient><linearGradient id="a" x1="24" x2="24" y1="44" y2="3.9" gradientTransform="matrix(1.34401 0 0 1.55834 -.26 -5.4)" gradientUnits="userSpaceOnUse"><stop offset="0"/><stop offset="1" stop-color="#333"/></linearGradient></defs><rect x="5.79" y="1.61" width="52.42" height="60.78" rx="2.13" ry="2.47" stroke-linejoin="round" stroke-linecap="round" stroke-width=".51" stroke="url(#a)" fill="url(#b)"/><path d="M22.73 15.2v6.23h6.4a6.32 6.32 0 0 0-6.4-6.23zm-.91.9a6.31 6.31 0 0 0-6.4 6.22 6.31 6.31 0 0 0 6.4 6.23c3.53 0 6.39-2.79 6.39-6.23h-6.4zm10.97 5.24v2.42h15.54v-2.42zm-.26 4.54v2.42h15.93v-2.42zm-15.63 6.8c-.06 0-.11.03-.17.04H15.7v2.41h32.64v-2.41H17.06c-.06-.01-.1-.04-.16-.04zm3.02 4.23v2.42h28.06v-2.42zm-3.02 0a1.2 1.2 0 1 0 0 2.42 1.2 1.2 0 0 0 0-2.42zm3.02 4.23v2.42h28.06v-2.42zm-3.02 0a1.2 1.2 0 1 0 0 2.42 1.2 1.2 0 0 0 0-2.41z" fill="#ff7f2a"/></svg>