<svg xmlns="http://www.w3.org/2000/svg" xmlns:xlink="http://www.w3.org/1999/xlink" width="64" height="64"><defs><linearGradient id="c"><stop offset="0" stop-color="#782167"/><stop offset="1" stop-color="#ececec"/></linearGradient><linearGradient id="b"><stop offset="0" stop-color="teal"/><stop offset="1" stop-color="#e6e6e6"/></linearGradient><linearGradient gradientTransform="translate(.02 -19.58) scale(1.35797)" xlink:href="#a" id="d" x1="15.65" y1="18.16" x2="32.4" y2="62.46" gradientUnits="userSpaceOnUse"/><linearGradient id="a"><stop offset="0"/><stop offset="1" stop-color="#333"/></linearGradient><linearGradient xlink:href="#c" id="e" x1="31.27" y1="17.77" x2="31.27" y2="55.69" gradientUnits="userSpaceOnUse"/></defs><rect ry="3.79" rx="3.79" height="53.09" width="60.7" y="5.45" x="1.65" fill="url(#d)"/><path d="M5.47 17.77a.96.96 0 0 0-.96.96v36c0 .53.43.96.96.96h25.8V17.77H5.46zm27.34 0V55.7h25.72c.53 0 .96-.43.96-.96v-36a.96.96 0 0 0-.96-.96H32.81z" fill="url(#e)"/><path style="text-indent:0;text-transform:none" d="M55.3 9.75l-.77.79 1.38 1.38-1.38 1.37.78.78 1.38-1.37 1.38 1.37.78-.78-1.38-1.37 1.38-1.38-.78-.79-1.38 1.38zm-17.67.53v3.27h3.27v-3.27zm-30.57.16L4.89 12.6l.79.79L7.06 12l1.37 1.38.79-.79-1.38-1.37zm38.74.91v1.1h4.35v-1.1zm-7.08.02h1.09v1.09h-1.1z" color="#000" fill="#782167"/><path d="M8.06 23.81v1.2h19.59v-1.2H8.06zm0 6v1.2h19.59v-1.2H8.06zm0 6v1.2h19.59v-1.2H8.06zm0 6v1.2h19.59v-1.2H8.06zm28.36-18v1.2h19.59v-1.2zm0 6v1.2h19.59v-1.2zm0 6v1.2h19.59v-1.2zm0 6v1.2h19.59v-1.2z" fill="#1a1a1a" fill-opacity=".96"/></svg>