<svg xmlns="http://www.w3.org/2000/svg" xmlns:xlink="http://www.w3.org/1999/xlink" width="64" height="64"><defs><linearGradient x1="63.499" y1="-79.239" x2="63.499" y2="9.327" id="a" gradientUnits="userSpaceOnUse" gradientTransform="translate(-68.24 44.013)"><stop offset="0" stop-color="#73a3e7"/><stop offset=".139" stop-color="#83b1f5"/><stop offset=".369" stop-color="#bcd6fc"/><stop offset=".501" stop-color="#659fee"/><stop offset="1" stop-color="#06f"/></linearGradient><linearGradient x1="354.685" y1="-601.276" x2="354.685" y2="-503.146" id="b" gradientUnits="userSpaceOnUse" gradientTransform="matrix(1 0 0 -.6522 -359.426 -340.638)"><stop offset="0" stop-color="#b3d9ff"/><stop offset=".486" stop-color="#71a8f5"/><stop offset=".799" stop-color="#2c72c7"/><stop offset=".98" stop-color="#2c72c7"/><stop offset="1" stop-color="#deebff"/></linearGradient><linearGradient x1="539.395" y1="678.485" x2="538.772" y2="773.326" id="i" xlink:href="#c" gradientUnits="userSpaceOnUse" gradientTransform="matrix(.41584 0 0 .4892 -192.043 -326.825)"/><linearGradient id="d"><stop offset="0" stop-color="#eeeeec"/><stop offset="1" stop-color="#eeeeec" stop-opacity="0"/></linearGradient><linearGradient id="e"><stop offset="0" stop-color="#a4c0e4"/><stop offset="1" stop-color="#a4c0e4" stop-opacity="0"/></linearGradient><linearGradient x1="63.499" y1="-79.239" x2="63.499" y2="9.327" id="h" gradientUnits="userSpaceOnUse" gradientTransform="translate(-68.24 44.013)"><stop offset="0" stop-color="#73a3e7"/><stop offset=".258" stop-color="#83b1f5"/><stop offset=".454" stop-color="#bcd6fc"/><stop offset=".728" stop-color="#659fee"/><stop offset="1" stop-color="#06f"/></linearGradient><radialGradient gradientTransform="matrix(1 0 0 -1 -359.207 -378.987)" gradientUnits="userSpaceOnUse" id="c" r="34.179" cy="-426" cx="354.852"><stop offset="0" stop-color="#1a1a1a"/><stop offset=".556"/><stop offset="1" stop-color="#333"/></radialGradient><radialGradient cx="354.852" cy="-426" r="34.179" id="f" gradientUnits="userSpaceOnUse" gradientTransform="matrix(1 0 0 -1 -359.207 -378.987)"><stop offset="0" stop-color="#538bcf"/><stop offset="1" stop-color="#80b3ff"/></radialGradient><radialGradient cx="354.852" cy="-426" r="34.179" id="g" gradientUnits="userSpaceOnUse" gradientTransform="matrix(1 0 0 -1 -359.207 -376.987)"><stop offset="0" stop-color="#538bcf"/><stop offset="1" stop-color="#80b3ff"/></radialGradient></defs><path d="M53.164 31.94h-10.28c-.223 0-.404-.212-.404-.474v1.244h10.682c.356 0 .687-.348.984-.152-.221-.377-.581-.618-.982-.618z" fill="#fff"/><path d="M22.324 3.841c-.445 0-.806.425-.806.949v27.625H10.835c-.323 0-.615.227-.741.577a1.092 1.092 0 00.16 1.03L31.42 59.87a.752.752 0 00.58.292.752.752 0 00.58-.292l21.165-25.847c.224-.275.287-.68.162-1.029-.128-.35-.42-.577-.742-.577H42.48V4.79c0-.523-.361-.948-.806-.948z" stroke="#000" stroke-width=".709"/><path d="M41.136 33.363V4.79H22.863v28.573H10.835L32 59.21l21.164-25.847z" fill="url(#i)"/><path d="M22.324 3.62c-.416 0-.765.263-.983.64.295-.199.619.13.983.13h19.35c.365 0 .688-.329.984-.13-.218-.377-.567-.64-.983-.64z"/></svg>