<svg xmlns="http://www.w3.org/2000/svg" xmlns:xlink="http://www.w3.org/1999/xlink" width="64" height="64"><defs><linearGradient id="a"><stop offset="0" stop-color="#333"/><stop offset="1"/></linearGradient><radialGradient xlink:href="#a" id="d" cx="80.35" cy="35.25" fx="80.35" fy="35.25" r="29.14" gradientTransform="matrix(-1.56586 1.9761 -.83371 -.66063 209.9 -130.1)" gradientUnits="userSpaceOnUse"/><linearGradient id="b"><stop offset="0" stop-color="#a33e03"/><stop offset="1" stop-color="#d36118"/></linearGradient><linearGradient id="c"><stop stop-color="#c254d2" offset="0"/><stop stop-color="#8e03a3" offset="1"/></linearGradient></defs><path d="M9.86 1a4.42 4.42 0 0 0-4.43 4.43v53.14A4.42 4.42 0 0 0 9.86 63h44.28a4.42 4.42 0 0 0 4.43-4.43V21.62L37.95 1z" color="#090d11" fill="url(#d)" stroke="#000" stroke-width=".5"/><path d="M44.18 1l14.4 14.4V5.42A4.42 4.42 0 0 0 54.13 1z" color="#090d11" fill="#c254d2" stroke="#782144" stroke-width=".5"/><path d="M32 22.42c-4.12 0-8.24.41-11.39 1.26-1.57.43-2.9.96-3.9 1.65-1 .7-1.7 1.64-1.71 2.75v19.84c0 1 .65 1.83 1.57 2.5.93.66 2.18 1.22 3.7 1.68 3.05.93 7.17 1.48 11.73 1.48 4.56 0 8.68-.55 11.73-1.48a12.74 12.74 0 0 0 3.7-1.68c.92-.67 1.57-1.5 1.57-2.5V28.08c0-1.11-.7-2.05-1.7-2.75-1-.7-2.34-1.22-3.91-1.65A45.88 45.88 0 0 0 32 22.42zm0 1.41c4.03 0 8.06.42 11.02 1.22 1.47.4 2.68.9 3.47 1.45.78.54 1.1 1.05 1.1 1.58 0 .54-.32 1.05-1.1 1.6-.79.54-2 1.04-3.47 1.44-2.96.8-7 1.21-11.02 1.21-4.03 0-8.06-.4-11.02-1.21-1.47-.4-2.68-.9-3.47-1.45-.78-.54-1.1-1.05-1.1-1.59 0-.53.32-1.04 1.1-1.58.79-.55 2-1.05 3.47-1.45 2.96-.8 7-1.22 11.02-1.22zM16.42 30.6l.28.24c1 .69 2.34 1.22 3.91 1.65 3.15.85 7.27 1.26 11.39 1.26 4.12 0 8.24-.41 11.39-1.26 1.57-.43 2.9-.96 3.9-1.65l.3-.24V34.46c0 .37-.27.83-1 1.35-.72.52-1.85 1.04-3.28 1.47A40.74 40.74 0 0 1 32 38.71c-4.44 0-8.46-.56-11.31-1.43a11.66 11.66 0 0 1-3.29-1.47c-.72-.52-.98-.98-.98-1.35v-.7zm0 6.23l.15.13c.93.67 2.18 1.22 3.7 1.68 3.05.93 7.17 1.48 11.73 1.48 4.56 0 8.68-.55 11.73-1.48a12.76 12.76 0 0 0 3.7-1.68l.15-.13v4.71c0 .37-.26.83-.98 1.36-.73.52-1.86 1.03-3.29 1.47A40.73 40.73 0 0 1 32 45.79c-4.44 0-8.46-.55-11.31-1.42a11.66 11.66 0 0 1-3.29-1.47c-.72-.53-.98-.99-.98-1.36v-2.12zm0 7.08c.05.04.1.1.15.13.93.67 2.18 1.22 3.7 1.68 3.05.93 7.17 1.49 11.73 1.49 4.56 0 8.68-.56 11.73-1.49a12.74 12.74 0 0 0 3.7-1.68l.15-.13v4c0 .38-.26.84-.98 1.36-.73.52-1.86 1.04-3.29 1.47A40.74 40.74 0 0 1 32 52.17c-4.44 0-8.46-.56-11.31-1.43a11.66 11.66 0 0 1-3.29-1.47c-.72-.52-.98-.98-.98-1.35z" fill="#c254d2"/></svg>