<svg xmlns="http://www.w3.org/2000/svg" xmlns:xlink="http://www.w3.org/1999/xlink" width="64" height="64"><defs><linearGradient id="a"><stop offset="0" stop-color="#333"/><stop offset="1"/></linearGradient><radialGradient xlink:href="#a" id="d" cx="80.35" cy="35.25" fx="80.35" fy="35.25" r="29.14" gradientTransform="matrix(-1.56586 1.9761 -.83371 -.66063 209.9 -130.1)" gradientUnits="userSpaceOnUse"/><linearGradient id="b"><stop offset="0" stop-color="#a33e03"/><stop offset="1" stop-color="#d36118"/></linearGradient><linearGradient id="c"><stop offset="0" stop-color="#535353"/><stop offset="1" stop-color="#7e7e7e"/></linearGradient></defs><path d="M9.86 1a4.42 4.42 0 0 0-4.43 4.43v53.14A4.42 4.42 0 0 0 9.86 63h44.28a4.42 4.42 0 0 0 4.43-4.43V21.62L37.95 1z" color="#090d11" fill="url(#d)" stroke="#000" stroke-width=".5"/><path d="M44.18 1l14.4 14.4V5.42A4.42 4.42 0 0 0 54.13 1z" color="#090d11" fill="#93aca7" stroke="#4d4d4d" stroke-width=".5"/><path d="M13.84 21.93v30.93h36V21.93zm1.68 1.12h32.63c.3 0 .56.25.56.56v20.25c0 .32-.25.57-.56.57H15.52a.56.56 0 0 1-.56-.57V23.61c0-.3.25-.56.56-.56zm-.56 23.06h33.75v5.63H14.96z" opacity=".6" fill="#93aca7"/><path d="M29.58 24.17L23.6 38.25l-3.54-6.7-3.4 1.26.6 2.04 1.64-.83 4.22 8.71h1l6.87-16.3h13.8v1.12h1.68v-3.38H29.58zm1.96 6.2l5.44 6.03v.07l-5.62 6.27h2.8l4.35-4.66h.08l4.8 4.66h3.01l-6.16-6.37v-.07L46 30.36h-2.8l-4.55 4.3h-.09l-4-4.3zm4.74 16.25c-.4 0-.67.06-.8.18-.14.12-.2.35-.2.7v.58c0 .24-.05.41-.14.5-.08.1-.24.14-.46.14h-.15v.34h.15c.22 0 .38.05.46.14.09.1.13.26.13.5v.58c0 .36.07.6.2.71.14.12.4.18.8.18h.16v-.35h-.17c-.22 0-.37-.03-.44-.1-.06-.07-.1-.22-.1-.45v-.6c0-.24-.03-.43-.1-.54-.08-.12-.2-.2-.38-.24.17-.04.3-.11.37-.23.07-.11.11-.3.11-.55v-.6c0-.22.04-.37.1-.44.07-.07.22-.1.44-.1h.17v-.35zm3.92 0v.34h.16c.23 0 .37.04.44.11s.1.22.1.45v.6c0 .24.04.43.11.54.08.12.2.2.38.23-.18.05-.3.12-.38.24-.07.11-.1.3-.1.55v.6c0 .22-.04.37-.1.44-.08.07-.22.1-.45.1h-.16v.35h.15c.4 0 .66-.06.8-.18.13-.12.2-.35.2-.7v-.58c0-.25.04-.41.13-.5.08-.1.24-.15.47-.15h.15v-.34h-.15c-.23 0-.39-.05-.47-.14-.09-.09-.13-.26-.13-.5v-.57c0-.36-.07-.6-.2-.71-.14-.12-.4-.18-.8-.18zm-8.31.5v.76h-.72v.35h.72v1.46c0 .32.07.55.2.69.14.13.37.2.7.2h.55v-.36h-.5c-.19 0-.32-.04-.4-.11-.07-.08-.1-.22-.1-.42v-1.46h1v-.35h-1v-.77zm-8.6.62c-.32 0-.57.08-.74.22a.72.72 0 0 0-.26.6c0 .2.05.36.17.48.12.11.3.2.56.25l.16.03h.02c.4.09.6.23.6.43a.4.4 0 0 1-.17.34.76.76 0 0 1-.45.12c-.14 0-.28-.03-.43-.07-.15-.04-.3-.1-.47-.19v.46a3.7 3.7 0 0 0 .89.17c.34 0 .6-.08.79-.23a.76.76 0 0 0 .28-.62.7.7 0 0 0-.17-.5.86.86 0 0 0-.5-.24l-.18-.04a1.5 1.5 0 0 1-.55-.17c-.07-.06-.1-.15-.1-.27 0-.13.04-.23.14-.3.1-.06.25-.1.45-.1a1.68 1.68 0 0 1 .77.22v-.43a2.05 2.05 0 0 0-.8-.16zm2.83.02a.9.9 0 0 0-.77.37c-.18.26-.27.6-.27 1.05 0 .44.09.78.27 1.03a.9.9 0 0 0 .77.38c.16 0 .3-.04.43-.11a.77.77 0 0 0 .29-.3v1.36h.45v-3.72h-.45v.34a.76.76 0 0 0-.3-.3.83.83 0 0 0-.42-.1zm3.76.04c-.21 0-.4.05-.55.15a.9.9 0 0 0-.34.44v-.53h-.44v2.7h.44v-1.34c0-.33.08-.58.22-.75.15-.18.36-.26.64-.26.11 0 .22.01.32.05.1.03.2.09.29.16v-.45a.99.99 0 0 0-.58-.17zm7.15.01l.96 1.3-1.06 1.4h.52l.78-1.08.8 1.08h.5l-1.05-1.4.96-1.3h-.5l-.7.98-.72-.98zm-10.84.32c.21 0 .38.09.48.27.12.17.17.43.17.77s-.06.6-.17.78a.53.53 0 0 1-.48.26.54.54 0 0 1-.48-.26c-.11-.18-.17-.44-.17-.78s.06-.6.17-.78c.1-.17.27-.26.48-.26z" fill="#93aca7"/></svg>