<svg xmlns="http://www.w3.org/2000/svg" xmlns:xlink="http://www.w3.org/1999/xlink" width="64" height="64"><defs><linearGradient id="a"><stop offset="0" stop-color="#333"/><stop offset="1"/></linearGradient><radialGradient xlink:href="#a" id="c" cx="80.35" cy="35.25" fx="80.35" fy="35.25" r="29.14" gradientTransform="matrix(-1.56586 1.9761 -.83371 -.66063 209.9 -130.1)" gradientUnits="userSpaceOnUse"/><linearGradient id="b"><stop offset="0" stop-color="#a33e03"/><stop offset="1" stop-color="#d36118"/></linearGradient></defs><path d="M9.86 1a4.42 4.42 0 0 0-4.43 4.43v53.14A4.42 4.42 0 0 0 9.86 63h44.28a4.42 4.42 0 0 0 4.43-4.43V21.62L37.95 1z" color="#090d11" fill="url(#c)" stroke="#000" stroke-width=".5"/><path d="M44.18 1l14.4 14.4V5.42A4.42 4.42 0 0 0 54.13 1z" color="#090d11" fill="#ff7f2a" stroke="#803300" stroke-width=".5"/><path d="M15 23.66v23.37h15.94v1.1l-6.38 4.21h3.13l4.7-3.72h.27l4.65 3.72h3.19l-6.38-4.25v-1.06H49V23.66zm1.6 1.06h30.8c.3 0 .54.24.54.53v20.19c0 .3-.24.53-.53.53H16.59a.53.53 0 0 1-.53-.53V25.25c0-.3.24-.53.53-.53zm1.06 1.6v2.12h28.68V26.3zm6.37 3.71v2.13h17v-2.13zm-2.66 4.25v2.13h24.67v-2.13zm-2.65 0a1.06 1.06 0 1 0 0 2.13 1.06 1.06 0 0 0 0-2.13zM21.38 38v2.13h24.66V38zm-2.66 0a1.06 1.06 0 1 0 0 2.13 1.06 1.06 0 0 0 0-2.13zm2.66 3.72v2.12h24.66v-2.12zm-2.66 0a1.06 1.06 0 1 0 0 2.13 1.06 1.06 0 0 0 0-2.13z" fill="#ff7f2a"/></svg>