<svg xmlns="http://www.w3.org/2000/svg" xmlns:xlink="http://www.w3.org/1999/xlink" width="64" height="64"><defs><linearGradient id="a"><stop offset="0" stop-color="#333"/><stop offset="1"/></linearGradient><radialGradient xlink:href="#a" id="d" cx="80.35" cy="35.25" fx="80.35" fy="35.25" r="29.14" gradientTransform="matrix(-1.56586 1.9761 -.83371 -.66063 209.9 -130.1)" gradientUnits="userSpaceOnUse"/><linearGradient id="b"><stop offset="0" stop-color="#a33e03"/><stop offset="1" stop-color="#d36118"/></linearGradient><linearGradient id="c"><stop offset="0" stop-color="#535353"/><stop offset="1" stop-color="#7e7e7e"/></linearGradient></defs><path d="M9.86 1a4.42 4.42 0 0 0-4.43 4.43v53.14A4.42 4.42 0 0 0 9.86 63h44.28a4.42 4.42 0 0 0 4.43-4.43V21.62L37.95 1z" color="#090d11" fill="url(#d)" stroke="#000" stroke-width=".5"/><path d="M44.18 1l14.4 14.4V5.42A4.42 4.42 0 0 0 54.13 1z" color="#090d11" fill="#e9b913" stroke="#a80" stroke-width=".5"/><path d="M23.7 22.95A11.42 11.42 0 0 0 12.3 34.37 11.42 11.42 0 0 0 23.7 45.8a11.42 11.42 0 0 0 1.27-.08l-4.27 6.93a.25.25 0 0 0-.04.04v.16c0 .03.02.05.04.08l.04.04.05.04a.3.3 0 0 0 .17.04h22.47c.06 0 .12-.01.17-.04a.28.28 0 0 0 .04-.04.3.3 0 0 0 .05-.04.27.27 0 0 0 .04-.08v-.08-.08a.26.26 0 0 0-.04-.04l-2.37-3.84h10.1c.16 0 .28-.13.28-.29v-18.1a.28.28 0 0 0-.28-.28H34.31a11.42 11.42 0 0 0-10.6-7.19zm0 .68a10.75 10.75 0 0 1 9.87 6.51h-.24a.28.28 0 0 0-.28.28v5.07l-.59-.95a.3.3 0 0 0-.17-.12.29.29 0 0 0-.09-.04h-.04a.34.34 0 0 0-.04.04.3.3 0 0 0-.18.12l-5.63 9.04-.87 1.4a10.75 10.75 0 0 1-1.73.14 10.75 10.75 0 0 1-10.75-10.75 10.75 10.75 0 0 1 10.75-10.74zm9.92 7.08h17.53v17.53H40.98l-2.88-4.66-4.48-7.18zm-1.42 4.51l5.38 8.64 5.38 8.63H21.44l5.38-8.63z" fill="#e9b913"/></svg>