<svg xmlns="http://www.w3.org/2000/svg" xmlns:xlink="http://www.w3.org/1999/xlink" width="64" height="64"><defs><linearGradient id="a"><stop offset="0" stop-color="#333"/><stop offset="1"/></linearGradient><radialGradient xlink:href="#a" id="d" cx="80.35" cy="35.25" fx="80.35" fy="35.25" r="29.14" gradientTransform="matrix(-1.56586 1.9761 -.83371 -.66063 209.9 -130.1)" gradientUnits="userSpaceOnUse"/><linearGradient id="b"><stop offset="0" stop-color="#a33e03"/><stop offset="1" stop-color="#d36118"/></linearGradient><linearGradient id="c"><stop offset="0" stop-color="#18a303"/><stop offset="1" stop-color="#43c330"/></linearGradient><linearGradient id="e" gradientUnits="userSpaceOnUse" x1="934" x2="758" xlink:href="#c" y1="116" y2="-116" gradientTransform="matrix(.28128 0 0 .28128 -205.48 31.25)"/></defs><path d="M9.86 1a4.42 4.42 0 0 0-4.43 4.43v53.14A4.42 4.42 0 0 0 9.86 63h44.28a4.42 4.42 0 0 0 4.43-4.43V21.62L37.95 1z" color="#090d11" fill="url(#d)" stroke="#000" stroke-width=".5"/><path d="M44.18 1l14.4 14.4V5.42A4.42 4.42 0 0 0 54.13 1z" color="#090d11" fill="#29b015" stroke="green" stroke-width=".5"/><path d="M14.48 22.25V51.5h14.06v2.25h21.94V38h-2.25V22.25H15.6zm1.12 1.12h9.57v4.5H15.6zm10.69 0h10.13v4.5H26.29zm11.25 0h9.56v4.5h-9.56zM15.6 29h9.57v4.5H15.6zm10.69 0h10.13v4.5H26.29zm11.25 0h9.56v4.5h-9.56zM15.6 34.62h9.57v4.5H15.6zm10.69 0h10.13V38h-7.88v1.13H26.3zm11.25 0h9.56V38h-9.56zm-7.87 4.5h19.69v13.5h-19.7zM15.6 40.26h9.57v4.5H15.6zm10.69 0h2.25v4.5H26.3zm9.56.56v10.7h2.82V40.8zm-4.5 2.82v7.87h2.82v-7.87zm13.5 1.12v6.75h2.82v-6.75zM15.6 45.88h9.57v4.5H15.6zm10.69 0h2.25v4.5H26.3zM40.35 47v4.5h2.82V47z" fill="url(#e)"/></svg>