<svg xmlns="http://www.w3.org/2000/svg" xmlns:xlink="http://www.w3.org/1999/xlink" width="64" height="64"><defs><linearGradient id="a"><stop offset="0" stop-color="#333"/><stop offset="1"/></linearGradient><radialGradient xlink:href="#a" id="d" cx="80.35" cy="35.25" fx="80.35" fy="35.25" r="29.14" gradientTransform="matrix(-1.56586 1.9761 -.83371 -.66063 209.9 -130.1)" gradientUnits="userSpaceOnUse"/><linearGradient id="b"><stop offset="0" stop-color="#a33e03"/><stop offset="1" stop-color="#d36118"/></linearGradient><linearGradient id="c"><stop offset="0" stop-color="#0369a3"/><stop offset="1" stop-color="#1c99e0"/></linearGradient><linearGradient id="i" gradientUnits="userSpaceOnUse" x1="54" x2="10" xlink:href="#c" y1="61" y2="3" gradientTransform="translate(-2 -7.56) scale(1.0625)"/><linearGradient xlink:href="#c" id="h" gradientUnits="userSpaceOnUse" gradientTransform="matrix(3.77403 0 0 1.0625 -45.4 -7.56)" x1="54" y1="61" x2="10" y2="3"/><linearGradient xlink:href="#c" id="g" gradientUnits="userSpaceOnUse" gradientTransform="matrix(3.77403 0 0 1.0625 -45.4 -7.56)" x1="54" y1="61" x2="10" y2="3"/><linearGradient xlink:href="#c" id="f" gradientUnits="userSpaceOnUse" gradientTransform="matrix(3.77403 0 0 1.0625 -45.4 -7.56)" x1="54" y1="61" x2="10" y2="3"/><linearGradient xlink:href="#c" id="e" gradientUnits="userSpaceOnUse" gradientTransform="matrix(3.77403 0 0 1.0625 -45.4 -7.56)" x1="54" y1="61" x2="10" y2="3"/></defs><path d="M9.86 1a4.42 4.42 0 0 0-4.43 4.43v53.14A4.42 4.42 0 0 0 9.86 63h44.28a4.42 4.42 0 0 0 4.43-4.43V21.62L37.95 1z" color="#090d11" fill="url(#d)" stroke="#000" stroke-width=".5"/><path d="M44.18 1l14.4 14.4V5.42A4.42 4.42 0 0 0 54.13 1z" color="#090d11" fill="#0c7ab9" stroke="#00f" stroke-width=".5"/><path d="M15 22.19v2.12h33.97V22.2z" fill="url(#e)"/><path d="M15 26.44v2.12h33.97v-2.12z" fill="url(#f)"/><path d="M15 30.69v2.12h33.97V30.7z" fill="url(#g)"/><path d="M15 34.94v2.12h33.97v-2.12z" fill="url(#h)"/><path d="M15 39.19v2.12h34V39.2zM15 43.44v2.12h34v-2.12zM15 47.69v2.12h22.31V47.7z" fill="url(#i)"/></svg>