<svg xmlns="http://www.w3.org/2000/svg" xmlns:xlink="http://www.w3.org/1999/xlink" width="64" height="64"><path d="M59.68 19.16a37 37 0 0 0-27.71-12.6 37 37 0 0 0-27.63 12.5c-.43.5-5.09 5.83.08 11.02 6.39 7.36 16.5 18.6 22.52 24.93 5.03 5.21 9.71.48 10.17 0a928.56 928.56 0 0 0 22.55-25.08c5.03-5.04.45-10.28.02-10.77z" fill="url(#a)" fill-rule="evenodd"/><defs><linearGradient id="c"><stop offset="0" stop-color="#0ff" stop-opacity=".07"/><stop offset=".5" stop-color="#0ff"/><stop offset="1" stop-color="#0ff" stop-opacity=".11"/></linearGradient><linearGradient xlink:href="#b" id="a" x1="2" y1="32" x2="62" y2="32" gradientUnits="userSpaceOnUse"/><linearGradient id="b"><stop offset="0" stop-color="#333"/><stop offset=".5"/><stop offset="1" stop-color="#333"/></linearGradient><linearGradient xlink:href="#c" id="d" x1="13.04" y1="39.34" x2="51.08" y2="39.34" gradientUnits="userSpaceOnUse"/></defs><path d="M49.61 31.76a24.25 24.25 0 0 0-17.57-7.43 24.25 24.25 0 0 0-17.52 7.38c-.27.29-3.23 3.43.05 6.5a553.44 553.44 0 0 0 14.28 14.7c3.2 3.08 6.16.28 6.45 0a563.65 563.65 0 0 0 14.3-14.8c3.19-2.97.29-6.06 0-6.35z" fill="url(#d)" fill-rule="evenodd"/></svg>