<svg xmlns="http://www.w3.org/2000/svg" width="64" height="64"><defs><linearGradient id="a"><stop stop-color="#44ecff" stop-opacity=".22" offset="0"/><stop stop-color="#4aefff" stop-opacity=".12" offset=".5"/><stop stop-color="#6af4ff" stop-opacity=".05" offset=".75"/><stop stop-color="#4df5ff" stop-opacity="0" offset="1"/></linearGradient></defs><path d="M32.03 2.46L1 20.16v35.43l10.34 5.95 3.31-1.91.02.01 9.67-5.57V41.9l-9.67-5.54v-8.69L32 17.73l17.34 9.93v8.68l-9.66 5.46v1.16l.03 11.08 9.63 5.56.02-.01 3.32 1.9v.01L63 55.6V20.2L32.03 2.46z" fill="#999"/><path d="M32.4 4.57l.01 10.2 8.86-5.11-8.87-5.09zm-.83.03l-8.85 5.07 8.84 5.1zm10.49 5.5l-.02 10.23 8.88-5.14-8.86-5.08zm-20.15.03l-8.84 5.07 8.86 5.13-.01-10.2zm.8.47l.03 10.2 8.82-5.05v-.05l-8.84-5.1zm18.54 0l-8.84 5.1v.02l8.82 5.06.02-10.18zm-28.99 5.52l-8.46 4.8 8.46 4.96zm39.45 0v9.76l8.46-4.96zm-38.64 0v10.22l8.86-5.08zm37.83 0l-8.84 5.13 8.84 5.07zm10.11 5.25l-8.88 5.2L61 31.53zm-58.02.02V31.5l8.86-4.94-8.86-5.18zm9.27 5.87l-8.45 4.72 8.45 4.87zm39.45 0v9.59l8.45-4.87zm9.3 5.16l-8.87 5.1 8.87 5.02zm-58.02.02v10.09l8.84-5zm10.07 5.32v10.13l8.87-5.05-8.87-5.08zm38.65.45v9.65L60.2 43zm-39.45 0l-8.5 4.8 8.5 4.85zM61 43.48l-8.92 5.08 8.92 5.09zm-58.02.02v10.13l8.88-5.07zm18.94.26l-8.43 4.8 8.43 4.81zm-8.87 5.48v9.7l8.46-4.87zm-.8.03L3.4 54.31l8.85 5.1zm39.45 0V59.4l8.86-5.07zm9.3 4.69l-.1.16.1-.05zm-58.02.06v.05l.05.03z" fill="#333"/><path d="M32.4 4.57l.01 10.2 8.86-5.11-8.87-5.09zm9.66 5.54l-.02 10.22 8.88-5.14-8.86-5.08zm-.8.49l-8.85 5.1v.02l8.82 5.06.02-10.18zm10.45 5.52v9.76l8.46-4.96zm-.8 0l-8.85 5.13 8.84 5.07zM61 21.38l-8.88 5.2L61 31.53zm-9.3 5.89v9.59l8.45-4.87zm9.3 5.16l-8.87 5.1 8.87 5.02zM50.9 37.75l-8.92 5.05 8.93 5.09V37.75zm.81.46v9.65l8.5-4.85zm-10 4.74l-.03.02V43zM3 43.5l.03 10.11 8.85-5.05L3 43.5zm39.04.26v9.61l8.43-4.8zm8.87 5.48l-8.46 4.83 8.46 4.86zm-38.65.03l-8.83 5.04 8.83 5.09z"/></svg>