<svg xmlns="http://www.w3.org/2000/svg" xmlns:xlink="http://www.w3.org/1999/xlink" height="64" width="64"><defs><linearGradient id="c"><stop offset="0" stop-color="#5fbcd3"/><stop offset="1" stop-color="#d7eef4" stop-opacity=".02"/></linearGradient><linearGradient id="d"><stop offset="0" stop-color="#d7eef4"/><stop offset="1" stop-color="#afdde9"/></linearGradient><linearGradient id="f"><stop offset="0" stop-color="#333"/><stop offset="1"/></linearGradient><linearGradient id="b"><stop offset="0"/><stop offset="1" stop-color="#333"/></linearGradient><linearGradient id="e"><stop offset="0" stop-color="#fff"/><stop offset="1" stop-color="#fff" stop-opacity="0"/></linearGradient><linearGradient id="a"><stop offset="0" stop-color="#1a1a1a"/><stop offset="1" stop-color="#333"/></linearGradient><linearGradient gradientTransform="matrix(.40209 0 0 .3981 -37.5 14.43)" gradientUnits="userSpaceOnUse" xlink:href="#a" id="o" y2="11.95" x2="173.1" y1="75.32" x1="173.1"/><linearGradient gradientTransform="matrix(.4222 0 0 .41803 -41.1 13.82)" gradientUnits="userSpaceOnUse" xlink:href="#b" id="n" y2="11.95" x2="173.1" y1="75.32" x1="173.1"/><linearGradient xlink:href="#d" id="l" x1="6.31" y1="16.58" x2="31.05" y2="16.58" gradientUnits="userSpaceOnUse" gradientTransform="matrix(1.04565 0 0 1.03544 13.1 14.46)"/><linearGradient gradientTransform="matrix(.41163 0 0 .40755 -39.4 13.67)" gradientUnits="userSpaceOnUse" xlink:href="#e" id="k" y2="67.35" x2="201.87" y1="146.15" x1="277.57"/><linearGradient gradientTransform="matrix(.41163 0 0 .40755 119.11 9.73)" gradientUnits="userSpaceOnUse" xlink:href="#b" id="i" y2="91.97" x2="-164.72" y1="99.67" x1="-172.65"/><linearGradient gradientTransform="matrix(1.05751 0 0 1.04705 12.95 16.06)" gradientUnits="userSpaceOnUse" xlink:href="#f" id="j" y2="29.48" x2="31.36" y1="27.99" x1="32.89"/><linearGradient gradientTransform="matrix(1.07999 0 0 1.07999 -69.36 .32)" xlink:href="#g" id="h" x1="71.65" y1="1.34" x2="71.65" y2="57.32" gradientUnits="userSpaceOnUse"/><linearGradient id="g"><stop offset="0"/><stop offset=".66" stop-color="#999"/><stop offset="1" stop-color="#1a1a1a"/></linearGradient><radialGradient gradientTransform="matrix(3.2112 0 0 2.47073 -21 -9.01)" gradientUnits="userSpaceOnUse" xlink:href="#c" id="m" fy="13.08" fx="15.41" r="6.66" cy="13.08" cx="15.41"/></defs><path d="M8.02 1.77c-1.15 0-2.06 4.92-2.06 11V51.22c0 6.09.91 11 2.06 11h2.27l-.6-1.37h2.75l.6 1.38h33.88l.6-1.38h2.75l-.6 1.37h2.32c1.14 0 2.05-4.9 2.05-10.98V12.76c0-6.08-.9-10.98-2.05-10.98h-2.32l.6 1.37h-2.75l-.6-1.38H13.04l-.6 1.38H9.69l.6-1.38zm1.02 4.14h2.76l-.26 2.74H8.79zm39.08 0h2.75l.3 2.74h-2.75zM8.7 11.4h2.75v2.74H8.7zm39.84 0h2.75v2.74h-2.75zM8.7 16.89h2.75v2.75H8.7zm39.84 0h2.75v2.75h-2.75zM8.7 22.39h2.75v2.74H8.7zm39.84 0h2.75v2.74h-2.75zM8.7 27.87h2.75v2.74H8.7zm39.84 0h2.75v2.74h-2.75zM8.7 33.38h2.75v2.74H8.7zm39.84 0h2.75v2.74h-2.75zM8.7 38.88h2.75v2.74H8.7zm39.84 0h2.75v2.74h-2.75zM8.7 44.35h2.75v2.75H8.7zm39.84 0h2.75v2.75h-2.75zM8.7 49.86h2.75v2.75H8.7zm39.84 0h2.75v2.75h-2.75zM8.8 55.35h2.75l.26 2.74H9.04zm39.63 0h2.75l-.3 2.74h-2.75z" fill="url(#h)"/><path d="M16.05 10.92c-.36 0-.65.43-.65.96s.3.96.65.96h27.72c.36 0 .65-.43.65-.96s-.3-.96-.65-.96zm0 8c-.36 0-.65.43-.65.96s.3.96.65.96h27.72c.36 0 .65-.43.65-.96s-.3-.96-.65-.96zm0 8c-.36 0-.65.43-.65.96s.3.96.65.96h27.72c.36 0 .65-.43.65-.96s-.3-.96-.65-.96zm0 8c-.36 0-.65.43-.65.96s.3.96.65.96h27.72c.36 0 .65-.43.65-.96s-.3-.96-.65-.96zm0 8c-.36 0-.65.43-.65.96s.3.96.65.96h27.72c.36 0 .65-.43.65-.96s-.3-.96-.65-.96zm0 8c-.36 0-.65.43-.65.96s.3.96.65.96h27.72c.36 0 .65-.43.65-.96s-.3-.96-.65-.96z" opacity=".41" fill="#fff"/><path d="M42.57 40.07l18.4 16.95-2.54 3.43-18.34-18.34z" fill="url(#i)" fill-rule="evenodd" stroke="url(#j)" stroke-width=".96" stroke-linecap="round" stroke-linejoin="round"/><path d="M58.46 59.34L43.69 41.12l17.86 15.52z" opacity=".57" fill="url(#k)" fill-rule="evenodd"/><path d="M61.66 56.96a1.43 2.62 45.44 1 1-3.48 3.89 1.43 2.62 45.44 1 1 3.47-3.9z"/><path d="M45.57 31.61a12.93 12.37 0 1 1-25.87 0 12.93 12.37 0 1 1 25.87 0z" style="marker:none" fill="url(#l)" fill-rule="evenodd"/><path d="M32.52 19.88c-6.45 0-12.27 4.63-12.27 10.34 0 1.65-.46 3.17.32 4.55 1.55.5 4.78.85 6.53.85 7.64 0 14.21-5.62 14.68-12.28-2.14-2.24-5.68-3.46-9.26-3.46z" style="marker:none" overflow="visible" opacity=".83" fill="url(#m)" fill-rule="evenodd"/><path d="M32.36 19.01c-7.95 0-14.4 5.9-14.4 13.15S24.4 45.3 32.36 45.3c7.93 0 14.39-5.9 14.39-13.14 0-7.26-6.46-13.15-14.4-13.15zm.15.87c7.12 0 12.9 5.27 12.9 11.76s-5.78 11.75-12.9 11.75c-7.1 0-12.87-5.26-12.87-11.76 0-6.48 5.77-11.75 12.87-11.75z" fill="url(#n)"/><path d="M32.44 19.4c-7.56 0-13.7 5.6-13.7 12.52 0 6.9 6.14 12.5 13.7 12.5 7.57 0 13.71-5.6 13.71-12.51 0-6.9-6.14-12.52-13.7-12.52zm.08.48c7.11 0 12.33 5.27 12.33 11.76s-5.22 11.2-12.33 11.2c-7.1 0-12.4-4.71-12.4-11.2 0-6.5 5.3-11.77 12.4-11.77z" fill="url(#o)"/></svg>