<svg xmlns="http://www.w3.org/2000/svg" xmlns:xlink="http://www.w3.org/1999/xlink" width="64" height="64" version="1"><defs><linearGradient id="c"><stop offset="0" stop-color="#f95"/><stop offset="1" stop-color="#f60"/></linearGradient><linearGradient id="a"><stop offset="0" stop-color="#4d4d4d"/><stop offset="1"/></linearGradient><radialGradient xlink:href="#a" id="d" cx="16" cy="19.25" fx="16" fy="19.25" r="28" gradientUnits="userSpaceOnUse" gradientTransform="matrix(.88378 .33898 -.35812 .93367 8.75 -4.15)"/><linearGradient id="b"><stop offset="0" stop-color="#bc5fd3"/><stop offset="1" stop-color="#441650"/></linearGradient><radialGradient xlink:href="#c" id="e" cx="21.17" cy="20.65" fx="21.17" fy="20.65" r="17.9" gradientTransform="matrix(2.07003 .91908 -1.04832 2.36112 -1.01 -48.5)" gradientUnits="userSpaceOnUse"/></defs><path d="M32 4C16.49 4 4 16.49 4 32s12.49 28 28 28 28-12.49 28-28S47.51 4 32 4z" fill="url(#d)"/><path d="M32 14.44a2.96 2.76 0 0 0-2.96 2.76A2.96 2.76 0 0 0 32 19.95a2.96 2.76 0 0 0 2.97-2.75A2.96 2.76 0 0 0 32 14.44zM11.26 17.2h.01zm0 0l13.33 8.28 5.93 30.34V32.37h2.96v23.45l5.93-30.34 13.34-8.28-19.27 5.67v5.36h-2.96v-5.36z" fill="#f60" opacity=".2"/><path d="M32 14.47a2.56 2.56 0 0 0-2.56 2.55A2.56 2.56 0 0 0 32 19.58a2.56 2.56 0 0 0 2.56-2.56A2.56 2.56 0 0 0 32 14.47zm-17.9 2.55h.01zm.01 0l11.5 7.68 5.11 28.12V31.09h2.56v21.73L38.4 24.7l11.5-7.68-16.62 5.26v4.97h-2.56v-4.97z" fill="url(#e)"/></svg>