<?xml version="1.0" encoding="UTF-8" standalone="no"?><!--Created with Inkscape (http://www.inkscape.org/)--><svg xmlns:dc="http://purl.org/dc/elements/1.1/" xmlns:cc="http://creativecommons.org/ns#" xmlns:rdf="http://www.w3.org/1999/02/22-rdf-syntax-ns#" xmlns="http://www.w3.org/2000/svg" width="64" height="64"><defs><linearGradient id="b"><stop stop-color="#ff8313" offset="0"/><stop stop-color="#fffc3f" offset="1"/></linearGradient><linearGradient id="a" x1="12.83" x2="62.39" y1="44.29" y2="44.29" gradientUnits="userSpaceOnUse"><stop stop-color="#fff" offset="0"/><stop stop-color="#5dbdeb" offset="1"/></linearGradient><linearGradient id="d" x1="-11.78" x2="14.32" y1="24.58" y2="24.58" gradientTransform="matrix(1.2975 -.03624 0 1 -1.49 1.16)" gradientUnits="userSpaceOnUse"><stop stop-color="#009fc4" offset="0"/><stop stop-color="#20fcff" offset="1"/></linearGradient><linearGradient id="c" x1="34.58" x2="43.47" y1="30.42" y2="30.74" gradientTransform="matrix(1.2975 -.03624 0 1 -1.49 1.16)" gradientUnits="userSpaceOnUse"><stop stop-color="#159a1b" offset="0"/><stop stop-color="#42ff81" offset="1"/></linearGradient></defs><metadata><rdf:RDF><cc:Work><dc:format>image/svg+xml</dc:format><dc:type rdf:resource="http://purl.org/dc/dcmitype/StillImage"/><dc:title/></cc:Work></rdf:RDF></metadata><path d="M4.95 56.56V1.75l21.24 5.69v54.81z" fill="#4d4d4d"/><path d="M12 58.45l13.74-10.07C19 46.13 13.56 39.32 13 32.45l-.06-.01v-.21l-8 5.83v-6.45l8-5.83v-3.62l-8-2.14v-4.57l8 2.14V3.9L17.5 5.1v13.7l3.63.98 5.05-3.68v9.62a7.77 7.77 0 0 0-4.86.37l-2.11 1.55a7.2 7.2 0 0 0-1.71 4.87c0 4.92 3.82 9.9 8.68 11.44v10.56l-7.54 5.52v.2z" style="font-variant-ligatures:normal;font-variant-position:normal;font-variant-caps:normal;font-variant-numeric:normal;font-variant-alternates:normal;font-feature-settings:normal;text-indent:0;text-decoration-line:none;text-decoration-style:solid;text-decoration-color:#000;text-transform:none;text-orientation:mixed;shape-padding:0;isolation:auto;mix-blend-mode:normal" color="#000" white-space="normal"/><path d="M26.03 62.25V7.44l11.88-5.7v54.82z" fill="#1a1a1a"/><path d="M33.85 58.5c-.1-.75 0-1.66-.04-2.46l-.32-19.82c.31-1.04.82-1.93 1.22-2.9l3.2-7.03v30.27z" fill="gray"/><path d="M32.85 58.99c-1-1.52-1.06-3.84.78-7.31 1.93-3.66 3.41-2.88 4.28-8.1v12.98z" fill="#333"/><path d="M31.4 59.68V42.45l-.36.72-5 11.35V43.96l.25-.1a7.46 7.46 0 0 0 2.98-3.15l1.17-2.64c.6-1.79.96-3.8.96-5.8 0-5.07-2.27-8.04-5.11-6.68l-.26.14V16.1l4.86-11 3.62-1.73-7.7 17.44c3.8-1.37 6.87 2.65 7.12 9.34l3.98-9.03v6.46l-3.96 8.97v21.9z" style="font-variant-ligatures:normal;font-variant-position:normal;font-variant-caps:normal;font-variant-numeric:normal;font-variant-alternates:normal;font-feature-settings:normal;text-indent:0;text-decoration-line:none;text-decoration-style:solid;text-decoration-color:#000;text-transform:none;text-orientation:mixed;shape-padding:0;isolation:auto;mix-blend-mode:normal" color="#000" white-space="normal"/><path d="M37.81 56.56V1.75l21.24 5.69v54.81z" fill="#4d4d4d"/><path d="M40.56 57.3c-.17-.85 0-1.67-.07-2.51v-15.7c.21-.58 1.05.04 1.55.07l16.93 4.53.08.08v18.48z" fill="gray"/><path d="M37.81 56.56V1.75l2.97.8v14.84l18.27 4.9v4.56l-18.27-4.9v12.57l18.27 4.9v4.56l-18.27-4.9v18.28z" style="font-variant-ligatures:normal;font-variant-position:normal;font-variant-caps:normal;font-variant-numeric:normal;font-variant-alternates:normal;font-feature-settings:normal;text-indent:0;text-decoration-line:none;text-decoration-style:solid;text-decoration-color:#000;text-transform:none;text-orientation:mixed;shape-padding:0;isolation:auto;mix-blend-mode:normal" color="#000" white-space="normal"/><path d="M18.8 25.7c-6.34 0-11.48 5.5-11.48 12.27 0 .42.02.86.06 1.28v.06c.04.4.1.77.18 1.15.98 6.3 5.53 12.72 11.24 17.96 5.71-5.24 10.25-11.65 11.24-17.96.07-.38.14-.76.18-1.15v-.06c.04-.42.06-.86.06-1.28 0-6.78-5.14-12.27-11.48-12.27zm0 7.28c2.57 0 4.67 2.25 4.67 4.99s-2.1 4.98-4.67 4.98-4.66-2.24-4.66-4.98 2.1-4.99 4.66-4.99z" fill="red"/></svg>