<svg xmlns="http://www.w3.org/2000/svg" xmlns:xlink="http://www.w3.org/1999/xlink" width="64" height="64" version="1"><defs><linearGradient id="d"><stop offset="0" stop-color="teal"/><stop offset="1" stop-color="#5fbcd3" stop-opacity=".96"/></linearGradient><linearGradient id="c"><stop offset="0" stop-color="teal"/><stop offset="1" stop-color="#00f"/></linearGradient><linearGradient id="b"><stop offset="0" stop-color="#37abc8"/><stop offset="1" stop-color="#afdde9"/></linearGradient><linearGradient id="a"><stop offset="0" stop-color="#4d4d4d"/><stop offset="1"/></linearGradient><radialGradient xlink:href="#a" id="e" cx="16" cy="19.25" fx="16" fy="19.25" r="28" gradientUnits="userSpaceOnUse" gradientTransform="matrix(.88378 .33898 -.35812 .93367 8.75 -4.15)"/><radialGradient xlink:href="#c" id="f" cx="25.07" cy="24.12" fx="25.07" fy="24.12" r="14" gradientTransform="matrix(1.45519 .08064 -.07458 1.34592 -12.78 -10.84)" gradientUnits="userSpaceOnUse"/><radialGradient xlink:href="#d" id="g" cx="44.66" cy="43.49" fx="44.66" fy="43.49" r="18" gradientTransform="matrix(1.1583 -1.33723 1.67243 1.44864 -79.8 37.07)" gradientUnits="userSpaceOnUse"/></defs><path d="M32 4C16.49 4 4 16.49 4 32s12.49 28 28 28 28-12.49 28-28S47.51 4 32 4z" fill="url(#e)"/><path d="M11.6 17.16v29.67h11.13V28.3h18.55v18.55H52.4v-20.4c0-7.49-7.85-9.28-11.12-9.28zm14.73 15.35v14.32h11.12V32.51z" opacity=".12" fill="url(#f)"/><path d="M14 20.9V47.1h9.82V30.73h16.36v16.36H50v-18c0-6.6-6.93-8.18-9.82-8.18zm13 13.55v12.64h9.81V34.45z" opacity=".25" fill="teal"/><path d="M14 18.9V45.1h9.82V28.73h16.36v16.36H50v-18c0-6.6-6.93-8.18-9.82-8.18zm13 13.55v12.64h9.81V32.45z" fill="url(#g)"/></svg>