<svg xmlns="http://www.w3.org/2000/svg" xmlns:xlink="http://www.w3.org/1999/xlink" width="64" height="64" version="1"><defs><linearGradient id="c"><stop offset="0" stop-color="#f55"/><stop offset="1" stop-color="#d40000"/></linearGradient><linearGradient id="a"><stop offset="0" stop-color="#4d4d4d"/><stop offset="1"/></linearGradient><radialGradient xlink:href="#a" id="d" cx="16" cy="19.25" fx="16" fy="19.25" r="28" gradientUnits="userSpaceOnUse" gradientTransform="matrix(.88378 .33898 -.35812 .93367 8.75 -4.15)"/><linearGradient id="b"><stop offset="0" stop-color="#fea"/><stop offset="1" stop-color="#fc0"/></linearGradient><radialGradient xlink:href="#c" id="e" cx="16.81" cy="18.91" fx="16.81" fy="18.91" r="19.83" gradientTransform="matrix(1.44926 .1326 -.10106 1.10448 -5.64 -.76)" gradientUnits="userSpaceOnUse"/></defs><path d="M32 4C16.49 4 4 16.49 4 32s12.49 28 28 28 28-12.49 28-28S47.51 4 32 4z" fill="url(#d)"/><path d="M13.37 18.6h8.35l11.7 10.43L44.7 18.6h8.35V47.8h-8.35v-16.7l-10.43 8.35h-2.1l-10.43-8.34v16.7h-8.35z" opacity=".33" fill="#d40000"/><path d="M12.17 17.4h8.35l11.7 10.43 11.27-10.44h8.34v29.22H43.5V29.9l-10.44 8.35h-2.09L20.52 29.9v16.7h-8.34z" fill="url(#e)"/></svg>