<svg xmlns="http://www.w3.org/2000/svg" xmlns:xlink="http://www.w3.org/1999/xlink" width="64" height="64" version="1" viewBox="0 0 60 60"><defs><linearGradient id="i"><stop offset="0" stop-color="#00f"/><stop offset="1" stop-color="#0ff"/></linearGradient><linearGradient id="h"><stop offset="0"/><stop offset="1" stop-color="#333"/></linearGradient><linearGradient id="g"><stop offset="0"/><stop offset="1" stop-color="#fff"/></linearGradient><linearGradient id="b"><stop offset="0" stop-color="#5f4721"/><stop offset="1" stop-color="#dab475"/></linearGradient><linearGradient id="e"><stop offset="0" stop-color="#fff"/><stop offset="1" stop-color="#fff" stop-opacity="0"/></linearGradient><linearGradient id="c"><stop offset="0" stop-color="#252525"/><stop offset=".5" stop-color="#252525"/><stop offset=".75" stop-color="#252525"/><stop offset="1"/></linearGradient><linearGradient id="d"><stop offset="0" stop-color="#2d2d2d"/><stop offset=".5"/><stop offset="1"/></linearGradient><linearGradient id="f"><stop offset="0" stop-color="#fff"/><stop offset="1" stop-color="#252525" stop-opacity="0"/></linearGradient><linearGradient id="a"><stop offset="0"/><stop offset="1" stop-opacity="0"/></linearGradient><radialGradient r="3.41" fy="120.64" fx="42.62" cy="120.64" cx="42.62" gradientTransform="matrix(-1.3506 1.15232 10.51575 12.20071 -1125.7 -1431.62)" gradientUnits="userSpaceOnUse" id="m" xlink:href="#b"/><radialGradient r="2.61" fy="58.09" fx="15.73" cy="58.09" cx="15.73" gradientTransform="matrix(-1.68284 1.2962 18.65521 24.49151 -991.14 -1384.08)" gradientUnits="userSpaceOnUse" id="n" xlink:href="#c"/><radialGradient r="47.75" fy="100.75" fx="89.45" cy="100.75" cx="89.45" gradientTransform="matrix(-.05817 .0435 .55912 .74452 6.28 -20.87)" gradientUnits="userSpaceOnUse" id="o" xlink:href="#d"/><radialGradient r="47.6" fy="7.46" fx="34.68" cy="7.46" cx="34.68" gradientTransform="matrix(-1.03308 .003 -.00008 -.01037 -38.15 18.83)" gradientUnits="userSpaceOnUse" id="p" xlink:href="#e"/><radialGradient r="1.72" fy="2.67" fx="49.01" cy="2.67" cx="49.01" gradientTransform="matrix(1.51245 0 0 .18397 -90.08 24.57)" gradientUnits="userSpaceOnUse" id="q" xlink:href="#f"/><linearGradient xlink:href="#h" id="l" x1="1.83" y1="9.22" x2="42.81" y2="63.52" gradientUnits="userSpaceOnUse"/><linearGradient xlink:href="#i" id="k" x1="1.69" y1="12.03" x2="22.15" y2="12.03" gradientUnits="userSpaceOnUse" gradientTransform="matrix(1.1989 0 0 1 -.34 0)"/><clipPath id="u"><path d="M0 0h64v64H0z"/></clipPath><filter id="j" filterUnits="objectBoundingBox" x="0%" y="0%" width="100%" height="100%"><feColorMatrix in="SourceGraphic" values="0 0 0 0 1 0 0 0 0 1 0 0 0 0 1 0 0 0 1 0"/></filter><clipPath id="t"><path d="M0 0h64v64H0z"/></clipPath><clipPath id="s"><path d="M0 0h64v64H0z"/></clipPath><clipPath id="r"><path d="M0 0h64v64H0z"/></clipPath><clipPath id="v"><path d="M0 0h64v64H0z"/></clipPath><radialGradient xlink:href="#a" id="w" gradientUnits="userSpaceOnUse" gradientTransform="matrix(-.32253 .14445 .02137 .06399 39.5 40.05)" cx="9.69" cy="82.52" fx="54.62" fy="83.51" r="56.16"/></defs><path d="M4.91 4.3A3.21 3.21 0 0 0 1.7 7.5v9.04l.02.21v37.4c0 2.39 1.92 4.31 4.32 4.31H34c2.4 0 4.33-1.92 4.33-4.32V12.97c0-2.4-1.93-4.33-4.33-4.33h-7.78V7.51a3.21 3.21 0 0 0-3.23-3.22z" fill="none" stroke="#000" stroke-width=".47"/><rect width="24.52" height="15.48" x="1.69" y="4.29" ry="3.22" fill="url(#k)"/><path d="M1.83 9.22V57.76a4.6 4.6 0 0 0 4.61 4.61h29.83a4.6 4.6 0 0 0 4.61-4.6V13.82a4.6 4.6 0 0 0-4.6-4.6H1.82z" transform="scale(.9375)" fill="url(#l)"/><g stroke-width="1.99"><path d="M53.32 2.58c.18-.24 1.55-.25 3.1.92C58 4.69 58.4 5.93 58.16 6.24l-.46.6-4.85-3.64.46-.6M17.75 54.58l11.21-9.77.07-.08L24.25 41l-.08.1z" fill-rule="evenodd"/><path d="M102.36 108.81L81.5 90.65l-.12-.16 9.01-7.05.17.22z" transform="matrix(-.50139 0 0 .50139 69.7 -.74)" fill="url(#m)" fill-rule="evenodd"/><path d="M86.59 87.9c-1.2.9-2.27.4-2.7.73a.54.54 0 0 0-.15.2l-57.8-76.36 4.69-3.53 57.9 76.5c-.2-.03-.37-.04-.5.07-.4.29-.25 1.48-1.44 2.38z" transform="matrix(-.50139 0 0 .50139 69.7 -.74)" fill="url(#n)"/><path d="M26.12 12.35l57.74 76.3c-.38.34-.12 1.27-.84 1.82-.77.58-1.36-.1-1.86.28L23.38 14.4z" transform="matrix(-.50139 0 0 .50139 69.7 -.74)" fill="url(#o)"/><path d="M24.6 42.04c.38.27.77-.06.96.09L54.52 3.87l-1.39-1.05L24.17 41.1l.02.02c.15.11.03.64.41.92z" fill="#131313"/><path d="M-24.8 18.86a49.17.48 0 0 1-48.8.48 49.17.48 0 0 1-49.54-.47 49.17.48 0 0 1 48-.5 49.17.48 0 0 1 50.3.47" transform="matrix(.30238 -.39994 -.4 -.30231 69.7 -.74)" fill="url(#p)"/><path d="M22.57 50.4c-.8 0-1.63-1.15-2.12-1.48l-2.7 5.66z" fill-rule="evenodd"/><path transform="matrix(.40011 .30216 -.30296 .3995 69.7 -.74)" d="M-18.57 24.6h5.22v1.14h-5.22z" fill="url(#q)"/></g><g transform="matrix(1.17188 0 0 1.17188 -17.76 -3.96)" clip-path="url(#g)" opacity=".58" fill="#fff"><path d="M27.78 19.02h13.24c.73 0 1.32.55 1.32 1.21v.23c0 .67-.6 1.2-1.32 1.2H27.78c-.73 0-1.32-.53-1.32-1.2v-.23c0-.66.6-1.2 1.32-1.2zm0 0"/></g><g transform="matrix(1.17188 0 0 1.17188 -17.76 -3.96)" clip-path="url(#m)" opacity=".58" fill="#fff"><path d="M27.78 25.64h13.24a1.32 1.32 0 0 1 0 2.65H27.78a1.33 1.33 0 0 1 0-2.65zm0 0"/></g><g transform="matrix(1.17188 0 0 1.17188 -17.76 -3.96)" clip-path="url(#o)" opacity=".58" fill="#fff"><path d="M27.78 32.25h5.3c.73 0 1.32.57 1.32 1.27v.11c0 .7-.6 1.27-1.33 1.27h-5.29a1.3 1.3 0 0 1-1.32-1.27v-.11c0-.7.6-1.27 1.32-1.27zm0 0"/></g><g transform="matrix(1.17188 0 0 1.17188 -17.76 -3.96)" clip-path="url(#q)" opacity=".58" fill="#fff"><path d="M27.78 38.87h2.65a1.33 1.33 0 0 1 0 2.65h-2.65a1.33 1.33 0 0 1 0-2.65zm0 0"/></g><g transform="matrix(1.17188 0 0 1.17188 -17.76 -3.96)" clip-path="url(#r)" opacity=".58" fill="#fff"><path d="M21.83 31.59a1.99 1.99 0 1 1 0 3.97 1.99 1.99 0 0 1 0-3.97zm0 0"/></g><g transform="matrix(1.17188 0 0 1.17188 -17.76 -3.96)" clip-path="url(#s)" opacity=".58" fill="#fff"><path d="M21.83 24.98a1.98 1.98 0 1 1 0 3.97 1.98 1.98 0 0 1 0-3.97zm0 0"/></g><g transform="matrix(1.17188 0 0 1.17188 -17.76 -3.96)" clip-path="url(#t)" opacity=".58" fill="#fff"><path d="M21.83 18.36a1.99 1.99 0 1 1 0 3.97 1.99 1.99 0 0 1 0-3.97zm0 0"/></g><g transform="matrix(1.17188 0 0 1.17188 -17.76 -3.96)" clip-path="url(#u)" opacity=".58" fill="#fff"><path d="M21.83 38.2a1.98 1.98 0 1 1 0 3.98 1.98 1.98 0 0 1 0-3.97zm0 0"/></g><g transform="matrix(1.05671 0 0 1.17188 -15.47 3.75)" clip-path="url(#q)" opacity=".58" fill="#fff"><path d="M27.78 38.87h2.65a1.33 1.33 0 0 1 0 2.65h-2.65a1.33 1.33 0 0 1 0-2.65zm0 0"/></g><g transform="matrix(1.05671 0 0 1.17188 -15.47 3.75)" clip-path="url(#v)" opacity=".58" fill="#fff"><path d="M21.83 38.2a1.98 1.98 0 1 1 0 3.98 1.98 1.98 0 0 1 0-3.97zm0 0"/></g><path d="M38.33 50.76v-8.24a3.77 19.85 65.66 0 0-1.4.6 3.77 19.85 65.66 0 0-16.91 11.72 3.77 19.85 65.66 0 0 18.3-4.08z" opacity=".2" fill="url(#w)"/></svg>