<svg xmlns="http://www.w3.org/2000/svg" xmlns:xlink="http://www.w3.org/1999/xlink" width="64" height="64"><defs><linearGradient id="l"><stop offset="0"/><stop stop-color="#4d4d4d" offset=".51"/><stop offset="1"/></linearGradient><linearGradient id="h"><stop offset="0" stop-color="#2ca089"/><stop offset="1" stop-color="#d7f4ee"/></linearGradient><linearGradient id="g"><stop offset="0" stop-color="#1a1a1a"/><stop offset=".51" stop-color="#666"/><stop offset="1" stop-color="#1a1a1a"/></linearGradient><linearGradient id="a"><stop offset="0" stop-color="#fff"/><stop offset="1" stop-color="#fff" stop-opacity=".03"/></linearGradient><linearGradient id="b"><stop offset="0" stop-color="#de8787"/><stop offset="1" stop-color="#ff2a2a"/></linearGradient><linearGradient id="c"><stop offset="0"/><stop offset="1" stop-color="#ff0"/></linearGradient><linearGradient id="d"><stop offset="0" stop-color="#fff"/><stop offset="1" stop-color="#4d4d4d"/></linearGradient><linearGradient id="e"><stop offset="0" stop-color="#333"/><stop offset=".42" stop-color="#1a1a1a"/><stop offset="1"/></linearGradient><linearGradient id="f"><stop offset="0" stop-color="#1a1a1a"/><stop offset=".51" stop-color="#b3b3b3"/><stop offset="1" stop-color="#1a1a1a"/></linearGradient><radialGradient xlink:href="#a" id="w" cx="249.27" cy="149.26" fx="249.27" fy="149.26" r="12.06" gradientTransform="matrix(.45465 0 0 .46306 -88.6 -27.86)" gradientUnits="userSpaceOnUse"/><linearGradient xlink:href="#c" id="v" x1="235.01" y1="164.3" x2="259.23" y2="139.62" gradientUnits="userSpaceOnUse" gradientTransform="matrix(.45465 0 0 .45465 -88.6 -26.58)"/><linearGradient gradientTransform="matrix(1.41073 0 0 1.41073 54.73 .35)" xlink:href="#i" id="u" x1="-29.79" y1="32.04" x2="-.51" y2="24.57" gradientUnits="userSpaceOnUse"/><linearGradient id="i"><stop offset="0" stop-color="#4d4d4d" stop-opacity="0"/><stop offset=".87" stop-color="#2f2f2f"/><stop offset="1" stop-color="#2b2b2b" stop-opacity="0"/></linearGradient><clipPath id="s"><ellipse cx="389.55" cy="94.53" rx="18.29" ry="18.44" fill="#de8787" stroke-width="1.78" stroke-linecap="round" stroke-linejoin="round"/></clipPath><filter id="t" x="-.14" width="1.29" y="-.14" height="1.29" color-interpolation-filters="sRGB"><feGaussianBlur stdDeviation="2.2"/></filter><radialGradient xlink:href="#j" id="r" cx="33.97" cy="9.31" fx="33.97" fy="9.31" r="5.89" gradientTransform="matrix(1.41073 0 0 1.42246 -1.7 .22)" gradientUnits="userSpaceOnUse"/><linearGradient id="j"><stop offset="0" stop-color="#ff2a2a"/><stop offset="1" stop-color="#2b0000"/></linearGradient><clipPath id="p"><ellipse cx="148.26" cy="129.43" rx="36.76" ry="36.28" fill="url(#radialGradient1072)" stroke-width="1.78" stroke-linecap="round" stroke-linejoin="round"/></clipPath><filter id="q" x="-.07" width="1.14" y="-.07" height="1.15" color-interpolation-filters="sRGB"><feGaussianBlur stdDeviation="2.19"/></filter><radialGradient xlink:href="#k" id="o" cx="22.14" cy="27.02" fx="22.14" fy="27.02" r="11.85" gradientTransform="matrix(1.41073 0 0 1.39239 -1.7 .77)" gradientUnits="userSpaceOnUse"/><linearGradient id="k"><stop offset="0" stop-color="#333"/><stop offset="1"/></linearGradient><linearGradient gradientTransform="matrix(1.41073 0 0 1.41073 54.73 .35)" xlink:href="#l" id="n" x1="-28.86" y1="1.47" x2="-6.65" y2="43.53" gradientUnits="userSpaceOnUse"/><linearGradient gradientTransform="matrix(1.41073 0 0 1.41073 54.73 .35)" xlink:href="#l" id="m" x1="-36.23" y1="28.04" x2="5.75" y2="17.77" gradientUnits="userSpaceOnUse"/></defs><path d="M43.67 16.83a13.1 29.63 75.33 0 0-16.94 2.6A13.1 29.63 75.33 0 0 3.63 39.9a13.1 29.63 75.33 0 0 33.64 3.78 13.1 29.63 75.33 0 0 23.1-20.48 13.1 29.63 75.33 0 0-16.7-6.38zM42.74 18a12.05 27.26 75.33 0 1 15.36 5.87 12.05 27.26 75.33 0 1-21.26 18.84A12.05 27.26 75.33 0 1 5.9 39.24 12.05 27.26 75.33 0 1 27.16 20.4 12.05 27.26 75.33 0 1 42.74 18z" fill="url(#m)" stroke="#ccc" stroke-width=".1"/><path d="M22.59 1.12a32.4 18.21 68.82 0 0-3.56.87 32.4 18.21 68.82 0 0-4.45 37.45A32.4 18.21 68.82 0 0 43.4 62a32.4 18.21 68.82 0 0 4.46-37.44A32.4 18.21 68.82 0 0 22.6 1.12zm.45 1.63a30.68 17.25 68.82 0 1 23.94 22.2 30.68 17.25 68.82 0 1-4.22 35.47 30.68 17.25 68.82 0 1-27.3-21.38 30.68 17.25 68.82 0 1 4.22-35.46 30.68 17.25 68.82 0 1 3.36-.83z" fill="url(#n)" stroke="#ccc" stroke-width=".1"/><ellipse ry="16.49" rx="16.71" cy="32.27" cx="33.37" fill="url(#o)"/><ellipse transform="matrix(.45465 0 0 .45465 -34.04 -26.58)" clip-path="url(#p)" ry="36.28" rx="36.76" cy="129.43" cx="148.26" fill="none" stroke="#000" stroke-width="4.28" stroke-linecap="round" stroke-linejoin="round" filter="url(#q)"/><ellipse ry="8.38" rx="8.31" cy="16.4" cx="43.04" fill="url(#r)"/><ellipse transform="matrix(.45465 0 0 .45465 -134.07 -26.58)" clip-path="url(#s)" ry="18.44" rx="18.29" cy="94.53" cx="389.55" fill="none" stroke="maroon" stroke-width="3.72" stroke-linecap="round" stroke-linejoin="round" filter="url(#t)"/><path d="M12.71 45.55a13.1 29.63 75.33 0 0 .98.2 13.1 29.63 75.33 0 0 2.32.33 13.1 29.63 75.33 0 0 2.48.17 13.1 29.63 75.33 0 0 2.61.03 13.1 29.63 75.33 0 0 2.72-.12 13.1 29.63 75.33 0 0 2.8-.27 13.1 29.63 75.33 0 0 2.86-.4 13.1 29.63 75.33 0 0 2.88-.56 13.1 29.63 75.33 0 0 2.88-.68 13.1 29.63 75.33 0 0 2.03-.56 13.1 29.63 75.33 0 0 2.8-.9 13.1 29.63 75.33 0 0 2.73-1 13.1 29.63 75.33 0 0 2.62-1.1 13.1 29.63 75.33 0 0 2.48-1.21 13.1 29.63 75.33 0 0 2.32-1.28 13.1 29.63 75.33 0 0 2.14-1.34 13.1 29.63 75.33 0 0 1.65-1.2v-1.78a12.05 27.26 75.33 0 1-.35.33 12.05 27.26 75.33 0 1-1.64 1.31 12.05 27.26 75.33 0 1-1.84 1.28 12.05 27.26 75.33 0 1-2.03 1.22 12.05 27.26 75.33 0 1-2.18 1.15 12.05 27.26 75.33 0 1-2.32 1.09 12.05 27.26 75.33 0 1-2.44.99 12.05 27.26 75.33 0 1-2.53.9 12.05 27.26 75.33 0 1-1.84.57 12.05 27.26 75.33 0 1-2.63.7 12.05 27.26 75.33 0 1-2.65.6 12.05 27.26 75.33 0 1-2.65.47 12.05 27.26 75.33 0 1-2.61.34 12.05 27.26 75.33 0 1-2.56.2 12.05 27.26 75.33 0 1-2.48.07 12.05 27.26 75.33 0 1-2.37-.06 12.05 27.26 75.33 0 1-2.24-.2 12.05 27.26 75.33 0 1-2.09-.33 12.05 27.26 75.33 0 1-1.85-.45z" fill="url(#u)"/><ellipse ry="5.59" rx="5.48" cy="42.69" cx="23.77" fill="url(#v)"/><ellipse ry="5.59" rx="5.48" cy="42.69" cx="23.77" opacity=".37" fill="url(#w)"/></svg>