<svg xmlns="http://www.w3.org/2000/svg" xmlns:xlink="http://www.w3.org/1999/xlink" width="64" height="64" version="1"><defs><linearGradient id="b"><stop offset="0" stop-color="#14ddb1"/><stop offset=".34" stop-color="#2086e7"/><stop offset="1" stop-color="#f7c73c"/></linearGradient><radialGradient gradientTransform="matrix(2.07143 0 0 2.07143 -17.71 -17.71)" xlink:href="#a" id="c" cx="18.12" cy="18.12" fx="18.12" fy="18.12" r="14" gradientUnits="userSpaceOnUse"/><linearGradient id="a"><stop offset="0" stop-color="#4d4d4d"/><stop offset="1"/></linearGradient><linearGradient xlink:href="#b" id="d" gradientUnits="userSpaceOnUse" gradientTransform="matrix(2.07143 0 0 2.07143 -17.71 -17.71)" x1="14" y1="23.98" x2="34.55" y2="24.16"/></defs><path d="M58.93 61H5.07A2.07 2.07 0 0 1 3 58.93V5.07C3 3.93 3.93 3 5.07 3h53.86C60.07 3 61 3.93 61 5.07v53.86c0 1.14-.93 2.07-2.07 2.07z" fill="url(#c)"/><path d="M48.13 17.36c-1.87 0-3.32.42-4.36 1.26-1.02.82-1.53 2-1.53 3.52 0 1.2.33 2.13 1 2.77.67.64 1.8 1.11 3.37 1.4l2.18.44c1.06.2 1.82.47 2.26.8.44.35.66.83.66 1.46 0 .65-.28 1.16-.85 1.53-.56.37-1.32.56-2.29.56a4.17 4.17 0 0 1-2.51-.66 2.46 2.46 0 0 1-.98-1.92h-3.12c.1 1.66.7 2.93 1.8 3.82 1.1.88 2.65 1.32 4.64 1.32 2.01 0 3.57-.44 4.7-1.32a4.49 4.49 0 0 0 1.68-3.72c0-1.22-.32-2.17-.98-2.83a5.82 5.82 0 0 0-3.14-1.45l-2.43-.47a7.3 7.3 0 0 1-2.32-.75c-.41-.29-.62-.71-.62-1.28 0-.58.24-1.05.72-1.39a3.25 3.25 0 0 1 1.97-.53c2.06 0 3.15.81 3.26 2.43h2.99c0-.8-.14-1.52-.43-2.13a3.78 3.78 0 0 0-1.02-1.45 6.97 6.97 0 0 0-3.1-1.3 11 11 0 0 0-1.55-.11zm-38.32.26v15.55h3.2V21.05l2.8 12.12H19l2.75-12.12v12.12h3.2V17.62h-4.82L17.4 29.99l-2.82-12.37H9.81zm18.55 0v15.55h3.2v-5.55h3.98c1.43 0 2.57-.47 3.42-1.4a5.4 5.4 0 0 0 1.28-3.78c0-1.57-.43-2.76-1.3-3.59-.86-.82-2.1-1.23-3.72-1.23h-6.86zm3.2 2.66h2.98c.86 0 1.48.2 1.88.58.41.38.62.97.62 1.77 0 1.55-.83 2.32-2.5 2.32h-2.98v-4.67zM11.29 46.5v4.14h18.64V46.5H11.29z" fill="url(#d)"/></svg>