<?xml version="1.0" encoding="UTF-8" standalone="no"?><svg xmlns:dc="http://purl.org/dc/elements/1.1/" xmlns:cc="http://creativecommons.org/ns#" xmlns:rdf="http://www.w3.org/1999/02/22-rdf-syntax-ns#" xmlns="http://www.w3.org/2000/svg" xmlns:xlink="http://www.w3.org/1999/xlink" width="64" height="64"><metadata><rdf:RDF><cc:Work><dc:format>image/svg+xml</dc:format><dc:type rdf:resource="http://purl.org/dc/dcmitype/StillImage"/><dc:title/></cc:Work></rdf:RDF></metadata><defs><linearGradient id="e"><stop offset="0" stop-color="#ff2a7f"/><stop offset="1" stop-color="#ff80b2"/></linearGradient><linearGradient id="d"><stop offset="0"/><stop offset="1" stop-opacity="0"/></linearGradient><linearGradient id="a"><stop offset="0"/><stop offset="1" stop-color="#4d4d4d"/></linearGradient><linearGradient id="c"><stop offset="0"/><stop offset="1" stop-color="#4d4d4d"/></linearGradient><linearGradient id="b"><stop offset="0"/><stop offset="1" stop-color="#4d4d4d"/></linearGradient><linearGradient xlink:href="#a" id="i" x1="25.94" y1="29.01" x2="22.77" y2="14.79" gradientUnits="userSpaceOnUse" gradientTransform="matrix(1.35 0 0 1.35 .95 -.4)"/><linearGradient xlink:href="#e" id="h" x1="27.63" y1="34.47" x2="17.83" y2="10.84" gradientUnits="userSpaceOnUse" gradientTransform="matrix(1.35 0 0 1.35 -.4 -.4)"/><linearGradient xlink:href="#a" id="g" gradientUnits="userSpaceOnUse" gradientTransform="matrix(.9462 0 0 -.945 10.67 53.33)" x1="30.57" y1="42.53" x2="22.04" y2="4.19"/><linearGradient xlink:href="#a" id="f" x1="30.57" y1="42.53" x2="16.57" y2="-1.76" gradientUnits="userSpaceOnUse" gradientTransform="matrix(1.35171 0 0 1.35 -.4 -.4)"/></defs><path d="M32 5C17.04 5 5 17.04 5 32s12.04 27 27 27 27-12.04 27-27S46.96 5 32 5z" fill="url(#f)"/><path d="M33.35 49.55a18.86 18.86 0 0 1-18.9-18.9c0-10.47 8.43-18.9 18.9-18.9 10.47 0 18.9 8.43 18.9 18.9 0 10.47-8.43 18.9-18.9 18.9z" fill="url(#g)"/><path d="M32 17.15a14.85 14.85 0 1 0 0 29.7 14.85 14.85 0 0 0 0-29.7z" fill="url(#h)" fill-rule="evenodd"/><path d="M27.95 23.9l13.5 8.2-13.45 8-.05-16.2z" fill="url(#i)" fill-rule="evenodd"/></svg>