<svg xmlns="http://www.w3.org/2000/svg" xmlns:xlink="http://www.w3.org/1999/xlink" width="64" height="64" id="svg13"><defs id="defs5"><style id="current-color-scheme"/><linearGradient xlink:href="#linearGradient844" id="linearGradient846" x1="30.21" y1="24.86" x2="29.85" y2="57.87" gradientUnits="userSpaceOnUse" gradientTransform="translate(-2.26 -2.2) scale(1.07065)"/><linearGradient id="linearGradient844"><stop offset="0" id="stop840" stop-color="red"/><stop offset="1" id="stop842" stop-color="#ff2a2a"/></linearGradient><radialGradient xlink:href="#linearGradient828" id="radialGradient830" cx="28.73" cy="28.43" fx="28.73" fy="28.43" r="7.42" gradientTransform="matrix(1.76327 .53196 -.55058 1.82498 -6.5 -38.93)" gradientUnits="userSpaceOnUse"/><linearGradient id="linearGradient828"><stop offset="0" id="stop824" stop-color="red"/><stop offset="1" id="stop826"/></linearGradient><linearGradient xlink:href="#linearGradient852" id="linearGradient854" x1="5.59" y1="57.44" x2="5.83" y2="17.35" gradientUnits="userSpaceOnUse" gradientTransform="translate(-2.26 -2.2) scale(1.07065)"/><linearGradient id="linearGradient852"><stop offset="0" id="stop848" stop-color="#f55"/><stop offset="1" id="stop850" stop-color="#faa"/></linearGradient><linearGradient xlink:href="#linearGradient836" id="linearGradient838" x1="13.96" y1="16.63" x2="55.38" y2="16.63" gradientUnits="userSpaceOnUse" gradientTransform="translate(-2.26 -2.2) scale(1.07065)"/><linearGradient id="linearGradient836"><stop offset="0" id="stop832" stop-color="maroon"/><stop offset="1" id="stop834" stop-color="#ff2a2a"/></linearGradient><radialGradient xlink:href="#linearGradient860" id="radialGradient862" cx="32" cy="31.94" fx="32" fy="31.94" r="29" gradientTransform="matrix(1.04512 0 0 1.0393 -1.44 -1.2)" gradientUnits="userSpaceOnUse"/><linearGradient id="linearGradient860"><stop id="stop858" offset="0"/><stop id="stop856" offset="1" stop-color="#1a1a1a"/></linearGradient><radialGradient xlink:href="#c" id="t" cx="64" cy="88" fx="64" fy="88" r="18.92" gradientTransform="matrix(1.1755 -.02068 .01445 .82185 -44.5 -27.2)" gradientUnits="userSpaceOnUse"/><linearGradient id="c"><stop offset="0" stop-color="#fff" id="stop36"/><stop offset="1" stop-color="#fff" stop-opacity="0" id="stop38"/></linearGradient><radialGradient xlink:href="#b" id="r" gradientUnits="userSpaceOnUse" gradientTransform="matrix(1.07321 0 0 1.00167 -3.09 -.95)" cx="55.37" cy="36.08" fx="54.84" fy="18.27" r="29.96"/><linearGradient id="b"><stop offset="0" stop-color="#fff" stop-opacity="0" id="stop25"/><stop offset=".5" stop-color="#f2efef" stop-opacity="0" id="stop27"/><stop offset=".87" stop-color="#fff" id="stop29"/><stop offset=".92" stop-color="#fff" id="stop31"/><stop offset="1" stop-color="#fff" id="stop33"/></linearGradient><clipPath id="q"><circle r="29.96" cy="37.28" cx="58.04" id="circle63" fill="url(#radialGradient3743)" stroke-width="3.4" stroke-linecap="round" stroke-linejoin="round"/></clipPath><filter id="s"><feGaussianBlur stdDeviation="1.31" id="feGaussianBlur66"/></filter><radialGradient xlink:href="#linearGradient927" id="p" gradientUnits="userSpaceOnUse" gradientTransform="translate(11.8 1.41) scale(.34737)" cx="63.49" cy="32.74" fx="71.01" fy="16.64" r="29.96"/><linearGradient id="linearGradient927"><stop id="stop919" stop-color="gray" offset="0"/><stop id="stop921" stop-color="#666" offset=".23"/><stop id="stop923" stop-color="#333" offset=".5"/><stop id="stop925" offset="1"/></linearGradient><radialGradient xlink:href="#a" id="j" gradientUnits="userSpaceOnUse" gradientTransform="matrix(.8588 0 0 1.25366 -118.1 -11.05)" cx="64.2" cy="79.68" fx="64.2" fy="79.68" r="37.25"/><linearGradient id="a"><stop offset="0" stop-color="#f9f9f9" id="stop16"/><stop offset=".23" stop-color="gray" id="stop18"/><stop offset=".5" stop-color="#1a1a1a" id="stop20"/><stop offset="1" id="stop22"/></linearGradient><clipPath id="i"><path d="M-99.72 102.63c0 18.65 29.37 21 36.73 21 7.35 0 36.77-2.35 36.77-21C-29.56 71.31-44.6 40.84-63 40.84c-18.55 0-33.58 35.28-36.72 61.8z" id="path43" fill="url(#radialGradient3981)" fill-rule="evenodd"/></clipPath><filter id="k"><feGaussianBlur stdDeviation="3" id="feGaussianBlur46"/></filter><radialGradient xlink:href="#linearGradient927" id="h" gradientUnits="userSpaceOnUse" gradientTransform="matrix(.43631 0 0 .6083 4.11 -6.76)" cx="65.09" cy="72.81" fx="74.38" fy="63.99" r="37.25"/><radialGradient r="3.41" fy="120.64" fx="42.62" cy="120.64" cx="42.62" gradientTransform="matrix(1.35144 -.04747 -.81623 -6.55062 61.4 804.05)" gradientUnits="userSpaceOnUse" id="p-3" xlink:href="#linearGradient925"/><linearGradient id="linearGradient925"><stop id="stop921-3" offset="0"/><stop id="stop923-6" stop-color="#666" offset="1"/></linearGradient><radialGradient r="3.41" fy="120.64" fx="42.62" cy="120.64" cx="42.62" gradientTransform="matrix(1.35144 -.04747 -.81623 -6.55062 74.57 803.92)" gradientUnits="userSpaceOnUse" id="p-35" xlink:href="#linearGradient925"/><radialGradient r="3.41" fy="120.64" fx="42.62" cy="120.64" cx="42.62" gradientTransform="matrix(1.35144 -.04747 -.81623 -6.55062 86.87 804.01)" gradientUnits="userSpaceOnUse" id="p-7" xlink:href="#linearGradient925"/></defs><path d="M40.02 12.95v-.1l3.46-9.07 2.22.06 3.55 8.92v.08z" id="path96" fill-rule="evenodd" stroke-width="2.09"/><path d="M44.55 1.24l4.4 11v.09l-8.73.1v-.1z" id="path98" fill="url(#p-7)" fill-rule="evenodd" stroke-width="2.09"/><path d="M42.68 5.96l1.53-4.12.17-.42h.04a.8.8 0 0 1 .12-.02h.2v.02h.01v.02l.21.48L46.57 6c-1-.38-3.01-.04-3.89-.06z" id="path106" fill-rule="evenodd" stroke-width="2.09"/><path d="M44.68 12.18c1.15 0 1.59.67 1.99.67.06 0 .14 0 .2-.04l.17 47.8-4.48.02-.16-47.93c.1.1.2.17.33.17.36 0 .84-.69 1.97-.69z" id="path100" fill="#0f0" stroke-width="2.09"/><path d="M27.91 61.38c0 .4 1.65 1.48 4.61 1.46 3 0 4.62-1.01 4.62-1.5v-1.02l-9.23.06v1.01" id="path62" fill-rule="evenodd" stroke-width="1.56"/><path d="M27.73 12.9v-.1l3.45-9.07 2.22.06 3.56 8.91v.08z" id="path64" fill-rule="evenodd" stroke-width="1.56"/><path d="M32.25 1.15l4.4 11v.09l-8.73.1v-.1z" id="path98-9" fill="url(#p-35)" fill-rule="evenodd" stroke-width="2.09"/><path d="M32.44 12.02c1.14 0 1.56.69 1.98.69a.47.47 0 0 0 .19-.05l.19 47.8-4.48.02-.18-47.93c.1.1.2.18.32.18.38 0 .83-.69 1.98-.7z" id="path68" fill="#ff0" stroke-width="1.56"/><path d="M46.82 60.64l-.19-47.75c.4-.03.67-.62 1.36-.62.73-.02.78.57 1.26.57l.19 47.78zm-5.4-48.4c.7 0 .87.67 1.24.67l.19 47.75-2.65.01-.17-47.78h.04c.3 0 .63-.65 1.34-.65z" id="path70" stroke-width="1.56"/><path d="M30.38 5.9l1.53-4.1.15-.43v-.01h.07a.62.62 0 0 1 .26 0h.05v.01c.01 0 0 0 0 0l.22.5 1.62 4.08c-1-.39-3.03-.04-3.9-.06z" id="path74" fill-rule="evenodd" stroke-width="1.56"/><path id="path78" d="M14.77 61.07c0 .42 1.65 1.5 4.6 1.47 3 0 4.6-1 4.6-1.5v-1.01l-9.2.04v1m-.21-48v-.11l3.45-9.06 2.24.06 3.56 8.92v.08z" fill-rule="evenodd" stroke-width="5.4"/><path d="M19.08 1.28l4.4 11v.09l-8.73.1v-.1z" id="path98-5" fill="url(#p-3)" fill-rule="evenodd" stroke-width="2.09"/><path id="path82" d="M19.19 12.2c1.13 0 1.56.68 1.96.68.09 0 .15 0 .21-.05l.17 47.8-4.46.03-.2-47.93c.12.1.2.17.35.17.37 0 .84-.7 1.97-.7z" fill="#a00" stroke-width="5.4"/><path id="path84" d="M21.38 60.64l-.2-47.76c.41-.02.66-.63 1.35-.63.76 0 .8.58 1.26.58l.2 47.78zm-5.42-48.4c.71 0 .88.66 1.26.66l.19 47.76h-2.66l-.17-47.76h.04c.3 0 .63-.67 1.34-.65z" stroke-width="5.4"/><path id="path88" d="M17.22 6.31l1.53-4.12.16-.42h.05a.77.77 0 0 1 .14-.02h.17v.02h.02v.02l.2.48 1.62 4.08c-.98-.37-3.01-.04-3.9-.06z" fill-rule="evenodd" stroke-width="5.4"/><path d="M40.2 61.5c0 .41 1.65 1.48 4.6 1.46 3 0 4.6-1 4.6-1.5v-1.01l-9.2.04v1" id="path94" fill-rule="evenodd" stroke-width="2.09"/><path d="M34.5 60.52l-.17-47.76c.38-.02.65-.63 1.34-.63.73 0 .8.59 1.26.59l.2 47.78zm-5.4-48.39c.71 0 .88.65 1.25.65l.17 47.76h-2.61l-.17-47.76h.04c.3 0 .63-.67 1.34-.65z" id="path102" stroke-width="2.09"/></svg>