<svg xmlns="http://www.w3.org/2000/svg" xmlns:xlink="http://www.w3.org/1999/xlink" width="64" height="64"><defs><radialGradient id="c" cx="12.01" cy="13.2" r="20" gradientTransform="matrix(0 2.36188 -3.40694 0 60.79 -11.43)" gradientUnits="userSpaceOnUse"><stop offset="0" stop-color="#4d4d4d"/><stop offset=".26" stop-color="#333"/><stop offset=".7"/><stop offset="1"/></radialGradient><linearGradient id="d" x1="24" x2="24" y1="44" y2="3.9" gradientTransform="translate(-1.74 -1.74) scale(1.4058)" gradientUnits="userSpaceOnUse"><stop offset="0"/><stop offset="1" stop-color="#333"/></linearGradient><linearGradient id="a"><stop offset="0" stop-color="#0ff"/><stop offset="1" stop-color="#00f"/></linearGradient><linearGradient gradientTransform="translate(1.07 1)" xlink:href="#b" id="e" x1="8.95" y1="11.67" x2="52.2" y2="30" gradientUnits="userSpaceOnUse"/><linearGradient id="b"><stop offset="0" stop-color="#d45500"/><stop offset="1" stop-color="#f95"/></linearGradient></defs><rect x="4.59" y="4.59" width="54.83" height="54.83" rx="2.23" ry="2.23" fill="url(#c)" stroke="url(#d)" stroke-width=".5" stroke-linecap="round" stroke-linejoin="round"/><path d="M17.98 14.67h-6.54v36.6h7.83V22.61c1.5.05 2.8.16 3.46.33 1.18.34 1.12.22 1.62 1.34 1 2.35 1.46 10.73 1.46 27.05h7.82l.17-6.7h6.54v6.59h7.82v-6.54h6.54v-7.82h-6.6V30.2h-7.82v6.53h-6.54a40.52 40.52 0 0 0-2.12-15.64 10.62 10.62 0 0 0-6.93-5.81 20.8 20.8 0 0 0-5.37-.56v-.06h-1.28z" stroke-width="5.59"/><path d="M16.55 12.67h-6.53v36.6h7.82V20.61c1.5.05 2.8.16 3.46.33 1.18.34 1.12.22 1.63 1.34 1 2.35 1.45 10.73 1.45 27.05h7.82l.17-6.7h6.54v6.59h7.82v-6.54h6.54v-7.82h-6.6V28.2h-7.82v6.53h-6.54A40.52 40.52 0 0 0 30.2 19.1a10.62 10.62 0 0 0-6.93-5.81 20.8 20.8 0 0 0-5.36-.56v-.06h-1.28z" fill="url(#e)" stroke-width="5.59"/></svg>