<svg xmlns="http://www.w3.org/2000/svg" xmlns:xlink="http://www.w3.org/1999/xlink" width="64" height="64" version="1"><defs><radialGradient xlink:href="#a" id="d" cx="46.82" cy="19.01" fx="46.82" fy="19.01" r="20" gradientTransform="matrix(1.55 0 0 1.08502 -17.6 -2.72)" gradientUnits="userSpaceOnUse"/><linearGradient id="a"><stop offset="0" stop-color="#333"/><stop offset="1"/></linearGradient><radialGradient xlink:href="#b" id="c" cx="21.46" cy="24.55" fx="21.46" fy="24.55" r="18.19" gradientTransform="matrix(1.55 0 0 1.05365 -17.6 -1.61)" gradientUnits="userSpaceOnUse"/><linearGradient id="b"><stop offset="0" stop-color="#71c837"/><stop offset="1" stop-color="#2d5016"/></linearGradient></defs><path d="M24.25 16.15l7.26-2.98 25.03 17.1L60.8 40.9l-8.87 5.7-22.17 4.91-5.51-2.89-13.82-7.09-6.02-12.51 2.85-3.65 11.25-6.97z" fill="url(#c)"/><path d="M7.33 28.98s5.73-8.75 16.92-9.65v-3.18C11.85 17.21 1 28.32 1 28.32s6.2 18.59 23.25 20.3v-3.38C11.75 43.57 7.33 28.98 7.33 28.98zm16.92 9.55v3.09c-9.45-1.79-12.2-12.19-12.2-12.19s4.66-5.32 12.2-6.18v3.39c-3.97-.5-7.18 3.4-7.18 3.4s1.86 6.6 7.19 8.49m0-28.23v5.85c.36-.03.6-.05.97-.06 14.1-.5 23.28 12.22 23.28 12.22S37.96 41.88 26.97 41.88c-1 0-1.83-.1-2.71-.26v3.62c.75.1 1.42.16 2.24.16 10.22 0 17.62-5.52 24.78-12.06 1.18 1 6.04 3.45 7.04 4.52-6.8 6.03-22.67 10.9-31.67 10.9-.86 0-1.57-.06-2.4-.15v5.09H63V10.3H24.26zm0 12.95v-3.92c.36-.02.6-.05.97-.06C35.36 18.93 42 28.48 42 28.48s-7.18 10.55-14.88 10.55c-1.1 0-1.98-.18-2.87-.5V26.64c3.94.5 4.61 2.35 6.99 6.53l5.27-4.7s-3.85-5.35-10.34-5.35c-.7 0-1.26.05-1.92.13" fill="url(#d)"/></svg>