<svg xmlns="http://www.w3.org/2000/svg" width="64" height="64"><defs><radialGradient id="a" cx="12.01" cy="13.2" r="20" gradientTransform="matrix(0 2.61817 -3.2572 0 59.52 -16.15)" gradientUnits="userSpaceOnUse"><stop offset="0" stop-color="#4d4d4d"/><stop offset=".26" stop-color="#333"/><stop offset=".7"/><stop offset="1"/></radialGradient><linearGradient id="b" x1="24" x2="24" y1="44" y2="3.9" gradientTransform="matrix(1.34401 0 0 1.55834 -.26 -5.4)" gradientUnits="userSpaceOnUse"><stop offset="0"/><stop offset="1" stop-color="#333"/></linearGradient></defs><rect x="5.79" y="1.61" width="52.42" height="60.78" rx="2.13" ry="2.47" fill="url(#a)" stroke="url(#b)" stroke-width=".51" stroke-linecap="round" stroke-linejoin="round"/><path d="M32 14.5c-7.34 0-13.29 2.45-13.29 5.47v4.48c0 3.02 5.95 5.47 13.3 5.47 7.33 0 13.28-2.45 13.28-5.47v-4.48c0-3.02-5.95-5.47-13.29-5.47zM18.71 26.4c-.02.14 0 7.83 0 7.83 0 3.02 5.95 5.47 13.3 5.47 7.33 0 13.28-2.45 13.28-5.47 0 0 .02-7.69 0-7.82-.51 2.83-6.28 5.06-13.29 5.06-7 0-12.78-2.23-13.29-5.06zm0 9.8v7.83c0 3.02 5.95 5.47 13.3 5.47 7.33 0 13.28-2.45 13.28-5.47v-7.82C44.77 39.03 39 41.27 32 41.27c-7 0-12.79-2.24-13.3-5.06z" fill="#e3dbdb"/></svg>