<svg xmlns="http://www.w3.org/2000/svg" xmlns:xlink="http://www.w3.org/1999/xlink" width="64" height="64" version="1" enable-background="new"><defs><linearGradient id="aA"><stop offset="0"/><stop offset="1" stop-opacity="0"/></linearGradient><linearGradient id="az"><stop offset="0"/><stop offset="1" stop-opacity="0"/></linearGradient><linearGradient id="ay"><stop offset="0"/><stop offset="1" stop-opacity="0"/></linearGradient><linearGradient id="ax"><stop offset="0"/><stop offset="1" stop-opacity="0"/></linearGradient><linearGradient id="aw"><stop offset="0"/><stop offset="1" stop-opacity="0"/></linearGradient><linearGradient id="av"><stop offset="0"/><stop offset="1" stop-opacity="0"/></linearGradient><linearGradient id="au"><stop offset="0"/><stop offset="1" stop-opacity="0"/></linearGradient><linearGradient id="at"><stop offset="0" stop-color="#e1dcdd"/><stop offset="1" stop-color="#f7f2f2"/></linearGradient><linearGradient id="ar"><stop offset="0"/><stop offset="1" stop-opacity="0"/></linearGradient><linearGradient id="aq"><stop offset="0" stop-color="#fff"/><stop offset="1" stop-color="#aeaeae" stop-opacity="0"/></linearGradient><linearGradient id="ao"><stop offset="0" stop-color="#818181"/><stop offset=".17" stop-color="#fff"/><stop offset=".3" stop-color="#fafafa"/><stop offset=".42" stop-color="#d7d7d7"/><stop offset=".45"/><stop offset=".59" stop-color="#d5d5d5"/><stop offset=".7" stop-color="#c8c8c8"/><stop offset=".76" stop-color="#333"/><stop offset=".95" stop-color="#c1c1c1"/><stop offset="1" stop-color="#343434"/></linearGradient><linearGradient id="am"><stop offset="0" stop-color="#313131"/><stop offset=".7" stop-color="#6a6a6a"/><stop offset="1"/></linearGradient><linearGradient id="ai"><stop offset="0" stop-color="#262626"/><stop offset="1" stop-color="#262626" stop-opacity="0"/></linearGradient><linearGradient id="aj"><stop offset="0" stop-color="#121212"/><stop offset=".5" stop-color="#6b6b6b"/><stop offset=".88" stop-color="#484848"/><stop offset="1" stop-color="#262626"/></linearGradient><linearGradient id="ak"><stop offset="0" stop-color="#faef9a"/><stop offset="1" stop-color="#faef9a" stop-opacity="0"/></linearGradient><linearGradient id="ah"><stop offset="0" stop-color="#fbf09c"/><stop offset="1" stop-color="#fbf09c" stop-opacity="0"/></linearGradient><linearGradient id="ag"><stop offset="0" stop-color="#5c0000"/><stop offset="1" stop-color="#5c0000" stop-opacity="0"/></linearGradient><linearGradient id="af"><stop offset="0" stop-color="#fff"/><stop offset="1" stop-color="#fff" stop-opacity="0"/></linearGradient><linearGradient id="ae"><stop offset="0" stop-color="#fff"/><stop offset="1" stop-color="#fff" stop-opacity="0"/></linearGradient><linearGradient id="ad"><stop offset="0" stop-color="#fcf4a4"/><stop offset="1" stop-color="#fcf4a4" stop-opacity="0"/></linearGradient><linearGradient id="ac"><stop offset="0" stop-color="#b93900" stop-opacity="0"/><stop offset=".5" stop-color="#b93900" stop-opacity="0"/><stop offset="1" stop-color="#b93900"/></linearGradient><linearGradient id="ab"><stop offset="0" stop-color="#fff"/><stop offset="1" stop-color="#fff" stop-opacity="0"/></linearGradient><linearGradient id="aa"><stop offset="0" stop-color="#a10000"/><stop offset="1" stop-color="#790404" stop-opacity="0"/></linearGradient><linearGradient id="Y"><stop offset="0" stop-color="#fef5a5"/><stop offset=".33" stop-color="#f9f2a9" stop-opacity=".97"/><stop offset=".37" stop-color="#f3edb2" stop-opacity=".93"/><stop offset=".43" stop-color="#eee9ba" stop-opacity=".89"/><stop offset=".48" stop-color="#e5e2c8" stop-opacity=".82"/><stop offset=".75" stop-color="#fef8b8" stop-opacity=".64"/><stop offset="1" stop-color="#fff" stop-opacity="0"/></linearGradient><linearGradient id="V"><stop offset="0" stop-color="#fff"/><stop offset=".25" stop-color="#fff" stop-opacity=".11"/><stop offset=".5" stop-color="#fff" stop-opacity="0"/><stop offset=".75" stop-color="#fff" stop-opacity=".11"/><stop offset="1" stop-color="#fff"/></linearGradient><linearGradient id="X"><stop offset="0" stop-color="#da7920" stop-opacity="0"/><stop offset=".7" stop-color="#da7920"/><stop offset="1" stop-color="#da7920" stop-opacity="0"/></linearGradient><linearGradient id="R"><stop offset="0" stop-color="#fff"/><stop offset="1" stop-color="#fff" stop-opacity="0"/></linearGradient><linearGradient id="P"><stop offset="0" stop-color="#aed0fe"/><stop offset="1" stop-color="#aed0fe" stop-opacity="0"/></linearGradient><linearGradient id="N"><stop offset="0" stop-color="#454545"/><stop offset="1" stop-color="#454545" stop-opacity="0"/></linearGradient><linearGradient id="L"><stop offset="0" stop-color="#1f1f1f"/><stop offset="1" stop-color="#545454"/></linearGradient><linearGradient id="u"><stop offset="0"/><stop offset="1" stop-opacity="0"/></linearGradient><linearGradient id="M"><stop offset="0" stop-color="#023e90"/><stop offset="1" stop-color="#0367f0"/></linearGradient><linearGradient id="J"><stop offset="0" stop-color="#fff"/><stop offset="1" stop-color="#fff" stop-opacity="0"/></linearGradient><linearGradient id="I"><stop offset="0" stop-color="#4f4f4f"/><stop offset="1"/></linearGradient><linearGradient xlink:href="#b" id="a" gradientUnits="userSpaceOnUse" gradientTransform="translate(-80)" x1="15.72" y1="125.79" x2="24.94" y2="108.34"/><linearGradient id="h" gradientUnits="userSpaceOnUse" x1="40.53" y1="55.75" x2="52.98" y2="64.65" gradientTransform="translate(-80)"><stop offset="0" stop-color="#fff" stop-opacity="0"/><stop offset=".89" stop-color="#fff"/></linearGradient><linearGradient id="b" gradientUnits="userSpaceOnUse" x1="15.72" y1="125.79" x2="24.94" y2="108.34" gradientTransform="translate(-80)"><stop offset="0"/><stop offset=".89" stop-color="#fff"/></linearGradient><linearGradient id="i" gradientUnits="userSpaceOnUse" x1="11.92" y1="119.06" x2="98.42" y2="44.06"><stop offset="0" stop-color="#c9c9c9"/><stop offset=".02" stop-color="#b2b2b2"/><stop offset=".05" stop-color="#9f9f9f"/><stop offset=".08" stop-color="#929292"/><stop offset=".12" stop-color="#8a8a8a"/><stop offset=".2" stop-color="#888"/><stop offset="1" stop-color="#686868"/></linearGradient><linearGradient id="j"><stop offset="0" stop-color="#fff"/><stop offset="1" stop-color="#fff" stop-opacity="0"/></linearGradient><filter x="-.1" width="1.21" y="-.1" height="1.21" id="c"><feGaussianBlur stdDeviation=".42"/></filter><radialGradient xlink:href="#d" id="e" gradientUnits="userSpaceOnUse" gradientTransform="matrix(1 0 0 .57806 0 -101.85)" cx="94.82" cy="67.9" fx="94.82" fy="67.9" r="43.73"/><radialGradient xlink:href="#g" id="f" gradientUnits="userSpaceOnUse" cx="-84" cy="64" fx="-84" fy="64" r="60"/><linearGradient id="g"><stop offset="0" stop-color="#fff"/><stop offset="1" stop-color="#fff" stop-opacity="0"/></linearGradient><linearGradient id="d"><stop offset="0" stop-color="#fff"/><stop offset="1" stop-color="#fff" stop-opacity="0"/></linearGradient><linearGradient y2="73.66" x2="29.88" y1="64" x1="25.1" gradientTransform="translate(13.79)" gradientUnits="userSpaceOnUse" id="l" xlink:href="#k"/><filter id="m"><feGaussianBlur stdDeviation=".03"/></filter><radialGradient r="25.68" fy="73.39" fx="-212.18" cy="73.39" cx="-212.18" gradientTransform="matrix(1 0 0 .708 0 21.43)" gradientUnits="userSpaceOnUse" id="o" xlink:href="#n"/><radialGradient r="25.68" fy="73.39" fx="-212.18" cy="73.39" cx="-212.18" gradientTransform="matrix(1 0 0 .708 0 21.43)" gradientUnits="userSpaceOnUse" id="q" xlink:href="#n"/><filter id="p"><feGaussianBlur stdDeviation=".38"/></filter><radialGradient r="28.93" fy="74.3" fx="-250.19" cy="74.3" cx="-250.19" gradientTransform="matrix(1 0 0 .60305 21.74 29.5)" gradientUnits="userSpaceOnUse" id="r" xlink:href="#k"/><filter id="s"><feGaussianBlur stdDeviation=".8"/></filter><linearGradient id="Q"><stop offset="0" stop-color="#f9ea0d"/><stop offset="1" stop-color="#e9a42d"/></linearGradient><linearGradient id="k"><stop offset="0" stop-color="#f9c70d"/><stop offset="1" stop-color="#a64f11"/></linearGradient><linearGradient id="n"><stop offset="0" stop-color="#d4a805" stop-opacity="0"/><stop offset=".73" stop-color="#a46f08" stop-opacity="0"/><stop offset="1" stop-color="#74370b"/></linearGradient><linearGradient xlink:href="#u" id="t" gradientUnits="userSpaceOnUse" x1="1976.89" y1="-838.09" x2="1931.06" y2="-826.24"/><linearGradient y2="351.54" x2="464.13" y1="424.02" x1="293.51" gradientTransform="scale(-.93927 .93927) rotate(-4.65 -7431.15 6938.69)" gradientUnits="userSpaceOnUse" id="y" xlink:href="#x"/><linearGradient id="x"><stop offset="0" stop-color="#83550c"/><stop offset="1" stop-color="#e5c300"/></linearGradient><linearGradient id="H"><stop offset="0" stop-color="#a67313"/><stop offset="1" stop-color="#ffd72f" stop-opacity="0"/></linearGradient><linearGradient id="G"><stop offset="0" stop-color="#f1d980"/><stop offset="1" stop-color="#ded619" stop-opacity="0"/></linearGradient><linearGradient id="C"><stop offset="0" stop-color="#9b7104"/><stop offset="1" stop-color="#bda205" stop-opacity="0"/></linearGradient><linearGradient id="z"><stop offset="0" stop-color="#fafa00"/><stop offset="1" stop-color="#fafae2" stop-opacity="0"/></linearGradient><linearGradient id="F"><stop offset="0" stop-color="#f7f300"/><stop offset="1" stop-color="#cac200" stop-opacity="0"/></linearGradient><linearGradient id="E"><stop offset="0" stop-color="#fdee81"/><stop offset="1" stop-color="#f9e00b" stop-opacity="0"/></linearGradient><linearGradient id="A"><stop offset="0" stop-color="#fff"/><stop offset="1" stop-color="#fff" stop-opacity="0"/></linearGradient><linearGradient id="D"><stop offset="0" stop-color="#f5e960"/><stop offset="1" stop-color="#f5e960" stop-opacity="0"/></linearGradient><linearGradient id="T"><stop offset="0" stop-color="#feaa27"/><stop offset="1" stop-color="#fffd85" stop-opacity="0"/></linearGradient><linearGradient id="B"><stop offset="0" stop-color="#f3e11b"/><stop offset="1" stop-color="#f3e61b" stop-opacity="0"/></linearGradient><linearGradient id="w"><stop offset="0" stop-color="#631e09"/><stop offset="1" stop-color="#635309" stop-opacity="0"/></linearGradient><linearGradient id="v"><stop offset="0" stop-color="#453800"/><stop offset="1" stop-color="#453800" stop-opacity="0"/></linearGradient><linearGradient xlink:href="#L" id="K" gradientUnits="userSpaceOnUse" gradientTransform="matrix(.35188 0 0 .35188 1303.23 -556.73)" x1="2895" y1="-824.64" x2="2844" y2="-923.64"/><linearGradient y2="-907.32" x2="3040.82" y1="-836.86" x1="3082.61" gradientTransform="translate(-374.77 -229.81)" gradientUnits="userSpaceOnUse" id="O" xlink:href="#M"/><linearGradient y2="-1052.71" x2="2877.21" y1="-1362.42" x1="2720.94" gradientTransform="translate(400.98 -318.68)" gradientUnits="userSpaceOnUse" id="S" xlink:href="#Q"/><linearGradient y2="-1052.71" x2="2877.21" y1="-1362.42" x1="2720.94" gradientTransform="translate(674.34 -284.5)" gradientUnits="userSpaceOnUse" id="U" xlink:href="#Q"/><linearGradient y2="-1202.61" x2="2445.87" y1="-1202.61" x1="2170.81" gradientUnits="userSpaceOnUse" id="W" xlink:href="#V"/><radialGradient r="79" fy="-992.71" fx="3775.36" cy="-975.95" cx="3776" gradientTransform="matrix(1.52255 0 0 1.52255 -1973.15 509.98)" gradientUnits="userSpaceOnUse" id="Z" xlink:href="#aa"/><linearGradient xlink:href="#am" id="al" gradientUnits="userSpaceOnUse" gradientTransform="translate(0 100)" x1="3070.25" y1="-645.06" x2="3289.22" y2="-645.06"/><linearGradient xlink:href="#ao" id="an" gradientUnits="userSpaceOnUse" gradientTransform="matrix(1 0 0 1.08333 205.02 127.84)" x1="2205.94" y1="-1222.14" x2="2229.13" y2="-1222.14"/><radialGradient xlink:href="#aq" id="ap" gradientUnits="userSpaceOnUse" gradientTransform="matrix(.73211 .5229 -.17051 .36535 54.48 -738.08)" cx="2062.19" cy="-909.81" fx="2062.19" fy="-909.81" r="234.16"/><linearGradient y2="-1267.7" x2="2177.54" y1="-1255.33" x1="2225.97" gradientTransform="translate(-174.73 -135.48) scale(.82886)" gradientUnits="userSpaceOnUse" id="as" xlink:href="#at"/><linearGradient id="aE"><stop offset="0" stop-color="#5b3b07"/><stop offset="1" stop-color="#fef4e6"/></linearGradient><radialGradient gradientUnits="userSpaceOnUse" id="aI" r="137.89" cy="111.13" cx="101.16"><stop offset=".1" stop-color="#f0f0f0"/><stop offset=".4" stop-color="#fafafa"/><stop offset=".48" stop-color="#fff"/><stop offset=".6" stop-color="#fafafa"/><stop offset=".72" stop-color="#eee"/><stop offset=".89" stop-color="#ddd"/></radialGradient><filter id="aF" x="-.02" width="1.03" y="-.13" height="1.27"><feGaussianBlur stdDeviation="2.61"/></filter><linearGradient xlink:href="#aB" id="aG" gradientUnits="userSpaceOnUse" x1="-2282.26" y1="275.53" x2="-2305.07" y2="344.26"/><filter id="aH"><feGaussianBlur stdDeviation="1.86"/></filter><linearGradient id="aC"><stop offset="0"/><stop offset="1" stop-opacity="0"/></linearGradient><linearGradient id="aD"><stop offset="0" stop-color="#fefefe"/><stop offset="1" stop-color="#fefefe" stop-opacity="0"/></linearGradient><linearGradient id="aB"><stop offset="0"/><stop offset="1" stop-opacity="0"/></linearGradient><linearGradient id="aJ"><stop offset="0" stop-color="#5f4721"/><stop offset="1" stop-color="#dab475"/></linearGradient><linearGradient id="aK"><stop offset="0" stop-color="#252525"/><stop offset=".5" stop-color="#252525"/><stop offset=".75" stop-color="#252525"/><stop offset="1"/></linearGradient><linearGradient id="aL"><stop offset="0" stop-color="#2d2d2d"/><stop offset=".5"/><stop offset="1"/></linearGradient><linearGradient id="aM"><stop offset="0" stop-color="#fff"/><stop offset="1" stop-color="#252525" stop-opacity="0"/></linearGradient><linearGradient xlink:href="#aN" id="aO" x1="49.36" y1="42.31" x2="121.05" y2="88.8" gradientUnits="userSpaceOnUse" gradientTransform="matrix(.49401 0 0 .49401 .2 2.73)"/><linearGradient id="aN"><stop offset="0"/><stop offset=".31" stop-color="#1a1a1a"/><stop offset="1" stop-color="#666"/></linearGradient><radialGradient xlink:href="#aA" id="aU" gradientUnits="userSpaceOnUse" gradientTransform="matrix(-.19818 .19384 .0331 .0413 48.38 36.08)" cx="9.69" cy="82.52" fx="54.62" fy="83.51" r="56.16"/><radialGradient r="3.41" fy="120.64" fx="42.62" cy="120.64" cx="42.62" gradientTransform="matrix(-1.3506 1.15232 10.51575 12.20071 -1125.7 -1431.62)" gradientUnits="userSpaceOnUse" id="aP" xlink:href="#aJ"/><radialGradient r="2.61" fy="58.09" fx="15.73" cy="58.09" cx="15.73" gradientTransform="matrix(-1.68284 1.2962 18.65521 24.49151 -991.14 -1384.08)" gradientUnits="userSpaceOnUse" id="aQ" xlink:href="#aK"/><radialGradient r="47.75" fy="100.75" fx="89.45" cy="100.75" cx="89.45" gradientTransform="matrix(-.05817 .0435 .55912 .74452 6.28 -20.87)" gradientUnits="userSpaceOnUse" id="aR" xlink:href="#aL"/><radialGradient r="47.6" fy="7.46" fx="34.68" cy="7.46" cx="34.68" gradientTransform="matrix(-1.03308 .003 -.00008 -.01037 -38.15 18.83)" gradientUnits="userSpaceOnUse" id="aS" xlink:href="#af"/><radialGradient r="1.72" fy="2.67" fx="49.01" cy="2.67" cx="49.01" gradientTransform="matrix(1.51245 0 0 .18397 -90.08 24.57)" gradientUnits="userSpaceOnUse" id="aT" xlink:href="#aM"/><linearGradient xlink:href="#aM" id="aV" x1="49.36" y1="42.31" x2="63.98" y2="53.17" gradientUnits="userSpaceOnUse" gradientTransform="matrix(.49401 0 0 .49401 .2 2.73)"/></defs><path d="M22.43 63.63l27.15-11.24c4-1.86 8.12-3.64 11.4-5.94L39.06 7.69c-1.68.68-35.03 12.15-36.7 12.83z" fill="#0c0c0c" enable-background="new"/><path d="M1.64 20.15c.39.73 19.58 42.02 19.97 42.75l26.04-10.5c4.51-1.95 11-4.89 12.57-6.8-1.97-3.24-4.18-6.19-5.92-9.73-.15-.3-15.72-27.86-16.1-28.59-.84.34-35.73 12.53-36.56 12.87z" fill="url(#aO)" enable-background="new"/><path style="line-height:1.25" d="M33.63 13.05l-.7.28-1.14.75.29.67 1.14-.76 1.8 4.13-1.15.45.27.62L37.16 18l-.27-.61-1.16.45-2.1-4.79zm-4.23 1.76c-.27-.03-.56.01-.85.13-.59.23-.93.64-1.03 1.25-.1.6.05 1.35.45 2.27.4.9.86 1.54 1.38 1.9.52.36 1.07.42 1.66.19.58-.23.93-.65 1.03-1.25.1-.6-.05-1.36-.45-2.27a4.36 4.36 0 0 0-1.38-1.9 1.76 1.76 0 0 0-.8-.32zm-.32.64c.27-.03.53.07.8.3.34.3.67.82 1 1.56.33.74.48 1.33.45 1.78-.02.44-.2.73-.58.88-.36.14-.72.06-1.06-.23-.35-.3-.68-.82-1-1.57a4.27 4.27 0 0 1-.47-1.77c.02-.45.22-.74.58-.88a1 1 0 0 1 .28-.07zm-4.6 1.2l-.7.28-1.14.75.29.67 1.14-.76 1.81 4.13-1.15.45.27.62L28 21.6l-.27-.61-1.16.45-2.1-4.8zm-4.22 1.76c-.28-.03-.56 0-.86.12-.58.23-.93.65-1.03 1.26-.1.6.05 1.35.45 2.26.4.91.86 1.55 1.38 1.9.52.36 1.07.43 1.66.2.59-.24.93-.65 1.03-1.25.1-.6-.05-1.36-.45-2.27a4.36 4.36 0 0 0-1.38-1.9 1.77 1.77 0 0 0-.8-.32zm-.33.64c.27-.03.54.07.8.3.34.3.68.81 1 1.56.33.74.48 1.33.46 1.78-.02.44-.22.73-.58.88-.37.14-.72.06-1.07-.23-.35-.3-.68-.83-1-1.57a4.27 4.27 0 0 1-.46-1.77c.02-.45.21-.74.58-.89a1 1 0 0 1 .27-.06zm-4.25 1.16c-.27-.04-.56 0-.85.12-.59.23-.93.65-1.03 1.25-.1.6.05 1.36.45 2.27.4.91.86 1.55 1.38 1.9.52.36 1.07.42 1.66.2.58-.24.93-.65 1.03-1.25.1-.6-.05-1.36-.45-2.27a4.36 4.36 0 0 0-1.38-1.9 1.77 1.77 0 0 0-.8-.32zm-.32.64c.27-.03.53.07.79.3.35.3.68.81 1.01 1.56.33.74.48 1.33.46 1.78-.03.44-.22.73-.59.88-.36.14-.72.06-1.06-.24-.35-.3-.68-.82-1-1.56a4.27 4.27 0 0 1-.47-1.78c.02-.44.22-.73.58-.88a1 1 0 0 1 .28-.06zm-4.6 1.2l-.7.27-1.14.76.3.66 1.14-.75 1.8 4.13-1.15.45.27.62L14.29 27l-.27-.62-1.15.46-2.1-4.8zm26.94.27l-.71.28-1.14.76.3.66 1.14-.75 1.8 4.12-1.15.46.27.61 3.01-1.18-.27-.62-1.16.46-2.1-4.8zm-4.58 1.8l-.7.28-1.14.76.29.66 1.14-.75 1.81 4.12-1.16.46.27.61 3.02-1.18-.27-.62-1.16.46-2.1-4.8zm-4.23 1.76c-.27-.03-.56.01-.85.13-.59.23-.93.65-1.03 1.25-.1.6.05 1.35.45 2.27.4.9.86 1.54 1.38 1.9.52.36 1.07.42 1.66.19.58-.23.93-.65 1.03-1.25.1-.6-.05-1.36-.45-2.27a4.36 4.36 0 0 0-1.38-1.9 1.77 1.77 0 0 0-.8-.32zm-.32.64c.27-.02.53.08.8.3.34.3.68.82 1 1.56.33.74.48 1.34.46 1.78-.02.44-.22.74-.59.88-.36.14-.72.07-1.06-.23-.35-.3-.68-.82-1-1.56a4.27 4.27 0 0 1-.47-1.78c.02-.44.22-.74.58-.88a1 1 0 0 1 .28-.07zm-4.6 1.2l-.7.28-1.14.75.3.67 1.14-.76 1.8 4.13-1.15.46.27.61 3.01-1.18-.27-.62-1.15.45-2.1-4.79zm-4.57 1.8l-.7.28-1.14.75.29.67 1.14-.76 1.81 4.13-1.16.45.27.62 3.02-1.19-.27-.61-1.16.45-2.1-4.79zm-4.23 1.76c-.27-.03-.56.01-.85.13-.59.23-.93.64-1.03 1.25-.1.6.05 1.35.45 2.27.4.9.86 1.54 1.38 1.9.52.36 1.07.42 1.66.19.59-.23.93-.65 1.03-1.25.1-.6-.05-1.36-.45-2.27a4.36 4.36 0 0 0-1.38-1.9 1.76 1.76 0 0 0-.8-.32zm26.94.28c-.28-.03-.57 0-.86.12-.59.23-.93.65-1.03 1.26-.1.6.05 1.35.45 2.26.4.91.86 1.55 1.38 1.9.52.36 1.07.43 1.66.2.59-.24.93-.65 1.03-1.25.1-.6-.05-1.36-.45-2.27a4.36 4.36 0 0 0-1.38-1.9 1.77 1.77 0 0 0-.8-.32zm-27.26.36c.27-.03.53.07.8.3.34.3.67.82 1 1.56.33.74.48 1.33.46 1.78-.02.44-.22.73-.58.88-.37.14-.73.06-1.07-.23-.35-.3-.68-.82-1-1.57a4.27 4.27 0 0 1-.47-1.77c.03-.45.22-.74.58-.88a1 1 0 0 1 .28-.07zm26.93.28c.27-.03.53.07.8.3.34.3.68.81 1 1.56.33.74.48 1.33.46 1.78-.02.44-.22.73-.58.88-.37.14-.72.06-1.07-.23-.35-.3-.68-.82-1-1.57a4.26 4.26 0 0 1-.46-1.77c.02-.45.2-.74.57-.89a1 1 0 0 1 .28-.06zm-4.25 1.16c-.28-.03-.56 0-.85.12-.59.23-.93.65-1.03 1.25-.1.6.05 1.36.45 2.27.4.91.86 1.55 1.37 1.9.53.36 1.08.42 1.67.2.58-.24.93-.65 1.03-1.25.1-.6-.05-1.36-.45-2.27a4.36 4.36 0 0 0-1.38-1.9 1.77 1.77 0 0 0-.8-.32zm-.32.64c.27-.03.53.07.79.3.35.3.68.81 1.01 1.56.32.74.47 1.33.45 1.78-.02.44-.21.73-.58.88-.36.14-.72.06-1.07-.23-.34-.3-.67-.83-1-1.57a4.27 4.27 0 0 1-.46-1.77c.02-.45.22-.74.58-.89a1 1 0 0 1 .28-.06zm-4.6 1.2l-.7.27-1.14.76.29.66 1.14-.75 1.81 4.13-1.15.45.27.62 3.01-1.19-.27-.62-1.16.46-2.1-4.8zm-4.23 1.76c-.27-.04-.56 0-.85.12-.59.23-.93.65-1.03 1.25-.1.6.05 1.36.45 2.27.4.91.86 1.55 1.38 1.9.52.36 1.07.42 1.66.2.59-.24.93-.65 1.03-1.25.1-.6-.05-1.36-.45-2.27a4.36 4.36 0 0 0-1.38-1.9 1.76 1.76 0 0 0-.8-.32zm-.32.63c.27-.02.53.08.8.3.34.3.68.82 1 1.57.33.74.48 1.33.46 1.77-.02.45-.22.74-.58.88-.37.15-.73.07-1.07-.23-.35-.3-.68-.82-1-1.56a4.27 4.27 0 0 1-.46-1.78c.02-.44.21-.73.58-.88a1 1 0 0 1 .27-.07zm-4.25 1.17c-.27-.04-.56 0-.85.12-.59.23-.93.65-1.03 1.25-.1.6.05 1.36.45 2.27.4.91.86 1.55 1.38 1.9.52.36 1.07.42 1.66.2.58-.24.93-.65 1.03-1.25.1-.6-.05-1.36-.45-2.27a4.36 4.36 0 0 0-1.38-1.9 1.76 1.76 0 0 0-.8-.32zm-.33.63c.28-.02.54.08.8.3.35.3.68.82 1 1.57.33.74.49 1.33.46 1.77-.02.44-.21.74-.58.88-.36.15-.72.07-1.06-.23-.35-.3-.69-.82-1.01-1.56a4.27 4.27 0 0 1-.46-1.78c.02-.44.22-.74.58-.88a1 1 0 0 1 .27-.07zm-4.24 1.16c-.28-.03-.56.01-.86.13-.58.23-.93.65-1.03 1.25-.1.6.05 1.36.45 2.27.4.91.86 1.54 1.38 1.9.52.36 1.08.42 1.66.2.6-.24.93-.66 1.03-1.26.1-.6-.05-1.35-.45-2.26a4.36 4.36 0 0 0-1.38-1.9 1.77 1.77 0 0 0-.8-.33zm-.33.64c.27-.02.54.08.8.3.34.3.68.82 1 1.56.33.75.48 1.34.46 1.78-.02.45-.21.74-.58.88-.36.14-.72.07-1.07-.23-.34-.3-.68-.82-1-1.56a4.28 4.28 0 0 1-.46-1.78c.02-.44.21-.74.58-.88a1 1 0 0 1 .27-.07zm13.2 5.08l-.71.28-1.14.75.3.67 1.14-.76 1.8 4.13-1.15.45.27.62 3.01-1.19-.27-.61-1.15.45-2.1-4.79zm-4.23 1.76c-.28-.03-.57 0-.86.12-.59.24-.93.65-1.03 1.26-.1.6.05 1.35.45 2.26.4.91.86 1.55 1.38 1.9.52.36 1.07.43 1.66.2.59-.24.93-.65 1.03-1.25.1-.6-.05-1.36-.45-2.27a4.36 4.36 0 0 0-1.38-1.9 1.77 1.77 0 0 0-.8-.32zm-.33.64c.27-.03.53.07.8.3.34.3.68.82 1 1.56.33.74.48 1.33.46 1.78-.02.44-.22.73-.58.88-.37.14-.72.06-1.07-.23-.35-.3-.68-.82-1-1.57a4.27 4.27 0 0 1-.46-1.77c.02-.45.21-.74.58-.89a1 1 0 0 1 .27-.06zm-4.6 1.2l-.7.28-1.14.75.3.67 1.14-.76 1.8 4.13-1.15.45.27.62 3.02-1.19-.28-.61-1.15.45-2.1-4.8z" font-weight="400" font-size="7.9" font-family="sans-serif" letter-spacing="0" word-spacing="0" fill="#fff" enable-background="new"/><g stroke-width="1.99" enable-background="new"><path d="M49.61 4.25c.07-.23 1.07-.6 2.53-.17 1.48.45 2.11 1.26 2.03 1.55l-.18.57-4.56-1.37.18-.56m-12.07 47.9l5.6-10.23.03-.08-4.53-1.45-.03.1z" fill-rule="evenodd"/><path d="M102.36 108.81L81.5 90.65l-.12-.16 9.01-7.05.17.22z" transform="scale(-.3933 .3933) rotate(20.24 -58.45 -436.13)" fill="url(#aP)" fill-rule="evenodd"/><path d="M86.59 87.9c-1.2.9-2.27.4-2.7.73a.54.54 0 0 0-.15.2l-57.8-76.36 4.69-3.53 57.9 76.5c-.2-.03-.37-.04-.5.07-.4.29-.25 1.48-1.44 2.38z" transform="scale(-.3933 .3933) rotate(20.24 -58.45 -436.13)" fill="url(#aQ)"/><path d="M26.12 12.35l57.74 76.3c-.38.34-.12 1.27-.84 1.82-.77.58-1.36-.1-1.86.28L23.38 14.4z" transform="scale(-.3933 .3933) rotate(20.24 -58.45 -436.13)" fill="url(#aR)"/><path d="M39.18 41.08c.35.1.55-.25.73-.19L50.84 4.87l-1.3-.4L38.6 40.52h.02c.14.05.2.47.55.57z" fill="#131313"/><path d="M-24.8 18.86a49.17.48 0 0 1-48.8.48 49.17.48 0 0 1-49.54-.47 49.17.48 0 0 1 48-.5 49.17.48 0 0 1 50.3.47" transform="matrix(.114 -.37641 -.37644 -.11394 60.76 -2.64)" fill="url(#aS)"/><path d="M39.96 47.79c-.6.22-1.52-.4-1.97-.52l-.45 4.9z" fill-rule="evenodd"/><path transform="matrix(.37648 .1138 -.11455 .37624 60.76 -2.64)" d="M-18.57 24.6h5.22v1.14h-5.22z" fill="url(#aT)"/></g><path d="M55.84 38.54c-.52-.88-1.07-1.72-1.54-2.67l-1.11-1.99a2.96 15.57 45.42 0 0-5.86 5.16 2.96 15.57 45.42 0 0-9.28 13.21 2.96 15.57 45.42 0 0 13-8.57 2.96 15.57 45.42 0 0 4.8-5.14z" opacity=".2" fill="url(#aU)" enable-background="new"/><path d="M1.64 20.15c.39.73 19.58 42.02 19.97 42.75l26.04-10.5c4.51-1.95 11-4.89 12.57-6.8-1.97-3.24-4.18-6.19-5.92-9.73-.15-.3-15.72-27.86-16.1-28.59-.84.34-35.73 12.53-36.56 12.87z" opacity=".09" fill="url(#aV)" enable-background="new"/></svg>