<svg xmlns="http://www.w3.org/2000/svg" xmlns:xlink="http://www.w3.org/1999/xlink" height="64" width="64" version="1"><defs><linearGradient id="b"><stop offset="0" stop-color="gray"/><stop offset="1" stop-color="#333"/></linearGradient><linearGradient id="a"><stop offset="0" stop-color="#333"/><stop offset="1"/></linearGradient><radialGradient gradientTransform="translate(-.82 30.82) scale(.76923)" xlink:href="#b" id="f" cx="11.16" cy="11.79" fx="11.16" fy="11.79" r="18.44" gradientUnits="userSpaceOnUse"/><radialGradient gradientTransform="translate(30.82 -.82) scale(.76923)" xlink:href="#b" id="e" cx="11.16" cy="11.79" fx="11.16" fy="11.79" r="18.44" gradientUnits="userSpaceOnUse"/><radialGradient xlink:href="#a" id="d" cx="11.16" cy="11.79" fx="11.16" fy="11.79" r="18.44" gradientUnits="userSpaceOnUse" gradientTransform="translate(-.82 -.82) scale(.76923)"/><radialGradient gradientTransform="translate(30.82 30.82) scale(.76923)" xlink:href="#a" id="c" cx="11.16" cy="11.79" fx="11.16" fy="11.79" r="18.44" gradientUnits="userSpaceOnUse"/></defs><rect x="33.97" y="33.97" width="27.7" height="27.7" ry="3.27" rx="3.27" fill="url(#c)" stroke="#000" stroke-width=".66"/><rect x="2.33" y="2.33" width="27.7" height="27.7" ry="3.27" rx="3.27" fill="url(#d)" stroke="#000" stroke-width=".66"/><path style="line-height:125%" d="M13.18 8.1c-1.61 0-2.9.54-3.87 1.62a6.26 6.26 0 0 0-1.44 4.33c0 1.81.48 3.25 1.44 4.33a4.95 4.95 0 0 0 3.87 1.61 4.9 4.9 0 0 0 3.85-1.61 6.27 6.27 0 0 0 1.44-4.33c0-1.81-.48-3.25-1.44-4.33a4.9 4.9 0 0 0-3.85-1.61zm0 1.26a3.2 3.2 0 0 1 2.67 1.26c.66.84.98 1.98.98 3.43 0 1.44-.32 2.58-.98 3.42a3.2 3.2 0 0 1-2.67 1.26 3.25 3.25 0 0 1-2.7-1.26 5.44 5.44 0 0 1-.98-3.42c0-1.45.33-2.59 1-3.43a3.25 3.25 0 0 1 2.68-1.26z" font-size="20.42" font-family="Bitstream Vera Sans" fill="#ff0"/><path style="line-height:125%" d="M39.9 39.28v11.45h4.12c1.28 0 2.27-.28 2.97-.84a2.86 2.86 0 0 0 1.04-2.37c0-.77-.21-1.42-.63-1.94a3 3 0 0 0-1.77-1.03 2.2 2.2 0 0 0 1.44-.77 2.62 2.62 0 0 0 .48-1.67c0-.91-.32-1.61-.95-2.1a4.4 4.4 0 0 0-2.73-.73zm1.56 1.27h2.29c.75 0 1.32.14 1.7.43.36.28.55.72.55 1.3 0 .58-.19 1.01-.57 1.3-.36.28-.92.42-1.69.42h-2.28zm0 4.71h2.48c.83 0 1.45.17 1.85.5.4.35.6.88.6 1.6 0 .7-.2 1.22-.6 1.58-.4.34-1.02.51-1.85.51h-2.48z" font-size="20.42" font-family="Bitstream Vera Sans" fill="#59f"/><rect x="33.97" y="2.33" width="27.7" height="27.7" ry="3.27" rx="3.27" fill="url(#e)" stroke="#000" stroke-width=".66"/><rect x="2.33" y="33.97" width="27.7" height="27.7" ry="3.27" rx="3.27" fill="url(#f)" stroke="#000" stroke-width=".66"/></svg>