<svg xmlns="http://www.w3.org/2000/svg" width="64" height="64"><defs><radialGradient id="a" cx="12.01" cy="13.2" r="20" gradientTransform="matrix(0 2.61817 -3.2572 0 59.52 -16.15)" gradientUnits="userSpaceOnUse"><stop offset="0" stop-color="#4d4d4d"/><stop offset=".26" stop-color="#333"/><stop offset=".7"/><stop offset="1"/></radialGradient><linearGradient id="b" x1="24" x2="24" y1="44" y2="3.9" gradientTransform="matrix(1.34401 0 0 1.55834 -.26 -5.4)" gradientUnits="userSpaceOnUse"><stop offset="0"/><stop offset="1" stop-color="#333"/></linearGradient></defs><rect x="5.79" y="1.61" width="52.42" height="60.78" rx="2.13" ry="2.47" fill="url(#a)" stroke="url(#b)" stroke-width=".51" stroke-linecap="round" stroke-linejoin="round"/><path d="M23.7 16.95A11.42 11.42 0 0 0 12.3 28.37 11.42 11.42 0 0 0 23.7 39.8a11.42 11.42 0 0 0 1.27-.08l-4.27 6.93a.25.25 0 0 0-.04.04v.16c0 .03.02.05.04.08l.04.04.05.04a.3.3 0 0 0 .17.04h22.47c.06 0 .12-.01.17-.04a.28.28 0 0 0 .04-.04.3.3 0 0 0 .05-.04.27.27 0 0 0 .04-.08v-.08-.08a.26.26 0 0 0-.04-.04l-2.37-3.84h10.1c.16 0 .28-.13.28-.29v-18.1a.28.28 0 0 0-.28-.28H34.31a11.42 11.42 0 0 0-10.6-7.19zm0 .68a10.75 10.75 0 0 1 9.87 6.51h-.24a.28.28 0 0 0-.28.28v5.07l-.59-.95a.3.3 0 0 0-.17-.12.29.29 0 0 0-.09-.04h-.04a.34.34 0 0 0-.04.04.3.3 0 0 0-.18.12l-5.63 9.04-.87 1.4a10.75 10.75 0 0 1-1.73.14 10.75 10.75 0 0 1-10.75-10.75 10.75 10.75 0 0 1 10.75-10.74zm9.92 7.08h17.53v17.53H40.98l-2.88-4.66-4.48-7.18zm-1.42 4.51l5.38 8.64 5.38 8.63H21.44l5.38-8.63z" fill="#e9b913"/></svg>