<svg xmlns="http://www.w3.org/2000/svg" xmlns:xlink="http://www.w3.org/1999/xlink" width="64" height="64" version="1"><defs><linearGradient id="b"><stop offset="0" stop-color="#afdde9"/><stop offset="1" stop-color="#216778"/></linearGradient><linearGradient id="a"><stop offset="0" stop-color="#4d4d4d"/><stop offset="1"/></linearGradient><radialGradient xlink:href="#a" id="c" cx="16" cy="19.25" fx="16" fy="19.25" r="28" gradientUnits="userSpaceOnUse" gradientTransform="matrix(.88378 .33898 -.35812 .93367 8.75 -4.15)"/><linearGradient xlink:href="#b" id="d" x1="2.24" y1="32" x2="61.76" y2="32" gradientUnits="userSpaceOnUse" gradientTransform="matrix(.94804 0 0 .94804 1.66 1.66)"/></defs><path d="M32 4C16.49 4 4 16.49 4 32s12.49 28 28 28 28-12.49 28-28S47.51 4 32 4z" fill="url(#c)"/><path d="M32 3.79A28.15 28.15 0 0 0 3.8 32 28.15 28.15 0 0 0 32 60.21 28.15 28.15 0 0 0 60.2 32 28.15 28.15 0 0 0 32 3.79zm0 4.45A23.7 23.7 0 0 1 55.76 32 23.7 23.7 0 0 1 32 55.76 23.7 23.7 0 0 1 8.24 32a23.7 23.7 0 0 1 11.88-20.6V32A11.85 11.85 0 0 0 32 43.88 11.85 11.85 0 0 0 43.88 32 11.85 11.85 0 0 0 32 20.12c-2.97 0-2.97 4.45 0 4.45A7.41 7.41 0 0 1 39.42 32 7.41 7.41 0 0 1 32 39.42 7.4 7.4 0 0 1 24.58 32V9.41A23.81 23.81 0 0 1 32 8.24zm0 0" fill="url(#d)"/></svg>