<svg xmlns="http://www.w3.org/2000/svg" xmlns:xlink="http://www.w3.org/1999/xlink" width="64" height="64"><defs><linearGradient id="c"><stop offset="0" stop-color="#1a1a1a"/><stop offset="1" stop-color="#0ff"/></linearGradient><linearGradient id="b"><stop offset="0" stop-color="gray"/><stop offset="1" stop-color="#e6e6e6"/></linearGradient><linearGradient id="a"><stop offset="0"/><stop offset="1" stop-color="#333"/></linearGradient><linearGradient gradientTransform="matrix(1.35262 0 0 1.35262 .15 -19.39)" xlink:href="#a" id="d" x1="15.65" y1="18.16" x2="32.4" y2="62.46" gradientUnits="userSpaceOnUse"/><linearGradient xlink:href="#c" id="e" x1="4.61" y1="17.82" x2="4.61" y2="55.59" gradientUnits="userSpaceOnUse"/></defs><rect ry="3.77" rx="3.77" height="52.89" width="60.46" y="5.56" x="1.77" fill="url(#d)"/><rect ry=".96" rx=".96" height="37.77" width="54.77" y="17.82" x="4.61" fill="url(#e)"/><path style="text-indent:0;text-transform:none" d="M55.3 10.6l-.76.79 1.36 1.36-1.36 1.38.76.77 1.39-1.36 1.36 1.36.79-.77-1.38-1.38 1.38-1.36-.79-.79-1.36 1.38zm-17.6.53v3.25h3.24v-3.25zm-30.45.16l-2.17 2.15.79.79 1.38-1.38 1.36 1.38.79-.79-1.38-1.38zm31.53.9h1.08v1.1h-1.08v-1.08zm7.06 0v1.1h4.33v-1.1z" fill="#0ff" fill-opacity=".66"/></svg>