<svg xmlns="http://www.w3.org/2000/svg" xmlns:xlink="http://www.w3.org/1999/xlink" width="64" height="64" viewBox="0 0 16.93 16.93"><defs><radialGradient xlink:href="#a" id="c" cx="4.73" cy="4.08" fx="4.73" fy="4.08" r="7.67" gradientUnits="userSpaceOnUse"/><linearGradient id="a"><stop offset="0" stop-color="#333"/><stop offset="1"/></linearGradient><linearGradient xlink:href="#b" id="d" x1="3.18" y1="13.18" x2="3.2" y2="3.12" gradientUnits="userSpaceOnUse" gradientTransform="translate(.4 .4)"/><linearGradient id="b"><stop offset="0" stop-color="#fff"/><stop offset="1" stop-color="gray"/></linearGradient></defs><path d="M3.86.8A3.08 3.08 0 0 0 .8 3.85v10.75c0 .83.7 1.53 1.54 1.53h10.74a3.08 3.08 0 0 0 3.07-3.07V2.33c0-.84-.7-1.54-1.53-1.54z" fill="url(#c)"/><path d="M8.45 12.57c1.67 0 1.82-2.53 1.82-4.23 0-1.96-.3-4.1-1.82-4.1-1.53 0-1.79 2.27-1.79 4.1 0 1.68.14 4.23 1.79 4.23zm0-9.15c2.73 0 4.78 1.97 4.78 5 0 2.67-1.94 5.1-4.78 5.1-2.82 0-4.75-2.43-4.75-5.1 0-3 1.99-5 4.75-5z" clip-rule="evenodd" fill="url(#d)" fill-rule="evenodd"/></svg>