<svg xmlns="http://www.w3.org/2000/svg" xmlns:xlink="http://www.w3.org/1999/xlink" width="64" height="64" viewBox="0 0 60 60"><defs><linearGradient id="a"><stop offset="0"/><stop offset="1" stop-color="#4d4d4d"/></linearGradient><linearGradient xlink:href="#a" id="j" gradientUnits="userSpaceOnUse" gradientTransform="matrix(.55336 0 0 .60929 56.84 -6.56)" x1="-97.53" y1="73.96" x2="-96.5" y2="16"/><linearGradient xlink:href="#b" id="i" x1="6.71" y1="1.09" x2="6.71" y2="58.91" gradientUnits="userSpaceOnUse" gradientTransform="matrix(1.17132 0 0 .95384 -5.14 1.38)"/><linearGradient id="b"><stop offset="0" stop-color="#666"/><stop offset="1" stop-color="gray"/></linearGradient><linearGradient y2="49" x2="48.12" y1="49" x1="40.12" gradientUnits="userSpaceOnUse" id="c"><stop offset="0" stop-color="#008e00"/><stop offset=".23" stop-color="#008700"/><stop offset=".51" stop-color="#007800"/><stop offset=".82" stop-color="#005f00"/><stop offset="1" stop-color="#004d00"/></linearGradient><linearGradient id="d"><stop offset="0" stop-color="#00a208"/><stop offset=".5" stop-color="#dfffa8"/><stop offset="1" stop-color="#8aff47" stop-opacity=".63"/></linearGradient><linearGradient id="g"><stop offset="0" stop-color="#c3ff6a"/><stop offset="1" stop-color="#a6ff88" stop-opacity="0"/></linearGradient><linearGradient xlink:href="#c" id="k" gradientUnits="userSpaceOnUse" gradientTransform="matrix(.36097 0 0 .37113 17.54 6.17)" x1="40.12" y1="49" x2="48.12" y2="49"/><linearGradient xlink:href="#d" id="l" gradientUnits="userSpaceOnUse" x1="44.14" y1="3.49" x2="44.14" y2="94.16"/><filter x="-.56" width="2.12" y="-.01" height="1.02" id="m"><feGaussianBlur stdDeviation=".47"/></filter><linearGradient xlink:href="#e" id="n" gradientUnits="userSpaceOnUse" gradientTransform="matrix(.40627 -.04751 .04044 .31693 11.44 13.7)" x1=".12" y1="101" x2="43.93" y2="92.5"/><radialGradient id="e" cx="23.78" cy="100" r="25.2" gradientUnits="userSpaceOnUse"><stop offset="0" stop-color="#287f00"/><stop offset=".5" stop-color="#3cf000"/><stop offset="1" stop-color="#003a00"/></radialGradient><radialGradient xlink:href="#f" id="o" gradientUnits="userSpaceOnUse" gradientTransform="matrix(.68623 -.27888 .26073 .68336 -.07 33.86)" cx="22.5" cy="91.36" fx="19.84" fy="86.02" r="14"/><radialGradient gradientUnits="userSpaceOnUse" fy="88.67" fx="17.12" r="14" cy="94" cx="19.78" id="f"><stop offset="0" stop-color="#fff"/><stop offset=".5" stop-color="#fff" stop-opacity=".71"/><stop offset="1" stop-color="#fff" stop-opacity="0"/></radialGradient><filter id="p"><feGaussianBlur stdDeviation=".61"/></filter><radialGradient xlink:href="#g" id="q" gradientUnits="userSpaceOnUse" gradientTransform="matrix(1 -.02649 .01396 .52712 18.17 52.58)" cx="27.13" cy="113.89" fx="27.13" fy="113.89" r="11.99"/><filter x="-.07" width="1.15" y="-.14" height="1.28" id="r"><feGaussianBlur stdDeviation=".73"/></filter><linearGradient xlink:href="#c" id="s" gradientUnits="userSpaceOnUse" gradientTransform="matrix(.39667 0 0 .40441 19.92 3.28)" x1="54.1" y1="32.58" x2="32.58" y2="31.3"/><radialGradient xlink:href="#h" id="t" gradientUnits="userSpaceOnUse" gradientTransform="translate(51.01 20.88) scale(.62435)" cx="54.21" cy="18.09" r="26.42"/><radialGradient gradientUnits="userSpaceOnUse" id="h" r="26.42" cy="18.09" cx="54.21"><stop offset=".33" stop-color="#f0ff80"/><stop offset=".67" stop-color="#0f0" stop-opacity="0"/></radialGradient><filter id="u"><feGaussianBlur stdDeviation=".37"/></filter></defs><path d="M6.27 2.42a3.54 3.54 0 0 0-3.55 3.55v48.05a3.54 3.54 0 0 0 3.55 3.55h47.46a3.54 3.54 0 0 0 3.55-3.55V5.97a3.54 3.54 0 0 0-3.55-3.55zm.05 3.9h5.92v6.76H6.32zm41.44 0h5.92v6.76h-5.92zM6.32 16.46h5.92v6.77H6.32zm41.44 0h5.92v6.77h-5.92zM6.32 26.61h5.92v6.77H6.32zm41.44 0h5.92v6.77h-5.92zM6.32 36.75h5.92v6.77H6.32zm41.44 0h5.92v6.77h-5.92zM6.32 46.92h5.92v6.77H6.32zm41.44 0h5.92v6.77h-5.92z" fill="url(#i)"/><path d="M6 3.2a2.55 2.55 0 0 0-2.56 2.55v48.5a2.55 2.55 0 0 0 2.57 2.56h48a2.55 2.55 0 0 0 2.56-2.56V5.75A2.55 2.55 0 0 0 54 3.2zm.32 3.12h5.92v6.76H6.32zm41.44 0h5.92v6.76h-5.92zM6.32 16.46h5.92v6.77H6.32zm41.44 0h5.92v6.77h-5.92zM6.32 26.61h5.92v6.77H6.32zm41.44 0h5.92v6.77h-5.92zM6.32 36.75h5.92v6.77H6.32zm41.44 0h5.92v6.77h-5.92zM6.32 46.92h5.92v6.77H6.32zm41.44 0h5.92v6.77h-5.92z" fill="url(#j)"/><g stroke-width="1.09"><path d="M32.02 6.17H35V43.8l-2.98-1.99z" transform="translate(3.36 3.3) scale(.88598)" fill="url(#k)"/><path d="M43.12 3v90.66l2 .5V3z" transform="matrix(.5217 0 0 -.343 9.56 41.43)" opacity=".7" fill="url(#l)" filter="url(#m)"/><path d="M16.01 47.64c1.46 3.02 6.8 4.1 11.95 2.4 5.14-1.7 8.13-5.52 6.67-8.55-1.46-3.02-6.8-4.09-11.95-2.39-5.14 1.7-8.13 5.52-6.67 8.54z" transform="translate(3.36 3.3) scale(.88598)" fill="url(#n)"/><path d="M34.45 87.55c-7.63 4.16-12.1 10.31-9.57 13.16 1.1 1.24 3.23 1.54 4.82 1.57 4.13.08 9.45-1.43 14.24-4.04 7.63-4.17 12.1-10.32 9.56-13.16-1.1-1.24-3.23-1.54-4.82-1.57-4.12-.08-9.44 1.43-14.23 4.04z" transform="matrix(.396 -.04632 .04055 .3178 3.92 13.42)" opacity=".8" fill="url(#o)" filter="url(#p)"/><path d="M46.87 109c-7.17 1.88-12.58.6-11.92 3.13.27 1.05 1.3 1.84 2.12 2.31 2.24 1.31 6.43 2.24 11.47.92 7.17-1.88 10.92-6.96 10.26-9.5-.27-1.04-1.3-1.82-2.12-2.3-2.24-1.31-4.77 4.12-9.8 5.44z" transform="matrix(.40621 .01758 -.05309 .40694 13.07 -1.07)" opacity=".6" fill="url(#q)" filter="url(#r)"/><path d="M38.81 12.94c-2.01-2.4-3.03-5.33-3.78-6.77L35 15.81c13.62 5.72 4.82 20.93 4.82 20.93 10.07-10.35.84-21.6-1-23.8z" transform="translate(3.36 3.3) scale(.88598)" fill="url(#s)"/><path transform="matrix(.5217 0 0 .52075 -4.24 -3.73)" d="M79.26 35.83c-3.12-3.83-3.78-6.4-4.52-7.48 0 11.96 3.9 11.82.32 11.13C81.4 42.74 86.28 47.23 88.14 52c-2.09-7.85-6.25-12.94-8.88-16.17z" fill="url(#t)" filter="url(#u)"/></g></svg>