<svg xmlns="http://www.w3.org/2000/svg" width="64" height="64"><defs><radialGradient id="a" cx="12.01" cy="13.2" r="20" gradientTransform="matrix(0 2.36188 -3.40694 0 60.79 -11.43)" gradientUnits="userSpaceOnUse"><stop offset="0" stop-color="#4d4d4d"/><stop offset=".26" stop-color="#333"/><stop offset=".7"/><stop offset="1"/></radialGradient><linearGradient id="b" x1="24" x2="24" y1="44" y2="3.9" gradientTransform="translate(-1.74 -1.74) scale(1.4058)" gradientUnits="userSpaceOnUse"><stop offset="0"/><stop offset="1" stop-color="#333"/></linearGradient></defs><rect x="4.59" y="4.59" width="54.83" height="54.83" rx="2.23" ry="2.23" fill="url(#a)" stroke="url(#b)" stroke-width=".5" stroke-linecap="round" stroke-linejoin="round"/><path d="M21.436 14.58a1.116 1.116 0 00-.91.514c-1.14 1.704-2.33 3.992-3.475 6.08l-1.303-2.606a1.117 1.117 0 00-1.996 1.002l2.23 4.467a1.116 1.116 0 001.973.06c1.45-2.513 3.097-5.767 4.428-7.76a1.116 1.116 0 00-.947-1.757zm3.365 4.486a2.236 2.236 0 100 4.473h24.59a2.236 2.236 0 100-4.473zm-7.822 10.059a2.236 2.236 0 00-2.237 2.236 2.236 2.236 0 002.237 2.237 2.236 2.236 0 002.236-2.237 2.236 2.236 0 00-2.236-2.236zm7.822 0a2.236 2.236 0 100 4.473h24.59a2.236 2.236 0 100-4.473zm-7.822 10.064a2.236 2.236 0 00-2.237 2.231 2.236 2.236 0 002.237 2.236 2.236 2.236 0 002.236-2.236 2.236 2.236 0 00-2.236-2.23zm7.822 0a2.233 2.233 0 100 4.467h24.59a2.233 2.233 0 100-4.467z" opacity=".5"/><path d="M20.932 16.076a1.116 1.116 0 00-.91.514c-1.14 1.704-2.33 3.993-3.475 6.08l-1.303-2.606a1.117 1.117 0 00-1.996 1.002l2.23 4.467a1.116 1.116 0 001.973.06c1.45-2.513 3.097-5.767 4.428-7.759a1.116 1.116 0 00-.947-1.758zm3.365 4.486a2.236 2.236 0 100 4.473h24.59a2.236 2.236 0 100-4.473h-24.59zm-7.822 10.06a2.236 2.236 0 00-2.237 2.235 2.236 2.236 0 002.237 2.237 2.236 2.236 0 002.236-2.237 2.236 2.236 0 00-2.236-2.236zm7.822 0a2.236 2.236 0 100 4.472h24.59a2.236 2.236 0 100-4.473h-24.59zm-7.822 10.064a2.236 2.236 0 00-2.237 2.23 2.236 2.236 0 002.237 2.236 2.236 2.236 0 002.236-2.236 2.236 2.236 0 00-2.236-2.23zm7.822 0a2.233 2.233 0 100 4.466h24.59a2.233 2.233 0 100-4.466h-24.59z" fill="#fff"/></svg>