<svg xmlns="http://www.w3.org/2000/svg" xmlns:xlink="http://www.w3.org/1999/xlink" width="64" height="64" version="1"><defs><linearGradient id="a"><stop offset="0" stop-color="#666"/><stop offset=".88"/><stop offset="1" stop-opacity="0"/></linearGradient><linearGradient id="d"><stop offset="0" stop-color="#383838"/><stop offset="1" stop-color="#fff"/></linearGradient><linearGradient id="b"><stop offset="0" stop-color="#fff"/><stop offset="1" stop-color="#aeaeae"/></linearGradient><radialGradient xlink:href="#a" id="e" gradientUnits="userSpaceOnUse" gradientTransform="matrix(.77386 0 0 .78721 -13.96 54.1)" cx="59.39" cy="52.05" fx="59.39" fy="52.05" r="43.23"/><linearGradient xlink:href="#b" id="f" gradientUnits="userSpaceOnUse" x1="-5.32" y1="-4.61" x2="27.03" y2="28.91" gradientTransform="matrix(.8925 0 0 .88123 23.81 87.3)"/><radialGradient xlink:href="#c" id="g" gradientUnits="userSpaceOnUse" gradientTransform="matrix(1.17575 0 0 1.15048 -11.08 -7.7)" cx="64.24" cy="57.94" fx="64.24" fy="57.94" r="8.04"/><linearGradient id="c"><stop offset="0" stop-color="#fff"/><stop offset="1" stop-color="#fff" stop-opacity="0"/></linearGradient><linearGradient xlink:href="#c" id="h" gradientUnits="userSpaceOnUse" x1="67.32" y1="59.08" x2="66.75" y2="44.79"/><radialGradient xlink:href="#d" id="i" gradientUnits="userSpaceOnUse" gradientTransform="matrix(0 3.02698 -3.55366 0 216.54 -130.5)" cx="57.87" cy="43.19" fx="57.87" fy="43.19" r="13.08"/></defs><g transform="translate(0 -64)"><path d="M182.73-69.98v-2.8zM210.38-113.17v-2.8z" fill="#fff" fill-opacity=".76"/><ellipse ry="29.22" rx="28.71" cy="96" cx="32" fill="url(#e)"/><path d="M32.2 68.03c-6.85 0-13.1 2.51-17.99 6.68C17.91 76.68 24.34 78 31.7 78c7.76 0 14.52-1.46 18.09-3.62a27.6 27.6 0 0 0-17.6-6.34z" stroke="#000" stroke-width="1.8" stroke-linecap="round" stroke-linejoin="round" stroke-dashoffset="4"/><path d="M32.2 124.3c-6.85 0-13.1-2.51-17.99-6.68 3.7-1.97 10.13-3.28 17.49-3.28 7.76 0 14.52 1.46 18.09 3.62a27.61 27.61 0 0 1-17.6 6.35z"/><path d="M32 66.82v58.16" fill="none" stroke="#848484" stroke-width=".58"/><ellipse cx="32" cy="95.69" rx="14.6" ry="14.41" stroke="url(#f)" stroke-width="2.66" stroke-linecap="round" stroke-linejoin="round" stroke-dashoffset="4"/><g transform="matrix(.72152 0 0 .71241 -13.91 58.41)"><circle transform="matrix(1.29825 0 0 1.29825 -19.65 -15.33)" cx="64.45" cy="52.83" r="8.04" opacity=".5" fill="url(#g)"/><circle transform="matrix(.98246 0 0 -.78947 .7 90.3)" cx="64.45" cy="52.83" r="8.04" fill="url(#h)"/><circle transform="matrix(1.1925 0 0 1.1925 -14.85 -9.58)" cx="66.14" cy="51.98" r="11.71" fill="none" stroke="url(#i)" stroke-width="2.76" stroke-linecap="round" stroke-linejoin="round" stroke-dashoffset="4"/></g></g></svg>