<svg xmlns="http://www.w3.org/2000/svg" xmlns:xlink="http://www.w3.org/1999/xlink" width="64" height="64" viewBox="0 0 16.93 16.93"><defs><linearGradient id="d"><stop offset="0" stop-color="#4d4d4d"/><stop offset="1"/></linearGradient><linearGradient id="c"><stop offset="0" stop-color="#b3b3b3"/><stop offset="1" stop-color="#fff"/></linearGradient><linearGradient id="a"><stop offset="0" stop-color="#1064d3"/><stop offset="1" stop-color="#14c6fd"/></linearGradient><linearGradient id="b"><stop offset="0"/><stop offset="1" stop-opacity="0"/></linearGradient><radialGradient xlink:href="#d" id="f" cx="5.83" cy="5.44" fx="5.83" fy="5.44" r="5.75" gradientUnits="userSpaceOnUse" gradientTransform="matrix(1.32184 0 0 1.32184 -2.72 -2.72)"/><linearGradient gradientTransform="matrix(1.53761 0 0 1.53761 -1.29 -1.3)" xlink:href="#e" id="g" x1="2.91" y1="3.73" x2="2.9" y2="9" gradientUnits="userSpaceOnUse"/><linearGradient id="e"><stop offset="0" stop-color="#00f"/><stop offset="1" stop-color="#0ff"/></linearGradient></defs><rect ry=".92" rx=".92" y=".86" x=".86" height="15.21" width="15.21" fill="url(#f)"/><path d="M3.18 4.44s1.24-.05 2.25-.05c1.41 0 3.04.42 3.04 2.86 0 2.43-1.63 2.85-3.04 2.83l-.62.02v2.44H3.17zm1.63 4.41h.59c.88 0 1.44-.77 1.44-1.61 0-.77-.46-1.6-1.32-1.63h-.7zM9.3 10.5c.35.21 1.01.81 1.58.81.57 0 1.06-.3 1.06-.61s-.2-.71-.92-.94C9.77 9.3 9.27 8.8 9.3 8.06c0-1.16.97-2.04 2.49-2.04.7 0 1.2.22 1.58.42v1.23a3.9 3.9 0 0 0-1.53-.42c-.46 0-.93.3-.93.62 0 .41.47.46 1.2.72 1.16.4 1.65 1 1.66 1.92 0 1.15-.89 2.08-2.64 2.02-.62 0-1.37-.16-1.85-.4V10.5z" fill="url(#g)"/></svg>