<svg xmlns="http://www.w3.org/2000/svg" xmlns:xlink="http://www.w3.org/1999/xlink" width="64" height="64" version="1"><defs><linearGradient gradientTransform="matrix(2.07143 0 0 2.07143 -17.71 -17.71)" xlink:href="#a" id="d" x1="12.98" y1="23.85" x2="29.98" y2="23.85" gradientUnits="userSpaceOnUse"/><linearGradient y2="34.86" x2="16.78" y1="3.86" x1="16.78" gradientUnits="userSpaceOnUse" id="a"><stop offset="0" stop-color="#fd318e"/><stop offset="1" stop-color="#8056f7"/></linearGradient><radialGradient gradientTransform="matrix(2.07143 0 0 2.07143 -17.71 -17.71)" xlink:href="#b" id="c" cx="18.12" cy="18.12" fx="18.12" fy="18.12" r="14" gradientUnits="userSpaceOnUse"/><linearGradient id="b"><stop offset="0" stop-color="#4d4d4d"/><stop offset="1"/></linearGradient></defs><path d="M58.93 61H5.07A2.07 2.07 0 0 1 3 58.93V5.07C3 3.93 3.93 3 5.07 3h53.86C60.07 3 61 3.93 61 5.07v53.86c0 1.14-.93 2.07-2.07 2.07z" fill="url(#c)"/><path d="M36.16 12.41c-2.56 0-4.55.58-5.98 1.73-1.4 1.14-2.11 2.75-2.11 4.84 0 1.67.46 2.94 1.38 3.82.92.88 2.46 1.52 4.63 1.93l3 .59c1.46.27 2.5.65 3.1 1.12.61.46.91 1.13.91 1.99 0 .9-.39 1.6-1.17 2.11-.76.5-1.81.76-3.14.76-1.49 0-2.64-.3-3.46-.9a3.38 3.38 0 0 1-1.35-2.64h-4.28c.13 2.28.95 4.03 2.46 5.25 1.53 1.2 3.66 1.81 6.4 1.81 2.75 0 4.9-.6 6.45-1.81a6.17 6.17 0 0 0 2.32-5.1c0-1.69-.45-3-1.35-3.91-.9-.94-2.34-1.6-4.32-2l-3.34-.64a10.04 10.04 0 0 1-3.2-1.03c-.56-.39-.85-.97-.85-1.76 0-.8.33-1.43 1-1.9a4.46 4.46 0 0 1 2.7-.74c2.83 0 4.33 1.12 4.49 3.35h4.1c0-1.12-.2-2.1-.58-2.94a5.2 5.2 0 0 0-1.41-1.99 6.63 6.63 0 0 0-2.02-1.17 9.58 9.58 0 0 0-2.24-.62c-.68-.1-1.4-.15-2.14-.15zm-27.18.36v21.38h4.4v-7.63h5.49c1.95 0 3.52-.64 4.69-1.93 1.17-1.3 1.76-3.02 1.76-5.2 0-2.15-.6-3.79-1.8-4.92-1.16-1.14-2.86-1.7-5.1-1.7H8.99zm4.4 3.66h4.1c1.18 0 2.04.27 2.59.8.57.52.85 1.33.85 2.43 0 2.13-1.15 3.2-3.43 3.2h-4.1v-6.43zm-2.1 30.07v4.14h18.65V46.5H11.29z" fill="url(#d)"/></svg>