<svg xmlns="http://www.w3.org/2000/svg" xmlns:xlink="http://www.w3.org/1999/xlink" width="64" height="64" version="1"><defs><linearGradient id="b"><stop offset="0" stop-color="#00f"/><stop offset="1" stop-color="#0ff"/></linearGradient><linearGradient id="a"><stop offset="0" stop-color="#4d4d4d"/><stop offset="1"/></linearGradient><radialGradient xlink:href="#a" id="c" cx="16" cy="19.25" fx="16" fy="19.25" r="28" gradientUnits="userSpaceOnUse" gradientTransform="matrix(.88378 .33898 -.35812 .93367 8.75 -4.15)"/><linearGradient xlink:href="#b" id="d" x1="51.04" y1="10.54" x2="50.96" y2="52.87" gradientUnits="userSpaceOnUse"/></defs><path d="M32 4C16.49 4 4 16.49 4 32s12.49 28 28 28 28-12.49 28-28S47.51 4 32 4z" fill="url(#c)"/><path d="M32 11.09a4.71 4.71 0 0 0-4.71 4.71 4.65 4.65 0 0 0 2.94 4.29v1.6h-7.07a.6.6 0 0 0-.58.6v1.76c0 .33.25.59.58.59h7.07v21.8c0 .6-1 .6-1.58.67-.84 0-1.35-.22-2.15-.44a27.37 27.37 0 0 1-5.21-2.15c-.7-.4-1.39-.77-2.01-1.27-.27-.23-.58-.56-.55-.94.03-.29.18-.6.5-.65.28-.04.54.11.79.2.21.1.36-.16.33-.34a3 3 0 0 0-.44-1.33 6.67 6.67 0 0 0-2.12-2 7.16 7.16 0 0 1-2.36-2.07c-.1-.16-.23-.43-.48-.35-.34.11-.53.45-.7.74a11 11 0 0 0-1.06 5.26c.06.8.12 1.61.44 2.36.2.5.56.89.92 1.27l.7-.74c.3-.3.68-.5 1.12-.44.6.08 1.15.45 1.62.8.67.51 1.3 1.06 1.97 1.56a19.4 19.4 0 0 0 3.48 2c1.02.48 2.06.95 3.11 1.33.19.08.4.08.59.15 1.9.79 3.5 1.7 4.8 3.35v.09l.06-.06.06.06v-.15c1.3-1.62 2.92-2.5 4.8-3.3.2-.06.4-.06.59-.14 1.05-.38 2.1-.85 3.1-1.32a19.4 19.4 0 0 0 3.49-2.01c.68-.5 1.3-1.05 1.97-1.57a3.66 3.66 0 0 1 1.62-.79c.44-.06.82.14 1.12.44l.7.74c.36-.38.72-.78.92-1.27.32-.75.38-1.56.44-2.36a11 11 0 0 0-1.07-5.26c-.16-.29-.35-.63-.7-.74-.24-.08-.36.19-.47.35-.56.9-1.49 1.5-2.36 2.06a6.67 6.67 0 0 0-2.12 2.01 3 3 0 0 0-.44 1.33c-.03.18.12.44.33.35.25-.1.51-.25.8-.2.31.05.46.35.5.64.02.38-.3.7-.56.94-.62.5-1.3.88-2 1.27-1.67.88-3.4 1.62-5.22 2.15-.8.22-1.31.44-2.15.44-.72.13-1.58-.26-1.58-.68v-21.8h7.07a.6.6 0 0 0 .58-.58v-1.77a.59.59 0 0 0-.58-.59h-7.07v-1.6a4.65 4.65 0 0 0 2.94-4.29c0-2.6-2.1-4.71-4.71-4.71zm-.1 2.3a2.28 2.28 0 1 1 0 4.57 2.33 2.33 0 0 1-2.31-2.3 2.3 2.3 0 0 1 2.32-2.27z" style="marker:none" color="#000" overflow="visible" opacity=".4" fill="#fff"/><path d="M32 10.5a4.71 4.71 0 0 0-4.71 4.71 4.65 4.65 0 0 0 2.94 4.3v1.6h-7.07a.6.6 0 0 0-.58.58v1.77c0 .33.25.59.58.59h7.07v21.8c0 .6-1 .61-1.58.67-.84 0-1.35-.22-2.15-.44a27.37 27.37 0 0 1-5.21-2.15c-.7-.39-1.39-.77-2.01-1.27-.27-.23-.58-.56-.55-.94.03-.29.18-.6.5-.65.28-.04.54.11.79.2.21.1.36-.16.33-.34a3 3 0 0 0-.44-1.33 6.67 6.67 0 0 0-2.12-2 7.16 7.16 0 0 1-2.36-2.07c-.1-.16-.23-.43-.48-.35-.34.12-.53.45-.7.74a11 11 0 0 0-1.06 5.27c.06.8.12 1.6.44 2.35.2.5.56.89.92 1.27l.7-.73c.3-.3.68-.5 1.12-.45.6.08 1.15.45 1.62.8.67.51 1.3 1.06 1.97 1.56a19.4 19.4 0 0 0 3.48 2c1.02.48 2.06.95 3.11 1.33.19.08.4.08.59.15 1.9.79 3.5 1.7 4.8 3.35v.1l.06-.06.06.05v-.15c1.3-1.62 2.92-2.5 4.8-3.3.2-.06.4-.06.59-.14 1.05-.38 2.1-.85 3.1-1.32a19.4 19.4 0 0 0 3.49-2.01c.68-.5 1.3-1.05 1.97-1.56a3.66 3.66 0 0 1 1.62-.8c.44-.06.82.14 1.12.45l.7.73c.36-.38.72-.78.92-1.27.32-.75.38-1.56.44-2.35a11 11 0 0 0-1.07-5.26c-.16-.3-.35-.63-.7-.75-.24-.08-.36.19-.47.35-.56.9-1.49 1.5-2.36 2.07a6.67 6.67 0 0 0-2.12 2 3 3 0 0 0-.44 1.33c-.03.18.12.44.33.35.25-.1.51-.25.8-.2.31.05.46.35.5.64.02.38-.3.7-.56.94-.62.5-1.3.88-2 1.27-1.67.89-3.4 1.62-5.22 2.15-.8.22-1.31.44-2.15.44-.72.13-1.58-.26-1.58-.68v-21.8h7.07a.6.6 0 0 0 .58-.58v-1.77a.59.59 0 0 0-.58-.59h-7.07v-1.6a4.65 4.65 0 0 0 2.94-4.29c0-2.6-2.1-4.71-4.71-4.71zm-.1 2.3a2.28 2.28 0 1 1 0 4.57 2.33 2.33 0 0 1-2.31-2.3 2.3 2.3 0 0 1 2.32-2.27z" style="marker:none" color="#000" overflow="visible" fill="url(#d)"/></svg>