<svg xmlns="http://www.w3.org/2000/svg" width="64" height="64"><defs><radialGradient id="a" cx="12.01" cy="13.2" r="20" gradientTransform="matrix(0 2.36188 -3.40694 0 60.79 -11.43)" gradientUnits="userSpaceOnUse"><stop offset="0" stop-color="#4d4d4d"/><stop offset=".26" stop-color="#333"/><stop offset=".7"/><stop offset="1"/></radialGradient><linearGradient id="b" x1="24" x2="24" y1="44" y2="3.9" gradientTransform="translate(-1.74 -1.74) scale(1.4058)" gradientUnits="userSpaceOnUse"><stop offset="0"/><stop offset="1" stop-color="#333"/></linearGradient></defs><rect x="4.59" y="4.59" width="54.83" height="54.83" rx="2.23" ry="2.23" fill="url(#a)" stroke="url(#b)" stroke-width=".5" stroke-linecap="round" stroke-linejoin="round"/><path d="M24.64 16.44a1.84 1.84 0 1 0 0 3.68 1.84 1.84 0 0 0 0-3.68zm12.88 0l-3.68 3.68 7.36 7.36-7.36 7.36 3.68 3.68 7.36-7.36 3.68-3.68-3.68-3.68zm-18.4 11.04a3.68 3.68 0 1 0 0 7.36 3.68 3.68 0 0 0 0-7.36zm9.2 11.04a5.52 5.52 0 1 0 0 11.04 5.52 5.52 0 0 0 0-11.04z" opacity=".24" fill="#fff"/><path d="M24.64 14.44a1.84 1.84 0 1 0 0 3.68 1.84 1.84 0 0 0 0-3.68zm12.88 0l-3.68 3.68 7.36 7.36-7.36 7.36 3.68 3.68 7.36-7.36 3.68-3.68-3.68-3.68zm-18.4 11.04a3.68 3.68 0 1 0 0 7.36 3.68 3.68 0 0 0 0-7.36zm9.2 11.04a5.52 5.52 0 1 0 0 11.04 5.52 5.52 0 0 0 0-11.04z" fill="#fff"/></svg>