<svg xmlns="http://www.w3.org/2000/svg" xmlns:xlink="http://www.w3.org/1999/xlink" width="64" height="64" viewBox="0 0 16.93 16.93"><defs><linearGradient id="e"><stop offset="0" stop-color="#d40000"/><stop offset="1" stop-color="#f55"/></linearGradient><linearGradient id="d"><stop offset="0" stop-color="#4d4d4d"/><stop offset="1"/></linearGradient><linearGradient id="c"><stop offset="0" stop-color="#b3b3b3"/><stop offset="1" stop-color="#fff"/></linearGradient><linearGradient id="a"><stop offset="0" stop-color="#1064d3"/><stop offset="1" stop-color="#14c6fd"/></linearGradient><linearGradient id="b"><stop offset="0"/><stop offset="1" stop-opacity="0"/></linearGradient><radialGradient xlink:href="#d" id="f" cx="5.83" cy="5.44" fx="5.83" fy="5.44" r="5.75" gradientUnits="userSpaceOnUse" gradientTransform="matrix(1.32184 0 0 1.32184 -2.72 -2.72)"/><linearGradient xlink:href="#e" id="g" x1="3.74" y1="12.98" x2="3.77" y2="4.01" gradientUnits="userSpaceOnUse"/></defs><rect ry=".92" rx=".92" y=".86" x=".86" height="15.21" width="15.21" fill="url(#f)"/><path d="M4.74 3.97c-.57 0-1.03.52-1.03 1.15 0 4.65.77 7.87 4.76 7.84 3.98-.01 4.76-3.19 4.76-7.84 0-.65-.47-1.15-1.03-1.15zm1.53 2.57h.01c.15 0 .32.07.45.2l1.74 1.9 1.73-1.89c.13-.13.3-.2.45-.2.17 0 .34.07.47.2.25.28.25.72 0 1L8.97 10.1a.6.6 0 0 1-.5.2.6.6 0 0 1-.5-.2L5.81 7.75a.75.75 0 0 1 0-1c.13-.13.3-.2.45-.2z" fill="url(#g)"/></svg>