<?xml version="1.0" encoding="UTF-8" standalone="no"?><svg xmlns:dc="http://purl.org/dc/elements/1.1/" xmlns:cc="http://creativecommons.org/ns#" xmlns:rdf="http://www.w3.org/1999/02/22-rdf-syntax-ns#" xmlns="http://www.w3.org/2000/svg" xmlns:xlink="http://www.w3.org/1999/xlink" width="64pt" height="64pt" viewBox="0 0 64 64"><metadata><rdf:RDF><cc:Work><dc:format>image/svg+xml</dc:format><dc:type rdf:resource="http://purl.org/dc/dcmitype/StillImage"/><dc:title/></cc:Work></rdf:RDF></metadata><defs><filter id="a" width="1" height="1" x="0" y="0" filterUnits="objectBoundingBox"><feColorMatrix in="SourceGraphic" values="0 0 0 0 1 0 0 0 0 1 0 0 0 0 1 0 0 0 1 0"/></filter><clipPath id="b"><path d="M0 0h384v384H0z"/></clipPath><g id="h" clip-path="url(#b)"><path d="M54.25 315.99v34.37c0 4.39 2.79 8.09 6.7 9.47.25.1.5.17.74.23l.15.04a9.8 9.8 0 0 0 1.04.2 9.55 9.55 0 0 0 1.45.12h255.34a10.06 10.06 0 0 0 10.08-10.06v-6.87c0 5.57-4.5 10.06-10.08 10.06H64.32a10.1 10.1 0 0 1-3.38-.6v-13.74c1.06.38 2.2.59 3.38.59h255.36c5.58 0 10.07-4.49 10.07-10.06v-13.75c0 5.57-4.5 10.06-10.07 10.06H64.32A10.05 10.05 0 0 1 54.25 316zm10 16.93h6.25H64.26zm0 0"/></g><clipPath id="c"><path d="M0 0h384v384H0z"/></clipPath><mask id="g"><path fill-opacity=".3" d="M0 0h384v384H0z" filter="url(#d)"/></mask><filter id="d" width="1" height="1" x="0" y="0" filterUnits="objectBoundingBox"><feColorMatrix in="SourceGraphic" values="0 0 0 0 1 0 0 0 0 1 0 0 0 0 1 0 0 0 1 0"/></filter><linearGradient xlink:href="#e" id="f" x1="54.25" y1="178.25" x2="329.75" y2="178.25" gradientUnits="userSpaceOnUse" gradientTransform="matrix(.1751 0 0 -.1751 -1.56 65.62)"/><linearGradient id="e"><stop offset="0" stop-color="#4d4d4d"/><stop offset="1"/></linearGradient></defs><g transform="matrix(1 0 0 -1 0 64)"><path d="M9.7 56.68h44.72c.98 0 1.77-.8 1.77-1.76V4.27c0-.97-.8-1.76-1.77-1.76H9.71c-.98 0-1.77.79-1.77 1.76v50.65c0 .97.8 1.76 1.77 1.76zm0 0"/><path d="M9.7 61.5h44.71c.98 0 1.77-.8 1.77-1.77V9.09c0-.98-.8-1.77-1.77-1.77H9.71c-.98 0-1.77.8-1.77 1.77v50.64c0 .97.79 1.76 1.76 1.76zm0 0" fill="url(#f)"/><path d="M9.7 61.5c-.97 0-1.76-.8-1.76-1.77V4.27c0-.96.77-1.74 1.73-1.76h6.14V61.5zm0 0"/><path d="M56.18 9.09c0-.98-.78-1.77-1.76-1.77H9.71c-.21 0-.41.04-.6.1v-3.6c.19-.07.39-.1.6-.1h44.7c.99 0 1.77.78 1.77 1.75zm0 0" fill="#fff"/><use transform="matrix(.1751 0 0 -.1751 -1.56 65.62)" mask="url(#g)" xlink:href="#h" width="100%" height="100%" stroke-width="5.71"/></g><path d="M34.42 11.43c-.3 0-1.15.14-1.48.24-.85.28-1.3.93-1.66 1.76-1.04 2.39.38 6.45 1.84 9.59a96.17 96.17 0 0 1-5.54 15.53c-5.54 2.5-8.48 4.97-8.75 7.32-.1.85.11 2.1 1.63 3.24.42.3.9.46 1.42.46 1.28 0 2.57-.96 4.07-3.04a41.06 41.06 0 0 0 3.48-6.14 70.77 70.77 0 0 1 12.9-4.07c2.32 2.19 4.38 3.3 6.17 3.3a3.9 3.9 0 0 0 3.24-1.72c.85-1.17 1.04-2.22.57-3.12-.56-1.09-1.95-1.61-4.24-1.61-1.34 0-3 .17-4.91.51a46.03 46.03 0 0 1-7.44-10.91c.2-.87.4-1.74.58-2.61.23-1.19.44-2.38.54-3.59.1-1.24.1-2.53-.56-3.63-.35-.6-1.09-1.51-1.86-1.51zm-.52 2.6c.06-.02 1.53 1.6.14 4.65-2.09-2.11-.28-4.6-.14-4.65zm.88 12.22a49.22 49.22 0 0 0 5.6 8.01 72.76 72.76 0 0 0-9.5 2.92c1.48-3.5 2.86-7.35 3.9-10.93zm13.58 9.35c1.3 0 1.54.2 1.72.29a2.24 2.24 0 0 1-.34.6c-.45.62-1.43.64-1.77.64-.78 0-1.07-.47-2.26-1.37.98-.12 1.9-.16 2.65-.16zm-22.59 6.58c-2.37 4.32-3.64 4.89-3.86 4.96-.68-.52-.64-.87-.63-1 .09-.8 1.36-2.23 4.49-3.96z" fill="#d40000"/></svg>