<?xml version="1.0" encoding="UTF-8" standalone="no"?><!--Created with Inkscape (http://www.inkscape.org/)--><svg xmlns:dc="http://purl.org/dc/elements/1.1/" xmlns:cc="http://creativecommons.org/ns#" xmlns:rdf="http://www.w3.org/1999/02/22-rdf-syntax-ns#" xmlns="http://www.w3.org/2000/svg" xmlns:xlink="http://www.w3.org/1999/xlink" width="64" height="64" viewBox="0 0 60 60"><defs><linearGradient id="g"><stop stop-color="#4d4d4d" offset="0"/><stop offset="1" stop-color="#333"/></linearGradient><linearGradient id="b"><stop offset="0" stop-color="#87aade"/><stop offset="1" stop-color="#0055d4"/></linearGradient><linearGradient id="a"><stop offset="0" stop-color="#4d4d4d"/><stop offset="1"/></linearGradient><linearGradient id="c"><stop offset="0"/><stop offset="1" stop-color="#4d4d4d"/></linearGradient><linearGradient xlink:href="#c" id="p" gradientUnits="userSpaceOnUse" gradientTransform="matrix(.57217 0 0 .63 57.75 -7.8)" x1="-97.53" y1="73.96" x2="-96.5" y2="16"/><radialGradient xlink:href="#c" id="q" cx="62.58" cy="53.09" fx="62.66" fy="54.44" r="6.88" gradientTransform="matrix(2.48978 0 0 2.48978 -125.81 -101.45)" gradientUnits="userSpaceOnUse"/><linearGradient xlink:href="#d" id="r" x1="63.51" y1="40.19" x2="63.89" y2="49.76" gradientUnits="userSpaceOnUse" gradientTransform="matrix(1.7713 0 0 1.46831 -80.85 -48.61)"/><linearGradient id="d"><stop offset="0" stop-color="#ececec"/><stop offset="1" stop-color="#ececec" stop-opacity="0"/></linearGradient><radialGradient xlink:href="#e" id="s" cx="64.14" cy="63.65" fx="64.14" fy="63.65" r="16.2" gradientTransform="matrix(.77271 0 0 1.35689 14.58 -21.78)" gradientUnits="userSpaceOnUse"/><linearGradient id="e"><stop offset="0" stop-color="#ececec"/><stop offset="1" stop-color="#fff" stop-opacity="0"/></linearGradient><filter id="t"><feGaussianBlur stdDeviation=".55"/></filter><radialGradient xlink:href="#f" id="u" cx="64" cy="25.24" fx="64" fy="25.24" r="18.47" gradientTransform="matrix(1.025 0 0 .56407 -35.6 -1.87)" gradientUnits="userSpaceOnUse"/><linearGradient id="f"><stop offset="0" stop-color="#f5f6f4"/><stop offset="1" stop-color="#f5f6f4" stop-opacity="0"/></linearGradient><radialGradient xlink:href="#g" id="v" cx="62.58" cy="48.49" fx="62.58" fy="50.5" r="6.88" gradientTransform="translate(-70.52 -57.74) scale(1.60631)" gradientUnits="userSpaceOnUse"/><radialGradient xlink:href="#h" id="w" cx="64" cy="44" fx="64" fy="44" r="4.8" gradientUnits="userSpaceOnUse" gradientTransform="rotate(-45 123.2 228.4) scale(3.30393 .3465)"/><linearGradient id="h"><stop offset="0" stop-color="#fff"/><stop offset="1" stop-color="#fff" stop-opacity=".04"/></linearGradient><radialGradient xlink:href="#i" id="x" cx="64" cy="36.13" fx="64" fy="36.13" r="10.44" gradientTransform="matrix(1.10464 0 0 2.02469 -119.2 -34.83)" gradientUnits="userSpaceOnUse"/><linearGradient id="i"><stop offset="0" stop-color="#fff"/><stop offset="1" stop-color="#fff" stop-opacity="0"/></linearGradient><filter id="y"><feGaussianBlur stdDeviation=".41"/></filter><linearGradient xlink:href="#j" id="z" x1="58.72" y1="20" x2="64.03" y2="36.56" gradientUnits="userSpaceOnUse" gradientTransform="matrix(.60938 0 0 .60938 -9 -6.66)"/><linearGradient id="j"><stop offset="0" stop-color="#0057ae"/><stop offset="1" stop-color="#0075ea"/></linearGradient><linearGradient xlink:href="#k" id="A" x1="88.13" y1="36.88" x2="90.27" y2="44.88" gradientUnits="userSpaceOnUse" gradientTransform="matrix(.60938 0 0 .60938 -9 -6.66)"/><linearGradient id="k"><stop offset="0" stop-color="#bf3400"/><stop offset="1" stop-color="#ff0707"/></linearGradient><linearGradient xlink:href="#l" id="B" x1="66.87" y1="71.18" x2="66.87" y2="100" gradientUnits="userSpaceOnUse" gradientTransform="matrix(.4875 0 0 .73125 -1.2 -18.85)"/><linearGradient id="l"><stop offset="0" stop-color="#d8e8c2"/><stop offset="1" stop-color="#e4efd5"/></linearGradient><linearGradient xlink:href="#m" id="C" x1="73.65" y1="78.39" x2="74.09" y2="106.46" gradientUnits="userSpaceOnUse" gradientTransform="matrix(.54071 0 0 .60938 -4.6 -6.66)"/><linearGradient id="m"><stop offset="0"/><stop offset="1" stop-opacity="0"/></linearGradient><linearGradient xlink:href="#n" id="o" x1="6.71" y1="1.09" x2="6.71" y2="58.91" gradientUnits="userSpaceOnUse" gradientTransform="matrix(1.21114 0 0 .98627 -6.33 .41)"/><linearGradient id="n"><stop offset="0" stop-color="#666"/><stop offset="1" stop-color="gray"/></linearGradient></defs><metadata><rdf:RDF><cc:Work><dc:format>image/svg+xml</dc:format><dc:type rdf:resource="http://purl.org/dc/dcmitype/StillImage"/><dc:title/></cc:Work></rdf:RDF></metadata><rect width="56.42" height="57.03" x="1.79" y="1.48" rx="3.67" ry="3.67" fill="url(#o)"/><rect width="54.93" height="55.44" x="2.54" y="2.28" rx="2.65" ry="2.65" fill="url(#p)"/><ellipse cx="30" cy="22.59" rx="12.19" ry="12.19" fill="url(#q)"/><ellipse cx="30" cy="22.59" rx="12.19" ry="12.19" opacity=".61" fill="url(#r)"/><path d="M47.94 48.28c3.85 4.85 5.98 11.4 8.06 17.1 2.43 1.12 3.7 2.61 8 2.61 4.16 0 5.57-1.5 8-2.61 2.42-5.63 4.24-11.72 8.34-17.1a33.7 33.7 0 0 0-16.12-4.15c-6.21.01-12.36 1.89-16.28 4.15z" transform="matrix(.96444 0 0 .96444 -31.77 -30.82)" opacity=".41" fill="url(#s)" filter="url(#t)"/><path d="M30 10.91a11.91 11.91 0 0 0-11.73 13.15A12.77 12.77 0 0 1 30 16.18c5.25 0 9.77 3.25 11.73 7.88A11.91 11.91 0 0 0 30 10.91z" fill="url(#u)"/><ellipse cx="30" cy="20.15" rx="7.31" ry="7.31" fill="url(#v)"/><path d="M34.88 15.28l-5.85 4.38c.42.56.9 1.04 1.47 1.46z" fill="url(#w)"/><path d="M-48.5 33.31c-5.19 0-9.63 4.13-11.53 10 2.29-4.74 6.6-7.93 11.53-7.93s9.24 3.2 11.53 7.93c-1.9-5.87-6.34-10-11.53-10z" transform="matrix(.60938 0 0 .60938 59.55 -6.66)" fill="url(#x)" filter="url(#y)"/><path d="M30.91 5.53a15.85 15.85 0 0 0-14.18 22.9l.68-.41a13.72 13.72 0 0 1 24.36-12.45l2.95-1.97a15.85 15.85 0 0 0-13.8-8.07z" opacity=".61" fill="url(#z)"/><path d="M45.52 14.69l-3.1 2.05c.64 1.58 1 3.28 1.02 5L47 21.5c.02-2.35-.49-4.68-1.47-6.81z" opacity=".78" fill="url(#A)"/><path opacity=".34" fill="url(#B)" d="M10.5 39.65h39v14.63h-39z"/><path opacity=".2" fill="none" stroke="url(#C)" stroke-linecap="round" d="M10.8 39.96h38.39v14.02H10.8z"/><path opacity=".39" fill="#0f0" d="M12.94 41.48h4.88v.61h-4.88z"/><path opacity=".22" fill="#5f5" d="M12.94 42.7h4.88v.61h-4.88zM12.94 43.92h4.88v.61h-4.88zM12.94 45.14h4.88v.61h-4.88zM12.94 46.36h4.88v.61h-4.88zM12.94 47.57h4.88v.61h-4.88zM12.94 48.79h4.88v.61h-4.88z"/><path opacity=".39" fill="#0f0" d="M20.25 45.14h4.88v.61h-4.88z"/><path opacity=".22" fill="#5f5" d="M20.25 46.36h4.88v.61h-4.88zM20.25 47.57h4.88v.61h-4.88zM20.25 48.79h4.88v.61h-4.88z"/><path opacity=".39" fill="#0f0" d="M27.56 47.57h4.88v.61h-4.88z"/><path opacity=".22" fill="#5f5" d="M27.56 48.79h4.88v.61h-4.88z"/><path opacity=".39" fill="#0f0" d="M34.88 45.14h4.88v.61h-4.88z"/><path opacity=".22" fill="#5f5" d="M34.88 46.36h4.88v.61h-4.88zM34.88 47.57h4.88v.61h-4.88zM34.88 48.79h4.88v.61h-4.88z"/><path opacity=".39" fill="#0f0" d="M42.19 43.92h4.88v.61h-4.88z"/><path opacity=".22" fill="#5f5" d="M42.19 45.14h4.88v.61h-4.88zM42.19 46.36h4.88v.61h-4.88zM42.19 47.57h4.88v.61h-4.88zM42.19 48.79h4.88v.61h-4.88z"/><path opacity=".51" d="M12.33 51.23h35.34v1.83H12.33z"/><path opacity=".51" fill="#0f0" d="M12.94 52.45h14.02v-.61H12.94z"/><path opacity=".32" fill="#050" d="M27.56 46.36h4.88v.61h-4.88zM27.56 45.14h4.88v.61h-4.88zM27.56 43.92h4.88v.61h-4.88zM27.56 42.7h4.88v.61h-4.88zM27.56 41.48h4.88v.61h-4.88zM20.25 43.92h4.88v.61h-4.88zM20.25 42.7h4.88v.61h-4.88zM20.25 41.48h4.88v.61h-4.88zM34.88 43.92h4.88v.61h-4.88zM34.88 42.7h4.88v.61h-4.88zM34.88 41.48h4.88v.61h-4.88zM42.19 42.7h4.88v.61h-4.88zM42.19 41.48h4.88v.61h-4.88z"/></svg>