<svg xmlns="http://www.w3.org/2000/svg" xmlns:xlink="http://www.w3.org/1999/xlink" width="64" height="64"><defs><linearGradient id="b"><stop offset="0" stop-color="#666"/><stop offset="1" stop-color="#1a1a1a"/></linearGradient><linearGradient id="a"><stop offset="0"/><stop offset="1" stop-color="#333"/></linearGradient><linearGradient xlink:href="#a" id="c" x1="26.38" y1="1037.24" x2="26.38" y2="1044.74" gradientUnits="userSpaceOnUse" gradientTransform="translate(0 -.7)"/><linearGradient id="e" x1="12.94" x2="15.25" y1="8.44" y2="19.81" gradientTransform="matrix(1.2543 0 0 1.6421 1.89 992.37)" gradientUnits="userSpaceOnUse"><stop offset="0" stop-color="#fff" stop-opacity=".27"/><stop offset="1" stop-color="#fff" stop-opacity="0"/></linearGradient><radialGradient xlink:href="#b" id="d" cx="21.95" cy="1029.22" fx="21.95" fy="1029.22" r="26.34" gradientTransform="matrix(.00492 -1.04 1.58983 .00752 -1589.54 1039.43)" gradientUnits="userSpaceOnUse"/></defs><path fill="url(#c)" d="M26.38 1036.55h11.25v7.5H26.38z" transform="translate(0 -988.36)"/><path d="M2 5.75v43.13h60V5.74z"/><path fill="#1a1a1a" d="M20.75 54.38h22.5v1.88h-22.5z"/><path d="M5.65 997.3h52.68v36.48H5.65z" fill="url(#d)" fill-rule="evenodd" transform="translate(0 -988.36)"/><g fill="#0ff" fill-opacity=".8" color="#000"><path d="M39.61 8.96c-.38 4.84-1.82 9.46.1 12.7-1.22-3.48.96-8.02 2.12-12.7z"/><path d="M35.21 8.96c1.4 4.9 1.46 9.86 4.5 12.7-2.35-3.13-1.78-7.94-2.25-12.7z"/><path d="M30.15 8.96c3.6 4.8 5.27 10.35 9.56 12.7-3.54-2.72-4.53-7.95-6.87-12.7z"/><path d="M22.64 8.96c7.22 3.91 11.08 10.97 17.07 12.7-4.99-2.21-7.84-8.3-12.76-12.7z"/><path d="M13.59 9.3c-2.41-.05-5.04.37-7.95 1.38v2.19c15.93-4.58 24.73 8.09 34.07 8.78C31.64 20 25.13 9.53 13.59 9.3z"/><path d="M13.36 14.59c-2.49.06-5.08.6-7.72 1.82v2.62c13.14-5.8 25.22 3.75 34.07 2.62-7.6 0-16.37-7.29-26.35-7.06z"/><path d="M16.25 19.54c-3.72.1-7.35.99-10.61 3.38v3.18c10.76-8.53 25.83-1.57 34.07-4.45-6.24 1.29-15.08-2.34-23.46-2.1z"/><path d="M39.71 21.65c-8.7 3.85-27.45-2.49-34.07 10.47v6.14C10.6 21.03 31.7 26.7 39.7 21.66z"/><path d="M39.71 21.65c-8.1 6.22-33.39 2.19-29.04 23.82h1.84c-1.94-18.68 21.05-17.22 27.2-23.82z"/><path d="M39.71 21.65c-5.22 6.93-27.05 8.5-22.26 23.82h2.47c-2.6-13.71 16.43-16.93 19.79-23.82z"/><path d="M39.71 21.65c-2.46 7.03-19.67 12.48-15.42 23.82h3.07c-3-10.78 11.5-17.12 12.35-23.82z"/><path d="M39.71 21.65c0 6.73-12.63 14.67-8.26 23.82h3.45c-4.33-9.18 6.17-17.55 4.81-23.82z"/><path d="M39.71 21.65c2.2 6.28-6.61 15.98-.63 23.82h3.86c-7.05-7.99.18-18.07-3.23-23.82z"/><path d="M39.71 21.65c4.39 5.83-1.4 17.57 8.36 23.82h5.42C40.7 39.58 45.37 26.93 39.7 21.65z"/><path d="M39.71 21.65c6.62 5.08 4.34 18.94 18.62 22.05v-2.55c-11.6-4.13-11.86-15.8-18.62-19.5z"/><path d="M39.71 21.65c6.67 2.96 9.54 12.86 18.62 16.37V35.1c-8.23-3.68-12.22-11.6-18.62-13.45z"/><path d="M39.71 21.65c6.15 1.27 11.38 7.62 18.62 10.69v-2.5c-7.22-2.68-12.82-7.75-18.62-8.19z"/><path d="M40.88 21.56c-.39 0-.79.05-1.17.1 5.57 0 11.77 3.9 18.62 5.9v-2.07c-6.52-1.32-12.45-4.08-17.45-3.93z"/><path d="M44.46 20.93c-1.74.04-3.35.23-4.75.72 5.04-1.03 11.79 1.12 18.62 1.87v-1.87c-4.93-.05-9.8-.82-13.87-.72z"/><path d="M58.33 17.82c-7.02 1.46-14.53 1.25-18.62 3.83 4.52-2 11.77-1.23 18.62-1.87z"/><path d="M58.33 13.33c-6.65 3.49-15.22 4.67-18.62 8.32 3.94-3.02 11.93-3.62 18.62-5.92z"/><path d="M55.9 8.96c-5.18 5.28-14 8.2-16.19 12.7 3.24-4.31 12.91-6.53 18.62-11.27V8.96z"/><path d="M49.27 8.96c-3.62 4.8-9.05 8.67-9.56 12.7 1.49-4.26 8.4-7.94 12.67-12.7z"/><path d="M44.08 8.96c-2 4.76-5.16 9.08-4.37 12.7 0-3.85 4.11-8.07 6.84-12.7z"/></g><path d="M5.65 997.3h52.68v13.13l-52.68 11.5z" fill="url(#e)" transform="translate(0 -988.36)"/></svg>