<svg xmlns="http://www.w3.org/2000/svg" xmlns:xlink="http://www.w3.org/1999/xlink" width="64" height="64"><defs><linearGradient id="e"><stop offset="0" stop-color="#2a7fff"/><stop offset="1" stop-color="#003380"/></linearGradient><linearGradient id="d"><stop offset="0" stop-color="#333"/><stop offset="1"/></linearGradient><linearGradient id="a"><stop offset="0"/><stop offset="1" stop-color="#333"/></linearGradient><linearGradient id="b"><stop offset="0" stop-color="#d40000"/><stop offset="1" stop-color="#ff2a2a"/></linearGradient><linearGradient id="c"><stop offset="0" stop-color="#4d4d4d"/><stop offset="1"/></linearGradient><radialGradient xlink:href="#d" id="f" cx="32" cy="38.45" fx="32" fy="38.45" r="30.21" gradientTransform="matrix(1 0 0 .85758 0 4.56)" gradientUnits="userSpaceOnUse"/><radialGradient xlink:href="#e" id="g" cx="14.36" cy="33.22" fx="14.36" fy="33.22" r="12" gradientUnits="userSpaceOnUse"/></defs><path d="M52.34 6.1L45.3 17.77H7.86a6.05 6.05 0 0 0-6.07 6.07v28c0 3.36 2.7 6.06 6.07 6.06h48.28c3.36 0 6.07-2.7 6.07-6.06v-28a6.05 6.05 0 0 0-6.07-6.07h-3.8z" fill="url(#f)" stroke="#333" stroke-width=".5"/><path d="M18.97 26.06c-6.65 0-12 5.35-12 12s5.35 12 12 12 12-5.35 12-12-5.35-12-12-12z" fill="url(#g)"/><path d="M20.77 30.44c-1.42-.08-2.15 2.2-.81 2.82 1.09.45 2.27-.67 2-1.78a1.21 1.21 0 0 0-1.2-1.04zm-.61 5c-.23 0-.49.07-.78.29-1.38.6-2.54 1.59-3.75 2.47.15.41.32.74.69.29.45-.27 1.96-1.44 1.8-.3-.48 2.14-1.07 4.25-1.52 6.38-.47 1.17.6 2.23 1.72 1.47 1.18-.5 2.2-1.29 3.25-2.02-.14-.35-.24-.85-.63-.4-.52.24-1.65 1.35-1.86.44.44-2.31 1.24-4.53 1.75-6.82.36-.79.01-1.73-.67-1.8z" opacity=".93" fill="#1c2422"/><path d="M20.46 30.13c-1.41-.07-2.15 2.2-.8 2.83 1.08.44 2.27-.67 2-1.79a1.21 1.21 0 0 0-1.2-1.04zm-.6 5.01c-.23-.01-.5.07-.78.28-1.39.6-2.55 1.59-3.76 2.47.16.41.33.75.7.3.44-.28 1.95-1.45 1.8-.3-.48 2.13-1.07 4.24-1.52 6.37-.47 1.17.6 2.23 1.71 1.47 1.19-.49 2.2-1.28 3.25-2.01-.14-.35-.24-.85-.63-.4-.51.24-1.64 1.34-1.85.43.43-2.3 1.23-4.53 1.75-6.82.35-.79 0-1.73-.68-1.79z"/><path d="M34.06 28.42v2.06h10.05v-2.06zm11.6 0v2.06h10.82v-2.06zm-11.6 6v2.06h7.27v-2.06zm9.3 0v2.06h4.07v-2.06zm5.8 0v2.06h7.32v-2.06zm-15.1 6v2.06h4.23v-2.06zm6.33 0v2.06h16.1v-2.06zm-6.33 6v2.06h22.42v-2.06z" opacity=".42" fill="#fff"/></svg>