<?xml version="1.0" encoding="UTF-8" standalone="no"?><svg xmlns:dc="http://purl.org/dc/elements/1.1/" xmlns:cc="http://creativecommons.org/ns#" xmlns:rdf="http://www.w3.org/1999/02/22-rdf-syntax-ns#" xmlns="http://www.w3.org/2000/svg" xmlns:xlink="http://www.w3.org/1999/xlink" width="64" height="64" version="1"><metadata><rdf:RDF><cc:Work><dc:format>image/svg+xml</dc:format><dc:type rdf:resource="http://purl.org/dc/dcmitype/StillImage"/><dc:title/></cc:Work></rdf:RDF></metadata><defs><linearGradient id="c"><stop offset="0" stop-color="#37abc8"/><stop offset="1" stop-color="#afdde9"/></linearGradient><linearGradient id="a"><stop offset="0" stop-color="#4d4d4d"/><stop offset="1"/></linearGradient><radialGradient xlink:href="#a" id="d" cx="16" cy="19.25" fx="16" fy="19.25" r="28" gradientUnits="userSpaceOnUse" gradientTransform="matrix(.88378 .33898 -.35812 .93367 8.75 -4.15)"/><linearGradient id="b"><stop offset="0" stop-color="#fea"/><stop offset="1" stop-color="#fc0"/></linearGradient><linearGradient xlink:href="#c" id="e" x1="12.49" y1="10.17" x2="12.46" y2="53.96" gradientUnits="userSpaceOnUse"/></defs><path d="M32 4C16.49 4 4 16.49 4 32s12.49 28 28 28 28-12.49 28-28S47.51 4 32 4z" fill="url(#d)"/><path d="M32.24 10.03a5.03 5.03 0 0 0-5.04 5.03 5.04 5.04 0 1 0 10.08 0 5.04 5.04 0 0 0-5.04-5.03zM13.94 20.7a1.38 1.38 0 0 0-.62.2c-.5.24-.82.61-.83 1.15 0 .54.34 1 .83 1.24l13.42 4.03-.1 9.74-4.6 14.6c-.23.82-.14 1.45.24 1.96.48.66 1.65.31 2.1-.35l7.65-15.76 7.5 15.73c.4.69 1.3.93 2.01.54.71-.4.74-1.28.5-1.97l-4.59-14.66-.19-9.18 13.61-4.73a1.44 1.44 0 0 0 .55-1.7c-.23-.6-.7-.77-1.37-.7a2.46 2.46 0 0 0-.83.09v-.02L32 23.35l-17.12-2.49a3.52 3.52 0 0 0-.93-.17z" fill="url(#e)"/></svg>