<svg xmlns="http://www.w3.org/2000/svg" xmlns:xlink="http://www.w3.org/1999/xlink" width="64" height="64" version="1"><defs><linearGradient id="a"><stop offset="0" stop-color="#4d4d4d"/><stop offset="1"/></linearGradient><radialGradient xlink:href="#a" id="b" cx="16" cy="19.25" fx="16" fy="19.25" r="28" gradientUnits="userSpaceOnUse" gradientTransform="matrix(.88378 .33898 -.35812 .93367 8.75 -4.15)"/></defs><path d="M32 4C16.49 4 4 16.49 4 32s12.49 28 28 28 28-12.49 28-28S47.51 4 32 4z" fill="url(#b)"/><path d="M19.7 17.54a4.92 4.92 0 1 0 0 9.85 4.92 4.92 0 0 0 0-9.85zm24.6 0a4.92 4.92 0 1 0 0 9.85 4.92 4.92 0 0 0 0-9.85zM18.9 42.91c2.7 5.62 7.7 9.08 13.1 9.09 5.4-.01 10.4-3.48 13.1-9.1h-1.84c-2.87 3.85-6.96 6.05-11.26 6.07-4.3-.01-8.4-2.22-11.26-6.06z" opacity=".3" fill="#f9f9f9"/><path d="M19.7 16a4.92 4.92 0 1 0 0 9.85 4.92 4.92 0 0 0 0-9.85zm24.6 0a4.92 4.92 0 1 0 0 9.85 4.92 4.92 0 0 0 0-9.85zM18.9 41.37c2.7 5.62 7.7 9.08 13.1 9.09 5.4-.01 10.4-3.48 13.1-9.1h-1.84c-2.87 3.85-6.96 6.06-11.26 6.07-4.3-.01-8.4-2.22-11.26-6.06z" fill="#fff"/></svg>