<svg xmlns="http://www.w3.org/2000/svg" xmlns:xlink="http://www.w3.org/1999/xlink" width="64" height="64"><defs><linearGradient id="h"><stop offset="0"/><stop offset=".5" stop-color="#1a1a1a"/><stop offset="1"/></linearGradient><linearGradient id="g"><stop offset="0" stop-color="#00f"/><stop offset="1" stop-color="#0ff"/></linearGradient><linearGradient id="f"><stop offset="0" stop-color="#00f"/><stop offset="1" stop-color="#0ff"/></linearGradient><linearGradient id="e"><stop offset="0" stop-color="#00f"/><stop offset="1" stop-color="#0ff"/></linearGradient><linearGradient id="c"><stop offset="0" stop-color="#4d4d4d"/><stop offset="1" stop-color="#333"/></linearGradient><linearGradient id="b"><stop offset="0" stop-color="#1a1a1a"/><stop offset="1" stop-color="#0ff"/></linearGradient><linearGradient id="a"><stop offset="0"/><stop offset="1" stop-color="#333"/></linearGradient><linearGradient id="d" gradientUnits="userSpaceOnUse" x1="328.08" y1="154.13" x2="264.58" y2="154.13" gradientTransform="rotate(-90 33.7 37.52) scale(.12501)"><stop offset="0" stop-color="#333"/><stop offset="1"/></linearGradient><linearGradient xlink:href="#c" id="j" x1="4.61" y1="17.82" x2="4.61" y2="55.59" gradientUnits="userSpaceOnUse"/><radialGradient xlink:href="#d" id="l" cx="15.6" cy="32.27" fx="15.6" fy="32.27" r="3.97" gradientTransform="matrix(1 0 0 1.00066 0 -.02)" gradientUnits="userSpaceOnUse"/><radialGradient xlink:href="#d" id="o" cx="15.6" cy="32.27" fx="15.6" fy="32.27" r="3.97" gradientTransform="matrix(1 0 0 1.00066 14.56 -4.65)" gradientUnits="userSpaceOnUse"/><radialGradient xlink:href="#d" id="p" cx="15.6" cy="32.27" fx="15.6" fy="32.27" r="3.97" gradientTransform="matrix(1 0 0 1.00066 29.12 5.94)" gradientUnits="userSpaceOnUse"/><linearGradient xlink:href="#e" id="k" x1="15.94" y1="34.47" x2="19.3" y2="48.53" gradientUnits="userSpaceOnUse" gradientTransform="matrix(1.0349 0 0 1.0349 -.6 -1.45)"/><linearGradient xlink:href="#f" id="m" x1="30.01" y1="28.14" x2="33.86" y2="48.62" gradientUnits="userSpaceOnUse" gradientTransform="matrix(1.02365 0 0 1.02365 -.76 -.9)"/><linearGradient xlink:href="#g" id="n" x1="44.32" y1="39.09" x2="49.02" y2="49.39" gradientUnits="userSpaceOnUse" gradientTransform="matrix(1.05236 0 0 1.05236 -2.44 -2.3)"/><linearGradient xlink:href="#h" id="i" x1="16.32" y1="2.19" x2="42.96" y2="63.16" gradientUnits="userSpaceOnUse"/></defs><rect ry="3.77" rx="3.77" height="52.89" width="60.46" y="5.56" x="1.77" fill="url(#i)"/><rect ry=".96" rx=".96" height="37.77" width="54.77" y="17.82" x="4.61" fill="url(#j)"/><path style="text-indent:0;text-transform:none" d="M55.3 10.6l-.76.79 1.36 1.36-1.36 1.38.76.77 1.39-1.36 1.36 1.36.79-.77-1.38-1.38 1.38-1.36-.79-.79-1.36 1.38zm-17.6.53v3.25h3.24v-3.25zm-30.45.16l-2.17 2.15.79.79 1.38-1.38 1.36 1.38.79-.79-1.38-1.38zm31.53.9h1.08v1.1h-1.08v-1.08zm7.06 0v1.1h4.33v-1.1z" fill="#e6e6e6"/><path d="M15.45 46.59V25.42a1.99 1.99 0 1 1 3.97 0v21.17a1.98 1.98 0 1 1-3.97 0zm0 0" fill="#fff"/><path d="M15.38 46.76V36.49a2.05 2.05 0 1 1 4.11 0v10.27a2.05 2.05 0 1 1-4.1 0zm0 0" fill="url(#k)"/><path d="M44.56 46.59V25.42a1.98 1.98 0 1 1 3.97 0v21.17a1.99 1.99 0 0 1-3.97 0zm0 0M30.01 46.59V25.42a1.98 1.98 0 1 1 3.97 0v21.17a1.99 1.99 0 0 1-3.97 0zm0 0" fill="#fff"/><path d="M13.47 34.18a3.97 3.97 0 1 1 7.94 0 3.97 3.97 0 0 1-7.94 0zm0 0" fill="url(#l)"/><path d="M29.96 46.78V29.85a2 2 0 0 1 1.97-2.03h.13a2 2 0 0 1 1.97 2.03v16.93a2 2 0 0 1-1.97 2.03h-.13a2 2 0 0 1-1.97-2.03zm0 0" fill="url(#m)"/><path d="M44.46 46.72v-5.56a2.08 2.08 0 1 1 4.18 0v5.56a2.1 2.1 0 0 1-4.18 0zm0 0" fill="url(#n)"/><path d="M28.03 29.55a3.97 3.97 0 1 1 7.94 0 3.97 3.97 0 0 1-7.94 0zm0 0" fill="url(#o)"/><path d="M42.59 40.14a3.97 3.97 0 1 1 7.94 0 3.97 3.97 0 0 1-7.94 0zm0 0" fill="url(#p)"/></svg>