<svg xmlns="http://www.w3.org/2000/svg" xmlns:xlink="http://www.w3.org/1999/xlink" width="64" height="64" version="1"><defs><linearGradient id="a"><stop offset="0" stop-color="#4d4d4d"/><stop offset="1"/></linearGradient><radialGradient xlink:href="#a" id="d" cx="16" cy="19.25" fx="16" fy="19.25" r="28" gradientUnits="userSpaceOnUse" gradientTransform="matrix(.88378 .33898 -.35812 .93367 8.75 -4.15)"/><linearGradient id="b"><stop offset="0" stop-color="#fea"/><stop offset="1" stop-color="#fc0"/></linearGradient><linearGradient id="c"><stop offset="0" stop-color="#fff"/><stop offset="1" stop-color="#fff" stop-opacity="0"/></linearGradient></defs><path style="line-height:1.25" d="M32.7 9.56c-3.15 0-6.15.57-8.98 1.7a21.9 21.9 0 0 0-12.34 12.15 22.63 22.63 0 0 0-1.7 8.7c0 3.17.55 6.13 1.67 8.9a22 22 0 0 0 12.22 12.02 23.24 23.24 0 0 0 16.26.34 23.7 23.7 0 0 0 6.86-3.7l-2.26-2.8A19.73 19.73 0 0 1 38.68 50a19.82 19.82 0 0 1-13.75-.28c-2.31-.9-4.34-2.23-6.1-3.96a18.36 18.36 0 0 1-4.19-6.15 19.51 19.51 0 0 1-1.43-7.48c0-3.23.74-6.22 2.2-8.98a18.07 18.07 0 0 1 6.18-6.73 18.46 18.46 0 0 1 5.25-2.4c1.89-.56 3.86-.84 5.92-.84 2.94 0 5.66.59 8.15 1.76a17.24 17.24 0 0 1 6.38 5.02 13.93 13.93 0 0 1 2.38 4.37c.54 1.57.8 3.25.8 5.04 0 2.96-.69 5.38-2.08 7.25a8.35 8.35 0 0 1-5.72 3.34V21.48h-3.59v3.29a9.5 9.5 0 0 0-7.98-3.8 8.82 8.82 0 0 0-7 3.14c-1.8 2.1-2.7 4.82-2.7 8.16 0 3.35.89 6.06 2.68 8.16a8.88 8.88 0 0 0 7.02 3.1c1.73 0 3.23-.3 4.52-.9a9.63 9.63 0 0 0 3.46-2.86v3.87c4.69-.1 8.36-1.42 11.02-3.97 2.66-2.54 3.99-6.01 3.99-10.41a18.54 18.54 0 0 0-3.86-11.32 20.88 20.88 0 0 0-7.66-6.2 22.47 22.47 0 0 0-9.86-2.18zm-.67 15.06c2.04 0 3.66.7 4.87 2.08 1.2 1.37 1.8 3.23 1.8 5.57 0 2.38-.59 4.25-1.78 5.62a6.03 6.03 0 0 1-4.84 2.06c-2.07 0-3.7-.68-4.9-2.03-1.18-1.38-1.77-3.26-1.77-5.65 0-2.36.59-4.22 1.78-5.6a6.12 6.12 0 0 1 4.84-2.05z" font-weight="400" font-size="46.83" font-family="sans-serif" letter-spacing="0" word-spacing="0" fill="#fff"/><path d="M32 4C16.49 4 4 16.49 4 32s12.49 28 28 28 28-12.49 28-28S47.51 4 32 4z" fill="url(#d)"/><path style="line-height:1.25" d="M32.63 13.08c-2.88 0-5.6.52-8.18 1.56A19.95 19.95 0 0 0 13.2 25.7a20.62 20.62 0 0 0-1.56 7.93c0 2.88.51 5.58 1.53 8.1a20.04 20.04 0 0 0 11.14 10.95 21.18 21.18 0 0 0 14.82.32 21.6 21.6 0 0 0 6.24-3.38l-2.06-2.54a17.98 17.98 0 0 1-5.23 2.83 18.06 18.06 0 0 1-12.53-.25 16.2 16.2 0 0 1-5.56-3.61 16.73 16.73 0 0 1-3.82-5.6 17.78 17.78 0 0 1-1.3-6.82c0-2.94.67-5.67 2-8.18a16.47 16.47 0 0 1 5.63-6.13c1.47-.98 3.06-1.71 4.78-2.2 1.73-.5 3.53-.75 5.4-.75 2.68 0 5.16.53 7.43 1.6a15.7 15.7 0 0 1 5.81 4.57 12.7 12.7 0 0 1 2.17 3.98c.5 1.43.74 2.96.74 4.6 0 2.7-.64 4.9-1.9 6.6a7.61 7.61 0 0 1-5.22 3.05V23.95h-3.27v3a8.66 8.66 0 0 0-7.27-3.46c-2.6 0-4.73.95-6.38 2.86-1.65 1.9-2.47 4.38-2.47 7.43s.82 5.53 2.45 7.43a8.1 8.1 0 0 0 6.4 2.84c1.57 0 2.94-.28 4.12-.83a8.77 8.77 0 0 0 3.15-2.6v3.52c4.27-.1 7.62-1.3 10.04-3.61 2.43-2.32 3.64-5.49 3.64-9.5 0-1.87-.3-3.68-.92-5.44a16.9 16.9 0 0 0-2.6-4.87 19.03 19.03 0 0 0-6.98-5.65 20.48 20.48 0 0 0-8.99-1.99zm-.61 13.72c1.86 0 3.34.64 4.43 1.9 1.1 1.25 1.65 2.94 1.65 5.08 0 2.16-.54 3.87-1.62 5.12a5.5 5.5 0 0 1-4.42 1.88 5.62 5.62 0 0 1-4.46-1.86c-1.08-1.25-1.62-2.96-1.62-5.14 0-2.15.54-3.85 1.62-5.1a5.58 5.58 0 0 1 4.42-1.88z" font-weight="400" font-size="46.83" font-family="sans-serif" letter-spacing="0" word-spacing="0" opacity=".27" fill="#666"/><path style="line-height:1.25" d="M32.63 11.56c-2.88 0-5.6.52-8.18 1.56A19.95 19.95 0 0 0 13.2 24.19a20.62 20.62 0 0 0-1.56 7.93c0 2.88.51 5.58 1.53 8.1a20.04 20.04 0 0 0 11.14 10.95 21.18 21.18 0 0 0 14.82.32 21.6 21.6 0 0 0 6.24-3.38l-2.06-2.54a17.98 17.98 0 0 1-5.23 2.83 18.06 18.06 0 0 1-12.53-.25 16.2 16.2 0 0 1-5.56-3.61 16.73 16.73 0 0 1-3.82-5.6 17.78 17.78 0 0 1-1.3-6.82c0-2.94.67-5.67 2-8.19a16.47 16.47 0 0 1 5.63-6.13c1.47-.97 3.06-1.7 4.78-2.2 1.73-.5 3.53-.75 5.4-.75 2.68 0 5.16.54 7.43 1.6a15.7 15.7 0 0 1 5.81 4.58A12.7 12.7 0 0 1 48.1 25c.5 1.43.74 2.96.74 4.6 0 2.7-.64 4.9-1.9 6.6a7.61 7.61 0 0 1-5.22 3.04V22.42h-3.27v3a8.66 8.66 0 0 0-7.27-3.45c-2.6 0-4.73.95-6.38 2.85-1.65 1.91-2.47 4.39-2.47 7.44 0 3.05.82 5.52 2.45 7.43a8.1 8.1 0 0 0 6.4 2.84c1.57 0 2.94-.28 4.12-.83a8.77 8.77 0 0 0 3.15-2.6v3.52c4.27-.1 7.62-1.3 10.04-3.62 2.43-2.31 3.64-5.48 3.64-9.49 0-1.87-.3-3.69-.92-5.44a16.9 16.9 0 0 0-2.6-4.87 19.03 19.03 0 0 0-6.98-5.65 20.48 20.48 0 0 0-8.99-1.99zm-.61 13.72c1.86 0 3.34.63 4.43 1.9 1.1 1.25 1.65 2.94 1.65 5.08 0 2.16-.54 3.87-1.62 5.12a5.5 5.5 0 0 1-4.42 1.87 5.62 5.62 0 0 1-4.46-1.85c-1.08-1.25-1.62-2.96-1.62-5.14 0-2.15.54-3.85 1.62-5.1a5.58 5.58 0 0 1 4.42-1.88z" font-weight="400" font-size="46.83" font-family="sans-serif" letter-spacing="0" word-spacing="0" fill="#fff"/><path style="line-height:1.25" d="M32.63 10.04c-2.88 0-5.6.52-8.18 1.55A19.95 19.95 0 0 0 13.2 22.66a20.62 20.62 0 0 0-1.56 7.94c0 2.88.51 5.58 1.53 8.1a20.04 20.04 0 0 0 11.14 10.95 21.18 21.18 0 0 0 14.82.32 21.6 21.6 0 0 0 6.24-3.39l-2.06-2.54a17.98 17.98 0 0 1-5.23 2.84 18.06 18.06 0 0 1-12.53-.25 16.2 16.2 0 0 1-5.56-3.61 16.73 16.73 0 0 1-3.82-5.6 17.78 17.78 0 0 1-1.3-6.82c0-2.94.67-5.67 2-8.19a16.47 16.47 0 0 1 5.63-6.13c1.47-.97 3.06-1.7 4.78-2.2 1.73-.5 3.53-.75 5.4-.75 2.68 0 5.16.54 7.43 1.6a15.7 15.7 0 0 1 5.81 4.58 12.7 12.7 0 0 1 2.17 3.98c.5 1.43.74 2.96.74 4.6 0 2.69-.64 4.9-1.9 6.6a7.61 7.61 0 0 1-5.22 3.04V20.9h-3.27v3a8.66 8.66 0 0 0-7.27-3.45c-2.6 0-4.73.95-6.38 2.85-1.65 1.9-2.47 4.39-2.47 7.44 0 3.05.82 5.52 2.45 7.43a8.1 8.1 0 0 0 6.4 2.83c1.57 0 2.94-.27 4.12-.82a8.77 8.77 0 0 0 3.15-2.6v3.51c4.27-.09 7.62-1.29 10.04-3.6 2.43-2.32 3.64-5.49 3.64-9.5 0-1.87-.3-3.69-.92-5.44a16.9 16.9 0 0 0-2.6-4.87 19.03 19.03 0 0 0-6.98-5.65 20.48 20.48 0 0 0-8.99-2zm-.61 13.72c1.86 0 3.34.63 4.43 1.9 1.1 1.25 1.65 2.94 1.65 5.08 0 2.16-.54 3.87-1.62 5.12a5.5 5.5 0 0 1-4.42 1.87 5.62 5.62 0 0 1-4.46-1.85c-1.08-1.25-1.62-2.96-1.62-5.14 0-2.15.54-3.86 1.62-5.1a5.58 5.58 0 0 1 4.42-1.88z" font-weight="400" font-size="46.83" font-family="sans-serif" letter-spacing="0" word-spacing="0" opacity=".27" fill="#ccc"/></svg>