<?xml version="1.0" encoding="UTF-8" standalone="no"?><!--Created with Inkscape (http://www.inkscape.org/)--><svg xmlns:dc="http://purl.org/dc/elements/1.1/" xmlns:cc="http://creativecommons.org/ns#" xmlns:rdf="http://www.w3.org/1999/02/22-rdf-syntax-ns#" xmlns="http://www.w3.org/2000/svg" xmlns:xlink="http://www.w3.org/1999/xlink" width="64" height="64" version="1" viewBox="0 0 60 60"><defs><linearGradient id="d"><stop offset="0" stop-color="#216778"/><stop offset="1" stop-color="#216778" stop-opacity="0"/></linearGradient><linearGradient id="c"><stop offset="0" stop-color="#003380"/><stop offset="1" stop-color="#fff" stop-opacity="0"/></linearGradient><linearGradient id="b"><stop offset="0" stop-color="#fff"/><stop offset="1" stop-color="#fff" stop-opacity="0"/></linearGradient><linearGradient id="a"><stop offset="0" stop-color="#fff"/><stop offset="1" stop-color="#fff" stop-opacity="0"/></linearGradient><linearGradient id="e"><stop offset="0" stop-color="#333"/><stop offset="1"/></linearGradient><linearGradient xlink:href="#c" id="h" gradientUnits="userSpaceOnUse" gradientTransform="matrix(.61003 0 0 .61004 25.45 55.46)" x1="38.74" y1="84.75" x2="30.75" y2="98.04"/><linearGradient xlink:href="#c" id="i" gradientUnits="userSpaceOnUse" gradientTransform="matrix(.61003 0 0 .61004 -4.56 42.34)" x1="38.74" y1="84.75" x2="30.75" y2="98.04"/><linearGradient xlink:href="#c" id="j" gradientUnits="userSpaceOnUse" gradientTransform="matrix(.61003 0 0 .61004 10.52 27.34)" x1="38.74" y1="84.75" x2="30.75" y2="98.04"/><linearGradient xlink:href="#d" id="g" x1="3.93" y1="85.64" x2="56.07" y2="85.64" gradientUnits="userSpaceOnUse"/><linearGradient xlink:href="#e" id="f" x1="5.97" y1="127.49" x2="51.07" y2="77.39" gradientUnits="userSpaceOnUse"/></defs><metadata><rdf:RDF><cc:Work><dc:format>image/svg+xml</dc:format><dc:type rdf:resource="http://purl.org/dc/dcmitype/StillImage"/><dc:title/></cc:Work></rdf:RDF></metadata><g transform="translate(0 -68)"><path d="M5.08 71.82h49.84c.64 0 1.15.72 1.15 1.6v49.15c0 .9-.51 1.6-1.15 1.6H5.08c-.64 0-1.15-.7-1.15-1.6V73.43c0-.9.51-1.6 1.15-1.6z" fill="url(#f)" stroke="#333" stroke-width=".47" stroke-linecap="round" stroke-linejoin="round" stroke-dashoffset="4"/><path d="M3.93 88.5v.01c25.37-3.5 26.83 13.8 52.14 10.54V73.43c0-.89-.51-1.6-1.15-1.6H5.08c-.64 0-1.15.71-1.15 1.6z" fill="url(#g)" opacity=".56"/><rect width="3.05" height="42.61" x="43.52" y="77" rx="2.62" ry="2.63" fill="#80e5ff"/><path d="M40.76 107.17l-1.03 4.7 1.03 4.65h4.15v.04h4.18l1.02-4.65-1.02-4.7h-4.16v-.04z" fill="#025" fill-rule="evenodd"/><path d="M40.76 107.17l-1.03 4.7c5.33 1.03 4.74 1.42 10.14 1.12l.24-1.08-1.02-4.74z" opacity=".59" fill="url(#h)" fill-rule="evenodd"/><rect width="3.05" height="42.61" x="28.59" y="77" rx="2.62" ry="2.63" fill="#80e5ff"/><path d="M25.82 79.04l-1.02 4.71 1.02 4.65h4.16v.03h4.17l1.03-4.64-1.03-4.71H30v-.04z" fill="#025" fill-rule="evenodd"/><rect width="3.05" height="42.61" x="13.5" y="77" rx="2.62" ry="2.63" fill="#aef"/><path d="M10.74 94.04L9.7 98.75l1.03 4.65h4.15v.03h4.18l1.03-4.64-1.03-4.71h-4.16v-.04z" fill="#025" fill-rule="evenodd"/><path d="M10.74 94.04L9.7 98.75c5.33 1.03 4.74 1.41 10.15 1.12l.24-1.08-1.03-4.75z" opacity=".59" fill="url(#i)" fill-rule="evenodd"/><path d="M25.82 79.04l-1.02 4.71c5.33 1.03 4.74 1.41 10.14 1.12l.24-1.08-1.03-4.75z" opacity=".59" fill="url(#j)" fill-rule="evenodd"/></g></svg>