<svg xmlns="http://www.w3.org/2000/svg" xmlns:xlink="http://www.w3.org/1999/xlink" width="64" height="64" viewBox="0 0 16.93 16.93"><defs><radialGradient xlink:href="#a" id="i" cx="1.86" cy="13.81" fx="1.86" fy="13.81" r=".68" gradientTransform="matrix(1.29787 .75573 -.5921 1.01686 7.62 -1.13)" gradientUnits="userSpaceOnUse"/><linearGradient id="a"><stop offset="0" stop-color="gray"/><stop offset="1"/></linearGradient><radialGradient xlink:href="#b" id="h" cx="-3.02" cy="14.07" fx="-3.02" fy="14.07" r="1.08" gradientTransform="matrix(-2.04558 -.0515 -.03394 1.34816 -3.43 -4.55)" gradientUnits="userSpaceOnUse"/><linearGradient id="b"><stop offset="0"/><stop offset="1" stop-color="#fff"/></linearGradient><linearGradient xlink:href="#c" id="g" x1="-18.68" y1="60.92" x2="-5.61" y2="1.63" gradientUnits="userSpaceOnUse" gradientTransform="scale(.26458)"/><linearGradient id="c"><stop offset="0"/><stop offset="1" stop-color="#1a1a1a"/></linearGradient><linearGradient xlink:href="#c" id="f" x1="16.23" y1="14.32" x2="26.44" y2="2.9" gradientUnits="userSpaceOnUse" gradientTransform="translate(-15.87)"/><linearGradient xlink:href="#c" id="e" x1="-18.68" y1="60.92" x2="-5.61" y2="1.63" gradientUnits="userSpaceOnUse" gradientTransform="scale(.26458) rotate(60 -1.4 70.82)"/><linearGradient xlink:href="#c" id="d" x1="-18.68" y1="60.92" x2="-5.61" y2="1.63" gradientUnits="userSpaceOnUse" gradientTransform="matrix(0 .26458 -.26458 0 16.43 17.67)"/></defs><path d="M16.2 13.11H2.3c-.87 0-1.57.69-1.57 1.54 0 .85.7 1.53 1.57 1.53H16.2z" fill="url(#d)"/><g transform="rotate(90 2.03 14.4)"><rect ry="0" rx="0" y="10.3" x=".74" height="2.2" width="3.07" fill="#162d50"/><rect ry="0" rx="0" y="7.23" x=".74" height="2.2" width="3.07" fill="#2c5aa0"/><rect ry="0" rx="0" y="4.16" x=".74" height="2.2" width="3.07" fill="#5f8dd3"/><rect ry="0" rx="0" y="1.09" x=".74" height="2.2" width="3.07" fill="#afc6e9"/></g><path d="M13.56 5.86l-12 6.93-.03.02a1.55 1.55 0 0 0-.59 2.11c.43.74 1.37.98 2.12.55l.04-.02 12-6.93z" fill="url(#e)" transform="translate(0 .5)"/><g transform="rotate(60 4.45 9.8)"><rect ry="0" rx="0" y="10.26" x="6.03" height="2.2" width="3.07" fill="#441650"/><rect ry="0" rx="0" y="7.19" x="6.03" height="2.2" width="3.07" fill="#892ca0"/><rect ry="0" rx="0" y="4.12" x="6.03" height="2.2" width="3.07" fill="#bc5fd3"/><rect ry="0" rx="0" y="1.05" x="6.03" height="2.2" width="3.07" fill="#ddafe9"/></g><path d="M7.9 1.32l-6.92 12-.02.03c-.44.75-.2 1.7.54 2.12.74.42 1.68.16 2.12-.59l.01-.04 6.93-11.99z" fill="url(#f)" transform="translate(0 .5)"/><g transform="rotate(30 -8.88 -29.38)"><rect ry="0" rx="0" y="-.69" x="21.25" height="2.2" width="3.07" fill="#a40"/><rect ry="0" rx="0" y="-3.76" x="21.25" height="2.2" width="3.07" fill="#f60"/><rect ry="0" rx="0" y="-6.82" x="21.25" height="2.2" width="3.07" fill="#f95"/><rect ry="0" rx="0" y="-9.89" x="21.25" height="2.2" width="3.07" fill="#fca"/></g><g><path d="M-4.55.24V14.13c0 .87.68 1.56 1.53 1.56s1.53-.7 1.53-1.56V.24z" fill="url(#g)" transform="translate(5.29 .5)"/><g transform="translate(5.29 .5)"><rect ry="0" rx="0" y="10.3" x="-4.55" height="2.2" width="3.07" fill="#a80"/><rect ry="0" rx="0" y="7.23" x="-4.55" height="2.2" width="3.07" fill="#fc0"/><rect ry="0" rx="0" y="4.16" x="-4.55" height="2.2" width="3.07" fill="#fd5"/><rect ry="0" rx="0" y="1.09" x="-4.55" height="2.2" width="3.07" fill="#fea"/></g></g><path d="M2.33 13.5a1.08 1.08 0 1 1-1.08 1.44 1.08 1.08 0 0 1 1.08-1.45zm-.03.39c-.08 0-.18 0-.26.04a.68.68 0 1 0 .27-.04z" opacity=".26" fill="url(#h)" fill-rule="evenodd"/><path d="M2.23 13.89c.1 0 .18 0 .27.04.35.13.54.52.41.87a.68.68 0 1 1-.68-.91z" fill="url(#i)"/></svg>