<svg xmlns="http://www.w3.org/2000/svg" xmlns:xlink="http://www.w3.org/1999/xlink" width="64" height="64" version="1"><defs><linearGradient id="a"><stop offset="0" stop-color="gray"/><stop offset="1" stop-color="#333"/></linearGradient><linearGradient id="c"><stop offset="0" stop-color="gray"/><stop offset="1" stop-color="#333"/></linearGradient><linearGradient id="d"><stop offset="0" stop-color="gray"/><stop offset="1" stop-color="#333"/></linearGradient><linearGradient id="b"><stop offset="0" stop-color="#fff"/><stop offset="1" stop-color="#fff" stop-opacity="0"/></linearGradient><radialGradient id="k" cx="13.893" cy="24.271" r="4.5" gradientTransform="matrix(7.29433 0 0 3.77048 -79.928 -69.317)" gradientUnits="userSpaceOnUse" xlink:href="#a"/><radialGradient xlink:href="#e" id="j" cx="-20.822" cy="20.743" fx="-20.822" fy="20.743" r="10" gradientTransform="matrix(1.32864 .02386 -.03353 1.86726 52.624 -12.566)" gradientUnits="userSpaceOnUse"/><linearGradient id="e"><stop offset="0" stop-color="#1a1a1a"/><stop offset="1"/></linearGradient><radialGradient id="i" cx="15.08" cy="24.271" r="4.5" gradientTransform="matrix(13.50511 0 0 3.16958 -180.297 -29.235)" gradientUnits="userSpaceOnUse" xlink:href="#a"/><radialGradient id="h" cx="13.893" cy="24.271" r="4.5" gradientTransform="matrix(5.83525 0 0 3.77035 -30.298 -69.314)" gradientUnits="userSpaceOnUse" xlink:href="#a"/><radialGradient xlink:href="#e" id="g" cx="3.5" cy="19.5" fx="3.5" fy="19.5" r="9" gradientUnits="userSpaceOnUse" gradientTransform="matrix(2.59554 .01872 -.01926 2.67038 47.875 -26.975)"/><radialGradient xlink:href="#e" id="f" cx="-12.168" cy="42.276" fx="-12.168" fy="42.276" r="14.5" gradientTransform="matrix(3.0378 -.10318 .04298 1.26535 70.91 -3.952)" gradientUnits="userSpaceOnUse"/></defs><rect x="3.714" y="33.035" width="40.626" height="24.122" rx="3.809" ry="3.809" fill="#d40000"/><rect x="35.606" y="6.843" width="24.68" height="24.68" rx="3.702" ry="3.702" fill="#d40000"/><path d="M41.302 45.096h7.973c.94 0 1.993-1.054 1.993-1.993v-11.96" fill="none" stroke="#d40000" stroke-width="1.329"/><rect x="4.759" y="34.465" width="38.537" height="21.262" rx="2.658" ry="2.658" fill="url(#f)"/><rect x="36.651" y="7.888" width="22.59" height="22.59" rx="2.658" ry="2.658" fill="url(#g)"/><rect x="40.638" y="9.217" width="15.946" height="15.946" rx="1.425" ry="1.221" opacity=".5" fill="url(#h)"/><rect x="8.745" y="35.794" width="31.892" height="14.617" rx="1.387" ry="1.329" opacity=".5" fill="url(#i)"/><rect x="4.759" y="7.888" width="26.577" height="22.59" rx="2.658" ry="2.658" fill="url(#j)"/><rect x="8.745" y="9.217" width="19.933" height="15.946" rx="1.781" ry="1.221" opacity=".5" fill="url(#k)"/></svg>