<svg xmlns="http://www.w3.org/2000/svg" xmlns:xlink="http://www.w3.org/1999/xlink" width="64" height="64" version="1"><defs><linearGradient id="c"><stop offset="0" stop-color="#d40000"/><stop offset="1" stop-color="#ff2a2a"/></linearGradient><linearGradient id="a"><stop offset="0" stop-color="#4d4d4d"/><stop offset="1"/></linearGradient><radialGradient xlink:href="#a" id="d" cx="16" cy="19.25" fx="16" fy="19.25" r="28" gradientUnits="userSpaceOnUse" gradientTransform="matrix(.88378 .33898 -.35812 .93367 8.75 -4.15)"/><linearGradient id="b"><stop offset="0" stop-color="#fea"/><stop offset="1" stop-color="#fc0"/></linearGradient><linearGradient xlink:href="#c" id="f" x1="21.362" y1="9.793" x2="39.528" y2="55.216" gradientUnits="userSpaceOnUse" gradientTransform="matrix(.90244 0 0 .90244 2.695 3.122)"/><linearGradient xlink:href="#c" id="e" x1="21.362" y1="9.793" x2="39.528" y2="55.216" gradientUnits="userSpaceOnUse" gradientTransform="matrix(.90244 0 0 .90244 3.41 3.836)"/></defs><path d="M32 4C16.49 4 4 16.49 4 32s12.49 28 28 28 28-12.49 28-28S47.51 4 32 4z" fill="url(#d)"/><path d="M36.191 14.218c-3.294-.176-5.013 5.132-1.884 6.587 2.538 1.041 5.303-1.565 4.686-4.165a2.823 2.823 0 0 0-2.802-2.422zm-1.413 11.688c-.528-.041-1.144.146-1.817.653-3.232 1.404-5.933 3.704-8.755 5.766.357.958.756 1.733 1.606.671 1.046-.626 4.573-3.365 4.22-.682-1.129 4.972-2.5 9.893-3.551 14.876-1.098 2.73 1.398 5.2 3.998 3.423 2.766-1.14 5.149-2.998 7.583-4.702-.332-.814-.555-1.985-1.472-.919-1.202.544-3.833 3.125-4.325 1.001 1.015-5.386 2.885-10.566 4.081-15.906.829-1.844.022-4.046-1.568-4.18z" opacity=".3" fill="url(#e)"/><path d="M35.477 13.504c-3.294-.176-5.012 5.132-1.884 6.587 2.538 1.041 5.303-1.564 4.687-4.164a2.823 2.823 0 0 0-2.803-2.423zm-1.413 11.689c-.528-.042-1.144.145-1.817.653-3.232 1.403-5.932 3.703-8.755 5.765.357.958.756 1.733 1.606.672 1.046-.627 4.573-3.366 4.22-.683-1.128 4.972-2.5 9.894-3.551 14.876-1.098 2.73 1.399 5.2 3.999 3.423 2.765-1.14 5.148-2.998 7.582-4.702-.331-.813-.555-1.985-1.472-.918-1.202.544-3.833 3.124-4.325 1 1.015-5.386 2.885-10.566 4.082-15.906.828-1.844.021-4.046-1.569-4.18z" fill="url(#f)"/></svg>