<?xml version="1.0" encoding="UTF-8" standalone="no"?><!--Created with Inkscape (http://www.inkscape.org/)--><svg xmlns:dc="http://purl.org/dc/elements/1.1/" xmlns:cc="http://creativecommons.org/ns#" xmlns:rdf="http://www.w3.org/1999/02/22-rdf-syntax-ns#" xmlns="http://www.w3.org/2000/svg" xmlns:xlink="http://www.w3.org/1999/xlink" width="64" height="64" version="1"><metadata><rdf:RDF><cc:Work><dc:format>image/svg+xml</dc:format><dc:type rdf:resource="http://purl.org/dc/dcmitype/StillImage"/><dc:title/></cc:Work></rdf:RDF></metadata><defs><linearGradient id="f" x1="24.4" x2="24.4" y1="3.6" y2="26.09" gradientTransform="translate(-.4 16.4)" gradientUnits="userSpaceOnUse"><stop offset="0" stop-color="#fff"/><stop offset="1" stop-color="#fff" stop-opacity="0"/></linearGradient><linearGradient id="d" x1="7.55" x2="7.55" y1="3" y2="45.18" gradientUnits="userSpaceOnUse" gradientTransform="translate(0 16)"><stop offset="0" stop-color="#4d4d4d"/><stop offset="1" stop-color="#333"/></linearGradient><radialGradient id="b" cx="62.63" cy="4.63" r="10.63" gradientTransform="matrix(2.1647 0 0 .75294 -111.56 52.52)" gradientUnits="userSpaceOnUse"><stop offset="0"/><stop offset="1" stop-opacity="0"/></radialGradient><radialGradient id="c" cx="24.01" cy="24" r="21" gradientTransform="translate(1.12 17.12) scale(.95321)" gradientUnits="userSpaceOnUse"><stop offset="0" stop-color="gray"/><stop offset=".87" stop-color="#333"/><stop offset="1"/></radialGradient><linearGradient xlink:href="#a" id="e" x1="23.59" y1="41.59" x2="24.97" y2="6.22" gradientUnits="userSpaceOnUse" gradientTransform="translate(0 16)"/><linearGradient id="a"><stop offset="0"/><stop offset=".5" stop-color="#1a1a1a"/><stop offset="1" stop-color="#1a1a1a" stop-opacity="0"/></linearGradient><filter id="g" x="-.04" width="1.07" y="-.04" height="1.07" color-interpolation-filters="sRGB"><feGaussianBlur stdDeviation=".58"/></filter></defs><g stroke-width=".79"><path d="M47 56c0 4.42-10.3 8-23 8S1 60.42 1 56s10.3-8 23-8 23 3.58 23 8z" opacity=".3" fill="url(#b)" fill-rule="evenodd" transform="matrix(1.26087 0 0 1.26087 1.74 -20.39)"/><path d="M44.5 40a20.5 20.5 0 1 1-41 0 20.5 20.5 0 0 1 41 0z" fill="url(#c)" stroke="url(#d)" stroke-width=".4" transform="matrix(1.26087 0 0 1.26087 1.74 -20.39)"/><path d="M41.5 40a17.5 17.5 0 1 1-35 0 17.5 17.5 0 0 1 35 0z" fill="url(#e)" transform="matrix(1.26087 0 0 1.26087 1.74 -20.39)"/><path d="M43.5 40a19.5 19.5 0 1 1-39 0 19.5 19.5 0 0 1 39 0z" opacity=".4" fill="none" stroke="url(#f)" filter="url(#g)" transform="matrix(1.26087 0 0 1.26087 1.74 -20.39)"/><path d="M14.17 30.73c3.5 0 3.93-.1 3.93-.1M45.9 30.73c3.49 0 3.93-.1 3.93-.1M31.42 47.74c0-3.49-.1-3.93-.1-3.93" fill="none" stroke="#fff" stroke-linecap="round" stroke-width=".9960873"/><path d="M31.42 16.28c0-3.48-.1-3.93-.1-3.93" fill="#fff" stroke="#fff" stroke-linecap="round" stroke-width=".9960873"/><path d="M30.87 31.99l13.6-13.86M32.95 31.99l-9.2-9.2" fill="none" stroke="#fff" stroke-width=".8952176999999999" stroke-linecap="round"/><path d="M31.2 31.23l13.83-3.9" fill="red" fill-rule="evenodd" stroke="red" stroke-width=".8952176999999999" stroke-linecap="round"/></g></svg>