<?xml version="1.0" encoding="UTF-8" standalone="no"?>
<!-- Created with Inkscape (http://www.inkscape.org/) -->

<svg
   xmlns:dc="http://purl.org/dc/elements/1.1/"
   xmlns:cc="http://creativecommons.org/ns#"
   xmlns:rdf="http://www.w3.org/1999/02/22-rdf-syntax-ns#"
   xmlns:svg="http://www.w3.org/2000/svg"
   xmlns="http://www.w3.org/2000/svg"
   xmlns:xlink="http://www.w3.org/1999/xlink"
   xmlns:sodipodi="http://sodipodi.sourceforge.net/DTD/sodipodi-0.dtd"
   xmlns:inkscape="http://www.inkscape.org/namespaces/inkscape"
   version="1.0"
   width="64"
   height="64"
   viewBox="15.584 -296.356 240 173.652"
   id="svg378"
   xml:space="preserve"
   style="overflow:visible"
   sodipodi:docname="preferences-desktop-locale.svg"
   inkscape:version="0.92.3 (2405546, 2018-03-11)"><metadata
   id="metadata105"><rdf:RDF><cc:Work
       rdf:about=""><dc:format>image/svg+xml</dc:format><dc:type
         rdf:resource="http://purl.org/dc/dcmitype/StillImage" /><dc:title></dc:title></cc:Work></rdf:RDF></metadata><sodipodi:namedview
   pagecolor="#ffffff"
   bordercolor="#666666"
   borderopacity="1"
   objecttolerance="10"
   gridtolerance="10"
   guidetolerance="10"
   inkscape:pageopacity="0"
   inkscape:pageshadow="2"
   inkscape:window-width="1366"
   inkscape:window-height="715"
   id="namedview103"
   showgrid="false"
   inkscape:zoom="8.234375"
   inkscape:cx="32"
   inkscape:cy="32"
   inkscape:window-x="0"
   inkscape:window-y="27"
   inkscape:window-maximized="1"
   inkscape:current-layer="svg378" /><defs
   id="defs5418"><linearGradient
   id="linearGradient3322"><stop
     id="stop3324"
     style="stop-color:#373737;stop-opacity:1"
     offset="0" /><stop
     id="stop3326"
     style="stop-color:#000000;stop-opacity:1"
     offset="1" /></linearGradient><linearGradient
   id="linearGradient3575"><stop
     id="stop3577"
     style="stop-color:#000000;stop-opacity:1"
     offset="0" /><stop
     id="stop3579"
     style="stop-color:#ffffff;stop-opacity:1"
     offset="0.67500007" /><stop
     id="stop3581"
     style="stop-color:#ffffff;stop-opacity:1"
     offset="1" /></linearGradient><linearGradient
   id="linearGradient5827"><stop
     id="stop5829"
     style="stop-color:#00489b;stop-opacity:1"
     offset="0" /><stop
     id="stop5831"
     style="stop-color:#9bceff;stop-opacity:1"
     offset="0.5" /><stop
     id="stop5833"
     style="stop-color:#064798;stop-opacity:1"
     offset="0.54056305" /><stop
     id="stop5835"
     style="stop-color:#0251c0;stop-opacity:1"
     offset="0.72974294" /><stop
     id="stop5837"
     style="stop-color:#a8caff;stop-opacity:1"
     offset="1" /></linearGradient><filter
   id="filter7237"><feGaussianBlur
     id="feGaussianBlur7239"
     stdDeviation="8.3447749"
     inkscape:collect="always" /></filter><filter
   id="filter4202"><feGaussianBlur
     id="feGaussianBlur4204"
     stdDeviation="2.0515514"
     inkscape:collect="always" /></filter><radialGradient
   cx="353.10449"
   cy="-347.7803"
   r="296.4624"
   id="XMLID_13_"
   gradientUnits="userSpaceOnUse"
   gradientTransform="matrix(1.0666667,0,0,-1.0666667,-275.17228,-633.45234)">
			<stop
   id="stop5393"
   style="stop-color:#dddddd;stop-opacity:1"
   offset="0.1479" />
			<stop
   id="stop5395"
   style="stop-color:#ffffff;stop-opacity:1"
   offset="0.40239999" />
			<stop
   id="stop5397"
   style="stop-color:#f2f2f2;stop-opacity:1"
   offset="0.43110001" />
			<stop
   id="stop5399"
   style="stop-color:#e2e2e2;stop-opacity:1"
   offset="0.47760001" />
			<stop
   id="stop5401"
   style="stop-color:#dddddd;stop-opacity:1"
   offset="0.51480001" />
			<stop
   id="stop5403"
   style="stop-color:#ffffff;stop-opacity:1"
   offset="0.67460001" />
		</radialGradient><defs
   id="defs5268"><path
     d="m 42.595,-293.204 c 141.887,50.682 283.773,-38.342 425.661,13.991 9.109,100.377 18.219,200.755 27.328,301.131 -159.999,-47.878 -320,63.645 -480,17.628 9.004,-110.917 18.007,-221.834 27.011,-332.75 z"
     id="XMLID_5_"
     inkscape:connector-curvature="0" /></defs><clipPath
   id="XMLID_12_">
				<use
   id="use5272"
   x="0"
   y="0"
   width="480"
   height="347.30399"
   xlink:href="#XMLID_5_" />
			</clipPath><radialGradient
   cx="81.47065"
   cy="-347.54205"
   r="240"
   fx="81.47065"
   fy="-347.54205"
   id="radialGradient2581"
   xlink:href="#linearGradient3322"
   gradientUnits="userSpaceOnUse"
   gradientTransform="matrix(1.7648658,1.6855959,-1.7647948,1.9327335,-1111.95,319.15311)" /><radialGradient
   cx="353.10449"
   cy="-347.7803"
   r="296.4624"
   id="radialGradient2583"
   xlink:href="#XMLID_13_"
   gradientUnits="userSpaceOnUse"
   gradientTransform="matrix(0.921875,0,0,-0.95561806,-203.12626,-569.25274)" /><radialGradient
   cx="477.4104"
   cy="-316.89337"
   r="256"
   fx="477.4104"
   fy="-316.89337"
   id="radialGradient3587"
   xlink:href="#linearGradient3575"
   gradientUnits="userSpaceOnUse"
   gradientTransform="matrix(0.8531379,1.6460269,-0.9375,0.4521984,-261.30048,-909.94726)" /><mask
   id="mask3583"><path
     d="m 42.594996,-293.204 c 141.886994,50.682 283.772994,-38.342 425.661004,13.991 9.109,100.377 18.219,200.755 27.328,301.131 C 335.585,-25.96 175.58399,85.563 15.583996,39.546 c 9.004003,-110.917 18.007003,-221.834 27.011,-332.75 z"
     id="path3585"
     style="fill:url(#radialGradient3587);fill-opacity:1"
     inkscape:connector-curvature="0" /></mask>
			
				
			<filter
   id="filter2937"><feGaussianBlur
     id="feGaussianBlur2939"
     stdDeviation="11.259063"
     inkscape:collect="always" /></filter><linearGradient
   x1="15.584"
   y1="-121.13597"
   x2="495.58401"
   y2="-121.13597"
   id="linearGradient3328"
   xlink:href="#linearGradient3322"
   gradientUnits="userSpaceOnUse" /><radialGradient
   inkscape:collect="always"
   xlink:href="#linearGradient1098"
   id="radialGradient1100"
   cx="-357.12784"
   cy="-247.44977"
   fx="-357.12784"
   fy="-247.44977"
   r="240.00002"
   gradientTransform="matrix(0.89268084,0.24057909,-0.17021556,0.6315932,332.45314,-13.216905)"
   gradientUnits="userSpaceOnUse" /><linearGradient
   inkscape:collect="always"
   id="linearGradient1098"><stop
     style="stop-color:#666666;stop-opacity:1"
     offset="0"
     id="stop1094" /><stop
     style="stop-color:#000000;stop-opacity:1"
     offset="1"
     id="stop1096" /></linearGradient></defs>
<path
   inkscape:connector-curvature="0"
   style="overflow:visible;fill:url(#radialGradient1100);fill-opacity:1;stroke-width:0.9545033"
   id="path5264"
   d="m 31.110248,-296.21944 c 69.597342,25.7701 139.194182,-19.4956 208.791992,7.11396 4.46805,51.03832 8.9367,102.07721 13.40473,153.11503 -78.48149,-24.34438 -156.963969,32.36136 -235.44595,8.96326 4.416575,-56.39764 8.832657,-112.79516 13.249228,-169.19225 z" /><path
   inkscape:connector-curvature="0"
   style="overflow:visible;fill:#80b3ff;stroke-width:0.9545033"
   id="path5405"
   d="m 74.794799,-220.42739 c 0.284991,2.17375 0.69602,4.56089 0.93442,7.2904 -4.61e-4,0.0482 -0.0016,0.0944 -0.0023,0.14231 0.0023,-0.0227 0.0074,-0.0451 0.01,-0.0671 0.0033,0.0299 0.0066,0.0588 0.0081,0.0902 0.02153,-0.19325 0.04312,-0.38488 0.0652,-0.57709 0.420862,-2.49456 1.389627,-4.21012 2.093993,-6.12498 0.801506,-2.01914 2.942103,-5.01905 4.249322,-7.65803 1.646646,-3.4703 3.526289,-7.28482 4.394992,-13.2664 -5.046884,3.96094 -7.366031,9.399 -8.707092,12.96643 -0.262427,0.74386 -0.468439,1.38403 -0.646006,2.01401 0.0932,-1.67643 0.110861,-3.27253 0.03671,-4.26297 -0.231034,-3.8501 -0.758819,-8.56308 -3.455168,-13.90404 -1.864436,6.998 -0.733809,12.72435 -0.167746,16.5643 0.243295,2.15848 1.007025,5.35212 1.185564,6.79312 z m 15.393253,51.09883 c 1.835486,0.84606 5.538866,2.95671 8.137593,3.73261 -0.309988,-0.2593 -0.654327,-0.54604 -1.018296,-0.85012 -2.094488,-1.85384 -3.324687,-3.71589 -3.964809,-5.64143 -0.646505,-2.11167 -1.067354,-4.61177 -1.432307,-6.57649 -0.793647,-3.99049 -1.363619,-7.27669 -5.42997,-12.78079 -0.732331,7.11489 -0.214836,10.16015 1.073236,13.6818 0.433143,1.20503 0.733818,2.30638 1.211582,3.43164 -0.843685,-0.77752 -1.64959,-1.39827 -2.694381,-2.01256 -3.184399,-1.79029 -8.387281,-5.5961 -14.265581,-6.17219 3.214808,6.31206 9.082817,9.433 12.527185,10.95685 1.703564,0.73377 3.998677,1.32055 5.855748,2.23068 z m -15.356957,-33.09101 c 1.224794,1.97594 2.134217,4.97437 3.419358,7.45255 -0.02557,-0.13062 -0.04945,-0.26337 -0.07404,-0.39452 -0.160402,-2.71059 0.0328,-5.75838 0.411032,-7.95391 0.375743,-2.13303 1.321449,-4.76232 1.982164,-6.58723 1.296438,-3.72755 3.014689,-7.99916 2.445206,-14.75621 -4.345454,4.92807 -5.268102,9.60955 -6.244718,13.29746 -0.30802,1.22537 -0.439983,2.94192 -0.447831,4.54868 -0.347284,-1.76435 -0.832889,-3.66198 -1.464175,-4.98899 -1.492147,-3.34774 -3.008814,-6.8857 -8.058635,-10.50031 0.580759,6.87133 2.852831,10.71998 4.752095,13.95944 0.95551,1.57972 2.249986,4.13477 3.279566,5.92304 z m 0.481686,13.91722 c 1.377347,1.27933 3.329101,2.86983 4.904145,4.24467 1.487728,1.24835 3.413457,2.93896 4.800145,5.42839 0.05542,0.11444 0.11038,0.22575 0.166273,0.34025 -0.0074,-0.0217 -0.01274,-0.0423 -0.01969,-0.0643 0.04545,0.0857 0.09172,0.17134 0.135862,0.25883 -0.160879,-0.42512 -0.31835,-0.86899 -0.473829,-1.32255 -0.678878,-2.33236 -0.937861,-4.58893 -1.03744,-6.52264 -0.174629,-2.29265 0.130972,-4.93056 0.29921,-7.00463 0.291864,-4.22584 0.680829,-9.17626 -1.680974,-15.88751 -3.052469,6.45396 -2.641902,10.88118 -2.590892,14.96161 0.0466,1.51473 0.23986,2.73965 0.550359,3.93197 -0.566547,-0.9859 -1.102181,-1.83859 -1.891414,-2.76249 -2.464837,-2.79251 -6.276111,-7.62344 -11.247448,-10.2634 1.416595,7.28889 5.317638,12.0288 8.085605,14.66166 z m 119.606029,-52.71572 c -1.34789,-3.28832 -3.67984,-8.37397 -8.73505,-11.65767 0.881,5.58914 2.76941,9.02072 4.42347,12.17684 1.31314,2.38971 3.46011,5.09424 4.26648,6.95985 0.70875,1.7684 1.67997,3.34463 2.10777,5.67301 0.0202,0.17891 0.0425,0.35636 0.0649,0.53641 0.005,-0.0287 0.01,-0.0552 0.01,-0.0839 0.007,0.0209 0.01,0.0414 0.0108,0.0619 -0.002,-0.0444 -0.005,-0.0866 -0.006,-0.13122 0.23199,-2.56824 0.63915,-4.81415 0.91871,-6.85159 0.17464,-1.35305 0.93149,-4.3423 1.17186,-6.35279 0.55769,-3.58568 1.6756,-8.87727 -0.20406,-15.45686 -2.68456,4.91741 -3.20356,9.39141 -3.4238,12.99744 -0.0736,0.93151 -0.0517,2.42841 0.0453,3.9996 -0.17906,-0.58676 -0.38699,-1.18118 -0.65089,-1.87118 z m -9.01415,-14.24415 c 1.26256,1.07685 3.58317,2.54533 4.73397,3.70002 1.1787,1.12683 2.52616,3.13733 3.55963,5.14169 0.13054,0.2999 0.25363,0.59744 0.36295,0.8857 -0.0231,-0.098 -0.042,-0.19166 -0.0636,-0.28727 0.0103,0.0202 0.0199,0.0395 0.0302,0.061 -0.0174,-0.052 -0.0334,-0.10576 -0.0518,-0.15863 -0.70534,-3.24248 -0.60921,-5.10092 -0.67004,-6.97665 -0.10986,-1.90014 0.1138,-4.08353 0.33453,-5.75944 0.34234,-3.393 0.45274,-7.43174 -1.92773,-12.94908 -2.74493,5.17107 -2.25833,8.34392 -2.15531,11.64995 0.0548,1.20357 0.232,2.52609 0.48712,3.90554 -0.59847,-0.86136 -1.24202,-1.622 -1.93118,-2.29368 -2.38439,-2.24384 -5.22199,-5.22551 -10.88593,-6.31616 2.4496,5.03481 5.50159,7.05697 8.17731,9.39748 z m -1.23314,-9.09801 c 1.18218,0.92136 3.10744,2.79498 4.11301,4.28739 -0.97028,-1.53155 -1.76006,-4.16235 -2.23192,-5.9364 -0.47131,-1.77245 -0.83577,-2.70547 -1.5137,-4.02451 -1.23854,-2.29111 -2.89297,-5.19448 -7.21935,-7.21971 0.19421,4.95811 2.02588,7.50908 3.54938,9.71278 0.76915,1.06873 2.11998,2.25554 3.30258,3.18045 z m -105.745638,24.24372 c -0.05595,1.99822 0.04474,3.97213 -0.653848,7.44798 -0.01678,0.0573 -0.03323,0.11432 -0.051,0.17136 0.01039,-0.0208 0.02051,-0.0433 0.03028,-0.0656 -0.02057,0.10323 -0.04014,0.20342 -0.06277,0.30863 0.108884,-0.31117 0.232004,-0.63154 0.360504,-0.95591 1.028619,-2.16961 2.371146,-4.36772 3.547386,-5.63785 1.149273,-1.29104 3.464998,-3.03452 4.72512,-4.30574 2.669855,-2.73348 5.717405,-5.27787 8.154763,-10.92337 -5.660015,2.00237 -8.491755,5.33944 -10.870739,7.90923 -0.686228,0.76114 -1.328299,1.60876 -1.924761,2.55656 0.251631,-1.47713 0.426739,-2.89016 0.478247,-4.16791 0.09515,-3.52367 0.57488,-6.86378 -2.182789,-12.28911 -2.366221,5.90885 -2.248013,10.21306 -1.896307,13.82519 0.222692,1.78268 0.45224,4.10077 0.3458,6.12655 z m 117.557148,18.57924 c -0.0117,-1.50554 -0.14812,-3.10723 -0.45765,-4.24052 -0.9839,-3.40623 -1.91785,-7.81521 -6.27414,-12.12334 -0.55322,6.44627 1.17482,10.32541 2.4796,13.73818 0.66313,1.66727 1.61576,4.07588 1.99537,6.05885 0.38112,2.03857 0.58421,4.88844 0.43166,7.45212 -0.0264,0.12966 -0.0513,0.26235 -0.0762,0.39048 1.27924,-2.43454 2.18179,-5.30484 3.40216,-7.20239 1.02566,-1.71609 2.3152,-4.12467 3.26683,-5.59115 1.89288,-3.02176 4.1561,-6.47374 4.72167,-12.77565 -5.04199,3.00707 -6.55128,6.43515 -8.0356,9.57491 -0.62683,1.25339 -1.11099,3.04974 -1.45387,4.71851 z m -103.657007,23.30915 c -0.03593,0.0121 -0.07109,0.0257 -0.106449,0.0384 0.06135,0.84917 0.27224,0.77288 0.522893,1.43746 0.130953,0.35897 -0.0056,0.52474 0.361992,1.20303 0.173627,0.28576 0.293335,0.59083 0.645041,0.63663 -0.190331,-0.91882 -0.354658,-1.43695 -0.745582,-2.22557 -0.268809,-0.48153 -0.439017,-0.47798 -0.677898,-1.08967 z m 54.596027,32.75088 c -7.89041,1.72217 -7.66579,4.25586 -11.76741,4.95754 0,-5.9e-4 0,-0.002 0,-0.002 -0.0269,0.01 -0.0548,0.0109 -0.0815,0.0156 0,4.9e-4 0,0.002 0,0.002 -4.10163,0.91122 -3.87988,-1.68757 -11.77132,-0.37775 -3.03285,0.51146 -17.26989,9.14828 -25.830829,8.93678 0.487077,2.19763 8.677159,4.42414 16.009289,2.65625 3.80539,-0.8934 14.85664,-10.18004 19.2168,-7.88583 -0.005,-5.5e-4 -5.2975,2.94049 -11.16493,8.86358 -3.59888,3.67971 -6.51943,9.05122 -7.11008,11.11607 2.24558,-0.4266 4.4863,-0.0317 6.74561,-1.87108 1.97576,-1.50512 5.59959,-13.24258 13.94817,-17.00165 8.35142,0.44038 11.98512,10.64273 13.96195,11.34542 2.26181,0.92747 4.50047,-0.33004 6.746,-0.75196 -0.59248,-1.8076 -3.51697,-5.99847 -7.1198,-8.24633 -5.87243,-3.58678 -11.16898,-4.415 -11.17186,-4.41559 4.35763,-4.023 15.41633,0.90912 19.22214,0.43272 7.33079,-0.98024 15.5184,-5.57531 16.00304,-7.79685 -8.55894,2.53836 -22.80204,-0.64578 -25.83529,0.0231 z m 24.22489,-10.74954 c -0.59894,0.26142 -1.14973,0.49531 -1.68681,0.72263 0.39921,-0.41188 0.7848,-0.84358 1.16836,-1.30782 2.74735,-3.41236 5.55797,-6.95434 7.03687,-13.78301 -6.58121,4.28989 -8.94981,7.91886 -11.51037,11.62102 -1.23413,1.84013 -2.65712,4.21569 -4.57446,5.86917 -1.96309,1.73388 -5.65754,3.38795 -8.45593,4.6113 0.0137,-0.005 0.0294,-0.01 0.0419,-0.01 -0.0371,0.0129 -0.0768,0.0268 -0.11287,0.0406 0.16535,-0.0378 0.35217,-0.0803 0.55379,-0.12764 1.0664,-0.21409 2.30347,-0.49224 3.58962,-0.81863 2.60852,-0.58274 5.53884,-1.18219 6.97849,-1.34341 2.35841,-0.32588 4.1836,-0.54249 6.5498,-0.7754 5.49375,-0.68745 13.57838,-3.84957 18.70327,-8.92613 -7.41169,0.33665 -14.48534,2.85099 -18.28143,4.22636 z m 22.71463,-32.07091 c -0.78677,0.93707 -1.32139,1.79383 -1.88499,2.78427 0.30805,-1.15873 0.49887,-2.33533 0.54155,-3.76873 0.0423,-3.8552 0.44289,-8.0775 -2.62333,-13.89286 -2.34702,6.60445 -1.94676,11.29257 -1.64568,15.25601 0.17365,1.94646 0.48413,4.40999 0.3149,6.61007 -0.095,1.85085 -0.34971,4.02861 -1.02267,6.35182 -0.15494,0.45562 -0.3115,0.90251 -0.47137,1.33314 0.0442,-0.091 0.09,-0.17939 0.13492,-0.26741 -0.01,0.0209 -0.0129,0.0413 -0.0206,0.0622 0.0565,-0.11687 0.11086,-0.2318 0.16634,-0.34926 1.37978,-2.59011 3.30208,-4.45112 4.78788,-5.79147 1.57162,-1.47501 3.5194,-3.1352 4.8943,-4.41298 2.7621,-2.66383 6.65237,-7.08094 8.05325,-13.75146 -4.96595,2.22756 -8.76645,7.00009 -11.22489,9.8363 z m -86.12116,47.99053 c 1.43967,-0.31016 4.36989,-0.69914 6.97953,-1.0464 1.28556,-0.12963 2.52312,-0.29906 3.58901,-0.47647 0.20164,-0.0271 0.38903,-0.0521 0.55425,-0.0752 -0.0366,-4.6e-4 -0.0762,0 -0.11371,5.7e-4 0.0138,-0.005 0.0287,-0.008 0.0414,-0.01 -2.80035,-0.19724 -6.49685,-0.56894 -8.46282,-1.6779 -1.92132,-1.03677 -3.34873,-3.00863 -4.58728,-4.50708 -2.56781,-3.02233 -4.94191,-5.94549 -11.531945,-8.77053 1.493606,6.74431 4.312095,9.6685 7.066345,12.36743 0.38455,0.36407 0.76815,0.69405 1.17083,0.99606 -0.5391,-0.0704 -1.08894,-0.1464 -1.68834,-0.24049 -3.799017,-0.28932 -10.874659,-0.96048 -18.285801,-0.11593 5.136147,4.56044 13.225672,5.83667 18.720401,4.83706 2.3633,-0.47647 4.19044,-0.83542 6.54836,-1.2849 z m 75.8734,-28.92616 c 0.47483,-1.16637 0.77257,-2.2739 1.20377,-3.50181 1.28018,-3.58975 1.79085,-6.55918 1.04227,-13.22268 -4.05257,5.90232 -4.61515,9.23585 -5.40053,13.209 -0.36006,1.96056 -0.77403,4.45002 -1.41654,6.62575 -0.63778,1.99878 -1.86447,4.06977 -3.95451,6.40217 -0.36161,0.3864 -0.70539,0.75255 -1.01301,1.08403 2.59586,-1.45681 6.29333,-4.35043 8.12691,-5.52603 1.85457,-1.26044 4.1477,-2.23927 5.84932,-3.20488 3.43993,-2.04305 9.30113,-5.60328 12.50116,-11.55791 -5.8768,0.70727 -11.0708,5.03686 -14.25032,7.28728 -1.04278,0.76124 -1.84773,1.5015 -2.68852,2.40508 z m -40.72971,-15.51536 c -0.0484,-0.18909 -0.0954,-0.37882 -0.1437,-0.56793 -0.20992,0.31928 -0.27514,0.51919 0.1437,0.56793 z m -12.0254,-17.63365 c -0.0387,-0.0799 -0.0761,-0.15913 -0.11427,-0.23891 -0.15603,0.0659 -0.4022,0.22822 -0.5337,0.39865 -0.13047,0.16985 -0.0295,0.35693 -0.19867,0.60201 -0.19661,0.3706 -0.58765,0.65131 -0.67837,0.7474 -0.14368,0.11854 -0.0548,0.25274 -0.27709,0.51971 -0.31443,0.36298 -0.55866,0.29388 -0.75446,0.43518 -0.24811,0.16168 -0.57676,0.7038 -0.74797,0.94887 -0.23747,0.44586 -0.29242,0.69914 -0.36249,1.13026 -0.0269,0.12712 -0.0935,0.32803 -0.0172,0.41032 0.0762,0.082 0.23252,0.0156 0.32521,-0.0801 0.19568,-0.14037 0.61409,-0.54813 0.78333,-0.56286 0.15552,-0.066 0.23299,0.0166 0.34876,0.0235 0.1688,-0.0142 0.27222,-0.0579 0.38947,-0.0504 0.11622,0.01 0.25806,0.12001 0.38751,0.17998 0.29725,0.0456 0.53466,-0.39965 0.58862,-0.65234 0.027,-0.12612 0.0545,-0.2522 0.0169,-0.40881 0.0641,0.03 0.12849,0.0595 0.19278,0.0896 0.34092,-0.48912 0.39532,-0.74237 0.63224,-1.1878 0.1967,-0.37066 0.35315,-0.43674 0.48413,-0.60757 0.0785,-0.14802 0.0545,-0.25269 0.0676,-0.43121 0.0545,-0.25274 0.19715,-0.37068 0.10987,-0.73624 -0.024,-0.3315 -0.29236,-0.73475 -0.64256,-0.52885 z m -0.12559,-1.95706 c -0.25842,0.1093 -0.31048,0.13218 -0.30013,0.41499 -0.0865,0.0363 -0.17265,0.0735 -0.259,0.10976 0.03,0.045 0.0601,0.0893 0.09,0.13376 0.29726,-0.18353 0.50469,-0.27109 0.46935,-0.65851 z m 0.4577,0.72456 c -0.18049,-0.0375 -0.37525,0.10225 -0.51753,0.22018 -0.0129,-0.0516 -0.10246,-0.1866 -0.16583,-0.2166 -0.46248,-0.2629 -0.8363,1.04337 -0.1991,0.602 0.17805,0.26847 0.73279,0.43478 1.0536,0.58577 0.0915,-0.0959 0.1315,-0.17034 0.15851,-0.29638 0.0921,-0.32705 -0.0328,-0.84917 -0.32964,-0.89497 z m -3.19916,2.39086 c -0.0392,0.0745 -0.1187,0.22263 -0.1457,0.34932 -0.0141,0.17944 0.17806,0.26946 0.32233,0.15144 0.1432,-0.1184 0.28888,-0.46718 0.41941,-0.63759 0.13139,-0.17081 0.18338,-0.19216 0.3266,-0.31063 0.13101,-0.17034 0.30125,-0.41488 0.43264,-0.5857 0.39199,-0.51106 0.44192,-0.30259 0.52482,-0.91173 -0.0259,-0.10474 0.0143,-0.17946 -0.0109,-0.28325 -0.26685,-0.40375 -0.97029,0.23908 -1.0335,0.20848 -0.11234,0.0103 -0.22416,0.0185 -0.33604,0.0278 -0.11628,-0.01 -0.31151,0.13171 -0.46643,0.19678 0.39725,0.23442 0.40948,0.28681 0.87556,0.0893 -0.0294,0.35694 -0.38411,1.02506 -0.75838,0.8964 -0.24377,-0.069 -0.29327,-0.27863 -0.40902,-0.28627 -0.18052,-0.0391 -0.14569,0.34937 -0.22515,0.4973 -0.17319,0.47645 -0.54839,0.57711 -0.50475,1.24831 0.0613,-0.0645 0.12213,-0.12818 0.18295,-0.19169 0.25405,0.35032 0.57048,-0.24411 0.80535,-0.45816 z m 1.80262,-2.02827 c 0.009,0.017 0.01,0.0348 0.0136,0.052 -0.0211,-0.0103 -0.0432,-0.0197 -0.0651,-0.0298 0.017,-0.01 0.0353,-0.0141 0.0516,-0.0232 z m 6.39238,8.87271 c 0.0924,-0.096 0.0924,-0.32599 0.0673,-0.4302 -0.0249,-0.10424 -0.10349,-0.18502 -0.16824,-0.21507 -0.11717,-0.01 -0.16971,0.0142 -0.27319,0.0596 -0.0264,-0.10378 -0.0517,-0.20746 -0.0769,-0.31125 -0.0517,0.0227 -0.10448,0.0444 -0.15599,0.0672 0.0116,0.12869 0.024,0.25732 0.0363,0.38595 -0.048,-0.0368 -0.094,-0.0738 -0.14175,-0.11189 0.0335,0.21509 0.0673,0.43018 0.10105,0.64529 0.14177,0.34117 0.53271,0.0583 0.6117,-0.0898 z m 7.21983,-24.59101 c 0.16581,-0.24091 0.15356,-0.52216 0.2556,-0.7937 0.15353,-0.52111 0.52382,-0.84702 0.49645,-1.40842 -0.16098,0.0296 -0.32281,0.0583 -0.48467,0.087 0,0.22876 0.0265,0.56179 -0.21629,0.71998 -0.0513,0.0205 -0.26838,0.055 -0.33262,0.0237 -0.0379,0.22573 -0.0762,0.45203 -0.11472,0.67778 -0.0642,0.19877 -0.16579,0.6991 -0.12713,0.85472 0.0134,0.28113 0.37042,0.13118 0.52338,-0.16123 z m 10.21495,-4.19426 c -0.10101,0.0414 -0.20405,0.0826 -0.29279,0.17491 0.0267,0.10319 0.091,0.13571 0.16823,0.2176 0.0643,0.0308 0.12897,0.0626 0.19278,0.0933 0.359,0.0845 0.48355,-0.30815 0.32815,-0.47439 -0.0773,-0.0835 -0.2948,-0.0525 -0.39638,-0.0111 z m -16.36588,35.20823 c 0.13039,0.0588 0.1696,0.21509 0.20789,0.37061 -0.13532,0.0769 -0.27126,0.15413 -0.40656,0.23138 -0.0486,0.11644 -0.096,0.23291 -0.14471,0.34984 -0.0663,0.12354 -0.1319,0.24717 -0.19816,0.37063 0.24868,-0.011 0.49732,-0.0217 0.74601,-0.0326 -0.34034,0.25928 -0.56355,0.29846 -0.74901,0.72199 0.29779,-0.12757 0.59545,-0.25524 0.89272,-0.38236 0.59058,-0.19575 1.0478,-0.22115 1.56084,-0.72708 -0.0432,-0.0186 -0.0874,-0.039 -0.13151,-0.0581 0.0315,-0.18506 0.0623,-0.37072 0.0926,-0.55575 -0.14369,-0.0332 -0.28696,-0.0676 -0.43064,-0.10173 -0.0615,-0.0884 -0.12216,-0.17794 -0.18354,-0.26591 -0.26092,-0.19424 -0.52182,-0.38745 -0.78281,-0.5817 -0.0779,-0.01 -0.15652,-0.0103 -0.23498,-0.0139 0.15696,-0.29746 0.48509,-0.83899 -0.0769,-0.76982 -0.0917,0.0201 -0.18249,0.0391 -0.27373,0.0583 0.0657,-0.12305 0.13151,-0.24611 0.19624,-0.36964 -0.32676,0.0814 -0.60146,0.14187 -0.8109,0.46119 -0.23734,0.44491 -0.18681,0.88219 0.28313,0.91114 -0.0399,0.53289 0.23637,0.24256 0.44389,0.38236 z m 5.52457,3.93964 c 0.40714,0.22626 0.80206,-0.74244 0.18397,-0.65139 -0.0518,0.0227 -0.17174,0.0165 -0.2104,0.0894 -0.10604,0.0457 -0.21052,0.0901 -0.30165,0.18615 0.0614,0.0881 0.12307,0.17699 0.18394,0.26495 0.0129,0.0525 0.092,0.13313 0.14414,0.11084 z m -12.63561,-20.87716 c 0.036,-0.0916 0.0705,-0.18255 0.10602,-0.27406 0.30994,-0.13173 0.29962,-0.41498 0.13383,-0.63159 -0.0643,-0.0302 -0.18048,-0.0391 -0.24424,-0.069 -0.60434,-0.14648 -0.59592,0.36762 -0.70238,0.64261 -0.0526,0.17547 -0.106,0.35095 -0.15938,0.52679 0.0676,0.0482 0.13685,0.0955 0.20503,0.14284 0.34968,-0.20532 0.47818,-0.14483 0.8137,-0.17174 -0.0508,-0.0552 -0.10147,-0.11044 -0.15257,-0.16579 z m 14.25632,-16.43569 c 0.28151,-0.23184 0.30706,-0.35639 0.49829,-0.49265 0.0891,-0.0939 0.75249,-0.14087 0.5479,-0.51356 -0.0645,-0.0308 -0.12794,-0.0616 -0.19318,-0.0919 -0.007,0.0582 -0.01,0.11747 -0.0114,0.17647 -0.19129,-0.092 -0.44686,-0.21513 -0.67688,-0.23444 -0.23059,-0.0175 -0.9575,0.22632 -1.21305,0.33205 0.18739,0.0745 0.37428,0.14949 0.56212,0.22423 0.16188,0.19978 0.32376,0.40014 0.48613,0.59994 z m -56.867099,-11.53054 c 1.181138,-1.09158 2.528106,-2.498 3.294756,-3.71534 1.518143,-2.49955 3.342363,-5.42988 3.525808,-10.63712 -4.32093,2.70562 -5.968067,5.87384 -7.200711,8.41259 -0.675932,1.45123 -1.038423,2.46503 -1.504908,4.3749 -0.467455,1.90974 -1.251302,4.75413 -2.2176,6.4422 1.002112,-1.64589 2.922473,-3.78392 4.102655,-4.87723 z m 43.029239,27.32958 c 0.017,0.0698 0.0331,0.13878 0.0492,0.20848 0.1035,-0.0433 0.20651,-0.0876 0.29869,-0.18306 0.16925,-0.24454 -0.01,-0.74336 -0.18637,-0.78254 -0.1687,0.0142 -0.23396,0.21363 -0.20894,0.31787 -0.01,0.0595 -0.0103,0.11898 -0.0139,0.1784 0.0202,0.087 0.0414,0.17391 0.0617,0.26085 z m 0.36388,1.05105 c -0.0738,-0.31268 -0.0103,-0.28222 0.26205,-0.34022 -0.0237,-0.18094 -0.0486,-0.36203 -0.0727,-0.54352 -0.14322,0.11846 -0.34974,0.20648 -0.48012,0.37578 -0.19771,0.37072 -0.13492,0.63255 0.29079,0.50796 z m -32.468936,43.11696 c -0.01418,0.0165 -0.02843,0.0331 -0.04256,0.0494 0.362992,0.3376 0.725971,0.67524 1.089916,1.01134 0.0168,-0.0197 0.0338,-0.0386 0.0506,-0.0579 9.2025,8.11969 22.11768,11.41253 36.39649,8.61952 29.58379,-6.28312 52.4461,-31.73184 51.0643,-60.06511 -1.38178,-28.75736 -24.29707,-51.03533 -51.18441,-46.85522 -26.88751,4.17351 -49.749273,30.0992 -51.064332,60.39871 -0.557224,15.01092 4.600017,28.30939 13.690194,36.89837 z m -11.865968,-34.86663 c 2.680144,-0.19467 5.360799,-0.43266 8.040974,-0.70672 0.02153,1.30568 0.106927,2.58653 0.235446,3.84809 -0.256063,-0.0752 -0.66907,-0.35806 -0.917765,-0.41551 -0.06327,-0.0338 -0.253586,-0.1403 -0.347292,-0.0486 -0.104473,0.0378 -0.112317,0.27254 -0.143695,0.39966 0.03593,0.45148 0.162831,0.52221 0.438511,0.77132 0.06378,0.0363 0.264388,0.19478 0.129515,0.36003 -0.229075,0.25726 -0.667101,-0.51455 -0.904509,-0.0234 -0.03089,0.12714 -0.02025,0.18209 -0.06137,0.25429 -0.03485,0.0112 -0.06964,0.0247 -0.104951,0.0367 -0.114785,-0.28826 -0.229568,-0.5766 -0.344338,-0.86491 -0.02557,-0.12609 -0.05099,-0.25213 -0.07703,-0.37879 -0.145678,-0.25827 -0.291369,-0.51613 -0.436563,-0.77438 -0.131471,0.18203 -0.263395,0.36402 -0.394868,0.54606 -0.05007,-0.15661 -0.100065,-0.3132 -0.150084,-0.46977 -0.06037,-0.11445 -0.12066,-0.22836 -0.180519,-0.34272 -0.106428,-0.25425 -0.31686,-0.1805 -0.504238,0.002 -0.364444,0.41797 -0.592048,0.96251 -0.822103,1.21626 -0.282535,0.27204 -0.52387,0.18051 -0.723002,0.30708 -0.239868,0.19933 -0.385551,0.59746 -0.436073,0.9071 -0.06523,0.7973 -0.13097,1.59612 -0.196194,2.39336 -0.189856,1.86866 -0.377704,2.33997 -0.0081,4.18981 0.103999,0.3325 0.207988,0.66504 0.312466,0.99708 0.112316,0.46472 0.224646,0.92997 0.336968,1.39473 0.08291,0.22321 0.165311,0.44691 0.247711,0.66963 0.03534,-0.0111 0.07109,-0.0239 0.106453,-0.0364 -0.142725,-0.70624 -0.246227,-2.0654 -0.113799,-2.80976 0.121636,-0.79728 0.415452,-1.01593 0.346302,-1.922 0.06524,0.22981 0.130472,0.45911 0.19522,0.68843 0.261441,-0.38237 0.216798,-0.59898 0.604787,-0.90962 0.160405,0.2344 0.224171,0.27001 0.341894,0.57764 0.107427,0.2527 0.151565,0.4693 0.31148,0.70267 0.160879,0.23441 0.277135,0.25068 0.426751,0.43017 0.138314,0.12558 0.246724,0.37678 0.342849,0.57457 0.182967,0.34221 0.357108,0.91986 0.811802,0.92946 0.133428,-0.45505 0.03486,-0.94166 -0.0018,-1.3937 0.03089,-0.12763 0.01715,-0.47031 0.110862,-0.56187 0.253098,-0.14949 0.405158,0.31884 0.438512,0.48002 0.19377,0.39455 0.357087,0.91674 0.645523,1.21675 0.311965,0.40981 0.510617,0.27864 0.930986,0.93661 0.0168,-0.10273 0.03281,-0.20491 0.04947,-0.30715 0.183945,0.33818 0.02903,0.68542 0.453244,0.81966 -0.04362,-0.21558 -0.181494,-1.15167 -0.109861,-1.35248 0.02986,-0.12713 0.188836,-0.18564 0.294304,-0.22476 0.144199,0.60404 0.288915,1.20861 0.433617,1.81215 0.04474,0.21508 0.153536,0.46374 0.29283,0.58628 0.331086,0.22475 0.656807,-0.12916 0.817682,0.10069 0.103016,0.30862 0.206021,0.61778 0.309505,0.92641 0.252627,0.66052 0.592557,1.45825 0.939837,2.02165 0.261449,0.42404 0.609697,0.98646 1.007027,1.23965 0.0888,0.0768 0.20503,0.15864 0.32913,0.17948 1.64027,2.791 3.63324,5.28143 5.92687,7.41297 -1.98414,2.30841 -3.97758,4.61022 -5.97885,6.90239 -8.315167,-7.83241 -13.225687,-19.73308 -13.251183,-33.28723 z m 45.216944,-48.12529 c 0.61315,0.0332 0.99959,0.27555 1.67646,0.10936 -0.28694,-0.2065 -0.57331,-0.41289 -0.85985,-0.61989 0.13058,-0.14953 0.26099,-0.29952 0.39101,-0.449 -0.24976,-0.12654 -0.34978,-0.085 -0.58663,-0.15913 -0.1006,-0.0513 -0.13784,-0.12862 -0.21288,-0.19015 0.1721,-0.0426 0.34629,-0.0795 0.51799,-0.12002 0.008,0.004 0.01,0.01 0.0103,0.01 0.17457,0.0421 1.02611,-0.0801 1.23898,-0.1103 0.20409,-0.0619 0.32375,-0.15209 0.43068,-0.25678 0.0379,-0.01 0.0762,-0.0138 0.11332,-0.0203 -0.005,3.59077 -0.01,7.18157 -0.01,10.77184 -7.65341,1.55233 -14.60303,5.95924 -19.95156,12.02576 -2.18479,-2.07458 -4.35772,-4.17099 -6.51842,-6.29332 6.27856,-7.70172 14.56183,-13.48301 23.7707,-15.90786 -0.0455,0.0186 -0.0869,0.0363 -0.11574,0.0481 -0.28847,0.17695 -0.52731,0.33305 -0.85496,0.58267 -0.28895,0.17697 -0.67938,0.39559 -0.64453,0.78357 0.67738,-0.16423 0.92852,-0.26847 1.60393,-0.20237 z m -3.45225,33.04624 c -0.01,-0.003 -0.01,-0.009 -0.0142,-0.01 0.0779,-0.14795 0.11729,-0.22167 -0.0109,-0.2837 -0.12797,-0.0604 -0.41005,-0.0574 -0.65283,-0.12761 -0.44687,-0.21408 -0.46797,-0.54966 -0.57788,-1.02152 -0.0985,-0.41796 -0.14957,-0.3966 -0.3369,-0.71948 -0.0886,-0.13628 -0.11238,-0.24151 -0.2527,-0.35442 -0.13929,-0.11437 -0.44488,-0.21607 -0.6357,-0.30863 -0.25455,-0.12404 -0.57238,-0.27863 -0.84167,-0.22272 -0.19671,0.0232 -0.36057,0.12309 -0.51948,0.21866 -0.86084,-0.78202 -1.71974,-1.56559 -2.57618,-2.35215 3.4027,-3.77591 7.76877,-6.54496 12.57187,-7.64936 -0.004,2.86217 -0.009,5.72425 -0.01,8.58643 0.35961,-0.0583 0.71913,-0.11743 1.07866,-0.17643 -0.0663,0.0789 -0.13246,0.15761 -0.19871,0.23594 -0.10738,0.14187 -0.2521,0.2944 -0.41594,0.3925 -2.40838,0.58885 -4.7069,1.91491 -6.61107,3.78864 z m 3.22946,0.2914 c -0.0294,0.0301 -0.0579,0.0614 -0.0865,0.0913 -0.099,0.0308 -0.87115,0.32037 -0.7255,0.30864 -0.18186,0.0391 -0.38554,-0.0201 -0.5773,-0.0986 0.72447,-0.61273 1.49759,-1.14654 2.31081,-1.5742 -0.1089,0.22525 -0.21777,0.45098 -0.32717,0.67672 4.9e-4,-0.0768 0.002,-0.15352 0.003,-0.23027 -0.48906,0.32131 -0.41402,0.63457 -0.59597,0.82628 z m -18.44669,29.9593 c -0.20204,-0.12819 -0.40409,-0.2563 -0.60625,-0.38438 0.32333,0.15603 0.5823,0.27966 0.97473,0.23233 0.0206,-0.1622 0.0422,-0.32494 0.0627,-0.48709 0.11526,-0.50901 0.26245,-0.6274 0.19423,-1.17709 -0.15055,-0.91783 -1.1444,-2.0085 -1.39309,-3.1189 -0.1069,-0.47492 -0.0551,-1.01548 -0.0572,-1.53507 -0.0278,-0.29643 -0.0557,-0.59238 -0.0839,-0.88837 -0.0362,-0.15914 0.0454,-0.30761 0.0513,-0.54093 -0.0265,-0.20093 -0.0517,-0.40176 -0.0779,-0.60307 0.0336,-0.36005 0.0634,-0.48716 -0.01,-0.80542 -0.11967,-0.2786 -0.2389,-0.55673 -0.35809,-0.83544 -0.03,-0.21858 -0.0594,-0.4373 -0.0887,-0.65541 -0.063,-0.28263 -0.12559,-0.56486 -0.18836,-0.84761 -0.14029,-0.63506 0.16676,-1.04894 0.17654,-1.51518 0.008,-0.23289 -0.33253,-0.73014 -0.46011,-0.79418 -0.17998,-0.0423 -0.53464,0.15853 -0.43604,-0.16987 0.0975,-0.32803 0.63326,0.0329 0.77206,0.14892 0.0924,-0.61374 -0.0362,-0.67781 -0.19426,-1.13337 -0.1187,-0.45204 -0.2374,-0.90451 -0.35662,-1.35652 -0.13437,-0.34993 -0.38893,-0.47803 -0.42427,-0.6376 0.0177,-0.18056 0.17315,-0.24356 0.33504,-0.5396 0.0572,-0.10323 0.0945,-0.20784 0.12506,-0.3121 0.72987,-0.10636 1.45928,-0.21466 2.18869,-0.32447 -0.01,0.20954 -0.0206,0.41846 -0.0241,0.62803 -0.0911,5.74106 1.74629,10.71846 4.92179,14.29095 -1.35672,1.61896 -2.71787,3.23689 -4.08297,4.85377 -0.33212,-0.31063 -0.80643,-0.1815 -1.20081,-0.75858 0.28306,0.2283 0.80007,0.4774 1.15273,0.50329 -0.20013,-0.37826 -0.61951,-0.95531 -0.91433,-1.23707 z m -4.2949,-17.54057 c -0.0301,-0.0227 -0.0454,-0.0534 -0.0656,-0.082 0.21288,-0.0302 0.4257,-0.0611 0.63857,-0.091 -0.20303,0.13681 -0.4051,0.2583 -0.5729,0.17292 z m -0.0733,25.31146 c -0.5268,0.61679 -1.05409,1.23358 -1.58239,1.84985 -0.89226,-0.82682 -1.73592,-1.71106 -2.53007,-2.64859 0.0844,0.0392 0.1663,0.0799 0.25456,0.11643 0.25115,0.0928 0.5028,0.18558 0.75395,0.27857 0.20795,0.0707 0.41645,0.14187 0.6244,0.21256 0.54841,0.12812 0.54891,-0.39305 0.86725,-0.5212 0.17069,-0.0109 0.80734,0.25273 1.00211,0.34577 0.30903,0.18006 0.48464,0.28523 0.61019,0.36661 z m -0.61703,-26.93699 c -0.0607,-0.23088 -0.14866,-0.4953 -0.38411,-0.72048 -0.22516,-0.25832 -0.45665,-0.2828 -0.58321,0.17236 -0.0298,0.12712 -0.0584,0.25425 -0.0874,0.38082 -0.25952,-0.41751 -0.18396,-0.85222 -0.57095,-0.8156 -0.19332,0.03 -0.32232,0.15353 -0.42338,0.31678 0.8398,-7.4317 3.98056,-14.42115 8.54327,-20.06155 1.69078,1.59913 3.38852,3.18508 5.09348,4.75974 -1.44651,1.81071 -2.69635,3.79727 -3.7024,5.91296 -0.361,0.42915 -0.70237,0.88267 -0.93589,1.36015 -0.26728,0.57102 -0.15643,0.81404 -0.42573,1.38504 -0.27962,0.51862 -0.98496,1.15071 -1.41466,2.01818 -0.30951,0.64422 -0.23984,0.96146 -0.35956,1.18418 -0.0803,0.14792 -0.68475,0.73874 -0.82893,0.85518 -0.14421,0.11644 -0.29971,0.17856 -0.39191,0.27365 -0.13193,0.16928 -0.20114,0.37015 -0.2703,0.57102 -0.15154,0.2537 -0.3031,0.50685 -0.45468,0.76011 -0.0869,0.22011 -0.38801,0.92544 -0.51015,1.32256 -0.76519,0.10983 -1.52942,0.21815 -2.29363,0.3249 z m 11.93169,-13.10581 c 0.15453,-0.064 0.35955,-0.14844 0.46256,-0.19118 0.46897,-0.004 0.93782,-0.01 1.40677,-0.01 0.22514,-0.0263 0.44391,-0.0613 0.647,-0.0364 0.085,0.0776 0.1702,0.15558 0.25556,0.2334 -0.50083,0.19118 -0.44099,0.0578 -0.94621,0.10926 -0.48606,0.0876 -0.61751,0.25628 -0.98936,0.35344 -0.21829,0.0331 -0.33305,0.0227 -0.49984,0.0338 -0.45567,0.22728 -0.9114,0.45456 -1.36756,0.68133 -0.1349,0.0338 -0.23051,0.0176 -0.31438,-0.01 0.63423,-1.05357 1.33712,-2.06135 2.09788,-3.01775 0.34488,0.31728 0.69066,0.63406 1.03595,0.95034 -0.12751,0.066 -0.26094,0.15254 -0.37126,0.19882 -0.20555,0.0851 -0.29383,-0.0518 -0.4601,-0.0399 -0.16582,0.012 -0.89868,0.2573 -0.97813,0.40476 -0.09,0.0959 -0.006,0.23387 0.0206,0.33811 z m -1.68149,9.05021 c -0.0713,0.43322 -0.32321,0.82531 -0.39534,1.25851 -0.10795,0.27564 -0.0614,0.48601 -0.28403,0.75154 -0.18395,0.19061 -0.50763,0.26788 -0.71515,0.35334 -0.21436,0.12918 -0.39046,0.30251 -0.55918,0.46783 -0.2379,0.0368 -0.4753,0.0736 -0.7132,0.10976 0.0131,-0.0819 0.0343,-0.16063 0.0418,-0.24459 0.01,-0.23282 -0.0211,-0.85573 -0.17265,-1.02503 -0.0756,-0.0838 -0.12805,-0.0619 -0.24387,-0.0728 0.103,0.45969 0.0956,0.91168 -0.01,1.40086 -0.12115,0.0185 -0.24281,0.0368 -0.36397,0.0553 0.0925,-0.85727 0.23397,-1.70636 0.41202,-2.54637 0.0556,-0.0202 0.12314,-0.088 0.19085,-0.15862 0.13439,-0.24917 0.23985,-0.97473 0.17361,-1.3312 0.30364,-1.10539 0.6784,-2.18843 1.11889,-3.24297 0.26241,-0.0548 0.52285,-0.0457 0.74557,0.0463 0.31734,0.15814 0.30164,0.33711 0.44048,0.45307 0.20306,0.14693 0.4606,0.0392 0.58468,0.33558 0.0234,0.10528 0.0325,0.38998 0.0164,0.56844 0.0713,0.3168 0.14666,0.4002 0.0622,0.78153 -0.13539,0.4017 -0.39781,0.74086 -0.46991,1.17456 -0.11037,0.50646 0.1594,0.45154 0.1393,0.86439 z m 2.43591,-13.21802 c -1.70551,-1.57327 -3.40416,-3.15709 -5.09549,-4.75416 5.0366,-5.70608 11.57414,-9.8566 18.77392,-11.34143 -0.004,2.59776 -0.008,5.19551 -0.01,7.79327 -5.2269,1.17308 -9.97998,4.18579 -13.67203,8.30232 z m -6.80733,12.84947 c -0.29233,1.20202 -0.50379,2.42634 -0.63131,3.66446 -0.7701,0.11548 -1.54068,0.22931 -2.31127,0.34168 0.0486,-0.46066 0.33305,-1.07846 0.7446,-1.35193 0.45567,-0.24165 0.98836,0.11898 1.24785,0.0135 0.26,-0.10477 0.3576,-0.43377 0.42527,-0.6346 0.13442,-0.66965 0.26883,-1.33981 0.40323,-2.00947 0.0344,-0.0139 0.069,-0.0277 0.10346,-0.0421 0.01,0.01 0.0131,0.0111 0.0177,0.0185 z m 0.82456,6.30336 c 0.0661,-0.2288 0.11034,-0.45906 0.18835,-0.68688 0.0626,-0.20497 0.13289,-0.40577 0.20453,-0.60558 1.28319,-0.19728 2.56688,-0.39869 3.85053,-0.60305 0.0737,0.12869 0.15007,0.23592 0.2335,0.2985 0.32028,0.1551 0.52872,0.0676 0.86426,0.0427 0.23248,0.0176 0.41255,0.0578 0.60434,0.15 0.44777,0.21561 0.35315,0.54356 0.56994,0.74088 0.19178,0.0919 0.33647,-0.0263 0.54106,0.11843 0.30897,0.34988 0.61852,0.69965 0.92855,1.04899 0.15793,-0.22066 0.31634,-0.44084 0.47432,-0.66101 0.14711,0.10323 0.29233,0.0832 0.36145,-0.0391 0.25414,1.92505 0.9472,3.67977 2.00428,5.13039 -2.10288,2.53423 -4.21648,5.07247 -6.3394,7.6092 -2.78019,-3.18043 -4.43081,-7.52987 -4.48571,-12.54387 z m 8.61387,-0.96911 c 0.0622,0.0368 0.10395,0.0769 0.15105,0.11647 0.01,0.0776 0.0112,0.15606 0.0182,0.23291 -0.0526,-0.13118 -0.11675,-0.26849 -0.16974,-0.34938 z m -10.00056,-22.75438 c -5.06751,6.24455 -8.48342,14.06731 -9.17702,22.36339 -2.60069,0.33819 -5.201875,0.6509 -7.803059,0.93051 0.0033,-0.18355 -0.0033,-0.36406 0.0018,-0.54815 0.304607,-10.73062 4.311109,-20.87303 10.505809,-29.00745 2.14601,2.11215 4.30327,4.19839 6.47233,6.2617 z m -9.27561,24.01187 c -0.002,0.045 -0.005,0.089 -0.007,0.13371 -0.11379,0.18 -0.22808,0.35952 -0.34239,0.53891 -0.13732,0.14999 -0.27516,0.30003 -0.4125,0.45006 -0.21485,0.31471 -0.32131,0.87653 -0.41005,1.25796 -0.096,0.78956 -0.1918,1.57932 -0.28796,2.36946 -0.0666,0.48811 -0.17954,1.28491 -0.62885,1.5737 -0.14565,0.11384 -0.62881,0.24149 -0.79659,0.24759 -0.18002,-0.0474 -0.31881,-0.16779 -0.48706,-0.16219 -0.15745,0.0611 -0.57684,0.22071 -0.98935,0.14484 -0.25459,-0.13566 -0.606296,-0.46567 -0.838788,-0.49419 -0.231531,-0.0296 -0.441467,0.0494 -0.651401,0.12812 -0.262418,0.0981 -0.628838,0.23602 -0.850053,0.25987 -0.207493,-0.01 -0.39733,-0.11487 -0.568022,-0.26845 -0.24771,-1.70547 -0.403212,-3.45605 -0.439989,-5.25404 2.569801,-0.27914 5.139613,-0.58931 7.709373,-0.92536 z m 30.1822,44.64538 c -13.10205,2.14921 -24.90427,-1.07141 -33.43186,-8.54072 2.00281,-2.29882 3.99672,-4.60779 5.9823,-6.92181 7.0678,5.99736 16.73189,8.65158 27.44956,6.99907 0,2.82097 0,5.64248 0,8.46346 z m 0,-10.40015 c -10.17514,1.5411 -19.35264,-0.98542 -26.08445,-6.65744 0.54691,-0.63856 1.09284,-1.27827 1.6383,-1.91786 0.39634,0.27255 0.79271,0.54453 1.18898,0.81604 0.40178,0.24007 0.92956,0.77187 1.43181,0.67885 0.16733,-0.0308 0.33505,-0.0616 0.5023,-0.0929 0.56704,-0.0626 1.21257,-0.0422 1.77176,-0.39201 0.21285,-0.0887 0.34824,-0.25977 0.43014,-0.4093 0.12267,-0.22471 0.18103,-0.47997 0.39294,-0.56798 0.22418,-0.0363 0.76223,0.0257 0.99917,0.0403 0.0831,0.0137 0.18051,0.0308 0.27173,0.0473 4.89825,2.8846 10.91588,4.07846 17.45688,3.18505 3.9e-4,1.75623 3.9e-4,3.51301 3.9e-4,5.26976 z m 0,-14.4105 c -0.24229,0.14537 -0.86572,0.36506 -1.11296,0.47136 -0.5935,0.19829 -0.85936,0.543 -1.34937,0.9259 -0.18103,0.13579 -0.362,0.27155 -0.54353,0.40683 -0.19915,0.1444 -0.60871,0.37828 -0.67638,0.57914 -0.0673,0.20229 0.089,0.36398 0.12752,0.51965 0.0388,0.15705 0.0235,0.33456 0.01,0.51355 -0.22859,0.50076 -0.90649,1.0805 -0.71318,1.62906 0.14173,0.3407 0.36639,0.301 0.82745,0.5039 0.61708,0.36464 1.1277,1.0042 1.77369,1.24176 0.47285,0.1545 1.06198,0.31165 1.65895,0.39601 0,0.0517 0,0.10277 0,0.15464 -5.43096,0.72101 -10.47735,-0.0839 -14.75955,-2.15233 -0.002,-0.0616 -0.0109,-0.12051 -0.0305,-0.17492 -0.20457,-0.37472 -0.89814,-0.59854 -1.32146,-1.16897 -0.39878,-0.46476 -0.70486,-1.02914 -1.14383,-1.42172 -0.33211,-0.26384 -0.66369,-0.52722 -0.99476,-0.79214 -0.20604,-0.22124 -0.41206,-0.44289 -0.61759,-0.66455 -0.099,-0.0933 -0.19713,-0.1877 -0.29628,-0.28174 -0.0768,-0.0832 -0.21382,-0.42961 -0.24962,-0.58722 -0.0229,-0.0395 -0.0454,-0.0796 -0.0676,-0.11898 1.4411,-1.70847 2.87735,-3.418 4.30914,-5.12799 3.80195,3.63307 9.16276,5.45289 15.17351,4.76995 -4.8e-4,0.12667 -4.8e-4,0.25227 -0.002,0.37882 4.8e-4,0 4.8e-4,0 0,0 z m 0,-2.04051 c -5.5555,0.59748 -10.50826,-1.10845 -14.02327,-4.48055 2.10288,-2.51488 4.19635,-5.03027 6.27955,-7.54163 1.29108,1.30527 2.95243,2.24594 4.91939,2.66182 0.93051,0.19831 1.87864,0.25381 2.82483,0.20899 0,3.05034 0,6.10056 -4.5e-4,9.15137 z m 4.9e-4,-11.73688 c 0,0.24047 0,0.48002 0,0.71996 -0.73578,0.0172 -1.47106,-0.0404 -2.1946,-0.19524 -3.63761,-0.77135 -6.05486,-3.63292 -6.67142,-7.24058 0.0305,-0.0804 0.0601,-0.1611 0.10108,-0.23738 0.19761,-0.37126 0.65381,-0.62139 1.01143,-1.29003 -0.11628,-0.01 -0.46455,-0.0332 -0.44937,-0.21206 0.0536,-0.25367 0.36597,-0.38488 0.54893,-0.57701 0.26246,-0.34122 0.43603,-0.81666 0.45322,-1.2265 -0.21582,0.0525 -0.43114,0.10578 -0.64698,0.15867 -0.12951,0.0167 -0.25853,0.0331 -0.38799,0.0489 -0.17317,0.0728 -0.34582,0.14591 -0.51898,0.21864 -0.0636,-0.0239 -0.12657,-0.0489 -0.18982,-0.0738 0.0557,-0.49777 0.13489,-0.99812 0.25557,-1.50451 0.22611,-0.30511 0.48852,-0.5268 0.49296,-0.90002 0.43903,-0.0702 0.51753,-0.2176 0.73728,-0.25324 0.463,0.0333 0.70045,0.79572 0.95403,1.14816 -0.56753,0.0109 -0.40468,0.45907 -0.37034,0.84652 0.18295,-0.19162 0.38063,-0.5633 0.57483,-0.70266 0.22913,-0.0776 0.45818,-0.15562 0.68625,-0.23292 0.15549,-0.0659 0.19521,-0.13975 0.33844,-0.25828 0.35026,-0.20637 0.62,-0.0329 0.84958,0.21404 0.18296,-0.19213 0.15743,-0.29638 0.008,-0.46115 0.0861,-0.0363 0.17219,-0.0734 0.25849,-0.10929 -0.0674,-0.12462 -0.13533,-0.24922 -0.20303,-0.37374 -0.259,0.11036 -0.32327,0.08 -0.36446,0.38442 -0.24478,-0.0676 -0.24478,-0.0676 -0.51556,-0.0114 0.0573,-0.0814 0.11331,-0.1622 0.17021,-0.24359 -0.01,-0.0356 -0.017,-0.0703 -0.0249,-0.10522 -0.4763,-0.0851 0.017,-0.4088 0.0583,-0.71285 0.0139,-0.17951 -0.0615,-0.26133 -0.13832,-0.34422 0.20749,-0.16473 0.41542,-0.32951 0.62292,-0.49374 0.23646,-0.44443 0.50425,-0.27098 0.5729,-0.70168 0.55433,-0.0619 0.28943,-0.69659 0.67841,-0.97574 0.0906,-0.0955 0.25749,-0.10883 0.361,-0.15308 0.14325,-0.1174 0.285,-0.23543 0.42774,-0.35285 0.20602,-0.0876 0.3095,-0.1317 0.50327,-0.27153 0.18198,-0.19119 0.32568,-0.53899 0.44343,-0.76067 0.0785,-0.1485 0.24722,-0.39153 0.2732,-0.51763 0.0141,-0.17899 -0.0749,-0.31271 -0.13733,-0.57302 0.21924,-0.0356 0.37376,-0.1017 0.49002,-0.3219 0.12947,-0.17086 0.0803,-0.3793 -0.15107,-0.39506 -0.0517,0.0207 -0.20651,0.0866 -0.258,0.1083 0.2119,-0.30003 0.4238,-0.59998 0.6357,-0.89999 0.0182,-0.23744 0.037,-0.47541 0.0555,-0.71234 -0.0645,0.0457 -0.12902,0.0924 -0.19325,0.13878 0.01,-0.11796 0.0182,-0.23588 0.0277,-0.35386 0.31345,-0.12966 0.62936,-0.25118 0.95016,-0.34982 0.0156,0.11747 0.0432,0.24098 0.0756,0.37315 0.0634,0.26087 0.28838,1.19797 0.38994,1.38464 0.11379,0.23839 0.4866,0.3686 0.76959,0.363 0.17955,0.0391 0.44883,-0.0172 0.60382,-0.0834 -0.0164,-0.22268 -0.033,-0.44491 -0.0488,-0.66711 0.0517,-0.0217 0.10305,-0.0433 0.15499,-0.0653 0.0762,0.15862 0.15256,0.31779 0.22913,0.47693 0.0512,-0.0208 0.15401,-0.0647 0.2055,-0.087 0.22321,-0.0172 0.44589,-0.0348 0.66857,-0.0517 0.0646,0.0295 0.0646,0.0295 0.12852,0.0595 0.0902,0.13423 -0.004,0.45962 0.0363,0.61526 0.14125,0.34219 0.52629,0.29438 0.83535,0.16322 0.0513,0.43728 0.0767,0.31114 0.0894,0.59336 0.0644,0.2588 -0.0916,0.32493 0.30705,0.78709 0.0762,0.0814 0.24429,0.2975 0.39878,0.2329 0.15404,-0.0654 0.42626,-0.5817 0.74855,-0.88933 0.11476,0.23748 0.12752,0.28935 0.37276,0.35901 -0.0127,0.10066 -0.0267,0.20187 -0.0391,0.30303 0.18053,-0.19069 0.36155,-0.38139 0.54205,-0.572 -0.0656,0.88676 -0.42675,0.8084 -0.72449,1.45009 -0.0902,0.32441 0.0249,0.56238 -0.0142,0.86545 0.0211,0.0107 0.0422,0.0202 0.0644,0.03 0.0608,-0.0637 0.12012,-0.12707 0.18098,-0.19065 0.048,-0.0394 0.0945,-0.0783 0.14223,-0.11797 0.45124,-0.24759 0.16675,0.44592 0.19275,0.54913 0.0389,0.15559 0.15452,0.16322 0.27124,0.17239 -0.0733,0.0882 -0.14663,0.17643 -0.21924,0.2649 0.0645,0.10627 0.1285,0.21306 0.19275,0.31933 -0.30949,0.13067 -0.61947,0.26185 -0.92949,0.39255 -0.45278,0.24813 -0.78873,0.73474 -1.13997,1.16896 0.01,0.0348 0.017,0.0698 0.0267,0.10421 0.0552,-0.01 0.11181,-0.0103 0.16725,-0.0138 -0.28005,0.25269 -0.56163,0.5049 -0.8417,0.75763 0.28401,-0.01 0.62098,-0.26338 0.87998,-0.37273 0.24624,-0.1612 0.20599,-0.0876 0.50473,-0.27152 0.0613,0.0129 0.12116,0.0257 0.18153,0.0386 0,0.0765 -4.7e-4,0.15307 -4.7e-4,0.22981 0.40025,0.004 0.80147,0.009 1.20172,0.01 0.2845,-0.01 0.46551,-0.19676 0.64653,-0.15764 0.24572,0.0672 0.20747,0.37018 0.59497,0.32084 0.45419,-0.0201 0.7637,-0.37873 1.11295,-0.58316 -0.12065,0.20285 -0.24132,0.40628 -0.36197,0.6091 0.082,0.0991 0.16431,0.19833 0.24623,0.29696 0.1638,-0.10676 0.32764,-0.21408 0.49102,-0.32085 -0.32228,0.5354 -0.34875,0.20344 -1.07378,0.50849 0.18201,0.0391 0.71225,0.10068 0.829,0.1088 0.28497,-0.01 0.41495,-0.17438 0.8157,-0.16982 0.33603,-0.0277 0.76378,0.0795 0.8015,-0.45204 0.0779,0.082 0.15646,0.16273 0.22125,0.19322 0.18145,0.0391 0.28495,-0.01 0.45222,-0.0185 0.12807,-0.0202 0.36691,0.03 0.54889,0.12707 -0.003,0.11087 0.01,0.21965 4.8e-4,0.33153 -0.0557,-0.0714 -0.1187,-0.14238 -0.19816,-0.20495 -0.35122,-0.25418 -0.79026,0.045 -1.17919,0.0934 -0.26341,0.0147 -0.52634,0.0299 -0.78977,0.0453 -0.19816,0.0453 -0.3968,0.0905 -0.59498,0.13577 -0.32373,0.0795 -0.53122,-0.0626 -0.84173,0.0675 -0.10399,0.0433 -0.24623,0.1612 -0.22023,0.26493 0.0268,0.10422 0.1555,0.1637 0.21925,0.19321 0.36351,0.0765 0.22125,-0.0364 0.77844,0.13066 0.31151,0.097 0.40127,0.004 0.68625,-0.006 0.0996,0.0146 0.19864,0.0308 0.29775,0.0458 0.22022,-0.0364 0.24576,-0.16069 0.46596,-0.19576 0.10348,-0.0427 0.32476,-0.0795 0.44099,-0.0703 -0.28449,0.23333 -0.5695,0.46725 -0.85398,0.70166 -0.23741,0.0421 -0.4753,0.0862 -0.71323,0.12864 0.18248,0.26597 0.2477,0.29645 0.0527,0.66355 -0.0516,-0.0544 -0.10348,-0.10779 -0.15547,-0.16173 -0.11675,0.22017 -0.0904,0.32392 -0.207,0.54409 -0.0645,0.12254 -0.1295,0.24507 -0.19424,0.36812 -0.0267,0.12559 -0.14323,0.34628 -0.24721,0.39001 -0.15499,0.0652 -0.36201,-0.0759 -0.49249,-0.13629 -0.24625,-0.0667 -0.3512,-0.0227 -0.59747,0.13834 0.23401,0.24506 0.32477,0.14947 0.62396,0.19524 0.24575,0.0671 0.89521,0.36509 1.10316,0.50641 -0.0516,0.0232 -0.10352,0.0433 -0.12999,0.16934 -0.0767,0.14745 0.0911,0.59186 0.23498,0.70217 0.12949,0.0604 0.24619,0.0672 0.40219,0.004 -0.18099,0.26691 -0.36297,0.53435 -0.54397,0.80181 0.28546,-0.01 0.37621,-0.10218 0.63717,0.017 -0.17363,0.0735 -0.34629,0.14644 -0.52045,0.21914 -0.25555,-0.10169 -0.5116,-0.20386 -0.76714,-0.30608 -0.25555,-0.0257 -0.51162,-0.0513 -0.76666,-0.0765 0.2727,-0.058 0.70239,-0.18202 0.9354,-0.3956 0.41595,-0.40422 0.12951,-0.85522 -0.25949,-1.03474 -0.2472,-0.0674 -0.40321,-0.003 -0.67591,0.0565 -0.22075,0.0363 -0.57145,0.0129 -0.77944,0.1012 -0.1859,0.0975 -0.37231,0.19575 -0.55919,0.29388 0.01,-0.0595 0.01,-0.11797 0.0142,-0.17748 -0.16824,0.0143 -0.2335,-0.0145 -0.36297,0.1546 -0.19574,-0.0902 -0.20798,-0.14086 -0.42871,-0.10478 0.0206,0.0862 0.042,0.17239 0.0642,0.25883 -0.0907,-0.0573 -0.18145,-0.11392 -0.27173,-0.17033 0.008,0.0934 0.01,0.18714 0.0112,0.28064 -0.15548,-0.1627 -0.16873,-0.21503 -0.40124,-0.23032 0.0902,0.20998 0.181,0.42 0.27173,0.62949 -0.023,0.0667 -0.045,0.13371 -0.0668,0.20035 -0.25898,0.33913 -0.18194,0.87911 -0.10542,1.1903 0.15549,0.62184 0.0371,0.84355 0.049,1.35507 0.0387,0.38492 0.18099,0.49575 0.1545,1.07945 0,0.22935 -0.11966,0.91018 -0.1844,1.11054 -0.0651,0.12353 -0.131,0.24656 -0.19621,0.37012 -0.0432,0.13323 -0.088,0.26644 -0.13146,0.39968 -0.0332,0.10322 -0.0862,0.19934 -0.13537,0.2944 -1.07519,0.5639 -2.21369,0.9544 -3.37032,1.16032 0,-0.27558 -4.4e-4,-0.55016 -0.002,-0.82574 -0.516,0.0923 -1.034,0.18305 -1.55149,0.27356 z m 30.04193,-42.49963 c 0.01,-0.17497 0.0965,-0.26394 0.0921,-0.48918 0.0103,-0.17541 -0.0713,-0.48455 0.0656,-0.59386 0.13734,-0.10888 0.4581,0.0565 0.57291,0.0705 -0.20597,-0.61218 -0.64405,-1.13697 -1.15615,-1.5452 0.0421,-0.0504 0.0845,-0.1007 0.12708,-0.15107 6.51839,6.47892 10.76817,15.73548 11.10616,26.27301 0.01,0.21758 0.002,0.43265 0.008,0.64925 -2.54774,0.25579 -5.09497,0.5456 -7.6427,0.86238 -0.45863,-5.29664 -2.15141,-10.1002 -4.74669,-14.12772 -0.34286,-0.66515 -0.78676,-1.28953 -1.16691,-1.88134 -0.24677,-0.30302 -0.44296,-0.62596 -0.76569,-0.78665 0.004,0.01 0.009,0.0142 0.01,0.0207 -0.21535,-0.26283 -0.43756,-0.51761 -0.66173,-0.77135 0.0508,0.0185 0.11188,0.0144 0.22275,-0.0494 -0.21975,-0.19933 -0.85545,-0.92136 -1.09829,-0.99656 0.0676,0.13067 0.12657,0.22069 0.18298,0.29486 -0.23692,-0.25016 -0.4763,-0.49823 -0.72251,-0.73827 0.10058,0.0494 0.19666,0.0857 0.27955,0.0895 -0.31784,-0.37932 -0.73719,-0.9356 -1.23462,-0.9818 -0.0593,-0.0525 -0.12214,-0.10229 -0.18196,-0.15459 0.0755,-0.0918 0.15208,-0.18256 0.2276,-0.27407 0.13101,0.0217 0.25999,0.0326 0.38064,0.0173 -0.0868,-0.0929 -0.16286,-0.14596 -0.23934,-0.18768 1.23855,-1.49178 2.47362,-2.97602 3.70435,-4.45114 0.25113,0.16274 0.50028,0.32898 0.74949,0.50495 0.27025,0.18203 0.92412,0.5593 1.2042,0.56743 0.0498,-0.0176 0.10006,-0.0386 0.15105,-0.0573 0.18005,-0.16225 0.3591,-0.32494 0.53911,-0.48715 0,0 0.0508,-0.0201 0.0363,-0.0705 0.01,-0.17489 -0.0448,-0.38182 -0.0359,-0.55572 z m 5.81358,40.44392 c -0.17955,-0.44345 -0.94621,-0.10125 -1.17431,0.32595 -0.11331,0.2135 -0.0142,0.57356 -0.0103,0.79927 0.0613,0.43166 0.0802,1.33364 -0.03,1.77202 -0.10985,0.43873 -0.50379,1.0998 -0.44148,1.53244 0.0839,0.30823 0.45421,0.39517 0.72991,0.34782 0.0614,0.22273 0.08,0.75659 0.17909,0.9722 -1.14834,2.01814 -2.44425,3.96398 -3.88984,5.81382 -0.0755,0.0144 -0.15888,0.0267 -0.26436,0.0295 0.19427,-0.98694 0.66559,-2.02367 1.04381,-2.96589 0.17705,-0.41032 0.49395,-1.15879 0.43313,-1.58949 -0.0743,-0.48195 -0.50723,-0.37268 -0.72058,-0.51657 -0.20011,-0.0944 -0.17609,-0.21812 -0.29426,-0.22879 -0.23697,-0.0217 -0.56164,0.27454 -0.78484,0.30506 -0.15697,0.0619 -0.28945,-4.7e-4 -0.40811,-0.011 -0.18592,-0.0421 -0.38017,0.0919 -0.53712,0.15204 -0.35315,-0.65691 -0.0614,-2.13706 0.0703,-2.93031 0.0629,-0.44739 0.13486,-0.89895 0.20008,-1.3505 2.29562,-4.90515 3.51405,-10.26947 3.3728,-15.795 -0.008,-0.1535 -0.0171,-0.30353 -0.0232,-0.45607 2.51626,-0.31475 5.03312,-0.60251 7.54941,-0.85727 -0.12799,5.89314 -1.5083,11.5712 -3.9138,16.82262 -0.097,-0.17952 -0.19426,-0.35899 -0.29087,-0.53795 -0.16625,-0.39203 -0.41692,-1.09372 -0.89078,-1.14407 0.0241,-0.12205 0.13785,-0.33505 0.095,-0.48965 z m -34.29717,6.00038 c -4.3e-4,-0.51248 -0.003,-1.02555 -0.004,-1.53759 1.29689,-0.23186 2.57226,-0.66561 3.78331,-1.28233 0.0586,0.23434 0.28009,0.30101 0.55186,0.14135 0.19912,-0.13218 0.38554,-0.44234 0.47283,-0.71744 0.0803,-0.0488 0.16386,-0.0915 0.2433,-0.14242 0.26147,0.28321 0.52289,0.56597 0.7853,0.84918 0.1437,0.1114 0.20946,0.36917 0.43165,0.33206 0.22271,-0.0376 0.27565,-0.28779 0.34041,-0.4877 0.0785,-0.14795 0.16973,-0.24351 0.24819,-0.39194 0.0913,-0.32547 -0.22315,-0.64939 -0.23589,-0.93008 4.1e-4,-0.21348 0.10792,-0.37826 0.11424,-0.62379 0.4189,-0.35543 0.82506,-0.72862 1.20961,-1.12934 -0.01,0.0338 -0.01,0.069 -0.01,0.10624 -0.0513,0.47946 0.5229,0.23595 0.56215,0.62131 0.0138,0.28027 -0.44343,0.0721 -0.52188,0.4495 -0.13053,0.3987 0.13193,0.51667 0.24913,0.75208 0.0394,0.15552 -0.0259,0.35437 -0.0391,0.5323 -0.16919,0.4724 -0.39089,0.28073 -0.66559,0.56904 -0.23446,0.21406 -0.45714,0.70925 -0.70536,0.87093 -0.1962,0.13991 -0.39144,0.0525 -0.5494,0.11953 -0.20944,0.0893 -0.34038,0.48865 -0.7333,0.31174 -0.40418,-0.22886 -0.0249,-0.5624 -0.15499,-0.85071 -0.095,-0.15004 -0.19129,-0.29998 -0.28695,-0.44993 -0.27519,0.2877 -0.53615,0.62994 -0.37965,1.02148 0.1952,0.31722 0.5881,0.49418 0.4434,0.84144 -0.13196,0.17089 -0.4449,0.3046 -0.66906,0.57161 -0.27418,0.2888 -0.5111,0.96345 -0.60333,1.06107 -0.13145,0.16987 -0.28791,0.23704 -0.41936,0.40838 -0.15305,0.23742 -0.3066,0.47489 -0.46009,0.71177 -0.0392,0.0739 -0.0392,0.0739 -0.0797,0.1485 -0.23157,0.007 -0.4621,0.01 -0.69362,0.011 0.0301,0.12107 0.0609,0.24259 0.0907,0.36308 -0.26143,0.11236 -0.26143,0.11236 -0.48463,0.15052 -0.17121,0.0156 -0.49885,0.0991 -0.5518,0.35134 -0.0673,0.20135 0.39239,0.17644 0.51009,0.182 0.72106,0.0917 0.95556,0.79374 0.70489,1.18783 -0.17119,0.24558 -0.52633,0.22523 -0.74805,0.26338 -0.4866,0.0975 -1.25472,0.15613 -1.74329,0.29948 -0.003,-1.08254 -0.006,-2.16556 -0.008,-3.24858 0.15694,-0.0801 0.2992,-0.1673 0.37081,-0.24308 0.17121,-0.2466 0.0675,-0.43169 0.1334,-0.63152 0.0392,-0.0745 0.11823,-0.22273 0.15795,-0.29747 -0.0109,-0.21504 -0.37277,-0.34521 -0.6661,-0.26386 z m 6.33155,-6.68936 c -0.17758,0.16882 -0.35854,0.32841 -0.54448,0.48662 -0.0234,-0.41285 0.1658,-0.68595 0.15551,-1.11258 -0.0267,-0.33356 -0.23543,-0.47386 -0.28695,-0.68085 -0.0391,-0.15507 -0.0259,-0.33251 0.13045,-0.39907 0.35173,-0.20592 0.4552,0.20745 0.52045,0.46622 0.01,0.18707 0.017,0.3742 0.0268,0.56133 0,0.22683 -0.0635,0.42409 -0.003,0.67833 z m -6.09072,13.6726 c 0.2894,-0.0106 0.38069,0.12303 0.62984,0.18765 0.23644,0.012 0.33013,-0.0845 0.52729,-0.22522 0.47432,-0.20335 0.96044,-0.12706 1.6192,-0.75455 0.14469,-0.11851 0.27662,-0.29036 0.30315,-0.41596 0.11816,-0.22317 0.0277,-0.35536 0.19814,-0.60147 0.21139,-0.31988 0.67101,-0.57456 0.89517,-0.84199 0.1717,-0.24462 -0.0119,-0.5095 0.32918,-0.77093 0.24962,-0.16324 0.56407,-0.0703 0.90641,-0.32941 0.30167,-0.18613 0.59014,-0.65391 0.89229,-0.84057 0.31538,-0.13376 0.56407,0.16125 1.02369,0.13777 0.60328,-0.067 1.20716,-0.13313 1.81146,-0.19932 0.0518,-0.0217 0.16967,-0.0138 0.23545,0.0144 0.52627,0.23491 -0.12998,0.62744 -0.37822,0.7917 -0.19713,0.1403 -0.24963,0.1627 -0.45958,0.25115 0.0658,0.03 0.0791,0.0803 0.14471,0.11085 0.23592,0.0119 0.78727,-0.10579 0.95842,-0.34982 0.0791,-0.14746 0.0517,-0.25171 0.0116,-0.4073 0.19766,-0.13982 0.28794,-0.23492 0.34041,-0.48658 -0.0397,-0.15507 -0.13246,-0.2863 -0.003,-0.45612 0.0772,-0.14846 0.28844,-0.23744 0.4459,-0.30253 -0.28991,-0.22117 -0.47336,-0.0302 -0.80152,0.0516 -0.16924,0.0156 -0.24919,-0.0653 -0.41989,-0.0513 -0.15647,0.0675 -0.28741,0.23745 -0.52284,0.22272 -0.17171,0.014 -0.3684,-0.0721 -0.53861,-0.0578 -0.18445,-0.0364 -0.62935,0.0394 -0.64355,-0.24201 0.0268,-0.12457 0.065,-0.19985 0.17021,-0.24356 0.0392,-0.0739 0.0921,-0.096 0.14419,-0.11796 0.036,0.0613 0.0705,0.12251 0.10595,0.18404 0.53712,-0.39965 0.39341,-0.0525 0.8908,-0.15047 0.4591,-0.0235 0.95746,-0.34728 1.42935,-0.31884 0.2884,-0.01 0.2227,0.19224 0.49981,0.36152 0.32914,0.14695 0.73478,-0.0808 1.10075,-0.23593 -0.0387,0.0739 -0.0913,0.0954 -0.0772,0.14645 -0.0644,0.19934 0.0665,0.25883 0.18446,0.2654 0.0564,0.0136 0.11482,0.012 0.17168,0.005 -1.26749,1.15217 -2.64189,2.18942 -4.10658,3.08031 -0.0156,-0.0308 -0.033,-0.0614 -0.0627,-0.0738 -0.14521,-0.10979 -0.56606,0.069 -0.72356,0.13627 -0.35508,0.20798 -0.27615,0.28981 -0.85445,0.53698 -0.64355,0.29491 -1.2881,0.58932 -1.9326,0.88472 -0.5965,0.25472 -1.09829,0.60659 -1.48185,0.872 -0.66169,0.2217 -1.3342,0.41239 -2.01406,0.57406 -0.11624,-0.0112 -0.23349,0.01 -0.34579,0.0758 -0.27715,0.0614 -0.55576,0.12201 -0.83635,0.17286 0,-0.17794 -4.6e-4,-0.35543 -4.6e-4,-0.53284 0.0834,-0.0227 0.16484,-0.0426 0.23204,-0.0552 z m 13.66228,-11.24525 c -0.0581,-0.0489 -0.11576,-0.0975 -0.17369,-0.14692 0.0767,-0.0581 0.14716,-0.11135 0.1928,-0.14849 -0.01,0.0986 -0.013,0.19679 -0.0193,0.29541 z m 0.0487,2.2765 c -0.0139,0.0924 -0.0301,0.18247 -0.1962,0.35436 0.0366,-0.14141 0.0737,-0.28428 0.11035,-0.42616 0.0287,0.0235 0.0573,0.0482 0.0861,0.0715 z m -0.10596,-0.0897 c -0.1653,0.0176 -0.36099,0.0916 -0.49933,-0.0129 -0.0925,-0.13321 -0.13243,-0.28775 -0.12018,-0.46475 0.002,-0.0119 0.002,-0.03 0.004,-0.0444 0.20607,0.1739 0.41154,0.34781 0.61757,0.52167 z m -0.35019,0.78207 c -0.20751,0.54345 0.0799,0.31017 0.2521,0.75146 0.19129,-0.0799 0.42234,-0.11697 0.63618,-0.17343 -0.49493,0.55374 -1.0124,1.08709 -1.55,1.59912 0.01,-0.10168 -0.0455,-0.18807 -0.22124,-0.2069 0.25358,-0.22012 0.50575,-0.43978 0.75784,-0.65997 -0.41939,-0.052 -0.5886,0.18966 -1.15464,0.0272 0.26189,-0.11083 0.31585,-0.13219 0.48364,-0.37421 0,-0.0765 -4.7e-4,-0.15255 -4.7e-4,-0.22882 0.26536,-0.24609 0.53119,-0.4907 0.79661,-0.73474 z m -1.0664,5.07696 c -0.23497,0.21358 -1.27337,0.70877 -1.54807,0.76936 -0.0491,0.01 -0.0894,0.0129 -0.12705,0.0145 0.61265,-0.44082 1.20715,-0.90656 1.783,-1.39213 -0.0135,0.22068 0.10695,0.41442 -0.10789,0.60759 z m -4.63046,10.70775 c -1.17966,0.5258 -2.39025,0.9829 -3.62391,1.37804 0.57245,-0.29597 1.1444,-0.59193 1.71586,-0.88732 0.42381,-0.18348 1.04674,-0.50741 1.50929,-0.53493 0.15841,-0.0103 0.2791,0.0172 0.39876,0.0443 z m -5.3181,1.87169 c -0.60188,0.15916 -1.20865,0.3016 -1.8198,0.42659 0.25113,-0.0738 0.50179,-0.14737 0.75245,-0.22109 0.37964,-0.0901 0.72398,-0.14439 1.06735,-0.2055 z m -2.44129,2.35428 c 3.76125,-0.69717 7.36895,-2.01969 10.71575,-3.80642 0.0287,0.0626 0.0762,0.11594 0.15841,0.1505 0.33158,0.1444 1.32538,-0.10676 1.73692,-0.10883 0.27761,-0.0604 1.20716,0.11643 1.4205,0.25576 0.13297,0.0584 0.15993,0.16014 0.30707,0.27054 0.14667,0.11031 0.43854,0.10065 0.47925,0.25471 0.0419,0.15406 -0.26145,0.56795 -0.34041,0.71492 -0.2502,0.39158 -0.71029,1.3291 -0.32325,1.67945 0.14715,0.10935 0.5057,0.12962 0.69211,0.16425 0.0518,-0.004 0.10494,-0.008 0.15643,-0.01 -4.6206,2.69282 -9.69446,4.69058 -15.01454,5.69736 -0.005,-1.75472 -0.009,-3.50894 -0.01,-5.26366 0.01,-0.004 0.012,-0.004 0.0177,-0.006 z m 14.1287,-16.97871 c -0.0365,0.0197 -0.0732,0.0389 -0.11035,0.0578 0.6769,-0.65793 1.32195,-1.34542 1.93164,-2.06386 0.098,0.0832 0.19671,0.16625 0.29531,0.24864 -0.0612,0.0832 -0.1251,0.1566 -0.1967,0.21458 -0.35075,0.43116 -1.42299,1.22083 -1.9199,1.54321 z m 0.94915,-5.70857 c -0.1182,0.18715 -0.18835,0.35291 -0.25555,0.51865 -0.3051,-0.25833 -0.6097,-0.51567 -0.9143,-0.77343 0.15745,-0.0671 0.37771,-0.16322 0.4601,-0.24915 0.24768,-0.1596 0.42676,-0.80535 0.52875,-1.0779 -0.22464,0.16982 -0.45028,0.34007 -0.67589,0.51096 0.0768,-0.37526 0.33304,-1.16637 0.59204,-1.50355 0.0442,0.1719 0.0893,0.34375 0.13341,0.5156 4.5e-4,0.1521 0.003,0.30407 0.005,0.45563 0.56114,-0.2888 0.88539,-0.59448 1.3656,-0.96464 0.14274,-0.11687 0.42869,-0.34822 0.56013,-0.2888 0.18397,0.0392 0.11871,0.2375 0.093,0.36102 -0.0498,0.24863 -0.32081,0.76065 -0.43655,0.9794 -0.36101,0.60554 -0.9874,0.86429 -1.45341,1.51621 z m -0.17313,-27.97488 c -0.13881,-0.0317 -0.54302,-0.19219 -0.7451,-0.3589 0.0556,-0.0675 0.11183,-0.13584 0.16779,-0.20396 0.47578,0.40271 0.93094,0.8314 1.36508,1.2849 -0.41103,-0.0444 -0.84368,-0.12562 -1.14389,-0.34826 0.12757,-0.0901 0.25506,-0.18 0.38261,-0.27055 -0.01,-0.0338 -0.017,-0.0683 -0.0268,-0.10323 z m 2.82535,29.35886 c 0.0267,0.0583 0.0556,0.11749 0.0705,0.17239 0.045,0.44595 -0.21976,0.75049 -0.51948,1.04084 -0.0885,-0.0745 -0.1766,-0.14944 -0.2649,-0.22376 0.24482,-0.32532 0.48221,-0.6549 0.71373,-0.98947 z m -0.90597,-31.33774 c -0.0891,0.0928 -0.0498,0.24813 -0.0733,0.37271 -0.0656,-0.0317 -0.12951,-0.0624 -0.23101,-0.0204 -0.21879,0.0235 -0.32618,0.18968 -0.37821,0.37884 -0.23447,-0.22069 -0.47281,-0.43525 -0.71808,-0.64271 1.62455,-1.9688 3.24274,-3.92588 4.85408,-5.87076 0.0698,0.0513 0.13834,0.10118 0.20797,0.15206 0.29629,0.28117 0.59253,0.56339 0.92757,0.77337 0.16628,0.0831 0.37131,0.11898 0.57389,0.0921 0.18637,0.18759 0.36788,0.37984 0.54838,0.57303 -0.19323,-0.0272 -0.38599,-0.0547 -0.57929,-0.0814 0.0146,0.20236 0.0305,0.40523 0.046,0.6081 -0.24724,-0.0167 -0.49445,-0.033 -0.74215,-0.0486 0.0424,0.38189 0.29237,0.91017 0.62785,1.12017 0.20947,0.0882 0.41892,0.17643 0.62836,0.26488 0.51454,0.25374 1.0438,0.55934 1.52204,0.88579 0.42725,0.34522 0.46795,0.50031 0.62345,0.66811 0.1295,0.064 0.25852,0.1271 0.3983,0.0156 0.0332,-0.0358 0.0498,-0.10066 0.0613,-0.17182 0.47825,0.70831 0.92365,1.44508 1.33765,2.20571 -0.0844,0.56132 0.0945,1.09831 0.18391,1.62401 0.0617,0.65898 0.12363,1.31846 0.18591,1.97743 0.0898,0.26848 0.17953,0.53745 0.26978,0.80593 0.2119,-0.47999 0.15991,-1.31287 0.18983,-1.83658 0.0156,-0.27302 0.0516,-0.51657 0.0908,-0.74998 1.33367,2.93587 2.2014,6.19262 2.50945,9.67815 -0.50131,0.0644 -1.0026,0.13021 -1.50344,0.19677 0.31196,-0.2603 0.22614,-1.15469 -0.31637,-0.89032 -0.22908,0.20186 -0.29089,0.39661 -0.2227,0.65438 0.01,0.13677 0.0779,0.23647 0.17417,0.28476 -0.14426,0.0196 -0.28848,0.0391 -0.43265,0.0582 -0.0491,-0.0326 -0.1025,-0.0543 -0.17709,-0.0615 -0.28448,-0.009 -0.63126,0.18864 -0.88191,-0.11235 -0.28847,-0.22929 -0.71715,-1.201 -0.98203,-1.55335 -0.59547,-0.96254 -0.59202,-0.73577 -0.85497,-1.08862 -0.17071,-0.21712 -0.18785,-0.49575 -0.25555,-0.75357 -0.10595,-0.18658 -0.24871,-0.301 -0.27616,-0.40421 -0.0536,-0.20695 0.0713,-0.37017 0.18589,-0.58576 0.16141,-0.46272 0.0798,-0.77081 0.28059,-1.07796 0.16482,-0.23542 0.3463,-0.19269 0.40763,-0.38694 0.24911,-0.55319 -0.57686,-0.68542 -0.39195,-1.27062 0.0985,-0.26698 0.41303,-0.78766 0.66857,-0.88781 0.19225,-0.13067 0.37182,-0.0882 0.56314,-0.21913 0.17658,-0.18208 0.13292,-0.56338 0.18099,-0.81053 0.1182,-0.61524 0.4395,-0.68184 0.40074,-1.46385 -0.017,-0.27764 -0.0616,-0.65895 -0.21778,-0.82629 -0.28595,-0.23081 -0.5886,0.11443 -0.63621,0.36 -0.13585,0.33814 -0.0414,0.69918 0.0406,1.00935 0.03,0.32893 0.0371,0.78251 -0.0991,1.1201 -0.1604,0.46018 -0.65139,0.31017 -0.80737,0.1434 -0.0785,-0.0835 -0.0544,-0.20694 -0.0814,-0.31016 -0.0583,-0.4327 -0.20112,-0.54813 -0.1702,-1.07234 -0.005,-0.2268 0.10348,-0.8949 0.0241,-0.97778 -0.0404,-0.1551 -0.59792,-0.56286 -0.74017,-0.67833 -0.27173,-0.17846 -0.77795,-0.60658 -1.13209,-0.23947 -0.31689,0.29544 -0.14177,0.9681 -0.14964,1.3693 -0.011,0.17594 -0.0315,0.52628 -0.1859,0.58676 -0.088,0.091 -0.2825,-0.004 -0.41103,-0.0653 -0.33696,-0.20848 -0.54396,-0.35388 -0.66418,-0.81961 0.16682,-0.01 0.61511,-0.0166 0.61268,-0.24258 -0.0536,-0.20696 -0.35219,-0.48811 -0.55673,-0.40726 -0.21681,0.0301 -0.21533,0.25729 -0.5239,0.152 -0.2575,-0.12555 -0.89367,-0.841 -1.17768,-1.06978 -0.36102,-0.31168 -0.86238,-0.51003 -1.33716,-0.60457 -0.28153,-0.002 -1.20371,-0.0857 -1.41905,0.17236 z m 3.6651,-6.03651 c 0.0202,-0.0247 0.0414,-0.0494 0.0615,-0.0739 0.34333,0.29798 0.67983,0.60614 1.008,0.9229 -0.56065,-0.21251 -0.65338,-0.51303 -1.06294,-0.84559 -0.006,-0.003 -0.007,-0.004 -0.01,-0.006 z m 3.3507,0.56137 c 0.0614,0.0573 0.12901,0.12246 0.21091,0.21099 0.0109,0.0142 0.0156,0.0236 0.0259,0.0376 -0.0772,-0.0851 -0.15937,-0.16474 -0.23641,-0.24861 z m -5.1082,37.00153 c 0.0516,-0.0208 0.15645,-0.0641 0.20844,-0.0856 0.30022,-0.10368 0.6014,-0.20793 0.90156,-0.31116 0.16975,-0.089 0.33895,-0.17799 0.50871,-0.26591 0.27565,-0.0544 0.36736,0.0782 0.73429,-0.0704 0.4169,-0.24504 0.83285,-0.48961 1.2493,-0.7337 0.52191,-0.21047 0.81622,0.24154 1.30675,-0.29845 0.40073,-0.44491 0.6602,-1.63065 0.7446,-2.17625 0.0945,-0.43676 0.18885,-0.87357 0.283,-1.3098 0.017,-0.29185 0.036,-0.58317 0.0527,-0.87507 0.10791,-0.67016 0.24669,-1.00983 0.0684,-1.67843 -0.0875,-0.32645 -0.17409,-0.6524 -0.26145,-0.97879 -0.11035,-0.4124 -0.24375,-0.7012 -0.61459,-0.1551 -0.28106,0.45352 -0.3409,0.87708 -0.88782,0.9808 -0.0426,0.70121 0.17561,1.52489 -0.41794,2.10458 -0.21876,0.25932 -0.50618,0.26027 -0.75246,0.41691 -0.14268,0.1144 -0.32417,0.30153 -0.44192,0.29287 -0.15501,0.0633 -0.28697,0.002 -0.32718,-0.1535 -0.007,-0.22633 0.33356,-0.47699 0.47632,-0.59086 0.4797,-0.3641 0.72543,-0.5207 1.032,-1.09983 0.1776,-0.41288 0.16139,-0.692 0.30019,-1.03219 0.15305,-0.28881 0.32276,-0.29948 0.47531,-0.58828 0.11529,-0.21765 0.28943,-0.85681 0.38898,-1.12424 0.11726,-0.7108 0.23446,-1.42217 0.35025,-2.13299 0.22562,-0.65896 0.7284,-0.91469 0.75685,-1.66676 0.0404,0.0795 0.0803,0.15863 0.12065,0.23795 0.51356,-0.43016 0.42775,-0.96608 0.23937,-1.4608 0.30955,-0.12207 0.95651,-0.26242 1.20128,-0.41388 0.35756,-0.36765 0.71518,-0.73423 1.07326,-1.10082 0.15791,-0.16227 0.37278,-0.40626 0.52729,-0.65088 0.65338,-0.0883 1.3072,-0.1749 1.96057,-0.2593 0.01,0.15203 0.0182,0.30205 0.0221,0.45457 0.0965,3.9879 -0.55922,7.89034 -1.836,11.58029 -0.10451,-0.28372 -0.2085,-0.56792 -0.31246,-0.85115 -0.0935,-0.13371 -0.25408,-0.30004 -0.44686,-0.16679 -0.29874,0.17343 -0.42723,1.19085 -0.51308,1.5086 -0.17168,0.50444 -0.34286,1.0083 -0.51457,1.51321 -0.13877,0.33863 -0.19812,0.76068 -0.40368,1.07036 -0.16626,0.23692 -0.45226,0.46318 -0.68568,0.66965 -0.12072,-0.23747 -0.26344,-0.12257 -0.45769,0.0129 -0.29385,0.2679 -0.58813,0.53791 -0.88192,0.80692 -0.18103,0.1866 -0.52978,0.6117 -0.79169,0.71693 -0.20847,0.0832 -0.35519,-0.0295 -0.65338,0.14901 -0.20944,0.0857 -0.54738,0.33451 -0.71859,0.34774 -0.22272,0.033 -0.4866,-0.0876 -0.71025,-0.0544 -0.16976,0.0114 -0.46997,0.19169 -0.61265,0.30613 -0.52287,0.21251 -1.38962,0.22676 -1.95224,0.2873 0.0902,-0.0955 0.1947,-0.13836 0.16826,-0.24104 0.0353,-0.30002 -0.45323,-0.61273 0.0426,-0.93103 z m 7.98849,-47.3514 c -0.0325,-0.0165 -0.0643,-0.033 -0.0955,-0.0485 -0.41005,-0.29897 -0.88731,-0.85778 -1.47495,-1.20201 -0.63718,-0.32597 -1.0796,-0.32643 -1.6388,-0.56646 -0.32274,-0.17894 -0.64551,-0.35847 -0.96827,-0.53745 -0.57194,-0.29031 -1.14338,-0.58012 -1.71484,-0.86941 -0.44389,-0.22476 -0.99133,-0.63768 -1.3484,-0.95341 -0.36939,-0.36758 -0.30804,-0.56339 -0.51115,-0.71088 -0.13979,-0.1159 -0.59399,-0.16469 -0.80735,-0.13724 0.0164,-0.0826 0.0325,-0.16478 0.0486,-0.24712 -0.13439,-0.0227 -0.26931,-0.0454 -0.4037,-0.0675 0.14615,-0.51457 -0.12847,-0.29189 -0.48315,-0.60661 -0.13979,-0.11595 -0.19278,-0.3234 -0.42134,-0.57508 -0.33996,-0.26389 -0.76964,-0.43471 -1.18604,-0.55473 -0.66711,-0.17087 -1.33472,-0.34117 -2.00085,-0.51098 -0.64258,-0.14241 -1.52202,-0.3575 -2.19796,-0.19783 -0.51356,0.1505 -0.80151,0.55267 -1.29009,0.80946 -0.4395,0.23492 -1.41756,0.52073 -1.66672,1.07998 -0.26292,0.50799 0.6303,1.00069 0.95745,1.21121 0.3066,0.19881 0.61314,0.39814 0.91976,0.59692 0.26633,0.17742 0.35414,0.31269 0.63173,0.54307 0.2531,0.12658 0.73185,0.27406 0.94671,0.47339 0.21485,0.19776 -0.0736,0.37266 0.21781,0.65433 0.22855,0.2507 0.73379,0.5024 0.91234,0.7734 0.102,0.18715 0.17903,0.49881 0.36933,0.59339 0.17706,0.0433 0.35221,-0.14186 0.50278,-0.20288 0.23938,-0.15354 0.91678,-0.76933 1.15662,-0.69458 0.24038,0.0745 1.10315,0.64271 1.3072,0.78967 0.12707,0.0642 0.3934,0.24203 0.38215,0.41744 0.0649,0.25884 -0.7824,0.19882 -0.53911,0.50085 0.0762,0.0839 0.60775,0.21305 0.79909,0.30811 0.23641,0.13372 0.47384,0.26746 0.71024,0.40173 0.27176,0.11994 0.54302,0.24048 0.81426,0.36045 0.19079,0.096 0.42133,0.34732 0.59893,0.3905 0.34234,0.0365 0.45125,-0.40627 0.75587,-0.29843 0.5837,0.11235 1.08546,0.77031 1.72217,1.09068 0.42038,0.12098 0.50769,0.03 0.85058,0.0674 0.29284,0.0574 0.49733,0.20493 0.80296,0.31479 0.47037,0.10168 0.48016,-0.0728 1.05608,0.21811 0.0264,0.0136 0.0498,0.027 0.0755,0.0408 -1.27333,1.52999 -2.55066,3.06959 -3.83283,4.61687 -0.11675,-0.0397 -0.22566,-0.0698 -0.31684,-0.0834 -1.78798,-1.36418 -3.73575,-2.49907 -5.81701,-3.36603 -0.072,-0.0385 -0.16534,-0.0862 -0.26488,-0.10373 -4.28761,-1.73133 -9.11324,-2.34403 -14.22926,-1.57115 -0.004,-3.5857 -0.006,-7.17143 -0.01,-10.75716 10.44494,-1.51927 19.94176,1.71863 27.03458,8.18429 -0.11967,0.14088 -0.23937,0.28372 -0.35858,0.42661 z m -10.0202,6.95884 c 0.21826,0.24555 0.56064,0.47902 0.78825,0.47186 0.66467,0.42001 1.30624,0.87615 1.92966,1.35657 -1.705,2.06141 -3.41834,4.13644 -5.13809,6.22321 -0.1869,-0.13531 -0.3767,-0.26444 -0.56752,-0.3926 0.0298,-0.14796 0.0851,-0.23589 0.0193,-0.33408 -0.0612,-0.0905 -0.3409,-0.13782 -0.50863,0.0111 -3.71274,-2.3191 -8.2563,-3.32792 -13.17077,-2.57791 -0.002,-2.59268 -0.004,-5.18483 -0.005,-7.77703 6.15546,-0.93401 11.87137,0.24512 16.65046,3.0193 z m -7.22675,7.38754 c -0.10249,0.11231 -0.22464,0.15102 -0.32419,0.28174 -0.11286,0.21809 -0.0363,0.52978 0.014,0.73825 0.71467,-0.29692 0.56164,-0.46167 0.96921,-0.62995 0.0363,-0.0247 0.0798,-0.0426 0.12267,-0.0614 1.03155,0.46272 2.01109,1.02 2.9259,1.67136 -0.1123,0.13624 -0.22463,0.2725 -0.33697,0.40933 -0.088,-0.01 -0.17266,-0.0137 -0.2364,-0.01 -0.21783,0.0317 -0.44595,0.24004 -0.74169,0.19021 -0.39632,-0.01 -0.57681,-0.27659 -0.92212,-0.30561 -0.63869,-0.0789 -1.12382,0.23594 -1.67316,0.52069 -0.25556,0.10577 -0.66464,0.27505 -0.8942,0.48561 -0.1781,0.18862 -0.24232,0.38688 -0.3066,0.58572 -0.19177,0.36559 -0.62591,0.66052 -0.52289,1.07591 0.14179,0.34168 0.46108,0.26645 0.58961,0.32648 0.14077,0.18909 0.28251,0.37825 0.4238,0.5669 -0.34631,0.20133 -0.52533,0.16222 -0.83239,0.2898 -0.39736,0.22271 -0.79415,0.44596 -1.19146,0.66965 -0.62834,0.20545 -0.87263,-0.0928 -1.28221,-0.1505 -0.23052,-0.0173 -0.3836,0.0474 -0.56262,0.01 -0.19274,-0.091 -0.23052,-0.24716 -0.29576,-0.27662 -0.14078,-0.11286 -0.67839,-0.004 -0.83242,0.0631 0.0264,0.10377 0.0387,0.15563 -0.0391,0.30256 -0.0643,0.19878 -0.47531,0.6005 -0.68036,0.68744 -0.0902,0.0944 -0.25655,0.10777 -0.37129,0.0992 0,-0.0765 4e-4,-0.15308 4e-4,-0.22936 -0.0118,-0.28218 -0.16623,-0.21709 -0.35853,-0.0795 -0.29479,0.18155 -0.44982,0.47644 -0.66856,0.74036 0.0642,-0.19932 0.11674,-0.45051 0.233,-0.67119 0.16776,-0.24257 0.4115,-0.4027 0.64307,-0.61424 0.23933,-0.2537 0.47918,-0.50744 0.71859,-0.76068 0.17903,-0.1896 0.46205,-0.42302 0.59055,-0.59185 0.38411,-0.50487 0.32131,-1.68198 0.13148,-2.23318 -0.75394,0.6036 -0.53714,0.56849 -1.03693,1.06521 -0.17956,0.18971 -0.28206,0.23291 -0.42236,0.34936 -0.12852,0.1683 -0.14174,0.3468 -0.15551,0.52368 -0.58808,0.13222 -0.11719,0.67935 -0.15595,0.98288 -0.0913,0.32492 -0.61803,0.94832 -0.92513,0.8476 -0.14076,0.11698 -0.29481,0.18207 -0.46157,0.19429 -0.16628,0.0128 -0.29428,-0.0482 -0.44783,0.0173 -0.0332,0.0394 -0.0673,0.0795 -0.10103,0.11898 -4.9e-4,-2.72331 -0.003,-5.44616 -0.005,-8.16949 3.38799,-0.51965 6.58416,-0.13728 9.41884,0.97011 z m -9.47371,69.77783 c -0.006,-2.81939 -0.01,-5.6384 -0.0103,-8.45784 6.29528,-1.19695 12.25891,-3.70775 17.58146,-7.09507 0.0676,0.0474 0.13785,0.089 0.2217,0.11739 0.32033,0.0933 0.79807,-0.10576 1.18363,-0.20997 0.55917,-0.0421 1.11789,-0.0834 1.67704,-0.12402 0.58669,-0.0136 0.40418,0.40368 0.85642,0.33052 0.94476,-0.21916 2.25002,-1.49239 2.93233,-2.22355 0.47381,-0.42002 0.94763,-0.83902 1.4205,-1.25752 0.56557,-0.51201 1.06194,-1.05201 1.55884,-1.59142 0.76766,-0.91784 1.36314,-1.96829 1.74086,-3.05386 1.67998,1.40589 3.36588,2.81741 5.05813,4.236 -8.78656,9.43717 -20.87864,16.72753 -34.22107,19.32934 z m 35.33751,-20.57202 c -1.87129,-1.57466 -3.73525,-3.14026 -5.59185,-4.6988 0.0802,-0.23796 0.1408,-0.44387 0.1393,-0.53435 0.01,-0.15102 -0.0556,-0.25115 -0.12506,-0.34374 6.96136,-8.2005 11.16846,-18.28134 11.35435,-29.06134 2.70276,-0.25579 5.40496,-0.47239 8.1072,-0.64171 -0.0264,13.22371 -5.18813,25.40549 -13.88394,35.27994 z m -35.4805,-82.4753 c 25.96131,-4.03569 48.04958,17.29194 49.33421,45.02467 0.01,0.20187 0.006,0.4012 0.01,0.60256 -2.69779,0.16627 -5.39614,0.38034 -8.09445,0.63359 -0.007,-0.21561 0.003,-0.43025 -0.01,-0.64629 -0.36983,-11.048 -4.85311,-20.77895 -11.7046,-27.58736 1.80561,-2.15135 3.6023,-4.28227 5.39078,-6.39095 -0.36352,-0.33906 -0.72643,-0.67774 -1.08946,-1.01641 -1.78107,2.10557 -3.57047,4.23297 -5.36815,6.38023 -7.42882,-6.79816 -17.36223,-10.20692 -28.28542,-8.62512 -0.002,-2.62572 -0.005,-5.25143 -0.007,-7.87658 -0.49349,0.0714 -0.98644,0.14288 -1.47988,0.2145 -0.003,2.63796 -0.008,5.27586 -0.01,7.91382 -10.77018,1.98962 -20.50539,8.38769 -27.73013,17.20799 -1.8046,-1.78517 -3.60086,-3.5887 -5.38827,-5.41361 8.97586,-10.75205 21.07877,-18.46136 34.42121,-20.42104 z m -30.08614,27.1582 c -6.529179,8.51273 -10.765742,19.15196 -11.101248,30.44086 -0.0052,0.18408 0,0.36354 -0.0033,0.54657 -2.677215,0.27212 -5.354429,0.50754 -8.03116,0.69915 0.0048,-0.1698 0,-0.3366 0.0056,-0.50738 0.488546,-13.73314 5.742419,-26.49828 13.729468,-36.61975 1.79135,1.83455 3.59149,3.64668 5.40004,5.44055 z" /></svg>