<svg xmlns="http://www.w3.org/2000/svg" xmlns:xlink="http://www.w3.org/1999/xlink" width="64" height="64" version="1"><defs><linearGradient id="c" gradientUnits="userSpaceOnUse" x1="60" y1="12.85" x2="60" y2="120.21" gradientTransform="translate(145.71 -238.21)"><stop offset="0" stop-color="#fff"/><stop offset="1" stop-color="#fff" stop-opacity="0"/></linearGradient><linearGradient id="a"><stop offset="0"/><stop offset="1" stop-color="#4d4d4d"/></linearGradient><linearGradient id="b"><stop offset="0"/><stop offset="1" stop-color="#fff" stop-opacity="0"/></linearGradient><linearGradient id="d"><stop offset="0" stop-color="#333"/><stop offset="1"/></linearGradient><linearGradient gradientTransform="rotate(9.99 -524.98 -295.38) scale(.55288)" xlink:href="#a" id="l" x1="128.39" y1="-164.85" x2="128.38" y2="-128.13" gradientUnits="userSpaceOnUse"/><linearGradient gradientTransform="rotate(9.99 -524.98 -295.38) scale(.55288)" xlink:href="#b" id="k" x1="100.03" y1="-164.84" x2="100.03" y2="-128.13" gradientUnits="userSpaceOnUse"/><linearGradient xlink:href="#c" id="j" gradientUnits="userSpaceOnUse" gradientTransform="scale(.26722) rotate(9.99 24.5 84.88)" x1="60.45" y1="-10.7" x2="60.91" y2="56.84"/><linearGradient xlink:href="#d" id="i" x1="165.36" y1="-175.11" x2="165.44" y2="-117.39" gradientUnits="userSpaceOnUse" gradientTransform="rotate(9.99 -502.86 -548.44) scale(.55288)"/><linearGradient gradientTransform="matrix(.70032 0 0 .70032 -37.27 144.56)" xlink:href="#a" id="h" x1="128.39" y1="-164.85" x2="128.38" y2="-128.13" gradientUnits="userSpaceOnUse"/><linearGradient gradientTransform="matrix(.70032 0 0 .70032 -37.27 144.56)" xlink:href="#b" id="g" x1="100.03" y1="-164.84" x2="100.03" y2="-128.13" gradientUnits="userSpaceOnUse"/><linearGradient xlink:href="#c" id="f" gradientUnits="userSpaceOnUse" gradientTransform="matrix(.33848 0 0 .33848 22.4 21.67)" x1="60.45" y1="-10.7" x2="60.91" y2="56.84"/><linearGradient xlink:href="#d" id="e" x1="165.36" y1="-175.11" x2="165.44" y2="-117.39" gradientUnits="userSpaceOnUse" gradientTransform="matrix(.70032 0 0 .70032 -93.3 144.56)"/></defs><path d="M63.03 44.01v-4.06l-4.2-.14c-.2-1.4-.57-2.74-1.08-4l3.57-2.23-2.03-3.52-3.7 1.99a16.32 16.32 0 0 0-2.94-2.93l1.99-3.71-3.53-2.03-2.22 3.57a16.14 16.14 0 0 0-4-1.07l-.14-4.21H40.7l-.14 4.2c-1.4.2-2.74.56-4 1.07l-2.22-3.57-3.53 2.03 2 3.71a16.34 16.34 0 0 0-2.93 2.94l-3.72-2-2.03 3.53 3.57 2.22a16.11 16.11 0 0 0-1.07 4l-4.21.15V44l4.21.14c.19 1.4.55 2.73 1.07 4l-3.57 2.22 2.03 3.52 3.7-1.99a16.33 16.33 0 0 0 2.94 2.93l-1.99 3.72 3.53 2.03L36.55 57c1.26.52 2.6.88 4 1.06l.14 4.22h4.06l.14-4.22c1.4-.18 2.74-.54 4-1.06l2.22 3.57 3.53-2.03-2-3.71a16.34 16.34 0 0 0 2.93-2.94l3.72 2 2.03-3.53-3.57-2.22c.52-1.26.88-2.6 1.07-4zm-20.31 8.12a10.16 10.16 0 1 1 .01-20.32 10.16 10.16 0 0 1-.01 20.32z" fill="url(#e)"/><path d="M41.01 22l-.12 3.89a.34.34 0 0 1-.3.32c-1.35.19-2.66.54-3.92 1.05a.34.34 0 0 1-.41-.14l-2.05-3.3-2.95 1.72 1.83 3.43c.03.04.04.1.04.15 0 .1-.05.2-.13.27a16.02 16.02 0 0 0-2.87 2.87.34.34 0 0 1-.43.08l-3.43-1.82-1.7 2.94 3.3 2.05a.34.34 0 0 1 .13.43 15.8 15.8 0 0 0-1.05 3.91.34.34 0 0 1-.32.3l-3.88.12v1.08a93.14 93.14 0 0 0 9.52 1.39l-.04-.76a10.5 10.5 0 0 1 10.49-10.5 10.5 10.5 0 0 1 10.5 10.5l-.05.76c3.31-.31 6.5-.78 9.52-1.38v-1.09l-3.88-.13a.34.34 0 0 1-.33-.29 15.83 15.83 0 0 0-1.04-3.92.34.34 0 0 1 .14-.42l3.29-2.04-1.71-2.96-3.43 1.83a.34.34 0 0 1-.42-.09 16 16 0 0 0-2.87-2.86.34.34 0 0 1-.09-.42l1.82-3.43-2.94-1.71-2.06 3.29a.34.34 0 0 1-.41.14 15.82 15.82 0 0 0-3.92-1.05.34.34 0 0 1-.29-.32L44.43 22z" fill="url(#f)"/><path d="M42.72 30.47a11.51 11.51 0 1 0 0 23.01 11.51 11.51 0 0 0 0-23.01zm0 19.97a8.47 8.47 0 0 1-8.46-8.46 8.47 8.47 0 0 1 8.46-8.47 8.47 8.47 0 0 1 8.46 8.47 8.47 8.47 0 0 1-8.46 8.46z" fill="url(#g)"/><path d="M42.72 31.14a10.84 10.84 0 0 0-10.83 10.84c0 5.97 4.86 10.83 10.83 10.83s10.83-4.86 10.83-10.83-4.86-10.84-10.83-10.84zm0 19.3a8.47 8.47 0 0 1-8.46-8.46 8.47 8.47 0 0 1 8.46-8.47 8.47 8.47 0 0 1 8.46 8.47 8.47 8.47 0 0 1-8.46 8.46z" fill="url(#h)"/><path d="M32.56 22.14l.55-3.16-3.25-.68c.05-1.12-.06-2.2-.28-3.26l3.08-1.24-1.1-3.02-3.15 1.04a12.89 12.89 0 0 0-1.89-2.68l2.06-2.61-2.46-2.06-2.22 2.47a12.74 12.74 0 0 0-2.96-1.38l.47-3.3-3.16-.55-.68 3.25c-1.12-.04-2.21.06-3.27.28l-1.23-3.08-3.02 1.1 1.04 3.16A12.9 12.9 0 0 0 8.4 8.3L5.8 6.24 3.73 8.7l2.47 2.22a12.72 12.72 0 0 0-1.37 2.97l-3.3-.47-.56 3.16 3.26.68c-.05 1.12.05 2.2.28 3.25l-3.08 1.25 1.1 3.01 3.16-1.04a12.9 12.9 0 0 0 1.88 2.68L5.5 29.03l2.46 2.06 2.22-2.47c.9.58 1.9 1.04 2.96 1.37l-.47 3.3 3.16.56.69-3.26c1.11.05 2.2-.05 3.26-.28l1.23 3.08 3.02-1.1L23 29.14a12.9 12.9 0 0 0 2.68-1.88l2.61 2.05 2.07-2.46-2.48-2.22c.58-.9 1.05-1.9 1.38-2.96zm-16.9 3.53a8.02 8.02 0 1 1 2.79-15.8 8.02 8.02 0 0 1-2.8 15.8z" fill="url(#i)"/><path d="M18.45 2.02l-.62 3a.27.27 0 0 1-.28.21c-1.07-.04-2.15.05-3.19.28a.27.27 0 0 1-.3-.17L12.9 2.5l-2.52.93.95 2.91c.01.04.02.09 0 .13a.27.27 0 0 1-.13.19A12.64 12.64 0 0 0 8.59 8.5a.27.27 0 0 1-.34 0L5.83 6.63 4.1 8.67l2.28 2.05a.27.27 0 0 1 .05.35 12.47 12.47 0 0 0-1.35 2.9.27.27 0 0 1-.3.18l-3.03-.43-.14.84a73.53 73.53 0 0 0 7.21 2.38l.07-.6a8.3 8.3 0 0 1 9.6-6.72 8.3 8.3 0 0 1 6.72 9.6l-.15.58c2.63.21 5.17.3 7.6.23l.15-.84-3-.63a.27.27 0 0 1-.22-.28 12.5 12.5 0 0 0-.27-3.19.27.27 0 0 1 .16-.3l2.84-1.14-.92-2.53-2.92.95a.27.27 0 0 1-.31-.13 12.63 12.63 0 0 0-1.85-2.62.27.27 0 0 1 0-.34l1.88-2.42-2.05-1.73-2.05 2.28a.27.27 0 0 1-.34.05 12.49 12.49 0 0 0-2.9-1.35.27.27 0 0 1-.19-.3l.44-3.03z" fill="url(#j)"/><path d="M18.62 8.83a9.09 9.09 0 1 0-3.15 17.9 9.09 9.09 0 0 0 3.15-17.9zm-2.74 15.53a6.69 6.69 0 0 1-5.41-7.74 6.69 6.69 0 0 1 7.73-5.42 6.69 6.69 0 0 1 5.43 7.74 6.69 6.69 0 0 1-7.75 5.42z" fill="url(#k)"/><path d="M18.53 9.36a8.56 8.56 0 0 0-9.9 6.94 8.56 8.56 0 0 0 16.84 2.96 8.56 8.56 0 0 0-6.94-9.9zm-2.65 15a6.69 6.69 0 0 1-5.41-7.74 6.69 6.69 0 0 1 7.73-5.42 6.69 6.69 0 0 1 5.43 7.74 6.69 6.69 0 0 1-7.75 5.42z" fill="url(#l)"/></svg>