<svg xmlns="http://www.w3.org/2000/svg" xmlns:xlink="http://www.w3.org/1999/xlink" width="64" height="64"><defs><clipPath id="i"><path d="M22 22c0 4.6 2.7 8.85 6.86 10.83l-6.08 36.51a4.03 4.03 0 0 0 .89 3.25A4 4 0 0 0 26.72 74h14.56a4 4 0 0 0 3.94-4.66l-6.08-36.5A12.06 12.06 0 0 0 46 22c0-6.62-5.38-12-12-12s-12 5.38-12 12z" fill="#0057ae"/></clipPath><filter id="j" color-interpolation-filters="sRGB"><feGaussianBlur stdDeviation=".87"/></filter><radialGradient xlink:href="#a" id="h" gradientUnits="userSpaceOnUse" gradientTransform="matrix(1.32585 0 0 3.15539 45.26 17.15)" cx="-10" cy="8.84" fx="-10" fy="16.81" r="12"/><radialGradient id="a" cx="34" cy="42" r="32" gradientTransform="matrix(.375 0 0 1 -22.75 -40)" gradientUnits="userSpaceOnUse"><stop offset="0" stop-color="#5f5f5f"/><stop offset=".65" stop-color="#252525"/><stop offset="1" stop-color="#3b3b3b"/></radialGradient><radialGradient xlink:href="#b" id="g" gradientUnits="userSpaceOnUse" gradientTransform="matrix(.73065 0 0 .70842 7.16 2.25)" cx="33.5" cy="77.83" r="75.67"/><radialGradient id="b" cx="33.5" cy="77.83" r="75.67" gradientUnits="userSpaceOnUse" gradientTransform="translate(-44 -40)"><stop offset=".08" stop-color="#babdb6"/><stop offset=".09" stop-color="#b2b5af"/><stop offset=".11" stop-color="#9da19b"/><stop offset=".13" stop-color="#7a7e7c"/><stop offset=".15" stop-color="#4a4f50"/><stop offset=".17" stop-color="#2e3436"/><stop offset=".18" stop-color="#363b3d"/><stop offset=".19" stop-color="#4b5050"/><stop offset=".21" stop-color="#6e716e"/><stop offset=".22" stop-color="#888a85"/><stop offset=".29" stop-color="#90928c"/><stop offset=".39" stop-color="#a4a7a1"/><stop offset=".52" stop-color="#c6cac2"/><stop offset=".56" stop-color="#d3d7cf"/><stop offset=".58" stop-color="#eaece8"/><stop offset=".59" stop-color="#f9faf9"/><stop offset=".6" stop-color="#fff"/><stop offset=".61" stop-color="#e8eae6"/><stop offset=".62" stop-color="#d9dcd5"/><stop offset=".63" stop-color="#d3d7cf"/><stop offset=".72" stop-color="#babdb6"/><stop offset=".83" stop-color="#9ea19b"/><stop offset=".93" stop-color="#8e908b"/><stop offset="1" stop-color="#888a85"/></radialGradient><radialGradient id="e" cx="12.01" cy="13.2" r="20" gradientTransform="matrix(0 2.36188 -3.40694 0 60.78 -11.44)" gradientUnits="userSpaceOnUse"><stop offset="0" stop-color="#4d4d4d"/><stop offset=".26" stop-color="#333"/><stop offset=".7"/><stop offset="1"/></radialGradient><linearGradient id="f" x1="24" x2="24" y1="44" y2="3.9" gradientTransform="translate(-1.75 -1.75) scale(1.4058)" gradientUnits="userSpaceOnUse"><stop offset="0"/><stop offset="1" stop-color="#333"/></linearGradient><filter id="k" x="-.14" width="1.29" y="-.14" height="1.29"><feGaussianBlur stdDeviation=".48"/></filter><linearGradient xlink:href="#c" id="l" gradientUnits="userSpaceOnUse" gradientTransform="matrix(.6688 .16908 -.16908 .6688 6.16 3.52)" x1="7.46" y1="3.5" x2="7.46" y2="11.5"/><linearGradient gradientTransform="rotate(14.19 7.49 7.64)" y2="11.5" x2="7.46" y1="3.5" x1="7.46" gradientUnits="userSpaceOnUse" id="c"><stop offset="0" stop-color="#666"/><stop offset="1" stop-color="#333"/></linearGradient><linearGradient xlink:href="#d" id="m" gradientUnits="userSpaceOnUse" gradientTransform="scale(.6898) rotate(59.93 5.77 16.77)" x1="7.84" y1="8.58" x2="7.84" y2="7.58"/><linearGradient gradientTransform="rotate(24 9.04 7)" y2="7.58" x2="7.84" y1="8.58" x1="7.84" gradientUnits="userSpaceOnUse" id="d"><stop offset="0" stop-color="#333"/><stop offset="1"/></linearGradient><filter id="n" x="-.14" width="1.29" y="-.14" height="1.29"><feGaussianBlur stdDeviation=".48"/></filter><linearGradient xlink:href="#c" id="o" gradientUnits="userSpaceOnUse" gradientTransform="matrix(.6688 .16908 -.16908 .6688 50.28 3.52)" x1="7.46" y1="3.5" x2="7.46" y2="11.5"/><linearGradient xlink:href="#d" id="p" gradientUnits="userSpaceOnUse" gradientTransform="scale(-.6898) rotate(24.78 15.51 -199.07)" x1="7.84" y1="8.58" x2="7.84" y2="7.58"/><filter id="q" x="-.14" width="1.29" y="-.14" height="1.29"><feGaussianBlur stdDeviation=".48"/></filter><linearGradient xlink:href="#c" id="r" gradientUnits="userSpaceOnUse" gradientTransform="matrix(.6688 .16908 -.16908 .6688 6.16 47.52)" x1="7.46" y1="3.5" x2="7.46" y2="11.5"/><linearGradient xlink:href="#d" id="s" gradientUnits="userSpaceOnUse" gradientTransform="scale(.6898) rotate(-29.01 146.2 30.5)" x1="7.84" y1="8.58" x2="7.84" y2="7.58"/><filter id="t" x="-.14" width="1.29" y="-.14" height="1.29"><feGaussianBlur stdDeviation=".48"/></filter><linearGradient xlink:href="#c" id="u" gradientUnits="userSpaceOnUse" gradientTransform="matrix(.6688 .16908 -.16908 .6688 50.28 47.52)" x1="7.46" y1="3.5" x2="7.46" y2="11.5"/><linearGradient xlink:href="#d" id="v" gradientUnits="userSpaceOnUse" gradientTransform="scale(-.6898) rotate(-68.12 -98.88 28.74)" x1="7.84" y1="8.58" x2="7.84" y2="7.58"/></defs><rect x="4.58" y="4.58" width="54.83" height="54.83" rx="2.23" ry="2.23" fill="url(#e)" stroke="url(#f)" stroke-width=".5" stroke-linecap="round" stroke-linejoin="round"/><path d="M21.77 17.83a9.87 9.87 0 0 0 4.15 7.93 1.4 1.4 0 0 1 .56 1.37l-4.11 23.95-.07.77c0 1 .37 1.97 1.04 2.73.83.96 2.05 1.5 3.34 1.5h10.64c1.29 0 2.5-.54 3.34-1.5a4.17 4.17 0 0 0 1.04-2.73l-.07-.78A566675.75 566675.75 0 0 0 37.5 26.9c0-.44.22-.86.6-1.13a9.87 9.87 0 0 0 4.14-7.93c0-5.47-4.59-9.92-10.23-9.92-5.64 0-10.23 4.45-10.23 9.92z" opacity=".5" fill="url(#g)"/><path d="M23.85 18.26a8.3 8.3 0 0 0 4.66 7.44l-4.13 25.09a2.8 2.8 0 0 0 .6 2.23 2.7 2.7 0 0 0 2.08.97h9.88c.8 0 1.56-.36 2.08-.97a2.77 2.77 0 0 0 .6-2.23l-4.13-25.1a8.3 8.3 0 0 0 4.66-7.43A8.2 8.2 0 0 0 32 10a8.2 8.2 0 0 0-8.15 8.25z" fill="url(#h)"/><g transform="matrix(.67911 0 0 .6872 8.91 3.14)" clip-path="url(#i)" filter="url(#j)"><path d="M24.72 73c0-.22.02-.44.06-.66l6.08-36.5c-.81-.4-1.57-.87-2.26-1.42l-5.82 34.92a4.03 4.03 0 0 0 .89 3.25c.3.36.69.64 1.1.87-.03-.15-.05-.3-.05-.46zM24 25c0-6.62 5.38-12 12-12 3.51 0 6.67 1.53 8.87 3.94A12 12 0 0 0 22 22c0 3.01 1.16 5.87 3.13 8.05A11.9 11.9 0 0 1 24 25z"/></g><circle transform="matrix(.68983 0 0 .68983 -49.45 4.83)" r="4" cy="7.5" cx="86" opacity=".7" stroke="#000" stroke-width=".5" filter="url(#k)"/><circle r="2.76" cy="9.8" cx="9.88" fill="url(#l)"/><path d="M9 7.6a.81.81 0 0 0-.6.35L10.76 12a.83.83 0 0 0 .34-.1c.1-.06.19-.14.26-.24z" fill="url(#m)"/><circle transform="matrix(.68983 0 0 .68983 -5.33 4.83)" r="4" cy="7.5" cx="86" opacity=".7" stroke="#000" stroke-width=".5" filter="url(#n)"/><circle r="2.76" cy="9.8" cx="54" fill="url(#o)"/><path d="M55.98 11.1c.09-.09.16-.18.21-.29.05-.1.07-.22.07-.34L52.02 8.5a.83.83 0 0 0-.21.28.81.81 0 0 0-.08.34z" fill="url(#p)"/><circle transform="matrix(.68983 0 0 .68983 -49.45 48.83)" r="4" cy="7.5" cx="86" opacity=".7" stroke="#000" stroke-width=".5" filter="url(#q)"/><circle r="2.76" cy="53.8" cx="9.88" fill="url(#r)"/><path d="M7.67 54.63a.81.81 0 0 0 .34.6l4.08-2.26a.83.83 0 0 0-.1-.34.81.81 0 0 0-.24-.26z" fill="url(#s)"/><circle transform="matrix(.68983 0 0 .68983 -5.33 48.83)" r="4" cy="7.5" cx="86" opacity=".7" stroke="#000" stroke-width=".5" filter="url(#t)"/><circle r="2.76" cy="53.8" cx="54" fill="url(#u)"/><path d="M55.19 51.76a.81.81 0 0 0-.64-.26l-1.74 4.34a.81.81 0 0 0 .64.26z" fill="url(#v)"/></svg>