<svg xmlns="http://www.w3.org/2000/svg" xmlns:xlink="http://www.w3.org/1999/xlink" width="64" height="64"><defs><linearGradient id="f"><stop offset="0"/><stop offset=".5" stop-color="#1a1a1a"/><stop offset="1"/></linearGradient><linearGradient id="e"><stop offset="0" stop-color="#00f"/><stop offset="1" stop-color="#0ff"/></linearGradient><linearGradient id="d"><stop offset="0" stop-color="#00f"/><stop offset="1" stop-color="#0ff"/></linearGradient><linearGradient id="c"><stop offset="0" stop-color="#00f"/><stop offset="1" stop-color="#0ff"/></linearGradient><linearGradient id="a"><stop offset="0" stop-color="#4d4d4d"/><stop offset="1" stop-color="#333"/></linearGradient><linearGradient id="b" gradientUnits="userSpaceOnUse" x1="328.08" y1="154.13" x2="264.58" y2="154.13" gradientTransform="rotate(-90 33.7 37.52) scale(.12501)"><stop offset="0" stop-color="#333"/><stop offset="1"/></linearGradient><linearGradient xlink:href="#a" id="l" x1="4.61" y1="17.82" x2="4.61" y2="55.59" gradientUnits="userSpaceOnUse" gradientTransform="matrix(.45336 0 0 .44741 32.75 32.29)"/><linearGradient xlink:href="#f" id="k" x1="16.32" y1="2.19" x2="42.96" y2="63.16" gradientUnits="userSpaceOnUse" gradientTransform="matrix(.5 0 0 .53756 31.12 29.01)"/><linearGradient xlink:href="#a" id="j" x1="4.61" y1="17.82" x2="4.61" y2="55.59" gradientUnits="userSpaceOnUse" gradientTransform="matrix(.45336 0 0 .44741 2.52 32.29)"/><linearGradient xlink:href="#f" id="i" x1="16.32" y1="2.19" x2="42.96" y2="63.16" gradientUnits="userSpaceOnUse" gradientTransform="matrix(.5 0 0 .53756 .89 29.01)"/><linearGradient xlink:href="#a" id="h" x1="4.61" y1="17.82" x2="4.61" y2="55.59" gradientUnits="userSpaceOnUse" gradientTransform="matrix(1 0 0 .44741 0 3.86)"/><linearGradient xlink:href="#f" id="g" x1="16.32" y1="2.19" x2="42.96" y2="63.16" gradientUnits="userSpaceOnUse" gradientTransform="matrix(1 0 0 .53756 0 .58)"/></defs><rect ry="2.03" rx="3.77" height="28.43" width="60.46" y="3.57" x="1.77" fill="url(#g)"/><rect ry=".43" rx=".96" height="16.9" width="54.77" y="11.83" x="4.61" fill="url(#h)"/><path style="text-indent:0;text-transform:none" d="M55.3 5.88l-.76.8 1.36 1.35-1.36 1.38.76.77 1.39-1.36 1.36 1.36.79-.77-1.38-1.38 1.38-1.36-.79-.79-1.36 1.38zm-17.6.53v3.25h3.24V6.41zm-30.45.16L5.08 8.72l.79.8 1.38-1.39 1.36 1.38.79-.79-1.38-1.38zm31.53.9h1.08v1.1h-1.08V7.5zm7.06 0v1.1h4.33v-1.1z" fill="#b3b3b3"/><rect ry="2.03" rx="1.88" height="28.43" width="30.23" y="32" x="1.77" fill="url(#i)"/><rect ry=".43" rx=".44" height="16.9" width="24.83" y="40.26" x="4.61" fill="url(#j)"/><rect ry="2.03" rx="1.88" height="28.43" width="30.23" y="32" x="32" fill="url(#k)"/><rect ry=".43" rx=".44" height="16.9" width="24.83" y="40.26" x="34.84" fill="url(#l)"/><path style="text-indent:0;text-transform:none" d="M25.18 34.12l-.76.8 1.36 1.35-1.36 1.38.76.77 1.39-1.36 1.36 1.36.79-.77-1.38-1.38 1.38-1.36-.79-.79-1.36 1.38zm-13.48.53v3.25h3.24v-3.25zm-4.45.16l-2.17 2.15.79.8 1.38-1.39 1.36 1.38.79-.79-1.38-1.38zm5.53.9h1.08v1.1h-1.08v-1.08zm4.94 0v1.1h4.33v-1.1zM55.3 34.12l-.76.8 1.36 1.35-1.36 1.38.76.77 1.39-1.36 1.36 1.36.79-.77-1.38-1.38 1.38-1.36-.79-.79-1.36 1.38zm-13.48.53v3.25h3.24v-3.25zm-4.45.16l-2.17 2.15.79.8 1.38-1.39 1.36 1.38.8-.79-1.39-1.38zm5.53.9h1.08v1.1H42.9v-1.08zm4.94 0v1.1h4.33v-1.1z" fill="#b3b3b3"/></svg>