<svg xmlns="http://www.w3.org/2000/svg" xmlns:xlink="http://www.w3.org/1999/xlink" width="64" height="64" version="1"><defs><linearGradient id="e" x1="24.4" x2="24.4" y1="3.6" y2="26.09" gradientTransform="translate(-.4 16.4)" gradientUnits="userSpaceOnUse"><stop offset="0" stop-color="#fff"/><stop offset="1" stop-color="#fff" stop-opacity="0"/></linearGradient><linearGradient id="a"><stop offset="0"/><stop offset=".5" stop-color="#1a1a1a"/><stop offset="1" stop-color="#1a1a1a" stop-opacity="0"/></linearGradient><filter id="f" x="-.04" width="1.07" y="-.04" height="1.07" color-interpolation-filters="sRGB"><feGaussianBlur stdDeviation=".58"/></filter><linearGradient xlink:href="#a" id="d" x1="23.59" y1="41.59" x2="24.97" y2="6.22" gradientUnits="userSpaceOnUse" gradientTransform="matrix(1.40454 0 0 1.40454 -1.46 -1.46)"/><radialGradient id="b" cx="24.01" cy="24" r="21" gradientTransform="matrix(1.33882 0 0 1.33882 .12 .12)" gradientUnits="userSpaceOnUse"><stop offset="0" stop-color="gray"/><stop offset=".87" stop-color="#333"/><stop offset="1"/></radialGradient><linearGradient id="c" x1="7.55" x2="7.55" y1="3" y2="45.18" gradientUnits="userSpaceOnUse" gradientTransform="matrix(1.40454 0 0 1.40454 -1.46 -1.46)"><stop offset="0" stop-color="#4d4d4d"/><stop offset="1" stop-color="#333"/></linearGradient></defs><path d="M61.05 32.25a28.8 28.8 0 1 1-57.59 0 28.8 28.8 0 0 1 57.59 0z" fill="url(#b)" stroke="url(#c)" stroke-width=".56"/><path d="M56.83 32.25a24.58 24.58 0 1 1-49.16 0 24.58 24.58 0 0 1 49.16 0z" fill="url(#d)"/><path transform="matrix(1.40454 0 0 1.40454 -1.46 -23.93)" d="M43.5 40a19.5 19.5 0 1 1-39 0 19.5 19.5 0 0 1 39 0z" opacity=".4" fill="none" stroke="url(#e)" stroke-width=".79" filter="url(#f)"/><path d="M12.39 33.01c3.9 0 4.38-.1 4.38-.1m30.97.1c3.88 0 4.37-.1 4.37-.1m-20.5 19.05c0-3.88-.12-4.37-.12-4.37" fill="none" stroke="#fff" stroke-width="1.11" stroke-linecap="round"/><path d="M31.6 16.92c0-3.88-.1-4.38-.1-4.38" fill="#fff" stroke="#fff" stroke-width="1.11" stroke-linecap="round"/><path d="M31 34.42l15.14-15.44M33.31 34.42L23.06 24.17" fill="none" stroke="#fff" stroke-linecap="round"/><path d="M31.36 33.57l15.4-4.34" fill="red" fill-rule="evenodd" stroke="red" stroke-linecap="round"/></svg>