<svg xmlns="http://www.w3.org/2000/svg" xmlns:xlink="http://www.w3.org/1999/xlink" width="64" height="64" viewBox="0 0 16.93 16.93"><defs><linearGradient id="f"><stop offset="0"/><stop offset="1" stop-color="#333"/></linearGradient><linearGradient id="c"><stop offset="0" stop-color="#b3b3b3"/><stop offset="1" stop-color="#fff"/></linearGradient><linearGradient id="a"><stop offset="0" stop-color="#1064d3"/><stop offset="1" stop-color="#14c6fd"/></linearGradient><linearGradient id="b"><stop offset="0"/><stop offset="1" stop-opacity="0"/></linearGradient><linearGradient id="d"><stop offset="0" stop-color="#00f"/><stop offset="1" stop-color="#0ff"/></linearGradient><linearGradient id="e" gradientUnits="userSpaceOnUse" x1="29.02" y1="6.07" x2="70.24" y2="69.51"><stop offset="0" stop-color="#fff"/><stop offset="1" stop-color="#fff" stop-opacity="0"/></linearGradient><linearGradient xlink:href="#e" id="h" gradientUnits="userSpaceOnUse" gradientTransform="matrix(.13541 0 0 .13416 .86 .97)" x1="35.38" y1="13.14" x2="70.24" y2="69.51"/><linearGradient xlink:href="#f" id="g" gradientUnits="userSpaceOnUse" x1="18.98" y1="114.95" x2="18.37" y2="19.28"/></defs><path d="M63.72 0C71.23 0 78.44.65 82 6c3.56 5.35-6.02 8.84-3.36 13.46 6.55 3.36 22.64 2.6 33.36 2.54v31.38c-5.8 3.33-11.91-1.45-17-2.38-9.6 4.27-9.65 27.52 0 31.68 5.72.45 5.42-5.03 12-3.72 5.01 6.73 5 33.04 5 33.04H22s.42-28.44-2.46-31.32c-2.89-2.88-5.06 5.27-12.28 3.73C2.94 82.35 0 78.61 0 68c0-10.6 2.81-15.29 7.07-17.68 6.56-1.39 7.63 7.06 11.1 3.58 3.49-3.48 3.9-19.07 3.83-31.9 10.45 0 23.67 2 30-3 .43-5.34-3.8-5.3-4-10 1.15-6.1 8.22-8.78 15.72-9z" clip-rule="evenodd" fill-rule="evenodd" transform="matrix(.13784 0 0 .13436 .75 .94)" fill="url(#g)" stroke="#000" stroke-width="6"/><path d="M15.49 4.2h-1.05c-1.58 0-2.52-.11-3.05-.38l-.07-.04-.04-.06c-.24-.42-.03-.76.26-1.13.19-.24.25-.34.27-.46l-.01-.09a.38.38 0 0 0-.06-.12c-.38-.56-1.17-.68-2.25-.68-.37.01-1.6.11-1.84.9a.27.27 0 0 0 0 .13c.02.14.1.23.2.34.16.2.37.44.33.93l-.01.12-.1.07c-.57.45-1.45.51-2.23.51L4.8 4.22l-.4-.02h-.01a.27.27 0 0 0-.27.27c-.02 2.95-.32 3.64-.6 3.92a.58.58 0 0 1-.41.2c-.24 0-.4-.17-.55-.31l-.03-.03-.05-.05c-.15-.14-.28-.23-.47-.23a.3.3 0 0 0-.15.05c-.5.32-.72.98-.72 2.07v.24c3.98.05 9.19-.77 14.62-4.01V4.47a.27.27 0 0 0-.27-.27z" clip-rule="evenodd" opacity=".32" fill="url(#h)" fill-rule="evenodd"/></svg>