<svg xmlns="http://www.w3.org/2000/svg" xmlns:xlink="http://www.w3.org/1999/xlink" width="64" height="64" version="1"><defs><linearGradient id="a"><stop offset="0" stop-color="#4d4d4d"/><stop offset="1"/></linearGradient><linearGradient id="b"><stop offset="0" stop-color="#fff" stop-opacity=".77"/><stop offset=".5" stop-color="#fff" stop-opacity=".33"/><stop offset="1" stop-color="#fff" stop-opacity=".2"/></linearGradient><linearGradient xlink:href="#b" id="q" gradientUnits="userSpaceOnUse" x1="513.09" y1="621.65" x2="524.66" y2="621.65" gradientTransform="rotate(75 155.3 38.77) scale(.2685)"/><linearGradient xlink:href="#b" id="p" gradientUnits="userSpaceOnUse" x1="479.79" y1="635.83" x2="483.61" y2="635.83" gradientTransform="rotate(75 155.3 38.77) scale(.2685)"/><linearGradient xlink:href="#b" id="o" gradientUnits="userSpaceOnUse" x1="494.42" y1="525.18" x2="506.04" y2="525.18" gradientTransform="rotate(75 155.3 38.77) scale(.2685)"/><linearGradient xlink:href="#b" id="n" gradientUnits="userSpaceOnUse" x1="477" y1="568.84" x2="482.38" y2="568.84" gradientTransform="rotate(75 155.3 38.77) scale(.2685)"/><linearGradient xlink:href="#b" id="m" gradientUnits="userSpaceOnUse" x1="413.26" y1="615.08" x2="423.97" y2="615.08" gradientTransform="rotate(75 155.3 38.77) scale(.2685)"/><linearGradient xlink:href="#b" id="l" gradientUnits="userSpaceOnUse" x1="428.91" y1="526.59" x2="442.66" y2="526.59" gradientTransform="rotate(75 155.3 38.77) scale(.2685)"/><linearGradient xlink:href="#b" id="k" gradientUnits="userSpaceOnUse" x1="420.42" y1="546.16" x2="432.61" y2="546.16" gradientTransform="rotate(75 155.3 38.77) scale(.2685)"/><linearGradient xlink:href="#b" id="j" gradientUnits="userSpaceOnUse" x1="363.82" y1="617.63" x2="378.51" y2="617.63" gradientTransform="rotate(75 155.3 38.77) scale(.2685)"/><linearGradient xlink:href="#b" id="i" gradientUnits="userSpaceOnUse" x1="370.76" y1="515.49" x2="382.3" y2="515.49" gradientTransform="rotate(75 155.3 38.77) scale(.2685)"/><linearGradient xlink:href="#b" id="h" gradientUnits="userSpaceOnUse" x1="334.02" y1="624.96" x2="341.72" y2="624.96" gradientTransform="rotate(75 155.3 38.77) scale(.2685)"/><linearGradient xlink:href="#b" id="g" gradientUnits="userSpaceOnUse" x1="325.09" y1="553.58" x2="340.59" y2="553.58" gradientTransform="rotate(75 155.3 38.77) scale(.2685)"/><filter id="f"><feGaussianBlur stdDeviation=".91"/></filter><radialGradient xlink:href="#a" id="d" gradientUnits="userSpaceOnUse" gradientTransform="matrix(1 0 0 1.00224 -.68 -1.86)" cx="19.65" cy="21.96" fx="19.65" fy="21.96" r="29.34"/><linearGradient xlink:href="#c" id="e" gradientUnits="userSpaceOnUse" x1="155.75" y1="626.15" x2="161.08" y2="449.02" gradientTransform="translate(-7.92 -125.36) scale(.2685)"/><linearGradient id="c"><stop offset="0" stop-color="#2d2014"/><stop offset="1" stop-color="#2d2014" stop-opacity="0"/></linearGradient></defs><path d="M61.27 32.01l-.1.8-.2.69-.16 1.08-.01 2.55-.13.88-.34.9-.07.62-.09 1.35-.16.67-.23.53-.55.95-.26.56-.23.65-.34.74-.24.39-.52.54-.2.34-.52 1.2-.19.4-.53.61-.7 1.02-.94 1.08-.6.45-.8.6-.53.63-.97 1.34-.28.27-1.7 1.1-.44.39-.4.44-.55.44-.34.39-.3.3-1.07.5-.45.22-.57.08-1.12.48-.7.5-.33.27-.8.17-.43.12-.7.28-.48.15-.43.32-1.05.28-.65.09-.72.16-.57.15-1.01.03-.45.1-.73.23-.58.1-1.22.1-.58.17-.94-.01-.6-.1h-.92l-1.15-.16-.82-.18-1.39-.4-1.35.04h-.86l-.47-.12-.62-.26-.74-.26-1.47-.56-1.66-.51-.7-.54-.83-.48-1.33-.61-.54-.25-.52-.37-.69-.48-.92-.73-.6-.41-1.53-1.26-.46-.38-.48-.3-.39-.35-.41-.4-.53-.4-.55-.7-.25-.45-.35-.87-.64-.75-.54-.84-.36-.8-.17-.5-.43-.36-.39-.51-.38-.67-.46-.65-.25-.59-.52-1.52-.14-.65-.1-.65-.44-.75-.68-1.65-.25-.74-.1-.5.06-.52-.2-.81.03-1.48-.12-2.15-.13-1.34.08-.52.14-.7-.07-.46-.1-.52v-.51l.2-1.71.11-.57.58-1.32.6-1.28.38-.56.11-.53.05-1 .12-.65.39-1.09.47-.66.49-.53.47-.78.17-.67.6-1.47.25-.5.44-.52.52-.43.83-.62.9-.91.54-.34.28-.43.73-1.13.44-.44.4-.7.52-.57.72-.54.64-.51.6-.29.9-.63.62-.52.8-.5.92-.32.93-.14.7-.18.49-.3.5-.15.73-.49 1.13-.6.54-.2.48-.13.74-.02.63.1.57-.07.8-.2 1.45-.2 1-.16.77-.15.66-.1.6-.1.98-.2.66-.03 1.9.2 1.38.49.57.02 1.04.38.78.28.78.18h1.2l.57-.1 1.58.57.62.54 1.4.68.78.43.59.06.62.26.75.61.48.34.46.45.44.22.52.18.89.52.51.32.9.92.37.4.57.84.47.45.85.54.55.5.8 1.27.23.52.5.59.22.31.24.6.41.69.64 1 .55.57.46.52.28.76.2.51.16.6.23.73.21.46.27 1.53.2.7.18.98.38 1.07.18.47.15.93.05.96.11 1.17-.13.84.13.86z" fill="url(#d)" stroke="url(#e)" stroke-width=".13" stroke-linecap="round" stroke-linejoin="round" stroke-dashoffset="4.15"/><path d="M32.23 1.6l-2.65.56-.4-.32-.33 1.85-.24.73.48 1.44L30.62 7l3.38.48 1.37-1.2 1.36-.48-2.49-2.66zM14.45 8.52l-.88.16-1.7 1.13-.07 1.93-1.21 1.85 1.53-.4 2.17-.25.4-1.28 2.58-1.05-.65-.8zm32.02 1.93l-1.13.25-2.09.23-1.29 1.05.33 1.69 2 1.77 2.58.8 2.42.49.64-.8-.89-1.3-1.36-1.12-.16-1.61.4-.64zM19.1 15.44l-2.24 1.77-1.3 1.77-.96 2.25.64 1.45 1.62-.48h1.92l1.45-.16.48-1.94.5-2.09-.65-1.44zm21.73 9.9l-.65.56-1.53.65-1.36 1.12-.24 1.69 1.04 1.12 1.21.65 1.69.96.96-1.2 1.7-1.45-.65-2.17-.48-.72zm4.34 1.2L44.3 28l.25 1.69.64 1.77 1.37 1.36 1.77-1.12.09-1.53-.17-2.17-.64-.65-2.01-.72zM22.5 28.32l-2.18 1.13-1.37.16-1.6.8.56.64.08.9 1.05.8 1.04.4 2.17.32.72-.48 1.46-.96.48-1.37.16-1.86-.33-.31-1.04-.09zm16.65 13.36l-.96.16-1.7.56 1.05 1.05 1.05 1.2 1.28.48.97-.72-.88-1.04zm12.31 1.29l-1.05 2-1.2 1.46-1.38 1.04-.15.88 1.45.4 1.2 1.46 1.78.16 1.04-.97-.08-1.29-.4-2.65-.97-2.17zm-30.42 4.18l-1.44 1.29 1.12 1.2 1.21-.4v-1.36zM25 55.18l.4 1.13-.88.73-1.05.56-.8 1.2 1.85 1.05h1.77l.07-.48 1.05.16 1.77-1.05.16-1.44.25-1.45-.65-.09-2.09-.32z" fill="#6b331c" fill-rule="evenodd"/><path d="M136.75 482.34l-.31 1 1.78 5.38 5.69 4.19 12.6 1.8 5.08-4.5 5.1-1.77-1.4-1.5-3.7 1.28-5.09 4.5-12.6-1.81-5.68-4.2zm-43.78 22.57l-8.38 3.4-1.5 4.78L75 514l-4.12 1.1-1.57 2.4 5.7-1.5 8.08-.9 1.5-4.79 9.6-3.9zm114.44 3.37l-.57.9.16 1.73 1.34-2.1zm-20.9 2.94l-.35.28 1.22 6.28 7.46 6.6 9.6 3 9 1.8 2.4-3-.75-1.05-1.65 2.06-9-1.82-9.6-3-7.46-6.59zm-77.95 22.06l-1.5 6.47-1.8 7.22-5.38.6h-7.2l-6 1.77-1.96-4.4-.44 1.03 2.4 5.37 6-1.78h7.2l5.37-.6 1.81-7.21 1.82-7.78zm86.5 37.47l-.22.38.91 6.28 2.4 6.59 5.1 5.1 6.6-4.2.3-5.68-.06-.85-.25 4.54-6.59 4.18-5.1-5.09-2.4-6.6zm-71.97 3.22l-.43 5.06-1.82 5.1-5.4 3.59-2.69 1.78-8.1-1.19-3.87-1.5-3.9-3-.32-3.31-.87-1-1.22.63 2.1 2.37.3 3.31 3.91 3 3.88 1.5 8.1 1.19 2.68-1.78 5.4-3.6 1.82-5.09.6-6.9zm45.07.5l-.25 1.75 3.87 4.19 4.5 2.4 6.28 3.6 3.6-4.5 6.3-5.38-.46-1.6-5.84 4.98-3.6 4.5-6.28-3.6-4.5-2.4zm-.88 49.78l-1.5.5 3.9 3.9 3.91 4.5 4.79 1.79 3.59-2.69-1.03-1.22-2.56 1.9-4.79-1.77-3.9-4.5zm40.5 20.78l-.34 1.9 5.4 1.5 4.5 5.41 6.6.6 3.87-3.6-.12-1.9-3.75 3.5-6.6-.6-4.5-5.4zm-103.87 1.31l-1.03.91 4.18 4.47 4.5-1.47v-2l-4.5 1.47zm19.03 26.07l.94 2.65.56-.47-.78-2.18zm16.78 1.47l-.6 3.43-.59 5.38-6.6 3.9-3.9-.59-.28 1.78h-6.6l-5.93-3.34-.97 1.47 6.9 3.87h6.6l.28-1.78 3.9.6 6.6-3.91.6-5.38.9-5.4z" transform="translate(-7.92 -125.36) scale(.2685)" fill="#33180d" fill-rule="evenodd" filter="url(#f)"/><path d="M32.17 1.75l-2.56.55c-.05 0-.1 0-.15-.03l-.17-.14-.17.94c0 .05 0 .05 0 0 .17 1.3 1.62 2.34 3.42 2.34 1.1 0 2.07-.4 2.7-1l-1.11-1.17z" fill="url(#g)" fill-rule="evenodd"/><path d="M14.4 8.68l-.78.13-1.58 1.06-.01.22a2.4 2.4 0 0 0 1.77.72c1.03 0 1.86-.57 2.08-1.27z" fill="url(#h)" fill-rule="evenodd"/><path d="M46.44 10.6l-1.07.23-.02.01-2.03.23-1.18.94.14.72a3.14 3.14 0 0 0 2.41 1.06c1.2 0 2.22-.62 2.69-1.47l-.05-.44c0-.04.01-.08.03-.1l.3-.47v-.03z" fill="url(#i)" fill-rule="evenodd"/><path d="M19.1 15.62L17 17.28v.01l-1.28 1.75-.03.08c.55.47 1.32.77 2.21.77 1.6 0 2.87-.95 3.02-2.12l-.5-1.12z" fill="url(#j)" fill-rule="evenodd"/><path d="M40.85 25.53l-.55.47a.17.17 0 0 1-.05.03l-1.5.64-.33.26c.2 1.2 1.02 2.06 1.97 2.06 1.02 0 1.9-1.01 2.02-2.34v-.01z" fill="url(#k)" fill-rule="evenodd"/><path d="M45.27 26.7l-.8 1.3.23 1.54c.41.4.94.66 1.53.66.8 0 1.5-.45 1.91-1.14l-.08-1.02-.57-.58-1.97-.7v-.01z" fill="url(#l)" fill-rule="evenodd"/><path d="M22.52 28.45l-2.12 1.11a.18.18 0 0 1-.07.02l-1.3.16c.35.98 1.45 1.74 2.81 1.74 1.66 0 2.97-1.1 2.97-2.4 0-.12-.01-.25-.04-.37l-.1-.1-.98-.07z" fill="url(#m)" fill-rule="evenodd"/><path d="M39.04 41.83l-.8.13-.03.01-.99.32c0 .61.5 1.1 1.12 1.1.51 0 .93-.35 1.06-.82z" fill="url(#n)" fill-rule="evenodd"/><path d="M51.48 43.25l-.92 1.77-.02.02-.5.6c.33.49.81.81 1.37.81.44 0 .84-.2 1.15-.51l-.07-.49-.93-2.1z" fill="url(#o)" fill-rule="evenodd"/><path d="M21.05 47.34l-.55.48c.18.27.49.48.87.48.13 0 .26-.05.38-.1v-.29z" fill="url(#p)" fill-rule="evenodd"/><path d="M25.78 55.33c-.16.14-.28.3-.37.48l.14.4c.03.08 0 .15-.06.2l-.21.18c.12.8.98 1.44 2.08 1.44.75 0 1.39-.3 1.76-.75l.03-.3.2-1.13-.1-.15-.35-.05-2.06-.32h-.03z" fill="url(#q)" fill-rule="evenodd"/></svg>