<?xml version="1.0" encoding="UTF-8" standalone="no"?><!--Created with Inkscape (http://www.inkscape.org/)--><svg xmlns:dc="http://purl.org/dc/elements/1.1/" xmlns:cc="http://creativecommons.org/ns#" xmlns:rdf="http://www.w3.org/1999/02/22-rdf-syntax-ns#" xmlns="http://www.w3.org/2000/svg" xmlns:xlink="http://www.w3.org/1999/xlink" width="64" height="64" version="1"><metadata><rdf:RDF><cc:Work><dc:format>image/svg+xml</dc:format><dc:type rdf:resource="http://purl.org/dc/dcmitype/StillImage"/><dc:title/></cc:Work></rdf:RDF></metadata><defs><linearGradient id="h"><stop offset="0" stop-color="#660080"/><stop offset="1" stop-color="#d42aff"/></linearGradient><linearGradient id="f"><stop offset="0" stop-color="#e5addf"/><stop offset="1" stop-color="#c242b5"/></linearGradient><linearGradient id="c"><stop offset="0" stop-color="#753400"/><stop offset="1" stop-color="#ee6a00"/></linearGradient><linearGradient id="d"><stop offset="0" stop-color="#ffed8c"/><stop offset=".26" stop-color="#fb9858"/><stop offset=".66" stop-color="#dc572a"/><stop offset="1" stop-color="#9f3110"/></linearGradient><linearGradient id="a"><stop offset="0"/><stop offset="1" stop-opacity="0"/></linearGradient><linearGradient id="b"><stop offset="0" stop-opacity="0"/><stop offset=".5"/><stop offset="1" stop-opacity="0"/></linearGradient><linearGradient id="e"><stop offset="0" stop-color="#fff"/><stop offset="1" stop-color="#fff" stop-opacity="0"/></linearGradient><linearGradient id="g"><stop offset="0" stop-color="#555753"/><stop offset="1" stop-color="#7c7f79"/></linearGradient><linearGradient id="i" x1="14.88" x2="13.4" y1="27.85" y2="20.07" gradientTransform="matrix(2.10792 0 0 2.20075 -3.96 -26.48)" gradientUnits="userSpaceOnUse"><stop offset="0"/><stop offset="1" stop-color="#333"/></linearGradient><linearGradient id="j" x1="15.34" x2="15.34" y1="42.99" y2="27.21" gradientTransform="matrix(1.82092 0 0 2.10884 4.07 -31.53)" gradientUnits="userSpaceOnUse" xlink:href="#h"/><radialGradient id="k" cx="18.16" cy="22.22" r="2.84" gradientTransform="matrix(1.8071 0 0 1.8145 -.77 -20.98)" gradientUnits="userSpaceOnUse" xlink:href="#h"/><radialGradient id="l" cx="15.28" cy="13.84" r="7.49" gradientTransform="matrix(3.80013 0 0 3.17167 -25.66 -37.19)" gradientUnits="userSpaceOnUse" fx="15.28" fy="13.84"><stop offset="0" stop-color="#b3b3b3"/><stop offset="1"/></radialGradient><radialGradient id="m" cx="17.1" cy="19.78" r="4.55" gradientTransform="matrix(2.5471 0 0 1.34283 -11.32 -13.26)" gradientUnits="userSpaceOnUse"><stop offset="0"/><stop offset="1" stop-color="#333"/></radialGradient></defs><path d="M28.1 6.8h7.8c9.04 0 20.13 2.9 20.13 4.08v49.8a2.1 2.1 0 0 1-2.07 2.14H10.04a2.1 2.1 0 0 1-2.07-2.14v-49.8c0-1.18 10.9-4.08 20.13-4.08z" fill="url(#i)" fill-rule="evenodd"/><path d="M31.92 17.88s-5.47 9.32-5.47 14.35v25.91l5.79 4.12 5.31-4.12V31.86c0-4.22-5.63-13.98-5.63-13.98z" fill="url(#j)" fill-rule="evenodd"/><path d="M36.29 21.2c0 2.27-1.9 4.1-4.24 4.1a4.17 4.17 0 0 1-4.23-4.1c0-2.26 1.9-4.1 4.23-4.1a4.17 4.17 0 0 1 4.24 4.1z" fill="url(#k)" fill-rule="evenodd"/><path d="M32.15 17.48l-10.62 8.01s-3.91-11.74-3.91-16.96c0-5.23 2.8-7.28 5.78-7.28h17.7c2.01 0 5.54.84 5.96 6.9.42 6.06-4.29 17.34-4.29 17.34l-10.62-8.01z" fill="url(#l)" fill-rule="evenodd"/><path d="M25.16 4.24S21.33 5.27 22 7.74c.68 2.47 3.49 6.38 5.86 6.38h9.68c1.58 0 4.45-3.3 4.95-5.77.5-2.47-2.92-4.11-2.92-4.11H25.16z" fill="url(#m)" fill-rule="evenodd"/></svg>