<svg xmlns="http://www.w3.org/2000/svg" xmlns:xlink="http://www.w3.org/1999/xlink" width="64" height="64"><defs><linearGradient id="b"><stop offset="0" stop-color="#80e5ff"/><stop offset="1" stop-color="#045"/></linearGradient><linearGradient id="a"><stop offset="0"/><stop offset="1" stop-color="#333"/></linearGradient><linearGradient xlink:href="#a" id="c" x1="26.38" y1="1037.24" x2="26.38" y2="1044.74" gradientUnits="userSpaceOnUse" gradientTransform="translate(0 -.7)"/><linearGradient id="e" x1="12.94" x2="15.25" y1="8.44" y2="19.81" gradientTransform="matrix(1.2543 0 0 1.6421 1.89 992.37)" gradientUnits="userSpaceOnUse"><stop offset="0" stop-color="#fff" stop-opacity=".27"/><stop offset="1" stop-color="#fff" stop-opacity="0"/></linearGradient><radialGradient xlink:href="#b" id="d" cx="21.95" cy="1029.22" fx="21.95" fy="1029.22" r="26.34" gradientTransform="matrix(.00492 -1.04 1.58983 .00752 -1589.54 1039.43)" gradientUnits="userSpaceOnUse"/><linearGradient xlink:href="#a" id="f" x1="26.38" y1="1037.24" x2="26.38" y2="1044.74" gradientUnits="userSpaceOnUse" gradientTransform="matrix(.56667 0 0 .56667 13.87 437.97)"/><radialGradient xlink:href="#b" id="g" cx="21.95" cy="1029.22" fx="21.95" fy="1029.22" r="26.34" gradientTransform="matrix(.00279 -.58934 .9009 .00426 -886.87 1027.38)" gradientUnits="userSpaceOnUse"/><linearGradient id="h" x1="12.94" x2="15.25" y1="8.44" y2="19.81" gradientTransform="matrix(.71076 0 0 .93053 14.94 1000.7)" gradientUnits="userSpaceOnUse"><stop offset="0" stop-color="#fff" stop-opacity=".27"/><stop offset="1" stop-color="#fff" stop-opacity="0"/></linearGradient></defs><path fill="url(#c)" d="M26.38 1036.55h11.25v7.5H26.38z" transform="translate(0 -988.36)"/><path d="M2 5.75v43.13h60V5.74z"/><path fill="#1a1a1a" d="M20.75 54.38h22.5v1.88h-22.5z"/><path d="M5.65 997.3h52.68v36.48H5.65z" fill="url(#d)" fill-rule="evenodd" transform="translate(0 -988.36)"/><path d="M5.65 997.3h52.68v13.13l-52.68 11.5z" fill="url(#e)" transform="translate(0 -988.36)"/><path fill="url(#f)" d="M28.81 1025.74h6.38v4.25h-6.38z" transform="translate(0 -988.36)"/><path d="M15 13.33v24.44h34V13.33z"/><path fill="#1a1a1a" d="M25.63 40.89h12.75v1.06H25.63z"/><path d="M17.07 1003.5h29.85v20.67H17.07z" fill="url(#g)" fill-rule="evenodd" transform="translate(0 -988.36)"/><path d="M17.07 1003.5h29.85v7.45l-29.85 6.5z" fill="url(#h)" transform="translate(0 -988.36)"/></svg>