<svg xmlns="http://www.w3.org/2000/svg" xmlns:xlink="http://www.w3.org/1999/xlink" width="64" height="64" version="1"><defs><linearGradient id="e"><stop offset="0" stop-color="#fff"/><stop offset="1" stop-opacity="0" stop-color="#fff"/></linearGradient><linearGradient id="d"><stop offset="0" stop-color="#fff"/><stop offset="1" stop-opacity="0" stop-color="#fff"/></linearGradient><linearGradient id="h"><stop offset="0" stop-color="#fff"/><stop offset="1" stop-opacity="0" stop-color="#fff"/></linearGradient><linearGradient id="f"><stop offset="0"/><stop offset="1" stop-color="#666"/></linearGradient><linearGradient id="a"><stop offset="0"/><stop offset="1" stop-opacity="0"/></linearGradient><linearGradient id="c"><stop offset="0" stop-color="#fff"/><stop offset="1" stop-color="#fff" stop-opacity="0"/></linearGradient><linearGradient id="g"><stop offset="0" stop-color="#888a85"/><stop offset="1" stop-color="#555753"/></linearGradient><linearGradient id="b"><stop offset="0" stop-color="#babdb6"/><stop offset="1" stop-color="#fff"/></linearGradient><linearGradient id="p" x1="58.55" x2="56.45" y1="37.5" y2="37.59" gradientTransform="matrix(1.52942 0 0 3.17034 -129.8 -99.76)" gradientUnits="userSpaceOnUse" xlink:href="#e"/><linearGradient id="o" x1="-5.94" x2="-10.05" y1="40.39" y2="40.38" gradientTransform="matrix(.76278 0 0 2.14563 -39.16 -65.07)" gradientUnits="userSpaceOnUse" xlink:href="#e"/><linearGradient id="n" x1="-10.54" x2="-7.01" y1="36.9" y2="36.91" gradientTransform="matrix(.8898 0 0 2.15186 -41.37 -66.43)" gradientUnits="userSpaceOnUse" xlink:href="#e"/><linearGradient id="m" x1="25.57" x2="27.37" y1="20.76" y2="22.48" gradientTransform="matrix(-1.44847 0 0 -1.44037 59.86 73.57)" gradientUnits="userSpaceOnUse" xlink:href="#f"/><radialGradient id="l" cx="25.98" cy="21.62" r="2" gradientTransform="matrix(-1.56814 -1.54485 1.23974 -1.22133 45.53 98.93)" gradientUnits="userSpaceOnUse" xlink:href="#e"/><linearGradient id="k" x1="97.44" x2="90.22" y1="35.15" y2="35.08" gradientTransform="matrix(1.15168 -1.14901 1.00736 1.00497 -103.24 113.16)" gradientUnits="userSpaceOnUse"><stop offset="0"/><stop offset=".25" stop-color="#333"/><stop offset=".78"/><stop offset="1"/></linearGradient><linearGradient xlink:href="#i" id="j" x1="5.27" y1="4.53" x2="26.85" y2="26.06" gradientUnits="userSpaceOnUse" gradientTransform="matrix(1.10909 0 0 1.10909 -3.5 -2.38)"/><linearGradient id="i"><stop offset="0" stop-color="gray"/><stop offset=".82" stop-color="#4d4d4d"/><stop offset="1"/></linearGradient></defs><path d="M14.83 2.61c-1.83-.35-.7 1.3-.24 1.9 1.34 2.4 2.74 4.78 4.03 7.21.36 1.63-1.05 2.99-2.22 3.9-1.85 1.3-4.18 2.48-6.5 1.92-1.16-.36-1.45-1.66-2.07-2.57-1.26-2.24-2.5-4.49-3.78-6.71-1.17-.04-1.17 1.87-1.34 2.8-.4 3.9.34 8.28 3.36 11.04 2.45 2.26 6 3.14 9.25 2.55 2.86.9 5.6 2.33 7.73 4.47l5.87-6.22a19.13 19.13 0 0 1-4.45-6.57A9.9 9.9 0 0 0 21.7 6.8a16.35 16.35 0 0 0-6.88-4.19z" fill="url(#j)" fill-rule="evenodd" stroke-width="1.11" stroke-linecap="round" stroke-linejoin="round" stroke-dashoffset=".36"/><path d="M22.23 28.36l29.78 31.72c1.95 1.95 5.3 1.7 7.53-.54 2.23-2.22 2.49-5.56.53-7.5L28.28 22.32l-6.05 6.03zM53.5 53.51a2.85 2.85 0 1 1 4.04 4.02 2.85 2.85 0 0 1-4.04-4.02z" fill="url(#k)" stroke-width="1.11" stroke-linecap="round" stroke-linejoin="round" stroke-dashoffset=".7"/><rect ry="5.54" rx="5.54" height="43.31" width="13.35" y="-3.8" x="-51.95" transform="rotate(-135.23) skewX(-.17)" stroke-width="1.11" stroke-linecap="round" stroke-linejoin="round"/><path d="M28.47 27.67a5.45 3.11 45 1 1 7.65 7.76 5.45 3.11 45 0 1-7.65-7.76z" opacity=".3" fill="url(#l)" stroke-width="1.11"/><path d="M4.45 62.5l6.82-4.7.83-2.85 21.16-21.17c1.44-1.62-1.28-4.5-3.08-3.05L9.02 51.86l-2.86.81-4.66 6.85 2.95 2.98z" fill="url(#m)" stroke-width="1.11" stroke-linecap="round" stroke-linejoin="round"/><rect ry="1.14" rx="1.03" height="33.65" width="2.17" y="2.43" x="-50.27" transform="matrix(-.71205 -.70212 .70724 -.70698 0 0)" opacity=".2" fill="url(#n)" stroke-width="1.11"/><rect ry="1.14" rx="1.03" height="34.33" width="3.05" y="3.59" x="-46.79" transform="matrix(-.71305 -.70112 .707 -.70721 0 0)" opacity=".2" fill="url(#o)" stroke-width="1.11"/><rect ry="1.14" rx="1.03" height="33.65" width="2.17" y="2.48" x="-42.42" transform="matrix(-.71205 -.70212 .70724 -.70698 0 0)" opacity=".25" fill="url(#p)" stroke-width="1.11"/></svg>