<?xml version="1.0" encoding="UTF-8" standalone="no"?>
<!-- Created with Inkscape (http://www.inkscape.org/) -->

<svg
   xmlns:dc="http://purl.org/dc/elements/1.1/"
   xmlns:cc="http://creativecommons.org/ns#"
   xmlns:rdf="http://www.w3.org/1999/02/22-rdf-syntax-ns#"
   xmlns:svg="http://www.w3.org/2000/svg"
   xmlns="http://www.w3.org/2000/svg"
   xmlns:xlink="http://www.w3.org/1999/xlink"
   xmlns:sodipodi="http://sodipodi.sourceforge.net/DTD/sodipodi-0.dtd"
   xmlns:inkscape="http://www.inkscape.org/namespaces/inkscape"
   width="64"
   height="64"
   viewBox="0 0 64 64.000002"
   id="svg4320"
   version="1.1"
   inkscape:version="0.92.3 (2405546, 2018-03-11)"
   sodipodi:docname="preferences-desktop-screensaver.svg">
  <defs
     id="defs4322">
    <linearGradient
       inkscape:collect="always"
       id="linearGradient914">
      <stop
         style="stop-color:#666666;stop-opacity:1"
         offset="0"
         id="stop910" />
      <stop
         style="stop-color:#1a1a1a;stop-opacity:1"
         offset="1"
         id="stop912" />
    </linearGradient>
    <linearGradient
       inkscape:collect="always"
       id="linearGradient1045">
      <stop
         style="stop-color:#000000;stop-opacity:1"
         offset="0"
         id="stop1041" />
      <stop
         style="stop-color:#333333;stop-opacity:1"
         offset="1"
         id="stop1043" />
    </linearGradient>
    <linearGradient
       inkscape:collect="always"
       xlink:href="#linearGradient1045"
       id="linearGradient1047"
       x1="26.375011"
       y1="1037.2372"
       x2="26.375011"
       y2="1044.7372"
       gradientUnits="userSpaceOnUse"
       gradientTransform="translate(0,-0.69144987)" />
    <linearGradient
       id="linearGradient3692"
       x1="32.891998"
       x2="36.358002"
       y1="8.059"
       y2="5.4565001"
       gradientTransform="matrix(1.8153203,0,0,1.9903931,-17.00925,994.04083)"
       gradientUnits="userSpaceOnUse">
      <stop
         id="stop8591-8"
         style="stop-color:#fefefe"
         offset="0" />
      <stop
         id="stop8593-0"
         style="stop-color:#cbcbcb"
         offset="1" />
    </linearGradient>
    <linearGradient
       id="linearGradient2888"
       x1="17.355"
       x2="24.007999"
       y1="8"
       y2="26.039"
       gradientTransform="matrix(1.4659443,0,0,1.3845367,-63.193341,-2.27266)"
       gradientUnits="userSpaceOnUse">
      <stop
         id="stop3742-9"
         style="stop-color:#fff"
         offset="0" />
      <stop
         id="stop3750-9"
         style="stop-color:#fff;stop-opacity:0"
         offset=".85613" />
      <stop
         id="stop3744-3"
         style="stop-color:#fff;stop-opacity:0"
         offset="1" />
    </linearGradient>
    <radialGradient
       id="radialGradient2963"
       cx="26.617001"
       cy="-2.0645001"
       r="23"
       gradientTransform="matrix(-2.1187961e-8,-1.0409034,1.6271331,0,45.777914,1047.5511)"
       gradientUnits="userSpaceOnUse">
      <stop
         id="stop2749"
         style="stop-color:#4d4d4d;stop-opacity:1"
         offset="0" />
      <stop
         id="stop2751"
         style="stop-color:#c564be"
         offset=".26238" />
      <stop
         id="stop2753"
         style="stop-color:#9d3ea4"
         offset=".66094" />
      <stop
         id="stop2755"
         style="stop-color:#5e2c73"
         offset="1" />
    </radialGradient>
    <linearGradient
       id="linearGradient2965"
       x1="10.014"
       x2="10.014"
       y1="44.959999"
       y2="2.8764999"
       gradientTransform="matrix(1.1154223,0,0,0.88248303,5.0688133,994.558)"
       gradientUnits="userSpaceOnUse">
      <stop
         id="stop2759"
         style="stop-color:#650d5c"
         offset="0" />
      <stop
         id="stop2761"
         style="stop-color:#5e2c59"
         offset="1" />
    </linearGradient>
    <linearGradient
       id="linearGradient2896"
       x1="36.603001"
       x2="36.603001"
       y1="35.296001"
       y2="1.906"
       gradientTransform="matrix(1.2159421,0,0,1.1318112,2.6854201,994.48614)"
       gradientUnits="userSpaceOnUse">
      <stop
         id="stop9938"
         style="stop-color:#333"
         offset="0" />
      <stop
         id="stop9940"
         style="stop-color:#575757"
         offset="1" />
    </linearGradient>
    <linearGradient
       id="linearGradient2898"
       x1="-51.09"
       x2="-28.955999"
       y1="6.8982"
       y2="6.8982"
       gradientTransform="matrix(1.2252028,0,0,1.1402215,67.60037,991.50989)"
       gradientUnits="userSpaceOnUse"
       spreadMethod="reflect">
      <stop
         id="stop5235"
         style="stop-color:#3c3c3c"
         offset="0" />
      <stop
         id="stop5237"
         style="stop-color:#282828"
         offset="1" />
    </linearGradient>
    <linearGradient
       id="linearGradient5551"
       x1="12.938"
       x2="15.25"
       y1="8.4375"
       y2="19.812"
       gradientTransform="matrix(1.2542911,0,0,1.6421051,1.886267,992.37006)"
       gradientUnits="userSpaceOnUse">
      <stop
         id="stop6594"
         style="stop-color:#fff;stop-opacity:.27451"
         offset="0" />
      <stop
         id="stop6596"
         style="stop-color:#fff;stop-opacity:0"
         offset="1" />
    </linearGradient>
    <radialGradient
       inkscape:collect="always"
       xlink:href="#linearGradient914"
       id="radialGradient916"
       cx="21.95409"
       cy="1029.2223"
       fx="21.95409"
       fy="1029.2223"
       r="26.340167"
       gradientTransform="matrix(0.00491906,-1.0400039,1.5898323,0.00751966,-1589.5396,1039.4338)"
       gradientUnits="userSpaceOnUse" />
  </defs>
  <sodipodi:namedview
     id="base"
     pagecolor="#ffffff"
     bordercolor="#666666"
     borderopacity="1.0"
     inkscape:pageopacity="0.0"
     inkscape:pageshadow="2"
     inkscape:zoom="8.40625"
     inkscape:cx="32"
     inkscape:cy="32"
     inkscape:document-units="px"
     inkscape:current-layer="layer1"
     showgrid="false"
     units="px"
     inkscape:window-width="1366"
     inkscape:window-height="719"
     inkscape:window-x="0"
     inkscape:window-y="25"
     inkscape:window-maximized="1"
     showguides="true"
     inkscape:guide-bbox="true" />
  <metadata
     id="metadata4325">
    <rdf:RDF>
      <cc:Work
         rdf:about="">
        <dc:format>image/svg+xml</dc:format>
        <dc:type
           rdf:resource="http://purl.org/dc/dcmitype/StillImage" />
        <dc:title></dc:title>
      </cc:Work>
    </rdf:RDF>
  </metadata>
  <g
     inkscape:label="Layer 1"
     inkscape:groupmode="layer"
     id="layer1"
     transform="translate(0,-988.3622)">
    <rect
       width="11.25"
       x="26.375011"
       y="1036.5464"
       height="7.5"
       style="fill:url(#linearGradient1047);fill-opacity:1;stroke-width:1.875"
       id="rect4321" />
    <path
       style="fill:#000000;stroke-width:1.875"
       d="m 2,994.1122 v 43.125 h 60 v -43.125 z"
       id="path1039" />
    <rect
       width="22.5"
       x="20.750011"
       y="1042.7372"
       height="1.875"
       style="fill:#1a1a1a;stroke-width:1.875"
       id="rect4323" />
    <path
       id="path2514-7"
       d="m 5.649168,997.29638 h 52.680335 v 36.48312 H 5.649168 Z"
       style="fill:url(#radialGradient916);fill-rule:evenodd;stroke:none;stroke-width:1.2976563;stroke-linecap:round;stroke-linejoin:round;fill-opacity:1"
       inkscape:connector-curvature="0" />
    <g
       transform="matrix(1.0133356,0,0,0.77684029,-0.443444,989.55092)"
       id="g78"
       style="fill:#00ffff;fill-opacity:0.79856998">
      <path
         d="M 39.531,10 C 39.15578,16.2301 37.7293,22.177 39.62475,26.344 38.42495,21.8662 40.57442,16.033 41.71855,10 Z"
         id="path30"
         inkscape:connector-curvature="0"
         style="color:#000000;fill:#00ffff" />
      <path
         d="m 35.188,10 c 1.3685,6.3106 1.4341,12.695 4.4375,16.344 C 37.3052,22.3252 37.8657,16.13 37.4067,10 Z"
         id="path32"
         inkscape:connector-curvature="0"
         style="color:#000000;fill:#00ffff" />
      <path
         d="m 30.188,10 c 3.5614,6.181 5.2078,13.323 9.4375,16.344 C 36.1303,22.8488 35.1552,16.119 32.8443,10 Z"
         id="path34"
         inkscape:connector-curvature="0"
         style="color:#000000;fill:#00ffff" />
      <path
         d="M 22.781,10 C 29.9093,15.043 33.71,24.128 39.625,26.344 34.7002,23.5007 31.8837,15.664 27.031,10 Z"
         id="path36"
         inkscape:connector-curvature="0"
         style="color:#000000;fill:#00ffff" />
      <path
         d="m 13.844,10.438 c -2.378,-0.06284 -4.9713,0.47584 -7.8438,1.7812 v 2.8125 c 15.72,-5.8899 24.409,10.419 33.625,11.312 -7.9689,-2.1353 -14.385,-15.605 -25.781,-15.906 z"
         id="path38"
         inkscape:connector-curvature="0"
         style="color:#000000;fill:#00ffff" />
      <path
         d="M 13.625,17.25 C 11.1641,17.323242 8.6074,18.01446 6,19.5938 v 3.375 c 12.975,-7.4682 24.888,4.8311 33.625,3.375 -7.5,0 -16.156,-9.3867 -26,-9.0938 z"
         id="path40"
         inkscape:connector-curvature="0"
         style="color:#000000;fill:#00ffff" />
      <path
         d="M 16.469,23.625 C 12.801,23.75768 9.2252,24.8963 6,27.9688 v 4.0938 c 10.618,-10.98 25.497,-2.021 33.625,-5.7188 -6.1578,1.65 -14.883,-3.018 -23.156,-2.7188 z"
         id="path42"
         inkscape:connector-curvature="0"
         style="color:#000000;fill:#00ffff" />
      <path
         d="M 39.625,26.344 C 31.0452,31.2976 12.534,23.1358 6,39.813 v 7.9062 c 4.895,-22.183 25.716,-14.864 33.625,-21.375 z"
         id="path44"
         inkscape:connector-curvature="0"
         style="color:#000000;fill:#00ffff" />
      <path
         d="M 39.625,26.344 C 31.6233,34.3457 6.674,29.1562 10.969,57 h 1.8125 C 10.8672,32.953 33.5605,34.835 39.6255,26.344 Z"
         id="path46"
         inkscape:connector-curvature="0"
         style="color:#000000;fill:#00ffff" />
      <path
         d="M 39.625,26.344 C 34.4755,35.2632 12.931,37.276 17.656,57 h 2.4375 C 17.5327,39.347 36.3045,35.206 39.6245,26.344 Z"
         id="path48"
         inkscape:connector-curvature="0"
         style="color:#000000;fill:#00ffff" />
      <path
         d="M 39.625,26.344 C 37.2019,35.3871 20.218,42.405 24.406,57 h 3.0312 C 24.4755,43.123 38.7892,34.963 39.6252,26.344 Z"
         id="path50"
         inkscape:connector-curvature="0"
         style="color:#000000;fill:#00ffff" />
      <path
         d="m 39.625,26.344 c 0,8.6566 -12.459,18.877 -8.1562,30.656 h 3.4062 c -4.2745,-11.819 6.0945,-22.589 4.75,-30.656 z"
         id="path52"
         inkscape:connector-curvature="0"
         style="color:#000000;fill:#00ffff" />
      <path
         d="M 39.625,26.344 C 41.7892,34.4211 33.102,46.907 39,57 h 3.8125 C 35.8573,46.722 42.98944,33.739 39.625,26.344 Z"
         id="path54"
         inkscape:connector-curvature="0"
         style="color:#000000;fill:#00ffff" />
      <path
         d="m 39.625,26.344 c 4.33,7.4998 -1.3813,22.609 8.25,30.656 h 5.3438 C 40.6118,49.4232 45.2135,33.132 39.6248,26.344 Z"
         id="path56"
         inkscape:connector-curvature="0"
         style="color:#000000;fill:#00ffff" />
      <path
         d="M 39.625,26.344 C 46.1563,32.8753 43.9115,50.717 58,54.719 V 51.4378 C 46.557,46.1296 46.292,31.1068 39.625,26.3438 Z"
         id="path58"
         inkscape:connector-curvature="0"
         style="color:#000000;fill:#00ffff" />
      <path
         d="M 39.625,26.344 C 46.212,30.147 49.0363,42.899 58,47.406 v -3.75 C 49.8743,38.9139 45.943,28.711 39.625,26.344 Z"
         id="path60"
         inkscape:connector-curvature="0"
         style="color:#000000;fill:#00ffff" />
      <path
         d="m 39.625,26.344 c 6.0662,1.6254 11.23,9.8 18.375,13.75 V 36.8752 C 50.872,33.4305 45.351,26.8991 39.625,26.3442 Z"
         id="path62"
         inkscape:connector-curvature="0"
         style="color:#000000;fill:#00ffff" />
      <path
         d="m 40.781,26.219 c -0.38655,0.01437 -0.78125,0.0625 -1.1562,0.125 5.4966,0 11.62,5.0189 18.375,7.5938 v -2.6562 c -6.4355,-1.7045 -12.287,-5.2459 -17.219,-5.0625 z"
         id="path64"
         inkscape:connector-curvature="0"
         style="color:#000000;fill:#00ffff" />
      <path
         d="m 44.312,25.406 c -1.7212,0.05478 -3.3033,0.30779 -4.6875,0.9375 4.9784,-1.334 11.635,1.4432 18.375,2.4062 V 26.3435 C 53.1311,26.27061 48.3311,25.2781 44.3115,25.406 Z"
         id="path66"
         inkscape:connector-curvature="0"
         style="color:#000000;fill:#00ffff" />
      <path
         d="M 58,21.406 C 51.0714,23.2835 43.663,23.0197 39.625,26.3435 44.0883,23.7666 51.241,24.7512 58,23.9373 Z"
         id="path68"
         inkscape:connector-curvature="0"
         style="color:#000000;fill:#00ffff" />
      <path
         d="M 58,15.625 C 51.4406,20.1212 42.984,21.6418 39.625,26.344 43.5131,22.4559 51.401,21.6779 58,18.719 Z"
         id="path70"
         inkscape:connector-curvature="0"
         style="color:#000000;fill:#00ffff" />
      <path
         d="M 55.594,10 C 50.4885,16.8054 41.788,20.571 39.625,26.344 42.8238,20.8036 52.369,17.9495 58,11.844 v -1.8438 z"
         id="path72"
         inkscape:connector-curvature="0"
         style="color:#000000;fill:#00ffff" />
      <path
         d="M 49.062,10 C 45.4898,16.1768 40.1262,21.169 39.6245,26.344 41.0922,20.8664 47.907,16.128 52.1245,10 Z"
         id="path74"
         inkscape:connector-curvature="0"
         style="color:#000000;fill:#00ffff" />
      <path
         d="m 43.938,10 c -1.9709,6.1341 -5.0877,11.692 -4.3125,16.344 0,-4.9418 4.0572,-10.384 6.75,-16.344 z"
         id="path76"
         inkscape:connector-curvature="0"
         style="color:#000000;fill:#00ffff" />
    </g>
    <path
       inkscape:connector-curvature="0"
       style="fill:url(#linearGradient5551);stroke-width:1.37734401"
       d="M 5.649168,997.29638 H 58.3295 v 13.13702 l -52.680332,11.4947 z"
       id="rect6588" />
  </g>
</svg>
