<svg xmlns="http://www.w3.org/2000/svg" xmlns:xlink="http://www.w3.org/1999/xlink" width="64" height="64"><defs><linearGradient id="g"><stop offset="0" stop-color="gray"/><stop offset="1" stop-color="#e6e6e6"/></linearGradient><linearGradient id="f"><stop stop-color="#999" offset="0"/><stop stop-color="#e6e6e6" offset="1"/></linearGradient><linearGradient id="d"><stop offset="0" stop-color="#999"/><stop offset="1" stop-color="#e6e6e6"/></linearGradient><linearGradient id="e"><stop offset="0"/><stop offset="1" stop-color="#333"/></linearGradient><linearGradient id="a"><stop stop-color="#373748" offset="0"/><stop stop-color="#53536c" offset=".13"/><stop stop-color="#b7b7c8" offset="1"/></linearGradient><linearGradient id="b"><stop stop-color="#fff" stop-opacity=".94" offset="0"/><stop stop-color="#fff" stop-opacity=".71" offset="1"/></linearGradient><linearGradient id="c"><stop stop-color="#666" offset="0"/><stop stop-color="#fff" offset="1"/></linearGradient><linearGradient xlink:href="#e" id="j" x1="15.65" y1="18.16" x2="32.4" y2="62.46" gradientUnits="userSpaceOnUse"/><linearGradient gradientTransform="translate(16.9 -11.97)" xlink:href="#e" id="h" x1="15.65" y1="18.16" x2="32.4" y2="62.46" gradientUnits="userSpaceOnUse"/><linearGradient xlink:href="#g" id="k" x1="3.3" y1="27.51" x2="3.3" y2="55.43" gradientUnits="userSpaceOnUse"/><linearGradient gradientTransform="translate(16.9 -11.97)" xlink:href="#g" id="i" x1="3.3" y1="27.51" x2="3.3" y2="55.43" gradientUnits="userSpaceOnUse"/></defs><rect ry="2.79" rx="2.79" height="39.1" width="44.7" y="6.47" x="18.1" fill="url(#h)"/><rect ry=".71" rx=".71" height="27.92" width="40.49" y="15.54" x="20.21" fill="url(#i)"/><rect ry="2.79" rx="2.79" height="39.1" width="44.7" y="18.44" x="1.2" fill="url(#j)"/><rect ry=".71" rx=".71" height="27.92" width="40.49" y="27.51" x="3.3" fill="url(#k)"/><path style="text-indent:0;text-transform:none" d="M40.78 22.17l-.57.58 1.01 1.01-1.01 1.02.57.57 1.02-1.01 1.01 1.01.58-.57-1.02-1.02 1.02-1.01-.58-.58-1.01 1.02-1.02-1.02zm-13.02.39v2.4h2.4v-2.4h-2.4zm-22.51.12l-1.6 1.59.58.58 1.02-1.02 1.01 1.02.58-.58-1.02-1.02-.57-.57zm28.53.67v.81h3.2v-.81h-3.2zm-5.22 0h.8v.81h-.8v-.8zM57.62 9.63l-.58.58 1.02 1.01-1.02 1.02.58.57 1.01-1 1.02 1 .57-.57-1.01-1.02 1.01-1.01-.57-.58-1.02 1.02-1.01-1.02zm-13.02.4v2.4H47v-2.4h-2.4zm-22.52.11l-1.59 1.59.58.58 1.01-1.02 1.02 1.02.58-.58-1.02-1.01-.58-.58zm28.53.67v.81h3.21v-.8h-3.2zm-5.21.01h.8v.8h-.8v-.8z" color="#000" fill="#e6e6e6" fill-opacity=".66"/></svg>