<svg xmlns="http://www.w3.org/2000/svg" xmlns:xlink="http://www.w3.org/1999/xlink" width="64" height="64"><defs><linearGradient id="b"><stop offset="0" stop-color="#80e5ff"/><stop offset="1" stop-color="#045"/></linearGradient><linearGradient id="a"><stop offset="0"/><stop offset="1" stop-color="#333"/></linearGradient><linearGradient xlink:href="#a" id="d" x1="26.38" y1="1037.24" x2="26.38" y2="1044.74" gradientUnits="userSpaceOnUse" gradientTransform="translate(0 -.7)"/><linearGradient id="g" x1="32.89" x2="36.36" y1="8.06" y2="5.46" gradientTransform="matrix(1.81532 0 0 1.9904 -17 994.04)" gradientUnits="userSpaceOnUse"><stop offset="0" stop-color="#fefefe"/><stop offset="1" stop-color="#cbcbcb"/></linearGradient><linearGradient id="c" x1="17.36" x2="24.01" y1="8" y2="26.04" gradientTransform="matrix(1.46594 0 0 1.38454 -63.2 -2.27)" gradientUnits="userSpaceOnUse"><stop offset="0" stop-color="#fff"/><stop offset=".86" stop-color="#fff" stop-opacity="0"/><stop offset="1" stop-color="#fff" stop-opacity="0"/></linearGradient><radialGradient xlink:href="#b" id="e" cx="41.64" cy="1027.21" fx="41.64" fy="1027.21" r="26.32" gradientTransform="matrix(.00904 -1.00368 1.3686 .01233 -1364.59 1052.75)" gradientUnits="userSpaceOnUse"/><linearGradient xlink:href="#c" id="f" gradientUnits="userSpaceOnUse" gradientTransform="matrix(1.46594 0 0 1.38454 -3.2 986.09)" x1="17.36" y1="8" x2="24.01" y2="26.04"/></defs><path fill="url(#d)" d="M26.38 1036.55h11.25v7.5H26.38z" transform="translate(0 -988.36)"/><path d="M2 5.75v43.13h60V5.74z"/><path fill="#1a1a1a" d="M20.75 54.38h22.5v1.88h-22.5z"/><path d="M5.65 8.93h52.68v36.49H5.65z" fill="#333" fill-rule="evenodd"/><path d="M5.68 997.3h30.11c3.77 1.03 22.53 16.67 22.53 19.12v17.33H5.68z" color="#000" fill="url(#e)" fill-rule="evenodd" transform="translate(0 -988.36)"/><path d="M51.38 1008.96c-1.01-.9-1.82-1.71-2.9-2.63-2.59-2.18-5.29-4.3-7.58-5.95-2.29-1.65-4.17-2.82-5.1-3.08H5.67v24.83c2.22-.53 35.12-9.86 45.7-13.17z" opacity=".3" fill="url(#f)" fill-rule="evenodd" transform="translate(0 -988.36)"/><path d="M35.22 8.76c4.3-.45 3.36 17.85 3.36 17.85s19.01-1.08 19.52 2.48c4.55-4.16-19.67-21.33-22.88-20.33z" opacity=".26" fill-rule="evenodd" stroke="#000" stroke-width="1.88" stroke-linejoin="round" stroke-opacity=".44"/><path d="M35.22 997.12c4.5.85 4.04 15.77 4.04 15.77s18.55-.98 19 3.4c1.16-2.58-13.48-15.64-20.68-18.58a6.65 6.65 0 0 0-2.36-.59z" fill="url(#g)" fill-rule="evenodd" transform="translate(0 -988.36)"/></svg>