<svg xmlns="http://www.w3.org/2000/svg" xmlns:xlink="http://www.w3.org/1999/xlink" width="64" height="64" viewBox="0 0 16.93 16.93"><defs><linearGradient id="b"><stop offset="0" stop-color="#f8f8f8"/><stop offset="1"/></linearGradient><linearGradient id="a"><stop offset="0" stop-color="#666"/><stop offset="1" stop-color="#333"/></linearGradient><linearGradient id="i"><stop offset="0"/><stop offset="1" stop-opacity="0"/></linearGradient><linearGradient id="c"><stop offset="0" stop-color="#f20303"/><stop offset="1" stop-color="#520000"/></linearGradient><linearGradient id="d"><stop offset="0" stop-color="#ff0"/><stop offset="1" stop-color="#a80"/></linearGradient><linearGradient id="e"><stop offset="0" stop-color="#0f0"/><stop offset="1" stop-color="green"/></linearGradient><linearGradient id="f"><stop offset="0" stop-color="#7b7b7b"/><stop offset="1" stop-color="#434343"/></linearGradient><linearGradient id="h"><stop offset="0" stop-color="#cdcdcd"/><stop offset="1" stop-color="#464646"/></linearGradient><linearGradient id="j"><stop offset="0" stop-color="#1a1a1a"/><stop offset="1" stop-color="#4d4d4d"/></linearGradient><linearGradient id="k"><stop offset="0" stop-color="#4d4d4d"/><stop offset="1"/></linearGradient><radialGradient xlink:href="#a" id="y" gradientUnits="userSpaceOnUse" gradientTransform="matrix(.2249 0 0 .2249 -17.86 -14.45)" cx="92.8" cy="48.34" fx="92.8" fy="48.34" r="8.84"/><radialGradient xlink:href="#b" id="z" gradientUnits="userSpaceOnUse" gradientTransform="translate(-20.2 -5.84) scale(.17734)" cx="93.43" cy="48.73" fx="93.43" fy="48.73" r="8.84"/><linearGradient gradientTransform="matrix(.13234 0 0 .13234 0 .08)" xlink:href="#c" id="x" gradientUnits="userSpaceOnUse" spreadMethod="reflect" x1="64" y1="29.09" x2="83.5" y2="29.09"/><radialGradient xlink:href="#a" id="v" gradientUnits="userSpaceOnUse" gradientTransform="matrix(.2249 0 0 .2249 -17.86 -14.45)" cx="92.8" cy="48.34" fx="92.8" fy="48.34" r="8.84"/><radialGradient xlink:href="#b" id="w" gradientUnits="userSpaceOnUse" gradientTransform="translate(-20.2 -5.84) scale(.17734)" cx="93.43" cy="48.73" fx="93.43" fy="48.73" r="8.84"/><radialGradient xlink:href="#a" id="t" gradientUnits="userSpaceOnUse" gradientTransform="matrix(.32305 0 0 .32305 -25.88 -22.45)" cx="92.8" cy="48.34" fx="92.8" fy="48.34" r="8.84"/><radialGradient xlink:href="#d" id="u" gradientUnits="userSpaceOnUse" gradientTransform="translate(-19.87 -2.45) scale(.1561)" cx="95.57" cy="52.93" fx="95.57" fy="52.93" r="8.84"/><radialGradient xlink:href="#a" id="r" gradientUnits="userSpaceOnUse" gradientTransform="matrix(.40483 0 0 .40483 -35.88 -25.68)" cx="92.8" cy="48.34" fx="92.8" fy="48.34" r="8.84"/><radialGradient xlink:href="#e" id="s" gradientUnits="userSpaceOnUse" gradientTransform="matrix(.10781 .02164 -.02209 .11006 -12 -3)" cx="95.72" cy="52.5" fx="95.72" fy="52.5" r="8.84"/><radialGradient xlink:href="#f" id="q" gradientUnits="userSpaceOnUse" cx="32.41" cy="49.3" fx="29.19" fy="47" r="15.14" gradientTransform="matrix(.2108 0 0 .2108 -11.04 -16.54)"/><radialGradient xlink:href="#g" id="p" cx="11.41" cy="27.55" fx="11.41" fy="27.55" r="15.14" gradientUnits="userSpaceOnUse" gradientTransform="matrix(.3157 -.0846 .05116 .19092 -3.55 -1)"/><linearGradient id="g"><stop offset="0" stop-color="#efefef"/><stop offset="1" stop-color="#efefef" stop-opacity="0"/></linearGradient><radialGradient gradientTransform="matrix(.11813 0 0 .11813 .07 0)" xlink:href="#h" id="o" cx="33.83" cy="50.9" fx="28.84" fy="42.26" r="15.14" gradientUnits="userSpaceOnUse"/><radialGradient xlink:href="#i" id="n" cx="33.83" cy="50.9" fx="33.83" fy="50.9" r="15.14" gradientUnits="userSpaceOnUse" gradientTransform="matrix(.22653 0 0 .22653 -3.38 -5.23)"/><radialGradient xlink:href="#j" id="m" gradientUnits="userSpaceOnUse" gradientTransform="matrix(.13234 0 0 .13015 0 .41)" cx="65.5" cy="75.09" fx="65.5" fy="75.09" r="25.72"/><radialGradient xlink:href="#k" id="l" cx="37.86" cy="31.25" fx="37.86" fy="31.25" r="64" gradientTransform="matrix(.17634 .0127 -.00495 .0688 -1.38 2.58)" gradientUnits="userSpaceOnUse"/></defs><path d="M4.27 2.66c-1.34.16-2.86 2.27-3.6 5.1-.82 3.18-.33 6.08 1.1 6.48.8.22 3.18-2.83 6.72-2.83 3.65 0 5.05 2.95 6.67 2.83 1.43-.4 1.93-3.3 1.1-6.49-.74-2.84-2.28-4.95-3.62-5.09h-.44a2.9 2.9 0 0 1-.25.12l-.05.02c-.79.34-2.03.56-3.43.56-1.4 0-2.65-.22-3.43-.56h-.01l-.04-.02-.09-.04h-.02l-.15-.08h-.37z" fill="url(#l)"/><path d="M10.27 4.21c-.46.5-1.1.8-1.81.8-.68 0-1.29-.28-1.75-.73.6.84.7 2.35.14 3.96-.37 1.05-.94 2-1.59 2.65A5.6 5.6 0 0 1 8.5 9.64c1.5 0 1.95.48 3 1.16-.17-.43-.98-1.3-1.41-2.56-.57-1.66-.46-3.2.18-4.03z" fill="url(#m)"/><circle r="1.92" cy="6.3" cx="4.29" fill="url(#n)"/><circle r="1.79" cy="6.01" cx="4.07" fill="url(#o)"/><circle r="1.76" cy="6.01" cx="4.07" opacity=".83" fill="url(#p)"/><circle r="1.33" cy="-5.9" cx="-3.99" transform="scale(-1)" fill="url(#q)"/><g transform="matrix(1.08346 0 0 1.08346 16.62 .95)"><circle r="1.23" cy="-5.26" cx="2.42" transform="scale(-1)" fill="url(#r)"/><circle r=".96" cy="5.26" cx="-2.42" fill="url(#s)"/></g><g transform="matrix(1.08346 0 0 1.08346 16.62 .95)"><circle r=".98" cy="-6.15" cx="4.68" transform="scale(-1)" fill="url(#t)"/><circle r=".76" cy="6.15" cx="-4.68" fill="url(#u)"/></g><g transform="matrix(1.08346 0 0 1.08346 16.62 .95)"><circle r=".68" cy="-3.1" cx="3.42" transform="rotate(176.14)" fill="url(#v)"/><circle r=".54" cy="3.1" cx="-3.42" transform="rotate(-3.86)" fill="url(#w)"/></g><path d="M4.73 2.66l.15.08.02.01.09.04.04.03c.8.37 2.04 1.68 3.44 1.68S11.1 3.2 11.9 2.82l.05-.03.1-.05c-.03 0-.07.02-.1.04l-.05.02c-.8.34-2.03.55-3.43.55-1.4 0-2.65-.21-3.43-.55h-.01l-.04-.02-.09-.04h-.02l-.15-.08zm3.76 6.96c-3.43 0-5.8 4.29-6.74 4.58l.02.07c.8.21 3.17-2.84 6.72-2.84 3.65 0 5.05 2.96 6.67 2.84l.02-.07c-1.6-.18-3.07-4.58-6.69-4.58z" fill="#666"/><path d="M4.93 2.82c.8.37 2.1 2.22 3.54 2.22S11.2 3.19 12 2.82C11.2 3.2 9.9 4.5 8.47 4.5c-1.45 0-2.73-1.31-3.54-1.68z" fill="url(#x)"/><g transform="matrix(1.08346 0 0 1.08346 15.1 2.02)"><circle r=".68" cy="-3.1" cx="3.42" transform="rotate(176.14)" fill="url(#y)"/><circle r=".54" cy="3.1" cx="-3.42" transform="rotate(-3.86)" fill="url(#z)"/></g></svg>