<svg xmlns="http://www.w3.org/2000/svg" xmlns:xlink="http://www.w3.org/1999/xlink" width="64" height="64" version="1"><defs><linearGradient id="b"><stop offset="0" stop-color="#f7c73c"/><stop offset=".49" stop-color="#21d789"/><stop offset=".75" stop-color="#2cbfeb"/><stop offset="1" stop-color="#14ddb1"/></linearGradient><radialGradient gradientTransform="matrix(2.07143 0 0 2.07143 -17.71 -17.71)" xlink:href="#a" id="c" cx="18.12" cy="18.12" fx="18.12" fy="18.12" r="14" gradientUnits="userSpaceOnUse"/><linearGradient id="a"><stop offset="0" stop-color="#4d4d4d"/><stop offset="1"/></linearGradient><linearGradient xlink:href="#b" id="d" gradientUnits="userSpaceOnUse" gradientTransform="matrix(2.07143 0 0 2.07143 -17.71 -17.71)" x1="14" y1="23.98" x2="30.81" y2="23.75"/></defs><path d="M58.93 61H5.07A2.07 2.07 0 0 1 3 58.93V5.07C3 3.93 3.93 3 5.07 3h53.86C60.07 3 61 3.93 61 5.07v53.86c0 1.14-.93 2.07-2.07 2.07z" fill="url(#c)"/><path d="M10.46 11.78v21.39h4.4v-7.63h5.48c1.96 0 3.52-.65 4.7-1.94 1.17-1.29 1.75-3.02 1.75-5.19 0-2.15-.6-3.8-1.79-4.93-1.17-1.13-2.87-1.7-5.1-1.7zm19.87 0v21.39h15.99V29.5H34.73v-5.54h10.24v-3.67H34.73v-4.84H45.8v-3.67zm-15.48 3.67h4.11c1.17 0 2.04.26 2.58.8.57.52.85 1.33.85 2.43 0 2.13-1.14 3.2-3.43 3.2h-4.1zM11.3 46.5v4.14h18.64V46.5z" fill="url(#d)"/></svg>