<svg xmlns="http://www.w3.org/2000/svg" xmlns:xlink="http://www.w3.org/1999/xlink" width="64" height="64" version="1"><defs><linearGradient id="b"><stop offset="0" stop-color="#14ddb1"/><stop offset=".25" stop-color="#2cbfeb"/><stop offset=".51" stop-color="#21d789"/><stop offset="1" stop-color="#f7c73c"/></linearGradient><radialGradient gradientTransform="matrix(2.07143 0 0 2.07143 -17.71 -17.71)" xlink:href="#a" id="c" cx="18.12" cy="18.12" fx="18.12" fy="18.12" r="14" gradientUnits="userSpaceOnUse"/><linearGradient id="a"><stop offset="0" stop-color="#4d4d4d"/><stop offset="1"/></linearGradient><linearGradient xlink:href="#b" id="d" gradientUnits="userSpaceOnUse" gradientTransform="matrix(2.07143 0 0 2.07143 -17.71 -17.71)" x1="14" y1="23.98" x2="31.47" y2="24.34"/></defs><path d="M58.93 61H5.07A2.07 2.07 0 0 1 3 58.93V5.07C3 3.93 3.93 3 5.07 3h53.86C60.07 3 61 3.93 61 5.07v53.86c0 1.14-.93 2.07-2.07 2.07z" fill="url(#c)"/><path d="M38.96 11.43c-3.01 0-5.4 1-7.16 3.02-1.76 2.02-2.64 4.75-2.64 8.22 0 3.44.87 6.17 2.61 8.18 1.74 2 4.1 3 7.07 3 2.66 0 4.81-.72 6.45-2.15a8.02 8.02 0 0 0 2.67-5.84h-4.28a4.72 4.72 0 0 1-1.44 3.17 4.71 4.71 0 0 1-3.28 1.12c-1.7 0-3.03-.66-4-1.97-.93-1.31-1.4-3.13-1.4-5.46 0-2.36.49-4.21 1.47-5.54s2.34-2 4.08-2c2.5 0 4.02 1.29 4.57 3.85h4.2a7.74 7.74 0 0 0-2.73-5.57c-1.6-1.35-3.67-2.03-6.2-2.03zm-28.5.35v21.39h4.4v-7.63h5.48c1.96 0 3.52-.65 4.7-1.94 1.17-1.29 1.75-3.02 1.75-5.19 0-2.15-.6-3.8-1.79-4.93-1.17-1.13-2.87-1.7-5.1-1.7h-9.44zm4.4 3.67h4.1c1.17 0 2.04.26 2.58.8.57.52.85 1.33.85 2.43 0 2.13-1.14 3.2-3.43 3.2h-4.1v-6.43zM11.28 46.5v4.14h18.64V46.5H11.29z" fill="url(#d)"/></svg>