<svg xmlns="http://www.w3.org/2000/svg" xmlns:xlink="http://www.w3.org/1999/xlink" width="64" height="64" version="1"><defs><linearGradient id="q"><stop offset="0" stop-color="#333"/><stop offset="1"/></linearGradient><linearGradient id="h"><stop offset="0" stop-color="#fff660"/><stop offset="1" stop-color="#fff660" stop-opacity="0"/></linearGradient><linearGradient id="f"><stop offset="0" stop-color="#3c9ae3"/><stop offset="1" stop-color="#3c9ae3" stop-opacity="0"/></linearGradient><linearGradient id="c"><stop offset="0" stop-color="#fff"/><stop offset="1" stop-color="#fff" stop-opacity="0"/></linearGradient><linearGradient id="b"><stop offset="0" stop-color="#fcfcfc"/><stop offset=".52" stop-color="#f8f8f8"/><stop offset=".77" stop-color="#f0efef"/><stop offset=".9" stop-color="#e3e1e1"/><stop offset="1" stop-color="#cecbcb"/></linearGradient><linearGradient id="k"><stop offset="0" stop-color="#fff"/><stop offset="1" stop-color="#fff" stop-opacity="0"/></linearGradient><linearGradient y2="102.34" x2="95.46" y1="93.62" x1="86.74" gradientTransform="matrix(1.01199 0 0 1.01199 -.9 -.99)" gradientUnits="userSpaceOnUse" id="a" xlink:href="#b"/><linearGradient id="d"><stop offset="0" stop-color="#3ea3f0"/><stop offset="1" stop-color="#306998"/></linearGradient><linearGradient id="p"><stop offset="0" stop-color="#333"/><stop offset="1" stop-color="gray"/></linearGradient><radialGradient r="15.15" fy="67.55" fx="163.69" cy="67.55" cx="163.69" gradientTransform="matrix(1 0 0 1.00973 96.75 -.6)" gradientUnits="userSpaceOnUse" id="e" xlink:href="#f"/><radialGradient r="15.18" fy="78.91" fx="174.28" cy="78.91" cx="174.28" gradientTransform="matrix(1 0 0 1.0154 96.75 -1.1)" gradientUnits="userSpaceOnUse" id="g" xlink:href="#h"/><linearGradient id="i"><stop offset="0" stop-color="#353535"/><stop offset="1" stop-color="#353535" stop-opacity="0"/></linearGradient><linearGradient id="j"><stop offset="0" stop-color="#5e5e5e"/><stop offset="1" stop-color="#5e5e5e" stop-opacity="0"/></linearGradient><radialGradient xlink:href="#k" id="l" gradientUnits="userSpaceOnUse" gradientTransform="matrix(2.50995 -.12562 .10263 2.05046 116.62 7.03)" cx="64" cy="64" fx="63.79" fy="47.27" r="47.5"/><linearGradient id="m"><stop offset="0"/><stop offset="1" stop-opacity="0"/></linearGradient><linearGradient id="n"><stop offset="0"/><stop offset="1" stop-opacity="0"/></linearGradient><radialGradient xlink:href="#k" id="o" gradientUnits="userSpaceOnUse" gradientTransform="matrix(1.68421 -.0843 .06886 1.37588 -48.2 -18.66)" cx="64" cy="64" fx="63.79" fy="47.27" r="47.5"/><linearGradient y2="79.98" x2="262.77" y1="57.94" x1="250.05" gradientTransform="translate(-313.25 1.03) scale(1.42811)" gradientUnits="userSpaceOnUse" id="u" xlink:href="#c"/><linearGradient y2="54.75" x2="250.72" y1="29.94" x1="236.39" gradientTransform="translate(-313.25 1.03) scale(1.42811)" gradientUnits="userSpaceOnUse" id="t" xlink:href="#c"/><linearGradient y2="114.55" x2="115.65" y1="196.04" x1="166.02" gradientTransform="matrix(.29572 0 0 .29858 -5.1 60.3)" gradientUnits="userSpaceOnUse" id="s" xlink:href="#p"/><linearGradient y2="114.4" x2="135.67" y1="40.7" x1="61.26" gradientTransform="matrix(.24567 0 0 .24804 1.36 66.11)" gradientUnits="userSpaceOnUse" id="r" xlink:href="#q"/></defs><path d="M31.89 71.22c-2 .01-3.91.18-5.6.48-4.95.87-5.85 2.7-5.85 6.09v4.46h11.7v1.49h-16.1c-3.4 0-6.38 2.04-7.31 5.93-1.08 4.46-1.12 7.25 0 11.9.83 3.47 2.82 5.94 6.22 5.94h4.03v-5.35a7.44 7.44 0 0 1 7.31-7.27H38a5.9 5.9 0 0 0 5.85-5.95V77.79c0-3.18-2.67-5.56-5.85-6.1-2.01-.33-4.1-.48-6.1-.47zm-6.33 3.59c1.2 0 2.2 1 2.2 2.24 0 1.23-1 2.22-2.2 2.22-1.22 0-2.2-1-2.2-2.22 0-1.24.98-2.24 2.2-2.24z" fill="url(#r)" transform="translate(-6.73 -83.27) scale(1.20374)"/><path d="M47.8 81.52v6.26a9.04 9.04 0 0 1-8.8 8.94H24.92a7.19 7.19 0 0 0-7.05 7.16v13.42c0 3.82 3.32 6.07 7.05 7.17a23.58 23.58 0 0 0 14.08 0c3.54-1.03 7.04-3.1 7.04-7.17v-5.37H31.96v-1.79H53.1c4.1 0 5.62-2.86 7.05-7.14 1.47-4.42 1.4-8.67 0-14.33-1.01-4.08-2.95-7.15-7.05-7.15zm-7.92 34c1.46 0 2.65 1.19 2.65 2.67 0 1.49-1.19 2.7-2.65 2.7a2.67 2.67 0 0 1-2.64-2.7 2.66 2.66 0 0 1 2.64-2.68z" fill="url(#s)" transform="translate(0 -64)"/><path d="M31.64 67.17c-2.36.01-4.62.18-6.6.54-2.91.51-4.5 1.3-5.36 2.32-.86 1-1.11 2.36-1.11 4.33v4.15c0 .28.25.53.53.53h12.86c.53 0 .71.19.71.72v1.78c0 .44-.11.71-.71.71H12.59c-3.78 0-7.01 2.17-8.08 6.52v.04h-.05v.05c-.15.63-.24 1.24-.35 1.78-.06.33.25.66.58.63C23 90.24 38.3 84.34 45.2 75.97c.09-.1.13-.24.13-.37v-1.24c0-3.43-2.92-6.06-6.47-6.65a43.3 43.3 0 0 0-7.23-.54zm-7.63 2.9c1.84 0 3.4 1.52 3.4 3.4 0 1.86-1.56 3.38-3.4 3.38a3.4 3.4 0 0 1 0-6.78z" opacity=".2" fill="url(#t)" transform="translate(0 -64)"/><path d="M48.56 82.3v5.49A9.76 9.76 0 0 1 39 97.47H24.9a6.47 6.47 0 0 0-6.3 6.43v.36c.39 0 .75.04 1.13.04 16.8 0 31.66-4.18 40.6-10.58-.16-1.51-.45-3.1-.89-4.86a11.42 11.42 0 0 0-2.23-4.78 5.07 5.07 0 0 0-4.1-1.78z" opacity=".21" fill="url(#u)" transform="translate(0 -64)"/></svg>