<svg xmlns="http://www.w3.org/2000/svg" xmlns:xlink="http://www.w3.org/1999/xlink" width="64" height="64" version="1"><defs><linearGradient id="f"><stop offset="0"/><stop offset=".08"/><stop stop-color="#1a1a1a" offset=".39"/><stop stop-color="#1a1a1a" offset=".51"/><stop stop-color="#333" offset=".72"/><stop stop-color="#646464" offset=".86"/><stop stop-color="#39342d" offset="1"/></linearGradient><linearGradient id="a"><stop offset="0" stop-color="#4d4d4d"/><stop offset="1"/></linearGradient><linearGradient id="b"><stop offset="0" stop-color="#00f"/><stop offset="1" stop-color="teal"/></linearGradient><linearGradient id="c"><stop offset="0" stop-color="#a00"/><stop offset="1" stop-color="#ff2a2a"/></linearGradient><linearGradient xlink:href="#d" id="g" gradientUnits="userSpaceOnUse" gradientTransform="matrix(.0169 0 0 .09536 27.01 41.26)" x1="322.09" y1="66.93" x2="322.09" y2="18.78"/><linearGradient id="d"><stop offset="0" stop-color="#726d65"/><stop offset=".14" stop-color="#d6d0c7"/><stop offset=".36" stop-color="#595041"/><stop offset=".57" stop-color="#595041"/><stop offset=".68" stop-color="#fff"/><stop offset=".87" stop-color="#fff"/><stop offset="1" stop-color="#504a3e"/></linearGradient><radialGradient xlink:href="#d" id="h" gradientUnits="userSpaceOnUse" gradientTransform="matrix(3.14155 -.01843 .0243 4.14154 -39.38 -207.29)" cx="18.49" cy="68.12" fx="18.49" fy="68.12" r="6.2"/><radialGradient xlink:href="#d" id="i" gradientUnits="userSpaceOnUse" gradientTransform="matrix(5.19771 -.09318 .02905 3.85616 -77.74 -185.62)" spreadMethod="reflect" cx="16.81" cy="55.69" fx="16.81" fy="55.69" r="6.2"/><linearGradient xlink:href="#d" id="j" gradientUnits="userSpaceOnUse" gradientTransform="rotate(-45 55.44 .07) scale(.11318 .14308)" x1="322.09" y1="66.93" x2="322.09" y2="18.78"/><linearGradient xlink:href="#e" id="k" x1="98" y1="73" x2="98" y2="52" gradientUnits="userSpaceOnUse" gradientTransform="matrix(.29079 0 0 .33233 1.2 24.55)"/><linearGradient id="e"><stop offset="0" stop-color="#0a0a0a"/><stop offset=".08" stop-color="#141414"/><stop offset=".39" stop-color="#28241d"/><stop offset=".51" stop-color="#28241d"/><stop offset=".72" stop-color="#646464"/><stop offset=".86" stop-color="#646464"/><stop offset="1" stop-color="#37322b"/></linearGradient><linearGradient xlink:href="#d" id="l" gradientUnits="userSpaceOnUse" x1="115.73" y1="70.66" x2="122.27" y2="56.13" gradientTransform="rotate(-45 30.27 -14.05) scale(.29079 .31719)"/><linearGradient xlink:href="#d" id="m" gradientUnits="userSpaceOnUse" gradientTransform="rotate(45 80.92 -35.03) scale(.29079 -.31719)" x1="117.96" y1="59.09" x2="120.21" y2="79.24"/><radialGradient xlink:href="#d" id="n" cx="108.39" cy="80.86" fx="108.39" fy="80.86" r="8" gradientTransform="matrix(.54162 -.9919 .73751 .40272 -52.25 84.75)" gradientUnits="userSpaceOnUse" spreadMethod="repeat"/><radialGradient xlink:href="#d" id="o" cx="111.9" cy="81.48" fx="111.9" fy="81.48" r="8" gradientTransform="matrix(.91438 -1.35055 .7208 .48803 -101.34 119.87)" gradientUnits="userSpaceOnUse" spreadMethod="reflect"/><radialGradient xlink:href="#d" id="p" cx="18.49" cy="68.12" fx="18.49" fy="68.12" r="6.2" gradientTransform="matrix(3.14155 -.01843 .0243 4.14154 -39.38 -207.29)" gradientUnits="userSpaceOnUse"/><radialGradient xlink:href="#d" id="q" gradientUnits="userSpaceOnUse" gradientTransform="matrix(5.19771 -.09318 .02905 3.85616 -77.74 -185.62)" cx="16.81" cy="55.69" fx="16.81" fy="55.69" r="6.2" spreadMethod="reflect"/><linearGradient xlink:href="#f" id="r" gradientUnits="userSpaceOnUse" gradientTransform="matrix(.05123 0 0 .23845 -14.07 35.08)" x1="322.09" y1="66.93" x2="322.09" y2="18.78"/><radialGradient xlink:href="#d" id="s" cx="114.44" cy="62" fx="114.44" fy="62" r="2" gradientTransform="rotate(-45 -96.14 331.92) scale(2.10364 3.45215)" gradientUnits="userSpaceOnUse"/><radialGradient xlink:href="#d" id="t" gradientUnits="userSpaceOnUse" gradientTransform="rotate(45 358.9 -15.06) scale(1.12373 -3.45215)" cx="114.39" cy="64.69" fx="114.39" fy="64.69" r="2" spreadMethod="reflect"/><linearGradient xlink:href="#e" id="u" gradientUnits="userSpaceOnUse" x1="98" y1="73" x2="98" y2="52" gradientTransform="matrix(.29079 0 0 .33233 -5.76 24.55)"/><radialGradient xlink:href="#d" id="v" gradientUnits="userSpaceOnUse" gradientTransform="rotate(135 244.03 45.08) scale(3.49379 -1.01415)" cx="114.38" cy="60.65" fx="114.38" fy="60.65" r="2"/><linearGradient xlink:href="#f" id="w" gradientUnits="userSpaceOnUse" gradientTransform="matrix(.06896 0 0 .28963 -24.13 32.81)" x1="322.09" y1="66.93" x2="322.09" y2="18.78"/><linearGradient xlink:href="#f" id="x" gradientUnits="userSpaceOnUse" gradientTransform="matrix(4.61567 0 0 4.61567 -20.49 -1294.28)" x1="-2.31" y1="290.61" x2="-2.31" y2="289.79"/><linearGradient xlink:href="#f" id="y" gradientUnits="userSpaceOnUse" gradientTransform="matrix(.10145 0 0 .28963 -44.58 32.81)" x1="322.09" y1="66.93" x2="322.09" y2="18.78"/></defs><rect width="3.83" height="4.66" x="30.15" y="43.01" rx=".14" ry=".69" transform="rotate(-45)" fill="url(#g)" fill-rule="evenodd"/><g transform="rotate(-45 24.5 -44.37) scale(.29079 .24066)" fill-rule="evenodd"><rect width="12.4" height="29" x="11.6" y="48" rx="3.1" ry="4.21" fill="url(#h)"/><path d="M14.7 62.54H24v10.98c0 1.93-1.38 3.48-3.1 3.48h-6.2c-1.72 0-3.1-1.55-3.1-3.48v-7.5c0-1.92 1.38-3.48 3.1-3.48z" fill="url(#i)"/></g><path d="M32.87 26.33L51.02 8.18l4.92 4.93L37.8 31.26z" fill="url(#j)" fill-rule="evenodd"/><rect ry="0" rx="1.06" y="41.86" x="29.13" height="6.97" width="1.15" transform="rotate(-45)" fill="url(#k)"/><path d="M53.82 5.44l3.95-1.01c.23-.03.46-.13.75.16l.72.72c.3.3.3.5.26.72l-.78 4.24c-.1.43-.88.23-1.2-.1l-3.6-3.59c-.33-.32-.49-1.07-.13-1.17z" fill="url(#l)" fill-rule="evenodd"/><path d="M54.25 6.91l3.26 3.26c.33.33 1.14.5 1.18.13l.81-4.27c.03-.23.03-.42-.26-.72l-.65-.65z" fill="url(#m)" fill-rule="evenodd"/><path d="M55.72 8.38l1.8 1.8c.32.32 1.13.48 1.17.12l.81-4.27c.03-.23.03-.42-.26-.72l-.23-.23z" fill="url(#n)" fill-rule="evenodd"/><path d="M55.72 8.38l1.53 1.53 2.06-4.47-.07-.13-.23-.23z" fill="url(#o)" fill-rule="evenodd"/><g transform="rotate(-45 29.92 -14.1) scale(.29079 .32083)" fill-rule="evenodd"><rect ry="3.16" rx="3.1" y="48" x="11.6" height="29" width="12.4" fill="url(#p)"/><path d="M14.7 62.54H24v10.98c0 1.93-1.38 3.48-3.1 3.48h-6.2c-1.72 0-3.1-1.55-3.1-3.48v-7.5c0-1.92 1.38-3.48 3.1-3.48z" fill="url(#q)"/></g><rect ry="1.02" rx=".92" y="39.51" x="-4.61" height="11.63" width="11.63" transform="rotate(-45)" fill="url(#r)" fill-rule="evenodd"/><path d="M53.82 5.44l.5-.16 4.5 4.5-.13.52c-.1.43-.92.14-1.18-.13l-3.59-3.59c-.33-.32-.49-1.07-.13-1.17z" fill="url(#s)" fill-rule="evenodd"/><path d="M55.78 8.44l1.76 1.77c.23.23 1.05.52 1.18.13l.1-.56-2.19-2.18z" fill="url(#t)" fill-rule="evenodd"/><rect width="1.15" height="6.97" x="22.16" y="41.86" rx="1.06" ry="0" transform="rotate(-45)" fill="url(#u)"/><path d="M53.7 5.5c-.2.2-.04.82.22 1.08l.4.4.84-.85-.85-.85-.49.16z" fill="url(#v)" fill-rule="evenodd"/><rect ry="1.25" rx="1.2" y="38.21" x="-11.39" height="14.12" width="15.65" transform="rotate(-45)" fill="url(#w)" fill-rule="evenodd"/><rect ry="3.23" rx=".65" y="43.71" x="-37.89" height="3.23" width="15.65" transform="rotate(-45)" fill="url(#x)"/><rect ry="7.06" rx="4.15" y="38.21" x="-25.84" height="14.12" width="23.03" transform="rotate(-45)" fill="url(#y)" fill-rule="evenodd"/></svg>