<svg xmlns="http://www.w3.org/2000/svg" xmlns:xlink="http://www.w3.org/1999/xlink" width="64" height="64" viewBox="0 0 16.93 16.93"><defs><linearGradient gradientTransform="translate(-.1 -.38)" xlink:href="#a" id="d" x1="9.87" y1="13.79" x2="4.82" y2="5.7" gradientUnits="userSpaceOnUse"/><linearGradient id="a"><stop offset="0" stop-color="#002b00"/><stop offset="1" stop-color="#5f5"/></linearGradient><radialGradient xlink:href="#b" id="c" cx="4.73" cy="4.08" fx="4.73" fy="4.08" r="7.67" gradientUnits="userSpaceOnUse"/><linearGradient id="b"><stop offset="0" stop-color="#333"/><stop offset="1"/></linearGradient></defs><path d="M3.86.8A3.08 3.08 0 0 0 .8 3.85v10.75c0 .83.7 1.53 1.54 1.53h10.74a3.08 3.08 0 0 0 3.07-3.07V2.33c0-.84-.7-1.54-1.53-1.54z" fill="url(#c)"/><path d="M7.07 4.63c-.5 0-.95.08-1.32.23a2.46 2.46 0 0 0-1.5 1.64A4.61 4.61 0 0 0 4.2 9c.1.36.24.68.44.95a2.48 2.48 0 0 0 1.78 1.03c.03.37.11.68.25.94a2.03 2.03 0 0 0 1.22 1c.26.08.52.12.79.12h.63v-.51H9.2c-.15 0-.3-.02-.44-.07a.95.95 0 0 1-.39-.24 1.4 1.4 0 0 1-.3-.49 2.8 2.8 0 0 1-.16-.79 2.57 2.57 0 0 0 2.02-1.99 4.24 4.24 0 0 0-.05-2.44c-.13-.4-.33-.73-.58-1-.25-.29-.57-.5-.94-.65a3.3 3.3 0 0 0-1.28-.23zm0 .74c.26 0 .48.06.66.17.17.11.32.27.43.48.1.2.19.46.23.77a6.3 6.3 0 0 1 0 2.08c-.04.3-.12.56-.23.77a1.2 1.2 0 0 1-1.09.65c-.26 0-.47-.07-.65-.18a1.25 1.25 0 0 1-.44-.47c-.12-.21-.2-.47-.25-.77a6.35 6.35 0 0 1 0-2.08c.05-.3.13-.56.25-.77.11-.21.26-.37.44-.48.18-.1.4-.17.65-.17zm4.5 0c-.1.4-.14.38-.32.57a1.14 1.14 0 0 1-.87.37v.61h.66v2.74a2 2 0 0 0 .1.64.95.95 0 0 0 .67.65c.16.05.34.08.54.08a4.24 4.24 0 0 0 1.06-.14l.2-.08v-.85l-.3.06a1.6 1.6 0 0 1-.27.02c-.17 0-.29-.06-.36-.18s-.1-.31-.1-.58V6.92h.94v-.76h-.95v-.79h-1z" opacity=".23" fill="#5aa02c"/><path d="M6.7 4.26c-.5 0-.94.08-1.32.23a2.46 2.46 0 0 0-1.5 1.65 4.61 4.61 0 0 0-.04 2.5c.1.36.25.67.44.94a2.48 2.48 0 0 0 1.78 1.03c.03.37.12.68.25.94a2.03 2.03 0 0 0 1.23 1c.26.08.52.13.78.12h.64v-.5h-.14c-.15 0-.3-.03-.44-.08a.95.95 0 0 1-.38-.24 1.4 1.4 0 0 1-.3-.48 2.8 2.8 0 0 1-.16-.8 2.57 2.57 0 0 0 2.02-1.99 4.24 4.24 0 0 0-.06-2.43c-.13-.4-.32-.73-.58-1.01-.25-.28-.57-.5-.94-.65a3.3 3.3 0 0 0-1.27-.23zm0 .75c.26 0 .48.06.66.17.18.1.32.26.43.47.11.21.19.47.24.77a6.3 6.3 0 0 1 0 2.08c-.05.3-.13.56-.24.77-.11.2-.26.37-.44.48-.17.1-.4.17-.65.17s-.47-.06-.65-.17a1.25 1.25 0 0 1-.44-.48c-.11-.21-.2-.47-.24-.77a6.35 6.35 0 0 1 0-2.08c.05-.3.13-.56.24-.77.11-.2.26-.36.44-.47.18-.11.4-.17.66-.17zm4.5 0c-.1.39-.13.38-.32.56-.08.1-.2.19-.36.26-.15.08-.32.11-.5.11v.62h.66v2.73a2 2 0 0 0 .09.65.95.95 0 0 0 .67.65c.16.05.34.07.54.07a4.24 4.24 0 0 0 1.06-.14l.2-.07V9.6l-.3.06a1.6 1.6 0 0 1-.27.02c-.16 0-.28-.06-.36-.18-.07-.13-.1-.32-.1-.58V6.56h.94v-.77h-.94v-.78H11.2z" fill="url(#d)"/></svg>