<svg xmlns="http://www.w3.org/2000/svg" xmlns:xlink="http://www.w3.org/1999/xlink" width="64" height="64" viewBox="0 0 16.93 16.93"><defs><radialGradient xlink:href="#a" id="c" cx="4.73" cy="4.08" fx="4.73" fy="4.08" r="7.67" gradientUnits="userSpaceOnUse"/><linearGradient id="a"><stop offset="0" stop-color="#333"/><stop offset="1"/></linearGradient><linearGradient gradientTransform="matrix(.89319 0 0 .89319 -.97 -1.19)" xlink:href="#b" id="d" x1="9.87" y1="13.79" x2="4.82" y2="5.7" gradientUnits="userSpaceOnUse"/><linearGradient id="b"><stop offset="0" stop-color="#002b00"/><stop offset="1" stop-color="#5f5"/></linearGradient></defs><path d="M3.86.8A3.08 3.08 0 0 0 .8 3.85v10.75c0 .83.7 1.53 1.54 1.53h10.74a3.08 3.08 0 0 0 3.07-3.07V2.33c0-.84-.7-1.54-1.53-1.54z" fill="url(#c)"/><path d="M5.43 3.29c-.45 0-.85.07-1.18.2A2.2 2.2 0 0 0 2.9 4.96a4.12 4.12 0 0 0-.03 2.23c.08.33.21.6.39.85a2.21 2.21 0 0 0 1.59.92c.02.33.1.6.22.84a1.81 1.81 0 0 0 1.1.9c.23.07.46.1.7.1h.56v-.46h-.12c-.13 0-.26-.02-.4-.06a.85.85 0 0 1-.34-.22c-.1-.1-.2-.24-.26-.43a2.5 2.5 0 0 1-.15-.7c.32-.08.6-.2.83-.36a2.3 2.3 0 0 0 .97-1.42 3.79 3.79 0 0 0-.05-2.18 2.25 2.25 0 0 0-1.35-1.48c-.33-.13-.71-.2-1.14-.2zm0 .66a1.05 1.05 0 0 1 .97.58c.1.19.17.41.21.68a5.63 5.63 0 0 1 0 1.86c-.04.27-.11.5-.21.7a1.08 1.08 0 0 1-.97.58c-.23-.01-.42-.06-.59-.16-.15-.1-.29-.24-.39-.43-.1-.19-.17-.42-.22-.69a5.67 5.67 0 0 1 0-1.86c.05-.27.12-.5.22-.68.1-.19.23-.33.4-.42.16-.1.35-.16.58-.16zm4.01 0c-.08.35-.11.34-.28.5a1.02 1.02 0 0 1-.78.33v.56h.6v2.44c0 .23.02.42.08.58a.85.85 0 0 0 .6.58c.14.04.3.07.48.07a3.79 3.79 0 0 0 .95-.13l.17-.07v-.76l-.26.06-.24.01c-.15 0-.26-.05-.32-.16-.07-.1-.1-.28-.1-.52v-2.1h.85v-.69h-.85v-.7h-.9z" opacity=".23" fill="#5aa02c"/><path d="M5.1 2.96c-.45 0-.84.07-1.18.2a2.2 2.2 0 0 0-1.34 1.48 4.12 4.12 0 0 0-.03 2.23c.08.32.21.6.39.84a2.21 2.21 0 0 0 1.59.92c.03.33.1.6.22.84a1.81 1.81 0 0 0 1.1.9c.23.07.46.1.7.1h.56v-.45H7c-.13 0-.26-.02-.39-.06a.85.85 0 0 1-.35-.22c-.1-.1-.19-.25-.26-.44a2.5 2.5 0 0 1-.14-.7 2.3 2.3 0 0 0 1.8-1.78 3.79 3.79 0 0 0-.05-2.18 2.25 2.25 0 0 0-1.35-1.48c-.34-.13-.72-.2-1.14-.2zm0 .67c.23 0 .43.05.59.15.15.1.28.23.38.42.1.19.17.42.21.69a5.63 5.63 0 0 1 0 1.86c-.04.27-.11.5-.2.68a1.08 1.08 0 0 1-.97.58c-.24 0-.43-.05-.6-.15-.15-.1-.28-.24-.38-.43-.1-.19-.18-.41-.22-.68a5.67 5.67 0 0 1 0-1.86c.04-.27.11-.5.22-.69.1-.19.23-.33.39-.42.16-.1.35-.15.59-.15zm4.01 0c-.08.34-.11.33-.27.5a1.02 1.02 0 0 1-.78.33V5h.59v2.44c0 .23.03.42.08.58a.85.85 0 0 0 .6.58c.14.04.3.07.48.07a3.79 3.79 0 0 0 .95-.13c.08-.02.14-.05.18-.07v-.75l-.27.05-.24.02c-.14 0-.25-.06-.32-.17-.06-.1-.1-.28-.1-.51v-2.1h.85v-.7h-.84v-.7h-.9z" fill="url(#d)"/><path d="M14.12 10.12c.25 0 .46.2.46.46v2.54c0 .25-.2.46-.46.46H12.5l-1.84 1.38.23-1.38H9.28a.46.46 0 0 1-.46-.46v-2.54c0-.25.2-.46.46-.46z" color="#000" fill="#09b7c1" opacity=".25"/><path d="M13.95 9.96c.26 0 .46.2.46.46v2.53c0 .26-.2.46-.46.46h-1.61L10.5 14.8l.23-1.39H9.12a.46.46 0 0 1-.46-.46v-2.53c0-.26.2-.46.46-.46z" color="#000" fill="#09b7c1"/></svg>