<svg xmlns="http://www.w3.org/2000/svg" xmlns:xlink="http://www.w3.org/1999/xlink" width="64" height="64" version="1"><defs><linearGradient id="c"><stop offset="0" stop-color="#999"/><stop offset="1" stop-color="#fff"/></linearGradient><linearGradient id="b"><stop offset="0" stop-color="#00f"/><stop offset="1" stop-color="#0ff"/></linearGradient><linearGradient id="a"><stop offset="0" stop-color="#4d4d4d"/><stop offset="1"/></linearGradient><radialGradient xlink:href="#a" id="d" cx="16" cy="19.25" fx="16" fy="19.25" r="28" gradientUnits="userSpaceOnUse" gradientTransform="matrix(.88378 .33898 -.35812 .93367 8.75 -4.15)"/><linearGradient xlink:href="#b" id="e" x1="8.32" y1="29.38" x2="45.41" y2="29.38" gradientUnits="userSpaceOnUse"/><linearGradient xlink:href="#c" id="f" x1="-19.87" y1="22.47" x2="39.22" y2="23.07" gradientUnits="userSpaceOnUse"/></defs><path d="M32 4C16.49 4 4 16.49 4 32s12.49 28 28 28 28-12.49 28-28S47.51 4 32 4z" fill="url(#d)"/><path d="M14.8 22.36s10.04-.67 19.3 6.28c0 0 7.35 5.21 11.3 4.83 0 0-7.52 5.6-14.19 1.35 0 0-12.46-9.08-22.89-.39z" transform="matrix(1.2 0 0 1.2 1.51 3.13)" fill="url(#e)"/><path d="M8.32 34.43s-6.56-8.88 0-20.66c0 0 8.71-5.24 18.93.95l.48.3c8.6 5.22 11.5 4.54 11.5 4.54s-1.35 2.61-10.92 1.74c0 0-11.4-.87-19.99 13.13z" fill="url(#f)" transform="matrix(1.2 0 0 1.2 1.51 3.13)"/></svg>