<?xml version="1.0" encoding="UTF-8" standalone="no"?><svg xmlns:dc="http://purl.org/dc/elements/1.1/" xmlns:cc="http://creativecommons.org/ns#" xmlns:rdf="http://www.w3.org/1999/02/22-rdf-syntax-ns#" xmlns="http://www.w3.org/2000/svg" xmlns:xlink="http://www.w3.org/1999/xlink" width="64" height="64"><defs><linearGradient id="d"><stop offset="0" stop-color="#4d4d4d"/><stop offset="1"/></linearGradient><linearGradient id="a"><stop offset="0" stop-color="#fff"/><stop offset=".51" stop-color="#fff" stop-opacity=".24"/><stop offset=".83" stop-color="#fff" stop-opacity=".16"/><stop offset="1" stop-color="#fff" stop-opacity=".39"/></linearGradient><linearGradient id="b"><stop offset="0" stop-color="#333"/><stop offset="1"/></linearGradient><linearGradient id="c"><stop offset="0"/><stop offset="1" stop-opacity="0"/></linearGradient><linearGradient x1="71.2" y1="6.24" x2="71.2" y2="44.34" id="f" xlink:href="#a" gradientUnits="userSpaceOnUse" gradientTransform="matrix(1.36256 0 0 1.36256 -65.74 -2.55)"/><radialGradient xlink:href="#d" id="e" cx="15.77" cy="11.09" fx="15.77" fy="11.09" r="20.5" gradientUnits="userSpaceOnUse" gradientTransform="matrix(1.29268 0 0 1.29268 .98 .98)"/></defs><metadata><rdf:RDF><cc:Work><dc:format>image/svg+xml</dc:format><dc:type rdf:resource="http://purl.org/dc/dcmitype/StillImage"/><dc:title/></cc:Work></rdf:RDF></metadata><path d="M32 5.5A26.52 26.52 0 0 0 5.5 32 26.52 26.52 0 0 0 32 58.5 26.52 26.52 0 0 0 58.5 32 26.52 26.52 0 0 0 32 5.5z" style="marker:none" color="#000" overflow="visible" opacity=".99" fill="url(#e)"/><path d="M57.2 32a25.2 25.2 0 1 1-50.4 0 25.2 25.2 0 0 1 50.4 0z" style="marker:none" color="#000" overflow="visible" opacity=".5" fill="none" stroke="url(#f)" stroke-linecap="round" stroke-linejoin="round"/><path style="isolation:auto;mix-blend-mode:normal;marker:none" d="M32 13.55v5.12a15.36 15.36 0 1 0 15.36 15.35h-5.12A10.24 10.24 0 1 1 32 23.78v5.12l12.8-7.67z" color="#000" overflow="visible" opacity=".15" fill="#fff"/><path style="isolation:auto;mix-blend-mode:normal;marker:none" d="M31.91 12.05a1.5 1.5 0 0 0-1.4 1.5v3.92c-8.56.8-15.37 7.8-15.37 16.55 0 9.3 7.57 16.86 16.86 16.86 9.3 0 16.86-7.56 16.86-16.86a1.5 1.5 0 0 0-1.5-1.5h-5.12a1.5 1.5 0 0 0-1.5 1.5c0 4.85-3.9 8.75-8.74 8.75a8.72 8.72 0 0 1-8.74-8.75 8.6 8.6 0 0 1 7.24-8.44v3.32a1.5 1.5 0 0 0 2.27 1.29l12.8-7.68a1.5 1.5 0 0 0 0-2.56l-12.8-7.69a1.5 1.5 0 0 0-.86-.2z" color="#000" overflow="visible" opacity=".05" fill="#fff"/><path style="marker:none" d="M32 12.05v5.12a15.36 15.36 0 1 0 15.36 15.36h-5.12A10.24 10.24 0 1 1 32 22.3v5.12l12.8-7.68z" color="#bebebe" overflow="visible" fill="#fff"/></svg>