<svg xmlns="http://www.w3.org/2000/svg" xmlns:xlink="http://www.w3.org/1999/xlink" width="64" height="64"><defs><linearGradient gradientTransform="translate(0 -.92)" xlink:href="#a" id="d" x1="6.15" y1="45.12" x2="54.08" y2="15.06" gradientUnits="userSpaceOnUse"/><linearGradient id="a"><stop offset="0" stop-color="#333"/><stop offset="1" stop-color="gray"/></linearGradient><linearGradient gradientTransform="translate(0 -.92)" xlink:href="#b" id="c" x1="9.29" y1="49.99" x2="57.37" y2="19.84" gradientUnits="userSpaceOnUse"/><linearGradient id="b"><stop offset="0"/><stop offset="1" stop-color="#333"/></linearGradient></defs><path d="M19.16 16.64L37 29.12l-16.14 6.64 6.4-6.53-8.35-6.4zM57.37 18.92l-4.87 3.24a23.2 23.2 0 0 1 2.7 10.76A23.2 23.2 0 0 1 32 56.12a23.2 23.2 0 0 1-17.85-8.44L9.29 50.9c5.32 6.7 13.51 11 22.71 11 15.99 0 29-13 29-29 0-5.07-1.33-9.84-3.63-14z" opacity=".41" fill="#333"/><path d="M57.37 17.08l-4.87 3.25a23.2 23.2 0 0 1 2.7 10.75A23.2 23.2 0 0 1 32 54.28a23.2 23.2 0 0 1-17.85-8.44l-4.86 3.23C14.61 55.77 22.8 60.08 32 60.08c15.99 0 29-13 29-29 0-5.07-1.33-9.84-3.63-14z" fill="url(#c)"/><path d="M32 3.92c-16 0-29 13-29 29a28.8 28.8 0 0 0 3.15 13.12l4.9-3.26a23.2 23.2 0 0 1-2.25-9.86A23.2 23.2 0 0 1 32 9.72a23.2 23.2 0 0 1 17.19 7.68l4.89-3.26A28.94 28.94 0 0 0 32 3.92z" opacity=".41"/><path d="M32 2.08c-16 0-29 13.01-29 29A28.8 28.8 0 0 0 6.15 44.2l4.9-3.26a23.2 23.2 0 0 1-2.25-9.86A23.2 23.2 0 0 1 32 7.88a23.2 23.2 0 0 1 17.19 7.68l4.89-3.25A28.94 28.94 0 0 0 32 2.08z" fill="url(#d)"/><path d="M19.16 15.45L37 27.92l-16.14 6.65 6.4-6.53-8.35-6.4z"/><path d="M43.12 30.94l-6.4 6.53 8.36 6.4-.24 6.2L27 37.57z" opacity=".41"/><path d="M43.12 29.75l-6.4 6.52 8.36 6.41-.24 6.19L27 36.39z" fill="#333"/></svg>