<svg xmlns="http://www.w3.org/2000/svg" xmlns:xlink="http://www.w3.org/1999/xlink" width="64" height="64" version="1"><defs><linearGradient id="b"><stop offset="0" stop-color="#cf4f8c"/><stop offset=".43" stop-color="#ff8c2a"/><stop offset="1" stop-color="#c72566"/></linearGradient><radialGradient gradientTransform="matrix(2.07143 0 0 2.07143 -17.71 -17.71)" xlink:href="#a" id="c" cx="18.12" cy="18.12" fx="18.12" fy="18.12" r="14" gradientUnits="userSpaceOnUse"/><linearGradient id="a"><stop offset="0" stop-color="#4d4d4d"/><stop offset="1"/></linearGradient><linearGradient xlink:href="#b" id="d" gradientUnits="userSpaceOnUse" gradientTransform="matrix(2.07143 0 0 2.07143 -17.71 -17.71)" x1="14" y1="23.98" x2="29.63" y2="23.86"/></defs><path d="M58.93 61H5.07A2.07 2.07 0 0 1 3 58.93V5.07C3 3.93 3.93 3 5.07 3h53.86C60.07 3 61 3.93 61 5.07v53.86c0 1.14-.93 2.07-2.07 2.07z" fill="url(#c)"/><path d="M10.46 11.78v21.39h4.4v-8.48h5.04c.96 0 1.65.2 2.08.61.43.4.65 1.04.65 1.94l-.03.88a24.93 24.93 0 0 0 .09 3.58c.1.47.28.96.55 1.47h4.73v-.8c-.63-.35-.94-.93-.94-1.75l-.06-2.7a15.12 15.12 0 0 0-.44-3.14c-.08-.24-.26-.5-.53-.8-.25-.29-.5-.5-.76-.61-.26-.14-.65-.31-1.18-.53 2.41-.94 3.61-2.7 3.61-5.28a6.37 6.37 0 0 0-1.14-3.76 4.1 4.1 0 0 0-1.79-1.46 6.52 6.52 0 0 0-2.82-.56H10.46zm24.24.94l-1 5.1h-3.49v2.91h2.9l-.87 4.49h-2.85v2.9h2.26l-1.17 5.99h3.1l1.18-5.99h3.02l-1.17 5.99h3.08l1.17-5.99h3.5v-2.9h-2.94l.91-4.49h3.2v-2.9h-2.64l1-5.1H40.8l-1 5.1H36.8l1-5.1H34.7zm-19.85 2.73h5.31c1.06 0 1.84.19 2.35.56.5.35.76 1.07.76 2.17 0 1.15-.26 1.91-.79 2.28-.5.38-1.28.56-2.32.56h-5.3v-5.57zm21.35 5.28h3.02l-.88 4.49h-3.02l.88-4.49zM11.29 46.5v4.14h18.64V46.5H11.29z" fill="url(#d)"/></svg>