<svg xmlns="http://www.w3.org/2000/svg" xmlns:xlink="http://www.w3.org/1999/xlink" width="64" height="64" version="1"><defs><linearGradient id="b"><stop offset="0" stop-color="#cf4f8c"/><stop offset=".29" stop-color="#c72566"/><stop offset="1" stop-color="#ff8c2a"/></linearGradient><radialGradient gradientTransform="matrix(2.07143 0 0 2.07143 -17.71 -17.71)" xlink:href="#a" id="c" cx="18.12" cy="18.12" fx="18.12" fy="18.12" r="14" gradientUnits="userSpaceOnUse"/><linearGradient id="a"><stop offset="0" stop-color="#4d4d4d"/><stop offset="1"/></linearGradient><linearGradient xlink:href="#b" id="d" gradientUnits="userSpaceOnUse" gradientTransform="matrix(2.07143 0 0 2.07143 -17.4 -17.71)" x1="14" y1="23.98" x2="33.36" y2="23.8"/></defs><path d="M58.93 61H5.07A2.07 2.07 0 0 1 3 58.93V5.07C3 3.93 3.93 3 5.07 3h53.86C60.07 3 61 3.93 61 5.07v53.86c0 1.14-.93 2.07-2.07 2.07z" fill="url(#c)"/><path d="M10.33 15.67v17.5h3.6v-6.94h4.13c.78 0 1.35.17 1.7.5.36.32.53.85.53 1.59 0 .2 0 .45-.02.72a20.45 20.45 0 0 0 .07 2.93c.08.38.23.78.46 1.2h3.86v-.65c-.51-.29-.77-.77-.77-1.44-.01-.98-.03-1.71-.05-2.2a12.37 12.37 0 0 0-.36-2.58c-.06-.19-.2-.4-.43-.65-.2-.24-.41-.4-.62-.5-.21-.11-.53-.26-.96-.43a4.28 4.28 0 0 0 2.95-4.32 5.56 5.56 0 0 0-.94-3.07c-.32-.5-.8-.9-1.46-1.2-.64-.3-1.4-.46-2.3-.46zm3.6 3h4.35c.86 0 1.5.15 1.92.46.41.28.62.88.62 1.77 0 .95-.22 1.57-.65 1.88-.41.3-1.05.45-1.9.45h-4.34zm17.4 3.14v4.37h-4.37v2.86h4.36v4.37h2.86v-4.37h4.37v-2.86h-4.37v-4.37zm14.01 0v4.37h-4.37v2.86h4.37v4.37h2.86v-4.37h4.36v-2.86H48.2v-4.37zM11.59 46.5v4.14h18.64V46.5z" fill="url(#d)"/></svg>