<svg xmlns="http://www.w3.org/2000/svg" xmlns:xlink="http://www.w3.org/1999/xlink" width="64" height="64" viewBox="0 0 16.93 16.93"><defs><linearGradient id="d"><stop offset="0" stop-color="#333"/><stop offset="1"/></linearGradient><linearGradient id="c"><stop offset="0" stop-color="#d69127"/><stop offset="1" stop-color="#d3bc5f"/></linearGradient><linearGradient id="b"><stop offset="0"/><stop offset="1" stop-color="#333"/></linearGradient><linearGradient id="a"><stop offset="0" stop-color="#4d4d4d"/><stop offset="1"/></linearGradient><radialGradient xlink:href="#a" id="e" cx="-5.28" cy="5.06" fx="-5.28" fy="5.06" r="6.23" gradientTransform="matrix(1 0 0 1.27273 0 -2.35)" gradientUnits="userSpaceOnUse"/><linearGradient xlink:href="#b" id="f" x1="3.24" y1="5.97" x2="14.09" y2="13.74" gradientUnits="userSpaceOnUse" gradientTransform="matrix(.80952 0 0 .80952 1.61 2.02)"/><linearGradient xlink:href="#c" id="g" x1="4.23" y1="15.08" x2="4.23" y2="6.09" gradientUnits="userSpaceOnUse" gradientTransform="matrix(.80952 0 0 .80952 1.61 2.02)"/><radialGradient xlink:href="#d" id="i" cx="7.65" cy="9.84" fx="7.65" fy="9.84" r="1.85" gradientUnits="userSpaceOnUse" gradientTransform="matrix(.80952 0 0 .80952 1.61 2.02)"/><linearGradient xlink:href="#b" id="h" x1="3.24" y1="5.97" x2="14.09" y2="13.74" gradientUnits="userSpaceOnUse" gradientTransform="matrix(.34694 0 0 .34694 5.53 6.91)"/><linearGradient xlink:href="#b" id="j" x1="3.24" y1="5.97" x2="14.09" y2="13.74" gradientUnits="userSpaceOnUse" gradientTransform="translate(7.69 .28) scale(.2517)"/><radialGradient xlink:href="#d" id="k" cx="7.65" cy="9.84" fx="7.65" fy="9.84" r="1.85" gradientUnits="userSpaceOnUse" gradientTransform="translate(4.85 -3.27) scale(.5873)"/><linearGradient xlink:href="#b" id="l" x1="3.24" y1="5.97" x2="14.09" y2="13.74" gradientUnits="userSpaceOnUse" gradientTransform="translate(15.3 .26) scale(.2517)"/><radialGradient xlink:href="#d" id="m" cx="7.65" cy="9.84" fx="7.65" fy="9.84" r="1.85" gradientUnits="userSpaceOnUse" gradientTransform="translate(12.46 -3.29) scale(.5873)"/></defs><rect width="12.46" height="15.86" x="-14.7" y=".68" rx=".78" ry=".79" transform="scale(-1 1)" fill="url(#e)"/><path d="M8.47 5.56a5 5 0 0 0-2.05.43H4.53c-.36 0-.65.3-.65.66v1.9a5 5 0 0 0 0 4.08v1.89c0 .36.29.65.65.65h1.9a5 5 0 0 0 4.08 0h1.9c.35 0 .65-.29.65-.65v-1.9a5 5 0 0 0 0-4.08v-1.9c0-.35-.3-.65-.66-.65h-1.9a5 5 0 0 0-2.03-.43z" style="marker:none" color="#000" overflow="visible" fill="#1a1a1a"/><circle style="marker:none" cx="8.47" cy="10.58" r="4.5" color="#000" overflow="visible" fill="url(#f)"/><circle style="marker:none" cx="8.47" cy="10.58" r="3.64" color="#000" overflow="visible" fill="url(#g)"/><path style="marker:none" d="M4.83 6.73a.21.21 0 0 0-.22.21.21.21 0 0 0 .22.22.21.21 0 0 0 .21-.22.21.21 0 0 0-.21-.21zm7.28 0a.21.21 0 0 0-.22.21.21.21 0 0 0 .22.22.21.21 0 0 0 .21-.22.21.21 0 0 0-.21-.21zM4.83 14a.21.21 0 0 0-.22.21.21.21 0 0 0 .22.22.21.21 0 0 0 .21-.22.21.21 0 0 0-.21-.21zm7.28 0a.21.21 0 0 0-.22.21.21.21 0 0 0 .22.22.21.21 0 0 0 .21-.22.21.21 0 0 0-.21-.21z" color="#000" overflow="visible" fill="gray"/><circle style="marker:none" cx="8.47" cy="10.58" r="1.93" color="#000" overflow="visible" fill="url(#h)"/><circle style="marker:none" cx="8.47" cy="10.58" r="1.5" color="#000" overflow="visible" fill="url(#i)"/><g transform="translate(-5.16 .34)" color="#000"><circle r="1.4" cy="2.95" cx="9.82" style="marker:none" overflow="visible" fill="url(#j)"/><circle r="1.09" cy="2.95" cx="9.82" style="marker:none" overflow="visible" fill="url(#k)"/><circle r="1.4" cy="2.93" cx="17.44" style="marker:none" overflow="visible" fill="url(#l)"/><circle r="1.09" cy="2.93" cx="17.44" style="marker:none" overflow="visible" fill="url(#m)"/></g></svg>