<svg xmlns="http://www.w3.org/2000/svg" xmlns:xlink="http://www.w3.org/1999/xlink" width="64" height="64" version="1"><defs><linearGradient id="b"><stop offset="0" stop-color="#6655e4"/><stop offset=".35" stop-color="#cf4f8c"/><stop offset="1" stop-color="#f7c73c"/></linearGradient><radialGradient gradientTransform="matrix(2.07143 0 0 2.07143 -17.71 -17.71)" xlink:href="#a" id="c" cx="18.12" cy="18.12" fx="18.12" fy="18.12" r="14" gradientUnits="userSpaceOnUse"/><linearGradient id="a"><stop offset="0" stop-color="#4d4d4d"/><stop offset="1"/></linearGradient><linearGradient xlink:href="#b" id="d" gradientUnits="userSpaceOnUse" gradientTransform="matrix(2.07143 0 0 2.07143 -17.66 -17.71)" x1="14" y1="23.98" x2="35.85" y2="24.34"/></defs><path d="M58.93 61H5.07A2.07 2.07 0 0 1 3 58.93V5.07C3 3.93 3.93 3 5.07 3h53.86C60.07 3 61 3.93 61 5.07v53.86c0 1.14-.93 2.07-2.07 2.07z" fill="url(#c)"/><path d="M10.51 11.78v21.39h4.4v-8.48h5.05c.96 0 1.65.2 2.08.61.43.4.64 1.04.64 1.94 0 .26 0 .55-.03.88a24.93 24.93 0 0 0 .1 3.58c.09.47.28.96.55 1.47h4.72v-.8c-.62-.35-.94-.93-.94-1.75l-.05-2.7a15.12 15.12 0 0 0-.44-3.14c-.08-.24-.26-.5-.53-.8-.26-.29-.51-.5-.77-.61-.25-.14-.64-.31-1.17-.53 2.4-.94 3.6-2.7 3.6-5.28a6.37 6.37 0 0 0-1.14-3.76 4.1 4.1 0 0 0-1.78-1.46 6.52 6.52 0 0 0-2.82-.56zm21.2 0v21.39h8.36c3.1 0 5.36-.83 6.74-2.5 1.74-2.03 2.62-4.77 2.62-8.2 0-3.41-.88-6.15-2.62-8.22a6.25 6.25 0 0 0-2.7-1.88c-1.05-.4-2.4-.59-4.04-.59zm-16.8 3.67h5.31c1.06 0 1.84.19 2.35.56.5.35.76 1.07.76 2.17 0 1.15-.26 1.91-.8 2.28-.5.38-1.27.56-2.3.56H14.9zm21.2 0h3.96c3.3 0 4.96 2.35 4.96 7.04 0 4.67-1.66 7.01-4.96 7.01H36.1zM11.34 46.5v4.14h18.64V46.5z" fill="url(#d)"/></svg>