<svg xmlns="http://www.w3.org/2000/svg" xmlns:xlink="http://www.w3.org/1999/xlink" width="64" height="64" version="1"><defs><linearGradient id="b"><stop offset="0" stop-color="#1c60db"/><stop offset="1" stop-color="#afdde9"/></linearGradient><linearGradient id="a"><stop offset="0" stop-color="#4d4d4d"/><stop offset="1"/></linearGradient><radialGradient xlink:href="#a" id="c" cx="16" cy="19.25" fx="16" fy="19.25" r="28" gradientUnits="userSpaceOnUse" gradientTransform="matrix(.88378 .33898 -.35812 .93367 8.75 -4.15)"/><linearGradient xlink:href="#b" id="d" x1="26.74" y1="20.91" x2="26.74" y2="45.77" gradientUnits="userSpaceOnUse" gradientTransform="translate(0 2)"/></defs><path d="M32 4C16.49 4 4 16.49 4 32s12.49 28 28 28 28-12.49 28-28S47.51 4 32 4z" fill="url(#c)"/><path d="M32 13.47c-11.13 0-20.15 5.58-20.15 12.46 0 6.87 9.02 12.45 20.15 12.45 11.13 0 20.15-5.58 20.15-12.45 0-6.88-9.02-12.46-20.15-12.46zm3.67 3.3c8.18 0 14.8 4.1 14.8 9.16 0 5.05-6.62 9.15-14.8 9.15-8.19 0-14.82-4.1-14.82-9.15 0-5.06 6.63-9.16 14.82-9.16z" fill="#999" stroke-width=".83"/><path d="M26.74 47.77V22.9h12.8q3.56 0 5.44.6 1.89.62 3.04 2.28 1.15 1.65 1.15 4.02 0 2.07-.88 3.58-.88 1.49-2.43 2.42-.98.6-2.7.99 1.38.45 2.01.91.42.3 1.22 1.3.81 1 1.09 1.55l3.7 7.2h-8.67l-4.1-7.59q-.79-1.48-1.4-1.92-.83-.57-1.88-.57h-.68v10.09zm7.71-14.79h3.24q.53 0 2.04-.34.76-.15 1.23-.78.5-.63.5-1.44 0-1.2-.77-1.85-.76-.64-2.86-.64h-3.38z" style="font-variant-ligatures:normal;font-variant-caps:normal;font-variant-numeric:normal;font-feature-settings:normal" fill="url(#d)" stroke-width=".92"/></svg>