<svg xmlns="http://www.w3.org/2000/svg" xmlns:xlink="http://www.w3.org/1999/xlink" width="64" height="64" version="1"><defs><linearGradient id="a"><stop offset="0" stop-color="#4d4d4d"/><stop offset="1"/></linearGradient><radialGradient xlink:href="#a" id="b" cx="16" cy="19.25" fx="16" fy="19.25" r="28" gradientUnits="userSpaceOnUse" gradientTransform="matrix(.88378 .33898 -.35812 .93367 8.75 -4.15)"/></defs><path d="M32 4C16.49 4 4 16.49 4 32s12.49 28 28 28 28-12.49 28-28S47.51 4 32 4z" fill="url(#b)"/><path d="M32.27 4.03c.04 11.66-8.79 22.3-27.3 27.59v.52C22.4 27.8 37.1 18.93 40.42 5.42c-.92-.29-1.8-.66-2.76-.85a28.38 28.38 0 0 0-5.39-.54zm17.81 13.79C33.96 17.84 18.62 26.68 9.04 48a28 28 0 0 0 3.14 3.82 28 28 0 0 0 4.14 3.41l.12.06C23.37 33.14 37.6 18.65 57.2 19.95c-.25-.51-.54-1-.8-1.49-2.11-.27-4.22-.64-6.32-.63v-.01z" color="#000" fill="#fff" opacity=".19"/><path d="M32 4c-.26 0-.5.07-.74.07.08 10.48-7.82 20.03-24.42 24.77v.47C22.64 25.37 36.02 17.28 38.7 4.9c-.36-.09-.69-.25-1.05-.32A28.32 28.32 0 0 0 32 4zm15.17 12.5c-15.42.02-30.12 8.9-38.49 31.01.04.05.06.12.09.17a28 28 0 0 0 3.41 4.14 28.01 28.01 0 0 0 3.48 2.86c5.85-23.6 20.3-39.28 40.77-36.14-.21-.39-.4-.78-.62-1.15a44.39 44.39 0 0 0-8.64-.88z" color="#000" fill="#e8ecee"/></svg>