<?xml version="1.0" encoding="UTF-8" standalone="no"?><!--Created with Inkscape (http://www.inkscape.org/)--><svg xmlns:dc="http://purl.org/dc/elements/1.1/" xmlns:cc="http://creativecommons.org/ns#" xmlns:rdf="http://www.w3.org/1999/02/22-rdf-syntax-ns#" xmlns="http://www.w3.org/2000/svg" xmlns:xlink="http://www.w3.org/1999/xlink" width="128" height="128" version="1"><defs><linearGradient id="h"><stop offset="0"/><stop offset="1" stop-color="#666"/></linearGradient><linearGradient id="g"><stop offset="0" stop-color="navy"/><stop offset="1" stop-color="#fff" stop-opacity="0"/></linearGradient><linearGradient y2="102.09" x2="115.98" y1="72.34" x1="108" gradientUnits="userSpaceOnUse" id="l" xlink:href="#a"/><linearGradient y2="102.09" x2="115.98" y1="72.34" x1="108" gradientUnits="userSpaceOnUse" id="j" xlink:href="#a"/><linearGradient gradientTransform="translate(229.84 405.96)" y2="109.87" x2="12.73" y1="120.76" x1="23.98" gradientUnits="userSpaceOnUse" id="b"><stop offset="0" stop-color="#eee"/><stop offset="1" stop-color="#535353"/></linearGradient><clipPath id="i"><use width="1" height="1" xlink:href="#b"/></clipPath><linearGradient x1="115.98" y1="72.4" x2="115.98" y2="120.4" id="a" gradientUnits="userSpaceOnUse"><stop offset="0" stop-color="#00316e" stop-opacity="0"/><stop offset="1" stop-color="#00316e"/></linearGradient><filter x="-.29" width="1.58" y="-.06" height="1.11" id="k"><feGaussianBlur stdDeviation="2.41"/></filter><filter x="-.29" width="1.58" y="-.06" height="1.11" id="m"><feGaussianBlur stdDeviation="2.41"/></filter><linearGradient id="c"><stop offset="0" stop-color="#fff"/><stop offset="1" stop-color="#fff" stop-opacity="0"/></linearGradient><linearGradient id="d"><stop offset="0" stop-color="#fff"/><stop offset="1" stop-color="#fff" stop-opacity="0"/></linearGradient><linearGradient id="e"><stop offset="0" stop-color="#fff" stop-opacity="0"/><stop offset="1" stop-color="#fff"/></linearGradient><linearGradient xlink:href="#f" id="n" gradientUnits="userSpaceOnUse" gradientTransform="translate(-7.9 .9) scale(1.12513)" x1="81.09" y1="96.36" x2="63.78" y2="15.27"/><linearGradient id="f"><stop offset="0"/><stop offset="1" stop-color="#666"/></linearGradient><linearGradient xlink:href="#g" id="p" x1="23.48" y1="-26.34" x2="76.45" y2="50.82" gradientUnits="userSpaceOnUse"/><linearGradient xlink:href="#h" id="o" x1="53.27" y1="64" x2="123.7" y2="64" gradientUnits="userSpaceOnUse"/></defs><metadata><rdf:RDF><cc:Work><dc:format>image/svg+xml</dc:format><dc:type rdf:resource="http://purl.org/dc/dcmitype/StillImage"/><dc:title/></cc:Work></rdf:RDF></metadata><g clip-path="url(#i)" transform="translate(12.49 96.57) scale(.05638)" opacity=".6"><path d="M119.34 21.66c-.37-1.27-1.67-2.57-3.36-3.59-1.7 1.02-3 2.32-3.37 3.6-.07.23-6.96 23.98-6.5 46.7-.46 22.78 6.43 46.53 6.5 46.77.38 1.27 1.68 2.57 3.37 3.59 1.7-1.02 2.99-2.32 3.36-3.6.07-.23 6.97-23.98 6.5-46.7.47-22.78-6.43-46.53-6.5-46.77z" opacity=".8" fill="url(#j)" filter="url(#k)"/><path d="M119.34 21.66c-.37-1.27-1.67-2.57-3.36-3.59-1.7 1.02-3 2.32-3.37 3.6-.07.23-6.96 23.98-6.5 46.7-.46 22.78 6.43 46.53 6.5 46.77.38 1.27 1.68 2.57 3.37 3.59 1.7-1.02 2.99-2.32 3.36-3.6.07-.23 6.97-23.98 6.5-46.7.47-22.78-6.43-46.53-6.5-46.77z" transform="matrix(-1 0 0 1 139.2 0)" opacity=".8" fill="url(#l)" filter="url(#m)"/></g><rect width="125.88" height="89.82" x="1.06" y="19.09" rx="2.56" ry="2.56" opacity=".78" fill="url(#n)" enable-background="new"/><path d="M123.7 52.54H83.6c-2.01 0-3.63-1.26-3.63-2.8v-9.41l-30.7 22.88 30.7 22.88v-9.4c0-1.56 1.63-2.82 3.62-2.82h40.1z" opacity=".15" fill="#fff"/><path d="M123.7 55.9H85.75c-1.9 0-3.43-1.19-3.43-2.65v-8.9L53.27 66l29.05 21.65v-8.9c0-1.47 1.54-2.66 3.43-2.66h37.95z" fill="#fff" opacity=".3"/><path d="M123.7 53.9H85.75c-1.9 0-3.43-1.19-3.43-2.65v-8.9L53.27 64l29.05 21.65v-8.9c0-1.47 1.54-2.66 3.43-2.66h37.95z" fill="url(#o)"/><path fill="#fff" d="M8.11 53.46h10.35v9.8H8.11zm0-27h10.35v9.8H8.11zm0 13.5h10.35v9.8H8.11z"/><path d="M7.33 98.57c-.58 0-1.06.47-1.06 1.05v7.17h116.51v-7.17c0-.58-.44-1.05-1.02-1.05z" fill="#1a1a1a" enable-background="new"/><path d="M7.83 100.66c0-.4.33-.72.72-.72h3.93c.4 0 .72.32.72.72v3.93c0 .4-.33.71-.72.71H8.55a.72.72 0 0 1-.72-.71z" fill="#fff"/><path d="M125.9 19.71a2.48 2.48 0 0 0-1.52-.62H3.62a2.55 2.55 0 0 0-2.56 2.55v84.72c0 .66.29 1.23.7 1.68z" opacity=".52" fill="url(#p)"/></svg>