<svg xmlns="http://www.w3.org/2000/svg" xmlns:xlink="http://www.w3.org/1999/xlink" height="64" width="64" version="1"><defs><linearGradient id="a"><stop offset="0" stop-color="gray"/><stop offset="1" stop-color="#333"/></linearGradient><linearGradient id="b"><stop offset="0" stop-color="#333"/><stop offset="1"/></linearGradient><radialGradient gradientTransform="translate(-.82 30.82) scale(.76923)" xlink:href="#a" id="f" cx="11.16" cy="11.79" fx="11.16" fy="11.79" r="18.44" gradientUnits="userSpaceOnUse"/><radialGradient gradientTransform="translate(30.82 -.82) scale(.76923)" xlink:href="#a" id="e" cx="11.16" cy="11.79" fx="11.16" fy="11.79" r="18.44" gradientUnits="userSpaceOnUse"/><radialGradient xlink:href="#b" id="d" cx="11.16" cy="11.79" fx="11.16" fy="11.79" r="18.44" gradientUnits="userSpaceOnUse" gradientTransform="translate(-.82 -.82) scale(.76923)"/><radialGradient gradientTransform="translate(30.82 30.82) scale(.76923)" xlink:href="#b" id="c" cx="11.16" cy="11.79" fx="11.16" fy="11.79" r="18.44" gradientUnits="userSpaceOnUse"/></defs><rect x="33.97" y="33.97" width="27.7" height="27.7" ry="3.27" rx="3.27" fill="url(#c)" stroke="#000" stroke-width=".66"/><rect x="2.33" y="2.33" width="27.7" height="27.7" ry="3.27" rx="3.27" fill="url(#d)" stroke="#000" stroke-width=".66"/><rect x="33.97" y="2.33" width="27.7" height="27.7" ry="3.27" rx="3.27" fill="url(#e)" stroke="#000" stroke-width=".66"/><rect x="2.33" y="33.97" width="27.7" height="27.7" ry="3.27" rx="3.27" fill="url(#f)" stroke="#000" stroke-width=".66"/><path d="M16.1 37.8l-10 20h20z" fill="#ccb300" fill-rule="evenodd"/><circle cx="16.09" cy="16.09" r="8.86" fill="#ccc"/><path fill="none" stroke="#ccc" stroke-width="1.67" stroke-linecap="round" d="M38.63 13.18h18.33v5.58H38.63z"/><path fill="none" stroke="#ccc" stroke-width="1.67" stroke-linecap="round" d="M45.12 25.61V7.28h5.58v18.33z"/><path d="M57.43 37.39l-16.5 6.41 12.83 4.28v11.3h3.67V44.73z" fill="#d40000"/></svg>