<svg xmlns="http://www.w3.org/2000/svg" xmlns:xlink="http://www.w3.org/1999/xlink" width="64" height="64" version="1"><defs><linearGradient id="c"><stop offset="0" stop-color="#1c241f" stop-opacity=".02"/><stop offset=".43" stop-color="#ffe680"/><stop offset="1" stop-color="#333"/></linearGradient><linearGradient id="b"><stop offset="0" stop-color="#f55"/><stop offset="1" stop-color="#d40000"/></linearGradient><linearGradient id="a"><stop offset="0" stop-color="#4d4d4d"/><stop offset="1"/></linearGradient><radialGradient xlink:href="#a" id="d" cx="16" cy="19.25" fx="16" fy="19.25" r="28" gradientUnits="userSpaceOnUse" gradientTransform="matrix(.9469 .3632 -.3837 1.00036 7.09 -6.73)"/><radialGradient xlink:href="#c" id="e" cx="32" cy="32" fx="32" fy="32" r="160.71" gradientTransform="matrix(.16667 0 0 .16667 26.67 26.67)" gradientUnits="userSpaceOnUse"/></defs><path d="M32 2C15.38 2 2 15.38 2 32c0 16.62 13.38 30 30 30 16.62 0 30-13.38 30-30C62 15.38 48.62 2 32 2z" fill="url(#d)"/><path d="M32 5.21c-1.07 0-2.1.2-3.13.32l13.25 22.96 8.89-15.39-.05-.06A26.79 26.79 0 0 0 32 5.21zm-6.8.98c-1.24.32-2.48.63-3.64 1.12a26.67 26.67 0 0 0-14.2 14.17h26.67zm28.2 9.8L40.1 39.03h17.65c.14-.55.38-1.05.5-1.6A27.1 27.1 0 0 0 54.21 17c-.24-.36-.57-.65-.83-1zM6.24 25c-.15.54-.38 1.04-.5 1.6a27.1 27.1 0 0 0 4.03 20.4c.24.37.57.67.83 1.01L23.9 25zM21.88 35.5L12.99 50.9l.05.06A26.79 26.79 0 0 0 32 58.79c1.07 0 2.1-.2 3.13-.32zm8.1 7.01l8.82 15.3c1.24-.33 2.48-.64 3.64-1.13a26.67 26.67 0 0 0 14.2-14.17z" color="#090d11" fill="url(#e)"/></svg>