<svg xmlns="http://www.w3.org/2000/svg" xmlns:xlink="http://www.w3.org/1999/xlink" width="64" height="64" version="1"><defs><linearGradient id="b"><stop offset="0" stop-color="#4d4d4d"/><stop offset=".5" stop-color="#f95"/><stop offset="1" stop-color="#333"/></linearGradient><linearGradient id="a"><stop offset="0" stop-color="#4d4d4d"/><stop offset="1"/></linearGradient><radialGradient xlink:href="#a" id="c" cx="16" cy="19.25" fx="16" fy="19.25" r="28" gradientUnits="userSpaceOnUse" gradientTransform="matrix(.88378 .33898 -.35812 .93367 8.75 -4.15)"/><linearGradient xlink:href="#b" id="d" x1="4" y1="4.28" x2="3.97" y2="59.84" gradientUnits="userSpaceOnUse"/></defs><path d="M32 4C16.49 4 4 16.49 4 32s12.49 28 28 28 28-12.49 28-28S47.51 4 32 4z" fill="url(#c)"/><path d="M32 4C16.49 4 4 16.49 4 32s12.49 28 28 28 28-12.49 28-28S47.51 4 32 4zm0 4.2A23.66 23.66 0 0 1 55.8 32 23.66 23.66 0 0 1 32 55.8 23.66 23.66 0 0 1 8.2 32 23.66 23.66 0 0 1 32 8.2zm0 5.6a18.2 18.2 0 0 0-17.3 12.6H11l-1.4 4.2h4.26a18.2 18.2 0 0 0-.06 1.4 18.2 18.2 0 0 0 .07 1.4H12.4L11 37.6h3.7A18.2 18.2 0 0 0 32 50.2a18.2 18.2 0 0 0 14.34-7h-5.96A14 14 0 0 1 32 46a14 14 0 0 1-12.81-8.4H37.6l1.4-4.2H18.09A14 14 0 0 1 18 32a14 14 0 0 1 .07-1.4H39l1.4-4.2H19.18A14 14 0 0 1 32 18a14 14 0 0 1 8.37 2.8h5.95a18.2 18.2 0 0 0-14.32-7z" fill="url(#d)"/></svg>