<svg xmlns="http://www.w3.org/2000/svg" xmlns:xlink="http://www.w3.org/1999/xlink" width="64" height="64" viewBox="0 0 16.93 16.93"><defs><radialGradient xlink:href="#a" id="b" cx="4.31" cy="4.52" fx="4.31" fy="4.52" r="4.25" gradientTransform="matrix(1.8723 0 0 1.8718 -3.42 -3.42)" gradientUnits="userSpaceOnUse"/><linearGradient id="a"><stop offset="0" stop-color="#333"/><stop offset="1"/></linearGradient></defs><path d="M4.84.52a4.32 4.32 0 0 0-3.81 6.36 7.64 7.64 0 0 0-.17 1.58 7.6 7.6 0 0 0 7.6 7.6c.55 0 1.08-.05 1.59-.16a4.32 4.32 0 0 0 5.85-5.85 7.64 7.64 0 0 0 .16-1.59 7.6 7.6 0 0 0-7.6-7.6c-.54 0-1.07.07-1.58.18A4.31 4.31 0 0 0 4.84.52z" fill="url(#b)"/><path d="M8.71 4.12c2.38 0 3.6 1.25 3.6 1.99 0 .73-.36.85-.94.85-1.13 0-.66-1.36-2.79-1.36-.7 0-1.57.31-1.57 1.13 0 .66.76.9 2.14 1.23 2.06.55 3.62 1.11 3.62 3 0 1.84-1.51 2.76-3.88 2.76C6.5 13.72 5 12.3 5 11.57c0-.74.28-.93.86-.93 1.14 0 .98 1.54 3.1 1.54.7 0 1.74-.31 1.74-1.13 0-.66-.05-.9-1.55-1.3-1.61-.21-4.21-.73-4.21-2.73 0-1.83 1.4-2.9 3.77-2.9z" fill="#0ff" opacity=".26"/><path d="M8.32 3.66c2.38 0 3.6 1.26 3.6 1.99s-.36.85-.94.85c-1.13 0-.66-1.36-2.79-1.36-.7 0-1.57.32-1.57 1.14 0 .65.76.9 2.14 1.23 2.06.55 3.62 1.1 3.62 3 0 1.83-1.51 2.75-3.88 2.75-2.38 0-3.89-1.41-3.89-2.15 0-.73.28-.93.86-.93 1.14 0 .98 1.55 3.1 1.55.7 0 1.74-.32 1.74-1.14 0-.65-.05-.89-1.55-1.3-1.61-.21-4.21-.72-4.21-2.72 0-1.84 1.4-2.9 3.77-2.9z" fill="#0ff"/></svg>