<svg xmlns="http://www.w3.org/2000/svg" xmlns:xlink="http://www.w3.org/1999/xlink" width="64" height="64"><defs><linearGradient id="b"><stop offset="0" stop-color="#fae"/><stop offset="1" stop-color="#9559b6" stop-opacity=".97"/></linearGradient><linearGradient id="a"><stop offset="0" stop-color="#1d99f3"/><stop offset="1" stop-color="#0ff"/></linearGradient><radialGradient id="c" cx="12.01" cy="13.2" r="20" gradientTransform="matrix(0 2.36188 -3.40694 0 60.79 -11.43)" gradientUnits="userSpaceOnUse"><stop offset="0" stop-color="#4d4d4d"/><stop offset=".26" stop-color="#333"/><stop offset=".7"/><stop offset="1"/></radialGradient><linearGradient id="d" x1="24" x2="24" y1="44" y2="3.9" gradientTransform="translate(-1.74 -1.74) scale(1.4058)" gradientUnits="userSpaceOnUse"><stop offset="0"/><stop offset="1" stop-color="#333"/></linearGradient><linearGradient xlink:href="#a" id="f" x1="32.2" y1="32.87" x2="55.01" y2="32.87" gradientUnits="userSpaceOnUse"/><linearGradient xlink:href="#b" id="e" x1="8.99" y1="29.34" x2="32.1" y2="29.34" gradientUnits="userSpaceOnUse"/></defs><rect x="4.59" y="4.59" width="54.83" height="54.83" rx="2.23" ry="2.23" fill="url(#c)" stroke="url(#d)" stroke-width=".5" stroke-linecap="round" stroke-linejoin="round"/><path d="M37.57 21.52l-1.22 6.55 7.97 5L34 39.43l-1.79 8.8L55 33.01z" opacity=".32" fill="#1d99f3"/><path d="M32 17.79L9 33.13l17.63 11.76 1.38-6.65-8.28-5.16 10.63-6.65 1.74-8.59z" opacity=".32" fill="#9559b6"/><path d="M32 15.79L9 31.13l17.63 11.76 1.38-6.65-8.28-5.16 10.63-6.65 1.74-8.59z" fill="url(#e)"/><path d="M37.57 19.52l-1.22 6.55 7.97 5L34 37.43l-1.79 8.8L55 31.01z" fill="url(#f)"/></svg>