<?xml version="1.0" encoding="UTF-8" standalone="no"?><!--Created with Inkscape (http://www.inkscape.org/)--><svg xmlns:dc="http://purl.org/dc/elements/1.1/" xmlns:cc="http://creativecommons.org/ns#" xmlns:rdf="http://www.w3.org/1999/02/22-rdf-syntax-ns#" xmlns="http://www.w3.org/2000/svg" xmlns:xlink="http://www.w3.org/1999/xlink" version="1" width="64" height="64" viewBox="0 0 60 60"><metadata><rdf:RDF><cc:Work><dc:format>image/svg+xml</dc:format><dc:type rdf:resource="http://purl.org/dc/dcmitype/StillImage"/><dc:title/></cc:Work></rdf:RDF></metadata><defs><linearGradient id="b"><stop offset="0" stop-opacity="0"/><stop offset=".5"/><stop offset="1" stop-opacity="0"/></linearGradient><linearGradient id="a"><stop offset="0"/><stop offset="1" stop-opacity="0"/></linearGradient><linearGradient id="c"><stop offset="0" stop-color="#c9af8b"/><stop offset=".24" stop-color="#ad8757"/><stop offset=".28" stop-color="#c2a57f"/><stop offset="1" stop-color="#9d7d53"/></linearGradient><linearGradient id="d"><stop offset="0" stop-color="#4d4d4d"/><stop offset=".24" stop-color="#1a1a1a"/><stop offset=".28" stop-color="#4d4d4d"/><stop offset="1"/></linearGradient><linearGradient id="e"><stop offset="0" stop-color="#cbad7a"/><stop offset="1" stop-color="#cbae7d" stop-opacity="0"/></linearGradient><linearGradient id="f"><stop offset="0" stop-color="#fff" stop-opacity="0"/><stop offset="1" stop-color="#fff" stop-opacity="0"/></linearGradient><linearGradient id="g"><stop offset="0" stop-color="#fff" stop-opacity="0"/><stop offset=".17" stop-color="#fff"/><stop offset=".83" stop-color="#fff"/><stop offset="1" stop-color="#fff" stop-opacity="0"/></linearGradient><linearGradient id="h"><stop offset="0" stop-color="#fff"/><stop offset=".32" stop-color="#fff"/><stop offset=".37" stop-color="#fff" stop-opacity=".69"/><stop offset="1" stop-color="#fff" stop-opacity="0"/></linearGradient><linearGradient id="i"><stop offset="0" stop-color="#8fb1dc"/><stop offset="1" stop-color="#3465a4"/></linearGradient><linearGradient id="j"><stop offset="0" stop-color="#cee14b"/><stop offset="1" stop-color="#9db029"/></linearGradient><linearGradient id="k"><stop offset="0" stop-color="#fff"/><stop offset="1" stop-color="#fff" stop-opacity="0"/></linearGradient><linearGradient x1="26" y1="22" x2="26" y2="8" id="o" xlink:href="#h" gradientUnits="userSpaceOnUse" gradientTransform="matrix(2.75954 0 0 3.02563 -36.23 -18.16)"/><linearGradient x1="24.82" y1="15.38" x2="25" y2="37.28" id="n" xlink:href="#d" gradientUnits="userSpaceOnUse" gradientTransform="matrix(1.71998 0 0 2.0692 -10.34 -25.5)"/><linearGradient id="m" y1="503.8" y2="543.8" x2="0" gradientUnits="userSpaceOnUse" gradientTransform="matrix(.75 0 0 .75 -262.08 -348.62)"><stop stop-color="#abf9c7"/><stop offset="1" stop-color="#54d883"/></linearGradient><linearGradient id="l" y1="543.8" y2="503.8" gradientUnits="userSpaceOnUse" x2="0" gradientTransform="matrix(.75 0 0 .75 -262.08 -348.62)"><stop stop-color="#20bcfa" offset="0"/><stop stop-color="#197cf1" offset="1"/></linearGradient><radialGradient xlink:href="#l" id="p" cx="38.25" cy="33.44" fx="38.25" fy="33.44" r="16.04" gradientUnits="userSpaceOnUse"/><radialGradient xlink:href="#m" id="q" cx="40.12" cy="34.37" fx="40.12" fy="34.37" r="15.44" gradientTransform="matrix(1.07812 .57027 -.44958 .84996 12.32 -17.47)" gradientUnits="userSpaceOnUse"/></defs><path style="marker:none" d="M9.9 6.11h39.56c2.31 0 3.35-.38 4.01 1.33l4.03 10.63V52.2c0 2.06.14 1.74-2.17 1.74H4.67c-2.3 0-2.17.32-2.17-1.74V18.07L6.53 7.44c.64-1.67 1.05-1.33 3.36-1.33z" display="block" overflow="visible" fill="url(#n)"/><path style="marker:none" d="M24.48 6.05h11.04V48.4H24.48V6.05z" overflow="visible" opacity=".4" fill="url(#o)"/><path d="M43.53 25.67A16.05 16.05 0 1 0 59.58 41.7c0-8.85-7.2-16.03-16.05-16.03z" fill="url(#p)"/><path d="M37.96 45.62l-.46-.93-.85-.2-.46-1.26-1.15.13-.97-.73-1.03.93v.15c-.32-.1-.7-.1-.98-.28l-.23-.67v-.73l-.68.06.17-1.4h-.4l-.4.54-.4.2-.58-.33-.06-.74.12-.8.86-.66h.69l.11-.4.86.2.63.8.11-1.34 1.1-.93.4-1 .8-.33.45-.66 1.03-.2.52-.8h-1.55l.98-.47h.68l.98-.33.11-.4-.34-.34-.4-.13.11-.4-.28-.6-.7.27.12-.53-.8-.47-.63 1.13.06.4-.63.27-.4.86-.17-.8-1.1-.46-.16-.6 1.43-.87.63-.6.06-.73-.35-.2-.46-.07-.28.74-.6.13a16.93 16.93 0 0 0-5.5 10.76c.03.15.54.96.54.96l1.2.73 1.2.34.52.66.8.6.46-.06.35.15v.11l-.46 1.27-.35.53.12.27-.29 1 1.03 1.93 1.03.93.46.66-.05 1.4.34.8-.34 1.53s-.03 0 .01.15a6.86 6.86 0 0 0 1.95 1.08l.21-.16-.11-.33.46-.47.17-.47.74-.26.58-1.47-.18-.4.4-.6.86-.2.46-1.06-.11-1.33.68-1 .12-1c-.94-.48-1.87-.97-2.8-1.47m7.47-18.8l-1.67-.67-1.93.22-2.38.68-.45.44 1.48 1.05v.6l-.58.6.77 1.57.52-.3.64-1.05c1-.31 1.89-.67 2.83-1.12l.77-2.02M58.86 39.5c0 .21 0 0 0 0l-.44.51c-.27-.33-.58-.6-.88-.9l-.68.11-.62-.72v.9l.53.4.35.42.47-.55.36.68v.69l-.53.62-.98.68-.73.76-.48-.55.24-.62-.47-.55-.8-1.75-.68-.79-.18.2.27 1 .5.59c.29.85.57 1.66.95 2.47.58 0 1.13-.06 1.7-.14v.48l-.7 1.78-.65.76-.53 1.17v1.92l.18.75-.3.35-.65.4-.68.59.56.65-.76.69.14.44-1.15 1.34h-.76l-.65.41h-.42v-.54l-.17-1.1c-.23-.7-.47-1.38-.71-2.06 0-.5.03-1 .06-1.51l.3-.69-.42-.82.03-1.13-.56-.65.28-.95-.46-.53h-.8l-.26-.3-.8.5-.32-.37-.74.65-1.5-1.75-.6-1.44.53-.82-.3-.35.66-1.58c.53-.68 1.09-1.33 1.65-1.99l1-.27 1.13-.14.76.21 1.1 1.13.38-.44.53-.07 1 .34h.77l.53-.48.24-.34-.53-.35-.89-.06c-.24-.35-.47-.72-.77-1.03l-.3.13-.1.9-.54-.62-.12-.69-.59-.48h-.23l.59.69-.24.61-.47.14.3-.62-.54-.27-.47-.55-.89.2-.11.28-.54.34-.3.76-.73.38-.32-.38h-.36v-1.24l.77-.4h.6l-.13-.49-.47-.48.8-.17.44-.51.35-.62h.65l-.17-.48.4-.28v.55l.9.2.88-.75.06-.34.77-.55c-.28.04-.56.06-.83.14v-.62l.3-.69h-.3l-.65.62-.18.34.18.49-.3.82-.47-.28-.4-.48-.66.48-.24-1.1 1.13-.75v-.41l.7-.48 1.13-.28.76.28 1.42.27-.35.42h-.77l.77.82.59-.69.18-.3s2.26 2.08 3.55 4.36c1.3 2.28 1.9 4.97 1.9 5.52z" fill="url(#q)"/></svg>