<?xml version="1.0" encoding="UTF-8" standalone="no"?>
<!-- Created with Inkscape (http://www.inkscape.org/) -->

<svg
   xmlns:dc="http://purl.org/dc/elements/1.1/"
   xmlns:cc="http://creativecommons.org/ns#"
   xmlns:rdf="http://www.w3.org/1999/02/22-rdf-syntax-ns#"
   xmlns:svg="http://www.w3.org/2000/svg"
   xmlns="http://www.w3.org/2000/svg"
   xmlns:xlink="http://www.w3.org/1999/xlink"
   xmlns:sodipodi="http://sodipodi.sourceforge.net/DTD/sodipodi-0.dtd"
   xmlns:inkscape="http://www.inkscape.org/namespaces/inkscape"
   version="1.0"
   width="64"
   height="64"
   id="svg4030"
   inkscape:version="0.92.3 (2405546, 2018-03-11)"
   sodipodi:docname="software-properties.svg"
   viewBox="0 0 59.999997 59.999997">
  <metadata
     id="metadata98139">
    <rdf:RDF>
      <cc:Work
         rdf:about="">
        <dc:format>image/svg+xml</dc:format>
        <dc:type
           rdf:resource="http://purl.org/dc/dcmitype/StillImage" />
        <dc:title></dc:title>
      </cc:Work>
    </rdf:RDF>
  </metadata>
  <sodipodi:namedview
     pagecolor="#ffffff"
     bordercolor="#666666"
     borderopacity="1"
     objecttolerance="10"
     gridtolerance="10"
     guidetolerance="10"
     inkscape:pageopacity="0"
     inkscape:pageshadow="2"
     inkscape:window-width="1366"
     inkscape:window-height="715"
     id="namedview98137"
     showgrid="false"
     inkscape:zoom="8.234375"
     inkscape:cx="32"
     inkscape:cy="32"
     inkscape:window-x="0"
     inkscape:window-y="27"
     inkscape:window-maximized="1"
     inkscape:current-layer="svg4030" />
  <defs
     id="defs4032">
    <radialGradient
       cx="5"
       cy="41.5"
       r="5"
       fx="5"
       fy="41.5"
       id="radialGradient3944"
       xlink:href="#linearGradient3681"
       gradientUnits="userSpaceOnUse"
       gradientTransform="matrix(0.5938225,0,0,1.5366531,41.140892,-103.93618)" />
    <linearGradient
       id="linearGradient3703">
      <stop
         id="stop3705"
         style="stop-color:#000000;stop-opacity:0"
         offset="0" />
      <stop
         id="stop3711"
         style="stop-color:#000000;stop-opacity:1"
         offset="0.5" />
      <stop
         id="stop3707"
         style="stop-color:#000000;stop-opacity:0"
         offset="1" />
    </linearGradient>
    <linearGradient
       x1="17.554192"
       y1="46.000275"
       x2="17.554192"
       y2="34.999718"
       id="linearGradient3942"
       xlink:href="#linearGradient3703"
       gradientUnits="userSpaceOnUse"
       gradientTransform="matrix(1.7570316,0,0,1.3969574,-17.394014,-16.411698)" />
    <linearGradient
       id="linearGradient3681">
      <stop
         id="stop3683"
         style="stop-color:#000000;stop-opacity:1"
         offset="0" />
      <stop
         id="stop3685"
         style="stop-color:#000000;stop-opacity:0"
         offset="1" />
    </linearGradient>
    <radialGradient
       cx="5"
       cy="41.5"
       r="5"
       fx="5"
       fy="41.5"
       id="radialGradient3940"
       xlink:href="#linearGradient3681"
       gradientUnits="userSpaceOnUse"
       gradientTransform="matrix(0.5938225,0,0,1.5366531,-6.6594735,-103.93618)" />
    <linearGradient
       id="linearGradient3295">
      <stop
         id="stop3297"
         style="stop-color:#c9af8b;stop-opacity:1"
         offset="0" />
      <stop
         id="stop3299"
         style="stop-color:#ad8757;stop-opacity:1"
         offset="0.23942046" />
      <stop
         id="stop3301"
         style="stop-color:#c2a57f;stop-opacity:1"
         offset="0.27582464" />
      <stop
         id="stop3303"
         style="stop-color:#9d7d53;stop-opacity:1"
         offset="1" />
    </linearGradient>
    <linearGradient
       x1="15.464298"
       y1="7.9756851"
       x2="15.464298"
       y2="45.04248"
       id="linearGradient3974"
       xlink:href="#linearGradient3295"
       gradientUnits="userSpaceOnUse"
       gradientTransform="matrix(1.3414025,0,0,1.3287417,-2.1936601,-7.1298062)" />
    <linearGradient
       id="linearGradient3199">
      <stop
         id="stop3201"
         style="stop-color:#4d4d4d;stop-opacity:1"
         offset="0" />
      <stop
         id="stop3203"
         style="stop-color:#1a1a1a;stop-opacity:1"
         offset="0.23942046" />
      <stop
         id="stop3205"
         style="stop-color:#4d4d4d;stop-opacity:1"
         offset="0.27582464" />
      <stop
         id="stop3207"
         style="stop-color:#000000;stop-opacity:1"
         offset="1" />
    </linearGradient>
    <linearGradient
       x1="24.822832"
       y1="15.377745"
       x2="24.996943"
       y2="37.27668"
       id="linearGradient3972"
       xlink:href="#linearGradient3199"
       gradientUnits="userSpaceOnUse"
       gradientTransform="matrix(1.7199799,0,0,2.0691988,-10.336231,-27.447271)" />
    <linearGradient
       id="linearGradient3219">
      <stop
         id="stop3225"
         style="stop-color:#cbad7a;stop-opacity:1"
         offset="0" />
      <stop
         id="stop3227"
         style="stop-color:#cbae7d;stop-opacity:0"
         offset="1" />
    </linearGradient>
    <radialGradient
       cx="24"
       cy="31"
       r="20"
       fx="24"
       fy="31"
       id="radialGradient3969"
       xlink:href="#linearGradient3219"
       gradientUnits="userSpaceOnUse"
       gradientTransform="matrix(2.2339043,0,0,0.875,-21.613703,14.374997)" />
    <linearGradient
       id="linearGradient4559">
      <stop
         id="stop4561"
         style="stop-color:#ffffff;stop-opacity:0"
         offset="0" />
      <stop
         id="stop4563"
         style="stop-color:#ffffff;stop-opacity:0"
         offset="1" />
    </linearGradient>
    <linearGradient
       x1="23.451576"
       y1="30.554907"
       x2="43.00663"
       y2="45.934479"
       id="linearGradient3966"
       xlink:href="#linearGradient4559"
       gradientUnits="userSpaceOnUse"
       gradientTransform="matrix(1.7199799,0,0,1.5608559,64.663765,-14.176346)" />
    <linearGradient
       id="linearGradient3275">
      <stop
         id="stop3277"
         style="stop-color:#ffffff;stop-opacity:0"
         offset="0" />
      <stop
         id="stop3283"
         style="stop-color:#ffffff;stop-opacity:1"
         offset="0.16682135" />
      <stop
         id="stop3285"
         style="stop-color:#ffffff;stop-opacity:1"
         offset="0.83237511" />
      <stop
         id="stop3279"
         style="stop-color:#ffffff;stop-opacity:0"
         offset="1" />
    </linearGradient>
    <linearGradient
       x1="44.994774"
       y1="17.5"
       x2="3.0052247"
       y2="17.5"
       id="linearGradient3960"
       xlink:href="#linearGradient3275"
       gradientUnits="userSpaceOnUse"
       gradientTransform="matrix(1.3417982,0,0,1.3287417,72.796837,-7.2529782)"
       spreadMethod="reflect" />
    <linearGradient
       id="linearGradient3980">
      <stop
         id="stop3982"
         style="stop-color:#ffffff;stop-opacity:1"
         offset="0" />
      <stop
         id="stop3984"
         style="stop-color:#ffffff;stop-opacity:1"
         offset="0.32468599" />
      <stop
         id="stop3986"
         style="stop-color:#ffffff;stop-opacity:0.6901961"
         offset="0.3736864" />
      <stop
         id="stop3988"
         style="stop-color:#ffffff;stop-opacity:0"
         offset="1" />
    </linearGradient>
    <linearGradient
       x1="26"
       y1="22"
       x2="26"
       y2="8"
       id="linearGradient3963"
       xlink:href="#linearGradient3980"
       gradientUnits="userSpaceOnUse"
       gradientTransform="matrix(2.7595417,0,0,3.025627,-33.70992,-20.705014)" />
    <radialGradient
       collect="always"
       xlink:href="#linearGradient8647"
       id="radialGradient5565"
       gradientUnits="userSpaceOnUse"
       gradientTransform="matrix(1.6396161,0,0,1.349992,13.560846,18.4751)"
       cx="12.465816"
       cy="5.3052077"
       fx="12.465816"
       fy="5.3052077"
       r="10.499999" />
    <linearGradient
       id="linearGradient8647">
      <stop
         style="stop-color:#8fb1dc;stop-opacity:1;"
         offset="0"
         id="stop8649" />
      <stop
         style="stop-color:#3465a4;stop-opacity:1;"
         offset="1"
         id="stop8651" />
    </linearGradient>
    <radialGradient
       collect="always"
       xlink:href="#linearGradient8924"
       id="radialGradient5562"
       gradientUnits="userSpaceOnUse"
       gradientTransform="matrix(0.05079629,1.8806334,-1.3065264,0.03722342,56.991846,-19.739002)"
       cx="24.652573"
       cy="18.94449"
       fx="24.652485"
       fy="18.944481"
       r="8.6174498" />
    <linearGradient
       id="linearGradient8924">
      <stop
         id="stop8926"
         offset="0"
         style="stop-color:#cee14b" />
      <stop
         id="stop8928"
         offset="1"
         style="stop-color:#9db029" />
    </linearGradient>
    <linearGradient
       collect="always"
       xlink:href="#linearGradient4873"
       id="linearGradient5559"
       gradientUnits="userSpaceOnUse"
       gradientTransform="matrix(1.697994,0,0,1.6979552,-62.077921,43.923242)"
       x1="63.397362"
       y1="-12.742159"
       x2="59.919094"
       y2="-1.9899801" />
    <linearGradient
       id="linearGradient4873"
       collect="always">
      <stop
         id="stop4875"
         offset="0"
         style="stop-color:#ffffff;stop-opacity:1;" />
      <stop
         id="stop4877"
         offset="1"
         style="stop-color:#ffffff;stop-opacity:0;" />
    </linearGradient>
    <radialGradient
       collect="always"
       xlink:href="#linearGradient8647"
       id="radialGradient5565-3"
       gradientUnits="userSpaceOnUse"
       gradientTransform="matrix(1.6396161,0,0,1.349992,13.560846,18.4751)"
       cx="12.465816"
       cy="5.3052077"
       fx="12.465816"
       fy="5.3052077"
       r="10.499999" />
    <radialGradient
       collect="always"
       xlink:href="#linearGradient8924"
       id="radialGradient5562-5"
       gradientUnits="userSpaceOnUse"
       gradientTransform="matrix(0.05079629,1.8806334,-1.3065264,0.03722342,56.991846,-19.739002)"
       cx="24.652573"
       cy="18.94449"
       fx="24.652485"
       fy="18.944481"
       r="8.6174498" />
    <radialGradient
       cx="5"
       cy="41.5"
       r="5"
       fx="5"
       fy="41.5"
       id="radialGradient3940-9"
       xlink:href="#linearGradient3681"
       gradientUnits="userSpaceOnUse"
       gradientTransform="matrix(0.5938225,0,0,1.5366531,-6.6594735,-103.93618)" />
    <radialGradient
       cx="5"
       cy="41.5"
       r="5"
       fx="5"
       fy="41.5"
       id="radialGradient3944-3"
       xlink:href="#linearGradient3681"
       gradientUnits="userSpaceOnUse"
       gradientTransform="matrix(0.5938225,0,0,1.5366531,41.140892,-103.93618)" />
    <radialGradient
       cx="24"
       cy="31"
       r="20"
       fx="24"
       fy="31"
       id="radialGradient3969-9"
       xlink:href="#linearGradient3219"
       gradientUnits="userSpaceOnUse"
       gradientTransform="matrix(2.2339043,0,0,0.875,-21.613703,14.374997)" />
    <radialGradient
       cx="5"
       cy="41.5"
       r="5"
       fx="5"
       fy="41.5"
       id="radialGradient3940-9-3"
       xlink:href="#linearGradient3681"
       gradientUnits="userSpaceOnUse"
       gradientTransform="matrix(0.5938225,0,0,1.5366531,-6.6594735,-103.93618)" />
    <radialGradient
       cx="5"
       cy="41.5"
       r="5"
       fx="5"
       fy="41.5"
       id="radialGradient3944-3-1"
       xlink:href="#linearGradient3681"
       gradientUnits="userSpaceOnUse"
       gradientTransform="matrix(0.5938225,0,0,1.5366531,41.140892,-103.93618)" />
    <radialGradient
       cx="24"
       cy="31"
       r="20"
       fx="24"
       fy="31"
       id="radialGradient3969-9-6"
       xlink:href="#linearGradient3219"
       gradientUnits="userSpaceOnUse"
       gradientTransform="matrix(2.2339043,0,0,0.875,-23.613705,6.8749978)" />
    <radialGradient
       collect="always"
       xlink:href="#linearGradient8647"
       id="radialGradient5565-3-6"
       gradientUnits="userSpaceOnUse"
       gradientTransform="matrix(1.9478656,0,0,1.6037918,19.256267,19.5184)"
       cx="12.465816"
       cy="5.3052077"
       fx="12.465816"
       fy="5.3052077"
       r="10.499999" />
    <radialGradient
       collect="always"
       xlink:href="#linearGradient8924"
       id="radialGradient5562-5-9"
       gradientUnits="userSpaceOnUse"
       gradientTransform="matrix(0.06034604,2.2341944,-1.5521547,0.04422146,70.852342,-25.879992)"
       cx="24.652573"
       cy="18.94449"
       fx="24.652485"
       fy="18.944481"
       r="8.6174498" />
    <linearGradient
       x1="26"
       y1="22"
       x2="26"
       y2="8"
       id="linearGradient3963-2"
       xlink:href="#linearGradient3980"
       gradientUnits="userSpaceOnUse"
       gradientTransform="matrix(2.7595416,0,0,3.025627,-36.228996,-20.105703)" />
    <linearGradient
       x1="26"
       y1="22"
       x2="26"
       y2="8"
       id="linearGradient3963-2-4"
       xlink:href="#linearGradient3980"
       gradientUnits="userSpaceOnUse"
       gradientTransform="matrix(2.7595415,0,0,3.025627,-36.228993,-18.156878)" />
    <linearGradient
       x1="24.822832"
       y1="15.377745"
       x2="24.996943"
       y2="37.27668"
       id="linearGradient3972-6"
       xlink:href="#linearGradient3199"
       gradientUnits="userSpaceOnUse"
       gradientTransform="matrix(1.7199799,0,0,2.0691988,-10.336228,-25.498446)" />
    <linearGradient
       id="b"
       y1="503.79999"
       y2="543.79999"
       x2="0"
       gradientUnits="userSpaceOnUse"
       gradientTransform="matrix(0.75000473,0,0,0.75000473,-262.08409,-348.62138)">
      <stop
         stop-color="#abf9c7"
         id="stop7" />
      <stop
         offset="1"
         stop-color="#54d883"
         id="stop9" />
    </linearGradient>
    <linearGradient
       id="a"
       y1="543.79999"
       y2="503.79999"
       gradientUnits="userSpaceOnUse"
       x2="0"
       gradientTransform="matrix(0.75000473,0,0,0.75000473,-262.08409,-348.62138)">
      <stop
         id="stop4"
         stop-color="#20bcfa"
         offset="0" />
      <stop
         id="stop2"
         stop-color="#197cf1"
         offset="1" />
    </linearGradient>
    <radialGradient
       inkscape:collect="always"
       xlink:href="#a"
       id="radialGradient890"
       cx="38.24902"
       cy="33.436668"
       fx="38.24902"
       fy="33.436668"
       r="16.037954"
       gradientTransform="translate(0,-1.3003611e-6)"
       gradientUnits="userSpaceOnUse" />
    <radialGradient
       inkscape:collect="always"
       xlink:href="#b"
       id="radialGradient898"
       cx="40.1175"
       cy="34.36845"
       fx="40.1175"
       fy="34.36845"
       r="15.444005"
       gradientTransform="matrix(1.0781221,0.57026684,-0.44958197,0.84996043,12.317373,-17.466025)"
       gradientUnits="userSpaceOnUse" />
  </defs>
  <path
     inkscape:connector-curvature="0"
     style="display:block;overflow:visible;visibility:visible;fill:url(#linearGradient3972-6);fill-opacity:1;fill-rule:nonzero;stroke:none;stroke-width:0.99420083;stroke-linecap:round;stroke-linejoin:miter;stroke-miterlimit:4;stroke-dasharray:none;stroke-dashoffset:0;stroke-opacity:1;marker:none;marker-start:none;marker-mid:none;marker-end:none"
     id="path2488"
     d="m 9.893351,6.1133225 h 39.568313 c 2.30988,0 3.34938,-0.380751 4.012881,1.328741 l 4.026529,10.6299345 v 34.113996 c 0,2.063939 0.13807,1.748592 -2.17181,1.748592 H 4.670739 c -2.3098849,0 -2.1718159,0.315347 -2.1718159,-1.748592 V 18.071998 L 6.525458,7.4420635 c 0.644988,-1.674961 1.058008,-1.328741 3.367893,-1.328741 z" />
  <path
     inkscape:connector-curvature="0"
     style="display:inline;overflow:visible;visibility:visible;opacity:0.4;fill:url(#linearGradient3963-2-4);fill-opacity:1;fill-rule:nonzero;stroke:none;stroke-width:1;stroke-linecap:square;stroke-linejoin:round;stroke-miterlimit:4;stroke-dasharray:none;stroke-dashoffset:0;stroke-opacity:1;marker:none;marker-start:none;marker-mid:none;marker-end:none;enable-background:accumulate"
     id="rect3326"
     d="m 24.480916,6.0481353 c 3.679389,0 7.358797,0 11.038169,0 0,14.1195907 0,28.2391817 0,42.3587747 -1.086505,0 -2.173012,0 -3.259535,0 -1.112427,0 -2.224872,0 -3.337317,0 -0.895545,0 -1.791089,0 -2.686652,0 -0.584876,0 -1.169771,0 -1.754665,0 0,-14.119593 0,-28.239184 0,-42.3587747 z" />
  <path
     style="fill:url(#radialGradient890);fill-opacity:1;stroke:none;stroke-width:1.00009847;stroke-linecap:round;stroke-linejoin:round;stroke-miterlimit:4;stroke-dasharray:none;stroke-dashoffset:0;stroke-opacity:1"
     d="m 43.525405,25.674043 c -8.851432,0 -16.025359,7.173918 -16.025359,16.025356 0,8.851436 7.173927,16.050553 16.025359,16.050552 8.851438,0 16.050568,-7.199116 16.050548,-16.050552 0,-8.851438 -7.19911,-16.025356 -16.050548,-16.025356 z"
     id="path2555"
     inkscape:connector-curvature="0" />
  <path
     id="path6566"
     style="fill:url(#radialGradient898);fill-opacity:1;fill-rule:nonzero;stroke:none;stroke-width:1.18800104"
     d="m 37.962944,45.623056 -0.45866,-0.932597 -0.859241,-0.199583 -0.458263,-1.264594 -1.145548,0.132809 -0.973589,-0.731881 -1.031669,0.931873 v 0.146976 c -0.31208,-0.09251 -0.695712,-0.105138 -0.973587,-0.280598 l -0.229331,-0.665523 v -0.732695 l -0.687281,0.06636 c 0.05737,-0.46634 0.114273,-0.931873 0.172036,-1.398133 h -0.401366 l -0.400581,0.53271 -0.401365,0.199176 -0.57301,-0.331991 -0.05737,-0.732692 0.114666,-0.799065 0.859637,-0.665519 H 31.1457 l 0.114274,-0.399893 0.859237,0.199175 0.630303,0.799873 0.114666,-1.332579 1.088565,-0.93187 0.400973,-0.999051 0.801947,-0.332721 0.458266,-0.665519 1.030883,-0.200721 0.516032,-0.798248 c -0.515639,0 -1.031277,0 -1.546915,0 l 0.973904,-0.466339 h 0.686887 l 0.974299,-0.333528 0.114666,-0.398358 -0.343995,-0.33353 -0.400972,-0.133542 0.114666,-0.399166 -0.286308,-0.599073 -0.687672,0.265547 0.114666,-0.532304 -0.801947,-0.46634 -0.629908,1.131375 0.05698,0.399892 -0.629911,0.267164 -0.401367,0.865426 -0.17164,-0.799058 -1.08857,-0.466341 -0.172042,-0.599075 1.432252,-0.866234 0.630307,-0.599075 0.05737,-0.732291 -0.343604,-0.199986 -0.458265,-0.06678 -0.286302,0.732696 c 0,0 -0.479074,0.0964 -0.602251,0.127633 -1.573077,1.488698 -4.751545,4.702345 -5.489971,10.769237 0.02924,0.140661 0.53526,0.956315 0.53526,0.956315 l 1.202921,0.731885 1.202916,0.333527 0.516034,0.66625 0.801551,0.599069 0.458263,-0.06636 0.343604,0.158871 v 0.107478 l -0.457951,1.265002 -0.343999,0.532703 0.114666,0.267165 -0.286311,0.997433 1.031279,1.93165 1.030877,0.932602 0.458665,0.665514 -0.05769,1.398948 0.343997,0.798252 -0.343997,1.531751 c 0,0 -0.02694,-0.0095 0.01695,0.143823 0.04429,0.153369 1.835506,1.174516 1.949381,1.087594 0.113477,-0.08854 0.210494,-0.165997 0.210494,-0.165997 l -0.114274,-0.331993 0.457951,-0.466341 0.172039,-0.466343 0.744967,-0.267164 0.572618,-1.465306 -0.171644,-0.398356 0.400183,-0.599077 0.859633,-0.200713 0.458659,-1.065418 -0.114666,-1.330959 0.687286,-0.999045 0.114654,-0.99905 c -0.940493,-0.47896 -1.873258,-0.972172 -2.806732,-1.465302 m 7.478856,-18.800914 -1.67217,-0.672799 -1.927877,0.223992 -2.379568,0.672347 -0.450014,0.448804 1.478737,1.045852 v 0.597865 l -0.578705,0.597864 0.772136,1.570506 0.513081,-0.299843 0.644333,-1.04585 c 0.993255,-0.315373 1.883824,-0.672802 2.827907,-1.121246 l 0.77214,-2.017586 m 13.42157,12.663693 c 0,0.219082 0,0 0,0 l -0.44249,0.514725 c -0.27122,-0.32825 -0.57575,-0.604294 -0.88498,-0.892594 l -0.6788,0.102584 -0.62017,-0.719967 v 0.89101 l 0.53133,0.4129 0.35365,0.411313 0.47262,-0.548921 c 0.11897,0.228844 0.23631,0.457684 0.35447,0.686528 v 0.68577 l -0.53215,0.617307 -0.97381,0.686521 -0.73752,0.755827 -0.47262,-0.550587 0.23631,-0.617298 -0.47189,-0.548925 -0.79695,-1.749418 -0.6788,-0.78835 -0.17768,0.205241 0.26644,0.995261 0.5012,0.58311 c 0.28625,0.848647 0.56942,1.659767 0.94532,2.470966 0.58289,0 1.13242,-0.06355 1.71133,-0.138439 v 0.480539 l -0.70819,1.784025 -0.64949,0.754159 -0.53133,1.16789 c 0,0.640156 0,1.280311 0,1.920384 l 0.17768,0.755827 -0.29502,0.342094 -0.6503,0.412064 -0.6788,0.583111 0.56146,0.651581 -0.76764,0.687358 0.14747,0.444673 -1.1515,1.338939 h -0.76682 l -0.64949,0.412066 h -0.41399 v -0.548918 l -0.17605,-1.099504 c -0.22844,-0.689027 -0.46629,-1.373136 -0.7082,-2.057238 0,-0.50497 0.0293,-1.005017 0.0587,-1.509905 l 0.29583,-0.685771 -0.41398,-0.824212 0.0301,-1.132029 -0.56146,-0.651584 0.28072,-0.943135 -0.45678,-0.53224 h -0.79776 l -0.26563,-0.308652 -0.79695,0.515143 -0.32434,-0.378292 -0.73832,0.651918 c -0.50121,-0.583534 -1.00322,-1.166646 -1.50515,-1.749755 l -0.590045,-1.441518 0.531335,-0.822547 -0.29503,-0.342846 0.64868,-1.579203 c 0.53295,-0.680851 1.08962,-1.334019 1.6527,-1.989604 l 1.00395,-0.274461 1.12137,-0.136852 0.76764,0.206077 1.09197,1.131193 0.38386,-0.445504 0.53052,-0.06838 1.00395,0.342843 h 0.76764 l 0.53133,-0.480531 0.23631,-0.342847 -0.53215,-0.342844 -0.88579,-0.06839 c -0.24581,-0.35019 -0.47424,-0.718305 -0.76609,-1.029455 l -0.29584,0.136852 -0.11816,0.892597 -0.53133,-0.617304 -0.11733,-0.687357 -0.59005,-0.478862 h -0.23712 l 0.59077,0.68577 -0.2363,0.617307 -0.47189,0.136855 0.29502,-0.617309 -0.53214,-0.273623 -0.47108,-0.54892 -0.8866,0.205239 -0.11735,0.273625 -0.53133,0.343679 -0.29502,0.754996 -0.73751,0.377036 -0.32515,-0.377036 h -0.35365 v -1.235445 l 0.76763,-0.412064 h 0.59005 l -0.11897,-0.479699 -0.47108,-0.480531 0.79623,-0.171884 0.44249,-0.51389 0.35365,-0.618142 h 0.6503 l -0.17768,-0.479698 0.41399,-0.27446 v 0.548923 l 0.88498,0.205235 0.88498,-0.754158 0.0594,-0.343678 0.76683,-0.5485 c -0.27756,0.03544 -0.55512,0.06147 -0.82635,0.137272 v -0.618057 l 0.29502,-0.686191 h -0.29502 l -0.64835,0.617303 -0.17768,0.343262 0.17768,0.480952 -0.29583,0.822542 -0.47189,-0.274458 -0.41237,-0.479696 -0.65029,0.479696 -0.23631,-1.097421 1.12137,-0.754575 v -0.412064 l 0.70893,-0.480117 1.12137,-0.274877 0.76764,0.274877 1.41631,0.274461 -0.35365,0.411317 h -0.76764 l 0.76764,0.823377 0.59004,-0.68578 0.17923,-0.301728 c 0,0 2.26328,2.08326 3.55673,4.362077 1.29346,2.279578 1.90088,4.966379 1.90088,5.512046 z"
     inkscape:connector-curvature="0" />
</svg>
