<svg xmlns="http://www.w3.org/2000/svg" xmlns:xlink="http://www.w3.org/1999/xlink" width="64" height="64" viewBox="0 0 60 60"><defs><linearGradient id="a"><stop offset="0"/><stop offset="1" stop-color="#4d4d4d"/></linearGradient><linearGradient id="b"><stop offset="0" stop-color="#666"/><stop offset="1" stop-color="gray"/></linearGradient><linearGradient y2="49" x2="48.12" y1="49" x1="40.12" gradientUnits="userSpaceOnUse" id="c"><stop offset="0" stop-color="#008e00"/><stop offset=".23" stop-color="#008700"/><stop offset=".51" stop-color="#007800"/><stop offset=".82" stop-color="#005f00"/><stop offset="1" stop-color="#004d00"/></linearGradient><linearGradient id="d"><stop offset="0" stop-color="#00a208"/><stop offset=".5" stop-color="#dfffa8"/><stop offset="1" stop-color="#8aff47" stop-opacity=".63"/></linearGradient><linearGradient id="g"><stop offset="0" stop-color="#c3ff6a"/><stop offset="1" stop-color="#a6ff88" stop-opacity="0"/></linearGradient><radialGradient id="e" cx="23.78" cy="100" r="25.2" gradientUnits="userSpaceOnUse"><stop offset="0" stop-color="#287f00"/><stop offset=".5" stop-color="#3cf000"/><stop offset="1" stop-color="#003a00"/></radialGradient><radialGradient gradientUnits="userSpaceOnUse" fy="88.67" fx="17.12" r="14" cy="94" cx="19.78" id="f"><stop offset="0" stop-color="#fff"/><stop offset=".5" stop-color="#fff" stop-opacity=".71"/><stop offset="1" stop-color="#fff" stop-opacity="0"/></radialGradient><radialGradient gradientUnits="userSpaceOnUse" id="h" r="26.42" cy="18.09" cx="54.21"><stop offset=".33" stop-color="#f0ff80"/><stop offset=".67" stop-color="#0f0" stop-opacity="0"/></radialGradient><radialGradient id="i" cx="23.78" cy="100" r="25.2" gradientUnits="userSpaceOnUse"><stop offset="0" stop-color="#287f00"/><stop offset=".5" stop-color="#3cf000"/><stop offset="1" stop-color="#003a00"/></radialGradient><radialGradient gradientUnits="userSpaceOnUse" fy="88.67" fx="17.12" r="14" cy="94" cx="19.78" id="j"><stop offset="0" stop-color="#fff"/><stop offset=".5" stop-color="#fff" stop-opacity=".71"/><stop offset="1" stop-color="#fff" stop-opacity="0"/></radialGradient><radialGradient gradientUnits="userSpaceOnUse" id="k" r="26.42" cy="18.09" cx="54.21"><stop offset=".33" stop-color="#f0ff80"/><stop offset=".67" stop-color="#0f0" stop-opacity="0"/></radialGradient><linearGradient xlink:href="#c" id="q" gradientUnits="userSpaceOnUse" gradientTransform="matrix(.27253 0 0 .2802 20.11 11.92)" x1="40.12" y1="49" x2="48.12" y2="49"/><linearGradient xlink:href="#d" id="r" gradientUnits="userSpaceOnUse" x1="44.14" y1="3.49" x2="44.14" y2="94.16"/><filter x="-.56" width="2.12" y="-.01" height="1.02" id="s"><feGaussianBlur stdDeviation=".47"/></filter><linearGradient xlink:href="#l" id="t" gradientUnits="userSpaceOnUse" gradientTransform="matrix(.27075 -.03166 .02695 .2112 17.55 20.3)" x1=".12" y1="101" x2="43.93" y2="92.5"/><radialGradient id="l" cx="23.78" cy="100" r="25.2" gradientUnits="userSpaceOnUse"><stop offset="0" stop-color="#287f00"/><stop offset=".5" stop-color="#3cf000"/><stop offset="1" stop-color="#003a00"/></radialGradient><radialGradient xlink:href="#m" id="u" gradientUnits="userSpaceOnUse" gradientTransform="matrix(.68623 -.27888 .26073 .68336 -.07 33.86)" cx="22.5" cy="91.36" fx="19.84" fy="86.02" r="14"/><radialGradient gradientUnits="userSpaceOnUse" fy="88.67" fx="17.12" r="14" cy="94" cx="19.78" id="m"><stop offset="0" stop-color="#fff"/><stop offset=".5" stop-color="#fff" stop-opacity=".71"/><stop offset="1" stop-color="#fff" stop-opacity="0"/></radialGradient><filter id="v"><feGaussianBlur stdDeviation=".61"/></filter><radialGradient xlink:href="#g" id="w" gradientUnits="userSpaceOnUse" gradientTransform="matrix(1 -.02649 .01396 .52712 18.17 52.58)" cx="27.13" cy="113.89" fx="27.13" fy="113.89" r="11.99"/><filter x="-.07" width="1.15" y="-.14" height="1.28" id="x"><feGaussianBlur stdDeviation=".73"/></filter><linearGradient xlink:href="#c" id="y" gradientUnits="userSpaceOnUse" gradientTransform="matrix(.29948 0 0 .30532 21.9 9.73)" x1="54.1" y1="32.58" x2="32.58" y2="31.3"/><radialGradient xlink:href="#n" id="z" gradientUnits="userSpaceOnUse" gradientTransform="translate(51.01 20.88) scale(.62435)" cx="54.21" cy="18.09" r="26.42"/><radialGradient gradientUnits="userSpaceOnUse" id="n" r="26.42" cy="18.09" cx="54.21"><stop offset=".33" stop-color="#f0ff80"/><stop offset=".67" stop-color="#0f0" stop-opacity="0"/></radialGradient><filter id="A"><feGaussianBlur stdDeviation=".37"/></filter><radialGradient xlink:href="#o" id="p" cx="25.76" cy="21.76" fx="25.76" fy="21.76" r="17.95" gradientTransform="matrix(.14834 2.81199 -1.51732 .08004 53.68 -58.7)" gradientUnits="userSpaceOnUse"/><linearGradient id="o"><stop offset="0" stop-color="#333"/><stop offset=".53"/><stop offset="1" stop-color="#333"/></linearGradient></defs><path d="M30 1.63l-13 13h-.1v.1L6.66 24.97h10.26v10.04H6.65L30 58.37l23.35-23.35H43.09V24.98h10.26L43.09 14.72v-.1H43z" fill="url(#p)" stroke="#000" stroke-width=".47"/><path d="M31.04 11.92h2.25v28.4l-2.25-1.5z" fill="url(#q)"/><path transform="matrix(.44457 0 0 -.2923 12.15 39.74)" d="M43.12 3v90.66l2 .5V3z" opacity=".7" fill="url(#r)" filter="url(#s)"/><path d="M20.6 42.93c.96 2.01 4.52 2.73 7.96 1.6 3.42-1.14 5.41-3.68 4.44-5.7-.97-2.01-4.53-2.73-7.96-1.6-3.43 1.14-5.42 3.68-4.45 5.7z" fill="url(#t)"/><path transform="matrix(.29786 -.03484 .0305 .23904 10.34 18.79)" d="M34.45 87.55c-7.63 4.16-12.1 10.31-9.57 13.16 1.1 1.24 3.23 1.54 4.82 1.57 4.13.08 9.45-1.43 14.24-4.04 7.63-4.17 12.1-10.32 9.56-13.16-1.1-1.24-3.23-1.54-4.82-1.57-4.12-.08-9.44 1.43-14.23 4.04z" opacity=".8" fill="url(#u)" filter="url(#v)"/><path transform="matrix(.30555 .01323 -.03993 .3061 17.23 7.88)" d="M46.87 109c-7.17 1.88-12.58.6-11.92 3.13.27 1.05 1.3 1.84 2.12 2.31 2.24 1.31 6.43 2.24 11.47.92 7.17-1.88 10.92-6.96 10.26-9.5-.27-1.04-1.3-1.82-2.12-2.3-2.24-1.31-4.77 4.12-9.8 5.44z" opacity=".6" fill="url(#w)" filter="url(#x)"/><path d="M36.17 17.03c-1.52-1.82-2.29-4.03-2.86-5.11l-.02 7.27C43.57 23.51 36.93 35 36.93 35c7.6-7.8.64-16.3-.75-17.96z" fill="url(#y)"/><path d="M79.26 35.83c-3.12-3.83-3.78-6.4-4.52-7.48 0 11.96 3.9 11.82.32 11.13C81.4 42.74 86.28 47.23 88.14 52c-2.09-7.85-6.25-12.94-8.88-16.17z" transform="matrix(.44457 0 0 .44375 .4 1.26)" fill="url(#z)" filter="url(#A)"/></svg>