<svg xmlns="http://www.w3.org/2000/svg" xmlns:xlink="http://www.w3.org/1999/xlink" width="64" height="64" viewBox="0 0 16.93 16.93"><defs><linearGradient gradientTransform="rotate(-180 593.27 -96.69)" gradientUnits="userSpaceOnUse" id="c" y2="68.4" x2="129.6" y1="68.4" x1="9.6"><stop offset="0"/><stop offset=".01"/><stop offset=".35" stop-color="#4d4d4d"/><stop offset=".59" stop-color="#4d4d4d"/><stop offset="1"/></linearGradient><linearGradient xlink:href="#a" id="l" x1="1.81" y1="1.88" x2="1.7" y2="14.39" gradientUnits="userSpaceOnUse"/><radialGradient cx="66.14" cy=".75" r="81.97" id="a" gradientUnits="userSpaceOnUse" gradientTransform="matrix(.9459 0 0 1 1051.13 -330.17)"><stop offset=".13" stop-color="#fff"/><stop offset=".5" stop-color="#fff" stop-opacity=".17"/></radialGradient><radialGradient xlink:href="#b" id="f" gradientUnits="userSpaceOnUse" gradientTransform="matrix(.1168 0 0 .1168 .34 .48)" cx="69.6" cy="68.4" r="85"/><radialGradient gradientTransform="translate(1047.34 -330.17)" gradientUnits="userSpaceOnUse" id="b" r="85" cy="68.4" cx="69.6"><stop offset=".13"/><stop offset=".37" stop-color="#1a1a1a"/><stop offset=".78"/><stop offset="1" stop-color="#333"/></radialGradient><linearGradient xlink:href="#c" id="e" gradientUnits="userSpaceOnUse" gradientTransform="matrix(-.13307 0 0 -.13307 17.73 17.57)" x1="9.6" y1="68.4" x2="129.6" y2="68.4"/><linearGradient id="d"><stop offset="0" stop-color="#d7d7d7"/><stop offset="1" stop-color="#fff"/></linearGradient><radialGradient xlink:href="#d" id="g" gradientUnits="userSpaceOnUse" gradientTransform="matrix(.41614 -.75886 2.17828 1.2068 5.49 212.4)" cx="313" cy="60.9" fx="313" fy="60.9" r="23.28"/><clipPath id="h"><path d="M200.16 45.3a10.1 10.1 0 0 0-9.7 10.1v25.24a10.1 10.1 0 0 0 14.6 9L230.3 77a10.1 10.1 0 0 0 0-17.99L205.05 46.4a10.1 10.1 0 0 0-4.89-1.1z" fill="url(#radialGradient6107)" fill-rule="evenodd" stroke-width="8" stroke-linecap="round" stroke-linejoin="round"/></clipPath><filter id="i"><feGaussianBlur stdDeviation=".26"/></filter><clipPath id="j"><path d="M151.43 45.3a10.1 10.1 0 0 0-9.7 10.1v25.24a10.1 10.1 0 0 0 14.59 9L181.57 77a10.1 10.1 0 0 0 0-17.99L156.32 46.4a10.1 10.1 0 0 0-4.9-1.1z" fill="url(#radialGradient6101)" fill-rule="evenodd" stroke-width="8" stroke-linecap="round" stroke-linejoin="round"/></clipPath><filter id="k"><feGaussianBlur stdDeviation=".17"/></filter></defs><path d="M.48 2.61c0-1.17.96-2.13 2.13-2.13h11.71c1.17 0 2.13.96 2.13 2.13v11.71c0 1.17-.96 2.13-2.13 2.13H2.62a2.14 2.14 0 0 1-2.14-2.13z" fill="url(#e)"/><path d="M3.33 1.8c-.84 0-1.52.69-1.52 1.53V13.6c0 .83.68 1.51 1.52 1.51H13.6c.83 0 1.51-.68 1.51-1.51V3.33c0-.84-.68-1.52-1.51-1.52z" fill="url(#f)"/><g fill-rule="evenodd"><path d="M249.7 45.3a10.1 10.1 0 0 0-9.7 10.1v25.24a10.1 10.1 0 0 0 14.6 9L279.84 77a10.1 10.1 0 0 0 0-17.99L254.6 46.4a10.1 10.1 0 0 0-4.9-1.1z" fill="url(#g)" transform="matrix(.1598 0 0 .15874 -33.32 -2.33)"/><path d="M200.16 43.88c-5.43.21-9.7 4.67-9.7 10.1v3c0-5.43 4.27-9.89 9.7-10.1 1.7-.05 3.4.32 4.9 1.1l25.25 12.62a10.1 10.1 0 0 1 5.38 7.5 10.1 10.1 0 0 0-5.38-10.5l-25.25-12.63a10.15 10.15 0 0 0-4.9-1.09z" clip-path="url(#h)" transform="matrix(.1598 0 0 .15874 -25.4 -2.33)" fill="#121212" fill-opacity=".78" filter="url(#i)"/><path d="M186.94 67.53a10.1 10.1 0 0 1-5.38 7.5l-25.25 12.63a10.07 10.07 0 0 1-14.6-9v3a10.07 10.07 0 0 0 14.6 9l25.25-12.63a10.1 10.1 0 0 0 5.38-10.5z" clip-path="url(#j)" transform="matrix(.1598 0 0 .15874 -17.6 -2.33)" fill="#fff" filter="url(#k)"/></g><path d="M15.12 7.1V3.33a1.51 1.51 0 0 0-1.51-1.52H3.33A1.51 1.51 0 0 0 1.8 3.33V7.2A7.5 5.27 0 0 0 8.43 10a7.5 5.27 0 0 0 6.7-2.9z" opacity=".34" fill="url(#l)" fill-rule="evenodd"/></svg>