<svg xmlns="http://www.w3.org/2000/svg" xmlns:xlink="http://www.w3.org/1999/xlink" width="64" height="64"><defs><linearGradient id="f"><stop offset="0"/><stop offset="1" stop-opacity="0"/></linearGradient><linearGradient id="a"><stop stop-color="#b03c59" offset="0"/><stop stop-color="#ebe3e6" offset="1"/></linearGradient><linearGradient gradientTransform="matrix(1.1503 0 0 1.1503 -1.8 -1.79)" xlink:href="#b" id="k" x1="23.6" y1="26.68" x2="32.17" y2="34.91" gradientUnits="userSpaceOnUse"/><linearGradient id="b"><stop offset="0" stop-color="#e6e6e6"/><stop offset=".24" stop-color="gray"/><stop offset=".52" stop-color="#b3b3b3"/><stop offset=".77" stop-color="gray"/><stop offset="1" stop-color="#e6e6e6"/></linearGradient><linearGradient gradientTransform="matrix(1.1503 0 0 1.1503 -1.8 -1.79)" xlink:href="#c" id="j" x1="18.89" y1="40.18" x2="22.69" y2="44.24" gradientUnits="userSpaceOnUse"/><linearGradient id="c"><stop offset="0"/><stop offset="1" stop-color="#ababab"/></linearGradient><linearGradient xlink:href="#d" id="h" x1="-13.1" y1="17.92" x2=".42" y2="13.39" gradientUnits="userSpaceOnUse" gradientTransform="matrix(1.2329 0 0 1.2329 44.15 -3.27)"/><linearGradient id="d"><stop offset="0" stop-color="#fff"/><stop offset="1" stop-color="#fff" stop-opacity="0"/></linearGradient><linearGradient gradientTransform="matrix(1.1503 0 0 1.1503 -1.8 -1.79)" xlink:href="#e" id="g" x1="43.82" y1="3.11" x2="39.27" y2="32.49" gradientUnits="userSpaceOnUse"/><linearGradient id="e"><stop offset="0"/><stop offset="1" stop-color="#4d4d4d"/></linearGradient><linearGradient xlink:href="#f" id="i" x1="18.54" y1="38.52" x2="24.8" y2="45.22" gradientUnits="userSpaceOnUse"/></defs><path d="M52.46 32.68a62.74 62.74 0 0 0 7.05-8.37 31.6 31.6 0 0 0 2.24-3.65c.54-1.07.98-1.83.83-3-.23-1.84-1.5-3.26-2.9-4.86-1.4-1.6-3.01-3.18-4.16-4.32-1.14-1.15-2.72-2.77-4.32-4.16-1.6-1.4-3.02-2.67-4.85-2.9-.73-.1-1.25.08-1.84.3-.6.23-1.23.54-1.94.94-1.4.79-3.05 1.9-4.78 3.22-3.46 2.64-7.23 6.07-9.77 9.39-.3.4-.37.97-.17 1.43.97 2.23 2.6 4.67 4.58 7.29L40 31.57c2.62 1.99 5.06 3.61 7.3 4.58.45.2 1.02.13 1.42-.18 1.24-.95 2.5-2.07 3.73-3.29zm-.54-16.1a3.18 3.18 0 1 1-1.35-5.3h.01a3.15 3.15 0 0 1 1.56 1.04 3.18 3.18 0 0 1-.22 4.26z" color="#000" fill="url(#g)" stroke-width=".28"/><path d="M46.24 1.67C43.9 1.37 33.17 9.17 28 15.94c.95 2.2 2.63 4.75 4.72 7.5 2.13-.3 3.69.06 5.9 1.94 1.88 2.21 2.25 3.77 1.93 5.9 2.76 2.09 5.32 3.77 7.5 4.72a40.67 40.67 0 0 0 3.86-3.4c5.55-5.5 10.66-12.94 10.41-14.84-.28-2.27-4.65-6.48-7.13-8.95-2.48-2.48-6.68-6.85-8.95-7.14zm3.75 7.2a5.12 5.12 0 0 1 3.63 8.77A5.14 5.14 0 1 1 50 8.87z" opacity=".19" fill="url(#h)" stroke-width="1.62"/><path d="M30.92 33.12l-3.88-3.87-8.7 8.7.44 1.25L1.56 56.42 1.4 60.7l.97.98z" color="#000" fill="url(#i)" stroke-width=".28"/><path d="M34.75 36.96l-3.83-3.84L2.36 61.68l.93.93 4.29-.17L24.8 45.22l1.24.44z" color="#000" fill="url(#j)" stroke-width=".28"/><path d="M40.16 31.55l-7.71-7.72-14.12 14.12.2.57c7.82-7.71 12.85-7.18 10.24-4.57l-7.43 7.44-.43.42L1.74 61 3 62.26l19.18-19.18.43-.42 7.43-7.44c2.61-2.6 3.15 2.42-4.57 10.24l.57.2z" color="#000" fill="url(#k)" stroke-width=".28"/></svg>