<svg xmlns="http://www.w3.org/2000/svg" xmlns:xlink="http://www.w3.org/1999/xlink" width="64" height="64"><defs><linearGradient id="e"><stop offset="0" stop-color="#ffb380"/><stop offset="1" stop-color="#d45500" stop-opacity=".98"/></linearGradient><radialGradient id="a" cx="34" cy="42" r="32" gradientTransform="matrix(.375 0 0 1 -22.75 -40)" gradientUnits="userSpaceOnUse"><stop offset="0" stop-color="#5f5f5f"/><stop offset=".65" stop-color="#252525"/><stop offset="1" stop-color="#3b3b3b"/></radialGradient><radialGradient id="b" cx="33.5" cy="77.83" r="75.67" gradientUnits="userSpaceOnUse" gradientTransform="translate(-44 -40)"><stop offset=".08" stop-color="#babdb6"/><stop offset=".09" stop-color="#b2b5af"/><stop offset=".11" stop-color="#9da19b"/><stop offset=".13" stop-color="#7a7e7c"/><stop offset=".15" stop-color="#4a4f50"/><stop offset=".17" stop-color="#2e3436"/><stop offset=".18" stop-color="#363b3d"/><stop offset=".19" stop-color="#4b5050"/><stop offset=".21" stop-color="#6e716e"/><stop offset=".22" stop-color="#888a85"/><stop offset=".29" stop-color="#90928c"/><stop offset=".39" stop-color="#a4a7a1"/><stop offset=".52" stop-color="#c6cac2"/><stop offset=".56" stop-color="#d3d7cf"/><stop offset=".58" stop-color="#eaece8"/><stop offset=".59" stop-color="#f9faf9"/><stop offset=".6" stop-color="#fff"/><stop offset=".61" stop-color="#e8eae6"/><stop offset=".62" stop-color="#d9dcd5"/><stop offset=".63" stop-color="#d3d7cf"/><stop offset=".72" stop-color="#babdb6"/><stop offset=".83" stop-color="#9ea19b"/><stop offset=".93" stop-color="#8e908b"/><stop offset="1" stop-color="#888a85"/></radialGradient><radialGradient id="g" cx="12.01" cy="13.2" r="20" gradientTransform="matrix(0 2.36188 -3.40694 0 60.78 -11.44)" gradientUnits="userSpaceOnUse"><stop offset="0" stop-color="#4d4d4d"/><stop offset=".26" stop-color="#333"/><stop offset=".7"/><stop offset="1"/></radialGradient><linearGradient id="f" x1="24" x2="24" y1="44" y2="3.9" gradientTransform="translate(-1.75 -1.75) scale(1.4058)" gradientUnits="userSpaceOnUse"><stop offset="0"/><stop offset="1" stop-color="#333"/></linearGradient><linearGradient gradientTransform="rotate(14.19 7.49 7.64)" y2="11.5" x2="7.46" y1="3.5" x1="7.46" gradientUnits="userSpaceOnUse" id="c"><stop offset="0" stop-color="#666"/><stop offset="1" stop-color="#333"/></linearGradient><linearGradient gradientTransform="rotate(24 9.04 7)" y2="7.58" x2="7.84" y1="8.58" x1="7.84" gradientUnits="userSpaceOnUse" id="d"><stop offset="0" stop-color="#333"/><stop offset="1"/></linearGradient><radialGradient xlink:href="#e" id="h" cx="32" cy="32" fx="32" fy="32" r="12.89" gradientTransform="matrix(1 0 0 1.43169 0 -13.81)" gradientUnits="userSpaceOnUse"/></defs><rect x="4.58" y="4.58" width="54.83" height="54.83" rx="2.23" ry="2.23" stroke-linejoin="round" stroke-linecap="round" stroke-width=".5" stroke="url(#f)" fill="url(#g)"/><path style="line-height:1.25;-inkscape-font-specification:'Ubuntu Bold'" d="M32.74 14.73c-2 0-3.81.26-5.41.77a11.6 11.6 0 0 0-4.09 2.09c-1.12.92-1.99 2.04-2.6 3.37-.61 1.3-.92 2.76-.92 4.4 0 1.63.29 3.02.87 4.18a9.95 9.95 0 0 0 2.24 2.9 13.9 13.9 0 0 0 3.12 2c1.16.51 2.31.97 3.47 1.38 2.66.88 4.53 1.72 5.62 2.5 1.09.75 1.63 1.7 1.63 2.86a4.1 4.1 0 0 1-.25 1.48c-.17.44-.48.84-.92 1.18-.44.3-1.04.56-1.79.76a21.28 21.28 0 0 1-8.48-.4c-1.53-.48-2.82-1.01-3.88-1.59l-2.24 6.33c.47.28 1.05.56 1.73.87a21.13 21.13 0 0 0 5.87 1.53c1.26.2 2.68.31 4.24.31 4.67 0 8.16-.9 10.47-2.7 2.32-1.84 3.47-4.42 3.47-7.72 0-1.7-.22-3.15-.66-4.34a8.27 8.27 0 0 0-2.04-3.11c-.89-.89-2.01-1.65-3.37-2.3a48.41 48.41 0 0 0-4.8-2.04l-2.45-.87c-.72-.3-1.37-.63-1.94-.97a4.9 4.9 0 0 1-1.28-1.23 2.8 2.8 0 0 1-.46-1.63c0-1.1.4-1.9 1.23-2.4.85-.55 2.23-.82 4.13-.82 1.7 0 3.15.2 4.34.61 1.23.38 2.33.82 3.32 1.33l2.3-6.28a22.04 22.04 0 0 0-10.47-2.45z" font-weight="700" font-size="51.07" font-family="Ubuntu" letter-spacing="0" word-spacing="0" fill="#f60" opacity=".19"/><path style="line-height:1.25;-inkscape-font-specification:'Ubuntu Bold'" d="M32.74 13.54c-2 0-3.81.26-5.41.77a11.6 11.6 0 0 0-4.09 2.09c-1.12.92-1.99 2.04-2.6 3.37-.61 1.3-.92 2.76-.92 4.4 0 1.63.29 3.02.87 4.18a9.95 9.95 0 0 0 2.24 2.91 13.9 13.9 0 0 0 3.12 2c1.16.5 2.31.96 3.47 1.37 2.66.88 4.53 1.72 5.62 2.5 1.09.75 1.63 1.7 1.63 2.86a4.1 4.1 0 0 1-.25 1.48c-.17.45-.48.84-.92 1.18-.44.3-1.04.56-1.79.76a21.28 21.28 0 0 1-8.48-.4c-1.53-.48-2.82-1-3.88-1.59l-2.24 6.33c.47.28 1.05.56 1.73.87a21.13 21.13 0 0 0 5.87 1.53c1.26.2 2.68.31 4.24.31 4.67 0 8.16-.9 10.47-2.7 2.32-1.84 3.47-4.41 3.47-7.72 0-1.7-.22-3.15-.66-4.34a8.27 8.27 0 0 0-2.04-3.11c-.89-.89-2.01-1.65-3.37-2.3a48.41 48.41 0 0 0-4.8-2.04l-2.45-.87c-.72-.3-1.37-.63-1.95-.97a4.9 4.9 0 0 1-1.27-1.23 2.8 2.8 0 0 1-.46-1.63c0-1.1.4-1.9 1.23-2.4.85-.55 2.23-.82 4.13-.82 1.7 0 3.15.2 4.34.62 1.23.37 2.33.81 3.32 1.32l2.3-6.28a22.04 22.04 0 0 0-10.47-2.45z" font-weight="700" font-size="51.07" font-family="Ubuntu" letter-spacing="0" word-spacing="0" fill="url(#h)"/><path style="line-height:1.25;-inkscape-font-specification:'Ubuntu Bold'" d="M32.82 11.54c-2.23 0-4.22.28-6 .85-1.77.53-3.28 1.3-4.53 2.32a10.38 10.38 0 0 0-2.88 3.73 11.24 11.24 0 0 0-1.02 4.87c0 1.81.32 3.36.96 4.64a11.03 11.03 0 0 0 2.5 3.23c1.01.87 2.16 1.6 3.44 2.2 1.29.57 2.57 1.08 3.85 1.53 2.95.98 5.02 1.91 6.23 2.78 1.2.83 1.8 1.89 1.8 3.17 0 .6-.08 1.15-.27 1.64-.2.49-.53.92-1.02 1.3a6.5 6.5 0 0 1-1.98.85c-.8.19-1.82.28-3.06.28-2.5 0-4.6-.24-6.34-.73a23.57 23.57 0 0 1-4.3-1.76l-2.5 7.02c.54.3 1.18.62 1.93.96a23.42 23.42 0 0 0 6.51 1.7c1.4.23 2.96.34 4.7.34 5.17 0 9.04-1 11.6-3 2.57-2.04 3.85-4.89 3.85-8.55 0-1.88-.24-3.49-.73-4.8a9.17 9.17 0 0 0-2.27-3.46 13.28 13.28 0 0 0-3.74-2.55 53.66 53.66 0 0 0-5.31-2.26l-2.72-.96c-.8-.34-1.51-.7-2.15-1.08a5.42 5.42 0 0 1-1.42-1.35 3.1 3.1 0 0 1-.5-1.82c0-1.2.45-2.1 1.35-2.66.95-.6 2.47-.9 4.59-.9 1.88 0 3.49.22 4.8.68 1.37.41 2.6.9 3.69 1.47l2.54-6.96a24.43 24.43 0 0 0-11.6-2.72z" font-weight="700" font-size="51.07" font-family="Ubuntu" letter-spacing="0" word-spacing="0" fill="#f60" opacity=".14"/></svg>