<svg xmlns="http://www.w3.org/2000/svg" xmlns:xlink="http://www.w3.org/1999/xlink" width="64" height="64" viewBox="0 0 60 60"><defs><linearGradient id="a"><stop offset="0" stop-color="#4d4d4d"/><stop offset="1"/></linearGradient><linearGradient xlink:href="#b" id="l" gradientUnits="userSpaceOnUse" gradientTransform="translate(-189.33 -1775.27) scale(2.66667)" x1="102" y1="995.36" x2="102" y2="1030.36"/><linearGradient id="b"><stop offset="0" stop-color="#4d4d4d"/><stop offset="1"/></linearGradient><linearGradient id="e"><stop offset="0"/><stop offset="1" stop-opacity="0"/></linearGradient><linearGradient xlink:href="#c" id="m" gradientUnits="userSpaceOnUse" x1="95" y1="1010.36" x2="105" y2="1035.36" gradientTransform="translate(-191.33 -1775.27) scale(2.66667)"/><linearGradient id="c"><stop offset="0" stop-color="#4d4d4d"/><stop offset="1"/></linearGradient><linearGradient xlink:href="#d" id="o" gradientUnits="userSpaceOnUse" gradientTransform="translate(-189.33 -1775.27) scale(2.66667)" x1="103" y1="1025.86" x2="103" y2="1016.94"/><radialGradient id="d" gradientUnits="userSpaceOnUse" cy="5.02" cx="3" gradientTransform="matrix(0 1.0975 -1.3856 0 178.35 1018.24)" r="21"><stop offset="0" stop-color="#b3b3b3"/><stop offset="1" stop-color="#f9f9f9"/></radialGradient><linearGradient xlink:href="#e" id="q" gradientUnits="userSpaceOnUse" gradientTransform="translate(-189.33 -1775.27) scale(2.66667)" x1="103.7" y1="1018.32" x2="103.7" y2="1028.03"/><linearGradient xlink:href="#f" id="r" gradientUnits="userSpaceOnUse" gradientTransform="matrix(2.66667 0 0 2.13333 -189.33 -79.84)" x1="104" y1="479" x2="104" y2="484"/><linearGradient id="f" y2="16.19" gradientUnits="userSpaceOnUse" x2="62.99" gradientTransform="matrix(.64168 0 0 .6402 137.45 1016.41)" y1="13.18" x1="62.99"><stop offset="0" stop-color="#4d4d4d"/><stop offset="1"/></linearGradient><linearGradient id="g"><stop offset="0" stop-color="#333"/><stop offset="1"/></linearGradient><linearGradient id="h" gradientUnits="userSpaceOnUse" x1="60" y1="12.85" x2="60" y2="120.21" gradientTransform="translate(145.71 -238.21)"><stop offset="0" stop-color="#fff"/><stop offset="1" stop-color="#fff" stop-opacity="0"/></linearGradient><linearGradient id="i"><stop offset="0"/><stop offset="1" stop-color="#fff" stop-opacity="0"/></linearGradient><linearGradient id="j"><stop offset="0"/><stop offset="1" stop-color="#4d4d4d"/></linearGradient><radialGradient xlink:href="#a" id="k" gradientUnits="userSpaceOnUse" gradientTransform="matrix(4.44444 0 0 1.55095 -356.44 193.58)" cx="94" cy="432.5" fx="94" fy="432.5" r="21"/><filter id="n" color-interpolation-filters="sRGB"><feGaussianBlur stdDeviation=".21"/></filter><filter id="p" x="-.11" width="1.22" y="-.22" height="1.43" color-interpolation-filters="sRGB"><feGaussianBlur stdDeviation=".34"/></filter></defs><g transform="matrix(.458 0 0 .458 -10.3 -393.35)"><path d="M38.92 864.36c-1.48 0-2.12 1.32-2.67 2.72l-2.67 6.78S32 877.93 32 880.65c0 1.5 1.19 2.75 2.67 2.71L88 882l53.33 1.36a2.66 2.66 0 0 0 2.67-2.71c0-2.72-1.58-6.79-1.58-6.79l-2.67-6.78c-.55-1.4-1.19-2.72-2.67-2.72H88z" fill="url(#k)"/><rect width="112" height="94" x="32" y="878.36" ry="2.67" rx="2.67" fill="url(#l)"/><rect width="96" height="78" x="40" y="886.36" ry="2.67" rx="2.67" fill="#1a1a1a"/><rect rx="2.67" ry="2.67" y="889.7" x="48" height="10.31" width="80" fill="#280b0b"/><rect rx="2.67" width="84" height="10.67" x="46" y="892.36" ry="2.67" fill="#782121"/><path d="M128.37 894.36a2.63 2.63 0 0 1 2.63 2.67v9.33H45v-7.33a2.66 2.66 0 0 1 2.67-2.67H102l2-2z" opacity=".98" fill="#f95"/><rect width="88" height="13" x="-132" y="898.36" transform="scale(-1 1)" ry="2.67" rx="2.67" fill="#f60"/><path d="M45.63 900.36a2.63 2.63 0 0 0-2.63 2.67v9.33h90v-7.33a2.66 2.66 0 0 0-2.67-2.67H72l-2-2z" opacity=".98" fill="teal"/><rect ry="2.67" y="906.36" x="42" height="13" width="92" rx="2.67" fill="teal"/><path d="M48 904.36h80v2H48z" fill="#f2f2f2"/><rect rx="2.67" width="102" height="64" x="36" y="916.36" ry="2.67" fill="url(#m)"/><rect ry="2.25" y="992.94" x="98" height="9" width="12" transform="translate(-189.33 -1711.27) scale(2.66667)" rx="2.25" opacity=".4" filter="url(#n)"/><rect width="32" height="24" x="72" y="936.36" ry="6" rx="6" fill="url(#o)"/><rect rx=".5" y="995.49" x="100.25" height="3.75" width="7.5" transform="translate(-189.33 -1711.27) scale(2.66667)" ry=".5" filter="url(#p)"/><rect y="940.36" x="76" height="16" width="24" ry="2.67" rx="2.67" opacity=".5" fill="url(#q)"/><rect width="20" height="10" x="78" y="942.36" rx="1.33" ry="1.33" fill="url(#r)"/><path d="M24 860.36h128v128H24z" opacity=".2" fill="none"/></g></svg>