<svg xmlns="http://www.w3.org/2000/svg" xmlns:xlink="http://www.w3.org/1999/xlink" width="64" height="64" version="1"><defs><linearGradient id="c"><stop offset="0" stop-color="#afdde9"/><stop offset="1" stop-color="#fff"/></linearGradient><linearGradient id="b"><stop stop-color="#afdde9" offset="0"/><stop stop-color="#fff" offset="1"/></linearGradient><linearGradient id="a"><stop offset="0" stop-color="#4d4d4d"/><stop offset="1"/></linearGradient><radialGradient xlink:href="#a" id="d" cx="16" cy="19.25" fx="16" fy="19.25" r="28" gradientUnits="userSpaceOnUse" gradientTransform="matrix(.88378 .33898 -.35812 .93367 8.75 -4.15)"/><linearGradient xlink:href="#c" id="e" x1="16.12" y1="9.49" x2="42.37" y2="50.71" gradientUnits="userSpaceOnUse"/></defs><path d="M32 4C16.49 4 4 16.49 4 32s12.49 28 28 28 28-12.49 28-28S47.51 4 32 4z" fill="url(#d)"/><path d="M32.63 12.63c-5.14-.1-10.6 1.87-12.26 5.75-.96 2.15-.07 6 3.16 6 1.89 0 2.76-1.21 2.9-2.33.11-.84-.24-1.6-.44-2.3-.23-.79.76-2.34 1.85-2.97.9-.52 1.86-.7 2-.73a7.63 7.63 0 0 1 7.86 3.05c1.36 2.11-.14 5.3-2.29 8.41-2.14 3.1-4.44 6.63-4.42 10.38 0 1.42-.13 1.9-.05 2.49.08.46 1.6.4 2.77.19-.1-3.64.71-7.15 4.14-9.65 3.62-2.82 7.11-6.35 6.75-10.52-.08-4-4.77-7.16-9.8-7.61a19.28 19.28 0 0 0-2.17-.16zm-.4 32.82c-3.12-.17-5.27 3.37-3.4 5.62 1.67 2.48 6.35 1.87 7.16-.95.83-2.18-1.18-4.7-3.77-4.67z" opacity=".3" fill="#2c5aa0"/><path d="M32 12c-5.14-.09-10.6 1.88-12.26 5.75-.96 2.15-.07 6.01 3.17 6.01 1.89 0 2.76-1.22 2.9-2.34.1-.84-.24-1.59-.44-2.3-.24-.78.76-2.33 1.84-2.96.91-.52 1.87-.7 2-.73a7.63 7.63 0 0 1 7.87 3.05c1.35 2.1-.14 5.3-2.29 8.4-2.15 3.11-4.44 6.63-4.43 10.38 0 1.43-.13 1.91-.04 2.5.07.45 1.6.4 2.77.18-.1-3.63.7-7.15 4.14-9.65 3.62-2.82 7.1-6.35 6.74-10.51-.08-4.01-4.76-7.17-9.8-7.62a19.28 19.28 0 0 0-2.17-.15zm-.4 32.83c-3.11-.18-5.27 3.36-3.4 5.61 1.67 2.48 6.36 1.87 7.16-.94.84-2.19-1.17-4.71-3.76-4.67z" fill="url(#e)"/></svg>