<svg xmlns="http://www.w3.org/2000/svg" xmlns:xlink="http://www.w3.org/1999/xlink" width="64" height="64" version="1"><defs><linearGradient id="c"><stop offset="0" stop-color="#2c5aa0"/><stop offset="1" stop-color="#3771c8"/></linearGradient><linearGradient id="a"><stop offset="0" stop-color="#4d4d4d"/><stop offset="1"/></linearGradient><radialGradient xlink:href="#a" id="d" cx="16" cy="19.25" fx="16" fy="19.25" r="28" gradientUnits="userSpaceOnUse" gradientTransform="matrix(.88378 .33898 -.35812 .93367 8.75 -4.15)"/><linearGradient id="b"><stop offset="0" stop-color="#fea"/><stop offset="1" stop-color="#fc0"/></linearGradient><linearGradient xlink:href="#c" id="e" x1="31.858" y1="19.214" x2="44.927" y2="52.524" gradientUnits="userSpaceOnUse" gradientTransform="matrix(.95238 0 0 .95238 1.212 1.524)"/></defs><path d="M32 4C16.49 4 4 16.49 4 32s12.49 28 28 28 28-12.49 28-28S47.51 4 32 4z" fill="url(#d)"/><path d="M32.629 12.63c-5.14-.094-10.6 1.872-12.263 5.745-.96 2.151-.07 6.01 3.164 6.01 1.89 0 2.763-1.219 2.909-2.335.104-.843-.245-1.595-.448-2.299-.233-.79.76-2.338 1.848-2.966.907-.523 1.861-.698 1.995-.733 3.257-.785 6.512.948 7.867 3.053 1.355 2.105-.14 5.294-2.287 8.405-2.145 3.105-4.44 6.628-4.429 10.379 0 1.425-.13 1.907-.042 2.488.076.46 1.599.408 2.768.192-.105-3.634.71-7.151 4.14-9.652 3.623-2.82 7.113-6.35 6.746-10.514-.08-4.012-4.763-7.164-9.799-7.617a19.276 19.276 0 0 0-2.17-.157zm-.406 32.822c-3.11-.174-5.268 3.363-3.395 5.614 1.668 2.483 6.355 1.87 7.157-.944.838-2.186-1.174-4.71-3.762-4.67z" opacity=".3" fill="#2c5aa0"/><path d="M32.004 12.005c-5.14-.093-10.6 1.873-12.263 5.745-.96 2.152-.069 6.01 3.164 6.01 1.89 0 2.764-1.218 2.909-2.335.105-.843-.244-1.595-.448-2.298-.232-.791.761-2.338 1.848-2.966.907-.524 1.862-.699 1.996-.734 3.256-.785 6.512.948 7.867 3.053 1.354 2.106-.141 5.294-2.287 8.405-2.146 3.105-4.441 6.629-4.43 10.38 0 1.424-.129 1.906-.042 2.488.076.459 1.6.407 2.768.192-.105-3.635.71-7.152 4.14-9.652 3.624-2.82 7.113-6.35 6.747-10.514-.081-4.013-4.763-7.164-9.8-7.618a19.276 19.276 0 0 0-2.169-.156zM31.6 44.828c-3.111-.175-5.268 3.363-3.396 5.613 1.669 2.483 6.355 1.871 7.158-.943.837-2.187-1.175-4.71-3.762-4.67z" fill="url(#e)"/></svg>