<svg xmlns="http://www.w3.org/2000/svg" xmlns:xlink="http://www.w3.org/1999/xlink" width="64" height="64"><defs><linearGradient gradientTransform="translate(384.57 499.8)" gradientUnits="userSpaceOnUse" x2="0" y2="33" y1="13" id="a"><stop stop-color="#0a0"/><stop stop-color="#fdbc4b" offset="1"/></linearGradient><linearGradient xlink:href="#b" id="i" y1="42.112" x2="0" y2="5.978" gradientUnits="userSpaceOnUse" gradientTransform="matrix(1.4 0 0 1.4 -1.6 -1.6)"/><linearGradient id="b"><stop offset="0" stop-color="#0a0"/><stop offset="1" stop-color="#5f5"/></linearGradient><linearGradient xlink:href="#c" id="h" x1="26.052" y1="40.059" x2="43.896" y2="24.089" gradientUnits="userSpaceOnUse" gradientTransform="matrix(1.4 0 0 1.4 -1.6 -1.6)"/><linearGradient id="c"><stop offset="0" stop-color="#0a0"/><stop offset="1" stop-color="#0a0" stop-opacity=".011"/></linearGradient><linearGradient xlink:href="#d" id="g" x1="24" y1="13" x2="23.81" y2="35.491" gradientUnits="userSpaceOnUse" gradientTransform="matrix(1.4 0 0 1.4 -1.6 -1.6)"/><linearGradient id="d"><stop offset="0" stop-color="green"/><stop offset="1" stop-color="#2aff2a"/></linearGradient><radialGradient xlink:href="#e" id="f" cx="-22.94" cy="13.906" fx="-22.94" fy="13.906" r="20" gradientUnits="userSpaceOnUse" gradientTransform="matrix(1.4 0 0 1.4 54.4 -1.6)"/><linearGradient id="e"><stop offset="0" stop-color="#333"/><stop offset="1"/></linearGradient></defs><rect width="56" x="4" y="4" rx="28" height="56" fill="url(#f)"/><path d="M32 16.6L19.4 29.2h7v15.4h11.2V29.2h7z" fill="url(#g)"/><path d="M32 57.2c13.96 0 25.2-11.242 25.2-25.2C57.2 18.04 45.958 6.8 32 6.8v2.8c12.41 0 22.4 9.99 22.4 22.4 0 12.41-9.99 22.4-22.4 22.4z" opacity=".5" fill="green"/><path d="M32 6.8A25.147 25.147 0 0 0 6.8 32c0 13.96 11.242 25.2 25.2 25.2 13.96 0 25.2-11.242 25.2-25.2C57.2 18.04 45.958 6.8 32 6.8m0 2.8c12.41 0 22.4 9.99 22.4 22.4 0 12.41-9.99 22.4-22.4 22.4-12.41 0-22.4-9.99-22.4-22.4C9.6 19.59 19.59 9.6 32 9.6" fill="url(#h)"/><path d="M32 57.2v-2.8C19.59 54.4 9.6 44.41 9.6 32 9.6 19.59 19.59 9.6 32 9.6V6.8A25.147 25.147 0 0 0 6.8 32c0 13.96 11.242 25.2 25.2 25.2" fill="url(#i)"/></svg>