<svg xmlns="http://www.w3.org/2000/svg" xmlns:xlink="http://www.w3.org/1999/xlink" width="64" height="64" version="1"><defs><linearGradient id="a"><stop offset="0" stop-color="#4d4d4d"/><stop offset="1"/></linearGradient><radialGradient xlink:href="#a" id="d" cx="16" cy="19.25" fx="16" fy="19.25" r="28" gradientUnits="userSpaceOnUse" gradientTransform="matrix(.88378 .33898 -.35812 .93367 8.75 -4.15)"/><linearGradient id="b"><stop offset="0" stop-color="#00f"/><stop offset="1" stop-color="teal"/></linearGradient><linearGradient id="c"><stop offset="0" stop-color="#a00"/><stop offset="1" stop-color="#ff2a2a"/></linearGradient><linearGradient xlink:href="#b" id="e" gradientUnits="userSpaceOnUse" gradientTransform="matrix(1.3146 0 0 1.3146 1.6 2.1)" x1="7.3" y1="45.15" x2="7.07" y2="9.1"/><linearGradient gradientTransform="matrix(1.3146 0 0 1.3146 1.6 2.1)" xlink:href="#c" id="h" x1="22.95" y1=".3" x2="23.17" y2="34.29" gradientUnits="userSpaceOnUse"/><linearGradient xlink:href="#b" id="f" gradientUnits="userSpaceOnUse" gradientTransform="matrix(1.3146 0 0 1.3146 3.6 2.1)" x1="7.3" y1="45.15" x2="7.07" y2="9.1"/><linearGradient gradientTransform="matrix(1.3146 0 0 1.3146 -.4 2.1)" xlink:href="#c" id="g" x1="22.95" y1=".3" x2="23.17" y2="34.29" gradientUnits="userSpaceOnUse"/></defs><path d="M32 4C16.49 4 4 16.49 4 32s12.49 28 28 28 28-12.49 28-28S47.51 4 32 4z" fill="url(#d)"/><path d="M17.47 55.85a27.7 27.7 0 0 0 3.61 1.96c1.68.7 3.44 1.25 5.26 1.62l.09.01v-35.1h5.69L21.87 14.25 11.78 24.4h5.7v31.46z" fill="url(#e)"/><path d="M19.47 55.85a27.7 27.7 0 0 0 3.61 1.96c1.68.7 3.44 1.25 5.26 1.62l.09.01v-35.1h5.69L23.87 14.25 13.78 24.4h5.7z" fill="url(#f)" opacity=".2"/><path d="M44.53 8.15a27.7 27.7 0 0 0-3.61-1.96 27.83 27.83 0 0 0-5.26-1.62c-.05-.01-.1 0-.13-.02l.06 32.3h-5.7L40.08 47l10.13-10.15h-5.7z" fill="url(#g)" opacity=".2"/><path d="M46.53 8.15a27.7 27.7 0 0 0-3.61-1.96 27.83 27.83 0 0 0-5.26-1.62c-.05-.01-.1 0-.13-.02l.06 32.3h-5.7L42.08 47l10.13-10.15h-5.7z" fill="url(#h)"/></svg>