<?xml version="1.0" encoding="UTF-8" standalone="no"?><svg xmlns:dc="http://purl.org/dc/elements/1.1/" xmlns:cc="http://creativecommons.org/ns#" xmlns:rdf="http://www.w3.org/1999/02/22-rdf-syntax-ns#" xmlns="http://www.w3.org/2000/svg" xmlns:xlink="http://www.w3.org/1999/xlink" width="64" height="64"><defs><linearGradient id="d"><stop offset="0" stop-color="#4d4d4d"/><stop offset="1"/></linearGradient><linearGradient id="a"><stop offset="0" stop-color="#fff"/><stop offset=".51" stop-color="#fff" stop-opacity=".24"/><stop offset=".83" stop-color="#fff" stop-opacity=".16"/><stop offset="1" stop-color="#fff" stop-opacity=".39"/></linearGradient><linearGradient id="b"><stop offset="0" stop-color="#333"/><stop offset="1"/></linearGradient><linearGradient id="c"><stop offset="0"/><stop offset="1" stop-opacity="0"/></linearGradient><linearGradient x1="71.2" y1="6.24" x2="71.2" y2="44.34" id="f" xlink:href="#a" gradientUnits="userSpaceOnUse" gradientTransform="matrix(1.36256 0 0 1.36256 -65.74 -2.55)"/><radialGradient xlink:href="#d" id="e" cx="15.77" cy="11.09" fx="15.77" fy="11.09" r="20.5" gradientUnits="userSpaceOnUse" gradientTransform="matrix(1.29268 0 0 1.29268 .98 .98)"/></defs><metadata><rdf:RDF><cc:Work><dc:format>image/svg+xml</dc:format><dc:type rdf:resource="http://purl.org/dc/dcmitype/StillImage"/><dc:title/></cc:Work></rdf:RDF></metadata><path d="M32 5.5A26.52 26.52 0 0 0 5.5 32 26.52 26.52 0 0 0 32 58.5 26.52 26.52 0 0 0 58.5 32 26.52 26.52 0 0 0 32 5.5z" style="marker:none" color="#000" overflow="visible" opacity=".99" fill="url(#e)"/><path d="M57.2 32a25.2 25.2 0 1 1-50.4 0 25.2 25.2 0 0 1 50.4 0z" style="marker:none" color="#000" overflow="visible" opacity=".5" fill="none" stroke="url(#f)" stroke-linecap="round" stroke-linejoin="round"/><path d="M32 12.47A20.56 20.56 0 0 0 11.47 33 20.56 20.56 0 0 0 32 53.53 20.56 20.56 0 0 0 52.53 33 20.56 20.56 0 0 0 32 12.47zm0 7.91c5.58 0 10.1 3.67 11.78 8.66H20.22A12.44 12.44 0 0 1 32 20.38zM20.22 36.95h23.56A12.44 12.44 0 0 1 32 45.61c-5.58 0-10.1-3.67-11.78-8.66z" style="isolation:auto;mix-blend-mode:normal;marker:none" color="#000" overflow="visible" opacity=".15" fill="#fff"/><path d="M32 14.48a18.52 18.52 0 1 0 0 37.04 18.52 18.52 0 0 0 0-37.04zm0 3.9c7.42 0 13.55 5.5 14.5 12.67h-29A14.62 14.62 0 0 1 32 18.38zM17.5 34.95h29a14.62 14.62 0 0 1-29 0z" style="isolation:auto;mix-blend-mode:normal;marker:none" color="#000" overflow="visible" opacity=".3" fill="#fff"/><path d="M32 12.53a18.52 18.52 0 1 0 0 37.04 18.52 18.52 0 0 0 0-37.04zm0 3.9c7.42 0 13.55 5.5 14.5 12.67h-29A14.62 14.62 0 0 1 32 16.43zM17.5 33h29a14.62 14.62 0 0 1-29 0z" style="marker:none" color="#000" overflow="visible" fill="#fff"/></svg>