<svg xmlns="http://www.w3.org/2000/svg" xmlns:xlink="http://www.w3.org/1999/xlink" width="64" height="64" version="1"><defs><linearGradient id="b"><stop offset="0" stop-color="#f55"/><stop offset="1" stop-color="#d40000"/></linearGradient><linearGradient id="a"><stop offset="0" stop-color="#4d4d4d"/><stop offset="1"/></linearGradient><radialGradient xlink:href="#a" id="c" cx="16" cy="19.25" fx="16" fy="19.25" r="28" gradientUnits="userSpaceOnUse" gradientTransform="matrix(.9469 .3632 -.3837 1.00036 7.09 -6.73)"/><linearGradient id="d" x1="30.16" x2="25.41" y1="36.09" y2="31.34" gradientUnits="userSpaceOnUse" gradientTransform="matrix(1.1579 0 0 1.1579 -7.03 -5.34)"><stop offset="0" stop-color="#8896b0"/><stop offset="1" stop-color="#c3cad7"/></linearGradient></defs><path d="M32 2C15.38 2 2 15.38 2 32c0 16.62 13.38 30 30 30 16.62 0 30-13.38 30-30C62 15.38 48.62 2 32 2z" fill="url(#c)"/><path d="M50 13L6 31l12 4 5 14 6.22-7.25L42 51z" color="#000" fill="#eff0f4"/><path d="M24 38l-1 11 6.22-7.25z" color="#000" fill="#5f83bd"/><path d="M18 35l24-15-18 18-1 11z" color="#000" fill="url(#d)"/></svg>