<svg xmlns="http://www.w3.org/2000/svg" xmlns:xlink="http://www.w3.org/1999/xlink" id="Layer_1" width="64" height="64"><defs id="defs201"><linearGradient id="linearGradient1901"><stop offset="0" id="stop1897" stop-color="gray"/><stop offset="1" id="stop1899"/></linearGradient><linearGradient id="linearGradient1893"><stop offset="0" id="stop1889" stop-color="#666"/><stop offset="1" id="stop1891"/></linearGradient><linearGradient id="linearGradient1877"><stop offset="0" id="stop1873"/><stop offset="1" id="stop1875" stop-color="gray"/></linearGradient><linearGradient id="linearGradient1869"><stop offset="0" id="stop1865"/><stop offset="1" id="stop1867" stop-color="gray"/></linearGradient><linearGradient id="linearGradient1861"><stop offset="0" id="stop1857"/><stop offset="1" id="stop1859" stop-color="#4d4d4d"/></linearGradient><linearGradient id="linearGradient1851"><stop offset="0" id="stop1847" stop-color="#333"/><stop id="stop1855" offset=".29"/><stop offset="1" id="stop1849"/></linearGradient><linearGradient id="SVGID_1_" gradientUnits="userSpaceOnUse" x1="199.53" y1="201.91" x2="39.68" y2="42.05" gradientTransform="translate(41.52 2.03) scale(.24684)"><stop offset="0" id="stop4" stop-color="#130036"/><stop offset=".23" id="stop6" stop-color="#18023b"/><stop offset=".51" id="stop8" stop-color="#26094a"/><stop offset=".82" id="stop10" stop-color="#3d1563"/><stop offset="1" id="stop12" stop-color="#4e1d75"/></linearGradient><linearGradient id="SVGID_2_" gradientUnits="userSpaceOnUse" x1="10.24" y1="95.31" x2="57.7" y2="95.31" gradientTransform="translate(41.52 2.03) scale(.24684)"><stop offset="0" id="stop27" stop-color="#3156a8"/><stop offset=".25" id="stop29" stop-color="#3351a4"/><stop offset=".54" id="stop31" stop-color="#3b4397"/><stop offset=".85" id="stop33" stop-color="#472c82"/><stop offset="1" id="stop35" stop-color="#4e1d75"/></linearGradient><radialGradient id="SVGID_3_" cx="59.07" cy="113.92" r="85.25" gradientTransform="matrix(.24684 0 0 .35792 41.52 -10.62)" gradientUnits="userSpaceOnUse"><stop offset=".17" id="stop40" stop-color="#14cdda"/><stop offset=".55" id="stop42" stop-color="#2061bd"/><stop offset=".65" id="stop44" stop-color="#2658ac"/><stop offset=".86" id="stop46" stop-color="#373f81"/><stop offset="1" id="stop48" stop-color="#432d62"/></radialGradient><linearGradient id="SVGID_4_" gradientUnits="userSpaceOnUse" x1="44.54" y1="57.9" x2="191.51" y2="57.9"><stop offset="0" id="stop53" stop-color="#2061bd"/><stop offset=".18" id="stop55" stop-color="#2b51ac"/><stop offset=".68" id="stop57" stop-color="#442c84"/><stop offset=".94" id="stop59" stop-color="#4e1d75"/></linearGradient><linearGradient id="SVGID_5_" gradientUnits="userSpaceOnUse" x1="66.17" y1="23.21" x2="167.26" y2="111.08" gradientTransform="translate(41.52 2.03) scale(.24684)"><stop offset=".02" id="stop68" stop-color="#48a8e0"/><stop offset=".39" id="stop70" stop-color="#2061bd"/><stop offset=".5" id="stop72" stop-color="#2b51ac"/><stop offset=".79" id="stop74" stop-color="#442c84"/><stop offset=".94" id="stop76" stop-color="#4e1d75"/></linearGradient><linearGradient id="SVGID_6_" gradientUnits="userSpaceOnUse" x1="19.68" y1="337.41" x2="217.84" y2="43.63" gradientTransform="translate(41.52 2.03) scale(.24684)"><stop offset=".38" id="stop81" stop-color="#3156a8"/><stop offset="1" id="stop83" stop-color="#4e1d75"/></linearGradient><linearGradient id="SVGID_7_" gradientUnits="userSpaceOnUse" x1="96.75" y1="278.65" x2="206.32" y2="32.54" gradientTransform="translate(41.52 2.03) scale(.24684)"><stop offset="0" id="stop88" stop-color="#29abe2"/><stop offset=".77" id="stop90" stop-color="#385aa6"/><stop offset=".86" id="stop92" stop-color="#414293"/><stop offset="1" id="stop94" stop-color="#4e1d75"/></linearGradient><linearGradient id="SVGID_8_" gradientUnits="userSpaceOnUse" x1="48.27" y1="92.03" x2="54.24" y2="95.47" gradientTransform="translate(1.52 2.03) scale(.24684)"><stop offset="0" id="stop99" stop-color="#efa"/><stop offset="1" id="stop101" stop-color="#cf0"/></linearGradient><mask maskUnits="userSpaceOnUse" x="162.68" y="18.36" width="14.93" height="6.63" id="SVGID_9_"><g class="st13" id="g118" filter="url(#Adobe_OpacityMaskFilter)"><radialGradient id="SVGID_10_" cx="154.38" cy="68" r="51.97" gradientUnits="userSpaceOnUse"><stop offset=".87" id="stop111" stop-color="#fff"/><stop offset="1" id="stop113"/></radialGradient><path class="st14" id="rect116" fill="url(#SVGID_10_)" d="M91.29-7.22h100.02v93.34H91.29z"/></g></mask><filter id="Adobe_OpacityMaskFilter" filterUnits="userSpaceOnUse" x="162.68" y="18.36" width="14.93" height="6.63"><feColorMatrix values="1 0 0 0 0 0 1 0 0 0 0 0 1 0 0 0 0 0 1 0" id="feColorMatrix106"/></filter><radialGradient id="radialGradient1070" cx="154.38" cy="68" r="51.97" gradientUnits="userSpaceOnUse"><stop offset=".87" id="stop1066" stop-color="#fff"/><stop offset="1" id="stop1068"/></radialGradient><linearGradient id="SVGID_11_" gradientUnits="userSpaceOnUse" x1="176.21" y1="23.09" x2="164.24" y2="20.56"><stop offset="0" id="stop121" stop-color="#3092b9"/><stop offset=".22" id="stop123" stop-color="#258db6"/><stop offset=".66" id="stop125" stop-color="#1685b1"/><stop offset="1" id="stop127" stop-color="#1082af"/></linearGradient><linearGradient id="SVGID_12_" gradientUnits="userSpaceOnUse" x1="80.78" y1="38.03" x2="90.64" y2="77.54" gradientTransform="translate(41.52 2.03) scale(.24684)"><stop offset=".01" id="stop138" stop-color="#1398d1" stop-opacity="0"/><stop offset=".25" id="stop140" stop-color="#1187c2" stop-opacity=".62"/><stop offset=".64" id="stop142" stop-color="#3f6499" stop-opacity=".71"/><stop offset="1" id="stop144" stop-color="#2f4282" stop-opacity=".5"/></linearGradient><linearGradient id="SVGID_13_" gradientUnits="userSpaceOnUse" x1="48.74" y1="14.37" x2="43.2" y2="11.3" gradientTransform="rotate(2 -458.52 225.6) scale(.24685)"><stop offset="0" id="stop153" stop-color="#f9c21b"/><stop offset=".15" id="stop155" stop-color="#f3ba1b"/><stop offset=".38" id="stop157" stop-color="#e3a41b"/><stop offset=".66" id="stop159" stop-color="#c9801c"/><stop offset=".99" id="stop161" stop-color="#a44e1c"/><stop offset="1" id="stop163" stop-color="#a34c1c"/></linearGradient><linearGradient id="SVGID_14_" gradientUnits="userSpaceOnUse" x1="206.21" y1="130.14" x2="169.43" y2="47.53" gradientTransform="translate(41.52 2.03) scale(.24684)"><stop offset="0" id="stop174" stop-color="#409ec3"/><stop offset=".62" id="stop176" stop-color="#2061bd"/></linearGradient><linearGradient id="SVGID_15_" gradientUnits="userSpaceOnUse" x1="176.76" y1="103.06" x2="150.41" y2="21.95" gradientTransform="translate(41.52 2.03) scale(.24684)"><stop offset="0" id="stop181" stop-color="#14b2da"/><stop offset=".4" id="stop183" stop-color="#297ccc"/><stop offset=".51" id="stop185" stop-color="#256fc5"/><stop offset=".65" id="stop187" stop-color="#2164bf"/><stop offset=".82" id="stop189" stop-color="#2061bd"/><stop offset=".98" id="stop191" stop-color="#2061bd"/></linearGradient><filter id="filter1196" filterUnits="userSpaceOnUse" x="162.68" y="18.36" width="14.93" height="6.63"><feColorMatrix values="1 0 0 0 0 0 1 0 0 0 0 0 1 0 0 0 0 0 1 0" id="feColorMatrix1194"/></filter><linearGradient y2="47.53" x2="169.43" y1="130.14" x1="206.21" gradientUnits="userSpaceOnUse" id="linearGradient1260"><stop id="stop1256" offset="0" stop-color="#409ec3"/><stop id="stop1258" offset=".62" stop-color="#2061bd"/></linearGradient><linearGradient y2="21.95" x2="150.41" y1="103.06" x1="176.76" gradientUnits="userSpaceOnUse" id="linearGradient1275"><stop id="stop1263" offset="0" stop-color="#14b2da"/><stop id="stop1265" offset=".4" stop-color="#297ccc"/><stop id="stop1267" offset=".51" stop-color="#256fc5"/><stop id="stop1269" offset=".65" stop-color="#2164bf"/><stop id="stop1271" offset=".82" stop-color="#2061bd"/><stop id="stop1273" offset=".98" stop-color="#2061bd"/></linearGradient><linearGradient id="linearGradient1109" gradientUnits="userSpaceOnUse" x1="199.53" y1="201.91" x2="39.68" y2="42.05"><stop offset="0" id="stop1099" stop-color="#130036"/><stop offset=".23" id="stop1101" stop-color="#18023b"/><stop offset=".51" id="stop1103" stop-color="#26094a"/><stop offset=".82" id="stop1105" stop-color="#3d1563"/><stop offset="1" id="stop1107" stop-color="#4e1d75"/></linearGradient><linearGradient id="linearGradient1127" gradientUnits="userSpaceOnUse" x1="10.24" y1="95.31" x2="57.7" y2="95.31"><stop offset="0" id="stop1117" stop-color="#3156a8"/><stop offset=".25" id="stop1119" stop-color="#3351a4"/><stop offset=".54" id="stop1121" stop-color="#3b4397"/><stop offset=".85" id="stop1123" stop-color="#472c82"/><stop offset="1" id="stop1125" stop-color="#4e1d75"/></linearGradient><radialGradient id="radialGradient1140" cx="59.07" cy="113.92" r="85.25" gradientTransform="matrix(1 0 0 1.45 0 -51.27)" gradientUnits="userSpaceOnUse"><stop offset=".17" id="stop1130" stop-color="#14cdda"/><stop offset=".55" id="stop1132" stop-color="#2061bd"/><stop offset=".65" id="stop1134" stop-color="#2658ac"/><stop offset=".86" id="stop1136" stop-color="#373f81"/><stop offset="1" id="stop1138" stop-color="#432d62"/></radialGradient><linearGradient id="linearGradient1166" gradientUnits="userSpaceOnUse" x1="66.17" y1="23.21" x2="167.26" y2="111.08"><stop offset=".02" id="stop1156" stop-color="#48a8e0"/><stop offset=".39" id="stop1158" stop-color="#2061bd"/><stop offset=".5" id="stop1160" stop-color="#2b51ac"/><stop offset=".79" id="stop1162" stop-color="#442c84"/><stop offset=".94" id="stop1164" stop-color="#4e1d75"/></linearGradient><linearGradient id="linearGradient1173" gradientUnits="userSpaceOnUse" x1="19.68" y1="337.41" x2="217.84" y2="43.63"><stop offset=".38" id="stop1169" stop-color="#3156a8"/><stop offset="1" id="stop1171" stop-color="#4e1d75"/></linearGradient><linearGradient id="linearGradient1184" gradientUnits="userSpaceOnUse" x1="96.75" y1="278.65" x2="206.32" y2="32.54"><stop offset="0" id="stop1176" stop-color="#29abe2"/><stop offset=".77" id="stop1178" stop-color="#385aa6"/><stop offset=".86" id="stop1180" stop-color="#414293"/><stop offset="1" id="stop1182" stop-color="#4e1d75"/></linearGradient><linearGradient id="linearGradient1191" gradientUnits="userSpaceOnUse" x1="48.27" y1="92.03" x2="54.24" y2="95.47"><stop offset="0" id="stop1187" stop-color="#b0dcd6"/><stop offset="1" id="stop1189" stop-color="#53ace0"/></linearGradient><defs id="defs109"><filter id="filter1603" filterUnits="userSpaceOnUse" x="162.68" y="18.36" width="14.93" height="6.63"><feColorMatrix values="1 0 0 0 0 0 1 0 0 0 0 0 1 0 0 0 0 0 1 0" id="feColorMatrix1601"/></filter></defs><mask maskUnits="userSpaceOnUse" x="162.68" y="18.36" width="14.93" height="6.63" id="mask1209"><g class="st13" id="g1207" filter="url(#Adobe_OpacityMaskFilter)"><radialGradient id="radialGradient1203" cx="154.38" cy="68" r="51.97" gradientUnits="userSpaceOnUse"><stop offset=".87" id="stop1199" stop-color="#fff"/><stop offset="1" id="stop1201"/></radialGradient><path class="st14" id="rect1205" fill="url(#SVGID_10_)" d="M91.29-7.22h100.02v93.34H91.29z"/></g></mask><linearGradient id="linearGradient1233" gradientUnits="userSpaceOnUse" x1="80.78" y1="38.03" x2="90.64" y2="77.54"><stop offset=".01" id="stop1225" stop-color="#1398d1" stop-opacity="0"/><stop offset=".25" id="stop1227" stop-color="#1187c2" stop-opacity=".62"/><stop offset=".64" id="stop1229" stop-color="#3f6499" stop-opacity=".71"/><stop offset="1" id="stop1231" stop-color="#2f4282" stop-opacity=".5"/></linearGradient><linearGradient id="linearGradient1250" gradientUnits="userSpaceOnUse" x1="48.74" y1="14.37" x2="43.2" y2="11.3" gradientTransform="rotate(1.98 -1624.09 732.52)"><stop offset="0" id="stop1238" stop-color="#f9c21b"/><stop offset=".15" id="stop1240" stop-color="#f3ba1b"/><stop offset=".38" id="stop1242" stop-color="#e3a41b"/><stop offset=".66" id="stop1244" stop-color="#c9801c"/><stop offset=".99" id="stop1246" stop-color="#a44e1c"/><stop offset="1" id="stop1248" stop-color="#a34c1c"/></linearGradient><linearGradient xlink:href="#linearGradient1851" id="linearGradient1853" x1="70.81" y1="64" x2="75.82" y2="6.93" gradientUnits="userSpaceOnUse" gradientTransform="translate(-40)"/><linearGradient xlink:href="#linearGradient1861" id="linearGradient1863" x1="94.41" y1="27.13" x2="87.28" y2="54.36" gradientUnits="userSpaceOnUse" gradientTransform="translate(-40)"/><linearGradient xlink:href="#linearGradient1869" id="linearGradient1871" x1="88.06" y1="21.61" x2="94.54" y2="38.33" gradientUnits="userSpaceOnUse" gradientTransform="translate(-40)"/><linearGradient xlink:href="#linearGradient1877" id="linearGradient1879" x1="77.13" y1="7.14" x2="93.21" y2="25.06" gradientUnits="userSpaceOnUse" gradientTransform="translate(-40)"/><linearGradient xlink:href="#linearGradient1893" id="linearGradient1895" x1="52.37" y1="4.25" x2="81.84" y2="25.38" gradientUnits="userSpaceOnUse" gradientTransform="translate(-40)"/><radialGradient xlink:href="#linearGradient1901" id="radialGradient1903" cx="56.1" cy="30.15" fx="56.1" fy="30.15" r="14.58" gradientTransform="matrix(1 0 0 1.77903 -40 -23.49)" gradientUnits="userSpaceOnUse"/></defs><style id="style2">.st13{filter:url(#Adobe_OpacityMaskFilter)}.st14{fill:url(#SVGID_10_)}</style><path d="M48.15 10.8c-3.58-2.34-8.16-3.1-10.69-3.37-2.7-.28-5.05-.23-7.12.07h-.92c.05-.07.1-.1.1-.1s-.12.01-.33.1c-.67.02-1.34.04-2 .09.92-1 1.67-1.54 1.67-1.54s-.9.14-2.52 1.6c-.77.08-1.53.17-2.28.3 1.7-2.32 3.5-3.3 3.5-3.3S25.38 4.23 22 7.63c-.29.29-.55.58-.8.88-9.89 2.4-16.96 8.78-16.96 16.28 0 1.47-.45 3.08.04 4.7-.2 2.58.22 9.62.22 9.62s2.67 14.48 12.96 17c.16.03-2.15-3.61-3.17-8.01 1.99 2.02 4.36 3.62 7.03 3.9.32.04-1.52-2.13-3.14-4.75l23.37 7.88c12.23-5.25 10.8-4.78 13.43-7.62 5.78-6.26 6.6-9.81 5.13-20.3-.98-7.08-6.2-14.1-11.96-16.4z" id="path15" stroke-width=".25"/><path id="polygon17" transform="translate(1.52 2.03) scale(.24684)" fill="gray" d="M16.39 166.97l156.52 52.04L201.94 95.6 22.69 62.28l-14.14 80.4z"/><path d="M7.6 17.61s.18.97 1.05 2.05c.86 1.08 12.47 18.65 13.05 18.5 7.6-2.02 35.18-12.76 35.18-12.76z" id="path23" fill="#e6e6e6" stroke-width=".25"/><path d="M15.76 16.8S2.4 20.7 8.53 34.32c0 0-2.8-2.58-4.48-5.87-.08-.15 2.79-10.32 2.79-10.32z" id="path38" stroke-width=".25"/><path d="M8.53 34.33c-1.16-.02-3.02-.98-3.63-2.14-.76 12.61 4.39 19.98 12.56 23.9-2.67-.3-15.94-7.3-15.94-24.16 0-14.32 11.37-27.13 29.16-27.72.11.8-8.82 2.82-9.1 3.77a17.97 17.97 0 0 1-2.33 4.36c-1.16 1.74 1.62 3.24-.42 3.7-3.08.71-7.19.32-10.21 4.26-4.55 5.91-1.52 12.68-.09 14.03z" id="path51" fill="url(#radialGradient1903)" stroke-width=".25"/><path d="M35.92 4.16a28.24 28.24 0 0 0-8.99.12 6.1 6.1 0 0 1 1.7-1.13c-1.18.1-2.66.88-3.93 1.7-.64.2-1.24.43-1.82.69.35-.47.76-.97 1.16-1.35 1.5-1.42 3.7-2.15 3.7-2.15-1.88-.14-8.2 1.48-12 9.19-.63.76-1.21 1.54-1.77 2.32-1.43 2.01-1.27 3.86-.78 6.1.21.95.25 2.47.04 3.46-.04.2-.58.7-.72 2.08a3.24 3.24 0 0 0 .89 2.77c1.82-2.67 3.61-3.2 3.61-3.2 2.55-1.04 3.62-2.16 6.35-3.55 3.72-1.9 16.77 4.3 25.05 1.6 2.55-.84-.98-11.7.41-12.03-3.87-4.29-9.5-6.18-12.9-6.62z" id="path79" fill="url(#linearGradient1895)" stroke-width=".25"/><path d="M61.8 27.53C59.74 16.86 49.91 7.15 42.01 6.6c-3.51-.24-2.43 1.56-4.63 2.24-9.46 2.95-9.6 4.68-9.6 4.68 20.05.94 20.36 20.75 14.99 25.76 1.5-.35 3.15-2.2 4.65-5.1-.18 1.22-.33 2.7-.56 4.37-.69 5.09.2 15.7-14.4 22.81 0 0 7.99-.65 11.95-5.11-1.61 3.7-6.03 5.7-6.03 5.7 3.25-.47 11.8-3 17.24-9.8 6.16-7.7 8.02-14.94 6.16-24.63z" id="path86" fill="url(#linearGradient1853)" stroke-width=".25"/><path d="M42.25 47.01s6.51-1.82 8.61-5.34c-.25 4.1-3.97 8.31-3.97 8.31s5.44-1.1 7.76-4.93c-.3 3.46-4.5 8.13-4.5 8.13 4.29-.77 15.05-7.57 11.64-25.65-2-10.68-11.87-20.38-19.77-20.92-3.51-.24-2.43 1.56-4.63 2.24-9.46 2.95-9.6 4.68-9.6 4.68 20.05.94 25.38 11.44 14.99 25.48 1.5-.35 2.11-1.18 3.25-2.54 0 0 .51 5.37-3.78 10.54z" id="path97" fill="url(#linearGradient1863)" stroke-width=".25"/><path d="M16.48 23.15s-1.16.82-2 .61c-1-.24-1.17-1.21-1.17-1.21-.03.2-.05.39-.09.56-.04.2-.58.7-.72 2.08-.15 1.46.4 2.3.91 2.9 1.82-2.67 3.6-3.33 3.6-3.33-.7-.24-.53-1.6-.53-1.6z" id="path104" fill="url(#SVGID_8_)" stroke-width=".25"/><path d="M16.59 23s6.39-10.54 12.17-13.38c.53-.27-8 2.27-11.44 6.06-2.04 2.26-.96 6.67-.73 7.31z" id="path147" fill="#1a1a1a" stroke-width=".25"/><path d="M16.59 23l.02-.02c1.65-1.02 4.48-1.6 5.4-3.46 3.51-7.12 6.75-9.9 6.75-9.9C22.98 12.46 16.59 23 16.59 23z" id="path149" opacity=".1" fill="#f2f2f2" stroke-width=".25"/><path d="M17.2 21.07s-1.15-1.77.5-3.38c.88-.85 2.2-.38 2.36-.22.65.64.24 2-.35 2.78a2.52 2.52 0 0 1-2.51.82z" id="path151" fill="gray" stroke-width=".25"/><path d="M17.86 20.96s-.8-1.22.35-2.34c.6-.58 1.52-.26 1.63-.15.45.45.16 1.39-.24 1.92-.23.3-.9.77-1.74.57z" id="path166" fill="url(#SVGID_13_)" stroke-width=".25"/><path d="M19.45 19.66a.89.89 0 0 1-.93.85.89.89 0 0 1-.86-.92.89.89 0 0 1 .93-.85.9.9 0 0 1 .86.92z" id="path168" stroke-width=".25"/><circle id="circle172" r=".28" cy="19.38" cx="17.99" fill="#fff" stroke-width=".25"/><path id="path179" d="M57.92 18.08c-4.37-6.66-7.84-8.35-7.84-8.35s.16 4.85 2.6 7.19c.27.27-2.91-2.08-2.91-2.08s-.68 2.24.88 4.81c-.46-.6-.76-.83-.76-.83s-2.94 1.36-3.8 3.24c-.45-.85-.79-1.34-.79-1.34s-2.03 4.05-1.78 8.76c.42 7.65-1.43 10.46-1.43 10.46s4.95-1.9 7.33-8.01c.98 2.6-.03 5.34-.03 5.34s4-3 4.86-8.44c.95 1.54.67 4.6.67 4.6s2.55-3.55 2.62-7.42c1.18.82 1.29 4.05 1.29 4.05s3.78-4.84-.9-11.98z" fill="url(#linearGradient1871)" stroke-width=".25"/><path id="path194" d="M53.67 13.43c-1.14-2.13-3.16-3.5-4.93-4.6-4.42-2.73-7.26-3.12-7.26-3.12s-4.08.76-3.38 1.9c.03.06.12.13.24.21-3.58-1.65-5.61 2.15-5.61 2.15-2.05-.13-4.54.88-5.26 3.57-.08.28.91.13 1.42.24 2.98.65 5.8 2.05 7.08 2.75 3 1.61 4.78 4.3 5.8 6.32 1.25 2.44 1.76 6.74 1.76 6.74s3.27-4.5 2.49-6.8c1.3.8 1.55 3.68 1.55 3.68s2.18-3.42 1.54-6.4c1.68 1.03 1.73 3.12 1.73 3.12s1.72-2.38.94-6.28c1.7 1.35 2.05 3.09 2.05 3.09s1.38-3.7-.16-6.57z" fill="url(#linearGradient1879)" stroke-width=".25"/></svg>