<svg xmlns="http://www.w3.org/2000/svg" xmlns:xlink="http://www.w3.org/1999/xlink" width="64" height="64"><defs><linearGradient id="c"><stop offset="0"/><stop offset="1" stop-color="#333"/></linearGradient><linearGradient id="a"><stop offset="0"/><stop offset="1" stop-color="#4d4d4d"/></linearGradient><linearGradient gradientTransform="matrix(.9254 0 0 .9254 -10.65 -.03)" id="b" y1="45.54" y2="11.69" x2="17.85" gradientUnits="userSpaceOnUse" x1="36.31"><stop stop-color="#bfc9c9"/><stop offset="1" stop-color="#fbfbfb"/></linearGradient><linearGradient xlink:href="#b" id="e" gradientUnits="userSpaceOnUse" gradientTransform="matrix(.9254 0 0 .9254 -6.65 -.03)" x1="36.31" y1="45.54" x2="17.85" y2="11.69"/><linearGradient xlink:href="#b" id="f" gradientUnits="userSpaceOnUse" gradientTransform="matrix(.9254 0 0 .9254 -6.65 -.03)" x1="36.31" y1="45.54" x2="17.85" y2="11.69"/><linearGradient xlink:href="#c" id="d" x1="2.62" y1="8.62" x2="2.62" y2="55.39" gradientUnits="userSpaceOnUse"/></defs><rect x="2.62" y="8.62" width="58.75" height="46.77" rx="0" ry="0" color="#000" fill="url(#d)" stroke="#1a1a1a" stroke-width=".5" stroke-linecap="round" stroke-linejoin="round"/><path d="M8.25 12.93l-1.31 1.3 7.94 7.95-7.93 7.94 1.3 1.3 9.24-9.24-1.3-1.31zM37.28 12.95l-1.3 1.3 7.94 7.95-7.94 7.94 1.3 1.3 9.25-9.24-1.31-1.3z" fill="url(#b)"/><path d="M14.73 31.15V33h10.62v-1.85z" fill="url(#e)"/><path d="M43.77 31.17v1.85h10.61v-1.85z" fill="url(#f)"/></svg>