<svg xmlns="http://www.w3.org/2000/svg" xmlns:xlink="http://www.w3.org/1999/xlink" width="64" height="64" version="1"><defs><linearGradient id="a"><stop offset="0" stop-color="#4d4d4d"/><stop offset="1"/></linearGradient><radialGradient xlink:href="#a" id="d" cx="16" cy="19.25" fx="16" fy="19.25" r="28" gradientUnits="userSpaceOnUse" gradientTransform="matrix(.88378 .33898 -.35812 .93367 8.75 -4.15)"/><linearGradient id="b"><stop offset="0" stop-color="#00f"/><stop offset="1" stop-color="teal"/></linearGradient><linearGradient id="c"><stop offset="0" stop-color="#a00"/><stop offset="1" stop-color="#ff2a2a"/></linearGradient><clipPath id="g"><path d="M76 160h55v70H76z"/></clipPath><clipPath id="h"><path d="M370.45 191.27c0 98.2-79.62 177.73-177.73 177.73-98.1 0-177.73-79.53-177.73-177.73 0-98.2 79.62-177.73 177.73-177.73 98.1 0 177.73 79.53 177.73 177.73z"/></clipPath><clipPath id="e"><path d="M76 75h233v233H76z"/></clipPath><clipPath id="f"><path d="M370.45 191.27c0 98.2-79.62 177.73-177.73 177.73-98.1 0-177.73-79.53-177.73-177.73 0-98.2 79.62-177.73 177.73-177.73 98.1 0 177.73 79.53 177.73 177.73z"/></clipPath></defs><path d="M32 4C16.49 4 4 16.49 4 32s12.49 28 28 28 28-12.49 28-28S47.51 4 32 4z" fill="url(#d)"/><g clip-path="url(#e)" transform="matrix(.18752 0 0 .18752 -4.14 -3.86)" fill="#fff"><g clip-path="url(#f)"><path d="M192.63 75.36c-63.84 0-115.82 51.77-115.82 115.8 0 64.04 51.98 115.98 115.82 115.98 63.84 0 115.99-51.95 115.99-115.99 0-64.05-52.16-115.79-115.99-115.79m0 15.46c55.72 0 100.61 44.89 100.61 100.33 0 55.45-44.92 100.61-100.61 100.61-55.72 0-100.42-45.12-100.42-100.61A100.17 100.17 0 0 1 192.63 90.82" fill-opacity=".5"/><path d="M192.63 75.36c-63.84 0-115.82 51.77-115.82 115.8h15.4A100.17 100.17 0 0 1 192.63 90.81c55.72 0 100.6 44.89 100.6 100.33v1.06a100.54 100.54 0 0 1-100.6 99.52v15.43c63.84 0 115.98-51.96 115.98-116 0-64.04-52.16-115.72-115.98-115.72"/></g></g><g clip-path="url(#g)" transform="matrix(.18752 0 0 .18752 -4.14 -3.86)" fill="#fff"><g clip-path="url(#h)"><path d="M81.17 160.36a116.06 116.06 0 0 0-4.35 30.91c0 13.34 2.36 26.23 6.52 38.16l1.2.48 46.37-69.54m-49.75 0"/></g></g></svg>