<svg xmlns="http://www.w3.org/2000/svg" xmlns:xlink="http://www.w3.org/1999/xlink" width="64" height="64"><defs><linearGradient id="b"><stop offset="0" stop-color="#afe9af"/><stop offset="1" stop-color="#00d400"/></linearGradient><radialGradient xlink:href="#a" id="f" cx="41.75" cy="42.1" fx="41.75" fy="42.1" r="8.61" gradientTransform="matrix(5.49125 -2.44895 1.75364 3.93218 -250.1 -3.53)" gradientUnits="userSpaceOnUse"/><linearGradient id="a"><stop offset="0"/><stop offset="1" stop-color="#999"/></linearGradient><radialGradient id="e" cx="62.22" cy="-3.44" r="10.08" gradientTransform="matrix(1.48094 0 0 1.3776 -7.56 -5.83)" gradientUnits="userSpaceOnUse"><stop offset="0" stop-color="#9e9e9e"/><stop offset="1" stop-color="#9e9e9e" stop-opacity="0"/></radialGradient><radialGradient id="c" cx="62.2" cy="-8.73" r="9.76" gradientTransform="matrix(3.23821 0 0 3.23835 -171.72 42.54)" gradientUnits="userSpaceOnUse"><stop offset="0" stop-color="#666"/><stop offset="1"/></radialGradient><radialGradient xlink:href="#b" id="d" cx="20.45" cy="14.99" fx="20.45" fy="14.99" r="26.1" gradientTransform="matrix(1.19449 .59226 -.42018 .84743 2.32 -9.13)" gradientUnits="userSpaceOnUse"/></defs><path d="M56.4 29.33a26.7 26.7 0 1 1-53.4 0 26.7 26.7 0 0 1 53.4 0z" fill="url(#c)"/><path d="M29.86 3.73c-2.05.17-4.07.5-6.03 1.14-1.65.66 1.2-.58-.5-.81-1.02-.18-1.45.87-2.36.9-1.04.03-1.75.96-2.72 1.07-.36 1.94-.8-.76-1.13.18.26.96-.1 1.6-.85 2.16-.81.92-.05 1.74.72.93.38-1.12 1.6-2.36 2.78-1.62 1.18.65 2.36 2.22 3.34.55-1.01-.12-1.4-.98-1.89-1.62-.53.04-2.79-.43-1.35-.32.71-.23 2.08-.92 2.58-.9-1.26.66.47 1.1.99 1.62.92.27 1.34 1.44.5 2.05-1.08.56.07 1.48.3 2.25.17 1.34 1.33.58 1.7-.24.54-1.5 2.25-1.45 3.49-2.09 1.35-.7 1.37-.72 2.01.27.5.29 2.14-.75 1.06-1.24-.92.05-1.53.61-.75-.82.18-.77.9-1.78.78-2.4l-2.67-1.06zM17.28 8.7c.48.5 2.1 1.38 1.93.15-.2-.82-1.4-.83-1.93-.15zm24.38-.6c-1.1.23-2.2.48-3.08 1.25.27 1.05-1.12 1.2-1.72 1.78-.16.34-.03 2.47.69 1.55.78-1.04 1.11.55 1.94.7.6-.18.67-1.53.44-2.14.39-.64 1.01-1.5 1.82-1.44-.5.77-1.07 2.73.53 1.93.46 0-1.26 1.01-1.37 1.7-.65.7-1.33 1.22-2.27.7-.44-.39-.67-1.48-.95-.25.58.99-1.47.07-1.42 1.4-.42.82-1.2 1.16-2.1 1.22.33.25 1.6 1.78.34 1.57-.8.09-2 .54-1.66 1.56-.37 1.27.57.95 1.14 1.74.94-.26 1.55-.84 1.7-1.82.88-.26.99-1.25 1.95-1.23.97-.55 1.2.98 2.1 1.1.09.55-.45 1.72.6.63 1.03-.75-1.06-1.7-.4-1.89.92.3 1.25 1.18 1.4 2.04.76 1.3.94.6 1-.54 1.18-.53 1.54 2.2 3.2 1.53 1.25.25.81 1.11-.02 1.63-.67.64-1.8.24-2.58-.02-.76-.37-1.77-.33-2.18.52-.62-.3-1.27-1.23-1.9-1.76-1.56-.7-3.26-.1-4.82.32-1.34 1.56-2.95 2.98-3.52 5.01-.84.86.73 1.36-.33 2.1-.86.68.15 1.55.33 2.34.81 1 2.19 4.13 3.45 2.88.7-1.08 1.1.83 1.93-.4.67-.54 1.3.61 2.27.19.93.57.75 1.4.37 2.27.2.73 1.25 1.25.84 2.24-.36.92.79 1.61.56 2.41a5.86 5.86 0 0 0 .12 4.99c.57 1.39.91 2.88.87 4.39 1 .3 1.52-.98 2.52-.7.97.13 1.33-1.1 2-1.62.77-.63-.09-1.6 1.12-2.04 1.17-.57-1.48-1.37.02-1.88.63-.7 1.9-.94 2.15-1.85-.45-1.4-.3-2.92-.23-4.35a7.15 7.15 0 0 1 1.92-2.99c.38-1.24 1.27-2.38 1.2-3.72-2.22.68-1.55-.29-.32-1.17.86-.57 1.89-1.13 2.29-2.1.19-1.08-.61-2.85-1.36-1.21-.33-.63-1.55-.96-1.49-1.79-.24-1.69.46-.19 1.15.15 1.5-.81 2.26 2.38 3.21.48-.83-6-4.1-11.45-8.5-15.53-.77-1.47-1.24 1-2.02.91-.62-.65-1.79-1.53-.16-1.22 1.38-.4.44-.95-.58-.92a9.05 9.05 0 0 1-2.19-.64zm-27.6.6c-.36 1.82-2.69 1.6-3.5 3.4-4 4.23-5.86 9.92-6.53 15.69.36 1.35.88 1.87 2.02 2.47.97.57 2.39.32 2.93 1.5.6.5 1.26 1.47 2.13 1.17 1.26-.12.48 1.16.27 1.8-.08.82-1.09 1.34-.7 2.12-.33.89-.58 1.77.14 2.54.6 1.12 1.1 2.34 2.24 3.05.8.67 1.7 1.55 1.38 2.68-.16.91.06 1.76.5 2.56-.16.9-.48 1.82-.55 2.7 1.18.84 3.58 2.77 3.76.67.68-.6.72-1.58 1.85-1.58.52-.64.7-1.65 1.1-2.43-.58-.72.22-1.84 1.07-1.81 1.1.08 1.06-1.2 1.5-1.91-.02-1.04-.53-2.21.4-2.99.7-.63.63-1.57.74-2.43-1.57-.97-3.64-1.46-4.88-2.77-.25-1.03-1.02-1.38-2-1.45-.42-.58-.35-1.96-1.07-2.03-.94.18-1.86.32-2.54-.5-.77-1.03-1.44.28-2.14.74-.66 1.15-2.5-.06-2.29-1.35.65-1.79-2.2.2-1.03-1.91.56-2.3-.95-.53-1.74-.02-.96.01-1.33-.95-1.16-1.82-.12-1.06.65-1.6 1.44-2.13 1.04.16 1.31-.75 2.1-.63.98-.05 1.35.9 1.9 1.52.24-.9-.24-2.17.75-2.67.76-.57 1.53-1.14 1.71-2.13.18-1.04 1.73-.63 2-1.68.35-1.1 2.02-.21 2.4-1.3 1.17-1.1-.37-.77-1.21-.8-1.66.17.16-.44.78-.78a5.3 5.3 0 0 0 2.62-.5c.11 1.14.33 1.75.92.4-1.15-.27-.16-1.4-1.29-1.69-.9.07 0-1.9-1.1-1.69-1.43.95-.15-.67-1.32-.89-.92-1-1.14.64-1.64 1.24.32 1.13-1.07.89-1.32 1.82-.56 1.68-.32-.12-1-.55-.82-.33-1.82-.5-1.82-1.6 1.1-.8 2.77-1.29 3.49-2.57.41-.99-.36-1.53-1.3-1.46zm19.7 2.2c-.16.89.74 1.36.42 2.3-.3 1.03-.38 1.85.91 1.25 1.34-.69.49-1.2-.05-2.11-.36-.6-.33-1.71-1.28-1.43zm-1 1.48c-1.07-.33-.84 1.94-.17 1.35.98-.24.32-.7.16-1.35zM46.2 24.44c1.28 1.13 1.72 2.81 2.54 4.24 1.2.54.05 1.45.6 2.1 1.13 1.25-1.58.34-1.22-.9-.27-1.63-1.42-2.75-1.97-4.17-.06-.47-.52-.96.05-1.27z" fill="url(#d)" stroke="url(#e)" stroke-width="1.1"/><path d="M37.89 25.91L61 47.74l-10.4.48 4.5 9c1.39 4-4.63 5.6-5.68 2.6l-4.15-9.01L38 58.79z" fill="url(#f)" fill-rule="evenodd"/></svg>