<?xml version="1.0" encoding="UTF-8" standalone="no"?><svg xmlns:dc="http://purl.org/dc/elements/1.1/" xmlns:cc="http://creativecommons.org/ns#" xmlns:rdf="http://www.w3.org/1999/02/22-rdf-syntax-ns#" xmlns="http://www.w3.org/2000/svg" xmlns:xlink="http://www.w3.org/1999/xlink" width="64" height="64" viewBox="0 0 16.93 16.93"><metadata><rdf:RDF><cc:Work><dc:format>image/svg+xml</dc:format><dc:type rdf:resource="http://purl.org/dc/dcmitype/StillImage"/><dc:title/></cc:Work></rdf:RDF></metadata><defs><linearGradient id="c"><stop offset="0"/><stop offset="1" stop-color="#333"/></linearGradient><linearGradient id="b"><stop offset="0"/><stop offset="1" stop-color="#333"/></linearGradient><linearGradient id="a"><stop offset="0"/><stop offset="1" stop-color="#333"/></linearGradient><linearGradient xlink:href="#a" id="f" x1="2.47" y1="7.42" x2="2.47" y2="15.57" gradientUnits="userSpaceOnUse" gradientTransform="matrix(1.11106 0 0 1.11106 -.94 -.92)"/><linearGradient xlink:href="#b" id="e" x1="21.72" y1="14.35" x2="23" y2="18.8" gradientUnits="userSpaceOnUse" gradientTransform="matrix(.29397 0 0 .29397 -.94 -.94)"/><linearGradient xlink:href="#c" id="d" x1="23.49" y1="22.18" x2="23.46" y2="30.83" gradientUnits="userSpaceOnUse" gradientTransform="matrix(.29397 0 0 .2994 -.94 -1.06)"/></defs><path fill="#afe" d="M1.81 5.59h13.76v1.73H1.81z"/><path d="M15.56 5.57l-1 .01-1.15 1.76h2.15zm-9.6.01L4.82 7.34h2.3l1.15-1.76zm4.3 0L9.12 7.34h2.3l1.15-1.76z" fill="url(#d)"/><path fill="#afe" d="M1.36 4L14.66.5l.45 1.64-13.3 3.5z"/><path d="M14.67.5l-2.08.55 1.55 1.35.98-.26zm-4.03 1.06l-2.21.59 1.55 1.34 2.23-.58zm-4.16 1.1l-2.21.58L5.82 4.6 8.05 4zm-4.57 1.2l-.55.15.45 1.64 1.66-.44z" fill="url(#e)"/><path d="M2.47 4.57L4.4 6.05 2.47 7.52h-.66V4.55l.66.01z" fill-rule="evenodd"/><path fill="url(#f)" d="M1.81 7.3h13.76v9.08H1.81z"/><path fill="#afe" d="M6.41 14.91V8.88l5.33 3.02z"/></svg>