<svg xmlns="http://www.w3.org/2000/svg" xmlns:xlink="http://www.w3.org/1999/xlink" width="64" height="64"><defs><linearGradient id="j"><stop offset="0" stop-color="#1a1a1a"/><stop offset=".26" stop-color="#4d4d4d"/><stop offset="1"/></linearGradient><linearGradient id="a"><stop offset="0" stop-color="#fff"/><stop offset="1" stop-color="#fff" stop-opacity="0"/></linearGradient><linearGradient id="b"><stop offset="0" stop-color="#1a1a1a"/><stop offset="1" stop-color="#e6e6e6" stop-opacity="0"/></linearGradient><linearGradient id="c"><stop offset="0"/><stop offset=".78" stop-color="#23282a"/><stop offset="1" stop-color="#333"/></linearGradient><linearGradient id="d" x1="22" x2="22" y1="40.5" y2="30.5" gradientUnits="userSpaceOnUse"><stop stop-color="#280b0b" offset="0"/><stop stop-color="#782121" offset=".5"/><stop stop-color="#e08b6c" offset=".75"/><stop stop-color="#d14d3a" offset="1"/></linearGradient><linearGradient id="e" x1="11" x2="11" y1="38.08" y2="30" gradientTransform="translate(-1 1.5)" gradientUnits="userSpaceOnUse"><stop stop-color="#1a1a1a" offset="0"/><stop stop-color="#6c7888" offset=".48"/><stop stop-color="#fff" offset=".82"/><stop stop-color="#d1d6e0" offset="1"/></linearGradient><linearGradient id="f" x1="8.98" x2="7.31" y1="36.74" y2="30.03" gradientUnits="userSpaceOnUse"><stop stop-color="#1a1a1a" offset="0"/><stop stop-color="#838e9d" offset=".48"/><stop stop-color="#fff" offset=".82"/><stop stop-color="#c4cbd7" offset="1"/></linearGradient><linearGradient id="g"><stop offset="0"/><stop offset=".21" stop-color="#4d4d4d"/><stop offset=".41"/><stop offset="1" stop-color="#4d4d4d"/></linearGradient><linearGradient id="h"><stop offset="0" stop-color="#030000"/><stop offset="1" stop-color="#2e3436" stop-opacity="0"/></linearGradient><linearGradient id="i"><stop offset="0" stop-color="#737373"/><stop offset=".11" stop-color="#bebebe"/><stop offset=".23" stop-color="#323232"/><stop offset=".38" stop-color="#bebebe"/><stop offset=".5" stop-color="#323232"/><stop offset=".62" stop-color="#bebebe"/><stop offset=".74" stop-color="#2d2d2d"/><stop offset=".86" stop-color="#c8c8c8"/><stop offset="1" stop-color="#323232"/></linearGradient><linearGradient xlink:href="#i" id="x" x1="23.79" y1="21.35" x2="23.82" y2="26.52" gradientUnits="userSpaceOnUse" gradientTransform="matrix(2.11298 0 0 2.11298 -18.56 -21.81)"/><linearGradient gradientTransform="matrix(1.03428 0 0 1.03428 -1.25 1.38)" xlink:href="#k" id="w" x1="27.27" y1="-15.04" x2="27.27" y2="20.58" gradientUnits="userSpaceOnUse"/><linearGradient id="k"><stop offset="0"/><stop offset=".12" stop-color="#4d4d4d"/><stop offset=".24"/><stop offset=".63" stop-color="#4d4d4d"/><stop offset="1"/></linearGradient><linearGradient gradientTransform="matrix(-1.03428 0 0 1.03428 65.37 1.38)" xlink:href="#l" id="v" x1="47.62" y1="-9.26" x2="47.62" y2="-14.25" gradientUnits="userSpaceOnUse"/><linearGradient id="l"><stop offset="0" stop-color="#500"/><stop offset=".21" stop-color="#8f2c2c"/><stop offset=".59" stop-color="#ff8080"/><stop offset="1" stop-color="red"/></linearGradient><linearGradient gradientTransform="matrix(1.03428 0 0 1.03428 -1.25 1.38)" xlink:href="#l" id="u" x1="47.62" y1="-9.26" x2="47.62" y2="-14.25" gradientUnits="userSpaceOnUse"/><linearGradient gradientTransform="matrix(1.39015 0 0 1.39015 -1.5 -18.53)" xlink:href="#m" id="t" x1="18.31" y1="20.74" x2="18.31" y2="21.81" gradientUnits="userSpaceOnUse"/><linearGradient id="m"><stop offset="0"/><stop offset="1" stop-opacity="0"/></linearGradient><linearGradient gradientTransform="matrix(1.36345 0 0 1.36345 -.85 -17.36)" xlink:href="#n" id="s" x1="13.63" y1="33.13" x2="14.13" y2="24" gradientUnits="userSpaceOnUse"/><linearGradient id="n"><stop offset="0" stop-color="#999"/><stop offset="1" stop-color="#4d4d4d"/></linearGradient><linearGradient gradientTransform="matrix(1.36345 0 0 1.36345 -.85 -17.36)" xlink:href="#o" id="r" x1="10.19" y1="20.25" x2="10.19" y2="42.5" gradientUnits="userSpaceOnUse"/><linearGradient id="o"><stop offset="0"/><stop offset=".87" stop-color="#4d4d4d"/><stop offset="1"/></linearGradient><linearGradient gradientTransform="matrix(1.03428 0 0 1.03428 -1.25 1.38)" xlink:href="#j" id="q" x1="14.8" y1="-14.21" x2="14.8" y2="-7.2" gradientUnits="userSpaceOnUse"/><linearGradient gradientTransform="matrix(-1.03428 0 0 1.03428 65.37 1.38)" xlink:href="#j" id="p" x1="14.8" y1="-14.21" x2="14.8" y2="-7.2" gradientUnits="userSpaceOnUse"/></defs><g transform="translate(0 16)"><path d="M50.07-13.31l-2.18.73v5.8l2.18.72.72-1.45v-4.35z" color="#000" fill="url(#p)"/><path d="M50.07-13.31v7.25l.72-1.45v-4.35z" color="#000" fill="#1a1a1a"/><path d="M14.06-13.31l2.17.73v5.8l-2.17.72-.73-1.45v-4.35z" color="#000" fill="url(#q)"/><path d="M14.06-13.31v7.25l-.73-1.45v-4.35z" color="#000" fill="#1a1a1a"/><path d="M12.78 5.27a3.42 3.42 0 0 0-3.36 3.02c-1.21 9.94-3 19.9-3.92 29.83v4.17c.04 2.16 1.46 3.6 3.02 3.88h47.21c1.34-.03 2.82-.96 2.77-2.72v-5.37L54.24 9.15c-.35-1.78-1.86-3.66-3.96-3.88z" fill="url(#r)" fill-rule="evenodd"/><path d="M13.6 36.67c-1.54-.17-2.63-1.18-2.59-3.03l2.6-21.8c.4-1.46 1.34-2.63 2.83-2.62h29.9c1.47-.05 2.95.98 3.34 2.2l3.3 22c.07 2-.75 3.16-2.14 3.11z" fill="url(#s)" fill-rule="evenodd"/><path d="M12.7 23.11l2.56-11.06 33.4.08 2.48 12.5L49.5 12c-.3-1.4-1.04-2.74-2.4-2.7l-30.47-.06c-1.99-.06-2.38 1.23-2.83 2.76z" opacity=".21" fill="url(#t)" fill-rule="evenodd"/><path d="M26.93 9.5l-2.95 17.33h-4.3l11.57 7.44 12.93-7.44h-4.3L37.2 9.5z" fill-rule="evenodd"/><path d="M48.01-12.58s-8.7-.73-15.95-.73v7.25c7.25 0 15.95-.72 15.95-.72z" color="#000" fill="url(#u)"/><path d="M16.11-12.58s8.7-.73 15.95-.73v7.25c-7.25 0-15.95-.72-15.95-.72z" color="#000" fill="url(#v)"/><rect ry="1.15" rx="1.15" y="-14.17" x="26.96" height="36.84" width="10.23" fill="url(#w)"/><path d="M26.15 23.3l-1.18 5.75-.21 1.05 6.49 4.17 7.92-4.53-.15-.7-1.27-5.74z" fill="url(#x)"/></g></svg>