<svg xmlns="http://www.w3.org/2000/svg" xmlns:xlink="http://www.w3.org/1999/xlink" width="64" height="64"><defs><radialGradient id="b" cx="12.01" cy="13.2" r="20" gradientTransform="matrix(0 2.36188 -3.40694 0 60.79 -11.43)" gradientUnits="userSpaceOnUse"><stop offset="0" stop-color="#4d4d4d"/><stop offset=".26" stop-color="#333"/><stop offset=".7"/><stop offset="1"/></radialGradient><linearGradient id="c" x1="24" x2="24" y1="44" y2="3.9" gradientTransform="translate(-1.74 -1.74) scale(1.4058)" gradientUnits="userSpaceOnUse"><stop offset="0"/><stop offset="1" stop-color="#333"/></linearGradient><linearGradient xlink:href="#a" id="d" x1="12.43" y1="16.06" x2="48.24" y2="34.74" gradientUnits="userSpaceOnUse" gradientTransform="matrix(.90083 0 0 .90083 3.17 3.17)"/><linearGradient id="a"><stop offset="0" stop-color="#0ff"/><stop offset="1" stop-color="#00f"/></linearGradient></defs><rect x="4.59" y="4.59" width="54.83" height="54.83" rx="2.23" ry="2.23" fill="url(#b)" stroke="url(#c)" stroke-width=".5" stroke-linecap="round" stroke-linejoin="round"/><path d="M50.17 20.74c-1.34.59-2.78 1-4.29 1.17a7.45 7.45 0 0 0 3.28-4.13 14.94 14.94 0 0 1-4.73 1.82 7.45 7.45 0 0 0-12.7 6.8 21.15 21.15 0 0 1-15.37-7.8 7.43 7.43 0 0 0 2.31 9.95 7.44 7.44 0 0 1-3.37-.93v.09a7.46 7.46 0 0 0 5.98 7.3 7.55 7.55 0 0 1-3.37.13 7.46 7.46 0 0 0 6.96 5.18 14.95 14.95 0 0 1-11.04 3.09 21.1 21.1 0 0 0 11.43 3.35c13.7 0 21.2-11.36 21.2-21.2 0-.33 0-.65-.02-.97a15.07 15.07 0 0 0 3.72-3.86z" class="fil0" style="marker:none" color="#000" overflow="visible" fill="url(#d)"/></svg>