<svg xmlns="http://www.w3.org/2000/svg" xmlns:xlink="http://www.w3.org/1999/xlink" width="64" height="64"><defs><linearGradient id="c"><stop offset="0" stop-color="#fff"/><stop offset="1" stop-color="#fff" stop-opacity=".016"/></linearGradient><path id="f" d="M10 10l-1 1 1 1-4 2h36l-4-2 1-1-1-1H24z" fill-rule="evenodd"/><linearGradient xlink:href="#a" id="g" x1="6" y1="10.055" x2="6" y2="14" gradientUnits="userSpaceOnUse"/><linearGradient id="a"><stop offset="0" stop-color="#333"/><stop offset="1"/></linearGradient><linearGradient xlink:href="#b" id="d" x1="-18" y1="44" x2="-54" y2="14" gradientUnits="userSpaceOnUse" gradientTransform="translate(83.042 -2.028) scale(1.41784)"/><linearGradient id="b"><stop offset="0"/><stop offset="1" stop-color="#333"/></linearGradient><linearGradient xlink:href="#c" id="e" x1="6.479" y1="17.822" x2="11.127" y2="36.353" gradientUnits="userSpaceOnUse"/></defs><path d="M10.732 13.568v2.836l1.418-1.418zm42.536 0l-1.418 1.418 1.418 1.418z" fill-rule="evenodd"/><rect height="42.535" rx="0" y="17.822" x="6.479" width="51.042" fill="url(#d)"/><rect height="20.647" rx="0" y="17.822" x="6.479" width="51.042" fill="url(#e)" opacity=".253"/><use height="100%" width="100%" xlink:href="#f" transform="translate(-2.028 -2.028) scale(1.41784)" fill="url(#g)"/><path d="M12.15 12.15l-1.418 1.418h42.536L51.85 12.15H32z" opacity=".2"/><path d="M20.657 22.075v-7.09A11.318 11.318 0 0 1 32 3.644a11.318 11.318 0 0 1 11.343 11.343v7.09h-1.418v-7.09A9.903 9.903 0 0 0 32 5.06a9.903 9.903 0 0 0-9.925 9.925v7.09z"/><path d="M21.368 19.237a2.127 2.127 0 0 1 2.127 2.126 2.127 2.127 0 0 1-2.127 2.127 2.127 2.127 0 0 1-2.127-2.127 2.127 2.127 0 0 1 2.127-2.126m0 1.417a.709.709 0 0 0-.709.71.709.709 0 0 0 .71.708.709.709 0 0 0 .708-.709.709.709 0 0 0-.709-.709m21.266-1.414a2.127 2.127 0 0 0-2.127 2.126 2.127 2.127 0 0 0 2.127 2.127 2.127 2.127 0 0 0 2.127-2.127 2.127 2.127 0 0 0-2.127-2.127m0 1.418a.709.709 0 0 1 .709.71.709.709 0 0 1-.71.708.709.709 0 0 1-.708-.709.709.709 0 0 1 .709-.709" fill="#666"/><path d="M31.95 27.8A14.549 14.25 0 0 1 46.5 42.05 14.549 14.25 0 0 1 32.05 56.2 14.549 14.25 0 0 1 17.5 42.05 14.549 14.25 0 0 1 32.05 27.8z" fill="#4d4d4d"/><path d="M25.573 33.58a2.192 2.192 0 1 0 0 4.284 2.192 2.192 0 0 0 0-4.285zm6.477 0a2.192 2.192 0 1 0 0 4.284 2.192 2.192 0 0 0 0-4.285zm6.477 0a2.192 2.192 0 1 0 0 4.284 2.192 2.192 0 0 0 0-4.285zm-12.954 6.477a2.192 2.192 0 1 0 0 4.285 2.192 2.192 0 0 0 0-4.285zm6.477 0a2.192 2.192 0 1 0 0 4.285 2.192 2.192 0 0 0 0-4.285zm6.477 0a2.192 2.192 0 1 0 0 4.285 2.192 2.192 0 0 0 0-4.285zm-12.954 6.477a2.192 2.192 0 1 0 0 4.285 2.192 2.192 0 0 0 0-4.285zm6.477 0a2.192 2.192 0 1 0 0 4.285 2.192 2.192 0 0 0 0-4.285zm6.477 0a2.192 2.192 0 1 0 0 4.285 2.192 2.192 0 0 0 0-4.285z" opacity=".75" fill="#f60"/></svg>