<svg xmlns="http://www.w3.org/2000/svg" xmlns:xlink="http://www.w3.org/1999/xlink" width="64" height="64" viewBox="-36.43 -4.5 64 64" overflow="visible"><defs><linearGradient xlink:href="#a" id="b" x1="16.77" y1="16.45" x2="40.55" y2="16.45" gradientUnits="userSpaceOnUse" gradientTransform="rotate(45 17.29 6.2) scale(.61522)"/><linearGradient id="a"><stop offset="0" stop-color="gray"/><stop offset=".5" stop-color="#b3b3b3"/><stop offset="1" stop-color="gray"/></linearGradient><linearGradient id="c" gradientUnits="userSpaceOnUse" x1="-12.19" y1="107.67" x2="-17.8" y2="107.67" gradientTransform="matrix(.61522 0 0 -.61522 22.05 61.63)"><stop offset="0" stop-color="#555753"/><stop offset="1" stop-color="#2e3436"/></linearGradient><linearGradient id="d" gradientUnits="userSpaceOnUse" x1=".7" y1="107.67" x2="-4.91" y2="107.67" gradientTransform="matrix(.61522 0 0 -.61522 22.05 61.63)"><stop offset="0" stop-color="#555753"/><stop offset="1" stop-color="#2e3436"/></linearGradient><linearGradient id="e" gradientUnits="userSpaceOnUse" x1="-33.09" y1="48.16" x2="16.61" y2="54.37" gradientTransform="scale(.61522 -.61522) rotate(-45 -138.84 6.83)"><stop offset="0" stop-color="#1a1a1a"/><stop offset=".9"/><stop offset="1"/></linearGradient><linearGradient id="f" gradientUnits="userSpaceOnUse" x1="-18.01" y1="91.86" x2="1.85" y2="11.45" gradientTransform="scale(.61522 -.61522) rotate(-45 -138.84 6.83)"><stop offset=".01" stop-color="#d3d7cf"/><stop offset=".17" stop-color="#f2f2f0"/><stop offset=".91" stop-color="#1a1a1a"/></linearGradient></defs><path d="M15-1.37L4.19 9.46l10.34 10.35L25.35 8.97 15.01-1.37z" overflow="visible" fill="url(#b)"/><path transform="rotate(45)" overflow="visible" fill="url(#c)" d="M11.1-5.99h3.45v2.76H11.1z"/><path transform="rotate(45)" overflow="visible" fill="url(#d)" d="M19.03-5.99h3.45v2.76h-3.45z"/><path d="M3.87 13.11C.19 9.43-4.47 7.86-6.29 9.7l-17.77 17.77c-6.96 7.06-8.27 17.17-2.92 22.52 5.36 5.36 15.46 4.05 22.53-2.92l3.8-3.8L13.31 29.3c1.83-1.83.27-6.48-3.42-10.16z" overflow="visible" fill="url(#e)"/><path d="M11.35 16.53L.62 5.8a.69.69 0 0 0-.97 0l-3.59 3.6a.7.7 0 0 0-.18.33C-5.38 15.16-9.9 22.17-16.2 28.48c-6.3 6.3-6.97 4.47-12.4 5.73a.7.7 0 0 0-.34.18l-2.13 2.13a8.97 8.97 0 0 0 0 12.68l4.88 4.87a8.97 8.97 0 0 0 12.68 0l2.12-2.12c.1-.1.16-.21.19-.34 1.25-5.43-.57-6.1 5.73-12.4C.83 32.9 7.84 28.38 13.28 27.12c.13-.03.24-.1.33-.18l3.6-3.6a.69.69 0 0 0 0-.97z" overflow="visible" fill="url(#f)"/><path d="M5.69 17.88l-3.36 1.15.8.8L-7.35 30.3v-4.98l1.48-1.47a1.6 1.6 0 1 0-.55-.57l-1.67 1.67a.26.26 0 0 0-.08.2v5.97l-1.72 1.73a2.42 2.42 0 1 0 .66.65l4.09-4.09H.39c.07 0 .14-.03.2-.07l2.2-2.2.85.85 2.25-2.25-2.25-2.25-2.25 2.25.84.83L.2 28.6h-4.53l8.1-8.1.8.79z" overflow="visible" fill="#a02c5a"/></svg>