<?xml version="1.0" encoding="UTF-8" standalone="no"?><!--Created with Inkscape (http://www.inkscape.org/)--><svg xmlns:dc="http://purl.org/dc/elements/1.1/" xmlns:cc="http://creativecommons.org/ns#" xmlns:rdf="http://www.w3.org/1999/02/22-rdf-syntax-ns#" xmlns="http://www.w3.org/2000/svg" xmlns:xlink="http://www.w3.org/1999/xlink" width="64" height="64"><metadata><rdf:RDF><cc:Work><dc:format>image/svg+xml</dc:format><dc:type rdf:resource="http://purl.org/dc/dcmitype/StillImage"/><dc:title/></cc:Work></rdf:RDF></metadata><defs><linearGradient id="a"><stop offset="0" stop-color="#dcdcdc"/><stop offset="1" stop-color="#fff"/></linearGradient><linearGradient id="b"><stop offset="0"/><stop offset="1" stop-opacity="0"/></linearGradient><linearGradient xlink:href="#c" id="d" x1="-72.5" y1="15.5" x2="-72.5" y2="54.5" gradientUnits="userSpaceOnUse" gradientTransform="matrix(1.1586 0 0 1.1586 87.61 -8.55)"/><linearGradient id="c"><stop offset="0"/><stop offset="1" stop-color="#4d4d4d"/></linearGradient><filter id="e" x="-.07" y="-.15" width="1.14" height="1.31" color-interpolation-filters="sRGB"><feGaussianBlur stdDeviation="1.02"/></filter></defs><rect x="3.61" y="9.41" width="56.77" height="45.19" rx="0" ry="0" color="#000" fill="url(#d)" stroke="#1a1a1a" stroke-width="1.5" stroke-linecap="round" stroke-linejoin="round"/><path d="M5.15 13.6h53.68M5.15 19.73h53.68M5.15 25.87h53.68M5.15 32h53.68M5.15 38.13h53.68M5.15 44.27h53.68M5.15 50.4h53.68" opacity=".1" fill="none" stroke="#b9ffeb" stroke-linecap="square"/><path d="M6.93 27.5h6.57l2-10 4 15 3-9 3 6 3-2h12.58" transform="matrix(1.5335 0 0 1.5335 -4.81 -7.1)" fill="none" stroke="#0f0" stroke-width="1.3" stroke-linecap="round" stroke-linejoin="round" filter="url(#e)"/><path d="M5.81 35.07h10.08l3.07-15.34 6.13 23 4.6-13.8 4.6 9.2 4.6-3.06h19.3" fill="none" stroke="#0f0" stroke-linecap="round" stroke-linejoin="round"/></svg>