<svg xmlns="http://www.w3.org/2000/svg" xmlns:xlink="http://www.w3.org/1999/xlink" width="64" height="64" viewBox="0 0 60 60"><defs><radialGradient gradientUnits="userSpaceOnUse" r="25.2" cy="100" cx="23.78" id="i"><stop stop-color="#782167" offset="0"/><stop stop-color="#de87cd" offset=".5"/><stop stop-color="#280b22" offset="1"/></radialGradient><linearGradient id="a"><stop offset="0"/><stop offset="1" stop-color="#4d4d4d"/></linearGradient><linearGradient xlink:href="#a" id="p" gradientUnits="userSpaceOnUse" gradientTransform="matrix(.57217 0 0 .63 57.75 -7.8)" x1="-97.53" y1="73.96" x2="-96.5" y2="16"/><linearGradient id="n"><stop offset="0" stop-color="#fff"/><stop offset="1" stop-color="#fff" stop-opacity="0"/></linearGradient><linearGradient id="k"><stop offset="0"/><stop offset="1" stop-opacity="0"/></linearGradient><linearGradient xlink:href="#b" id="o" x1="6.71" y1="1.09" x2="6.71" y2="58.91" gradientUnits="userSpaceOnUse" gradientTransform="matrix(1.21114 0 0 .98627 -6.33 .41)"/><linearGradient id="b"><stop offset="0" stop-color="#666"/><stop offset="1" stop-color="gray"/></linearGradient><linearGradient y2="49" x2="48.12" y1="49" x1="40.12" gradientUnits="userSpaceOnUse" id="c"><stop offset="0" stop-color="#008e00"/><stop offset=".23" stop-color="#008700"/><stop offset=".51" stop-color="#007800"/><stop offset=".82" stop-color="#005f00"/><stop offset="1" stop-color="#004d00"/></linearGradient><linearGradient id="d"><stop offset="0" stop-color="#00a208"/><stop offset=".5" stop-color="#dfffa8"/><stop offset="1" stop-color="#8aff47" stop-opacity=".63"/></linearGradient><linearGradient id="g"><stop offset="0" stop-color="#c3ff6a"/><stop offset="1" stop-color="#a6ff88" stop-opacity="0"/></linearGradient><radialGradient id="e" cx="23.78" cy="100" r="25.2" gradientUnits="userSpaceOnUse"><stop offset="0" stop-color="#287f00"/><stop offset=".5" stop-color="#3cf000"/><stop offset="1" stop-color="#003a00"/></radialGradient><radialGradient gradientUnits="userSpaceOnUse" fy="88.67" fx="17.12" r="14" cy="94" cx="19.78" id="f"><stop offset="0" stop-color="#fff"/><stop offset=".5" stop-color="#fff" stop-opacity=".71"/><stop offset="1" stop-color="#fff" stop-opacity="0"/></radialGradient><radialGradient gradientUnits="userSpaceOnUse" id="h" r="26.42" cy="18.09" cx="54.21"><stop offset=".33" stop-color="#f0ff80"/><stop offset=".67" stop-color="#0f0" stop-opacity="0"/></radialGradient><linearGradient xlink:href="#i" id="q" gradientUnits="userSpaceOnUse" gradientTransform="matrix(.25438 .14677 .14687 -.25421 4.23 39.5)" x1="66.41" y1="111.1" x2="56.77" y2="111.4"/><linearGradient xlink:href="#i" id="r" gradientUnits="userSpaceOnUse" gradientTransform="matrix(-.25438 .14677 -.14687 -.25421 55.77 39.5)" x1="66.41" y1="111.1" x2="56.77" y2="111.4"/><linearGradient xlink:href="#j" id="s" gradientUnits="userSpaceOnUse" gradientTransform="matrix(.25438 .14677 .14687 -.25421 4.2 39)" x1="62.65" y1="53.75" x2="52.07" y2="53.75"/><linearGradient id="j"><stop offset="0" stop-color="#666"/><stop offset="1" stop-color="#333"/></linearGradient><linearGradient xlink:href="#k" id="t" x1="61.91" y1="72.46" x2="59.72" y2="73.71" gradientUnits="userSpaceOnUse" gradientTransform="matrix(-.55405 0 0 -.55367 64.83 67.2)"/><linearGradient gradientTransform="matrix(-.29881 0 0 -.29881 49.25 48.66)" xlink:href="#k" id="u" x1="67.81" y1="61.54" x2="71.57" y2="58.62" gradientUnits="userSpaceOnUse"/><linearGradient xlink:href="#l" id="v" gradientUnits="userSpaceOnUse" x1="62.65" y1="53.75" x2="52.07" y2="53.75" gradientTransform="matrix(-.25438 .14677 -.14687 -.25421 55.86 39)"/><linearGradient id="l"><stop offset="0" stop-color="#b3b3b3"/><stop offset="1" stop-color="#333"/></linearGradient><radialGradient xlink:href="#m" id="w" cx="66" cy="54" fx="66.5" fy="53.14" r="2" gradientUnits="userSpaceOnUse" gradientTransform="matrix(.51258 -.29604 .29594 .51207 -61.8 -47.61)"/><linearGradient id="m"><stop offset="0" stop-color="#dfdfdf"/><stop offset="1" stop-color="#606060"/></linearGradient><linearGradient xlink:href="#n" id="z" gradientUnits="userSpaceOnUse" x1="24.64" y1="118.54" x2="24.64" y2="110.8"/><filter id="y"><feGaussianBlur stdDeviation=".42"/></filter><linearGradient xlink:href="#n" id="x" gradientUnits="userSpaceOnUse" x1="24.64" y1="118.54" x2="24.64" y2="110.8"/></defs><path d="M5.46 1.48a3.66 3.66 0 0 0-3.67 3.67v49.69a3.66 3.66 0 0 0 3.67 3.67h49.08a3.66 3.66 0 0 0 3.67-3.67V5.15a3.66 3.66 0 0 0-3.67-3.67zm.06 4.04h6.12v6.99H5.52zm42.84 0h6.12v6.99h-6.12zM5.52 16h6.12v7H5.52zm42.84 0h6.12v7h-6.12zM5.52 26.5h6.12v6.99H5.52zm42.84 0h6.12v6.99h-6.12zM5.52 36.98h6.12v7H5.52zm42.84 0h6.12v7h-6.12zM5.52 47.5h6.12v7H5.52zm42.84 0h6.12v7h-6.12z" fill="url(#o)"/><path d="M5.19 2.28a2.64 2.64 0 0 0-2.65 2.65v50.14a2.64 2.64 0 0 0 2.65 2.65h49.63a2.64 2.64 0 0 0 2.65-2.65V4.93a2.64 2.64 0 0 0-2.65-2.65zm.33 3.24h6.12v6.99H5.52zm42.84 0h6.12v6.99h-6.12zM5.52 16h6.12v7H5.52zm42.84 0h6.12v7h-6.12zM5.52 26.5h6.12v6.99H5.52zm42.84 0h6.12v6.99h-6.12zM5.52 36.98h6.12v7H5.52zm42.84 0h6.12v7h-6.12zM5.52 47.5h6.12v7H5.52zm42.84 0h6.12v7h-6.12z" fill="url(#p)"/><path d="M33.21 27.72a.6.6 0 0 1-.54-.43l-.64-2.41a.6.6 0 0 1 .06-.45l5.44-9.4a6.7 6.7 0 0 1 2.7-2.67c1.03-.52 2.18-.64 3.14-.09.95.55 1.42 1.62 1.49 2.77a6.66 6.66 0 0 1-.96 3.67 6.68 6.68 0 0 1-2.69 2.66c-1.03.52-2.2.63-3.15.08-.22-.13-.24-.13-.42-.04-.17.09-.46.36-.82.85-.7.98-1.65 2.74-3.05 5.17a.6.6 0 0 1-.56.3zm6.8-8.65c.57.04 1.6-.56 2.25-1.66a3.75 3.75 0 0 0 .54-1.96c-.03-.55-.23-.9-.5-1.05-.27-.16-.66-.15-1.14.1a3.78 3.78 0 0 0-1.43 1.45 3.8 3.8 0 0 0-.55 1.96c.03.56.22.9.49 1.05.11.07.22.1.35.1z" fill="url(#q)" fill-rule="evenodd"/><path d="M26.79 27.72a.6.6 0 0 0 .54-.43l.64-2.41a.6.6 0 0 0-.06-.45l-5.44-9.4a6.7 6.7 0 0 0-2.7-2.67c-1.03-.52-2.18-.64-3.14-.09-.95.55-1.42 1.62-1.49 2.77a6.66 6.66 0 0 0 .96 3.67 6.68 6.68 0 0 0 2.69 2.66c1.03.52 2.2.63 3.15.08.22-.13.24-.13.42-.04a2.92 2.92 0 0 1 .82.85c.7.98 1.65 2.74 3.05 5.17a.6.6 0 0 0 .56.3zm-6.8-8.65c-.57.04-1.6-.56-2.25-1.66a3.75 3.75 0 0 1-.54-1.96c.03-.55.23-.9.5-1.05.27-.16.66-.15 1.14.1a3.78 3.78 0 0 1 1.43 1.45 3.78 3.78 0 0 1 .55 1.96c-.03.56-.22.9-.49 1.05a.74.74 0 0 1-.35.1z" fill="url(#r)" fill-rule="evenodd"/><path d="M19.98 48.09l13.25-21.16.34-3.54c-.6 1.02-2.78 2.47-4.39 2.9-4.2 7.28-6.65 13.78-9.41 21-.1.2-.12.6.2.8z" fill="url(#s)" fill-rule="evenodd"/><path d="M20.05 47.95L30.81 30.9" fill="none" stroke="#fff" stroke-width=".3"/><path d="M31.4 29.04l.6-.17.43-.68-1.28-2.75c-.55.3-1.12.58-1.65.75z" fill="url(#t)" fill-rule="evenodd"/><path d="M29.18 33.4l2.44-3.91-2.15-3.29-.29.09a89.53 89.53 0 0 0-2.12 3.9z" fill="url(#u)" fill-rule="evenodd"/><path d="M40.1 48.09L26.84 26.93l-.34-3.54c.59 1.02 2.78 2.47 4.38 2.9 4.21 7.28 6.65 13.78 9.42 21 .09.2.12.6-.21.8z" fill="url(#v)" fill-rule="evenodd"/><path d="M40.06 47.95l-10-16" fill="none" stroke="#fff" stroke-width=".3"/><ellipse cy="-39.51" cx="-11.98" transform="rotate(150.02) skewX(.03)" rx=".99" ry=".99" opacity=".96" fill="url(#w)" fill-rule="evenodd"/><path d="M33.19 106.44c-.3 1-.73 2.02-1.31 3.03a12.64 12.64 0 0 1-4.79 4.84c-1.65.86-2.93.87-3.84.35-.9-.53-1.58-1.68-1.66-3.53a10.7 10.7 0 0 0-.5 3.5c.08 1.85.75 3 1.66 3.53.9.52 2.2.51 3.84-.35a12.64 12.64 0 0 0 4.79-4.84 12.66 12.66 0 0 0 1.8-6.53z" transform="matrix(-.48992 0 0 -.45385 54.03 66.3)" opacity=".49" fill="url(#x)" fill-rule="evenodd" filter="url(#y)"/><path transform="matrix(.48992 0 0 -.45385 5.92 66.3)" d="M33.19 106.44c-.3 1-.73 2.02-1.31 3.03a12.64 12.64 0 0 1-4.79 4.84c-1.65.86-2.93.87-3.84.35-.9-.53-1.58-1.68-1.66-3.53a10.7 10.7 0 0 0-.5 3.5c.08 1.85.75 3 1.66 3.53.9.52 2.2.51 3.84-.35a12.64 12.64 0 0 0 4.79-4.84 12.66 12.66 0 0 0 1.8-6.53z" opacity=".49" fill="url(#z)" fill-rule="evenodd" filter="url(#y)"/><path d="M29.6 28.86l1.07-1.28" opacity=".78" fill="none" stroke="#fff" stroke-width=".3"/></svg>