<svg xmlns="http://www.w3.org/2000/svg" xmlns:xlink="http://www.w3.org/1999/xlink" width="64" height="64" viewBox="0 0 48 48"><defs><linearGradient id="b"><stop offset="0" stop-color="#165016"/><stop offset="1" stop-color="#37c837"/></linearGradient><linearGradient id="a"><stop offset="0" stop-color="#333"/><stop offset="1"/></linearGradient><radialGradient xlink:href="#a" id="c" gradientUnits="userSpaceOnUse" gradientTransform="matrix(16.00447 0 0 16.0047 525.24 -51.02)" cx="7.76" cy="10.88" fx="7.76" fy="10.88" r="9"/><linearGradient xlink:href="#b" id="d" x1="5.16" y1="22.66" x2="41.91" y2="22.66" gradientUnits="userSpaceOnUse"/></defs><path d="M717-3a18.5 18.5 0 0 0-13.1 5.42l-26.17 26.12-12.77 12.86-86.28 86.19a18.53 18.53 0 0 0 0 26.21l125.8 125.8a18.53 18.53 0 0 0 26.21 0l125.22-125.22a18.53 18.53 0 0 0 0-26.22L730.1 2.36A18.44 18.44 0 0 0 717.01-3zm16.57 69.95zm2.83 123.39zm3.22 16.42z" fill="url(#c)" transform="matrix(.1562 0 0 .1562 -88.05 1.97)"/><path d="M16.08 25.1V8.26h2.5l.46-.44V6.05l-.45-.44h-13l-.43.44v1.78l.44.44H7.8v31l.58.44h2.53l31-32.32V6.12l-.46-.5H28.63l-.45.43v1.79l.45.44h2.22v1.77L16.08 25.1" fill="url(#d)" fill-rule="evenodd"/></svg>