<svg xmlns="http://www.w3.org/2000/svg" xmlns:xlink="http://www.w3.org/1999/xlink" width="64" height="64"><defs><linearGradient id="a"><stop offset="0" stop-color="#0ff"/><stop offset="1" stop-color="#08a"/></linearGradient><radialGradient id="c" cx="12.01" cy="13.2" r="20" gradientTransform="matrix(0 2.36188 -3.40694 0 60.78 -11.44)" gradientUnits="userSpaceOnUse"><stop offset="0" stop-color="#4d4d4d"/><stop offset=".26" stop-color="#333"/><stop offset=".7"/><stop offset="1"/></radialGradient><linearGradient id="b" x1="24" x2="24" y1="44" y2="3.9" gradientTransform="translate(-1.75 -1.75) scale(1.4058)" gradientUnits="userSpaceOnUse"><stop offset="0"/><stop offset="1" stop-color="#333"/></linearGradient><radialGradient xlink:href="#a" id="d" cx="14.39" cy="15.26" fx="14.39" fy="15.26" r="24" gradientTransform="matrix(1.94005 2.10798 -.83972 .77282 -.71 -25.47)" gradientUnits="userSpaceOnUse"/></defs><rect x="4.58" y="4.58" width="54.83" height="54.83" rx="2.23" ry="2.23" stroke-linejoin="round" stroke-linecap="round" stroke-width=".5" stroke="url(#b)" fill="url(#c)"/><path d="M8 10v44h48V10zm4 4h40v21h-4.63l-5.5-14.69-1.9-5.12-1.84 5.12L35 29.06l-3.13-8.75-2.09-5.84-1.72 5.97-4.34 15.22-2.85-7.38-.5-1.28H12zm28.03 12.81l4.1 10.88.5 1.3H52v11H12V31h5.62l4.5 11.73 2.16 5.6 1.66-5.76 4.28-15 2.9 8.13L35 40.94l1.87-5.25z" style="text-indent:0;text-decoration-line:none;text-transform:none" color="#000" fill="url(#d)"/></svg>