<svg xmlns="http://www.w3.org/2000/svg" xmlns:xlink="http://www.w3.org/1999/xlink" width="64" height="64" version="1"><defs><linearGradient id="a"><stop offset="0" stop-color="#4d4d4d"/><stop offset="1"/></linearGradient><radialGradient xlink:href="#a" id="d" cx="16" cy="19.25" fx="16" fy="19.25" r="28" gradientUnits="userSpaceOnUse" gradientTransform="matrix(.88378 .33898 -.35812 .93367 8.75 -4.15)"/><linearGradient id="b"><stop offset="0" stop-color="#00f"/><stop offset="1" stop-color="teal"/></linearGradient><linearGradient id="c"><stop offset="0" stop-color="#a00"/><stop offset="1" stop-color="#ff2a2a"/></linearGradient><linearGradient id="f" gradientUnits="userSpaceOnUse" x1="26" x2="26" y1="17" y2="31" gradientTransform="matrix(1.25806 0 0 1.25806 4.7 1.8)"><stop offset="0" stop-color="#4d4d4d"/><stop offset="1" stop-color="#fff"/></linearGradient><linearGradient id="e" gradientTransform="matrix(3.59447 0 0 3.52257 -1519.46 -1828.97)" gradientUnits="userSpaceOnUse" x1="428.37" x2="428.37" y1="530.8" y2="525.8"><stop stop-color="red" offset="0"/><stop stop-color="#f55" offset="1"/></linearGradient></defs><path d="M32 4C16.49 4 4 16.49 4 32s12.49 28 28 28 28-12.49 28-28S47.51 4 32 4z" fill="url(#d)"/><path d="M11.5 23.2h3.77l4.4 12.57 4.41-12.58h3.77l-6.29 17.62H17.8z" fill="url(#e)"/><path d="M23.56 40.8l6.3-17.6h3.77l-6.3 17.6zm12.59 0l6.29-17.6h3.77l-6.3 17.6z" fill="url(#f)"/><path d="M39.92 40.8h-3.77l-6.3-17.6h3.78zm12.58 0h-3.77l-6.3-17.6h3.78z" fill="#fff"/></svg>