<svg xmlns="http://www.w3.org/2000/svg" xmlns:xlink="http://www.w3.org/1999/xlink" width="64" height="64" viewBox="0 0 16.93 16.93"><defs><linearGradient id="c"><stop stop-color="#fff" offset="0"/><stop stop-color="red" offset="1"/></linearGradient><radialGradient xlink:href="#a" id="d" cx="4.73" cy="4.08" fx="4.73" fy="4.08" r="7.67" gradientUnits="userSpaceOnUse"/><linearGradient id="a"><stop offset="0" stop-color="#333"/><stop offset="1"/></linearGradient><linearGradient id="b"><stop offset="0" stop-color="maroon"/><stop offset="1" stop-color="red"/></linearGradient><linearGradient xlink:href="#c" id="e" gradientUnits="userSpaceOnUse" x1="2.86" y1="13.63" x2="2.86" y2="3.33"/></defs><path d="M3.86.8A3.08 3.08 0 0 0 .8 3.85V14.6c0 .83.7 1.53 1.54 1.53h10.74a3.08 3.08 0 0 0 3.07-3.07V2.33c0-.84-.7-1.54-1.53-1.54z" fill="url(#d)"/><path d="M12.62 3.27a1.4 1.4 0 0 0-.62.14c-.26.14-.53.42-.64.69-.13.28-.14.81-.04 1.08l.16.45c.12.28.16.9.09 1.26-.09.42-.32.87-.62 1.17a2.1 2.1 0 0 1-3.02.02c-.3-.28-.34-.36-1.68-2.8-.45-.82-.85-1.52-.95-1.6a1.3 1.3 0 0 0-.97-.4c-.73 0-1.23.56-1.34 1.2-.09.5-.14.42 2.22 4.69a70.76 70.76 0 0 0 2.3 4.07c.4.43.98.55 1.54.28.14-.06.3-.18.41-.3.2-.23 4.4-7.86 4.47-8.13.07-.28.05-.66-.04-.94a1.49 1.49 0 0 0-.78-.8 1.33 1.33 0 0 0-.49-.08z" opacity=".75" fill="url(#e)"/></svg>