<svg xmlns="http://www.w3.org/2000/svg" xmlns:xlink="http://www.w3.org/1999/xlink" width="64" height="64" version="1"><defs><linearGradient id="b"><stop offset="0" stop-color="#0ff"/><stop offset="1" stop-color="#00f"/></linearGradient><linearGradient id="a"><stop offset="0" stop-color="#4d4d4d"/><stop offset="1"/></linearGradient><radialGradient xlink:href="#a" id="c" cx="16" cy="19.25" fx="16" fy="19.25" r="28" gradientUnits="userSpaceOnUse" gradientTransform="matrix(.88378 .33898 -.35812 .93367 8.75 -4.15)"/><radialGradient xlink:href="#b" id="d" cx="23.35" cy="19.48" fx="23.35" fy="19.48" r="11.99" gradientTransform="matrix(1.794 .95023 -.50602 .95535 -10.67 -20.78)" gradientUnits="userSpaceOnUse"/></defs><path d="M32 4C16.49 4 4 16.49 4 32s12.49 28 28 28 28-12.49 28-28S47.51 4 32 4z" fill="url(#c)"/><path d="M31.12 16.28a9.3 9.3 0 0 0-3.68.37c-.46.28-.88.83-.65.88.28 0 .93.19 1.3.65.47.65.47 2.1.47 2.1s.23 3.9-.6 4.41c-.6.33-1.4-.37-3.21-3.49-.89-1.58-1.58-3.39-1.58-3.39s-.1-.33-.38-.46c-.27-.24-.65-.28-.65-.28h-4.18s-.65 0-.93.32c-.19.23 0 .75 0 .75s3.3 7.9 7.07 11.9c3.39 3.72 7.3 3.44 7.3 3.44h1.76s.51-.05.8-.37c.23-.28.23-.8.23-.8s0-2.41 1.06-2.78c1.07-.33 2.47 2.32 3.96 3.39 1.11.79 1.95.6 1.95.6l3.9-.04s2.1-.14 1.12-1.82c-.1-.09-.6-1.2-2.93-3.44-2.46-2.37-2.14-2 .84-6.04 1.81-2.51 2.5-4 2.32-4.65-.23-.6-1.58-.46-1.58-.46h-4.42s-.32 0-.55.14c-.28.14-.42.46-.42.46s-.7 1.95-1.63 3.58c-2 3.44-2.79 3.63-3.07 3.4-.79-.47-.6-2-.6-3.07 0-3.35.51-4.75-.93-5.12-.47-.1-.84-.18-2.1-.18z" fill="url(#d)"/><path d="M18.75 39.66a4.46 4.46 0 0 0-.18 0 3.35 3.35 0 0 0-1.08.14 2.19 2.19 0 0 0-.79.47 1.95 1.95 0 0 0-.46.7 2.42 2.42 0 0 0-.19.92 2.19 2.19 0 0 0 .65 1.58c.14.19.38.33.56.47a11.62 11.62 0 0 0 1.12.6l.37.28.28.33.1.42a.93.93 0 0 1-.06.32c0 .1-.09.19-.18.28a.88.88 0 0 1-.32.14 1.63 1.63 0 0 1-.47.1 4.51 4.51 0 0 1-1.63-.43 23.2 23.2 0 0 1-.5-.23v1.54c.27.18.6.28.92.37a5.11 5.11 0 0 0 2.32-.05 2.42 2.42 0 0 0 .84-.46c.23-.19.42-.47.51-.7a2.42 2.42 0 0 0 .19-.98 1.95 1.95 0 0 0-.51-1.4 2.79 2.79 0 0 0-.56-.5 8.88 8.88 0 0 0-1.35-.8 2.6 2.6 0 0 1-.37-.27.93.93 0 0 1-.23-.28.93.93 0 0 1-.05-.37c0-.24.1-.47.23-.56.14-.19.38-.23.66-.23h.37l.37.09a4.37 4.37 0 0 1 .93.37l.46-1.3a7.81 7.81 0 0 0-1.07-.47 4.46 4.46 0 0 0-.88-.1zm5.07.05l-2.56 7.95h1.68l.55-1.86h2.7l.56 1.86h1.67l-2.56-7.9h-2.04zm4.28.04v.05h.01zm.01.05l2.45 7.86h1.86l2.46-7.9h-1.72l-1.3 4.78-.1.33-.08.46a21.39 21.39 0 0 0-.2.93 12.7 12.7 0 0 0-.32-1.72l-1.4-4.74zm7.75-.05v7.9h4.56v-1.39h-2.89v-2h2.7v-1.4h-2.7v-1.71h2.89v-1.4zm6.23 0v7.9h1.67v-3.01h.7l1.72 3.02h1.86l-.1-.14a14.92 14.92 0 0 1-.97-1.58l-1.07-1.72a2.7 2.7 0 0 0 .47-.33 2.23 2.23 0 0 0 .83-1.76c0-.8-.23-1.4-.74-1.77-.47-.42-1.21-.6-2.23-.6zm-17.3 1.07h.05a17.43 17.43 0 0 1-.03.1l.08.37.14.56c0 .18.09.32.13.46 0 .19.1.28.1.33l.46 1.72h-1.85l.46-1.72.04-.19.1-.28.1-.32a17.43 17.43 0 0 0 .24-.93zm18.88.33h.47c.46 0 .78.04.97.23.23.14.32.42.32.8 0 .36-.09.64-.27.83-.19.18-.56.28-1.02.28h-.47z" fill="#fff"/></svg>