<?xml version="1.0" encoding="UTF-8" standalone="no"?><!--Created with Inkscape (http://www.inkscape.org/)--><svg xmlns:dc="http://purl.org/dc/elements/1.1/" xmlns:cc="http://creativecommons.org/ns#" xmlns:rdf="http://www.w3.org/1999/02/22-rdf-syntax-ns#" xmlns="http://www.w3.org/2000/svg" xmlns:xlink="http://www.w3.org/1999/xlink" width="64" height="64" viewBox="0 0 60 60"><defs><linearGradient id="a"><stop offset="0" stop-color="#ce5c00" stop-opacity=".66"/><stop offset="1" stop-color="#ff860f"/></linearGradient><linearGradient id="b"><stop offset="0" stop-color="#da6100"/><stop offset="1" stop-color="#ee6a00" stop-opacity=".52"/></linearGradient><linearGradient id="c"><stop offset="0"/><stop offset="1" stop-color="#4d4d4d"/></linearGradient><linearGradient xlink:href="#d" id="h" x1="95.39" y1="28.67" x2="123.5" y2="28.67" gradientUnits="userSpaceOnUse" gradientTransform="matrix(.9375 0 0 .9375 -72.42 -11.97)"/><linearGradient id="d"><stop offset="0" stop-color="#d45500"/><stop offset="1" stop-color="#ff7f2a"/></linearGradient><linearGradient xlink:href="#e" id="g" x1="87.32" y1="15.34" x2="117.82" y2="15.34" gradientUnits="userSpaceOnUse" gradientTransform="translate(-72.42 .03)"/><linearGradient id="e"><stop offset="0" stop-color="#4d4d4d"/><stop offset="1"/></linearGradient><linearGradient xlink:href="#c" id="f" x1="26.47" y1="30.14" x2="18.72" y2="46.94" gradientUnits="userSpaceOnUse" gradientTransform="translate(1.09 -10.55) scale(1.20797)"/></defs><metadata><rdf:RDF><cc:Work><dc:format>image/svg+xml</dc:format><dc:type rdf:resource="http://purl.org/dc/dcmitype/StillImage"/><dc:title/></cc:Work></rdf:RDF></metadata><g transform="translate(0 12)"><path d="M7.65 44.7v-2.74l4.4-16.42h35.86l4.44 16.57v2.59z" fill="url(#f)" fill-rule="evenodd"/><path d="M27.4-7.68L14.9 33.44c9.96 6.66 20.13 6.67 30.5-.07L33.1-7.68z" fill="url(#g)"/><path d="M35.15-.83c-.88.36-1.75.63-2.6.8a12.13 12.13 0 0 1-7.24-.79L22.57 8.2c1.23.7 2.47 1.24 3.72 1.6a13.93 13.93 0 0 0 7.7 0c1.28-.35 2.57-.88 3.87-1.58zM19.62 18.14l-.82 2.46-1.79 5.9a31.13 31.13 0 0 0 6.7 3.12c1.12.35 2.22.6 3.31.77a20.96 20.96 0 0 0 9.75-.75 31.96 31.96 0 0 0 6.6-2.93l-2.53-8.57a25.01 25.01 0 0 1-5.9 2.15 20.5 20.5 0 0 1-5.44.48 22.77 22.77 0 0 1-5.07-.85 33.7 33.7 0 0 1-4.8-1.78z" fill="url(#h)"/><ellipse cx="30.25" cy="-7.47" rx="2.89" ry="1.23" fill="#1a1a1a"/></g></svg>