<svg xmlns="http://www.w3.org/2000/svg" xmlns:xlink="http://www.w3.org/1999/xlink" width="64" height="64"><defs><linearGradient id="c"><stop offset="0" stop-color="#0ff"/><stop offset="1" stop-color="#045"/></linearGradient><linearGradient id="b"><stop offset="0" stop-color="#f60"/><stop offset="1" stop-color="#803300"/></linearGradient><linearGradient id="a"><stop offset="0" stop-color="#5df"/><stop offset="1" stop-color="#04a"/></linearGradient><radialGradient id="d" cx="12.01" cy="13.2" r="20" gradientTransform="matrix(0 2.36188 -3.40694 0 60.79 -11.43)" gradientUnits="userSpaceOnUse"><stop offset="0" stop-color="#4d4d4d"/><stop offset=".26" stop-color="#333"/><stop offset=".7"/><stop offset="1"/></radialGradient><linearGradient id="e" x1="24" x2="24" y1="44" y2="3.9" gradientTransform="translate(-1.74 -1.74) scale(1.4058)" gradientUnits="userSpaceOnUse"><stop offset="0"/><stop offset="1" stop-color="#333"/></linearGradient><linearGradient xlink:href="#b" id="g" x1="15" y1="35.27" x2="42.46" y2="35.27" gradientUnits="userSpaceOnUse"/><linearGradient xlink:href="#c" id="f" x1="21.54" y1="28.73" x2="49" y2="28.73" gradientUnits="userSpaceOnUse"/></defs><rect x="4.59" y="4.59" width="54.83" height="54.83" rx="2.23" ry="2.23" fill="url(#d)" stroke="url(#e)" stroke-width=".5" stroke-linecap="round" stroke-linejoin="round"/><path d="M22.85 15c-.73 0-1.31.58-1.31 1.3v5.24h3.92v-2.62h19.62v19.62H25.46V25.46h-3.92v15.7c0 .72.58 1.3 1.3 1.3H47.7c.73 0 1.31-.58 1.31-1.3V16.3c0-.73-.58-1.31-1.3-1.31z" fill="url(#f)"/><path d="M16.3 21.54c-.72 0-1.3.58-1.3 1.3V47.7c0 .73.58 1.31 1.3 1.31h24.85c.73 0 1.31-.58 1.31-1.3v-5.24h-3.92v2.62H18.92V25.46h19.62v13.08h3.92v-15.7c0-.72-.58-1.3-1.3-1.3z" fill="url(#g)"/></svg>