<svg xmlns="http://www.w3.org/2000/svg" width="64" height="64"><defs><linearGradient id="a"><stop offset="0" stop-color="#5df"/><stop offset="1" stop-color="#04a"/></linearGradient><radialGradient id="b" cx="12.01" cy="13.2" r="20" gradientTransform="matrix(0 2.36188 -3.40694 0 60.79 -11.43)" gradientUnits="userSpaceOnUse"><stop offset="0" stop-color="#4d4d4d"/><stop offset=".26" stop-color="#333"/><stop offset=".7"/><stop offset="1"/></radialGradient><linearGradient id="c" x1="24" x2="24" y1="44" y2="3.9" gradientTransform="translate(-1.74 -1.74) scale(1.4058)" gradientUnits="userSpaceOnUse"><stop offset="0"/><stop offset="1" stop-color="#333"/></linearGradient></defs><rect x="4.59" y="4.59" width="54.83" height="54.83" rx="2.23" ry="2.23" fill="url(#b)" stroke="url(#c)" stroke-width=".5" stroke-linecap="round" stroke-linejoin="round"/><path d="M35.1 10.35c-.8 0-.81 0-.81.92V28.7c0 1.06-.02 1.02.99 1.02h17.38c1 0 1 .07 1-.7V11.15c0-.73-.12-.79-.91-.79H35.1zM11 11v14.32h3.82v-7.79l7.64 7.6v4.96h3.81v-3.82h3.82v-3.81h-4.95l-7.6-7.64h7.78V11H11zm26.85 2.9h12.24v12.26H37.85V13.9zm-.12 20v3.83H33.9v3.81h4.95l7.6 7.64h-7.78V53H53V38.68h-3.82v7.79l-7.64-7.6V33.9h-3.81zm-26.57.38c-.79 0-.81 0-.81.92V52.6c0 1.07-.02 1.04.99 1.04h17.39c.99 0 .99.06.99-.7V35.07c0-.73-.11-.8-.9-.8H11.17zm2.76 3.55h12.24v12.26H13.91V37.84l.01-.01z" color="#000" fill="#ff0"/></svg>