<svg xmlns="http://www.w3.org/2000/svg" width="64" height="64"><defs><linearGradient id="a"><stop offset="0" stop-color="#5df"/><stop offset="1" stop-color="#04a"/></linearGradient><radialGradient id="b" cx="12.01" cy="13.2" r="20" gradientTransform="matrix(0 2.36188 -3.40694 0 60.79 -11.43)" gradientUnits="userSpaceOnUse"><stop offset="0" stop-color="#4d4d4d"/><stop offset=".26" stop-color="#333"/><stop offset=".7"/><stop offset="1"/></radialGradient><linearGradient id="c" x1="24" x2="24" y1="44" y2="3.9" gradientTransform="translate(-1.74 -1.74) scale(1.4058)" gradientUnits="userSpaceOnUse"><stop offset="0"/><stop offset="1" stop-color="#333"/></linearGradient></defs><rect x="4.59" y="4.59" width="54.83" height="54.83" rx="2.23" ry="2.23" fill="url(#b)" stroke="url(#c)" stroke-width=".5" stroke-linecap="round" stroke-linejoin="round"/><path d="M11 11v14.32h3.82v-7.79l7.63 7.6v4.96h3.82v-3.82h3.82v-3.82h-4.95l-7.6-7.63h7.78V11zm27.68 0v3.82h7.79l-7.6 7.63H33.9v3.82h3.82v3.82h3.82v-4.95l7.63-7.6v7.78H53V11h-3.82zM22.45 33.9v7.65h7.64v-3.82h-3.82V33.9zm15.28 0v3.83H33.9v3.82h4.95l7.6 7.63h-7.78V53H53V38.68h-3.82v7.79l-7.63-7.6V33.9z" color="#000" fill="#ff0"/></svg>