<svg xmlns="http://www.w3.org/2000/svg" xmlns:xlink="http://www.w3.org/1999/xlink" width="64" height="64" version="1"><defs><linearGradient id="a"><stop offset="0" stop-color="#4d4d4d"/><stop offset="1"/></linearGradient><radialGradient xlink:href="#b" id="d" cx="32" cy="29.03" fx="32" fy="29.03" r="32.29" gradientTransform="matrix(-.02254 .91336 -.87995 -.02172 58.27 3.4)" gradientUnits="userSpaceOnUse"/><linearGradient id="b"><stop offset="0" stop-color="#0cf"/><stop offset=".55" stop-color="#08a"/><stop offset="1"/></linearGradient><radialGradient xlink:href="#a" id="c" cx="16" cy="19.25" fx="16" fy="19.25" r="28" gradientUnits="userSpaceOnUse" gradientTransform="matrix(.76077 .2918 -.30827 .80371 11.99 3.43)"/></defs><path d="M32 10.45a24.05 24.05 0 0 0-24.1 24.1A24.05 24.05 0 0 0 32 58.65a24.05 24.05 0 0 0 24.1-24.1A24.05 24.05 0 0 0 32 10.45z" fill="url(#c)"/><path d="M35.08 1.08c-.69 0-2 .12-2.67.3-2.23.62-4.32 3.53-5.1 5.65-.1.32-.26.61-.32.65a30.52 30.52 0 0 0-8.69 3.2A27.7 27.7 0 0 0 7 22.8a27.38 27.38 0 0 0-2.65 8.76c-.2 1.4-.2 5.61 0 7a27.8 27.8 0 0 0 7.84 16.05c4.93 4.99 11.25 7.83 18.4 8.28.9.05 3.59-.04 4.64-.16a27.89 27.89 0 0 0 24.46-24.52c.05-.47.1-1.76.1-2.87.16-3.19-1.15-6.35-2.46-8.68-1.35-2.81-1.62-5.25-1.82-8.24a.97.97 0 0 0 0-.42c-3.6 1.1-6.67 4-8.56 6.7-1.28 2.03-2.11 4.12-2.12 5.96.18 4.68 4.19 8.05 4.28 12.28 0 4.5-2.7 8.83-5.92 11.94-.65.62-.8.74-.87.67-.03-.03.07-.3.22-.62 2.23-4.9 1.76-10.79-1.67-14.9a31.92 31.92 0 0 0-2.64-2.62 10.7 10.7 0 1 1-8.5-8.53h.1c.1-.08.17-.15.17-.18 0-.16-2.63-2.8-3.36-3.37-1.49-1.15-3.18-2.53-5.13-3.04-.52-.13-.8-.24-.8-.3 0-.2 1.86-.76 3.92-1.17 2.5-.5 4.12-.63 8.97-.68 2.03-.02 4.04-.07 4.46-.12 5.22-.84 9.43-4.26 11.3-8.09.05-.17.04-.17-.77-.17a12.6 12.6 0 0 1-5.09-1.09c-2.13-1.2-4-2.6-6.28-3.1-.6-.12-2.19-.14-3.08-.27-.21-1.79.59-4.39 1.35-5.54.2-.28.34-.54.32-.58-.03-.1-.32-.12-.73-.12z" fill="url(#d)"/></svg>