<svg xmlns="http://www.w3.org/2000/svg" xmlns:xlink="http://www.w3.org/1999/xlink" width="64" height="64" version="1"><defs><linearGradient id="b"><stop offset="0" stop-color="#d4ff2a"/><stop offset="1" stop-color="#bcd35f"/></linearGradient><linearGradient id="a"><stop offset="0" stop-color="#4d4d4d"/><stop offset="1"/></linearGradient><radialGradient xlink:href="#a" id="c" cx="16" cy="19.25" fx="16" fy="19.25" r="28" gradientUnits="userSpaceOnUse" gradientTransform="matrix(.88378 .33898 -.35812 .93367 8.75 -4.15)"/><linearGradient xlink:href="#b" id="d" x1="25.36" y1="53.5" x2="49.64" y2="32.99" gradientUnits="userSpaceOnUse"/></defs><path d="M32 4C16.49 4 4 16.49 4 32s12.49 28 28 28 28-12.49 28-28S47.51 4 32 4z" fill="url(#c)"/><path d="M48.25 11.99c.83 0 1.3.65 1.4 1.95l-1.06 6.15h.26l.55-.46h.14v.14c-.75.58-1.48 2.15-2.19 4.73A30.84 30.84 0 0 1 46 30.64a19.49 19.49 0 0 0-.84 5.37l-1.06 3.24c0 .27.4.54 1.2.81-.14.64-.36.96-.65.96v.18h.25v.14c0 .33-.41.5-1.24.5l.15.18v.64h-.26c.17.64.54.95 1.1.95v.32h-1.1v.18c.37 0 .55.28.55.82l-1.53.64.14.18v.14c0 .21-.18.32-.55.32v.18c.47 0 .7.1.7.32-.66.27-1.52 1.62-2.6 4.05-1.1 2.15-2.04 3.23-2.85 3.23h-.29c-.6-.49-1.1-2.1-1.5-4.82-1.55-4.16-2.33-6.6-2.33-7.33 0-1.88-.5-3.55-1.5-5.67-.27-.94-.45-2.59-.55-4.01h-.66c-1.65 3.12-2.52 5.5-2.6 7.27a16.43 16.43 0 0 0-1.09 3.73c1 .33 1.5.65 1.5.95v.19c-.78-.12-1.33-.35-1.64-.69-.35.82-.8 2.6-1.36 6.33-.43 1.73-.98 2.37-1.64 2.37a10.1 10.1 0 0 1-4.64-3.51c-.2 0-.51-.87-.95-2.6-.27 0-.45-.86-.55-2.59a30.24 30.24 0 0 1-1.9-7.91v-4.74h-.14l-.66.19v-.19c0-.2.22-.31.66-.31l-.15-2.74v-2.13l-1.06-6.83v-2.58c.46-1.82 1.27-2.73 2.41-2.73l.44.46-.44-.14c1.78 2.43 2.83 4.14 3.14 5.8h1.25v.33h-.95v.36c.36 1.4.63 2.1.8 2.1h.3l.65-.19.15.19.14-.19.15.19v.13c-.49.37-.82.87-.99 1.5h-.1v.32h.25c.34 5.07.97 9.58 1.9 12.19l.55.5h.29c.36 0 1.13-2 2.3-5.54a26.5 26.5 0 0 0 1.64-4l-.14-.5c.75-1.18 1.53-1.72 2.34-1.72h.25c.51 0 .88.28 1.1.95.68 1 1.23 2.27 1.64 4.27l2.05 4.23c.27.33.4.71.4 1.13.75 1.8 1.44 3.96 2.05 4.54h.43c.52 0 1.2-3.2 2.05-7.63.15 0 .55-1.18 1.2-3.55v-.18l-.69-.32-.55.18h-.7v-.36l1.4-.14h1.1a80.85 80.85 0 0 1 2.88-9.1c.3-4.43.7-6.64 1.2-6.64l2-.82" fill="url(#d)"/></svg>