<?xml version="1.0" encoding="UTF-8" standalone="no"?>
<!-- Created with Inkscape (http://www.inkscape.org/) -->

<svg
   xmlns:dc="http://purl.org/dc/elements/1.1/"
   xmlns:cc="http://creativecommons.org/ns#"
   xmlns:rdf="http://www.w3.org/1999/02/22-rdf-syntax-ns#"
   xmlns:svg="http://www.w3.org/2000/svg"
   xmlns="http://www.w3.org/2000/svg"
   xmlns:xlink="http://www.w3.org/1999/xlink"
   xmlns:sodipodi="http://sodipodi.sourceforge.net/DTD/sodipodi-0.dtd"
   xmlns:inkscape="http://www.inkscape.org/namespaces/inkscape"
   id="svg15137"
   width="64"
   height="64"
   version="1.1"
   sodipodi:docname="web-browser.svg"
   inkscape:version="0.92.3 (2405546, 2018-03-11)">
  <metadata
     id="metadata33">
    <rdf:RDF>
      <cc:Work
         rdf:about="">
        <dc:format>image/svg+xml</dc:format>
        <dc:type
           rdf:resource="http://purl.org/dc/dcmitype/StillImage" />
        <dc:title></dc:title>
      </cc:Work>
    </rdf:RDF>
  </metadata>
  <sodipodi:namedview
     pagecolor="#ffffff"
     bordercolor="#666666"
     borderopacity="1"
     objecttolerance="10"
     gridtolerance="10"
     guidetolerance="10"
     inkscape:pageopacity="0"
     inkscape:pageshadow="2"
     inkscape:window-width="1366"
     inkscape:window-height="715"
     id="namedview31"
     showgrid="false"
     inkscape:zoom="8.234375"
     inkscape:cx="32"
     inkscape:cy="32"
     inkscape:window-x="0"
     inkscape:window-y="27"
     inkscape:window-maximized="1"
     inkscape:current-layer="svg15137" />
  <defs
     id="defs15139">
    <radialGradient
       id="radialGradient2612"
       cx="62.625"
       cy="4.625"
       r="10.625"
       gradientTransform="matrix(2.1647,0,0,0.87468317,-111.56,34.66185)"
       gradientUnits="userSpaceOnUse">
      <stop
         id="stop8840"
         offset="0" />
      <stop
         id="stop8842"
         style="stop-opacity:0"
         offset="1" />
    </radialGradient>
    <linearGradient
       id="linearGradient15133"
       x1="62.200001"
       x2="62.200001"
       y1="-12.489"
       y2="0.24326"
       gradientTransform="matrix(2.1499,0,0,2.1499,-109.32958,31.14937)"
       gradientUnits="userSpaceOnUse">
      <stop
         id="stop4875"
         style="stop-color:#fff"
         offset="0" />
      <stop
         id="stop4877"
         style="stop-color:#fff;stop-opacity:0"
         offset="1" />
    </linearGradient>
    <radialGradient
       id="radialGradient15127"
       cx="62.200001"
       cy="-8.7256002"
       r="9.7552996"
       gradientTransform="matrix(2.4129,0,0,2.413,-125.68958,49.44537)"
       gradientUnits="userSpaceOnUse">
      <stop
         id="stop8649"
         style="stop-color:#666666;stop-opacity:1"
         offset="0" />
      <stop
         id="stop8651"
         style="stop-color:#000000;stop-opacity:1"
         offset="1" />
    </radialGradient>
    <radialGradient
       id="radialGradient2418"
       cx="17.813999"
       cy="24.149"
       r="9.125"
       gradientTransform="matrix(-2.643762,0.03622544,0.03472384,2.5341719,77.908769,-38.525342)"
       gradientUnits="userSpaceOnUse">
      <stop
         id="stop4847"
         style="stop-color:#fff"
         offset="0" />
      <stop
         id="stop4849"
         style="stop-color:#b6b6b6"
         offset="1" />
    </radialGradient>
    <radialGradient
       id="radialGradient5145"
       cx="23.860001"
       cy="13.067"
       r="18.098"
       gradientTransform="matrix(-1.5425,0,0,-0.84553,61.50842,39.04337)"
       gradientUnits="userSpaceOnUse">
      <stop
         id="stop14112"
         style="stop-color:#00ffff;stop-opacity:1"
         offset="0" />
      <stop
         id="stop14114"
         style="stop-color:#0000ff;stop-opacity:1"
         offset="1" />
    </radialGradient>
    <radialGradient
       id="radialGradient5147"
       cx="62.224998"
       cy="-3.4419999"
       r="10.081"
       gradientTransform="matrix(1.1035,0,0,1.0265,-3.36508,13.39857)"
       gradientUnits="userSpaceOnUse">
      <stop
         id="stop14118"
         style="stop-color:#9e9e9e"
         offset="0" />
      <stop
         id="stop14120"
         style="stop-color:#9e9e9e;stop-opacity:0"
         offset="1" />
    </radialGradient>
    <radialGradient
       inkscape:collect="always"
       xlink:href="#linearGradient868"
       id="radialGradient870"
       cx="41.74905"
       cy="42.101799"
       fx="41.74905"
       fy="42.101799"
       r="8.6122684"
       gradientTransform="matrix(5.4912532,-2.4489502,1.7536449,3.9321782,-250.09817,-3.5339916)"
       gradientUnits="userSpaceOnUse" />
    <linearGradient
       inkscape:collect="always"
       id="linearGradient868">
      <stop
         style="stop-color:#000000;stop-opacity:1"
         offset="0"
         id="stop864" />
      <stop
         style="stop-color:#999999;stop-opacity:1"
         offset="1"
         id="stop866" />
    </linearGradient>
    <radialGradient
       id="radialGradient5145-3"
       cx="23.860001"
       cy="13.067"
       r="18.098"
       gradientTransform="matrix(-2.0701009,0,0,-1.1347373,79.505947,28.582503)"
       gradientUnits="userSpaceOnUse">
      <stop
         id="stop14112-6"
         style="stop-color:#00ffff;stop-opacity:1"
         offset="0" />
      <stop
         id="stop14114-7"
         style="stop-color:#0000ff;stop-opacity:1"
         offset="1" />
    </radialGradient>
    <radialGradient
       id="radialGradient5147-5"
       cx="62.224998"
       cy="-3.4419999"
       r="10.081"
       gradientTransform="matrix(1.4809443,0,0,1.3776067,-7.557058,-5.8339132)"
       gradientUnits="userSpaceOnUse">
      <stop
         id="stop14118-3"
         style="stop-color:#9e9e9e"
         offset="0" />
      <stop
         id="stop14120-5"
         style="stop-color:#9e9e9e;stop-opacity:0"
         offset="1" />
    </radialGradient>
    <radialGradient
       id="radialGradient15127-6"
       cx="62.200001"
       cy="-8.7256002"
       r="9.7552996"
       gradientTransform="matrix(3.2382149,0,0,3.2383491,-171.72173,42.542432)"
       gradientUnits="userSpaceOnUse">
      <stop
         id="stop8649-2"
         style="stop-color:#666666;stop-opacity:1"
         offset="0" />
      <stop
         id="stop8651-9"
         style="stop-color:#000000;stop-opacity:1"
         offset="1" />
    </radialGradient>
  </defs>
  <path
     id="path6495"
     d="m 56.405368,29.331363 c 0,14.749048 -11.956392,26.705306 -26.702624,26.705306 -14.747707,0 -26.7039657,-11.956391 -26.7039657,-26.705306 0,-14.747708 11.9557207,-26.7026235 26.7039647,-26.7026235 14.746365,0 26.702625,11.9550515 26.702625,26.7026235 z"
     style="fill:url(#radialGradient15127-6);stroke:none;stroke-width:1"
     inkscape:connector-curvature="0" />
  <path
     id="path6534"
     d="M 29.861104,3.7347169 C 27.81006,3.8966611 25.790956,4.2251525 23.832783,4.8696418 22.18207,5.525136 25.023026,4.2927249 23.329705,4.0581358 22.310532,3.8837512 21.883519,4.9338324 20.972944,4.9579214 19.934067,4.9899163 19.221847,5.9184484 18.246047,6.0301873 17.894608,7.9670222 17.441842,5.2666446 17.119417,6.2069749 17.375034,7.1748553 17.014803,7.8077625 16.266119,8.3702134 15.458798,9.2861429 16.218,10.10601 16.993667,9.301523 17.366083,8.1816421 18.580633,6.9371133 19.765655,7.6844963 20.951619,8.3346889 22.125234,9.9022215 23.112441,8.2338616 22.09936,8.1120864 21.708397,7.2456206 21.22298,6.6105256 20.685853,6.6531438 18.432337,6.1808179 19.873018,6.2881139 c 0.709135,-0.2314885 2.078827,-0.9200768 2.581957,-0.8929553 -1.261696,0.6579497 0.469916,1.0906519 0.982402,1.6151495 0.921593,0.2731988 1.339035,1.4436346 0.502111,2.0492982 -1.07606,0.5585581 0.07482,1.4785297 0.296591,2.2476537 0.172159,1.339721 1.336984,0.580862 1.706543,-0.242186 0.534174,-1.4967803 2.245641,-1.4449768 3.483675,-2.0831185 1.352779,-0.6945604 1.375324,-0.7189985 2.017627,0.271026 0.493386,0.283855 2.140157,-0.7491956 1.058885,-1.2467576 C 31.577376,8.056072 30.970195,8.623953 31.746381,7.1902492 31.933125,6.4198623 32.657762,5.4140551 32.525998,4.7830263 31.637752,4.4335589 30.749536,4.0840772 29.861239,3.7346093 Z M 17.281869,8.6928938 c 0.477929,0.488907 2.088757,1.3734462 1.928247,0.1510459 C 19.016608,8.0153088 17.811977,8.0077402 17.281869,8.6928938 Z M 41.660076,8.0960743 c -1.106006,0.2271001 -2.202561,0.4759814 -3.075962,1.2395508 0.261122,1.0539059 -1.119399,1.2049659 -1.724658,1.7823669 -0.16153,0.338759 -0.03314,2.469761 0.68585,1.553146 0.780559,-1.036674 1.118834,0.548465 1.943009,0.707083 0.597343,-0.192235 0.671289,-1.535029 0.446566,-2.15304 0.382816,-0.630546 1.007309,-1.5024173 1.816992,-1.4304841 -0.502179,0.7662941 -1.075824,2.7263591 0.524871,1.9251621 0.463246,-0.0081 -1.260955,1.012597 -1.364321,1.708419 -0.647643,0.688252 -1.333184,1.215716 -2.268723,0.682388 -0.447637,-0.377947 -0.675115,-1.475172 -0.958407,-0.235744 0.581657,0.983073 -1.461484,0.06334 -1.411025,1.389819 -0.429076,0.825545 -1.202778,1.163686 -2.097611,1.22326 0.324751,0.25688 1.600253,1.786795 0.334881,1.570325 -0.809951,0.08897 -1.993874,0.546222 -1.666013,1.563881 -0.368874,1.267426 0.570237,0.948209 1.147742,1.741569 0.94099,-0.267281 1.54174,-0.844253 1.695539,-1.827995 0.880619,-0.258654 0.987166,-1.250719 1.954012,-1.230681 0.963854,-0.541929 1.188502,0.989596 2.091842,1.102903 0.09471,0.548494 -0.449101,1.719158 0.612766,0.629823 1.02587,-0.74332 -1.067087,-1.706543 -0.415538,-1.887718 0.927338,0.296201 1.261599,1.176581 1.410486,2.038562 0.75565,1.292923 0.941914,0.59592 1.00213,-0.541675 1.177282,-0.529289 1.539727,2.20229 3.204932,1.529527 1.243781,0.257323 0.804542,1.114433 -0.02557,1.637692 -0.671907,0.632265 -1.79592,0.232684 -2.585445,-0.02091 -0.757879,-0.372495 -1.770959,-0.332999 -2.175988,0.514635 -0.624438,-0.292082 -1.270136,-1.223071 -1.902748,-1.760492 -1.563078,-0.689675 -3.263042,-0.101611 -4.820482,0.321363 -1.336178,1.561067 -2.945651,2.977996 -3.520984,5.013741 -0.842508,0.856933 0.729214,1.353045 -0.327349,2.088217 -0.862666,0.688187 0.145008,1.560662 0.329873,2.352199 0.811199,0.998412 2.188334,4.123158 3.450121,2.878948 0.707323,-1.076923 1.099981,0.826459 1.932408,-0.405215 0.664579,-0.536135 1.301111,0.614683 2.26765,0.192327 0.931002,0.574934 0.752818,1.400155 0.368848,2.27181 0.209127,0.725872 1.249415,1.254005 0.84519,2.238123 -0.367261,0.916736 0.782572,1.611795 0.550748,2.413933 -0.771407,1.544959 -0.589531,3.455359 0.125967,4.986632 0.572623,1.385656 0.90855,2.88324 0.863822,4.387402 0.99683,0.298203 1.525498,-0.978508 2.51982,-0.688642 0.970736,0.125131 1.331182,-1.113547 2.014136,-1.631654 0.76099,-0.627366 -0.09693,-1.593407 1.11113,-2.037895 1.172019,-0.570673 -1.484298,-1.370625 0.02035,-1.882079 0.624254,-0.694656 1.896577,-0.936421 2.148343,-1.843294 -0.454066,-1.395455 -0.292525,-2.925787 -0.224632,-4.35305 0.436862,-1.129557 0.979357,-2.189144 1.914023,-2.988997 0.376871,-1.243659 1.27392,-2.385751 1.19364,-3.718668 -2.21115,0.676376 -1.540933,-0.288417 -0.30816,-1.171844 0.852305,-0.566331 1.885703,-1.134883 2.282279,-2.095869 0.193723,-1.087698 -0.606967,-2.858148 -1.352646,-1.214495 -0.328947,-0.631697 -1.548986,-0.962833 -1.493693,-1.785854 -0.236992,-1.694329 0.462494,-0.193616 1.15484,0.14479 1.495842,-0.812214 2.257049,2.384274 3.206542,0.476467 C 54.282065,19.494773 51.016407,14.049302 46.603501,9.9711036 45.83737,8.5018349 45.367305,10.977407 44.588694,10.883598 43.965528,10.233299 42.804446,9.3546094 44.425689,9.6571719 45.81336,9.2508432 44.872119,8.7141189 43.854327,8.7389613 43.085013,8.6454253 42.376871,8.3758713 41.659954,8.0962566 Z M 14.069019,8.6928938 c -0.369021,1.8161862 -2.698982,1.6038742 -3.51132,3.3961722 -3.9970049,4.231596 -5.8529048,9.921697 -6.5284884,15.687245 0.3567676,1.351574 0.879162,1.878483 2.0193607,2.477706 0.9687404,0.562746 2.388969,0.314307 2.9320947,1.492889 0.6064288,0.496328 1.260822,1.475843 2.127942,1.177267 1.257011,-0.122118 0.483391,1.15178 0.268048,1.797263 -0.07957,0.814618 -1.084077,1.333614 -0.698079,2.117474 -0.323915,0.887976 -0.581157,1.768409 0.137721,2.537267 0.611313,1.127156 1.108957,2.345623 2.242284,3.053281 0.794718,0.66737 1.694331,1.550463 1.382841,2.680595 -0.16558,0.91483 0.05781,1.757943 0.499911,2.560618 -0.158576,0.901128 -0.484115,1.823032 -0.550909,2.708644 1.180313,0.834833 3.583928,2.765413 3.761881,0.664164 0.673384,-0.606079 0.7141,-1.581464 1.844369,-1.584145 0.524604,-0.641191 0.705229,-1.648431 1.096529,-2.431381 -0.571334,-0.722556 0.223194,-1.838196 1.079807,-1.808671 1.095028,0.08224 1.054751,-1.20043 1.491144,-1.909993 -0.0094,-1.036381 -0.521948,-2.21048 0.409885,-2.98873 0.701111,-0.635378 0.628442,-1.566836 0.737856,-2.428695 -1.571532,-0.972175 -3.63962,-1.464304 -4.883155,-2.776285 -0.246453,-1.026715 -1.019685,-1.372775 -2.002997,-1.447258 -0.415177,-0.580514 -0.344866,-1.96314 -1.070321,-2.030644 -0.934439,0.179416 -1.859668,0.323283 -2.538743,-0.489041 -0.770466,-1.040955 -1.435582,0.268287 -2.138543,0.733065 C 11.518185,33.031322 9.6705288,31.824093 9.8912951,30.530129 10.540683,28.739979 7.6869891,30.729502 8.8580843,28.61812 9.4150571,26.316247 7.9096097,28.085946 7.1198696,28.60368 6.155989,28.614656 5.7918784,27.654224 5.9637543,26.775146 5.8414759,25.718515 6.6117318,25.1812 7.3955786,24.651766 c 1.0489535,0.161554 1.3150555,-0.752685 2.1008329,-0.633711 0.9877825,-0.05055 1.3486185,0.896242 1.9099975,1.524158 0.235043,-0.896445 -0.2462,-2.16767 0.746254,-2.667847 0.757101,-0.574141 1.525903,-1.139757 1.707215,-2.134383 0.178543,-1.041401 1.730294,-0.627557 1.991187,-1.681047 0.360701,-1.101279 2.028363,-0.212351 2.402121,-1.29915 1.172007,-1.101629 -0.365597,-0.767353 -1.205878,-0.802622 -1.657826,0.170372 0.164803,-0.439693 0.78641,-0.780465 0.920747,0.121774 1.770825,-0.179617 2.616848,-0.504996 0.113343,1.152048 0.330103,1.759686 0.918189,0.413186 -1.146387,-0.271239 -0.155921,-1.395993 -1.288002,-1.692852 -0.896001,0.06306 0.0087,-1.904224 -1.094716,-1.687887 -1.435584,0.949926 -0.153007,-0.674388 -1.322449,-0.890406 -0.922468,-0.996088 -1.146588,0.63958 -1.64749,1.232401 0.324865,1.136737 -1.06149,0.892792 -1.314881,1.825983 -0.561162,1.682115 -0.324009,-0.119857 -0.993851,-0.550708 -0.82741,-0.331915 -1.824105,-0.507829 -1.830143,-1.596897 1.109305,-0.812097 2.773599,-1.290898 3.488504,-2.569744 0.415362,-0.9932181 -0.351816,-1.5359672 -1.296655,-1.46135 h -6e-6 z m 19.694477,2.2036332 c -0.167631,0.882341 0.734771,1.354122 0.413188,2.295429 -0.288364,1.031253 -0.372121,1.850543 0.916469,1.248719 1.337585,-0.686899 0.483834,-1.209825 -0.05193,-2.110765 -0.364862,-0.598727 -0.329794,-1.711104 -1.277756,-1.433436 z m -1.010007,1.469134 c -1.065771,-0.322251 -0.828643,1.945023 -0.163246,1.357879 0.976468,-0.240439 0.318104,-0.70484 0.163246,-1.357879 z m 13.451293,12.074224 c 1.277409,1.133277 1.713791,2.811043 2.530823,4.24032 1.213585,0.53644 0.05572,1.448735 0.597494,2.108616 1.139353,1.23774 -1.577172,0.329016 -1.215971,-0.911233 -0.264517,-1.629106 -1.417063,-2.743137 -1.96985,-4.166371 -0.05762,-0.473206 -0.517386,-0.963427 0.05752,-1.271344 z"
     style="fill:url(#radialGradient5145-3);stroke:url(#radialGradient5147-5);stroke-width:1.10350025"
     inkscape:connector-curvature="0"
     sodipodi:nodetypes="cccccccccccccccccccccccccccccccccccccccccccccccccccccccccccccccccccccccccccccccccccccccccccccccccccccccccccccccccccccccccccccccccccccccccccccccccccccccccc" />
  <path
     id="path3970"
     d="m 37.885167,25.911457 23.116063,21.829126 -10.395296,0.477982 4.48536,8.998214 c 1.397085,4.007378 -4.62088,5.599783 -5.668693,2.594247 l -4.149878,-9.002809 -7.272545,7.984923 z"
     style="fill:url(#radialGradient870);fill-opacity:1;fill-rule:evenodd;stroke:none;stroke-width:1.00000393;stroke-linejoin:round"
     inkscape:connector-curvature="0" />
</svg>
