<svg xmlns="http://www.w3.org/2000/svg" xmlns:xlink="http://www.w3.org/1999/xlink" width="64" height="64" version="1"><defs><radialGradient gradientTransform="matrix(2.07143 0 0 2.07143 -17.71 -17.71)" xlink:href="#a" id="c" cx="18.12" cy="18.12" fx="18.12" fy="18.12" r="14" gradientUnits="userSpaceOnUse"/><linearGradient id="a"><stop offset="0" stop-color="#4d4d4d"/><stop offset="1"/></linearGradient><linearGradient xlink:href="#b" id="d" gradientUnits="userSpaceOnUse" gradientTransform="matrix(2.07143 0 0 2.07143 -17.71 -17.71)" x1="14" y1="23.98" x2="35.02" y2="24.51"/><linearGradient id="b" x1="56.07" x2="112.11" y1="-666.71" y2="-748.88" gradientTransform="matrix(.47252 0 0 -.47252 -20.38 -286.45)" gradientUnits="userSpaceOnUse"><stop stop-color="#fff045" offset=".14"/><stop stop-color="#00cdd7" offset=".37"/></linearGradient></defs><path d="M58.93 61H5.07A2.07 2.07 0 0 1 3 58.93V5.07C3 3.93 3.93 3 5.07 3h53.86C60.07 3 61 3.93 61 5.07v53.86c0 1.14-.93 2.07-2.07 2.07z" fill="url(#c)"/><path d="M45.89 11.43c-2.56 0-4.56.58-5.99 1.73-1.4 1.14-2.1 2.75-2.1 4.84 0 1.66.45 2.93 1.37 3.81.92.88 2.47 1.53 4.64 1.94l2.99.59c1.46.27 2.5.64 3.1 1.11.61.47.92 1.14.92 2 0 .9-.4 1.6-1.18 2.1-.76.52-1.8.77-3.14.77-1.48 0-2.64-.3-3.46-.9a3.38 3.38 0 0 1-1.35-2.65h-4.28c.14 2.29.96 4.04 2.47 5.25 1.52 1.22 3.65 1.82 6.39 1.82 2.76 0 4.9-.6 6.45-1.82a6.17 6.17 0 0 0 2.32-5.1c0-1.68-.45-2.98-1.35-3.9-.9-.94-2.34-1.6-4.31-2l-3.34-.64a10.05 10.05 0 0 1-3.2-1.03c-.57-.39-.85-.98-.85-1.76 0-.8.33-1.44 1-1.9a4.46 4.46 0 0 1 2.7-.74c2.83 0 4.33 1.12 4.48 3.34h4.1c0-1.11-.19-2.09-.58-2.93a5.2 5.2 0 0 0-1.4-2 6.63 6.63 0 0 0-2.03-1.17 9.58 9.58 0 0 0-2.23-.61c-.69-.1-1.4-.15-2.14-.15zm-37.2.35l6.05 21.39h3.96l3.49-16.7 3.58 16.7h3.96l5.92-21.39H31l-3.2 16.05-3.46-16.05h-4.34L16.67 27.8l-3.31-16.02H8.69zm2.6 34.72v4.14h18.64V46.5H11.29z" fill="url(#d)"/></svg>