<svg xmlns="http://www.w3.org/2000/svg" xmlns:xlink="http://www.w3.org/1999/xlink" width="64" height="64" version="1"><defs><linearGradient id="g"><stop offset="0" stop-color="#fff"/><stop offset="1" stop-color="#b3b3b3"/></linearGradient><linearGradient id="f"><stop stop-color="#d40000" offset="0"/><stop stop-color="#ff8080" offset="1"/></linearGradient><linearGradient id="b"><stop offset="0" stop-color="#333"/><stop offset=".5"/><stop offset="1"/></linearGradient><linearGradient xlink:href="#a" id="l" gradientUnits="userSpaceOnUse" gradientTransform="matrix(.48574 -.00257 -.00027 .46777 1.19 .74)" x1="67.64" y1="-14.27" x2="80.33" y2="79.55"/><linearGradient id="a"><stop offset="0" stop-color="#fdfdfd"/><stop offset="1" stop-color="#fdfdfd" stop-opacity="0"/></linearGradient><linearGradient xlink:href="#b" id="h" gradientUnits="userSpaceOnUse" x1="85.01" y1="34.89" x2="82.91" y2="147.23" gradientTransform="matrix(-.46984 -.03741 -.03741 .46984 65.66 70)"/><linearGradient id="c"><stop offset="0"/><stop offset="1" stop-color="#e6e6e6"/></linearGradient><linearGradient id="d"><stop offset="0" stop-color="#d40000"/><stop offset="1" stop-color="#ff8080"/></linearGradient><linearGradient id="e"><stop offset="0"/><stop stop-color="#4d4d4d" offset="1"/></linearGradient><radialGradient xlink:href="#g" id="i" cx="14" cy="18.92" fx="14" fy="18.92" r="3.93" gradientUnits="userSpaceOnUse" gradientTransform="matrix(1.9661 1.60461 -1.19904 1.46916 5.15 -16.3)"/><radialGradient xlink:href="#g" id="j" cx="14" cy="18.92" fx="14" fy="18.92" r="3.93" gradientUnits="userSpaceOnUse" gradientTransform="matrix(1.9661 1.60461 -1.19904 1.46916 21.15 -16.3)"/><radialGradient xlink:href="#g" id="k" cx="14" cy="18.92" fx="14" fy="18.92" r="3.93" gradientUnits="userSpaceOnUse" gradientTransform="matrix(1.9661 1.60461 -1.19904 1.46916 37.15 -16.3)"/></defs><path d="M41.61 71.22a33.3 33.3 0 0 0-8.77-.84C16.62 70.96 3.78 82.9 4.17 97.04a23.23 23.23 0 0 0 6.03 14.88c-1.9 3.62-4.92 6.11-9.14 6.31 6.4 3 14.1 2.24 19.73 1.06a32.57 32.57 0 0 0 13.44 2.33c16.23-.58 29.08-12.53 28.7-26.68-.31-11.49-9.27-20.9-21.32-23.72z" fill="url(#h)" transform="translate(0 -64)"/><path d="M50.25 24.2a5.93 5.93 0 0 0-1.18.08 5.93 5.93 0 0 0-4.84 6.85 5.93 5.93 0 0 0 6.85 4.84 5.93 5.93 0 0 0 4.84-6.85 5.93 5.93 0 0 0-5.67-4.92zm-15.77 2.7a5.93 5.93 0 0 0-1.18.09 5.93 5.93 0 0 0-4.84 6.85 5.93 5.93 0 0 0 6.85 4.84 5.93 5.93 0 0 0 4.84-6.85 5.93 5.93 0 0 0-5.67-4.93zm-15.77 2.71a5.93 5.93 0 0 0-1.18.09 5.93 5.93 0 0 0-4.84 6.84 5.93 5.93 0 0 0 6.85 4.84 5.93 5.93 0 0 0 4.84-6.84 5.93 5.93 0 0 0-5.67-4.93z" opacity=".27" fill="#fff" fill-rule="evenodd"/><circle cx="12.59" cy="36.19" r="5.93" transform="rotate(-9.74)" fill="url(#i)" fill-rule="evenodd"/><circle cx="28.59" cy="36.19" r="5.93" transform="rotate(-9.74)" fill="url(#j)" fill-rule="evenodd"/><circle cx="44.59" cy="36.19" r="5.93" transform="rotate(-9.74)" fill="url(#k)" fill-rule="evenodd"/><path d="M34.13 6.35c-1.05 0-2.12.06-3.2.16C15.74 8 3.9 19.15 5.13 31.43c.04.44.1.88.18 1.3 7.02 2.5 16 3.95 25.1 3.9 11.73-.06 22.87-2.56 30.75-6.58.16-1.31.18-2.64.05-3.98-1-9.98-10.48-17.63-21.97-19.36a33.29 33.29 0 0 0-5.1-.36z" opacity=".64" fill="url(#l)"/></svg>