<svg xmlns="http://www.w3.org/2000/svg" xmlns:xlink="http://www.w3.org/1999/xlink" width="64" height="64" viewBox="0 0 16.93 16.93"><defs><linearGradient xlink:href="#a" id="d" x1="5.04" y1="8.5" x2="11.92" y2="8.5" gradientUnits="userSpaceOnUse"/><linearGradient id="a"><stop offset="0"/><stop offset=".24" stop-color="#333"/><stop offset=".5" stop-color="#666"/><stop offset=".76" stop-color="#333"/><stop offset="1"/></linearGradient><radialGradient xlink:href="#b" id="e" cx="6.32" cy="6.82" fx="6.32" fy="6.82" r="3.18" gradientTransform="matrix(1 0 0 1.50837 0 -4.33)" gradientUnits="userSpaceOnUse"/><linearGradient id="b"><stop offset="0" stop-color="#4d4d4d"/><stop offset="1"/></linearGradient><linearGradient xlink:href="#c" id="f" x1="6.41" y1="8.48" x2="10.58" y2="8.48" gradientUnits="userSpaceOnUse"/><linearGradient id="c"><stop offset="0" stop-color="#999"/><stop offset=".49" stop-color="#1a1a1a"/><stop offset="1" stop-color="#999"/></linearGradient></defs><path d="M2.97 14.54S1.8 15.71.9 15.7c0-.92 1.16-2.08 1.16-2.08L12.68 2.98l.93.93zM13.63 3.45l-.56-.56L15.2.57c.09-.1.24-.1.34-.01l.43.43c.1.1.1.25-.01.35z"/><path d="M13.14 3.44l-.46-.46L2.05 13.62S.89 14.78.89 15.7z" fill="#333"/><path d="M15.03 4.5l-3.06-3.06-.17.17-.25.24-.44.45.35.15s.18-.18.53-.16L14.1 4.4c.1.45-.13.67-.13.67l.15.35.5-.5z" fill="#1a1a1a"/><path d="M14.91 13.59s1.17 1.17 1.16 2.08c-.92 0-2.08-1.16-2.08-1.16L3.36 3.88l.92-.93z" fill="#333"/><path d="M3.82 2.93l-.55.56L.94 1.36a.24.24 0 0 1 0-.34l.42-.43c.1-.1.26-.1.35 0zM3.82 3.42l-.46.46L13.99 14.5s1.16 1.16 2.08 1.16z"/><path d="M4.88 1.53L1.82 4.6l.16.17.25.24.44.45.15-.35s-.18-.18-.16-.53l2.12-2.11c.44-.1.66.13.66.13l.35-.15-.5-.5z" fill="#1a1a1a"/><path d="M8.48 3.4C6.42 4.81 5.04 4.7 5.04 4.7v3.8c0 3.4 3.44 5.1 3.44 5.1s3.44-1.7 3.44-5.1V4.7s-1.4.11-3.44-1.3z" fill="url(#d)" transform="matrix(1.46922 0 0 1.46922 -3.97 -3.54)"/><path d="M8.48 13.3c-.59-.33-3.18-1.95-3.18-4.8V4.96a6.8 6.8 0 0 0 3.18-1.24c1.5 1 2.66 1.2 3.17 1.24V8.5c0 2.85-2.59 4.47-3.17 4.8z" fill="url(#e)" transform="matrix(1.46922 0 0 1.46922 -3.97 -3.54)"/><path d="M8.48 11.65c-2.54-1.79-2.03-5.6-2.03-5.6.51-.17 1.38-.4 2.02-.74.64.34 1.52.58 2.03.74 0 0 .7 3.7-2.02 5.6z" fill="url(#f)" transform="matrix(1.46922 0 0 1.46922 -3.97 -3.54)"/><path d="M8.49 12.2c-1.98-1.78-2.05-4.8-2-5.97.6-.18 1.33-.41 1.99-.71.67.3 1.42.54 2.01.72.1 1.13.14 4.1-2 5.96z" fill="#eec77a"/><path d="M8.49 12.2c-1.98-1.78-2.05-4.8-2-5.97.6-.18 1.33-.41 1.99-.71.67.3 1.42.54 2.01.72.1 1.13.14 4.1-2 5.96z" fill="#500"/><path d="M8.48 5.53l-.02-.01c-.65.3-1.38.53-1.97.71-.06 1.17 0 4.2 1.98 5.97l.01-.02z" fill="red"/></svg>