<svg xmlns="http://www.w3.org/2000/svg" xmlns:xlink="http://www.w3.org/1999/xlink" width="64" height="64" viewBox="0 0 16.93 16.93"><defs><linearGradient xlink:href="#a" id="d" x1="5.04" y1="8.5" x2="11.92" y2="8.5" gradientUnits="userSpaceOnUse" gradientTransform="matrix(1.46922 0 0 1.46922 -3.97 -3.54)"/><linearGradient id="a"><stop offset="0"/><stop offset=".24" stop-color="#333"/><stop offset=".5" stop-color="#666"/><stop offset=".76" stop-color="#333"/><stop offset="1"/></linearGradient><radialGradient xlink:href="#b" id="e" cx="6.32" cy="6.82" fx="6.32" fy="6.82" r="3.18" gradientTransform="matrix(1.46922 0 0 2.21613 -3.97 -9.9)" gradientUnits="userSpaceOnUse"/><linearGradient id="b"><stop offset="0" stop-color="#4d4d4d"/><stop offset="1"/></linearGradient><linearGradient xlink:href="#c" id="f" x1="6.41" y1="8.48" x2="10.58" y2="8.48" gradientUnits="userSpaceOnUse" gradientTransform="matrix(1.46922 0 0 1.46922 -3.97 -3.54)"/><linearGradient id="c"><stop offset="0" stop-color="#999"/><stop offset=".49" stop-color="#1a1a1a"/><stop offset="1" stop-color="#999"/></linearGradient></defs><path d="M2.97 14.54S1.8 15.71.9 15.7c0-.92 1.16-2.08 1.16-2.08L12.68 2.98l.93.93zM13.63 3.45l-.56-.56L15.2.57c.09-.1.24-.1.34-.01l.43.43c.1.1.1.25-.01.35z"/><path d="M13.14 3.44l-.46-.46L2.05 13.62S.89 14.78.89 15.7z" fill="#333"/><path d="M15.03 4.5l-3.06-3.06-.17.17-.25.24-.44.45.35.15s.18-.18.53-.16L14.1 4.4c.1.45-.13.67-.13.67l.15.35.5-.5z" fill="#1a1a1a"/><path d="M14.91 13.59s1.17 1.17 1.16 2.08c-.92 0-2.08-1.16-2.08-1.16L3.36 3.88l.92-.93z" fill="#333"/><path d="M3.82 2.93l-.55.56L.94 1.36a.24.24 0 0 1 0-.34l.42-.43c.1-.1.26-.1.35 0zM3.82 3.42l-.46.46L13.99 14.5s1.16 1.16 2.08 1.16z"/><path d="M4.88 1.53L1.82 4.6l.16.17.25.24.44.45.15-.35s-.18-.18-.16-.53l2.12-2.11c.44-.1.66.13.66.13l.35-.15-.5-.5z" fill="#1a1a1a"/><path d="M8.48 1.46c-3.02 2.07-5.05 1.9-5.05 1.9v5.6c0 5 5.05 7.48 5.05 7.48s5.05-2.49 5.05-7.49V3.37s-2.05.16-5.05-1.9z" fill="url(#d)"/><path d="M8.48 16c-.86-.48-4.66-2.87-4.66-7.05v-5.2a10 10 0 0 0 4.66-1.82 9.9 9.9 0 0 0 4.67 1.82v5.2c0 4.2-3.8 6.57-4.67 7.05z" fill="url(#e)"/><path d="M8.48 13.57c-3.73-2.62-2.97-8.23-2.97-8.23.75-.23 2.03-.58 2.96-1.08.95.5 2.23.85 2.98 1.09 0 0 1.02 5.45-2.97 8.22z" fill="url(#f)"/><path d="M8.49 12.2c-1.98-1.78-2.05-4.8-2-5.97.6-.18 1.33-.41 1.99-.71.67.3 1.42.54 2.01.72.1 1.13.14 4.1-2 5.96z" fill="#eec77a"/><path d="M8.49 12.2c-1.98-1.78-2.05-4.8-2-5.97.6-.18 1.33-.41 1.99-.71.67.3 1.42.54 2.01.72.1 1.13.14 4.1-2 5.96z" fill="#003380"/><path d="M8.48 5.53l-.02-.01c-.65.3-1.38.53-1.97.71-.06 1.17 0 4.2 1.98 5.97l.01-.02z" fill="#06f"/></svg>