<svg xmlns="http://www.w3.org/2000/svg" xmlns:xlink="http://www.w3.org/1999/xlink" width="64" height="64" viewBox="0 0 16.93 16.93"><defs><radialGradient xlink:href="#a" id="b" cx="5.93" cy="5.82" fx="5.93" fy="5.82" r="5.16" gradientTransform="matrix(1.51322 0 0 1.51323 -4.51 -4.1)" gradientUnits="userSpaceOnUse"/><linearGradient id="a"><stop offset="0" stop-color="#4d4d4d"/><stop offset="1"/></linearGradient></defs><path d="M8.47.67a7.8 7.8 0 1 1-4.29 14.3l-3 .96.97-2.89A7.78 7.78 0 0 1 8.47.67z" color="#000" fill="url(#b)"/><path d="M5.76 4.8a.72.72 0 0 0-.52.25c-.18.2-.7.66-.7 1.63 0 .97.71 1.91.81 2.04.1.13 1.37 2.2 3.37 2.98 2 .8 2 .52 2.37.5.36-.04 1.16-.48 1.33-.94.16-.46.16-.86.1-.94-.04-.09-.18-.13-.37-.23-.2-.1-1.17-.58-1.35-.64-.18-.07-.31-.1-.44.1s-.5.63-.62.77c-.11.13-.24.15-.43.05-.2-.1-.83-.3-1.59-.98a5.92 5.92 0 0 1-1.1-1.36c-.1-.2 0-.3.1-.4L7 7.28c.1-.12.13-.2.2-.34.06-.13.03-.23-.02-.33l-.6-1.47c-.17-.4-.33-.33-.45-.33l-.38-.01z" color="#000" fill="#0f0"/></svg>