<svg xmlns="http://www.w3.org/2000/svg" xmlns:xlink="http://www.w3.org/1999/xlink" width="64" height="64"><defs><linearGradient id="n"><stop offset="0" stop-color="red"/><stop offset="1" stop-color="#2b0000"/></linearGradient><radialGradient id="o" cx="12.01" cy="13.2" r="20" gradientTransform="matrix(0 2.61817 -3.2572 0 59.52 -16.15)" gradientUnits="userSpaceOnUse"><stop offset="0" stop-color="#4d4d4d"/><stop offset=".26" stop-color="#333"/><stop offset=".7"/><stop offset="1"/></radialGradient><linearGradient id="p" x1="24" x2="24" y1="44" y2="3.9" gradientTransform="matrix(1.34401 0 0 1.55834 -.26 -5.4)" gradientUnits="userSpaceOnUse"><stop offset="0"/><stop offset="1" stop-color="#333"/></linearGradient><linearGradient id="a"><stop offset="0"/><stop offset=".75"/><stop offset="1" stop-opacity="0"/></linearGradient><linearGradient id="b"><stop offset="0" stop-color="#5f5f5f"/><stop offset="1" stop-color="#060606" stop-opacity="0"/></linearGradient><linearGradient id="c"><stop offset="0"/><stop offset="1" stop-color="#f1f2f3" stop-opacity="0"/></linearGradient><linearGradient id="d"><stop offset="0" stop-color="#fff"/><stop offset="1" stop-color="#fff" stop-opacity="0"/></linearGradient><linearGradient id="e"><stop offset="0" stop-color="#ababab"/><stop offset="1" stop-color="#9ea3a8" stop-opacity="0"/></linearGradient><linearGradient id="f"><stop offset="0" stop-color="#f2f2f2"/><stop offset="0" stop-color="#dbdbdb"/><stop offset=".87" stop-color="#cfcfcf"/><stop offset="1" stop-color="#494949"/></linearGradient><linearGradient id="g"><stop offset="0" stop-color="#2a2812"/><stop offset=".5" stop-color="#5f3737"/><stop offset="1" stop-color="#923e3e"/></linearGradient><linearGradient id="h"><stop offset="0" stop-color="#830000"/><stop offset=".04" stop-color="#ae2626"/><stop offset=".59" stop-color="#3f1b1b"/><stop offset="1"/></linearGradient><linearGradient id="i"><stop offset="0" stop-color="#f4ddd4"/><stop offset=".68" stop-color="#e26a6a"/><stop offset="1" stop-color="#b01616"/></linearGradient><linearGradient id="j"><stop offset="0" stop-color="#fff" stop-opacity=".87"/><stop offset=".5" stop-color="#fff"/><stop offset=".75" stop-color="#fff" stop-opacity=".81"/><stop offset="1" stop-color="#fff" stop-opacity="0"/></linearGradient><linearGradient id="k"><stop offset="0" stop-color="#fff" stop-opacity="0"/><stop offset=".82" stop-color="#fff" stop-opacity="0"/><stop offset="1" stop-color="#fff"/></linearGradient><linearGradient id="l"><stop offset="0" stop-color="#fff"/><stop offset=".5" stop-color="#f7aeae" stop-opacity=".9"/><stop offset="1" stop-color="#efe4b6" stop-opacity="0"/></linearGradient><linearGradient id="m"><stop offset="0" stop-color="#121314"/><stop offset="1" stop-color="#121314" stop-opacity="0"/></linearGradient><radialGradient xlink:href="#a" id="q" cx="971.92" cy="749.09" fx="971.92" fy="749.09" r="78.94" gradientTransform="matrix(.17143 0 0 .02668 -134.6 36.5)" gradientUnits="userSpaceOnUse"/><linearGradient xlink:href="#b" id="r" gradientUnits="userSpaceOnUse" gradientTransform="matrix(-.20764 0 0 .12316 94.96 -9.49)" x1="297.19" y1="423.66" x2="311.39" y2="423.35"/><linearGradient xlink:href="#b" id="s" gradientUnits="userSpaceOnUse" x1="297.19" y1="423.66" x2="311.39" y2="423.35" gradientTransform="matrix(.20764 0 0 .12316 -31.26 -9.49)"/><radialGradient xlink:href="#c" id="t" cx="291.85" cy="421.4" fx="297.47" fy="419.27" r="18.36" gradientTransform="matrix(.19785 0 0 1.50196 -28.39 -593.63)" gradientUnits="userSpaceOnUse"/><radialGradient xlink:href="#d" id="u" cx="303.94" cy="503.25" fx="303.94" fy="503.25" r="4.91" gradientTransform="matrix(.20764 0 0 .27217 -31.26 -83.8)" gradientUnits="userSpaceOnUse"/><radialGradient xlink:href="#e" id="v" gradientUnits="userSpaceOnUse" gradientTransform="matrix(.19022 .0024 0 .0264 12.78 41.98)" cx="107.02" cy="534.98" fx="148.83" fy="531.56" r="47.73"/><radialGradient xlink:href="#f" id="w" gradientUnits="userSpaceOnUse" gradientTransform="matrix(.29647 0 0 .39073 -62.8 -73.64)" cx="318.64" cy="216.97" fx="318.64" fy="216.97" r="42.74"/><linearGradient xlink:href="#g" id="x" gradientUnits="userSpaceOnUse" gradientTransform="matrix(.20764 0 0 .12316 -31.26 -9.37)" spreadMethod="reflect" x1="309.59" y1="379.79" x2="308.77" y2="399.76"/><radialGradient xlink:href="#i" id="z" gradientUnits="userSpaceOnUse" gradientTransform="matrix(.33646 0 0 .04296 -113.98 3.02)" cx="432.92" cy="197.82" fx="433.03" fy="181.51" r="37.58"/><linearGradient xlink:href="#j" id="A" gradientUnits="userSpaceOnUse" gradientTransform="matrix(.29647 0 0 .16332 -58.34 -24.28)" x1="329.93" y1="184.79" x2="327.29" y2="341.79"/><radialGradient xlink:href="#k" id="B" gradientUnits="userSpaceOnUse" gradientTransform="matrix(.6202 0 0 .23175 -156.82 -47.99)" cx="304.04" cy="341.93" fx="303.77" fy="333.64" r="16.48"/><radialGradient xlink:href="#l" id="C" gradientUnits="userSpaceOnUse" gradientTransform="matrix(.1868 0 0 .34651 -49.2 -98.75)" cx="555.07" cy="348.46" fx="555.07" fy="348.46" r="3.82"/><linearGradient xlink:href="#m" id="D" gradientUnits="userSpaceOnUse" gradientTransform="matrix(.20764 0 0 .12316 -31.26 -9.37)" x1="344.37" y1="545.19" x2="308" y2="482.05"/><linearGradient xlink:href="#m" id="E" gradientUnits="userSpaceOnUse" gradientTransform="matrix(-.20764 0 0 .12316 94.98 -9.31)" x1="344.37" y1="545.19" x2="308" y2="482.05"/><radialGradient xlink:href="#n" id="y" cx="71.74" cy="15.78" fx="71.74" fy="15.78" r="13.31" gradientTransform="matrix(1 .0032 -.0091 2.8384 -39.86 -28.53)" gradientUnits="userSpaceOnUse"/></defs><rect x="5.79" y="1.61" width="52.42" height="60.78" rx="2.13" ry="2.47" fill="url(#o)" stroke="url(#p)" stroke-width=".51" stroke-linecap="round" stroke-linejoin="round"/><ellipse ry="2.11" rx="13.54" cy="56.49" cx="32.03" opacity=".46" fill="url(#q)"/><path d="M31.8 34.16l-3.77.57c1.31 1.14 2.51 2.91 2.51 4.8 0 3.77.35 8.8.29 13.42 0 .74-.57 1.6-1.77 2.06-5.03.17-8.74.8-8.74 1.54 0 .86 5.2 1.6 11.65 1.6 6.4 0 11.6-.74 11.6-1.6 0-.74-3.83-1.37-8.97-1.54-1.14-.46-1.71-1.32-1.71-2.06-.06-4.63.28-9.65.28-13.42 0-1.89 1.14-3.66 2.46-4.8l-3.77-.57z" fill="#d6d8da"/><path d="M31.87 34.16l3.8.58c-1.34 1.16-2.53 2.93-2.52 4.8.02 3.46-.28 7.92-.3 12.2-.29.64-.63.83-1 .83-.36 0-.71-.2-1.02-.9-.01-4.26-.3-8.7-.28-12.13.01-1.87-1.18-3.64-2.51-4.8l3.8-.57z" fill="url(#r)"/><path d="M31.83 34.16l-3.8.58c1.34 1.16 2.53 2.93 2.52 4.8-.02 3.46.28 7.92.29 12.2.3.64.64.83 1 .83.37 0 .72-.2 1.02-.9.02-4.26.31-8.7.3-12.13-.02-1.87 1.17-3.64 2.5-4.8l-3.8-.57z" fill="url(#s)"/><path d="M31.83 34.16l-3.8.58c1.34 1.16 2.53 2.93 2.52 4.8-.02 3.46.28 7.92.29 12.2.3.64.64.83 1 .83.37 0 .72-.2 1.02-.9.02-4.26.31-8.7.3-12.13-.02-1.87 1.17-3.64 2.5-4.8l-3.8-.57z" fill="url(#t)"/><path d="M31.84 50.8c-.4 0-.76.19-1 .46v1.3l-.01.08c.24.29.33.84 1.01.84.8 0 .78-.56 1.02-.86v-.07-1.26c-.24-.3-.6-.48-1.02-.48z" fill="url(#u)"/><path d="M33.11 55.12c-5.02-.11-9.08.46-9.08 1.14 0 .4 1.14.8 2.86 1.03a77.52 77.52 0 0 0 13.6 0c1.08-.23 1.7-.46 1.7-.74 0-.57-2.28-1.09-5.48-1.31l-1.54-.06v-.06l-2.06-.06z" fill="url(#v)"/><path d="M31.69 5.42c-6.4 0-11.66.52-11.66 1.15-.57 1.7-.74 3.3-1.03 4.97l18.97 5.25 6.4-5.48c0-1.72-.63-3.32-1.03-4.8 0-.57-5.2-1.09-11.65-1.09z" fill="url(#w)"/><path d="M34.26 35.13c-1.15 1.14-2 3.25-1.55 4.97 0 .11.12.05.18.17-.29-1.89.62-4 2.28-5.31z" fill="url(#x)"/><path d="M19 11.3a70.4 70.4 0 0 0-.57 8.4c0 9.54 5.94 15.77 13.31 15.77 7.31 0 13.31-6.28 13.31-15.77 0-2.22-.23-5.14-.68-8.4a56 56 0 0 1-12.63 1.32c-4.91 0-9.37-.51-12.74-1.31z" fill="url(#y)"/><ellipse ry="1.31" rx="12.62" cy="11.36" cx="31.69" fill="url(#z)"/><ellipse ry="1.03" rx="11.48" cy="6.57" cx="31.69" opacity=".31" fill="none" stroke="#000" stroke-width=".29" stroke-linecap="round" stroke-linejoin="round" stroke-dashoffset="4"/><path d="M40.71 7.2l-1.08.1c2 9.26 1.42 17.43-1.72 22.23-.17.34.57 1.6 1.09.8 5.71-8 3.14-15.71 1.71-23.14z" opacity=".69" fill="url(#A)"/><path d="M39.85 32.39a12.76 12.76 0 0 1-8 2.97c-3.7 0-6.4-1.49-8.1-2.97-1.72-1.49.11-1.09 8.05-1.09 8.28 0 9.6-.29 8.05 1.09z" fill="url(#B)"/><ellipse ry="1.31" rx=".74" cy="22.01" cx="54.42" transform="matrix(.9536 .30107 -.71405 .7001 0 0)" opacity=".78" fill="url(#C)"/><path d="M31.86 34.16h-.17l3.7.57c-1.3 1.14-2.5 2.91-2.5 4.8 0 3.77-.58 9.02-.58 13.7 0 1.32 1.66 2.7 4 2.7A6.57 6.57 0 0 1 34.6 55c-1.2-.46-1.77-1.37-1.77-2.06 0-4.63.28-9.65.28-13.42 0-1.89 1.15-3.66 2.52-4.8l-3.83-.57z" fill="url(#D)"/><path d="M31.86 34.16h.11l-3.71.57c1.31 1.14 2.51 2.97 2.51 4.85 0 3.77.34 8.86.34 13.48 0 1.38-1.7 2.8-3.08 2.86-.8-.06.74-.57 1.03-.91 1.14-.46 1.77-1.32 1.77-2.06 0-4.57-.29-9.6-.29-13.37 0-1.88-1.14-3.65-2.51-4.8l3.77-.57z" opacity=".38" fill="url(#E)"/></svg>