<svg xmlns="http://www.w3.org/2000/svg" xmlns:xlink="http://www.w3.org/1999/xlink" width="64" height="64" version="1"><defs><linearGradient id="b"><stop offset="0" stop-color="#00f"/><stop offset="1" stop-color="#0ff"/></linearGradient><linearGradient id="a"><stop offset="0" stop-color="#4d4d4d"/><stop offset="1"/></linearGradient><radialGradient xlink:href="#a" id="c" cx="16" cy="19.25" fx="16" fy="19.25" r="28" gradientUnits="userSpaceOnUse" gradientTransform="matrix(.88378 .33898 -.35812 .93367 8.75 -4.15)"/><linearGradient xlink:href="#b" id="d" x1="6.11" y1="18.94" x2="16.71" y2="61.32" gradientUnits="userSpaceOnUse"/></defs><path d="M32 4C16.49 4 4 16.49 4 32s12.49 28 28 28 28-12.49 28-28S47.51 4 32 4z" fill="url(#c)"/><path d="M6.1 42.64l.1.28A27.88 27.88 0 0 0 21.07 57.8 27.83 27.83 0 0 0 32 60a28.32 28.32 0 0 0 10.92-2.2A27.88 27.88 0 0 0 57.8 42.93l.05-.16-.21-.04H44c-.46-1.02-5.58-12.74.56-22 .16-.27.2-.62.11-.92a1.22 1.22 0 0 0-.26-.52 1.2 1.2 0 0 0-.93-.38c-11.08.17-17.28 6.49-20.55 12.64-2.99 5.63-3.44 10.28-3.53 11.18H6.35l-.24-.08z" fill="url(#d)"/></svg>