<svg xmlns="http://www.w3.org/2000/svg" xmlns:xlink="http://www.w3.org/1999/xlink" width="64" height="64"><defs><linearGradient id="b"><stop offset="0" stop-color="gray"/><stop offset="1" stop-color="#e6e6e6"/></linearGradient><linearGradient id="a"><stop offset="0"/><stop offset="1" stop-color="#333"/></linearGradient><linearGradient id="d"><stop offset="0" stop-color="#fff"/><stop offset="1" stop-color="#aeaeae"/></linearGradient><linearGradient xlink:href="#a" id="f" x1="15.65" y1="18.16" x2="32.4" y2="62.46" gradientUnits="userSpaceOnUse"/><linearGradient xlink:href="#b" id="g" x1="3.3" y1="27.51" x2="3.3" y2="55.43" gradientUnits="userSpaceOnUse"/><linearGradient xlink:href="#c" id="h" x1="-43.71" y1="70.48" x2="-26.16" y2="64.41" gradientUnits="userSpaceOnUse" gradientTransform="translate(-20)"/><linearGradient id="c"><stop offset="0"/><stop offset=".43" stop-color="#1a1a1a"/><stop offset=".67" stop-color="#4d4d4d"/><stop offset="1"/></linearGradient><radialGradient xlink:href="#d" id="i" gradientUnits="userSpaceOnUse" gradientTransform="matrix(-1.56627 .2603 -3.36503 -8.85777 30.4 79.3)" cx="49.01" cy="8.5" fx="47.37" fy="6.77" r="3.98"/><radialGradient xlink:href="#e" id="j" cx="19.35" cy="42.51" fx="19.35" fy="42.51" r="4.63" gradientTransform="matrix(.96732 0 0 .96732 3.61 1.05)" gradientUnits="userSpaceOnUse"/><linearGradient id="e"><stop offset="0" stop-color="#333"/><stop offset="1"/></linearGradient><radialGradient xlink:href="#e" id="k" cx="15.54" cy="30.12" fx="15.54" fy="30.12" r="3.63" gradientTransform="matrix(.96732 0 0 .96732 3.61 1.05)" gradientUnits="userSpaceOnUse"/><radialGradient xlink:href="#e" id="l" gradientUnits="userSpaceOnUse" gradientTransform="matrix(.96732 0 0 .96732 3.61 1.05)" cx="11.82" cy="37.93" fx="11.82" fy="37.93" r="3.28"/><radialGradient xlink:href="#e" id="m" cx="29.36" cy="19.35" fx="29.36" fy="19.35" r="2.38" gradientTransform="matrix(.96732 0 0 .96732 3.61 1.05)" gradientUnits="userSpaceOnUse"/><radialGradient xlink:href="#e" id="n" cx="22.21" cy="20.97" fx="22.21" fy="20.97" r="1.82" gradientTransform="matrix(.96732 0 0 .96732 3.61 1.05)" gradientUnits="userSpaceOnUse"/><radialGradient xlink:href="#e" id="o" cx="35.37" cy="16.87" fx="35.37" fy="16.87" r="1.82" gradientTransform="matrix(.96732 0 0 .96732 3.61 1.05)" gradientUnits="userSpaceOnUse"/><radialGradient xlink:href="#e" id="p" cx="22.5" cy="26.88" fx="22.5" fy="26.88" r="3.04" gradientTransform="matrix(.96732 0 0 .96732 3.61 1.05)" gradientUnits="userSpaceOnUse"/></defs><g transform="matrix(1.227 0 0 1.227 3.1 -19.63)"><rect x="1.2" y="18.44" width="44.7" height="39.1" rx="2.79" ry="2.79" fill="url(#f)"/><rect x="3.3" y="27.51" width="40.49" height="27.92" rx=".71" ry=".71" fill="url(#g)"/><path d="M40.78 22.17l-.57.58 1.01 1.01-1 1.02.56.57 1.02-1.01 1.01 1.01.58-.57-1.02-1.02 1.02-1.01-.58-.58-1 1.02zm-13.02.4v2.4h2.4v-2.4zm-22.51.11l-1.6 1.59.58.58 1.02-1.02 1.01 1.02.58-.58-1.02-1.02zm23.31.67h.8v.81h-.8v-.8zm5.22 0v.81h3.2v-.81z" style="text-indent:0;text-transform:none" fill="#e6e6e6" fill-opacity=".66"/></g><path d="M-30.5 116.2c.24.62-1.23 3-5 4.29-3.83 1.31-6.49.53-6.79-.25L-84.7 8.63l11.79-4.05L-30.5 116.2" fill="url(#h)" fill-rule="evenodd" transform="matrix(.3595 0 0 .3595 70.26 18.64)"/><path d="M-64.04 27.92c-.13-1.44-5.04-14.16-5.82-15.24l-9.43 3.25 5.82 15.24zm-8.43 2.9l-5.82-15.23-3.33 1.13c.1 1.24 4.91 14 5.83 15.24z" fill="url(#i)" transform="matrix(.3595 0 0 .3595 70.26 18.64)"/><path d="M44 20.15c-.08-.2-1.04-.5-2.4-.03-1.37.47-1.94 1.22-1.84 1.48l.05.14 4.23-1.46c-.06-.16.02.03-.04-.13" fill-rule="evenodd"/><path d="M20.33 46.64c.13.06 2.66-2.33 2.8-2.38.14-.05 3.62.04 3.68-.1.06-.13-2.33-2.66-2.39-2.8-.05-.13.04-3.61-.09-3.67-.13-.06-2.67 2.33-2.8 2.38-.14.05-3.62-.04-3.68.1-.06.13 2.33 2.66 2.38 2.8.05.13-.04 3.61.1 3.67z" color="#000" fill="url(#j)"/><path d="M20.45 33.69c.1-.06-.13-2.85-.1-2.96.05-.11 1.85-2.25 1.8-2.36-.06-.1-2.85.13-2.96.1-.11-.04-2.25-1.85-2.36-1.8-.1.06.13 2.85.1 2.96-.04.11-1.85 2.25-1.8 2.36.06.1 2.85-.13 2.96-.09.11.04 2.25 1.84 2.36 1.79z" color="#000" fill="url(#k)"/><path d="M15.62 40.9c.1 0 .58-2.24.63-2.32.06-.08 1.98-1.32 1.96-1.41-.01-.1-2.25-.58-2.33-.64-.08-.05-1.31-1.97-1.4-1.96-.1.02-.59 2.25-.65 2.33-.05.08-1.97 1.32-1.95 1.41.01.1 2.25.59 2.33.64.07.06 1.31 1.98 1.4 1.96z" color="#000" fill="url(#l)"/><path d="M31.21 22.07c.07.02 1.22-1.27 1.29-1.3.06-.04 1.8-.14 1.81-.2.03-.08-1.26-1.23-1.3-1.3-.03-.06-.13-1.79-.2-1.81-.07-.03-1.22 1.27-1.28 1.3-.07.03-1.8.13-1.82.2-.03.07 1.27 1.22 1.3 1.29.03.06.13 1.8.2 1.82z" color="#000" fill="url(#m)"/><path d="M23.34 22.18c.02.05 1.4-.03 1.46 0 .06.01 1.1.93 1.14.9.06-.02-.02-1.4 0-1.46.02-.05.94-1.09.91-1.14-.02-.05-1.4.03-1.46 0-.06-.01-1.1-.93-1.14-.9-.06.02.02 1.4 0 1.46-.02.05-.94 1.09-.91 1.14z" color="#000" fill="url(#n)"/><path d="M36.07 18.21c.02.06 1.4-.02 1.46 0 .05.02 1.09.94 1.14.91.05-.02-.02-1.4 0-1.46.01-.06.93-1.1.9-1.14-.02-.06-1.4.02-1.45 0-.06-.02-1.1-.94-1.15-.91-.05.02.03 1.4.01 1.46-.02.06-.94 1.1-.91 1.14z" color="#000" fill="url(#o)"/><path d="M28.3 28.36c.05-.08-1.52-1.75-1.55-1.84-.04-.09.03-2.37-.06-2.41-.09-.04-1.75 1.52-1.84 1.56-.1.03-2.38-.03-2.42.06-.04.08 1.53 1.75 1.56 1.84.04.09-.03 2.37.06 2.41.09.04 1.75-1.52 1.84-1.56.1-.03 2.38.03 2.42-.06z" color="#000" fill="url(#p)"/></svg>