<svg xmlns="http://www.w3.org/2000/svg" width="64" height="64"><defs><radialGradient id="b" cx="12.01" cy="13.2" r="20" gradientTransform="matrix(0 2.36188 -3.40694 0 60.79 -11.43)" gradientUnits="userSpaceOnUse"><stop offset="0" stop-color="#4d4d4d"/><stop offset=".26" stop-color="#333"/><stop offset=".7"/><stop offset="1"/></radialGradient><linearGradient id="c" x1="24" x2="24" y1="44" y2="3.9" gradientTransform="translate(-1.74 -1.74) scale(1.4058)" gradientUnits="userSpaceOnUse"><stop offset="0"/><stop offset="1" stop-color="#333"/></linearGradient><linearGradient id="a"><stop offset="0" stop-color="#0ff"/><stop offset="1" stop-color="#00f"/></linearGradient><linearGradient id="d" gradientUnits="userSpaceOnUse" x1="66.33" y1="43.35" x2="414.61" y2="-157.74" gradientTransform="rotate(-60 60.21 19.53) scale(.12501)"><stop offset="0" stop-color="#5f5"/><stop offset="1" stop-color="#0f0"/></linearGradient></defs><rect x="4.59" y="4.59" width="54.83" height="54.83" rx="2.23" ry="2.23" fill="url(#b)" stroke="url(#c)" stroke-width=".5" stroke-linecap="round" stroke-linejoin="round"/><path d="M53.87 14.45h-.09c-.89.03-1.75.5-2.23 1.33L36.64 41.6 28.4 27.32c-.1-.18-.22-.35-.36-.51l-.08-.08-.03-.04-.04-.04a1.1 1.1 0 0 1-.08-.07c-.43-.38-.98-.61-1.55-.66h-.1H25.86h-.01c-.57.05-1.11.28-1.55.66l-.08.08-.03.03-.04.04-.07.07v.01c-.14.16-.27.33-.36.51l-8.26 14.3-3-5.21a2.64 2.64 0 1 0-4.6 2.65l5.3 9.16c.53.91 1.51 1.4 2.5 1.32a2.63 2.63 0 0 0 2.1-1.32l8.3-14.36 8.25 14.29c.07.14.16.27.26.4l.01.01.04.04.06.08.03.03c.64.68 1.58.97 2.48.78h.02l.07-.03h.06l.04-.02.1-.03.06-.02a2.71 2.71 0 0 0 .73-.4l.05-.05.03-.02.07-.07.03-.02c.22-.2.4-.45.54-.7l17.14-29.7a2.64 2.64 0 0 0-2.26-3.98zm0 0" opacity=".23" fill="#c6e9af"/><path d="M53.87 12.45h-.09c-.89.03-1.75.5-2.23 1.33L36.64 39.6 28.4 25.32c-.1-.18-.22-.35-.36-.51l-.08-.08-.03-.04-.04-.04a1.1 1.1 0 0 1-.08-.07c-.43-.38-.98-.61-1.55-.66h-.1H25.86h-.01c-.57.05-1.11.28-1.55.66l-.08.08-.03.03-.04.04-.07.07v.01c-.14.16-.27.33-.36.51l-8.26 14.3-3-5.21a2.64 2.64 0 1 0-4.6 2.65l5.3 9.16c.53.91 1.51 1.4 2.5 1.32a2.63 2.63 0 0 0 2.1-1.32l8.3-14.36 8.25 14.29c.07.14.16.27.26.4l.01.01.04.04.06.08.03.03c.64.68 1.58.97 2.48.78h.02l.07-.03h.06l.04-.02.1-.03.06-.02a2.71 2.71 0 0 0 .73-.4l.05-.05.03-.02.07-.07.03-.02c.22-.2.4-.45.54-.7l17.14-29.7a2.64 2.64 0 0 0-2.26-3.98zm0 0" fill="url(#d)"/></svg>