<?xml version="1.0" encoding="UTF-8" standalone="no"?><svg xmlns:dc="http://purl.org/dc/elements/1.1/" xmlns:cc="http://creativecommons.org/ns#" xmlns:rdf="http://www.w3.org/1999/02/22-rdf-syntax-ns#" xmlns="http://www.w3.org/2000/svg" xmlns:xlink="http://www.w3.org/1999/xlink" width="64" height="64" viewBox="0 0 16.93 16.93"><metadata><rdf:RDF><cc:Work><dc:format>image/svg+xml</dc:format><dc:type rdf:resource="http://purl.org/dc/dcmitype/StillImage"/><dc:title/></cc:Work></rdf:RDF></metadata><defs><linearGradient x1="21.13" y1="14.63" x2="29" y2="28" id="j" xlink:href="#a" gradientUnits="userSpaceOnUse" gradientTransform="translate(.25 283.78) scale(.25321)"/><linearGradient id="a"><stop offset="0" stop-color="#fff" stop-opacity=".33"/><stop offset="1" stop-color="#fff" stop-opacity=".6"/></linearGradient><linearGradient id="b"><stop offset="0"/><stop offset="1" stop-opacity="0"/></linearGradient><linearGradient xlink:href="#c" id="h" x1="3.38" y1="8.18" x2="9.44" y2="2.12" gradientUnits="userSpaceOnUse"/><linearGradient id="c"><stop offset="0" stop-color="#333"/><stop offset=".49"/><stop offset="1" stop-color="#1a1a1a"/></linearGradient><linearGradient xlink:href="#a" id="i" gradientUnits="userSpaceOnUse" gradientTransform="translate(.25 283.78) scale(.25321)" x1="21.13" y1="14.63" x2="29" y2="28"/><linearGradient id="f"><stop offset="0" stop-color="#ffd019" stop-opacity=".8"/><stop offset="1" stop-color="red" stop-opacity="0"/></linearGradient><linearGradient id="d"><stop offset="0" stop-color="#fff"/><stop offset=".25" stop-color="#ffdb54" stop-opacity=".67"/><stop offset=".5" stop-color="#ff8930" stop-opacity=".35"/><stop offset=".75" stop-color="#ff3e00" stop-opacity=".12"/><stop offset="1" stop-color="red" stop-opacity="0"/></linearGradient><radialGradient xlink:href="#d" id="k" gradientUnits="userSpaceOnUse" cx="16" cy="44" fx="16" fy="44" r="11.95"/><linearGradient y2="16" x2="35" y1="53" x1="21" gradientUnits="userSpaceOnUse" id="l" xlink:href="#e"/><linearGradient id="e"><stop offset="0" stop-color="red"/><stop offset="1" stop-color="#ffb400"/></linearGradient><linearGradient xlink:href="#f" id="m" x1="22" y1="53" x2="39" y2="16" gradientUnits="userSpaceOnUse"/><linearGradient xlink:href="#g" id="n" x1="20.5" y1="46.5" x2="40.1" y2="32.38" gradientUnits="userSpaceOnUse" gradientTransform="matrix(.26458 0 0 .26458 -.06 -.44)"/><linearGradient id="g"><stop offset="0" stop-color="#fff"/><stop offset="1" stop-color="#fff" stop-opacity="0"/></linearGradient></defs><g stroke-width=".57"><path d="M6.33.85A4.2 4.2 0 0 0 2.1 5.07a4.2 4.2 0 0 0 4.23 4.22 4.2 4.2 0 0 0 4.22-4.22A4.2 4.2 0 0 0 6.33.85zm0 5.23c-.56 0-1.02-.46-1.02-1.01 0-.56.46-1.02 1.02-1.02a1.02 1.02 0 0 1 0 2.03z" fill="url(#h)" transform="translate(-2.61 -.41) scale(1.75147)"/><path transform="translate(-2.61 -498.36) scale(1.75147)" d="M7.45 285.45l-.72 2.84c.22.06.4.2.53.4l2.51-1.54a3.82 3.82 0 0 0-2.32-1.7z" fill="url(#i)"/><path transform="translate(-2.61 -498.36) scale(1.75147)" d="M4.9 293.17l.96-2.77a.9.9 0 0 1-.5-.44l-2.63 1.32a3.82 3.82 0 0 0 2.17 1.89z" fill="url(#j)"/><path d="M8.35 5.34a3.04 3.13 0 1 0 0 6.25 3.04 3.13 0 0 0 0-6.25zm0 4.82c-.92 0-1.66-.76-1.66-1.7 0-.92.74-1.7 1.66-1.7.89 0 1.65.76 1.65 1.7 0 .92-.75 1.7-1.65 1.7z" fill="#1a1a1a"/></g><path transform="matrix(.22132 0 0 .22132 .54 .93)" style="marker:none" d="M27.95 44a11.95 11.95 0 1 1-23.9 0 11.95 11.95 0 0 1 23.9 0z" color="#000" overflow="visible" fill="url(#k)" stroke-width="1.4"/><g color="#000"><path style="marker:none" d="M32 15c2.6.26 5.03 1.08 7.13 2.24A17.23 17.23 0 0 1 48.1 34a16.02 16.02 0 0 1-5.59 10.52 15.35 15.35 0 0 1-5.5 2.9c-1.82.54-3.53.7-5.02.64-.95-.02-1.83-.14-2.64-.31a21.24 21.24 0 0 1-5.75-2.22 30.4 30.4 0 0 1-4.48-3.05c-1.25-1.02-2.28-1.98-3.16-2.66-.89-.68-1.66-1.08-2.32-.9-.67.18-1.17.94-1.31 2.25-.14 1.32.1 3.2 1 5.3a18.2 18.2 0 0 0 4.85 6.5A20.66 20.66 0 0 0 32 57.93a22.84 22.84 0 0 0 16.35-7.6A22.48 22.48 0 0 0 53.89 34c-.22-2.7-.95-5.38-2.2-7.87a20 20 0 0 0-11.96-10.3A19.29 19.29 0 0 0 32 15z" overflow="visible" opacity=".15" fill="url(#l)" transform="matrix(.26458 0 0 .26458 -.06 -.44)"/><path style="marker:none" d="M32 15a18.87 18.87 0 0 1 12.91 6.09A18.16 18.16 0 0 1 49.56 34a17.54 17.54 0 0 1-5.58 11.98 17.2 17.2 0 0 1-6.14 3.62 17.19 17.19 0 0 1-9 .57 19.88 19.88 0 0 1-6.58-2.78 23.23 23.23 0 0 1-4.57-3.91c-1.17-1.3-2-2.49-2.63-3.32-.63-.84-1.08-1.33-1.41-1.24-.34.09-.52.76-.4 1.91.11 1.16.55 2.8 1.54 4.64 1 1.84 2.56 3.87 4.75 5.63A20.03 20.03 0 0 0 32 55.47a20.94 20.94 0 0 0 14.9-6.58A20.77 20.77 0 0 0 52.43 34a20.23 20.23 0 0 0-6.48-13.96A19.54 19.54 0 0 0 32 15z" overflow="visible" fill="url(#m)" transform="matrix(.26458 0 0 .26458 -.06 -.44)"/><path style="marker:none" d="M8.41 3.53a5.02 5.02 0 0 1 4.53 3.22 4.87 4.87 0 0 1-1.17 5.17 4.8 4.8 0 0 1-6.12.42 5.65 5.65 0 0 1-1.84-2.11c-.13-.25-.21-.39-.25-.38-.05.02-.06.18.01.47.06.28.2.69.48 1.14a5.1 5.1 0 0 0 3.32 2.34 4.9 4.9 0 0 0 2.91-.26 5.26 5.26 0 0 0 2.93-6.9 5.16 5.16 0 0 0-2.81-2.75 5.06 5.06 0 0 0-1.99-.36z" overflow="visible" fill="#ffe027" fill-opacity=".75"/><path style="marker:none" d="M8.41 3.53a5.03 5.03 0 0 1 4.95 5.02 4.96 4.96 0 0 1-1.47 3.48 4.94 4.94 0 0 1-7.57-.76 5.4 5.4 0 0 1-.58-1.02l-.18-.4c-.02.01 0 .17.08.44a5.22 5.22 0 0 0 4.77 3.42 5.12 5.12 0 0 0 3.63-1.52A5.13 5.13 0 0 0 12 4.97a5.06 5.06 0 0 0-3.58-1.44z" overflow="visible" fill="#fff"/></g><path style="marker:none" d="M8.41 3.53a5.02 5.02 0 0 1 4.53 3.22 4.87 4.87 0 0 1-1.17 5.17 4.8 4.8 0 0 1-6.12.42 5.65 5.65 0 0 1-1.84-2.11c-.13-.25-.21-.39-.25-.38-.05.02-.06.18.01.47.06.28.2.69.48 1.14a5.1 5.1 0 0 0 3.32 2.34 4.9 4.9 0 0 0 2.91-.26 5.26 5.26 0 0 0 2.93-6.9 5.16 5.16 0 0 0-2.81-2.75 5.06 5.06 0 0 0-1.99-.36z" color="#000" overflow="visible" fill="url(#n)"/></svg>