<svg xmlns="http://www.w3.org/2000/svg" xmlns:xlink="http://www.w3.org/1999/xlink" width="64" height="64" version="1"><defs><linearGradient id="a"><stop offset="0" stop-color="#4d4d4d"/><stop offset="1"/></linearGradient><radialGradient xlink:href="#a" id="b" cx="16" cy="19.25" fx="16" fy="19.25" r="28" gradientUnits="userSpaceOnUse" gradientTransform="matrix(.88378 .33898 -.35812 .93367 8.75 -4.15)"/></defs><path d="M32 4C16.49 4 4 16.49 4 32s12.49 28 28 28 28-12.49 28-28S47.51 4 32 4z" fill="url(#b)"/><path d="M42.07 16.24c-1.65.23-2.43 10.39-1.7 11.76a20.14 20.14 0 0 0 3.67-6.09c-.41 1.24-.96 7.14-.73 7.19.45.64 7.18-10.4 5.22-11.22-.28-.09-2.16 3.4-3.71 6.87 0-1.46 1.23-6.04.73-7.41-1-.32-2.89 4.02-3.66 6.04-.23-1.01 1.05-6.64.18-7.14zm-14.78 1.05c-.5 0-.92.18-1.06.18-3.16.46-2.2 4.9-.87 9.07.14 1.05-1 .64-1.69-.46-2.47-6-3.52-5.82-4.21-5.95-.64-.19-2.93 1-2.88 3.43 0 .69.91 3.98.91 5-2.88 4.89-4.07 9.78-.46 14.77 3.62 4.81 14.38 5 16.3 3.85.73-.5 11.72-5.95 14.28-8.01 3.75-3.16-.14-7.1-1-7.64-7.84-5.09-15.84-4.03-15.94-4.86-.09-.91 0-3.52-.18-4.44-.5-4.34-2.1-4.94-3.2-4.94z" fill="#0ff"/><path d="M37.86 33.31a20.6 20.6 0 0 1-4.21 5.81 29.75 29.75 0 0 1 6.4-3.57c.78.19-6.58 9.75-8.05 8.24-.23-.18 1.6-2.84 4.62-5.17-1.37.6-5.4 2.8-6.86 2.88-.64-.82 3.57-3.48 4.48-5.03-1.05.18-6.54 2.75-7.32 2.15-.46-1.6 9.2-4.4 10.99-5.31z" fill="#165044"/></svg>