<svg xmlns="http://www.w3.org/2000/svg" xmlns:xlink="http://www.w3.org/1999/xlink" width="64" height="64"><defs><linearGradient id="c"><stop offset="0" stop-color="#fd5"/><stop offset="1" stop-color="#d45500"/></linearGradient><linearGradient id="b"><stop offset="0"/><stop offset=".61"/><stop offset="1" stop-color="#333"/></linearGradient><linearGradient id="a"><stop offset="0" stop-color="#edd563"/><stop offset="1" stop-color="#e08223"/></linearGradient><radialGradient id="o" cx="33.25" cy="41.3" r="2.67" fx="33.63" gradientTransform="matrix(5.72338 0 0 5.72338 -151.18 -184.99)" gradientUnits="userSpaceOnUse" xlink:href="#b"/><radialGradient id="n" cx="33.25" cy="41.3" r="2.67" fx="33.63" gradientTransform="matrix(5.72338 0 0 5.72338 -141.1 -184.61)" gradientUnits="userSpaceOnUse" xlink:href="#b"/><radialGradient id="m" cx="33.25" cy="41.3" r="2.67" fx="33.63" gradientTransform="matrix(5.72338 0 0 5.72338 -153.81 -194.26)" gradientUnits="userSpaceOnUse" xlink:href="#b"/><radialGradient id="l" cx="33.25" cy="41.3" r="2.67" fx="33.63" gradientTransform="matrix(5.72338 0 0 5.72338 -143.91 -202.7)" gradientUnits="userSpaceOnUse" xlink:href="#b"/><radialGradient id="k" cx="33.25" cy="41.3" r="2.67" fx="33.63" gradientTransform="matrix(5.72338 0 0 5.72338 -135.93 -193.84)" gradientUnits="userSpaceOnUse" xlink:href="#b"/><radialGradient id="j" cx="33.25" cy="41.3" r="2.67" fx="33.63" gradientTransform="matrix(5.72338 0 0 5.72338 -128.92 -188)" gradientUnits="userSpaceOnUse" xlink:href="#b"/><radialGradient id="i" cx="33.25" cy="41.3" r="2.67" fx="33.63" gradientTransform="matrix(6.79473 0 0 6.79473 -199.62 -229.9)" gradientUnits="userSpaceOnUse" xlink:href="#b"/><radialGradient id="h" cx="33.25" cy="41.3" r="2.67" fx="33.63" gradientTransform="matrix(5.72338 0 0 5.72338 -152.86 -203.02)" gradientUnits="userSpaceOnUse" xlink:href="#b"/><radialGradient id="g" cx="33.25" cy="41.3" r="2.67" fx="33.63" gradientTransform="matrix(5.72338 0 0 5.72338 -175.5 -184.61)" gradientUnits="userSpaceOnUse" xlink:href="#b"/><radialGradient id="f" cx="33.25" cy="41.3" r="2.67" fx="33.63" gradientTransform="matrix(5.72338 0 0 5.72338 -169.18 -196.76)" gradientUnits="userSpaceOnUse" xlink:href="#b"/><radialGradient id="e" cx="33.25" cy="41.3" r="2.67" fx="33.63" gradientTransform="matrix(5.72338 0 0 5.72338 -160.68 -201.08)" gradientUnits="userSpaceOnUse" xlink:href="#b"/><radialGradient id="d" cx="19.62" cy="9.39" r="20.49" gradientTransform="matrix(.1685 .96888 -1.21003 .21044 27.71 -6.89)" gradientUnits="userSpaceOnUse" xlink:href="#c"/></defs><path d="M40.75 27.9a16.78 16.78 0 1 1-33.55 0 16.78 16.78 0 1 1 33.55 0z" fill="url(#d)"/><path d="M35.12 19.68c-3.45 0-9.41-.01-10.02 3.26-4.05-.29-7.18 2.02-7.18 5.34-5.1-1.34-9.16-.23-9.95 3.88-.42 2.24.57 3.94.2 4.38-5.9 2.69-6.67 6.51-6.67 9 0 3.86 6.25 3.86 10.11 3.86 7.25 3.54 13.04.84 20.39 0 3.4 0 7.82 3.9 12.5 3.9 3.4 0 7.6-3.9 11-3.9 3.87 0 7.2-3.13 7-7-.2-3.49-6.56-5.96-6.56-5.96s-2-9.4-10.65-6.66c2.77-2.45 1.8-6.16-.78-5.4-.39.1-2.36.02-2.74.09a7.03 7.03 0 0 0-6.65-4.8z"/><path d="M29.62 29.03c0 3.45-2.8 6.25-6.26 6.25s-4.7-2.8-4.7-6.25c0-3.46 1.57-4.7 4.7-4.7 3.45 0 6.26 1.24 6.26 4.7z" fill="url(#e)"/><path d="M21.12 33.35c0 3.45-2.8 4.69-6.26 4.69-4.69 0-6.25-1.24-6.25-4.7 0-3.45 2.8-4.69 6.25-4.69 3.46 0 6.26 1.24 6.26 4.7z" fill="url(#f)"/><path d="M14.8 45.49c0 3.45-2.81 3.12-6.26 3.12-3.46 0-6.26-1.56-6.26-3.12.07-2.95 3.13-6.26 6.26-7.82 3.09-1.55 6.25 4.36 6.25 7.82z" fill="url(#g)"/><path d="M37.44 27.1a6.26 6.26 0 1 1-12.52 0 6.26 6.26 0 0 1 12.52 0z" fill="url(#h)"/><path d="M26.3 43.3a7.43 7.43 0 1 1-14.85 0 7.43 7.43 0 0 1 14.85 0z" fill="url(#i)"/><path d="M61.38 42.1a6.26 6.26 0 0 1-12.52 0c0-3.45 3-4.62 6.46-4.62 1.56 0 6.25 3.13 6.06 4.62z" fill="url(#j)"/><path d="M54.37 36.27a6.26 6.26 0 1 1-12.51 0 6.26 6.26 0 0 1 12.51 0z" fill="url(#k)"/><path d="M46.07 27.4c-2.99 2.7-3.42 6.07-5.94 6.25-3.45.26-6.26-2.8-6.26-6.25 0-3.46 3.94-7.85 6.46-1.5 1.76.07 5.74-1.96 5.74 1.5z" fill="url(#l)"/><path d="M36.49 35.85a6.26 6.26 0 0 1-12.51 0c0-3.46 2.8-3.13 6.25-3.13 1.77-1.5 6.26-.33 6.26 3.13z" fill="url(#m)"/><path d="M49.2 45.49a6.26 6.26 0 0 1-12.51 0c0-3.46 3-4.63 6.45-4.63 1.57 0 6.06 1.17 6.06 4.63z" fill="url(#n)"/><path d="M39.12 45.11c0 3.46-2.8 3.13-6.26 3.13-3.45 0-6.26-1.56-6.26-3.13 1.57-3.13 3.13-6.25 6.26-7.82 3.1-1.54 6.26 4.37 6.26 7.82z" fill="url(#o)"/></svg>