<svg xmlns="http://www.w3.org/2000/svg" xmlns:xlink="http://www.w3.org/1999/xlink" width="64" height="64"><defs><linearGradient id="b"><stop offset="0" stop-color="red"/><stop offset="1" stop-color="#ff2a2a"/></linearGradient><linearGradient id="a"><stop offset="0" stop-color="#5df"/><stop offset="1" stop-color="#04a"/></linearGradient><radialGradient id="c" cx="12.01" cy="13.2" r="20" gradientTransform="matrix(0 2.36188 -3.40694 0 60.79 -11.43)" gradientUnits="userSpaceOnUse"><stop offset="0" stop-color="#4d4d4d"/><stop offset=".26" stop-color="#333"/><stop offset=".7"/><stop offset="1"/></radialGradient><linearGradient id="d" x1="24" x2="24" y1="44" y2="3.9" gradientTransform="translate(-1.74 -1.74) scale(1.4058)" gradientUnits="userSpaceOnUse"><stop offset="0"/><stop offset="1" stop-color="#333"/></linearGradient><linearGradient xlink:href="#b" id="e" x1="11.36" y1="32" x2="52.64" y2="32" gradientUnits="userSpaceOnUse"/></defs><rect x="4.59" y="4.59" width="54.83" height="54.83" rx="2.23" ry="2.23" fill="url(#c)" stroke="url(#d)" stroke-width=".5" stroke-linecap="round" stroke-linejoin="round"/><path d="M23.04 18.68h-.33l-10.08 1.88c-.61.23-1.13.6-1.22.94-.23.6.37 2.53 1.22 3.84 3.28 3.94 6.94 4.92 10.5 7.03.47.47.6.7-2.58 2.11-4.92 2.16-6.51 4.03-7.45 6.75-.28.8-.38 2.96-.19 3.52.23.7.37.84 5.16-.1 4.78-.93 4.36-.93 4.78-1.3.33-.34.33-.38.47-1.88l.37-2.86a5.26 5.26 0 0 1 1.83-2.63c2.95-2.06 8.58-1.03 11.58 2.2 1.17 1.18 1.88 2.91 2.44 4.83.33 1.08.7 1.55 1.22 1.64.47.1.47-.04 6.56-1.21 3.38-.66 4.78-.94 4.97-1.08.47-.38.47-1.17 0-2.53a10.78 10.78 0 0 0-4.31-5.63 29.3 29.3 0 0 0-5.16-2.9c-2.34-1.13-3.47-1.41-3.47-1.79 0-.28.94-.42 2.81-.94 4.13-1.26 6.1-3 6.1-6.18 0-1.41-.28-2.53-.7-2.91-.52-.47-1.5-.47-3.76-.1-7.4 1.37-6.89 1.32-7.22 1.88-.18.28-.18.33.15 1.69l.37 1.92c0 .47-.66 1.27-.94 1.55-.75.7-2.39 1.12-4.08 1.12a6.56 6.56 0 0 1-5.15-2.34c-1.13-1.17-1.7-2.34-2.44-4.4-.66-1.88-.75-2.12-1.4-2.12z" opacity=".75" fill="url(#e)"/></svg>