<svg xmlns="http://www.w3.org/2000/svg" xmlns:xlink="http://www.w3.org/1999/xlink" width="64" height="64"><defs><linearGradient id="b"><stop offset="0" stop-color="#ff0"/><stop offset="1" stop-color="#540"/></linearGradient><linearGradient id="a"><stop offset="0" stop-color="#5df"/><stop offset="1" stop-color="#04a"/></linearGradient><radialGradient id="c" cx="12.01" cy="13.2" r="20" gradientTransform="matrix(0 2.36188 -3.40694 0 60.79 -11.43)" gradientUnits="userSpaceOnUse"><stop offset="0" stop-color="#4d4d4d"/><stop offset=".26" stop-color="#333"/><stop offset=".7"/><stop offset="1"/></radialGradient><linearGradient id="d" x1="24" x2="24" y1="44" y2="3.9" gradientTransform="translate(-1.74 -1.74) scale(1.4058)" gradientUnits="userSpaceOnUse"><stop offset="0"/><stop offset="1" stop-color="#333"/></linearGradient><linearGradient xlink:href="#b" id="e" x1="11.11" y1="35" x2="52.89" y2="35" gradientUnits="userSpaceOnUse"/></defs><rect x="4.59" y="4.59" width="54.83" height="54.83" rx="2.23" ry="2.23" fill="url(#c)" stroke="url(#d)" stroke-width=".5" stroke-linecap="round" stroke-linejoin="round"/><path d="M15.37 49.56l12.8-16.73L15 14.43l8.46.02 10.5 14.46-15.7 20.65h-2.89zm25.05.02l-10.43-14.5 15.83-20.66h2.82L35.79 31.23l13.1 18.35z" style="marker:none" color="#000" overflow="visible" fill="#fff" fill-opacity=".9"/><path d="M32 21.13c-1.02 0-2.11.08-3.1.17 1.76 2.28 3.2 4.21 4.87 6.4-.93-2.01-2.86-3.95-2.2-4.94.67-.98 1.88-.82 1.97-.82 1.95 0 3.82.22 5.57.63l.41-.57c-2.33-.6-4.87-.87-7.52-.87zm10.53 1.84l-.37.54c5.39 2.11 9.04 6.14 9.04 10.77 0 6.8-7.91 12.33-17.66 12.33-9.74 0-17.66-5.52-17.66-12.33 0-3.7 2.35-7.04 6.06-9.3l-1.14-1.74c-5.82 2.47-9.69 6.8-9.69 11.74 0 7.67 9.36 13.9 20.89 13.9 11.53 0 20.89-6.23 20.89-13.9 0-5.12-4.17-9.6-10.36-12.01z" fill="url(#e)"/></svg>