<svg xmlns="http://www.w3.org/2000/svg" xmlns:xlink="http://www.w3.org/1999/xlink" width="64" height="64" version="1"><defs><linearGradient id="k"><stop offset="0" stop-color="#002b00"/><stop offset="1" stop-color="#afa"/></linearGradient><linearGradient id="j"><stop offset="0"/><stop offset="1" stop-color="#165016"/></linearGradient><linearGradient id="i"><stop offset="0"/><stop offset="1" stop-color="#0f0"/></linearGradient><linearGradient id="a"><stop offset="0"/><stop offset="1" stop-opacity=".03"/></linearGradient><linearGradient id="h"><stop offset="0"/><stop offset=".5" stop-opacity=".49"/><stop offset="1" stop-opacity=".06"/></linearGradient><linearGradient id="b"><stop offset="0" stop-color="#d9d9d9"/><stop offset="1" stop-color="#fff"/></linearGradient><clipPath id="I"><path d="M100.23 18.98c-6.64 0-12.1.73-13.1 1.6-.04.03-.09.05-.11.09-.23.18-.65.51-.65 1.24 0 .43.36.95.65 1.24l.1.1c1.02.9 6.5 1.6 13.1 1.6 6.61 0 12.13-.7 13.15-1.6.03-.01.05-.06.07-.06.3-.3.65-.85.65-1.28 0-.73-.42-1.05-.65-1.24l-.1-.1c-.98-.9-6.47-1.6-13.11-1.6z" fill="#f3f8fb"/></clipPath><filter id="J" x="-.04" width="1.08" y="-.19" height="1.38"><feGaussianBlur stdDeviation=".46"/></filter><linearGradient xlink:href="#a" id="G" x1="53.83" y1="20.76" x2="75.51" y2="20.76" gradientUnits="userSpaceOnUse" gradientTransform="translate(20)"/><filter id="H"><feGaussianBlur stdDeviation=".08"/></filter><clipPath id="E"><path d="M182.58 23.24c8.61-2.75 14.99-3.28 24.5-.23l1.28 27.54c2.1 10.56 25.56 58.2 20.01 64.3-5.55 8.17-20.13 8.97-30.18 8.99-12.03.02-31.01-.32-37.63-9.46-4.3-5.93 15.17-44.6 20.53-63.33z" fill="#d5dadc" fill-rule="evenodd"/></clipPath><filter id="F"><feGaussianBlur stdDeviation="1"/></filter><linearGradient xlink:href="#b" id="D" gradientUnits="userSpaceOnUse" gradientTransform="matrix(.40743 .01884 0 .41693 7.27 -6.21)" x1="38.4" y1="90.77" x2="47.24" y2="90.77"/><linearGradient xlink:href="#b" id="C" gradientUnits="userSpaceOnUse" gradientTransform="matrix(.48296 .02233 0 .49422 3.19 -8.4)" x1="38.4" y1="90.52" x2="47.24" y2="90.77"/><linearGradient xlink:href="#b" id="B" gradientUnits="userSpaceOnUse" gradientTransform="matrix(.48296 .02233 0 .49422 3.19 -8.4)" x1="38.02" y1="85.68" x2="50.18" y2="85.68"/><linearGradient xlink:href="#b" id="A" gradientUnits="userSpaceOnUse" gradientTransform="matrix(.4364 .02018 0 .44657 4.03 -1.67)" x1="38.4" y1="90.11" x2="47.24" y2="90.77"/><linearGradient xlink:href="#c" id="y" gradientUnits="userSpaceOnUse" gradientTransform="matrix(.42246 0 0 .36334 64.8 -43.17)" x1="-80.5" y1="257.15" x2="-75.73" y2="229.89"/><linearGradient id="c"><stop offset="0" stop-color="#b3b3b3"/><stop offset="1"/></linearGradient><linearGradient xlink:href="#d" id="z" gradientUnits="userSpaceOnUse" gradientTransform="matrix(.50913 .0531 -.09475 .50023 36.1 .73)" x1="-85.27" y1="257.15" x2="-75.73" y2="257.15"/><linearGradient id="d"><stop offset="0" stop-color="#99b8ff"/><stop offset="1" stop-color="#99b8ff" stop-opacity="0"/></linearGradient><linearGradient xlink:href="#b" id="x" gradientUnits="userSpaceOnUse" gradientTransform="matrix(.4783 .02211 0 .49424 1.43 -1.06)" x1="38.4" y1="90.77" x2="47.24" y2="90.77"/><linearGradient xlink:href="#b" id="w" gradientUnits="userSpaceOnUse" gradientTransform="matrix(.4783 .02211 0 .49424 1.43 -1.06)" x1="36.93" y1="85.68" x2="50.18" y2="85.68"/><linearGradient xlink:href="#b" id="v" gradientUnits="userSpaceOnUse" gradientTransform="matrix(.4783 .05061 0 .49424 1.43 -2.23)" x1="32.71" y1="95.47" x2="50.06" y2="95.47"/><linearGradient xlink:href="#e" id="t" gradientUnits="userSpaceOnUse" x1="159.28" y1="37.49" x2="166.36" y2="-9.92"/><linearGradient id="e"><stop offset="0" stop-color="#edf8fc"/><stop offset="1" stop-color="#edf8fc" stop-opacity="0"/></linearGradient><filter id="u"><feGaussianBlur stdDeviation=".41"/></filter><linearGradient xlink:href="#f" id="r" gradientUnits="userSpaceOnUse" gradientTransform="matrix(.48296 0 0 .49422 1.3 -.11)" x1="20.21" y1="129.56" x2="32.45" y2="107.56"/><linearGradient id="f"><stop offset="0"/><stop offset="1" stop-opacity="0"/></linearGradient><radialGradient xlink:href="#g" id="p" cx="71.22" cy="493" fx="85.59" fy="512.33" r="36.43" gradientTransform="matrix(1 0 0 .28934 0 350.35)" gradientUnits="userSpaceOnUse"/><linearGradient id="g"><stop offset="0"/><stop offset="1" stop-opacity=".09"/></linearGradient><filter id="q"><feGaussianBlur stdDeviation=".32"/></filter><filter id="o"><feGaussianBlur stdDeviation=".11"/></filter><linearGradient xlink:href="#h" id="l" x1="28.17" y1="72.39" x2="100" y2="72.39" gradientUnits="userSpaceOnUse" gradientTransform="translate(.08 1.21) scale(.49333)"/><linearGradient xlink:href="#i" id="m" x1="14.34" y1="116.79" x2="49.38" y2="116.79" gradientUnits="userSpaceOnUse"/><linearGradient xlink:href="#j" id="s" x1="18.53" y1="43.27" x2="45.41" y2="43.27" gradientUnits="userSpaceOnUse"/><linearGradient xlink:href="#k" id="n" x1="28.45" y1="104.56" x2="98.37" y2="104.56" gradientUnits="userSpaceOnUse"/></defs><path d="M25.55 12.68c4.4-1.36 7.67-1.62 12.54-.11l.65 13.58c1.07 5.21 13.08 28.72 10.24 31.72-2.84 4.03-10.3 4.43-15.44 4.44-6.16 0-15.87-.16-19.25-4.67-2.2-2.93 7.76-22 10.5-31.24z" fill="url(#l)" fill-rule="evenodd"/><g transform="translate(0 -64)" fill-rule="evenodd" fill="url(#m)"><path d="M18.54 107.2c-2.84 6.87-5.03 12.93-3.9 14.52 3.24 4.6 12.96 4.68 19.05 4.67 5.08-.01 12.45-.41 15.26-4.44 1.39-1.48-.86-7.96-3.56-14.76H18.54z"/><path d="M15.18 116.65c-.68 2.41-.76 4.1-.25 4.87 3.12 4.68 12.86 4.69 18.9 4.67 5.04 0 12.34-.4 15.13-4.42.67-.72.49-2.61-.16-5.12z" opacity=".5"/></g><path d="M19.8 43.2c-2.58 6.61-4.48 12.45-3.47 13.97 2.94 4.44 11.74 4.5 17.26 4.5 4.6-.01 11.27-.4 13.82-4.27 1.26-1.43-.73-7.66-3.18-14.2z" opacity=".5" fill="#1a1a1a" fill-rule="evenodd"/><path transform="matrix(.49128 0 0 .50273 .79 -.13)" d="M41.12 86.2C36.4 99.34 32.94 111 34.77 114c5.43 8.86 21.56 8.95 31.68 8.93 8.46-.02 20.7-.78 25.38-8.5 2.3-2.83-1.34-15.22-5.83-28.24z" fill="url(#n)" fill-rule="evenodd" filter="url(#o)" opacity=".37"/><path d="M106.97 493c0 5.46-16 9.9-35.75 9.9-19.73 0-35.74-4.44-35.74-9.9 0-5.47 15.9-8.2 35.64-8.2 19.74 0 35.85 2.73 35.85 8.2z" transform="matrix(.44609 0 0 .4132 .23 -145.6)" fill="url(#p)" fill-rule="evenodd" filter="url(#q)"/><path d="M25.5 12.58c3-1.5 2.64-.93 5.88.85l.47 13.23c.78 5.07 9.45 27.97 7.4 30.9-2.06 3.92-7.44 4.3-11.15 4.32-4.45 0-11.41-.07-13.9-4.55-1.55-2.77 7.91-22.77 10.95-31.39z" fill="url(#r)" fill-rule="evenodd"/><ellipse ry="1.65" rx="13.44" cy="43.27" cx="31.97" fill-rule="evenodd" fill="url(#s)"/><ellipse ry="6.43" rx="28.8" cy="31.06" cx="166.36" transform="matrix(.43044 0 0 .21706 -79.7 36.6)" opacity=".23" fill="url(#t)" fill-rule="evenodd" filter="url(#u)"/><path d="M37.48 1.21c-.37.04-.65.22-.72.44L29.7 43.86c.16.2 1.87.25 2.14 0l7.02-41.9v-.05c.01-.32-.46-.64-1-.7a1.67 1.67 0 0 0-.38 0z" fill="#b3b3b3" fill-rule="evenodd"/><path d="M17.34 45.89l-.26.57c2.59 1.43 5.45 1.61 8.3 1.78v-.65c-2.77-.11-5.53-.37-8.04-1.7z" fill="url(#v)" fill-rule="evenodd"/><path d="M19.35 41.47l-.25.59a26.66 26.66 0 0 0 6.34.99v-.65c-.88-.03-2.1-.1-3.4-.3-1.03-.17-1.9-.43-2.69-.63z" fill="url(#w)" fill-rule="evenodd"/><path d="M19.91 44.06l-.1.6a13.57 13.57 0 0 0 4.23.87v-.68c-.53-.04-1.62-.13-2.72-.39-.52-.12-.99-.25-1.4-.4z" fill="url(#x)" fill-rule="evenodd"/><path d="M37.48 1.21c-.37.05-.65.22-.72.45l-7.06 42.2c.17.25 1.96.19 2.14 0l6.91-41.63.1-.32c.02-.31-.45-.63-.99-.7a1.67 1.67 0 0 0-.38 0z" opacity=".43" fill="none"/><path d="M30.75 44.96l-1.82 9.63a.56.56 0 0 0-.05.13l-.02.16c.02.34.38.63.86.68.47.05.91-.18 1.06-.5l.03.02 1.92-10.12z" fill="url(#y)" fill-rule="evenodd" stroke="url(#z)" stroke-width=".16"/><path d="M20.89 39.1l-.16.5c.4.15.87.4 1.37.51 1.1.26 2.24.38 2.67.37v-.61c-.48-.04-1.64-.1-2.65-.34-.47-.11-.85-.3-1.23-.43z" fill="url(#A)" fill-rule="evenodd"/><path d="M23.02 34.48l-.15.62c.8.25 1.6.42 2.43.44v-.65c-.72-.03-1.51-.21-2.28-.41z" fill="url(#B)" fill-rule="evenodd"/><path d="M21.85 36.72l-.2.6c.45.16 1.03.33 1.59.46 1.23.28 2.29.42 2.76.41v-.68c-.52-.04-1.63-.12-2.74-.38-.51-.12-.99-.26-1.41-.4z" fill="url(#C)" fill-rule="evenodd"/><path d="M23.02 31.85l-.1.5a11.66 11.66 0 0 0 3.6.73c.01-.14 0-.45 0-.56a15.3 15.3 0 0 1-2.31-.33c-.44-.1-.84-.22-1.2-.34z" fill="url(#D)" fill-rule="evenodd"/><path d="M26.1 41.79l3.22-15.6 1.04-15.28-1.79.09-1.25 15.32-3.42 15.63" fill="#fff" fill-opacity=".36"/><path clip-path="url(#E)" transform="matrix(.51155 0 0 .49333 -67.85 1.21)" d="M191.5 21.16c-3 .33-6.03 1.06-9.38 2.09l-1.53 27.81c-5.56 18.73-25.73 57.39-21.28 63.31 5.15 6.86 17.5 8.77 28.63 9.29-10.62-.54-22.34-2.48-27.25-9.28-4.28-5.93 15.79-44.96 21.13-63.7l1.29-27.18c3.17-1.02 5.56-2 8.39-2.34zm7.4 0c2.52.3 5.05.76 8.01 1.71l1.4 27.66c2.1 10.56 25.47 58.22 19.94 64.31-4.8 7.08-16.31 8.64-25.81 8.94 9.95-.28 22.14-1.79 27.19-8.94 5.75-6.1-18.58-53.75-20.75-64.3L207.56 23a45.47 45.47 0 0 0-8.65-1.84z" fill="#00336b" fill-rule="evenodd" stroke="#000" filter="url(#F)"/><path d="M31.82 10.65c-3.28 0-5.97.36-6.47.79l-.05.04c-.1.1-.32.26-.32.62 0 .2.18.47.33.61l.04.05c.5.44 3.21.79 6.47.79s5.98-.35 6.48-.8l.04-.02c.14-.15.32-.42.32-.63a.7.7 0 0 0-.32-.61l-.05-.05c-.48-.45-3.2-.79-6.47-.79z" fill="#ccc"/><rect transform="translate(-9.79 1.21) scale(.49333)" ry="2.41" rx="71.93" y="19.56" x="73.83" height="2.41" width="21.69" opacity=".61" fill="url(#G)" filter="url(#H)"/><path transform="translate(-17.63 1.29) scale(.49333)" clip-path="url(#I)" d="M100.23 18.68c-6.64 0-12.1.73-13.1 1.6-.04.03-.09.05-.11.09a2.2 2.2 0 0 0-.65 1.54c0 .43.36.95.65 1.24l.1.1c1.02.9 6.5 1.6 13.1 1.6 6.61 0 12.13-.7 13.15-1.6.03-.01.05-.06.07-.06.3-.3.65-.85.65-1.28 0-.73-.42-1.05-.65-1.24l-.1-.1c-.98-.9-6.47-1.9-13.11-1.9z" fill="none" stroke="#000" stroke-width=".7" filter="url(#J)"/></svg>