<svg xmlns="http://www.w3.org/2000/svg" xmlns:xlink="http://www.w3.org/1999/xlink" width="64" height="64" version="1"><defs><linearGradient id="b"><stop offset="0" stop-color="#f55"/><stop offset="1" stop-color="#d40000"/></linearGradient><linearGradient id="c"><stop offset="0" stop-color="#f55"/><stop offset="1" stop-color="red"/></linearGradient><linearGradient id="a"><stop offset="0" stop-color="#4d4d4d"/><stop offset="1"/></linearGradient><radialGradient xlink:href="#a" id="d" cx="16" cy="19.25" fx="16" fy="19.25" r="28" gradientUnits="userSpaceOnUse" gradientTransform="matrix(.88378 .33898 -.35812 .93367 8.75 -4.15)"/><radialGradient xlink:href="#b" id="e" cx="31.52" cy="40.44" fx="31.52" fy="40.44" r="20.34" gradientTransform="matrix(1 0 0 1.01716 0 -.58)" gradientUnits="userSpaceOnUse"/><radialGradient xlink:href="#c" id="f" cx="31.52" cy="40.44" fx="31.52" fy="40.44" r="20.34" gradientTransform="matrix(1 0 0 1.01716 0 1.42)" gradientUnits="userSpaceOnUse"/></defs><path style="line-height:1.25" d="M32.7 9.56c-3.15 0-6.15.57-8.98 1.7a21.9 21.9 0 0 0-12.34 12.15 22.63 22.63 0 0 0-1.7 8.7c0 3.17.55 6.13 1.67 8.9a22 22 0 0 0 12.22 12.02 23.24 23.24 0 0 0 16.26.34 23.7 23.7 0 0 0 6.86-3.7l-2.26-2.8A19.73 19.73 0 0 1 38.68 50a19.82 19.82 0 0 1-13.75-.28 17.9 17.9 0 0 1-6.1-3.96 18.36 18.36 0 0 1-4.19-6.15 19.51 19.51 0 0 1-1.43-7.48c0-3.23.74-6.22 2.2-8.98a18.07 18.07 0 0 1 6.18-6.73 18.46 18.46 0 0 1 5.25-2.4c1.89-.56 3.86-.84 5.92-.84 2.94 0 5.66.59 8.15 1.76a17.24 17.24 0 0 1 6.38 5.02 13.93 13.93 0 0 1 2.38 4.37c.54 1.57.8 3.25.8 5.04 0 2.96-.69 5.38-2.08 7.25a8.35 8.35 0 0 1-5.72 3.34V21.48h-3.59v3.29a9.5 9.5 0 0 0-7.98-3.8 8.82 8.82 0 0 0-7 3.14c-1.8 2.1-2.7 4.82-2.7 8.16 0 3.35.89 6.06 2.68 8.16a8.88 8.88 0 0 0 7.02 3.1c1.73 0 3.23-.3 4.52-.9a9.63 9.63 0 0 0 3.46-2.86v3.87c4.69-.1 8.36-1.42 11.02-3.97 2.66-2.54 3.99-6.01 3.99-10.41a18.54 18.54 0 0 0-3.86-11.32 20.88 20.88 0 0 0-7.66-6.2 22.47 22.47 0 0 0-9.86-2.18zm-.67 15.06c2.04 0 3.66.7 4.87 2.08 1.2 1.37 1.8 3.23 1.8 5.57 0 2.38-.59 4.25-1.78 5.62a6.03 6.03 0 0 1-4.84 2.06c-2.07 0-3.7-.68-4.9-2.03-1.18-1.38-1.77-3.26-1.77-5.65 0-2.36.59-4.22 1.78-5.6a6.12 6.12 0 0 1 4.84-2.05z" font-weight="400" font-size="46.83" font-family="sans-serif" letter-spacing="0" word-spacing="0" fill="#fff"/><path d="M32 4C16.49 4 4 16.49 4 32s12.49 28 28 28 28-12.49 28-28S47.51 4 32 4z" fill="url(#d)"/><path d="M17.3 13.31l-5.64 5.59 16.4 16.35v19.44H36V35.25L52.34 18.9 46.7 13.3 32 28.01l-14.7-14.7" fill="url(#e)"/><path d="M17.3 15.31l-5.64 5.59 16.4 16.35v19.44H36V37.25L52.34 20.9 46.7 15.3 32 30.01l-14.7-14.7" opacity=".13" fill="url(#f)"/></svg>