<svg xmlns="http://www.w3.org/2000/svg" xmlns:xlink="http://www.w3.org/1999/xlink" width="64" height="64"><defs><linearGradient gradientTransform="translate(-15.83 -6.87) scale(1.49483)" xlink:href="#a" id="b" x1="11.91" y1="12.56" x2="11.84" y2="39.62" gradientUnits="userSpaceOnUse"/><linearGradient id="a"><stop offset="0"/><stop offset="1" stop-color="#333"/></linearGradient></defs><path d="M7.86 11.94A6.05 6.05 0 0 0 1.79 18v28c0 3.36 2.7 6.06 6.07 6.06h48.28c3.36 0 6.07-2.7 6.07-6.06V18a6.05 6.05 0 0 0-6.07-6.07z" fill="url(#b)" paint-order="markers fill stroke"/><path d="M28.09 17h7.97v10.04h5.32l-9.42 14.05H42v4.03H22.01v-4.03h10.03l-9.27-14.05h5.32z" fill="#f80101"/><path d="M28.09 18.88h7.97v10.03h5.32l-9.42 14.06H42v4.02H22.01v-4.02h10.03L22.77 28.9h5.32z" opacity=".38" fill="#f80101"/></svg>