<?xml version="1.0" encoding="UTF-8" standalone="no"?><!--Created with Inkscape (http://www.inkscape.org/)--><svg xmlns:dc="http://purl.org/dc/elements/1.1/" xmlns:cc="http://creativecommons.org/ns#" xmlns:rdf="http://www.w3.org/1999/02/22-rdf-syntax-ns#" xmlns="http://www.w3.org/2000/svg" xmlns:xlink="http://www.w3.org/1999/xlink" width="128" height="128" enable-background="new"><defs><linearGradient id="a"><stop offset="0" stop-color="#003165"/><stop offset="1" stop-color="#00438a" stop-opacity="0"/></linearGradient><linearGradient id="b"><stop offset="0" stop-color="#004d00" stop-opacity="0"/><stop offset=".5" stop-color="#004d00"/><stop offset="1" stop-color="#004d00" stop-opacity="0"/></linearGradient><linearGradient gradientTransform="rotate(90 -90 50)" y2="-384" x2="-23.52" y1="-384" x1="-84" gradientUnits="userSpaceOnUse" id="c"><stop offset="0" stop-color="#fff"/><stop offset="1" stop-color="#fff" stop-opacity="0"/></linearGradient><linearGradient id="d"><stop offset="0" stop-color="#0f0"/><stop offset="1" stop-color="#006500"/></linearGradient><linearGradient gradientTransform="rotate(90 -90 50)" y2="-384" x2="-12" y1="-384" x1="-84" gradientUnits="userSpaceOnUse" id="e"><stop offset="0" stop-color="#e5ff00"/><stop offset="1" stop-color="#bff500" stop-opacity="0"/></linearGradient><linearGradient gradientTransform="rotate(90 -90 50)" y2="-384" x2="-12" y1="-384" x1="-84" gradientUnits="userSpaceOnUse" id="f"><stop offset="0" stop-color="#008c00"/><stop offset="1" stop-color="#00bf00"/></linearGradient><linearGradient x2="28" y1="57.5" x1="28" gradientUnits="userSpaceOnUse" id="h"><stop offset="0" stop-color="#fffccf"/><stop offset="1" stop-color="#fff" stop-opacity="0"/></linearGradient><linearGradient id="g" gradientUnits="userSpaceOnUse" x1="28" y1="57.5" x2="28"><stop offset="0" stop-color="#ffea00"/><stop offset="1" stop-color="#fc0"/></linearGradient><linearGradient id="p"><stop offset="0" stop-color="#000914"/><stop offset="1" stop-color="#00316e"/></linearGradient><linearGradient id="q"><stop offset="0" stop-color="#00f3fd"/><stop offset="1" stop-color="#00c4cc" stop-opacity="0"/></linearGradient><linearGradient id="i"><stop offset="0" stop-color="#fff"/><stop offset="1" stop-color="#fff" stop-opacity="0"/></linearGradient><linearGradient id="n"><stop offset="0" stop-color="#e00000"/><stop offset="1" stop-color="red" stop-opacity=".41"/></linearGradient><linearGradient id="l"><stop offset="0" stop-color="#f9ccca"/><stop offset="1" stop-color="#f9ccca" stop-opacity="0"/></linearGradient><linearGradient id="m"><stop offset="0" stop-color="#e20800"/><stop offset="1" stop-color="#9c0f0f"/></linearGradient><linearGradient id="j"><stop offset="0"/><stop offset="1" stop-opacity="0"/></linearGradient><linearGradient id="k"><stop offset="0" stop-color="#fff"/><stop offset="1" stop-color="#f1f1f1"/></linearGradient><linearGradient xlink:href="#m" id="o" gradientUnits="userSpaceOnUse" x1="32" y1="73.42" x2="32" y2="24.31"/><radialGradient gradientUnits="userSpaceOnUse" r="139.56" cy="112.3" cx="102" id="s"><stop offset="0" stop-color="#b7b8b9"/><stop offset=".19" stop-color="#ececec"/><stop offset=".26" stop-color="#fafafa"/><stop offset=".3" stop-color="#fff"/><stop offset=".53" stop-color="#fafafa"/><stop offset=".84" stop-color="#ebecec"/><stop offset="1" stop-color="#e1e2e3"/></radialGradient><linearGradient id="r"><stop offset="0" stop-color="#a2a2a2"/><stop offset="1" stop-color="#fff"/></linearGradient><linearGradient gradientTransform="translate(0 -1)" xlink:href="#t" id="w" x1="125" y1="1007.25" x2="125" y2="1010.74" gradientUnits="userSpaceOnUse"/><linearGradient id="t"><stop offset="0"/><stop offset="1" stop-opacity=".05"/></linearGradient><filter id="x" x="-.09" width="1.18" y="-.08" height="1.15" color-interpolation-filters="sRGB"><feGaussianBlur stdDeviation="1.98"/></filter><linearGradient xlink:href="#u" id="v" x1="26.37" y1="110.28" x2="26.37" y2="28.13" gradientUnits="userSpaceOnUse" gradientTransform="translate(0 924.36)"/><linearGradient id="u"><stop offset="0"/><stop offset="1" stop-color="#666"/></linearGradient></defs><metadata><rdf:RDF><cc:Work><dc:format>image/svg+xml</dc:format><dc:type rdf:resource="http://purl.org/dc/dcmitype/StillImage"/><dc:title/></cc:Work></rdf:RDF></metadata><g transform="translate(0 -924.36)"><path d="M3 973.72V1032.35a2.9 2.9 0 0 0 2.99 3.01h115.98c2.13 0 3.03-1.35 3.03-2.97V956.96a4.6 4.6 0 0 0-4.62-4.6H60.73v5.36h-.03c.01.22.03.42.03.64a15.54 15.54 0 0 1-2.61 8.6 15.37 15.37 0 0 1-12.75 6.76h-30z" fill="url(#v)" enable-background="new"/><path d="M17.7 942.38c-8.14 0-14.7 5.7-14.7 12.77 0 .18.02.35.03.52H3v14.05h38.62c8.14 0 14.7-5.7 14.7-12.76 0-.18-.03-.35-.04-.53h.03v-14.05H22.13z" fill="#217867" enable-background="new"/><path d="M3 1007.36v9h122v-9z" opacity=".43" enable-background="new"/><rect width="122" height="1" x="3" y="1016.36" rx="0" ry="1" opacity=".11" fill="#fff" enable-background="new"/><path d="M3 1007.36v9l122-4v-5z" opacity=".57" fill="url(#w)" enable-background="new"/><path d="M78.33 973.5a1.76 1.89 0 0 0-.6.1c-2.05 5.53-.75 9.6-.37 10.63A14.49 15.52 0 0 0 73.5 995c0 15.39 8.74 18.83 17.07 19.84-1.07 1.01-2.04 2.77-2.38 5.36-2.13 1.04-7.57 2.8-10.9-3.33 0 0-1.99-3.86-5.75-4.13 0 0-3.66-.03-.25 2.44 0 0 2.46 1.23 4.16 5.87 0 0 2.2 7.8 12.62 5.38l.05 6.83c0 .92-.51 1.97-1.86 2h22.36c-1.4.03-1.92-1.06-1.92-2 0-1.32.05-5.65.05-11 0-3.76-1.2-6.2-2.54-7.45 8.34-1 17.1-4.38 17.1-19.81 0-4.39-1.45-7.97-3.85-10.77.39-1.03 1.67-5.1-.36-10.63 0 0-3.15-1.08-10.3 4.12a35.72 38.27 0 0 0-18.77 0c-5.37-3.9-8.48-4.26-9.7-4.2z" opacity=".75" fill="#1a1a1a" filter="url(#x)" enable-background="new"/><path d="M74.33 977.5a1.76 1.76 0 0 0-.6.1c-2.05 5.16-.75 8.96-.37 9.91a14.49 14.49 0 0 0-3.86 10.06c0 14.36 8.74 17.58 17.07 18.52-1.07.94-2.04 2.59-2.38 5-2.13.97-7.57 2.62-10.9-3.1 0 0-1.99-3.6-5.75-3.86 0 0-3.66-.03-.25 2.27 0 0 2.46 1.15 4.16 5.48 0 0 2.2 7.3 12.62 5.03l.05 6.37c0 .86-.51 1.84-1.86 1.87h22.36c-1.4.02-1.92-.99-1.92-1.87 0-1.23.05-5.27.05-10.28 0-3.5-1.2-5.78-2.54-6.94 8.34-.93 17.1-4.09 17.1-18.5 0-4.09-1.45-7.43-3.85-10.05.39-.95 1.67-4.75-.36-9.92 0 0-3.15-1-10.3 3.85a35.72 35.72 0 0 0-18.77 0c-5.37-3.64-8.48-3.98-9.7-3.93z" fill="#217867"/></g></svg>