<?xml version="1.0" encoding="UTF-8" standalone="no"?><!--Created with Inkscape (http://www.inkscape.org/)--><svg xmlns:dc="http://purl.org/dc/elements/1.1/" xmlns:cc="http://creativecommons.org/ns#" xmlns:rdf="http://www.w3.org/1999/02/22-rdf-syntax-ns#" xmlns="http://www.w3.org/2000/svg" xmlns:xlink="http://www.w3.org/1999/xlink" width="128" height="128" enable-background="new"><defs><linearGradient id="a"><stop offset="0" stop-color="#003165"/><stop offset="1" stop-color="#00438a" stop-opacity="0"/></linearGradient><linearGradient id="b"><stop offset="0" stop-color="#004d00" stop-opacity="0"/><stop offset=".5" stop-color="#004d00"/><stop offset="1" stop-color="#004d00" stop-opacity="0"/></linearGradient><linearGradient gradientTransform="rotate(90 -90 50)" y2="-384" x2="-23.52" y1="-384" x1="-84" gradientUnits="userSpaceOnUse" id="c"><stop offset="0" stop-color="#fff"/><stop offset="1" stop-color="#fff" stop-opacity="0"/></linearGradient><linearGradient id="d"><stop offset="0" stop-color="#0f0"/><stop offset="1" stop-color="#006500"/></linearGradient><linearGradient gradientTransform="rotate(90 -90 50)" y2="-384" x2="-12" y1="-384" x1="-84" gradientUnits="userSpaceOnUse" id="e"><stop offset="0" stop-color="#e5ff00"/><stop offset="1" stop-color="#bff500" stop-opacity="0"/></linearGradient><linearGradient gradientTransform="rotate(90 -90 50)" y2="-384" x2="-12" y1="-384" x1="-84" gradientUnits="userSpaceOnUse" id="f"><stop offset="0" stop-color="#008c00"/><stop offset="1" stop-color="#00bf00"/></linearGradient><linearGradient x2="28" y1="57.5" x1="28" gradientUnits="userSpaceOnUse" id="h"><stop offset="0" stop-color="#fffccf"/><stop offset="1" stop-color="#fff" stop-opacity="0"/></linearGradient><linearGradient id="g" gradientUnits="userSpaceOnUse" x1="28" y1="57.5" x2="28"><stop offset="0" stop-color="#ffea00"/><stop offset="1" stop-color="#fc0"/></linearGradient><linearGradient id="p"><stop offset="0" stop-color="#000914"/><stop offset="1" stop-color="#00316e"/></linearGradient><linearGradient id="q"><stop offset="0" stop-color="#00f3fd"/><stop offset="1" stop-color="#00c4cc" stop-opacity="0"/></linearGradient><linearGradient id="i"><stop offset="0" stop-color="#fff"/><stop offset="1" stop-color="#fff" stop-opacity="0"/></linearGradient><linearGradient id="n"><stop offset="0" stop-color="#e00000"/><stop offset="1" stop-color="red" stop-opacity=".41"/></linearGradient><linearGradient id="l"><stop offset="0" stop-color="#f9ccca"/><stop offset="1" stop-color="#f9ccca" stop-opacity="0"/></linearGradient><linearGradient id="m"><stop offset="0" stop-color="#e20800"/><stop offset="1" stop-color="#9c0f0f"/></linearGradient><linearGradient id="j"><stop offset="0"/><stop offset="1" stop-opacity="0"/></linearGradient><linearGradient id="k"><stop offset="0" stop-color="#fff"/><stop offset="1" stop-color="#f1f1f1"/></linearGradient><linearGradient xlink:href="#m" id="o" gradientUnits="userSpaceOnUse" x1="32" y1="73.42" x2="32" y2="24.31"/><radialGradient gradientUnits="userSpaceOnUse" r="139.56" cy="112.3" cx="102" id="s"><stop offset="0" stop-color="#b7b8b9"/><stop offset=".19" stop-color="#ececec"/><stop offset=".26" stop-color="#fafafa"/><stop offset=".3" stop-color="#fff"/><stop offset=".53" stop-color="#fafafa"/><stop offset=".84" stop-color="#ebecec"/><stop offset="1" stop-color="#e1e2e3"/></radialGradient><linearGradient id="r"><stop offset="0" stop-color="#a2a2a2"/><stop offset="1" stop-color="#fff"/></linearGradient><linearGradient gradientTransform="translate(0 -1)" xlink:href="#t" id="w" x1="125" y1="1007.25" x2="125" y2="1010.74" gradientUnits="userSpaceOnUse"/><linearGradient id="t"><stop offset="0"/><stop offset="1" stop-opacity=".05"/></linearGradient><filter id="x" x="-.08" width="1.15" y="-.09" height="1.18" color-interpolation-filters="sRGB"><feGaussianBlur stdDeviation="2.12"/></filter><linearGradient xlink:href="#u" id="v" x1="26.37" y1="110.28" x2="26.37" y2="28.13" gradientUnits="userSpaceOnUse" gradientTransform="translate(-.03 924.36)"/><linearGradient id="u"><stop offset="0"/><stop offset="1" stop-color="#666"/></linearGradient></defs><metadata><rdf:RDF><cc:Work><dc:format>image/svg+xml</dc:format><dc:type rdf:resource="http://purl.org/dc/dcmitype/StillImage"/><dc:title/></cc:Work></rdf:RDF></metadata><g transform="translate(0 -924.36)"><path d="M2.97 973.72V1032.35a2.9 2.9 0 0 0 2.99 3.01h115.98c2.13 0 3.03-1.35 3.03-2.97V956.96a4.6 4.6 0 0 0-4.62-4.6H60.7v5.36h-.03c0 .22.03.42.03.64a15.54 15.54 0 0 1-2.62 8.6 15.37 15.37 0 0 1-12.74 6.76H15.33z" fill="url(#v)" enable-background="new"/><path d="M17.7 942.38c-8.14 0-14.7 5.7-14.7 12.77 0 .18.02.35.03.52H3v14.05h38.62c8.14 0 14.7-5.7 14.7-12.76 0-.18-.03-.35-.04-.53h.03v-14.05H22.13z" fill="#3771c8" enable-background="new"/><path d="M3 1007.36v9h122v-9z" opacity=".43" enable-background="new"/><rect width="122" height="1" x="3" y="1016.36" rx="0" ry="1" opacity=".11" fill="#fff" enable-background="new"/><path d="M3 1007.36v9l122-4v-5z" opacity=".57" fill="url(#w)" enable-background="new"/><path d="M84.07 983.05h-.01l-2.7 6.56a16.67 16.67 0 0 0-3.37.37l-4.02-5.8a23.06 23.06 0 0 0-4 1.95l1.7 6.8a16.81 16.81 0 0 0-2.48 2.27l-6.63-2.3a22.97 22.97 0 0 0-2.18 3.9l5.35 4.47a16.05 16.05 0 0 0-.43 1.61 16.22 16.22 0 0 0-.24 1.66l-6.67 2.03c.03 1.51.17 3 .47 4.44l7.02.48c.36 1.05.83 2.07 1.38 3.03l-4.2 5.62c.9 1.2 1.8 2.34 2.92 3.35l5.96-3.77c.91.65 1.9 1.2 2.95 1.66l-.07 7.1a23.67 23.67 0 0 0 4.28.86l2.72-6.56a16.6 16.6 0 0 0 3.36-.37l4.01 5.8a22.99 22.99 0 0 0 4-1.94l-1.68-6.82c.89-.66 1.72-1.42 2.46-2.25l6.64 2.3a22.97 22.97 0 0 0 2.14-3.84l1.27 2.66a9.81 9.81 0 0 0-1.15 1.58l-4.06-.55a13.4 13.4 0 0 0-.79 2.5l3.58 1.93a9.36 9.36 0 0 0-.06.97 9 9 0 0 0 .06.97l-3.58 1.93c.2.87.45 1.7.8 2.5l4.05-.56c.33.56.72 1.1 1.15 1.57l-1.75 3.7c.65.58 1.3 1.14 2.06 1.58l2.97-2.85c.59.27 1.23.47 1.87.62l.8 4.05a13.8 13.8 0 0 0 2.54 0l.79-4.06a9.62 9.62 0 0 0 1.88-.61l2.97 2.85c.75-.44 1.41-1 2.06-1.58l-1.76-3.7a9.9 9.9 0 0 0 1.15-1.57l4.06.55a13.4 13.4 0 0 0 .8-2.5l-3.59-1.93a7.6 7.6 0 0 0 0-1.94l3.58-1.94a13.4 13.4 0 0 0-.8-2.48l-4.05.54a9.81 9.81 0 0 0-1.15-1.57l1.76-3.7a13.48 13.48 0 0 0-2.06-1.57l-2.98 2.85a9.73 9.73 0 0 0-1.87-.61l-.79-4.06a13.8 13.8 0 0 0-1.27-.05c-.42 0-.85 0-1.28.05l-.78 4.06a9.72 9.72 0 0 0-1.88.6l-2.98-2.84a13.47 13.47 0 0 0-2.05 1.57l.42.9-5.25-4.4a14.78 14.78 0 0 0 .66-3.26l6.68-2.03a22.97 22.97 0 0 0-.48-4.45l-7-.47a16.81 16.81 0 0 0-1.4-3.05l4.22-5.6a23.19 23.19 0 0 0-2.93-3.36l-5.96 3.77a16.67 16.67 0 0 0-2.95-1.66l.06-7.1a23.67 23.67 0 0 0-2.11-.52c-.72-.14-1.46-.23-2.16-.34zm-2.96 13.19a9.97 9.97 0 0 1 .06 0 9.97 9.97 0 0 1 2.4.19 9.98 9.98 0 1 1-3.98 19.55 9.97 9.97 0 0 1 1.52-19.74zm30.13 22.7a5.82 5.82 0 0 1 0 11.63 5.82 5.82 0 0 1 0-11.64z" transform="matrix(1.05246 0 0 1.05246 -4.8 -53.02)" opacity=".75" filter="url(#x)" enable-background="new"/><path d="M79.47 985.8v.01l-2.85 6.9a17.54 17.54 0 0 0-3.55.4l-4.22-6.1a24.27 24.27 0 0 0-4.22 2.04l1.78 7.17a17.7 17.7 0 0 0-2.6 2.37l-6.98-2.42a24.18 24.18 0 0 0-2.29 4.1l5.63 4.72a16.9 16.9 0 0 0-.45 1.7 17.07 17.07 0 0 0-.25 1.73l-7.02 2.15c.02 1.59.17 3.14.5 4.67l7.38.5c.38 1.1.87 2.19 1.46 3.2l-4.44 5.9a24.46 24.46 0 0 0 3.09 3.53l6.26-3.97a17.3 17.3 0 0 0 3.12 1.75l-.08 7.46a24.9 24.9 0 0 0 4.5.91l2.86-6.9c1.2 0 2.4-.14 3.54-.39l4.22 6.1a24.2 24.2 0 0 0 4.22-2.03l-1.78-7.18c.94-.7 1.82-1.5 2.6-2.37l6.98 2.42a24.18 24.18 0 0 0 2.26-4.04l1.33 2.8a10.33 10.33 0 0 0-1.2 1.66l-4.28-.57a14.1 14.1 0 0 0-.83 2.62l3.76 2.03a9.85 9.85 0 0 0-.06 1.02c0 .35.03.68.06 1.02l-3.76 2.04c.2.92.47 1.78.83 2.62l4.27-.58c.35.6.76 1.16 1.21 1.66l-1.84 3.9c.69.6 1.37 1.19 2.16 1.65l3.13-3c.62.28 1.3.5 1.97.65l.84 4.27a14.53 14.53 0 0 0 2.68 0l.83-4.28c.67-.14 1.35-.37 1.97-.64l3.14 3a14 14 0 0 0 2.16-1.66l-1.85-3.9a10.42 10.42 0 0 0 1.2-1.65l4.28.58a14.1 14.1 0 0 0 .84-2.62l-3.77-2.04c.03-.34.07-.66.07-1.02a8 8 0 0 0-.08-1.02l3.78-2.04a14.1 14.1 0 0 0-.84-2.61l-4.27.57a10.33 10.33 0 0 0-1.21-1.66l1.85-3.89a14.19 14.19 0 0 0-2.17-1.66l-3.13 3a10.24 10.24 0 0 0-1.97-.64l-.83-4.28a14.53 14.53 0 0 0-1.34-.04c-.45 0-.9 0-1.34.04l-.83 4.28a10.23 10.23 0 0 0-1.98.63l-3.13-2.98a14.17 14.17 0 0 0-2.16 1.65l.44.94-5.52-4.63a15.55 15.55 0 0 0 .7-3.43l7.02-2.14a24.17 24.17 0 0 0-.5-4.68l-7.37-.5a17.7 17.7 0 0 0-1.48-3.2l4.45-5.9a24.4 24.4 0 0 0-3.08-3.53L87 995.93a17.55 17.55 0 0 0-3.1-1.74l.06-7.47a24.9 24.9 0 0 0-2.23-.55c-.75-.15-1.53-.24-2.27-.36zm-3.11 13.9a10.5 10.5 0 0 1 .06 0 10.5 10.5 0 0 1 2.53.19 10.5 10.5 0 1 1-4.19 20.58 10.5 10.5 0 0 1 1.6-20.78zm31.7 23.88a6.12 6.12 0 0 1 0 12.24 6.12 6.12 0 0 1 0-12.24z" fill="#3771c8"/></g></svg>