<?xml version="1.0" encoding="UTF-8" standalone="no"?><!--Created with Inkscape (http://www.inkscape.org/)--><svg xmlns:dc="http://purl.org/dc/elements/1.1/" xmlns:cc="http://creativecommons.org/ns#" xmlns:rdf="http://www.w3.org/1999/02/22-rdf-syntax-ns#" xmlns="http://www.w3.org/2000/svg" xmlns:xlink="http://www.w3.org/1999/xlink" width="128" height="128" enable-background="new"><defs><linearGradient id="a"><stop offset="0" stop-color="#003165"/><stop offset="1" stop-color="#00438a" stop-opacity="0"/></linearGradient><linearGradient id="b"><stop offset="0" stop-color="#004d00" stop-opacity="0"/><stop offset=".5" stop-color="#004d00"/><stop offset="1" stop-color="#004d00" stop-opacity="0"/></linearGradient><linearGradient gradientTransform="rotate(90 -90 50)" y2="-384" x2="-23.52" y1="-384" x1="-84" gradientUnits="userSpaceOnUse" id="c"><stop offset="0" stop-color="#fff"/><stop offset="1" stop-color="#fff" stop-opacity="0"/></linearGradient><linearGradient id="d"><stop offset="0" stop-color="#0f0"/><stop offset="1" stop-color="#006500"/></linearGradient><linearGradient gradientTransform="rotate(90 -90 50)" y2="-384" x2="-12" y1="-384" x1="-84" gradientUnits="userSpaceOnUse" id="e"><stop offset="0" stop-color="#e5ff00"/><stop offset="1" stop-color="#bff500" stop-opacity="0"/></linearGradient><linearGradient gradientTransform="rotate(90 -90 50)" y2="-384" x2="-12" y1="-384" x1="-84" gradientUnits="userSpaceOnUse" id="f"><stop offset="0" stop-color="#008c00"/><stop offset="1" stop-color="#00bf00"/></linearGradient><linearGradient x2="28" y1="57.5" x1="28" gradientUnits="userSpaceOnUse" id="h"><stop offset="0" stop-color="#fffccf"/><stop offset="1" stop-color="#fff" stop-opacity="0"/></linearGradient><linearGradient id="g" gradientUnits="userSpaceOnUse" x1="28" y1="57.5" x2="28"><stop offset="0" stop-color="#ffea00"/><stop offset="1" stop-color="#fc0"/></linearGradient><linearGradient id="p"><stop offset="0" stop-color="#000914"/><stop offset="1" stop-color="#00316e"/></linearGradient><linearGradient id="q"><stop offset="0" stop-color="#00f3fd"/><stop offset="1" stop-color="#00c4cc" stop-opacity="0"/></linearGradient><linearGradient id="i"><stop offset="0" stop-color="#fff"/><stop offset="1" stop-color="#fff" stop-opacity="0"/></linearGradient><linearGradient id="n"><stop offset="0" stop-color="#e00000"/><stop offset="1" stop-color="red" stop-opacity=".41"/></linearGradient><linearGradient id="l"><stop offset="0" stop-color="#f9ccca"/><stop offset="1" stop-color="#f9ccca" stop-opacity="0"/></linearGradient><linearGradient id="m"><stop offset="0" stop-color="#e20800"/><stop offset="1" stop-color="#9c0f0f"/></linearGradient><linearGradient id="j"><stop offset="0"/><stop offset="1" stop-opacity="0"/></linearGradient><linearGradient id="k"><stop offset="0" stop-color="#fff"/><stop offset="1" stop-color="#f1f1f1"/></linearGradient><linearGradient xlink:href="#m" id="o" gradientUnits="userSpaceOnUse" x1="32" y1="73.42" x2="32" y2="24.31"/><radialGradient gradientUnits="userSpaceOnUse" r="139.56" cy="112.3" cx="102" id="s"><stop offset="0" stop-color="#b7b8b9"/><stop offset=".19" stop-color="#ececec"/><stop offset=".26" stop-color="#fafafa"/><stop offset=".3" stop-color="#fff"/><stop offset=".53" stop-color="#fafafa"/><stop offset=".84" stop-color="#ebecec"/><stop offset="1" stop-color="#e1e2e3"/></radialGradient><linearGradient id="r"><stop offset="0" stop-color="#a2a2a2"/><stop offset="1" stop-color="#fff"/></linearGradient><linearGradient gradientTransform="translate(0 -1)" xlink:href="#t" id="w" x1="125" y1="1007.25" x2="125" y2="1010.74" gradientUnits="userSpaceOnUse"/><linearGradient id="t"><stop offset="0"/><stop offset="1" stop-opacity=".05"/></linearGradient><filter id="x" x="-.07" width="1.14" y="-.07" height="1.15" color-interpolation-filters="sRGB"><feGaussianBlur stdDeviation="2.07"/></filter><linearGradient xlink:href="#u" id="v" x1="26.37" y1="110.28" x2="26.37" y2="28.13" gradientUnits="userSpaceOnUse" gradientTransform="translate(-.03 924.36)"/><linearGradient id="u"><stop offset="0"/><stop offset="1" stop-color="#666"/></linearGradient></defs><metadata><rdf:RDF><cc:Work><dc:format>image/svg+xml</dc:format><dc:type rdf:resource="http://purl.org/dc/dcmitype/StillImage"/><dc:title/></cc:Work></rdf:RDF></metadata><g transform="translate(0 -924.36)"><path d="M2.97 973.72V1032.35a2.9 2.9 0 0 0 2.99 3.01h115.98c2.13 0 3.03-1.35 3.03-2.97V956.96a4.6 4.6 0 0 0-4.62-4.6H60.7v5.36h-.03c0 .22.03.42.03.64a15.54 15.54 0 0 1-2.62 8.6 15.37 15.37 0 0 1-12.74 6.76H15.33z" fill="url(#v)" enable-background="new"/><path d="M17.7 942.38c-8.14 0-14.7 5.7-14.7 12.77 0 .18.02.35.03.52H3v14.05h38.62c8.14 0 14.7-5.7 14.7-12.76 0-.18-.03-.35-.04-.53h.03v-14.05H22.13z" fill="#217867" enable-background="new"/><path d="M3 1007.36v9h122v-9z" opacity=".43" enable-background="new"/><rect width="122" height="1" x="3" y="1016.36" rx="0" ry="1" opacity=".11" fill="#fff" enable-background="new"/><path d="M3 1007.36v9l122-4v-5z" opacity=".57" fill="url(#w)" enable-background="new"/><path d="M110.48 969.1v45.17c-2.66-1.44-6.79-1.65-10.8-.28-5.72 1.94-9.04 6.31-7.42 9.77 1.62 3.45 7.57 4.68 13.28 2.74 4.4-1.5 7.36-4.43 7.76-7.28l.02.01v-.12a4.5 4.5 0 0 0 0-1.13v-35.95c18.14 7.68 6.4 28 6.4 28 13.45-13.85 1.12-28.9-1.35-31.87-2.7-3.2-4.05-7.12-5.05-9.05zm-30.26 2.85l-3.79.04v50.28c-2.99-1.39-7.32-1.58-11.5-.16-6.38 2.17-10.08 7.04-8.27 10.89 1.8 3.85 8.43 5.22 14.8 3.05 5.6-1.9 9.2-5.76 8.76-9.29v-40.42c20.21 8.56 7.13 31.21 7.13 31.21 14.99-15.44 1.26-32.21-1.5-35.51-3-3.58-4.52-7.95-5.63-10.1z" transform="matrix(.96628 0 0 .98583 1.86 13.7)" opacity=".75" filter="url(#x)" enable-background="new"/><path d="M106.48 973.1v45.17c-2.66-1.44-6.79-1.65-10.8-.28-5.72 1.94-9.04 6.31-7.42 9.77 1.62 3.45 7.57 4.68 13.28 2.74 4.4-1.5 7.36-4.43 7.76-7.28l.02.01v-.12a4.5 4.5 0 0 0 0-1.13v-35.95c18.14 7.67 6.4 28 6.4 28 13.45-13.85 1.12-28.9-1.35-31.87-2.7-3.21-4.05-7.12-5.05-9.05zm-30.26 2.85l-3.79.04v50.28c-2.99-1.39-7.32-1.58-11.5-.16-6.38 2.17-10.08 7.04-8.27 10.89 1.8 3.85 8.43 5.22 14.8 3.05 5.6-1.9 9.2-5.76 8.76-9.29v-40.42c20.21 8.56 7.13 31.21 7.13 31.21 14.99-15.44 1.26-32.21-1.5-35.51-3-3.58-4.52-7.95-5.63-10.1z" fill="#217867" enable-background="new"/></g></svg>