<svg xmlns="http://www.w3.org/2000/svg" xmlns:xlink="http://www.w3.org/1999/xlink" width="128" height="128" enable-background="new"><defs><linearGradient id="a"><stop offset="0" stop-color="#e20800"/><stop offset="1" stop-color="#9c0f0f"/></linearGradient><linearGradient gradientTransform="translate(0 -925.36)" xlink:href="#b" id="e" x1="125" y1="1007.25" x2="125" y2="1010.74" gradientUnits="userSpaceOnUse"/><linearGradient id="b"><stop offset="0"/><stop offset="1" stop-opacity=".05"/></linearGradient><linearGradient xlink:href="#c" id="d" x1="26.37" y1="110.28" x2="26.37" y2="28.13" gradientUnits="userSpaceOnUse" gradientTransform="translate(-.03)"/><linearGradient id="c"><stop offset="0"/><stop offset="1" stop-color="#666"/></linearGradient><filter id="f" x="-.09" width="1.18" y="-.08" height="1.16" color-interpolation-filters="sRGB"><feGaussianBlur stdDeviation="1.76"/></filter></defs><path d="M2.97 49.36v58.63A2.9 2.9 0 0 0 5.96 111h115.98c2.13 0 3.03-1.35 3.03-2.97V32.6a4.6 4.6 0 0 0-4.62-4.6H60.7v5.36h-.03c0 .22.03.42.03.64a15.54 15.54 0 0 1-2.62 8.6 15.37 15.37 0 0 1-12.74 6.76H15.33z" fill="url(#d)" enable-background="new"/><path d="M17.7 18.02C9.56 18.02 3 23.72 3 30.79c0 .18.02.35.03.52H3v14.05h38.62c8.14 0 14.7-5.7 14.7-12.76 0-.18-.03-.35-.04-.53h.03V18.02H22.13z" fill="#217821" enable-background="new"/><path d="M3 83v9h122v-9z" opacity=".43" enable-background="new"/><rect width="122" height="1" x="3" y="92" rx="0" ry="1" opacity=".11" fill="#fff" enable-background="new"/><path d="M3 83v9l122-4v-5z" opacity=".57" fill="url(#e)" enable-background="new"/><path d="M98.01 56.8a4.34 5.71 54.96 0 0-5.85 3.34L71.8 103.81a4.34 5.71 54.96 0 0-.2.42 4.34 5.71 54.96 0 0-.23.47 4.34 5.71 54.96 1 0 9.96.8l20.36-43.68a4.34 5.71 54.96 0 0-3.68-5.02zm-5.39 39.55a2.5 3.89 0 1 0 .47 7.71h22.88a2.5 3.89 0 0 0 0-7.7H93.09a2.5 3.89 0 0 0-.22 0 2.5 3.89 0 0 0-.25 0z" filter="url(#f)" opacity=".75"/><path d="M94.01 60.8a4.34 5.71 54.96 0 0-5.85 3.34L67.8 107.81a4.34 5.71 54.96 0 0-.2.42 4.34 5.71 54.96 0 0-.23.47 4.34 5.71 54.96 1 0 9.96.8l20.36-43.68a4.34 5.71 54.96 0 0-3.68-5.02zm-5.39 39.55a2.5 3.89 0 1 0 .47 7.71h22.88a2.5 3.89 0 0 0 0-7.7H89.09a2.5 3.89 0 0 0-.22 0 2.5 3.89 0 0 0-.25 0z" fill="#217821"/></svg>