<svg xmlns="http://www.w3.org/2000/svg" xmlns:xlink="http://www.w3.org/1999/xlink" width="128" height="128" enable-background="new"><defs><linearGradient id="a"><stop offset="0" stop-color="#e20800"/><stop offset="1" stop-color="#9c0f0f"/></linearGradient><linearGradient gradientTransform="translate(0 -925.36)" xlink:href="#b" id="e" x1="125" y1="1007.25" x2="125" y2="1010.74" gradientUnits="userSpaceOnUse"/><linearGradient id="b"><stop offset="0"/><stop offset="1" stop-opacity=".05"/></linearGradient><linearGradient xlink:href="#c" id="d" x1="26.37" y1="110.28" x2="26.37" y2="28.13" gradientUnits="userSpaceOnUse" gradientTransform="translate(-.03)"/><linearGradient id="c"><stop offset="0"/><stop offset="1" stop-color="#666"/></linearGradient><filter id="f" x="-.15" width="1.31" y="-.15" height="1.31" color-interpolation-filters="sRGB"><feGaussianBlur stdDeviation="2.05"/></filter><filter id="g" x="-.09" width="1.18" y="-.22" height="1.44" color-interpolation-filters="sRGB"><feGaussianBlur stdDeviation="2.05"/></filter></defs><path d="M2.97 49.36v58.63A2.9 2.9 0 0 0 5.96 111h115.98c2.13 0 3.03-1.35 3.03-2.97V32.6a4.6 4.6 0 0 0-4.62-4.6H60.7v5.36h-.03c0 .22.03.42.03.64a15.54 15.54 0 0 1-2.62 8.6 15.37 15.37 0 0 1-12.74 6.76H15.33z" fill="url(#d)" enable-background="new"/><path d="M17.7 18.02C9.56 18.02 3 23.72 3 30.79c0 .18.02.35.03.52H3v14.05h38.62c8.14 0 14.7-5.7 14.7-12.76 0-.18-.03-.35-.04-.53h.03V18.02H22.13z" fill="#668000" enable-background="new"/><path d="M3 83v9h122v-9z" opacity=".43" enable-background="new"/><rect ry="1" rx="0" y="92" x="3" height="1" width="122" opacity=".11" fill="#fff" enable-background="new"/><path d="M3 83v9l122-4v-5z" opacity=".57" fill="url(#e)" enable-background="new"/><path d="M89.43 52.1a16.05 16.05 0 0 0-16.05 16.05 16.05 16.05 0 0 0 16.05 16.06 16.05 16.05 0 0 0 16.06-16.06A16.05 16.05 0 0 0 89.43 52.1z" transform="matrix(1.00385 0 0 .95285 -.34 2.35)" opacity=".75" filter="url(#f)"/><path d="M89.43 90.63A28.9 28.9 0 0 0 61.3 113.1h56.24a28.9 28.9 0 0 0-28.1-22.47z" transform="matrix(1.00385 0 0 .95285 -.34 2.35)" opacity=".75" filter="url(#g)"/><path d="M85.44 56.1a16.05 16.05 0 0 0-16.06 16.05 16.05 16.05 0 0 0 16.06 16.06 16.05 16.05 0 0 0 16.05-16.06A16.05 16.05 0 0 0 85.44 56.1zm0 38.53a28.9 28.9 0 0 0-28.15 22.47h56.24a28.9 28.9 0 0 0-28.1-22.47z" fill="#668000"/></svg>