<svg xmlns="http://www.w3.org/2000/svg" xmlns:xlink="http://www.w3.org/1999/xlink" width="128" height="128" enable-background="new"><defs><linearGradient id="a"><stop offset="0" stop-color="#e20800"/><stop offset="1" stop-color="#9c0f0f"/></linearGradient><linearGradient gradientTransform="translate(0 -925.36)" xlink:href="#b" id="e" x1="125" y1="1007.25" x2="125" y2="1010.74" gradientUnits="userSpaceOnUse"/><linearGradient id="b"><stop offset="0"/><stop offset="1" stop-opacity=".05"/></linearGradient><radialGradient id="g" cx="62.22" cy="-3.44" r="10.08" gradientTransform="matrix(1.49064 0 0 1.38662 50.91 54.28)" gradientUnits="userSpaceOnUse"><stop offset="0" stop-color="#9e9e9e"/><stop offset="1" stop-color="#9e9e9e" stop-opacity="0"/></radialGradient><linearGradient xlink:href="#c" id="d" x1="26.37" y1="110.28" x2="26.37" y2="28.13" gradientUnits="userSpaceOnUse" gradientTransform="translate(-.03)"/><linearGradient id="c"><stop offset="0"/><stop offset="1" stop-color="#666"/></linearGradient><filter id="f" x="-.08" width="1.17" y="-.08" height="1.17" color-interpolation-filters="sRGB"><feGaussianBlur stdDeviation="2.01"/></filter></defs><path d="M2.97 49.36v58.63A2.9 2.9 0 0 0 5.96 111h115.98c2.13 0 3.03-1.35 3.03-2.97V32.6a4.6 4.6 0 0 0-4.62-4.6H60.7v5.36h-.03c0 .22.03.42.03.64a15.54 15.54 0 0 1-2.62 8.6 15.37 15.37 0 0 1-12.74 6.76H15.33z" fill="url(#d)" enable-background="new"/><path d="M17.7 18.02C9.56 18.02 3 23.72 3 30.79c0 .18.02.35.03.52H3v14.05h38.62c8.14 0 14.7-5.7 14.7-12.76 0-.18-.03-.35-.04-.53h.03V18.02H22.13z" fill="#217867" enable-background="new"/><path d="M3 83v9h122v-9z" opacity=".43" enable-background="new"/><rect width="122" height="1" x="3" y="92" rx="0" ry="1" opacity=".11" fill="#fff" enable-background="new"/><path d="M3 83v9l122-4v-5z" opacity=".57" fill="url(#e)" enable-background="new"/><circle r="28.68" cy="84.89" cx="91.97" opacity=".75" fill-rule="evenodd" filter="url(#f)"/><circle r="28.68" cy="88.89" cx="87.97" fill="#217867" fill-rule="evenodd"/><path d="M88.58 63.92c-2.07.16-4.1.49-6.07 1.14-1.66.66 1.2-.58-.5-.82-1.03-.17-1.46.88-2.38.9-1.05.04-1.76.97-2.74 1.09-.36 1.95-.81-.77-1.14.17.26.98-.1 1.62-.86 2.18-.81.92-.05 1.75.73.94.38-1.13 1.6-2.38 2.8-1.63 1.19.66 2.37 2.23 3.36.55-1.02-.12-1.41-1-1.9-1.63-.54.04-2.8-.43-1.36-.32.72-.24 2.1-.93 2.6-.9-1.27.66.47 1.1 1 1.62.92.28 1.34 1.46.5 2.07-1.09.56.07 1.48.3 2.26.17 1.35 1.34.58 1.71-.25.54-1.5 2.26-1.45 3.5-2.1 1.37-.7 1.4-.72 2.04.28.5.29 2.15-.75 1.07-1.26-.94.06-1.55.63-.77-.82.2-.77.92-1.78.79-2.42zm-12.67 4.99c.49.49 2.1 1.38 1.95.15-.2-.84-1.41-.84-1.95-.15zm24.54-.6c-1.11.22-2.21.47-3.1 1.24.27 1.06-1.12 1.22-1.73 1.8-.16.34-.03 2.48.7 1.56.78-1.04 1.12.55 1.95.71.6-.2.67-1.54.45-2.17.38-.63 1.01-1.5 1.83-1.43-.51.77-1.09 2.74.52 1.93.47 0-1.27 1.02-1.37 1.72-.65.7-1.34 1.23-2.28.69-.45-.38-.68-1.49-.97-.24.59 1-1.47.07-1.42 1.4-.43.83-1.2 1.17-2.11 1.23.33.26 1.61 1.8.34 1.58-.82.1-2.01.55-1.68 1.58-.37 1.27.57.95 1.16 1.75.94-.27 1.55-.85 1.7-1.84.89-.26 1-1.26 1.97-1.24.97-.54 1.2 1 2.1 1.11.1.55-.45 1.73.62.64 1.03-.75-1.07-1.72-.42-1.9.94.3 1.27 1.18 1.42 2.05.76 1.3.95.6 1.01-.55 1.19-.53 1.55 2.22 3.23 1.54 1.25.26.8 1.12-.03 1.65-.67.64-1.8.23-2.6-.02-.76-.38-1.78-.34-2.2.52-.62-.3-1.27-1.23-1.9-1.78-1.58-.69-3.29-.1-4.86.33-1.34 1.57-2.96 3-3.54 5.04-.85.87.73 1.37-.33 2.1-.87.7.14 1.58.33 2.37.82 1 2.2 4.15 3.47 2.9.72-1.08 1.11.83 1.95-.4.67-.55 1.3.61 2.28.19.94.58.76 1.4.37 2.28.21.73 1.26 1.27.85 2.26-.37.92.79 1.62.56 2.43a5.9 5.9 0 0 0 .12 5.02c.58 1.4.92 2.9.87 4.41 1 .3 1.54-.98 2.54-.7.98.14 1.34-1.11 2.03-1.63.76-.63-.1-1.6 1.12-2.05 1.18-.58-1.5-1.38.02-1.9.62-.7 1.9-.94 2.16-1.85-.46-1.4-.3-2.95-.23-4.39a7.2 7.2 0 0 1 1.93-3c.38-1.26 1.28-2.4 1.2-3.75-2.22.68-1.55-.29-.31-1.18.86-.57 1.9-1.14 2.3-2.1.2-1.1-.61-2.88-1.36-1.23-.33-.63-1.56-.97-1.5-1.8-.25-1.7.46-.2 1.16.15 1.5-.82 2.27 2.4 3.22.48-.83-6.04-4.12-11.52-8.56-15.63-.77-1.48-1.25 1.02-2.03.92-.63-.65-1.8-1.54-.16-1.23 1.4-.41.45-.95-.58-.93a9.11 9.11 0 0 1-2.2-.64zm-27.77.6c-.37 1.82-2.72 1.61-3.53 3.41a27.58 27.58 0 0 0-7.19 15.67c.36 1.36 1.5 2.02 2.65 2.62.97.56 2.4.31 2.95 1.5.61.5 1.27 1.49 2.14 1.19 1.27-.13.49 1.16.27 1.8-.08.82-1.09 1.35-.7 2.14-.33.89-.59 1.78.14 2.55.61 1.13 1.11 2.36 2.25 3.07.8.67 1.7 1.56 1.4 2.7-.17.92.05 1.77.5 2.58-.16.9-.49 1.83-.56 2.73 1.2.84 3.61 2.78 3.8.66.67-.6.71-1.59 1.85-1.6.53-.64.7-1.65 1.1-2.44-.57-.73.23-1.85 1.09-1.82 1.1.08 1.06-1.2 1.5-1.92-.01-1.04-.53-2.23.41-3 .7-.65.63-1.59.74-2.45-1.58-.98-3.66-1.48-4.91-2.8-.25-1.03-1.03-1.38-2.02-1.45-.41-.59-.34-1.98-1.07-2.05-.94.18-1.88.33-2.56-.5-.78-1.04-1.44.28-2.15.75-.67 1.15-2.53-.06-2.3-1.36.65-1.8-2.22.2-1.04-1.93.56-2.32-.96-.53-1.75-.02-.97.02-1.34-.95-1.17-1.84-.12-1.06.65-1.6 1.44-2.13 1.06.16 1.33-.76 2.12-.64 1-.05 1.36.9 1.92 1.53.24-.9-.25-2.18.75-2.68.76-.58 1.54-1.15 1.72-2.15.18-1.05 1.74-.63 2-1.7.37-1.1 2.05-.2 2.42-1.3 1.18-1.11-.37-.77-1.21-.8-1.67.16.16-.45.79-.8.93.13 1.78-.18 2.63-.5.12 1.16.34 1.77.93.41-1.16-.27-.16-1.4-1.3-1.7-.9.06.01-1.92-1.1-1.7-1.44.96-.15-.68-1.33-.9-.93-1-1.16.65-1.66 1.24.33 1.15-1.07.9-1.32 1.84-.57 1.7-.33-.12-1-.55-.84-.34-1.84-.51-1.85-1.6 1.12-.83 2.8-1.3 3.52-2.6.41-1-.36-1.54-1.3-1.47zm19.82 2.21c-.16.9.74 1.37.42 2.31-.29 1.04-.37 1.87.92 1.26 1.35-.69.49-1.22-.05-2.12-.37-.6-.33-1.73-1.29-1.45zm-1.01 1.48c-1.07-.32-.84 1.96-.17 1.37.99-.24.32-.71.17-1.37zm13.54 12.16c1.28 1.14 1.72 2.83 2.54 4.26 1.23.54.06 1.46.6 2.13 1.15 1.24-1.58.33-1.22-.92-.26-1.64-1.42-2.76-1.98-4.2-.06-.47-.52-.96.06-1.27z" fill="#fff" stroke="url(#g)" stroke-width="1.1"/></svg>