<svg xmlns="http://www.w3.org/2000/svg" xmlns:xlink="http://www.w3.org/1999/xlink" width="128" height="128" enable-background="new"><defs><linearGradient id="a"><stop offset="0" stop-color="#e20800"/><stop offset="1" stop-color="#9c0f0f"/></linearGradient><linearGradient gradientTransform="translate(0 -925.36)" xlink:href="#b" id="e" x1="125" y1="1007.25" x2="125" y2="1010.74" gradientUnits="userSpaceOnUse"/><linearGradient id="b"><stop offset="0"/><stop offset="1" stop-opacity=".05"/></linearGradient><linearGradient xlink:href="#c" id="d" x1="26.37" y1="110.28" x2="26.37" y2="28.13" gradientUnits="userSpaceOnUse" gradientTransform="translate(-.03)"/><linearGradient id="c"><stop offset="0"/><stop offset="1" stop-color="#666"/></linearGradient><filter id="f" x="-.08" width="1.15" y="-.09" height="1.19" color-interpolation-filters="sRGB"><feGaussianBlur stdDeviation="1.88"/></filter></defs><path d="M2.97 49.36v58.63A2.9 2.9 0 0 0 5.96 111h115.98c2.13 0 3.03-1.35 3.03-2.97V32.6a4.6 4.6 0 0 0-4.62-4.6H60.7v5.36h-.03c0 .22.03.42.03.64a15.54 15.54 0 0 1-2.62 8.6 15.37 15.37 0 0 1-12.74 6.76H15.33z" fill="url(#d)" enable-background="new"/><path d="M17.7 18.02C9.56 18.02 3 23.72 3 30.79c0 .18.02.35.03.52H3v14.05h38.62c8.14 0 14.7-5.7 14.7-12.76 0-.18-.03-.35-.04-.53h.03V18.02H22.13z" fill="#7137c8" enable-background="new"/><path d="M3 83v9h122v-9z" opacity=".43" enable-background="new"/><rect width="122" height="1" x="3" y="92" rx="0" ry="1" opacity=".11" fill="#fff" enable-background="new"/><path d="M3 83v9l122-4v-5z" opacity=".57" fill="url(#e)" enable-background="new"/><path d="M61.91 61.53a2.44 2.44 0 0 0-2.5 2.38V97.29c0 1.32 1.16 2.38 2.5 2.38h5v4.76a4.86 4.86 0 0 0 5 4.76h35c2.78 0 5-2.11 5-4.76V99.6l5 .07a2.42 2.42 0 0 0 2.5-2.38V63.9a2.44 2.44 0 0 0-2.5-2.38z" opacity=".75" filter="url(#f)"/><path d="M55.91 67.53a2.5 2.5 0 0 0-2.5 2.5v35.04c0 1.39 1.16 2.5 2.5 2.5h5v5c0 2.78 2.22 5 5 5h35c2.78 0 5-2.22 5-5v-5.07l5 .07a2.48 2.48 0 0 0 2.5-2.5V70.03a2.5 2.5 0 0 0-2.5-2.5z" fill="#7137c8"/><path d="M65.08 93.9h36.67v18.34H65.08z" fill="#fff"/></svg>