<?xml version="1.0" encoding="UTF-8" standalone="no"?><!--Created with Inkscape (http://www.inkscape.org/)--><svg xmlns:dc="http://purl.org/dc/elements/1.1/" xmlns:cc="http://creativecommons.org/ns#" xmlns:rdf="http://www.w3.org/1999/02/22-rdf-syntax-ns#" xmlns="http://www.w3.org/2000/svg" xmlns:xlink="http://www.w3.org/1999/xlink" width="128" height="128" enable-background="new"><defs><linearGradient id="a"><stop offset="0" stop-color="#003165"/><stop offset="1" stop-color="#00438a" stop-opacity="0"/></linearGradient><linearGradient id="b"><stop offset="0" stop-color="#004d00" stop-opacity="0"/><stop offset=".5" stop-color="#004d00"/><stop offset="1" stop-color="#004d00" stop-opacity="0"/></linearGradient><linearGradient gradientTransform="rotate(90 -90 50)" y2="-384" x2="-23.52" y1="-384" x1="-84" gradientUnits="userSpaceOnUse" id="c"><stop offset="0" stop-color="#fff"/><stop offset="1" stop-color="#fff" stop-opacity="0"/></linearGradient><linearGradient id="d"><stop offset="0" stop-color="#0f0"/><stop offset="1" stop-color="#006500"/></linearGradient><linearGradient gradientTransform="rotate(90 -90 50)" y2="-384" x2="-12" y1="-384" x1="-84" gradientUnits="userSpaceOnUse" id="e"><stop offset="0" stop-color="#e5ff00"/><stop offset="1" stop-color="#bff500" stop-opacity="0"/></linearGradient><linearGradient gradientTransform="rotate(90 -90 50)" y2="-384" x2="-12" y1="-384" x1="-84" gradientUnits="userSpaceOnUse" id="f"><stop offset="0" stop-color="#008c00"/><stop offset="1" stop-color="#00bf00"/></linearGradient><linearGradient x2="28" y1="57.5" x1="28" gradientUnits="userSpaceOnUse" id="h"><stop offset="0" stop-color="#fffccf"/><stop offset="1" stop-color="#fff" stop-opacity="0"/></linearGradient><linearGradient id="g" gradientUnits="userSpaceOnUse" x1="28" y1="57.5" x2="28"><stop offset="0" stop-color="#ffea00"/><stop offset="1" stop-color="#fc0"/></linearGradient><linearGradient id="p"><stop offset="0" stop-color="#000914"/><stop offset="1" stop-color="#00316e"/></linearGradient><linearGradient id="q"><stop offset="0" stop-color="#00f3fd"/><stop offset="1" stop-color="#00c4cc" stop-opacity="0"/></linearGradient><linearGradient id="i"><stop offset="0" stop-color="#fff"/><stop offset="1" stop-color="#fff" stop-opacity="0"/></linearGradient><linearGradient id="n"><stop offset="0" stop-color="#e00000"/><stop offset="1" stop-color="red" stop-opacity=".41"/></linearGradient><linearGradient id="l"><stop offset="0" stop-color="#f9ccca"/><stop offset="1" stop-color="#f9ccca" stop-opacity="0"/></linearGradient><linearGradient id="m"><stop offset="0" stop-color="#e20800"/><stop offset="1" stop-color="#9c0f0f"/></linearGradient><linearGradient id="j"><stop offset="0"/><stop offset="1" stop-opacity="0"/></linearGradient><linearGradient id="k"><stop offset="0" stop-color="#fff"/><stop offset="1" stop-color="#f1f1f1"/></linearGradient><linearGradient xlink:href="#m" id="o" gradientUnits="userSpaceOnUse" x1="32" y1="73.42" x2="32" y2="24.31"/><radialGradient gradientUnits="userSpaceOnUse" r="139.56" cy="112.3" cx="102" id="s"><stop offset="0" stop-color="#b7b8b9"/><stop offset=".19" stop-color="#ececec"/><stop offset=".26" stop-color="#fafafa"/><stop offset=".3" stop-color="#fff"/><stop offset=".53" stop-color="#fafafa"/><stop offset=".84" stop-color="#ebecec"/><stop offset="1" stop-color="#e1e2e3"/></radialGradient><linearGradient id="r"><stop offset="0" stop-color="#a2a2a2"/><stop offset="1" stop-color="#fff"/></linearGradient><linearGradient gradientTransform="translate(0 -1)" xlink:href="#t" id="w" x1="125" y1="1007.25" x2="125" y2="1010.74" gradientUnits="userSpaceOnUse"/><linearGradient id="t"><stop offset="0"/><stop offset="1" stop-opacity=".05"/></linearGradient><filter id="x" x="-.09" width="1.18" y="-.08" height="1.16" color-interpolation-filters="sRGB"><feGaussianBlur stdDeviation="2.59"/></filter><linearGradient xlink:href="#u" id="v" x1="26.37" y1="110.28" x2="26.37" y2="28.13" gradientUnits="userSpaceOnUse" gradientTransform="translate(-.03 924.36)"/><linearGradient id="u"><stop offset="0"/><stop offset="1" stop-color="#666"/></linearGradient></defs><metadata><rdf:RDF><cc:Work><dc:format>image/svg+xml</dc:format><dc:type rdf:resource="http://purl.org/dc/dcmitype/StillImage"/><dc:title/></cc:Work></rdf:RDF></metadata><g transform="translate(0 -924.36)"><path d="M2.97 973.72V1032.35a2.9 2.9 0 0 0 2.99 3.01h115.98c2.13 0 3.03-1.35 3.03-2.97V956.96a4.6 4.6 0 0 0-4.62-4.6H60.7v5.36h-.03c0 .22.03.42.03.64a15.54 15.54 0 0 1-2.62 8.6 15.37 15.37 0 0 1-12.74 6.76H15.33z" fill="url(#v)" enable-background="new"/><path d="M17.7 942.38c-8.14 0-14.7 5.7-14.7 12.77 0 .18.02.35.03.52H3v14.05h38.62c8.14 0 14.7-5.7 14.7-12.76 0-.18-.03-.35-.04-.53h.03v-14.05H22.13z" fill="#7c6f91" enable-background="new"/><path d="M3 1007.36v9h122v-9z" opacity=".43" enable-background="new"/><rect width="122" height="1" x="3" y="1016.36" rx="0" ry="1" opacity=".11" fill="#fff" enable-background="new"/><path d="M3 1007.36v9l122-4v-5z" opacity=".57" fill="url(#w)" enable-background="new"/><path d="M119.49 965.15l-63.65 16.78 2.12 7.76V1045.36h65.8v-55.91H59.12l62.5-16.47z" transform="matrix(.98406 0 0 .86249 .48 132.31)" opacity=".75" filter="url(#x)" enable-background="new"/><path fill="#7c6f91" enable-background="new" d="M53.97 1001.93h65.8v43.43h-65.8z"/><path fill="#fff" enable-background="new" d="M53.96 993.45h65.81v8.25H53.96z"/><path d="M88.89 1001.7h11l5.49-8.25H94.42zM109.45 1001.7h10.28v-8.32l-4.74.07z" fill="#7c6f91" enable-background="new"/><path fill="#fff" enable-background="new" d="M51.85 985.93l63.64-16.78 2.13 7.83-63.64 16.77z"/><path d="M117.62 976.98l-4.68 1.23-7.43-6.42 9.98-2.63zM103.7 980.65l-10.65 2.8-7.43-6.42 10.6-2.8zM61.94 991.65l-7.96 2.1-2.13-7.82 2.6-.69zM83.81 985.89l-10.65 2.8-7.43-6.42 10.6-2.8zM68.32 1001.7h11.01l5.48-8.25H73.85z" fill="#7c6f91" enable-background="new"/><path d="M57.15 988.63l9.17 7.04-9.17 7.05-3.19-.04v-14.14l3.2.1z" fill="#7c6f91" fill-rule="evenodd" enable-background="new"/><path fill="#fff" d="M101.47 1023.65l-25.5 14.42v-28.85z"/></g></svg>