<svg xmlns="http://www.w3.org/2000/svg" xmlns:xlink="http://www.w3.org/1999/xlink" width="128" height="128" enable-background="new"><defs><linearGradient id="a"><stop offset="0" stop-color="#e20800"/><stop offset="1" stop-color="#9c0f0f"/></linearGradient><linearGradient gradientTransform="translate(0 -925.36)" xlink:href="#b" id="e" x1="125" y1="1007.25" x2="125" y2="1010.74" gradientUnits="userSpaceOnUse"/><linearGradient id="b"><stop offset="0"/><stop offset="1" stop-opacity=".05"/></linearGradient><linearGradient xlink:href="#c" id="d" x1="26.37" y1="110.28" x2="26.37" y2="28.13" gradientUnits="userSpaceOnUse" gradientTransform="translate(-.03)"/><linearGradient id="c"><stop offset="0"/><stop offset="1" stop-color="#666"/></linearGradient><filter id="f" x="-.18" width="1.35" y="-.06" height="1.11" color-interpolation-filters="sRGB"><feGaussianBlur stdDeviation="1.32"/></filter></defs><path d="M2.97 49.36v58.63A2.9 2.9 0 0 0 5.96 111h115.98c2.13 0 3.03-1.35 3.03-2.97V32.6a4.6 4.6 0 0 0-4.62-4.6H60.7v5.36h-.03c0 .22.03.42.03.64a15.54 15.54 0 0 1-2.62 8.6 15.37 15.37 0 0 1-12.74 6.76H15.33z" fill="url(#d)" enable-background="new"/><path d="M17.7 18.02C9.56 18.02 3 23.72 3 30.79c0 .18.02.35.03.52H3v14.05h38.62c8.14 0 14.7-5.7 14.7-12.76 0-.18-.03-.35-.04-.53h.03V18.02H22.13z" fill="#c5a937" enable-background="new"/><path d="M3 83v9h122v-9z" opacity=".43" enable-background="new"/><rect width="122" height="1" x="3" y="92" rx="0" ry="1" opacity=".11" fill="#fff" enable-background="new"/><path d="M3 83v9l122-4v-5z" opacity=".57" fill="url(#e)" enable-background="new"/><path transform="matrix(.93721 0 0 .93721 7.04 4.5)" d="M80.48 27.93v5.96h7.95l3.98-2.98-3.98-2.98zm9.95 5.96l-3.98 2.99 3.98 2.98h7.95v-5.97zm-9.95 5.97v5.97h7.95l3.98-2.99-3.98-2.98zm9.95 5.97l-3.98 2.98 3.98 2.99h7.95v-5.97zm-9.95 5.97v5.97h7.95l3.98-2.99-3.98-2.98zm9.95 5.97l-3.98 2.98 3.98 2.98h7.95v-5.96zm-4.38 8.67a3.28 3.28 0 0 0-3.29 3.28v12.3a3.28 3.28 0 0 0 3.29 3.29h6.76a3.28 3.28 0 0 0 3.28-3.29v-12.3a3.28 3.28 0 0 0-3.28-3.28zm.7 3.63h5.35c1.23 0 2.22 1 2.22 2.22v2.87c0 1.23-.99 2.22-2.22 2.22h-5.34c-1.23 0-2.23-.99-2.23-2.22v-2.87c0-1.23 1-2.22 2.23-2.22z" opacity=".75" fill-rule="evenodd" filter="url(#f)"/><path d="M79.66 27.97v5.57h7.41l3.71-2.79-3.7-2.78zm9.27 5.57l-3.7 2.78 3.7 2.78h7.41v-5.56zm-9.27 5.56v5.56h7.41l3.71-2.78-3.7-2.78zm9.27 5.56l-3.7 2.78 3.7 2.78h7.41v-5.56zm-9.27 5.56v5.56h7.41L90.78 53l-3.7-2.78zm9.27 5.56l-3.7 2.79 3.7 2.77h7.41v-5.56zm-4.08 8.08a3.06 3.06 0 0 0-3.06 3.07v11.46c0 1.7 1.36 3.06 3.06 3.06h6.3c1.7 0 3.06-1.36 3.06-3.06V66.93c0-1.7-1.36-3.07-3.06-3.07zm.66 3.4h4.98c1.15 0 2.07.92 2.07 2.07v2.66c0 1.15-.92 2.08-2.07 2.08H85.5a2.07 2.07 0 0 1-2.07-2.08v-2.66c0-1.15.92-2.08 2.07-2.08z" fill="#c5a937" fill-rule="evenodd"/></svg>