<?xml version="1.0" encoding="UTF-8" standalone="no"?><!--Created with Inkscape (http://www.inkscape.org/)--><svg xmlns:dc="http://purl.org/dc/elements/1.1/" xmlns:cc="http://creativecommons.org/ns#" xmlns:rdf="http://www.w3.org/1999/02/22-rdf-syntax-ns#" xmlns="http://www.w3.org/2000/svg" xmlns:xlink="http://www.w3.org/1999/xlink" width="128" height="128" enable-background="new"><defs><linearGradient id="a"><stop offset="0" stop-color="#003165"/><stop offset="1" stop-color="#00438a" stop-opacity="0"/></linearGradient><linearGradient id="b"><stop offset="0" stop-color="#004d00" stop-opacity="0"/><stop offset=".5" stop-color="#004d00"/><stop offset="1" stop-color="#004d00" stop-opacity="0"/></linearGradient><linearGradient gradientTransform="rotate(90 -90 50)" y2="-384" x2="-23.52" y1="-384" x1="-84" gradientUnits="userSpaceOnUse" id="c"><stop offset="0" stop-color="#fff"/><stop offset="1" stop-color="#fff" stop-opacity="0"/></linearGradient><linearGradient id="d"><stop offset="0" stop-color="#0f0"/><stop offset="1" stop-color="#006500"/></linearGradient><linearGradient gradientTransform="rotate(90 -90 50)" y2="-384" x2="-12" y1="-384" x1="-84" gradientUnits="userSpaceOnUse" id="e"><stop offset="0" stop-color="#e5ff00"/><stop offset="1" stop-color="#bff500" stop-opacity="0"/></linearGradient><linearGradient gradientTransform="rotate(90 -90 50)" y2="-384" x2="-12" y1="-384" x1="-84" gradientUnits="userSpaceOnUse" id="f"><stop offset="0" stop-color="#008c00"/><stop offset="1" stop-color="#00bf00"/></linearGradient><linearGradient x2="28" y1="57.5" x1="28" gradientUnits="userSpaceOnUse" id="h"><stop offset="0" stop-color="#fffccf"/><stop offset="1" stop-color="#fff" stop-opacity="0"/></linearGradient><linearGradient id="g" gradientUnits="userSpaceOnUse" x1="28" y1="57.5" x2="28"><stop offset="0" stop-color="#ffea00"/><stop offset="1" stop-color="#fc0"/></linearGradient><linearGradient id="p"><stop offset="0" stop-color="#000914"/><stop offset="1" stop-color="#00316e"/></linearGradient><linearGradient id="q"><stop offset="0" stop-color="#00f3fd"/><stop offset="1" stop-color="#00c4cc" stop-opacity="0"/></linearGradient><linearGradient id="i"><stop offset="0" stop-color="#fff"/><stop offset="1" stop-color="#fff" stop-opacity="0"/></linearGradient><linearGradient id="n"><stop offset="0" stop-color="#e00000"/><stop offset="1" stop-color="red" stop-opacity=".41"/></linearGradient><linearGradient id="l"><stop offset="0" stop-color="#f9ccca"/><stop offset="1" stop-color="#f9ccca" stop-opacity="0"/></linearGradient><linearGradient id="m"><stop offset="0" stop-color="#e20800"/><stop offset="1" stop-color="#9c0f0f"/></linearGradient><linearGradient id="j"><stop offset="0"/><stop offset="1" stop-opacity="0"/></linearGradient><linearGradient id="k"><stop offset="0" stop-color="#fff"/><stop offset="1" stop-color="#f1f1f1"/></linearGradient><linearGradient xlink:href="#m" id="o" gradientUnits="userSpaceOnUse" x1="32" y1="73.42" x2="32" y2="24.31"/><radialGradient gradientUnits="userSpaceOnUse" r="139.56" cy="112.3" cx="102" id="s"><stop offset="0" stop-color="#b7b8b9"/><stop offset=".19" stop-color="#ececec"/><stop offset=".26" stop-color="#fafafa"/><stop offset=".3" stop-color="#fff"/><stop offset=".53" stop-color="#fafafa"/><stop offset=".84" stop-color="#ebecec"/><stop offset="1" stop-color="#e1e2e3"/></radialGradient><linearGradient id="r"><stop offset="0" stop-color="#a2a2a2"/><stop offset="1" stop-color="#fff"/></linearGradient><linearGradient gradientTransform="translate(0 -1)" xlink:href="#t" id="x" x1="125" y1="1007.25" x2="125" y2="1010.74" gradientUnits="userSpaceOnUse"/><linearGradient id="t"><stop offset="0"/><stop offset="1" stop-opacity=".05"/></linearGradient><filter id="w" x="-.08" width="1.17" y="-.08" height="1.17" color-interpolation-filters="sRGB"><feGaussianBlur stdDeviation="2.04"/></filter><linearGradient xlink:href="#u" id="v" x1="26.37" y1="110.28" x2="26.37" y2="28.13" gradientUnits="userSpaceOnUse" gradientTransform="translate(-.03 924.36)"/><linearGradient id="u"><stop offset="0"/><stop offset="1" stop-color="#666"/></linearGradient></defs><metadata><rdf:RDF><cc:Work><dc:format>image/svg+xml</dc:format><dc:type rdf:resource="http://purl.org/dc/dcmitype/StillImage"/><dc:title/></cc:Work></rdf:RDF></metadata><g transform="translate(0 -924.36)"><path d="M2.97 973.72V1032.35a2.9 2.9 0 0 0 2.99 3.01h115.98c2.13 0 3.03-1.35 3.03-2.97V956.96a4.6 4.6 0 0 0-4.62-4.6H60.7v5.36h-.03c0 .22.03.42.03.64a15.54 15.54 0 0 1-2.62 8.6 15.37 15.37 0 0 1-12.74 6.76H15.33z" fill="url(#v)" enable-background="new"/><path style="marker:none" d="M101.97 983.55a6.87 6.87 0 0 0-5.03 1.85c-.32.29-.62.61-.91.98-4.7 5.89-.97 16.72-4.62 26.29 9.58-3.65 20.4.08 26.3-4.61 5.88-4.7 1.6-12.54-3.77-17.91-3.47-3.47-7.96-6.48-11.97-6.6zm-10.56 29.12c3.65 9.57-.08 20.4 4.62 26.28 4.69 5.89 12.53 1.61 17.9-3.76 5.38-5.38 9.66-13.22 3.77-17.91-5.89-4.7-16.71-.96-26.29-4.61zm0 0c-9.57 3.65-20.4-.09-26.28 4.6-.37.3-.7.6-.99.92-4.36 4.75-.28 11.96 4.75 17 5.38 5.37 13.22 9.65 17.91 3.76 4.7-5.88.97-16.71 4.61-26.28zm0 0c-3.64-9.57.09-20.4-4.6-26.29-4.7-5.88-12.54-1.6-17.92 3.77-5.37 5.37-9.65 13.22-3.76 17.9 5.89 4.7 16.71.97 26.28 4.62z" transform="matrix(1 0 0 .91132 0 87.22)" color="#000" overflow="visible" opacity=".75" fill="#1a1a1a" fill-rule="evenodd" filter="url(#w)" enable-background="accumulate"/><path d="M17.7 942.38c-8.14 0-14.7 5.7-14.7 12.77 0 .18.02.35.03.52H3v14.05h38.62c8.14 0 14.7-5.7 14.7-12.76 0-.18-.03-.35-.04-.53h.03v-14.05H22.13z" fill="#c5a937" enable-background="new"/><path d="M3 1007.36v9h122v-9z" opacity=".43" enable-background="new"/><rect width="122" height="1" x="3" y="1016.36" rx="0" ry="1" opacity=".11" fill="#fff" enable-background="new"/><path d="M3 1007.36v9l122-4v-5z" opacity=".57" fill="url(#x)" enable-background="new"/><path d="M64.9 994.15c-5.38 5.37-9.66 13.22-3.77 17.9 5.89 4.7 16.71.97 26.28 4.62-3.64-9.57.09-20.4-4.6-26.29-4.7-5.88-12.54-1.6-17.92 3.77z" style="marker:none" color="#000" overflow="visible" fill="#decd87" fill-rule="evenodd" enable-background="accumulate"/><path d="M92.94 989.4c-.32.29-.62.61-.92.98-4.69 5.89-.96 16.72-4.6 26.29 9.57-3.65 20.4.08 26.28-4.61 5.89-4.7 1.6-12.54-3.77-17.91-5.03-5.04-12.24-9.12-17-4.75z" style="marker:none" color="#000" overflow="visible" fill="#c8ab37" fill-rule="evenodd" enable-background="accumulate"/><path d="M87.41 1016.67c3.65 9.57-.08 20.4 4.61 26.28 4.7 5.9 12.54 1.61 17.91-3.76 5.38-5.38 9.66-13.22 3.77-17.91-5.89-4.7-16.71-.96-26.29-4.61z" style="marker:none" color="#000" overflow="visible" fill="#decd87" fill-rule="evenodd" enable-background="accumulate"/><path d="M60.14 1022.2c-4.36 4.74-.29 11.95 4.75 16.99 5.38 5.37 13.22 9.65 17.91 3.76 4.7-5.88.97-16.71 4.61-26.28-9.57 3.65-20.4-.09-26.28 4.6-.37.3-.7.6-.99.92z" style="marker:none" color="#000" overflow="visible" fill="#c8ab37" fill-opacity=".98" fill-rule="evenodd" enable-background="accumulate"/></g></svg>