<svg xmlns="http://www.w3.org/2000/svg" xmlns:xlink="http://www.w3.org/1999/xlink" width="128" height="128" enable-background="new"><defs><linearGradient id="a"><stop offset="0" stop-color="#e20800"/><stop offset="1" stop-color="#9c0f0f"/></linearGradient><linearGradient gradientTransform="translate(0 -925.36)" xlink:href="#b" id="e" x1="125" y1="1007.25" x2="125" y2="1010.74" gradientUnits="userSpaceOnUse"/><linearGradient id="b"><stop offset="0"/><stop offset="1" stop-opacity=".05"/></linearGradient><linearGradient xlink:href="#c" id="d" x1="26.37" y1="110.28" x2="26.37" y2="28.13" gradientUnits="userSpaceOnUse" gradientTransform="translate(-.03)"/><linearGradient id="c"><stop offset="0"/><stop offset="1" stop-color="#666"/></linearGradient><filter id="f" x="-.07" width="1.14" y="-.11" height="1.21" color-interpolation-filters="sRGB"><feGaussianBlur stdDeviation="2.02"/></filter></defs><path d="M2.97 49.36v58.63A2.9 2.9 0 0 0 5.96 111h115.98c2.13 0 3.03-1.35 3.03-2.97V32.6a4.6 4.6 0 0 0-4.62-4.6H60.7v5.36h-.03c0 .22.03.42.03.64a15.54 15.54 0 0 1-2.62 8.6 15.37 15.37 0 0 1-12.74 6.76H15.33z" fill="url(#d)" enable-background="new"/><path d="M17.7 18.02C9.56 18.02 3 23.72 3 30.79c0 .18.02.35.03.52H3v14.05h38.62c8.14 0 14.7-5.7 14.7-12.76 0-.18-.03-.35-.04-.53h.03V18.02H22.13z" fill="#3771c8" enable-background="new"/><path d="M3 83v9h122v-9z" opacity=".43" enable-background="new"/><rect width="122" height="1" x="3" y="92" rx="0" ry="1" opacity=".11" fill="#fff" enable-background="new"/><path d="M3 83v9l122-4v-5z" opacity=".57" fill="url(#e)" enable-background="new"/><path transform="matrix(1.00342 0 0 .94828 -.29 3.42)" d="M58.72 68.47c-.7 0-1.17.4-1.33.94l-7.6 38.77c-1.02 3.76 7.05 8.3 12.3 5.25l12.3-17.94h20.2l12.37 18.02c5.25 2.97 13.32-1.57 12.22-5.33l-7.52-38.69a1.27 1.27 0 0 0-1.25-.94H58.72z" opacity=".75" filter="url(#f)"/><path d="M54.72 72.47c-.7 0-1.17.4-1.33.94l-7.6 38.77c-1.02 3.76 7.05 8.3 12.3 5.25l12.3-17.94h20.2l12.37 18.02c5.25 2.97 13.32-1.57 12.22-5.33l-7.52-38.69a1.27 1.27 0 0 0-1.25-.94H54.72z" fill="#3771c8"/><path d="M63.65 77.17H66a1.1 1.1 0 0 1 1.1 1.1v3.37h3.36a1.1 1.1 0 0 1 1.1 1.1V85a1.1 1.1 0 0 1-1.1 1.1H67.1v3.37a1.1 1.1 0 0 1-1.18 1.17h-2.11a1.1 1.1 0 0 1-1.18-1.17V86.1h-3.37A1.1 1.1 0 0 1 58.1 85v-2.34a1.1 1.1 0 0 1 1.1-1.1h3.36v-3.37a1.1 1.1 0 0 1 1.1-1.1zM96.07 77.17a2.27 2.27 0 0 0-2.11 2.2 2.27 2.27 0 0 0 2.27 2.27 2.27 2.27 0 0 0 2.27-2.27 2.27 2.27 0 0 0-2.27-2.2 2.27 2.27 0 0 0-.16 0zm-4.47 4.47a2.27 2.27 0 0 0-2.1 2.27 2.27 2.27 0 0 0 2.26 2.19 2.27 2.27 0 0 0 2.2-2.2 2.27 2.27 0 0 0-2.2-2.26 2.27 2.27 0 0 0-.15 0 2.27 2.27 0 0 0-.01 0zm8.94 0a2.27 2.27 0 0 0-2.04 2.27 2.27 2.27 0 0 0 2.2 2.19 2.27 2.27 0 0 0 2.27-2.2 2.27 2.27 0 0 0-2.28-2.26 2.27 2.27 0 0 0-.15 0zm-4.47 4.46a2.27 2.27 0 0 0-2.11 2.2 2.27 2.27 0 0 0 2.27 2.34 2.27 2.27 0 0 0 2.27-2.27 2.27 2.27 0 0 0-2.27-2.27 2.27 2.27 0 0 0-.16 0z" fill="#fff"/></svg>