<svg xmlns="http://www.w3.org/2000/svg" xmlns:xlink="http://www.w3.org/1999/xlink" width="128" height="128" enable-background="new"><defs><linearGradient id="a"><stop offset="0" stop-color="#e20800"/><stop offset="1" stop-color="#9c0f0f"/></linearGradient><linearGradient gradientTransform="translate(0 -925.36)" xlink:href="#b" id="e" x1="125" y1="1007.25" x2="125" y2="1010.74" gradientUnits="userSpaceOnUse"/><linearGradient id="b"><stop offset="0"/><stop offset="1" stop-opacity=".05"/></linearGradient><linearGradient xlink:href="#c" id="d" x1="26.37" y1="110.28" x2="26.37" y2="28.13" gradientUnits="userSpaceOnUse" gradientTransform="translate(-.03)"/><linearGradient id="c"><stop offset="0"/><stop offset="1" stop-color="#666"/></linearGradient><filter id="f" x="-.08" width="1.16" y="-.09" height="1.18" color-interpolation-filters="sRGB"><feGaussianBlur stdDeviation="1.87"/></filter></defs><path d="M2.97 49.36v58.63A2.9 2.9 0 0 0 5.96 111h115.98c2.13 0 3.03-1.35 3.03-2.97V32.6a4.6 4.6 0 0 0-4.62-4.6H60.7v5.36h-.03c0 .22.03.42.03.64a15.54 15.54 0 0 1-2.62 8.6 15.37 15.37 0 0 1-12.74 6.76H15.33z" fill="url(#d)" enable-background="new"/><path d="M17.7 18.02C9.56 18.02 3 23.72 3 30.79c0 .18.02.35.03.52H3v14.05h38.62c8.14 0 14.7-5.7 14.7-12.76 0-.18-.03-.35-.04-.53h.03V18.02H22.13z" fill="#f95" enable-background="new"/><path d="M3 83v9h122v-9z" opacity=".43" enable-background="new"/><rect width="122" height="1" x="3" y="92" rx="0" ry="1" opacity=".11" fill="#fff" enable-background="new"/><path d="M3 83v9l122-4v-5z" opacity=".57" fill="url(#e)" enable-background="new"/><path transform="matrix(1 0 0 .92073 0 4.84)" d="M89.57 62.53l-25.42 44.05a2.93 2.93 0 0 0 2.54 4.4h50.86a2.95 2.95 0 0 0 2.54-4.4L94.66 62.53a2.95 2.95 0 0 0-5.09 0z" opacity=".75" filter="url(#f)"/><path d="M85.57 66.53l-25.42 44.05a2.93 2.93 0 0 0 2.54 4.4h50.86a2.95 2.95 0 0 0 2.54-4.4L90.66 66.53a2.95 2.95 0 0 0-5.09 0z" fill="#f95"/><path d="M88.12 78.28c-1.68 0-2.57.96-2.57 2.89 0 .68.04 1.44.14 2.33l1.3 15.33h2.25l1.3-15.33c.1-1.13.15-1.89.15-2.33 0-1.89-.9-2.9-2.57-2.9zm.03 24.22c-.73 0-1.35.26-1.85.78s-.75 1.13-.75 1.84c0 .74.25 1.34.76 1.81.5.47 1.09.71 1.75.71a2.57 2.57 0 0 0 2.63-2.52c0-.7-.25-1.3-.73-1.83a2.35 2.35 0 0 0-1.8-.79z" fill="#fff"/></svg>