<svg xmlns="http://www.w3.org/2000/svg" xmlns:xlink="http://www.w3.org/1999/xlink" width="128" height="128" enable-background="new"><defs><linearGradient id="a"><stop offset="0" stop-color="#e20800"/><stop offset="1" stop-color="#9c0f0f"/></linearGradient><linearGradient gradientTransform="translate(0 -925.36)" xlink:href="#b" id="f" x1="125" y1="1007.25" x2="125" y2="1010.74" gradientUnits="userSpaceOnUse"/><linearGradient id="b"><stop offset="0"/><stop offset="1" stop-opacity=".05"/></linearGradient><linearGradient xlink:href="#c" id="d" x1="26.37" y1="110.28" x2="26.37" y2="28.13" gradientUnits="userSpaceOnUse" gradientTransform="translate(-.03)"/><linearGradient id="c"><stop offset="0"/><stop offset="1" stop-color="#666"/></linearGradient><filter id="e" x="-.05" width="1.1" y="-.21" height="1.42" color-interpolation-filters="sRGB"><feGaussianBlur stdDeviation=".17"/></filter></defs><path d="M2.97 49.36v58.63A2.9 2.9 0 0 0 5.96 111h115.98c2.13 0 3.03-1.35 3.03-2.97V32.6a4.6 4.6 0 0 0-4.62-4.6H60.7v5.36h-.03c0 .22.03.42.03.64a15.54 15.54 0 0 1-2.62 8.6 15.37 15.37 0 0 1-12.74 6.76H15.33z" fill="url(#d)" enable-background="new"/><g transform="matrix(8.25 0 0 8.25 -31.71 -55.9)" filter="url(#e)" opacity=".75"><circle r="1" cy="15" cx="9"/><circle r="1" cy="15" cx="12"/><circle r="1" cy="15" cx="15"/></g><path d="M17.7 18.02C9.56 18.02 3 23.72 3 30.79c0 .18.02.35.03.52H3v14.05h38.62c8.14 0 14.7-5.7 14.7-12.76 0-.18-.03-.35-.04-.53h.03V18.02H22.13z" fill="#f95" enable-background="new"/><path d="M3 83v9h122v-9z" opacity=".43" enable-background="new"/><rect width="122" height="1" x="3" y="92" rx="0" ry="1" opacity=".11" fill="#fff" enable-background="new"/><path d="M3 83v9l122-4v-5z" opacity=".57" fill="url(#f)" enable-background="new"/><g transform="matrix(8.25 0 0 8.25 -35 -52.61)" fill="#f95"><circle r="1" cy="15" cx="9"/><circle r="1" cy="15" cx="12"/><circle r="1" cy="15" cx="15"/></g></svg>