<svg xmlns="http://www.w3.org/2000/svg" xmlns:xlink="http://www.w3.org/1999/xlink" width="128" height="128" enable-background="new"><defs><linearGradient id="a"><stop offset="0" stop-color="#e20800"/><stop offset="1" stop-color="#9c0f0f"/></linearGradient><linearGradient gradientTransform="translate(0 -925.36)" xlink:href="#b" id="f" x1="125" y1="1007.25" x2="125" y2="1010.74" gradientUnits="userSpaceOnUse"/><linearGradient id="b"><stop offset="0"/><stop offset="1" stop-opacity=".05"/></linearGradient><linearGradient xlink:href="#c" id="d" x1="26.37" y1="110.28" x2="26.37" y2="28.13" gradientUnits="userSpaceOnUse" gradientTransform="translate(-.03)"/><linearGradient id="c"><stop offset="0"/><stop offset="1" stop-color="#666"/></linearGradient><filter id="e" x="-.1" width="1.19" y="-.07" height="1.15" color-interpolation-filters="sRGB"><feGaussianBlur stdDeviation="1.71"/></filter></defs><path d="M2.97 49.36v58.63A2.9 2.9 0 0 0 5.96 111h115.98c2.13 0 3.03-1.35 3.03-2.97V32.6a4.6 4.6 0 0 0-4.62-4.6H60.7v5.36h-.03c0 .22.03.42.03.64a15.54 15.54 0 0 1-2.62 8.6 15.37 15.37 0 0 1-12.74 6.76H15.33z" fill="url(#d)" enable-background="new"/><path transform="matrix(1 0 0 .87489 0 7.82)" d="M93.6 62.48a13.05 13.05 0 0 0-11.2 6.37l4.45 2.69a8.12 8.12 0 0 1 6.83-4.15 8.21 8.21 0 0 1 8.14 8.22v5.22H72.64v31.48c0 3 2.3 5.3 5.3 5.3h31.48a5.2 5.2 0 0 0 5.22-5.3l.39-31.4-5.6-.08h-2.62v-5.22a13.05 13.05 0 0 0-13.13-13.13z" opacity=".75" filter="url(#e)"/><path d="M17.7 18.02C9.56 18.02 3 23.72 3 30.79c0 .18.02.35.03.52H3v14.05h38.62c8.14 0 14.7-5.7 14.7-12.76 0-.18-.03-.35-.04-.53h.03V18.02H22.13z" fill="#0ff" enable-background="new"/><path d="M3 83v9h122v-9z" opacity=".43" enable-background="new"/><rect width="122" height="1" x="3" y="92" rx="0" ry="1" opacity=".11" fill="#fff" enable-background="new"/><path d="M3 83v9l122-4v-5z" opacity=".57" fill="url(#f)" enable-background="new"/><path d="M89.6 66.48a13.05 13.05 0 0 0-11.2 6.37l4.45 2.69a8.12 8.12 0 0 1 6.83-4.15 8.21 8.21 0 0 1 8.14 8.22v5.22H68.64v31.48c0 3 2.3 5.3 5.3 5.3h31.48a5.2 5.2 0 0 0 5.22-5.3l.39-31.4-5.6-.08h-2.62v-5.22a13.05 13.05 0 0 0-13.13-13.13z" fill="#0ff"/></svg>