<svg xmlns="http://www.w3.org/2000/svg" xmlns:xlink="http://www.w3.org/1999/xlink" width="128" height="128" enable-background="new"><defs><linearGradient id="a"><stop offset="0" stop-color="#e20800"/><stop offset="1" stop-color="#9c0f0f"/></linearGradient><linearGradient gradientTransform="translate(0 -925.36)" xlink:href="#b" id="e" x1="125" y1="1007.25" x2="125" y2="1010.74" gradientUnits="userSpaceOnUse"/><linearGradient id="b"><stop offset="0"/><stop offset="1" stop-opacity=".05"/></linearGradient><linearGradient xlink:href="#c" id="d" x1="26.37" y1="110.28" x2="26.37" y2="28.13" gradientUnits="userSpaceOnUse" gradientTransform="translate(-.03)"/><linearGradient id="c"><stop offset="0"/><stop offset="1" stop-color="#666"/></linearGradient><filter id="f" x="-.07" width="1.14" y="-.11" height="1.22" color-interpolation-filters="sRGB"><feGaussianBlur stdDeviation="2.08"/></filter></defs><path d="M2.97 49.36v58.63A2.9 2.9 0 0 0 5.96 111h115.98c2.13 0 3.03-1.35 3.03-2.97V32.6a4.6 4.6 0 0 0-4.62-4.6H60.7v5.36h-.03c0 .22.03.42.03.64a15.54 15.54 0 0 1-2.62 8.6 15.37 15.37 0 0 1-12.74 6.76H15.33z" fill="url(#d)" enable-background="new"/><path d="M17.7 18.02C9.56 18.02 3 23.72 3 30.79c0 .18.02.35.03.52H3v14.05h38.62c8.14 0 14.7-5.7 14.7-12.76 0-.18-.03-.35-.04-.53h.03V18.02H22.13z" fill="teal" enable-background="new"/><path d="M3 83v9h122v-9z" opacity=".43" enable-background="new"/><rect width="122" height="1" x="3" y="92" rx="0" ry="1" opacity=".11" fill="#fff" enable-background="new"/><path d="M3 83v9l122-4v-5z" opacity=".57" fill="url(#e)" enable-background="new"/><path d="M84.07 65.63a11.82 11.82 0 0 0-11.43 8.9c-.61-.2-1.26-.3-1.94-.3v.03a6.15 6.15 0 0 0-5.83 8.04 12.88 12.88 0 0 0-4.11 4.92 11.8 11.8 0 0 0-11.22 11.82 11.86 11.86 0 0 0 17.07 10.6 6.47 6.47 0 0 0 9.8-2.42 17.54 17.54 0 0 0 11.93 4.61 17.53 17.53 0 0 0 11.97-4.73 12.84 12.84 0 1 0 6.97-21.54 11.78 11.78 0 0 0-11.4-9.18 11.82 11.82 0 0 0-11.81-10.75z" filter="url(#f)" opacity=".75"/><path d="M82.07 69.63a11.82 11.82 0 0 0-11.43 8.9c-.61-.2-1.26-.3-1.94-.3v.03a6.15 6.15 0 0 0-5.83 8.04 12.88 12.88 0 0 0-4.11 4.92 11.8 11.8 0 0 0-11.22 11.82 11.86 11.86 0 0 0 17.07 10.6 6.47 6.47 0 0 0 9.8-2.42 17.54 17.54 0 0 0 11.93 4.61 17.53 17.53 0 0 0 11.97-4.73 12.84 12.84 0 1 0 6.97-21.54 11.78 11.78 0 0 0-11.4-9.18 11.82 11.82 0 0 0-11.81-10.75z" fill="teal"/></svg>