<svg xmlns="http://www.w3.org/2000/svg" xmlns:xlink="http://www.w3.org/1999/xlink" width="128" height="128" enable-background="new"><defs><linearGradient id="a"><stop offset="0" stop-color="#e20800"/><stop offset="1" stop-color="#9c0f0f"/></linearGradient><linearGradient gradientTransform="translate(0 -925.36)" xlink:href="#b" id="e" x1="125" y1="1007.25" x2="125" y2="1010.74" gradientUnits="userSpaceOnUse"/><linearGradient id="b"><stop offset="0"/><stop offset="1" stop-opacity=".05"/></linearGradient><linearGradient xlink:href="#c" id="d" x1="26.37" y1="110.28" x2="26.37" y2="28.13" gradientUnits="userSpaceOnUse" gradientTransform="translate(-.03)"/><linearGradient id="c"><stop offset="0"/><stop offset="1" stop-color="#666"/></linearGradient><filter id="f" x="-.08" width="1.16" y="-.09" height="1.18" color-interpolation-filters="sRGB"><feGaussianBlur stdDeviation="1.95"/></filter></defs><path d="M2.97 49.36v58.63A2.9 2.9 0 0 0 5.96 111h115.98c2.13 0 3.03-1.35 3.03-2.97V32.6a4.6 4.6 0 0 0-4.62-4.6H60.7v5.36h-.03c0 .22.03.42.03.64a15.54 15.54 0 0 1-2.62 8.6 15.37 15.37 0 0 1-12.74 6.76H15.33z" fill="url(#d)" enable-background="new"/><path d="M17.7 18.02C9.56 18.02 3 23.72 3 30.79c0 .18.02.35.03.52H3v14.05h38.62c8.14 0 14.7-5.7 14.7-12.76 0-.18-.03-.35-.04-.53h.03V18.02H22.13z" fill="#3771c8" enable-background="new"/><path d="M3 83v9h122v-9z" opacity=".43" enable-background="new"/><rect ry="1" rx="0" y="92" x="3" height="1" width="122" opacity=".11" fill="#fff" enable-background="new"/><path d="M3 83v9l122-4v-5z" opacity=".57" fill="url(#e)" enable-background="new"/><path d="M82.23 60.22l18.7 33.67h18.71l-18.7-33.67zm-3 2.99L60.61 93.24l8.72 17.46 18.13-31.78zm2.55 34.42l-9.46 14.97h37.86l9.46-14.97zm0 0" fill-rule="evenodd" filter="url(#f)" opacity=".75"/><path d="M78.23 64.22l18.7 33.67h18.71l-18.7-33.67zm-3 2.99L56.61 97.24l8.72 17.46 18.13-31.78zm2.55 34.42l-9.46 14.97h37.86l9.46-14.97zm0 0" fill="#3771c8" fill-rule="evenodd"/></svg>