<svg xmlns="http://www.w3.org/2000/svg" xmlns:xlink="http://www.w3.org/1999/xlink" width="128" height="128" enable-background="new"><defs><linearGradient id="a"><stop offset="0" stop-color="#e20800"/><stop offset="1" stop-color="#9c0f0f"/></linearGradient><linearGradient gradientTransform="translate(0 -925.36)" xlink:href="#b" id="f" x1="125" y1="1007.25" x2="125" y2="1010.74" gradientUnits="userSpaceOnUse"/><linearGradient id="b"><stop offset="0"/><stop offset="1" stop-opacity=".05"/></linearGradient><linearGradient xlink:href="#c" id="d" x1="26.37" y1="110.28" x2="26.37" y2="28.13" gradientUnits="userSpaceOnUse" gradientTransform="translate(-.03)"/><linearGradient id="c"><stop offset="0"/><stop offset="1" stop-color="#666"/></linearGradient><filter id="e" x="-.09" width="1.18" y="-.08" height="1.16" color-interpolation-filters="sRGB"><feGaussianBlur stdDeviation="1.55"/></filter></defs><path d="M2.97 49.36v58.63A2.9 2.9 0 0 0 5.96 111h115.98c2.13 0 3.03-1.35 3.03-2.97V32.6a4.6 4.6 0 0 0-4.62-4.6H60.7v5.36h-.03c0 .22.03.42.03.64a15.54 15.54 0 0 1-2.62 8.6 15.37 15.37 0 0 1-12.74 6.76H15.33z" fill="url(#d)" enable-background="new"/><path d="M17.7 18.02C9.56 18.02 3 23.72 3 30.79c0 .18.02.35.03.52H3v14.05h38.62c8.14 0 14.7-5.7 14.7-12.76 0-.18-.03-.35-.04-.53h.03V18.02H22.13z" fill="#0ff" enable-background="new"/><path d="M3 83v9h122v-9z" opacity=".43" enable-background="new"/><rect width="122" height="1" x="3" y="92" rx="0" ry="1" opacity=".11" fill="#fff" enable-background="new"/><path d="M93.6 63.11a13.05 10.97 0 0 0-13.05 10.97v4.45h-7.91V105c0 2.52 2.3 4.45 5.3 4.45h31.48c2.92 0 5.22-1.93 5.22-4.45l.39-26.4-5.61-.06h-2.61v-4.38A13.05 10.97 0 0 0 93.68 63.1zm.08 4.13c4.45 0 8.14 3.1 8.14 6.9v4.4h-16.2v-4.4c0-3.74 3.53-6.84 8.06-6.9z" filter="url(#e)" opacity=".75"/><path d="M3 83v9l122-4v-5z" opacity=".57" fill="url(#f)" enable-background="new"/><path d="M89.6 66.48a13.05 13.05 0 0 0-13.05 13.05v5.3h-7.91v31.49c0 2.99 2.3 5.3 5.3 5.3h31.48a5.2 5.2 0 0 0 5.22-5.3l.39-31.41-5.61-.08h-2.61v-5.22a13.05 13.05 0 0 0-13.13-13.13zm.08 4.9a8.21 8.21 0 0 1 8.14 8.23v5.22h-16.2v-5.22a8.2 8.2 0 0 1 8.06-8.22z" fill="#0ff"/></svg>