<?xml version="1.0" encoding="UTF-8" standalone="no"?><!--Created with Inkscape (http://www.inkscape.org/)--><svg xmlns:dc="http://purl.org/dc/elements/1.1/" xmlns:cc="http://creativecommons.org/ns#" xmlns:rdf="http://www.w3.org/1999/02/22-rdf-syntax-ns#" xmlns="http://www.w3.org/2000/svg" xmlns:xlink="http://www.w3.org/1999/xlink" width="128" height="128"><defs><linearGradient id="x"><stop offset="0" stop-color="#333"/><stop offset="1" stop-color="#fff"/></linearGradient><linearGradient id="v"><stop offset="0"/><stop offset="1" stop-color="#666"/></linearGradient><linearGradient id="w"><stop offset="0"/><stop offset="1" stop-color="#4d4d4d"/></linearGradient><linearGradient id="t"><stop offset="0" stop-color="#333"/><stop offset="1" stop-color="#666"/></linearGradient><linearGradient id="a"><stop offset="0" stop-color="#003165"/><stop offset="1" stop-color="#00438a" stop-opacity="0"/></linearGradient><linearGradient id="b"><stop offset="0" stop-color="#004d00" stop-opacity="0"/><stop offset=".5" stop-color="#004d00"/><stop offset="1" stop-color="#004d00" stop-opacity="0"/></linearGradient><linearGradient gradientTransform="rotate(90 -90 50)" y2="-384" x2="-23.52" y1="-384" x1="-84" gradientUnits="userSpaceOnUse" id="c"><stop offset="0" stop-color="#fff"/><stop offset="1" stop-color="#fff" stop-opacity="0"/></linearGradient><linearGradient id="d"><stop offset="0" stop-color="#0f0"/><stop offset="1" stop-color="#006500"/></linearGradient><linearGradient gradientTransform="rotate(90 -90 50)" y2="-384" x2="-12" y1="-384" x1="-84" gradientUnits="userSpaceOnUse" id="e"><stop offset="0" stop-color="#e5ff00"/><stop offset="1" stop-color="#bff500" stop-opacity="0"/></linearGradient><linearGradient gradientTransform="rotate(90 -90 50)" y2="-384" x2="-12" y1="-384" x1="-84" gradientUnits="userSpaceOnUse" id="f"><stop offset="0" stop-color="#008c00"/><stop offset="1" stop-color="#00bf00"/></linearGradient><linearGradient x2="28" y1="57.5" x1="28" gradientUnits="userSpaceOnUse" id="h"><stop offset="0" stop-color="#fffccf"/><stop offset="1" stop-color="#fff" stop-opacity="0"/></linearGradient><linearGradient id="g" gradientUnits="userSpaceOnUse" x1="28" y1="57.5" x2="28"><stop offset="0" stop-color="#ffea00"/><stop offset="1" stop-color="#fc0"/></linearGradient><linearGradient id="p"><stop offset="0" stop-color="#000914"/><stop offset="1" stop-color="#00316e"/></linearGradient><linearGradient id="q"><stop offset="0" stop-color="#00f3fd"/><stop offset="1" stop-color="#00c4cc" stop-opacity="0"/></linearGradient><linearGradient id="i"><stop offset="0" stop-color="#fff"/><stop offset="1" stop-color="#fff" stop-opacity="0"/></linearGradient><linearGradient id="n"><stop offset="0" stop-color="#e00000"/><stop offset="1" stop-color="red" stop-opacity=".41"/></linearGradient><linearGradient id="l"><stop offset="0" stop-color="#f9ccca"/><stop offset="1" stop-color="#f9ccca" stop-opacity="0"/></linearGradient><linearGradient id="m"><stop offset="0" stop-color="#e20800"/><stop offset="1" stop-color="#9c0f0f"/></linearGradient><linearGradient id="j"><stop offset="0"/><stop offset="1" stop-opacity="0"/></linearGradient><linearGradient id="k"><stop offset="0" stop-color="#fff"/><stop offset="1" stop-color="#f1f1f1"/></linearGradient><linearGradient xlink:href="#m" id="o" gradientUnits="userSpaceOnUse" x1="32" y1="73.42" x2="32" y2="24.31"/><radialGradient gradientUnits="userSpaceOnUse" r="139.56" cy="112.3" cx="102" id="s"><stop offset="0" stop-color="#b7b8b9"/><stop offset=".19" stop-color="#ececec"/><stop offset=".26" stop-color="#fafafa"/><stop offset=".3" stop-color="#fff"/><stop offset=".53" stop-color="#fafafa"/><stop offset=".84" stop-color="#ebecec"/><stop offset="1" stop-color="#e1e2e3"/></radialGradient><linearGradient id="r"><stop offset="0" stop-color="#a2a2a2"/><stop offset="1" stop-color="#fff"/></linearGradient><linearGradient id="u"><stop offset="0"/><stop offset="1" stop-opacity=".05"/></linearGradient><linearGradient xlink:href="#v" id="y" gradientUnits="userSpaceOnUse" x1="27.34" y1="66.06" x2="26.37" y2="28.13" gradientTransform="translate(0 924.36)"/><linearGradient xlink:href="#w" id="A" y1="1035.89" x2="0" y2="985.56" gradientUnits="userSpaceOnUse"/><linearGradient xlink:href="#u" id="B" gradientUnits="userSpaceOnUse" gradientTransform="matrix(1.04918 0 0 .83062 -3.15 181.49)" x1="125" y1="1007.25" x2="125" y2="1010.74"/><linearGradient xlink:href="#x" id="z" x1="21.94" y1="1021.57" x2="21.92" y2="973.18" gradientUnits="userSpaceOnUse"/></defs><metadata><rdf:RDF><cc:Work><dc:format>image/svg+xml</dc:format><dc:type rdf:resource="http://purl.org/dc/dcmitype/StillImage"/><dc:title/></cc:Work></rdf:RDF></metadata><path d="M60.73 952.36v5.36h-.03c.01.22.03.42.03.64a15.54 15.54 0 0 1-2.61 8.6 15.37 15.37 0 0 1-12.75 6.76H3v24.68h122v-41.44a4.6 4.6 0 0 0-4.62-4.6z" fill="url(#y)" transform="translate(0 -924.36)"/><path d="M17.7 18.02C9.56 18.02 3 23.72 3 30.79l.03.52H3v14.05h38.62c8.14 0 14.7-5.7 14.7-12.77 0-.17-.03-.35-.04-.52h.03V18.02H22.13z" fill="#3771c8"/><path d="M111.83 960.17a1.6 1.6 0 0 0-1.09-.02l-59.7 20.42c-.85.3-30.35 8.96-30.07 9.8l47.43 30.15a1.6 1.6 0 0 0 2.03 1.02l52.7-13.36c.84-.29.27.85 0 0l1.87-9.78-12.22-37.24a1.6 1.6 0 0 0-.95-1z" fill="url(#z)" transform="translate(0 -924.36)"/><path d="M5.93 986.19c-3.29 0-5.93 2.07-5.93 4.64l4.08 40.96v1.6c0 1.3 1.34 2.35 3.01 2.35h113.82c1.67 0 3.01-1.05 3.01-2.36l4.08-42.55c0-2.57-2.64-4.64-5.93-4.64zm0 0" fill="url(#A)" fill-rule="evenodd" transform="translate(0 -924.36)"/><path d="M2.81 94.7l.75 7.47h121.02l.71-7.48z" opacity=".43"/><path d="M3.56 102.17l.08.83H124.5l.08-.83z" opacity=".11" fill="#fff"/><path d="M2.81 1019.06l.74 7.38 121.34-3.15.4-4.23z" opacity=".57" fill="url(#B)" transform="translate(0 -924.36)"/></svg>