<?xml version="1.0" encoding="UTF-8" standalone="no"?><!--Created with Inkscape (http://www.inkscape.org/)--><svg xmlns:dc="http://purl.org/dc/elements/1.1/" xmlns:cc="http://creativecommons.org/ns#" xmlns:rdf="http://www.w3.org/1999/02/22-rdf-syntax-ns#" xmlns="http://www.w3.org/2000/svg" xmlns:xlink="http://www.w3.org/1999/xlink" width="128" height="128" version="1"><defs><linearGradient id="n"><stop offset="0" stop-color="navy"/><stop offset="1" stop-color="#fff" stop-opacity="0"/></linearGradient><linearGradient y2="102.09" x2="115.98" y1="72.34" x1="108" gradientUnits="userSpaceOnUse" id="r" xlink:href="#c"/><linearGradient y2="102.09" x2="115.98" y1="72.34" x1="108" gradientUnits="userSpaceOnUse" id="p" xlink:href="#c"/><linearGradient gradientTransform="translate(229.84 405.96)" y2="109.87" x2="12.73" y1="120.76" x1="23.98" gradientUnits="userSpaceOnUse" id="d"><stop offset="0" stop-color="#eee"/><stop offset="1" stop-color="#535353"/></linearGradient><linearGradient id="b"><stop offset="0" stop-color="#fff"/><stop offset="1" stop-color="#fff" stop-opacity="0"/></linearGradient><linearGradient id="a"><stop offset="0"/><stop offset="1" stop-opacity="0"/></linearGradient><clipPath id="o"><use width="1" height="1" xlink:href="#d"/></clipPath><linearGradient x1="115.98" y1="72.4" x2="115.98" y2="120.4" id="c" gradientUnits="userSpaceOnUse"><stop offset="0" stop-color="#00316e" stop-opacity="0"/><stop offset="1" stop-color="#00316e"/></linearGradient><filter x="-.29" width="1.58" y="-.06" height="1.11" id="q"><feGaussianBlur stdDeviation="2.41"/></filter><filter x="-.29" width="1.58" y="-.06" height="1.11" id="s"><feGaussianBlur stdDeviation="2.41"/></filter><linearGradient id="f"><stop offset="0" stop-color="#fff"/><stop offset="1" stop-color="#fff" stop-opacity="0"/></linearGradient><linearGradient y2="111.63" x2="49.44" y1="72.07" x1="49.44" gradientTransform="translate(0 -191.23)" gradientUnits="userSpaceOnUse" id="e" xlink:href="#f"/><filter id="g"><feGaussianBlur stdDeviation="14.71"/></filter><linearGradient y2="1362.99" x2="198.68" y1="1362.99" x1="-116.68" gradientUnits="userSpaceOnUse" id="h" xlink:href="#j"/><linearGradient id="j"><stop offset="0" stop-color="#fff"/><stop offset="1" stop-color="#fff" stop-opacity="0"/></linearGradient><linearGradient y2="1362.99" x2="198.68" y1="1362.99" x1="-116.68" gradientTransform="translate(-693.8)" gradientUnits="userSpaceOnUse" id="i" xlink:href="#j"/><radialGradient r="544" fy="1331.46" fx="389.47" cy="1331.46" cx="389.47" gradientTransform="matrix(.96522 0 0 1.30725 11.55 -418.55)" gradientUnits="userSpaceOnUse" id="k" xlink:href="#l"/><linearGradient id="l"><stop offset="0" stop-color="#fff" stop-opacity="0"/><stop offset="1" stop-color="#fff"/></linearGradient><linearGradient xlink:href="#m" id="t" gradientUnits="userSpaceOnUse" gradientTransform="translate(-7.9 .9) scale(1.12513)" x1="81.09" y1="96.36" x2="63.78" y2="15.27"/><linearGradient id="m"><stop offset="0"/><stop offset="1" stop-color="#666"/></linearGradient><linearGradient xlink:href="#n" id="u" x1="23.48" y1="-26.34" x2="76.45" y2="50.82" gradientUnits="userSpaceOnUse"/></defs><metadata><rdf:RDF><cc:Work><dc:format>image/svg+xml</dc:format><dc:type rdf:resource="http://purl.org/dc/dcmitype/StillImage"/><dc:title/></cc:Work></rdf:RDF></metadata><g clip-path="url(#o)" transform="matrix(.05638 0 0 .05638 12.49 96.57)" opacity=".6"><path d="M119.34 21.66c-.37-1.27-1.67-2.57-3.36-3.59-1.7 1.02-3 2.32-3.37 3.6-.07.23-6.96 23.98-6.5 46.7-.46 22.78 6.43 46.53 6.5 46.77.38 1.27 1.68 2.57 3.37 3.59 1.7-1.02 2.99-2.32 3.36-3.6.07-.23 6.97-23.98 6.5-46.7.47-22.78-6.43-46.53-6.5-46.77z" opacity=".8" fill="url(#p)" filter="url(#q)"/><path d="M119.34 21.66c-.37-1.27-1.67-2.57-3.36-3.59-1.7 1.02-3 2.32-3.37 3.6-.07.23-6.96 23.98-6.5 46.7-.46 22.78 6.43 46.53 6.5 46.77.38 1.27 1.68 2.57 3.37 3.59 1.7-1.02 2.99-2.32 3.36-3.6.07-.23 6.97-23.98 6.5-46.7.47-22.78-6.43-46.53-6.5-46.77z" transform="matrix(-1 0 0 1 139.2 0)" opacity=".8" fill="url(#r)" filter="url(#s)"/></g><rect width="125.88" height="89.82" x="1.06" y="19.09" rx="2.56" ry="2.56" opacity=".78" fill="url(#t)" enable-background="new"/><path fill="#fff" d="M8.11 53.46h10.35v9.8H8.11zM8.11 26.46h10.35v9.8H8.11zM8.11 39.96h10.35v9.8H8.11z"/><path d="M125.9 19.71a2.48 2.48 0 0 0-1.52-.62H3.62a2.55 2.55 0 0 0-2.56 2.55v84.72c0 .66.29 1.23.7 1.68z" fill="url(#u)" opacity=".52"/><path d="M7.33 98.57c-.58 0-1.06.47-1.06 1.05v7.17h116.51v-7.17c0-.58-.44-1.05-1.02-1.05z" fill="#1a1a1a" enable-background="new"/><path d="M7.83 100.66c0-.4.33-.72.72-.72h3.93c.4 0 .72.32.72.72v3.93c0 .4-.33.71-.72.71H8.55a.72.72 0 0 1-.72-.71z" fill="#fff"/></svg>