<?xml version="1.0" encoding="UTF-8" standalone="no"?><!--Created with Inkscape (http://www.inkscape.org/)--><svg xmlns:dc="http://purl.org/dc/elements/1.1/" xmlns:cc="http://creativecommons.org/ns#" xmlns:rdf="http://www.w3.org/1999/02/22-rdf-syntax-ns#" xmlns="http://www.w3.org/2000/svg" xmlns:xlink="http://www.w3.org/1999/xlink" width="128" height="128" enable-background="new"><defs><linearGradient id="a"><stop offset="0" stop-color="#003165"/><stop offset="1" stop-color="#00438a" stop-opacity="0"/></linearGradient><linearGradient id="b"><stop offset="0" stop-color="#004d00" stop-opacity="0"/><stop offset=".5" stop-color="#004d00"/><stop offset="1" stop-color="#004d00" stop-opacity="0"/></linearGradient><linearGradient gradientTransform="rotate(90 -90 50)" y2="-384" x2="-23.52" y1="-384" x1="-84" gradientUnits="userSpaceOnUse" id="c"><stop offset="0" stop-color="#fff"/><stop offset="1" stop-color="#fff" stop-opacity="0"/></linearGradient><linearGradient id="d"><stop offset="0" stop-color="#0f0"/><stop offset="1" stop-color="#006500"/></linearGradient><linearGradient gradientTransform="rotate(90 -90 50)" y2="-384" x2="-12" y1="-384" x1="-84" gradientUnits="userSpaceOnUse" id="e"><stop offset="0" stop-color="#e5ff00"/><stop offset="1" stop-color="#bff500" stop-opacity="0"/></linearGradient><linearGradient gradientTransform="rotate(90 -90 50)" y2="-384" x2="-12" y1="-384" x1="-84" gradientUnits="userSpaceOnUse" id="f"><stop offset="0" stop-color="#008c00"/><stop offset="1" stop-color="#00bf00"/></linearGradient><linearGradient x2="28" y1="57.5" x1="28" gradientUnits="userSpaceOnUse" id="h"><stop offset="0" stop-color="#fffccf"/><stop offset="1" stop-color="#fff" stop-opacity="0"/></linearGradient><linearGradient id="g" gradientUnits="userSpaceOnUse" x1="28" y1="57.5" x2="28"><stop offset="0" stop-color="#ffea00"/><stop offset="1" stop-color="#fc0"/></linearGradient><linearGradient id="p"><stop offset="0" stop-color="#000914"/><stop offset="1" stop-color="#00316e"/></linearGradient><linearGradient id="q"><stop offset="0" stop-color="#00f3fd"/><stop offset="1" stop-color="#00c4cc" stop-opacity="0"/></linearGradient><linearGradient id="i"><stop offset="0" stop-color="#fff"/><stop offset="1" stop-color="#fff" stop-opacity="0"/></linearGradient><linearGradient id="n"><stop offset="0" stop-color="#e00000"/><stop offset="1" stop-color="red" stop-opacity=".41"/></linearGradient><linearGradient id="l"><stop offset="0" stop-color="#f9ccca"/><stop offset="1" stop-color="#f9ccca" stop-opacity="0"/></linearGradient><linearGradient id="m"><stop offset="0" stop-color="#e20800"/><stop offset="1" stop-color="#9c0f0f"/></linearGradient><linearGradient id="j"><stop offset="0"/><stop offset="1" stop-opacity="0"/></linearGradient><linearGradient id="k"><stop offset="0" stop-color="#fff"/><stop offset="1" stop-color="#f1f1f1"/></linearGradient><linearGradient xlink:href="#m" id="o" gradientUnits="userSpaceOnUse" x1="32" y1="73.42" x2="32" y2="24.31"/><radialGradient gradientUnits="userSpaceOnUse" r="139.56" cy="112.3" cx="102" id="s"><stop offset="0" stop-color="#b7b8b9"/><stop offset=".19" stop-color="#ececec"/><stop offset=".26" stop-color="#fafafa"/><stop offset=".3" stop-color="#fff"/><stop offset=".53" stop-color="#fafafa"/><stop offset=".84" stop-color="#ebecec"/><stop offset="1" stop-color="#e1e2e3"/></radialGradient><linearGradient id="r"><stop offset="0" stop-color="#a2a2a2"/><stop offset="1" stop-color="#fff"/></linearGradient><linearGradient gradientTransform="translate(0 -1)" xlink:href="#t" id="w" x1="125" y1="1007.25" x2="125" y2="1010.74" gradientUnits="userSpaceOnUse"/><linearGradient id="t"><stop offset="0"/><stop offset="1" stop-opacity=".05"/></linearGradient><filter id="x" x="-.08" width="1.17" y="-.09" height="1.17" color-interpolation-filters="sRGB"><feGaussianBlur stdDeviation="2.31"/></filter><linearGradient xlink:href="#u" id="v" x1="26.37" y1="110.28" x2="26.37" y2="28.13" gradientUnits="userSpaceOnUse" gradientTransform="translate(-.03 924.36)"/><linearGradient id="u"><stop offset="0"/><stop offset="1" stop-color="#666"/></linearGradient></defs><metadata><rdf:RDF><cc:Work><dc:format>image/svg+xml</dc:format><dc:type rdf:resource="http://purl.org/dc/dcmitype/StillImage"/><dc:title/></cc:Work></rdf:RDF></metadata><g transform="translate(0 -924.36)"><path d="M2.97 973.72V1032.35a2.9 2.9 0 0 0 2.99 3.01h115.98c2.13 0 3.03-1.35 3.03-2.97V956.96a4.6 4.6 0 0 0-4.62-4.6H60.7v5.36h-.03c0 .22.03.42.03.64a15.54 15.54 0 0 1-2.62 8.6 15.37 15.37 0 0 1-12.74 6.76H15.33z" fill="url(#v)" enable-background="new"/><path d="M17.7 942.38c-8.14 0-14.7 5.7-14.7 12.77 0 .18.02.35.03.52H3v14.05h38.62c8.14 0 14.7-5.7 14.7-12.76 0-.18-.03-.35-.04-.53h.03v-14.05H22.13z" fill="#a02c2c" enable-background="new"/><path d="M3 1007.36v9h122v-9z" opacity=".43" enable-background="new"/><rect width="122" height="1" x="3" y="1016.36" rx="0" ry="1" opacity=".11" fill="#fff" enable-background="new"/><path d="M3 1007.36v9l122-4v-5z" opacity=".57" fill="url(#w)" enable-background="new"/><path d="M100.15 976.7l-18.66.09c2.46-.1 4.75 2.13 6.96 5.43a96.47 96.47 0 0 1 5.46 10.65l-6.54 3.75 18.95 1.82 7.97-17.3-6.59 3.79c-1.8-3.66-4.08-6.69-7.55-8.23zm-18.73 1.32h-.93a3.87 3.87 0 0 0-2.12 1.14 47.34 47.34 0 0 0-9.24 12.87l12.32 7.07 8.41-11.79a108.52 108.52 0 0 0-2.45-4.43c-1.09-1.61-3.18-4.47-5.33-4.83l-.66-.02zm33.12 20.32l-12.2 7.27.6 1.3.07-.1v.26l4.87 10.36c1.97.07 3.94.07 5.91.06 2.04-.17 5.83-.63 7-2.58l.12-.2.48-.86a3.87 3.87 0 0 0-.16-1.15 47.76 47.76 0 0 0-6.69-14.35zm-40.92 2.03l-18.74 3.44 6.89 3.2c-1.95 3.57-3.1 7.18-2.4 10.9 3.6 5.09 7.21 10.16 10.83 15.23-1.5-1.96-.98-5.12.44-8.84 1.63-3.55 3.43-7.1 5.56-10.58l6.84 3.18zm28.19 10.33l-10.86 15.62 11.18 15.44-.07-7.6c4.06.23 7.82-.29 10.88-2.54l9.08-16.3c-1.15 2.17-4.22 3.08-8.18 3.4a96.1 96.1 0 0 1-11.95-.48l-.07-7.54zm-27.6 9.1c-.86 1.64-1.66 3.3-2.43 5-.74 1.9-1.96 5.54-.7 7.43l.13.2.59.82a3.58 3.58 0 0 0 1.6.63 47.2 47.2 0 0 0 15.84.17l-1.31-14.15z" transform="matrix(1.07668 0 0 1.07668 -6.78 -77.39)" opacity=".75" filter="url(#x)" enable-background="new"/><path d="M96.74 978.5l-20.1.1c2.66-.1 5.12 2.3 7.5 5.86 2.14 3.64 4.15 7.42 5.89 11.46l-7.04 4.04 20.4 1.96 8.57-18.63-7.09 4.08c-1.93-3.93-4.39-7.2-8.13-8.86zm-20.16 1.43h-1a4.17 4.17 0 0 0-2.29 1.23 50.97 50.97 0 0 0-9.95 13.85l13.27 7.62 9.05-12.7a116.84 116.84 0 0 0-2.63-4.77c-1.17-1.73-3.43-4.8-5.75-5.2l-.7-.02zm35.66 21.88l-13.15 7.83.65 1.4.08-.11v.28l5.24 11.15c2.12.08 4.24.08 6.37.07 2.2-.18 6.27-.68 7.54-2.78l.13-.21.5-.93a4.17 4.17 0 0 0-.17-1.23 51.43 51.43 0 0 0-7.2-15.46zm-44.06 2.18L48 1007.7l7.42 3.45c-2.1 3.84-3.34 7.73-2.58 11.74l11.65 16.39c-1.6-2.11-1.05-5.52.47-9.52 1.77-3.82 3.7-7.64 6-11.39l7.36 3.43zm30.35 11.13l-11.7 16.82 12.04 16.62-.07-8.18c4.37.25 8.42-.31 11.71-2.73l9.77-17.57c-1.23 2.35-4.54 3.33-8.8 3.67-4.22.08-8.5-.04-12.86-.5l-.09-8.13zm-29.73 9.8c-.91 1.76-1.78 3.55-2.6 5.37-.8 2.06-2.11 5.97-.77 8.01l.15.21.64.9a3.86 3.86 0 0 0 1.73.67c6.48 1.2 11.91.9 17.05.18l-1.42-15.24z" fill="#a02c2c"/></g></svg>