<?xml version="1.0" encoding="UTF-8" standalone="no"?><svg xmlns:dc="http://purl.org/dc/elements/1.1/" xmlns:cc="http://creativecommons.org/ns#" xmlns:rdf="http://www.w3.org/1999/02/22-rdf-syntax-ns#" xmlns="http://www.w3.org/2000/svg" width="48" height="48" viewBox="0 0 12.7 12.7"><metadata><rdf:RDF><cc:Work><dc:format>image/svg+xml</dc:format><dc:type rdf:resource="http://purl.org/dc/dcmitype/StillImage"/><dc:title/></cc:Work></rdf:RDF></metadata><path d="M7.34.5c-.05 0-.1.01-.13.03-.03.02-.04.04-.05.07v.99c.18.05.33.12.46.22.24.17.39.4.4.66h.02v.48c0 .26.27.46.61.46h2.21c.4 0 .75.14 1 .35V.97a.4.4 0 0 0-.18-.33.74.74 0 0 0-.44-.14H7.88z" fill="#a02c2c"/><path d="M2.01 2C1.23 2 .6 2.42.6 2.97v8.67c0 .55.63.99 1.41.99h8.47c.79 0 1.42-.44 1.42-1V4.73h-.02c-.08-.5-.67-.88-1.4-.88H8.23c-.35-.01-.63-.2-.63-.45V2.92h-.01c-.04-.5-.62-.9-1.34-.93h-.03z" fill="#333"/><path d="M6.34 2.59c.33.01.59.2.59.43v.4c0 .49.53.88 1.22.95l2.44.02c.35 0 .63.2.63.43V11.61c0 .24-.28.43-.63.43H1.9c-.35 0-.63-.2-.63-.43V3.02c0-.24.28-.43.63-.43h4.44z" fill="#ccc"/><g fill="#a02c2c" stroke-width="1.06"><path d="M6.2 6.15c-1.68 0-3.23.62-3.93 1.56-.23.32-.4.73-.4.97a.48.48 0 0 0 .01.16 44.56 44.56 0 0 0 1.36-.23c.02 0 .03-.16.03-.35 0-.27.02-.39.1-.57.55-1.1 2.62-1.67 4.2-1.14l.32.11.2-.25-.19-.06a6.9 6.9 0 0 0-1.7-.2zM6.22 7.96a.3.3 0 0 0-.05.01.85.85 0 0 1-.26.03h-.14l.14.05c.08.03.17.08.22.12a13.68 13.68 0 0 1 2.45.36c2.3.42 2.4.43 2.33.37-.02-.02-.36-.1-.75-.17-3.56-.61-3.78-.66-3.83-.72a.1.1 0 0 0-.11-.05zM3.95 9.06v2.3l.3-.03c.49-.06.5-.07.5-.26v-.18l.33-.05c.42-.06.9-.3 1.06-.5a.55.55 0 0 0 .12-.39c0-.2-.02-.24-.2-.42-.3-.29-.69-.4-1.48-.44zm.8.2l.1.03c.16.05.35.19.49.36.23.28.13.66-.25.9-.12.07-.24.14-.28.14-.04 0-.06-.16-.06-.72zM6.83 9.07v1.8h.8v-1.6h.33c.25 0 .33.01.35.07.02.04.03.4.03.8v.73h.76v-1.6l.68.02.01.8.02.78h.8v-1.6l-.18-.08c-.15-.07-.42-.09-1.89-.1l-1.71-.02zM2.58 9.1h-.73l-.02.89v.88h.8V9.42l.13-.03a.8.8 0 0 1 .31.02c.15.05.2.04.37-.07l.2-.12-.16-.06a2.87 2.87 0 0 0-.9-.06z"/><path d="M8.08 6.41l-.2.25c.55.23.97.6 1.17.98.11.23.13.62.12.74l-.02.23 1.47.25-.03-.3a2.51 2.51 0 0 0-.62-1.11c-.5-.5-1.03-.81-1.89-1.04z" opacity=".75"/></g></svg>