<?xml version="1.0" encoding="UTF-8" standalone="no"?><svg xmlns:dc="http://purl.org/dc/elements/1.1/" xmlns:cc="http://creativecommons.org/ns#" xmlns:rdf="http://www.w3.org/1999/02/22-rdf-syntax-ns#" xmlns="http://www.w3.org/2000/svg" width="48" height="48" viewBox="0 0 12.7 12.7"><metadata><rdf:RDF><cc:Work><dc:format>image/svg+xml</dc:format><dc:type rdf:resource="http://purl.org/dc/dcmitype/StillImage"/><dc:title/></cc:Work></rdf:RDF></metadata><path d="M7.35.06a.17.17 0 0 0-.1.03.1.1 0 0 0-.05.08 1.12 1.12 0 0 1 .71.97v.55c0 .27.23.5.52.5h1.81c.33 0 .6.15.81.38V.56a.5.5 0 0 0-.5-.5H7.79z" fill="#08a"/><path d="M2.95.55c-.63 0-1.14.5-1.14 1.14v9.9c0 .63.5 1.13 1.14 1.13H9.75c.63 0 1.14-.5 1.14-1.13V3.67h-.01c-.07-.56-.54-1-1.13-1H7.94a.52.52 0 0 1-.5-.51V1.6h-.01A1.12 1.12 0 0 0 6.35.55h-.02z" fill="#333"/><path d="M6.43 1.08a.5.5 0 0 1 .47.5v.48c0 .57.42 1.04.98 1.11l1.96.03c.28 0 .51.22.51.5v7.99a.5.5 0 0 1-.5.5H2.85a.5.5 0 0 1-.51-.5V1.59c0-.28.23-.5.5-.5h3.58z" fill="#ccc"/><path style="line-height:normal;text-indent:0;text-align:start;text-decoration-line:none;text-transform:none;marker:none" d="M5.72 2.14c-.03 0-.05 0-.05.03-.13.68-.28 1.35-.39 2.03l-.1-.62-.35-1.44h-.45L4.1 3.23c-.08.31-.14.64-.19.97-.1-.7-.26-1.38-.4-2.06h-.5l.58 2.5h.6l.09-.4c.11-.47.25-.94.3-1.43.03.09.06.33.1.47L5 4.63h.6l.58-2.5h-.4c-.02.01-.05 0-.07 0z" fill="#08a"/><path d="M3.7 5.56a.26.26 0 0 0-.26.26v5.3c0 .14.12.26.26.26H9c.14 0 .26-.12.26-.27V5.82A.26.26 0 0 0 9 5.56zm0 .26H9v5.3H3.7V6.08zm.27.53v.26h2.12v-.26zm2.64 0v.26h2.12v-.26zm-2.63.8v.26h2.1v-.27zm2.63 0v.26h2.12v-.27zm-2.64.79v.26h2.12v-.26zm2.64 0v.26h2.12v-.26zm-2.63.8V9h2.1v-.27zm2.63 0V9h2.12v-.27zm-2.64.79v.26h2.12v-.26zm2.64 0v.26h2.12v-.26zm-2.63.79v.26h2.1v-.26zm2.63 0v.26h2.12v-.26z" color="#000" fill="#08a"/></svg>