<?xml version="1.0" encoding="UTF-8" standalone="no"?>
<svg
   xmlns:dc="http://purl.org/dc/elements/1.1/"
   xmlns:cc="http://creativecommons.org/ns#"
   xmlns:rdf="http://www.w3.org/1999/02/22-rdf-syntax-ns#"
   xmlns:svg="http://www.w3.org/2000/svg"
   xmlns="http://www.w3.org/2000/svg"
   xmlns:sodipodi="http://sodipodi.sourceforge.net/DTD/sodipodi-0.dtd"
   xmlns:inkscape="http://www.inkscape.org/namespaces/inkscape"
   width="48"
   height="48"
   viewBox="0 0 12.7 12.7"
   version="1.1"
   id="svg4"
   sodipodi:docname="application-x-theme.svg"
   inkscape:version="0.92.3 (2405546, 2018-03-11)">
  <metadata
     id="metadata10">
    <rdf:RDF>
      <cc:Work
         rdf:about="">
        <dc:format>image/svg+xml</dc:format>
        <dc:type
           rdf:resource="http://purl.org/dc/dcmitype/StillImage" />
        <dc:title></dc:title>
      </cc:Work>
    </rdf:RDF>
  </metadata>
  <defs
     id="defs8">
    <inkscape:path-effect
       effect="powerstroke"
       id="path-effect900"
       is_visible="true"
       offset_points="33,0.13229166"
       sort_points="true"
       interpolator_type="CubicBezierJohan"
       interpolator_beta="0.2"
       start_linecap_type="zerowidth"
       linejoin_type="extrp_arc"
       miter_limit="4"
       end_linecap_type="zerowidth" />
    <inkscape:path-effect
       effect="simplify"
       id="path-effect898"
       is_visible="true"
       steps="1"
       threshold="0.000408163"
       smooth_angles="360"
       helper_size="0"
       simplify_individual_paths="false"
       simplify_just_coalesce="false"
       simplifyindividualpaths="false"
       simplifyJustCoalesce="false" />
    <linearGradient
       id="linearGradient2907">
      <stop
         style="stop-color:#c17d11;stop-opacity:1"
         offset="0"
         id="stop2909" />
      <stop
         style="stop-color:#e9b96e;stop-opacity:1;"
         offset="1"
         id="stop2911" />
    </linearGradient>
    <linearGradient
       id="linearGradient2915">
      <stop
         style="stop-color:#e9b96e;stop-opacity:1;"
         offset="0"
         id="stop2917" />
      <stop
         style="stop-color:#c17d11;stop-opacity:1"
         offset="1"
         id="stop2919" />
    </linearGradient>
    <linearGradient
       id="linearGradient2875">
      <stop
         style="stop-color:#ef2929;stop-opacity:1;"
         offset="0"
         id="stop2877" />
      <stop
         style="stop-color:#c00;stop-opacity:1"
         offset="1"
         id="stop2879" />
    </linearGradient>
  </defs>
  <sodipodi:namedview
     pagecolor="#ffffff"
     bordercolor="#666666"
     borderopacity="1"
     objecttolerance="10"
     gridtolerance="10"
     guidetolerance="10"
     inkscape:pageopacity="0"
     inkscape:pageshadow="2"
     inkscape:window-width="1366"
     inkscape:window-height="715"
     id="namedview6"
     showgrid="false"
     showguides="true"
     inkscape:guide-bbox="true"
     inkscape:snap-global="true"
     inkscape:zoom="3.8817216"
     inkscape:cx="24"
     inkscape:cy="24"
     inkscape:window-x="0"
     inkscape:window-y="27"
     inkscape:window-maximized="1"
     inkscape:current-layer="svg4" />
  <path
     inkscape:connector-curvature="0"
     style="opacity:1;fill:#501616;fill-opacity:1;fill-rule:nonzero;stroke:none;stroke-width:0.50711805;stroke-linecap:round;stroke-linejoin:bevel;stroke-miterlimit:4;stroke-dasharray:none;stroke-opacity:1"
     d="m 7.3492433,0.0566603 c -0.040983,0 -0.078161,0.0127642 -0.1049033,0.0330729 C 7.218411,0.1094229 7.202933,0.1367362 7.201965,0.1667311 7.3445127,0.2235372 7.4736634,0.30302596 7.5802366,0.40909358 7.76971,0.59766786 7.8931916,0.85276088 7.9104491,1.1392812 h 0.00672 v 0.068213 0.1441772 0.1369425 0.1927531 c 0,0.2812905 0.2266883,0.5079794 0.5079795,0.5079794 h 0.1183391 l -5.291e-4,0.00568 h 1.6924064 c 0.329951,0 0.613684,0.1491999 0.819072,0.3731038 V 1.141865 0.56463964 c 0,-0.14064565 -0.05654,-0.26789289 -0.148312,-0.35966798 C 10.814345,0.11319656 10.687101,0.0566603 10.546455,0.0566603 H 9.0462851 7.7864139 Z"
     id="path965" />
  <path
     style="opacity:1;fill:#333333;fill-opacity:1;fill-rule:nonzero;stroke:none;stroke-width:0.50711805;stroke-linecap:round;stroke-linejoin:bevel;stroke-miterlimit:4;stroke-dasharray:none;stroke-opacity:1"
     d="m 2.9460732,0.55206094 c -0.6285519,0 -1.134298,0.50626306 -1.134298,1.13481446 v 9.9012056 c 0,0.628551 0.5057461,1.134814 1.134298,1.134814 h 4.2855261 2.522327 c 0.6285527,0 1.1342987,-0.506263 1.1342987,-1.134814 V 3.6728008 h -0.01292 C 10.810197,3.1070068 10.337709,2.6687276 9.7539263,2.6687276 h -1.692403 v 0 l -0.11781,-0.00568 C 7.6627483,2.6495013 7.4357343,2.4363589 7.4357343,2.1550682 V 1.9623107 1.8253682 1.6811909 1.612978 h -0.0067 C 7.3941823,1.0346118 6.9321933,0.5804805 6.3510473,0.55464473 l -5.29e-4,-0.002585 h -0.02015 z"
     id="path833"
     inkscape:connector-curvature="0" />
  <path
     style="opacity:1;fill:#cccccc;fill-opacity:1;fill-rule:nonzero;stroke:none;stroke-width:0.50711805;stroke-linecap:round;stroke-linejoin:bevel;stroke-miterlimit:4;stroke-dasharray:none;stroke-opacity:1"
     d="m 6.4269983,1.0791605 c 0.263277,0.019482 0.470254,0.2359637 0.470255,0.504362 v 0.2563151 0.125057 0.092501 c 0,0.5757933 0.427721,1.0388807 0.982369,1.1136271 v 0 l 1.962134,0.026872 c 0.2812647,0.00385 0.5079787,0.2266886 0.5079797,0.5079793 V 5.7894678 11.68575 c 0,0.281291 -0.226688,0.50798 -0.5079797,0.50798 H 7.2315993 2.8582236 c -0.281291,0 -0.50798,-0.226689 -0.50798,-0.50798 V 1.5892069 c 0,-0.2812907 0.226689,-0.5079794 0.50798,-0.5079794 h 3.5692907 z"
     id="path901-5"
     inkscape:connector-curvature="0" />
  <path
     style="fill:#501616;fill-opacity:1;fill-rule:evenodd;stroke:none;stroke-width:0.3476989;stroke-linecap:butt;stroke-linejoin:miter;stroke-miterlimit:4;stroke-dasharray:none;stroke-opacity:1"
     d="m 9.6160178,5.3415177 c -0.046791,0.002 -0.089127,0.019879 -0.11462,0.050152 C 8.7009099,6.3422924 7.6533625,7.4945232 7.090622,8.2359469 6.6588363,8.8048314 6.5101298,9.1308783 6.319155,9.4931238 L 6.290243,9.4703868 C 6.233809,9.5179388 6.1788461,9.6046071 6.142312,9.678669 L 6.137832,9.675199 C 6.081362,9.723101 6.0259902,9.8102386 5.9892433,9.8843259 L 5.9883954,9.8836935 C 5.9330134,9.9313055 5.8782934,10.016581 5.8411196,10.08973 l -0.00375,-0.003 c -0.057158,0.04949 -0.1143889,0.139297 -0.1517611,0.213911 l 0.076258,0.05941 c -0.1094986,0.121239 -0.3179029,0.233431 -0.5094764,0.410856 -0.3187016,0.295162 -0.5313223,0.638363 -0.9851758,0.704286 0.3704468,0.294854 1.1747379,0.157855 1.4635884,-0.186295 0.1944496,-0.231675 0.1968202,-0.488744 0.280423,-0.73507 l 0.067462,0.05203 c 0.066656,-0.05723 0.140744,-0.130241 0.1718844,-0.19481 l -0.00908,-0.007 c 0.065634,-0.05641 0.1371017,-0.127112 0.1673041,-0.190316 l -0.00637,-0.005 c 0.066739,-0.05636 0.1400544,-0.127806 0.1702064,-0.192089 l -0.01001,-0.0079 C 6.6293855,9.9527152 6.7024202,9.8816607 6.7322561,9.8174516 l -0.011597,-0.00898 C 7.020566,9.5244544 7.2953242,9.2941859 7.7300688,8.7214048 8.2928113,7.9799807 9.1212502,6.6612243 9.8212185,5.6343188 9.8611681,5.5757081 9.8475807,5.4546439 9.7574971,5.3862703 9.7141108,5.3533397 9.6628151,5.3395406 9.6160241,5.341545 Z"
     id="path1324"
     inkscape:connector-curvature="0" />
  <path
     style="opacity:0.758;fill:#501616;fill-opacity:1;fill-rule:nonzero;stroke:none;stroke-width:0.52916664;stroke-linecap:round;stroke-linejoin:round;stroke-miterlimit:4;stroke-dasharray:none;stroke-opacity:1"
     id="path928"
     d="m 5.4342503,2.687338 c -0.00705,-0.01333 -0.00611,-0.040957 -0.021156,-0.039993 -0.033764,0.00217 -0.056228,0.043897 -0.089909,0.047103 -0.034646,0.0033 -0.2820752,-0.077543 -0.2867732,-0.076847 -0.2824998,0.041803 0.00417,0.1115368 -0.1151789,0.0785 -0.00882,0.1983648 -0.045275,0.1411658 0.079733,0.089084 0.0045,-0.00188 0.0018,0.012914 -0.00287,0.01434 -0.025437,0.00778 -0.052536,0.00901 -0.079083,0.010737 -0.1682295,0.010935 -0.067345,-0.015867 -0.1888297,0.025961 -0.021913,0.00175 -0.047577,-0.00714 -0.06574,0.00524 -0.1512279,0.1030978 -0.2243945,0.2033071 -0.1950741,0.4061084 0.01111,0.076838 0.058195,0.1476835 0.1105725,0.2049899 0.075601,0.082715 0.1617975,0.0861 0.2578809,0.1027549 -9.525e-4,0.00861 -0.024985,0.2402046 -0.030882,0.248053 -0.036606,0.048717 -0.1288274,0.045155 -0.1520486,0.1014944 -0.027143,0.065856 0.1249275,0.2561402 0.166334,0.2720488 0.045468,0.017468 0.095629,-0.018574 0.1434436,-0.027859 -0.00148,-0.057707 0.051358,-0.1583825 -0.00446,-0.1731203 -0.1658442,-0.043793 -0.3426544,0.018984 -0.5132964,0.036404 -0.018915,0.00193 -0.070468,0.028619 -0.052881,0.021392 0.2194658,-0.090201 0.3583025,-0.1886977 0.6158156,-0.097942 0.069678,0.024556 0.098944,0.1097375 0.1484154,0.1646063 0.125911,0.051138 0.2078093,0.1054814 0.3507248,0.080594 0.2637993,-0.045938 0.045254,-0.093391 0.2912914,-0.096338 0.038297,-4.498e-4 0.1334579,0.04001 0.1700792,0.054251 0.046058,0.021325 0.093686,0.039543 0.1381752,0.063973 0.1104048,0.060626 0.3094834,0.1981589 0.3738613,0.2863199 0.060633,0.083032 0.098939,0.1828046 0.1234802,0.2826467 0.185029,0.7527618 -0.1331383,-0.1026917 0.070335,0.4124185 0.071997,0.1275434 0.1205579,0.1647721 0.1017905,0.3189406 -0.00946,0.077743 -0.0511,0.1489287 -0.063081,0.2263235 -0.012176,0.07866 6.88e-5,0.1595351 -0.0089,0.2386256 -0.00794,0.070033 -0.051323,0.137486 -0.04165,0.2073 0.00864,0.062396 0.062101,0.1096145 0.093152,0.1644216 0.015457,0.034391 0.021019,0.075265 0.046374,0.1031722 0.00889,0.00979 0.105941,0.061752 0.1400876,0.066594 0.014822,0.00209 0.056297,-0.012644 0.044804,-0.00305 C 6.7617966,6.6960328 6.5750532,6.9716855 6.2911989,7.0544401 6.1776686,7.0875384 6.1473005,6.8667391 6.0753513,6.7728885 5.8257553,6.7087881 5.6753942,6.6221998 5.420992,6.7326594 5.0175503,6.9078307 5.3825716,6.8682181 5.0969666,7.0389696 c -0.034817,0.020815 -0.080788,0.00779 -0.1209265,0.013668 -0.054449,0.00797 -0.1084829,0.018555 -0.1627246,0.027834 -0.038824,0.030262 -0.0916,0.048307 -0.1164714,0.090786 -0.02644,0.045156 0.1414754,0.1176594 0.1872911,0.059198 0.1021136,-0.1302967 0.1788594,-0.2912735 0.1972025,-0.4557969 0.012472,-0.111869 -0.119244,-0.4312306 -0.11082,-0.3189843 0.0097,0.1291949 0.0765,0.2475666 0.1147501,0.3713498 -0.1286664,0.1953948 -0.257333,0.3907899 -0.3859993,0.5861846 0.034286,-0.024868 0.062617,-0.087822 0.1028583,-0.074608 0.034599,0.011361 -0.076422,0.1215713 -0.066803,0.086448 0.023424,-0.085526 0.076295,-0.1602214 0.109524,-0.2424359 0.00352,-0.0087 -0.013541,0.013047 -0.01968,0.020151 -0.032334,0.0374 -0.0638,0.07554 -0.0957,0.1133096 -0.045361,0.069307 -0.080012,0.146952 -0.1360823,0.2079199 -0.052827,0.057441 -0.1158825,0.1078857 -0.1859521,0.1422421 -0.1220078,0.059823 -0.303431,0.025218 -0.3690929,0.1873914 -0.093306,0.2304519 -0.038352,0.2058578 0.066147,0.2014461 0.030986,-0.062716 0.061971,-0.1254321 0.092957,-0.1881481 -0.00284,-0.00504 -0.00562,-0.020122 -0.00852,-0.015118 C 4.0527091,8.0866876 4.0830208,8.066738 4.004103,8.3311904 3.981061,8.4084084 3.928449,8.4812954 3.931614,8.5618165 c 0.00267,0.067812 0.059172,0.1221518 0.088758,0.1832277 0.1180563,0.091489 0.074548,0.1005949 0.2167297,0.051569 0.00342,-0.00119 -0.00196,-0.013184 -0.00388,-0.010128 -0.015767,0.024911 -0.1553581,0.2787221 -0.1634612,0.2986807 -0.025231,0.062143 -0.038605,0.128465 -0.057907,0.1926976 0.049311,0.2193748 -0.00167,0.1252694 0.1400895,0.2786922 0.018219,0.019719 0.031781,0.044847 0.054266,0.059516 0.01542,0.010059 0.036773,0.00493 0.054094,0.011176 0.00332,0.00119 -0.00811,0.00824 -0.00938,0.00494 C 4.230286,9.5786077 4.216272,9.5227058 4.198947,9.4679648 4.168526,9.4617748 4.125433,9.4239418 4.107684,9.4494118 4.03734,9.5503537 4.2876382,9.7385026 4.2926902,9.7449632 c 0.0487,0.06228 0.069376,0.1453539 0.1249119,0.2016244 0.064232,0.065082 0.1703067,0.082533 0.2266312,0.1545684 0.042875,0.05483 0.034867,0.134775 0.0523,0.202163 0.00362,0.0016 0.1491687,0.07461 0.1832219,0.06145 0.014843,-0.0057 0.014428,-0.06156 0.013973,-0.04565 -7.937e-4,0.02783 -0.017452,0.05443 -0.015018,0.08217 0.00161,0.01828 0.017642,0.03218 0.026463,0.04827 6.27e-5,0.01893 1.252e-4,0.03786 1.876e-4,0.05679 0.424647,-0.17941 -0.022291,0.288751 0.045459,0.242266 0.027698,-0.019 0.036591,-0.05647 0.057517,-0.08274 0.0066,-0.0083 0.029673,-0.02945 0.024487,-0.02022 -0.00612,0.01089 -0.027114,0.01302 -0.027457,0.02551 -0.00114,0.04095 0.015626,0.08043 0.023439,0.120639 0.019399,0.04788 0.041357,0.0948 0.058198,0.143638 0.00506,0.01467 -0.00342,0.03467 0.00719,0.04599 0.00901,0.0096 0.045873,0.01507 0.039338,0.0036 -0.049365,-0.08635 -0.087784,-0.194214 -0.1753053,-0.241476 -0.1768311,-0.09549 -0.3863681,-0.110763 -0.5795523,-0.166145 0.7798353,-0.311918 1.2209539,0.790936 0.4411186,1.102854 v 0 c -0.2056069,-0.02658 -0.4314907,0.01312 -0.6168276,-0.0798 -0.1026231,-0.05145 -0.1254691,-0.196512 -0.1554062,-0.307338 -0.00882,-0.03266 0.1325369,-0.08197 0.04931,-0.140998 -0.01679,-0.01191 -0.031329,0.02671 -0.046994,0.04007 0.089576,-0.02087 -0.02427,0.0096 -0.053457,-0.01782 -0.016338,-0.01537 0.00721,-0.04474 0.00526,-0.06709 -0.0066,-0.07558 -0.054182,-0.193387 0.00377,-0.220171 0.016177,-0.0075 4.234e-4,0.03564 6.615e-4,0.05345 -0.00613,-0.0221 -0.00344,-0.04891 -0.018397,-0.0663 -0.016989,-0.01975 -0.04639,-0.02372 -0.069455,-0.03582 -0.01234,-0.0065 -0.030918,-0.0073 -0.036753,-0.01993 -0.055283,-0.119891 -0.00119,-0.191811 0.04791,-0.298419 0.013287,-0.03264 0.062668,-0.142805 0.052372,-0.173677 -0.014901,-0.04468 -0.055009,-0.07837 -0.092659,-0.106673 -0.040938,-0.03077 -0.090437,-0.04869 -0.1382977,-0.06691 C 3.3475607,10.019326 3.6377697,10.190801 3.2570044,9.91609 3.2070249,9.832737 3.1475767,9.7543743 3.1070653,9.6660313 c -0.00484,-0.01056 0.015169,-0.017632 0.023447,-0.025781 0.00936,-0.00921 0.017968,-0.019743 0.029387,-0.02622 0.041238,-0.023381 0.095362,-0.028038 0.1276041,-0.06279 0.064281,-0.069286 4.762e-4,-0.2129295 0.063302,-0.2763813 -0.017904,-0.062347 -0.018026,-0.1328714 -0.05371,-0.1870409 -0.035107,-0.053294 -0.094633,-0.086739 -0.148835,-0.1204272 -0.010464,-0.0065 -0.040563,0.016841 -0.036602,0.00517 0.010022,-0.02953 0.04718,-0.043592 0.059383,-0.072289 C 3.2553055,8.7021224 3.0232318,8.8956964 3.3563787,8.7056906 3.4142296,8.5840479 3.504158,8.4446 3.4698905,8.2974827 3.4026956,8.0090004 3.3628404,8.2010617 3.2705701,8.0379818 3.1327074,7.7943212 3.200147,7.8252316 3.3131797,7.5395285 c 0.052809,-0.035984 0.1056185,-0.071967 0.1584277,-0.1079508 0.054208,-0.00982 0.1139507,-0.00365 0.1626232,-0.029449 0.096265,-0.051035 0.2278293,-0.2047626 0.2755789,-0.3043012 0.016947,-0.035325 0.00397,-0.080558 0.021624,-0.1155314 0.00806,-0.015973 0.00673,0.035148 0.010089,0.052722 0.00273,-0.022831 0.00856,-0.045504 0.0082,-0.068496 C 3.948743,6.9042549 3.9138116,6.8376685 3.9375458,6.7800928 3.9879344,6.6578564 4.0868602,6.5618534 4.1615174,6.4527337 4.1614785,6.4650632 4.1531698,6.4988982 4.161401,6.489719 4.3287621,6.3030692 4.6195646,5.6890014 3.9721961,6.9110931 4.0247614,7.0068429 4.232054,7.2369952 4.1298918,7.198343 3.7431072,7.0520062 4.0503228,6.5748828 4.1583813,6.4351 4.2130923,6.364326 4.458299,6.399496 4.5200146,6.39669 4.5650886,6.39465 4.6091926,6.382876 4.6537824,6.375968 4.7839672,6.320129 4.8290807,6.281332 4.981698,6.302325 5.042986,6.310755 5.0979641,6.344871 5.1572442,6.362568 5.2608,6.3934826 5.6284132,6.4923166 5.715309,6.4744959 5.8466153,6.4475674 5.952436,6.3494483 6.0709994,6.2869246 6.63693,5.8088738 6.1905877,6.1758993 5.785214,6.5944098 5.768421,6.6117478 5.835224,6.5823608 5.850953,6.5640518 5.861409,6.5518808 5.842373,6.5282868 5.852623,6.5159408 6.0678602,6.2567309 5.856343,6.6352403 6.0132833,6.3225991 6.0599973,6.2290611 6.155768,6.0640385 6.1513506,5.9548818 6.1482506,5.8783878 6.1018896,5.8099629 6.0787716,5.7369797 6.0730216,5.7188377 6.0120246,5.518546 6.0092346,5.4781494 c -0.00279,-0.040412 0.00632,-0.080769 0.00947,-0.121154 -0.017023,-0.064001 -0.038375,-0.127004 -0.051069,-0.1920018 -0.00874,-0.044732 0.0022,-0.093145 -0.013007,-0.1361104 -0.00372,-0.010515 -0.042315,0.012541 -0.032772,0.00677 0.022725,-0.013756 0.095781,-0.017156 0.07329,-0.031292 -0.066701,-0.041921 -0.1724091,0.067895 -0.2359104,-0.014282 -0.043272,0.0038 -0.08647,0.014216 -0.1298159,0.011393 -0.1301713,-0.00849 -0.068856,-0.12865 -0.1956451,-0.1915809 -0.078911,-0.039167 -0.348605,-0.034861 -0.413884,-0.036545 -0.04762,0.019074 -0.1620063,0.00963 -0.1428607,0.057225 0.022489,0.055907 0.1192305,0.043078 0.1781791,0.03057 0.065449,-0.013888 0.1227577,-0.058603 0.1712397,-0.1047107 0.029284,-0.027849 -0.071999,0.038872 -0.1114095,0.047811 C 4.5491402,4.9325979 4.705238,5.0228904 4.4667916,4.713529 4.3446374,4.3928746 4.4302021,4.5690252 4.2363337,4.2671962 4.1827243,4.1837332 4.1400057,4.0925607 4.0774821,4.0155489 4.0070016,3.928737 3.9184786,3.858275 3.8398174,3.7788 3.8323774,3.77128 3.8172884,3.765034 3.8192464,3.754641 c 0.00156,-0.00824 0.016761,-7.78e-5 0.025143,-1.164e-4 0.025673,-0.036966 0.050563,-0.074487 0.077019,-0.1108967 0.042255,-0.058152 0.097562,-0.1081458 0.129086,-0.172748 C 4.1150489,3.33859 4.1657526,3.054433 4.1555511,2.9170878 4.1451529,2.7770873 4.0673252,2.6447048 4.0715887,2.5043833 4.0751553,2.3869827 4.1427262,2.280504 4.1782949,2.1685644 c 0.035507,-0.029237 0.079904,-0.050199 0.1065202,-0.08771 0.019582,-0.027598 0.00815,-0.069194 0.02545,-0.098279 0.012729,-0.021402 0.041931,-0.02746 0.059704,-0.044902 0.024392,-0.023937 0.035181,-0.063685 0.065998,-0.078459 0.1598668,-0.076646 0.1536663,-0.062748 0.2603746,-0.014499 0.1835181,-0.034755 0.092302,-0.040911 0.2733601,0.022344 0.063224,-0.00408 0.1791393,-0.1448783 0.2215827,-0.1618982 0.028073,-0.011257 0.059906,0.022041 0.089419,0.015419 0.054879,-0.012314 0.1023691,-0.046626 0.1535535,-0.069939 0.7330631,0 0.7330631,1.0367074 0,1.0367074 z"
     inkscape:connector-curvature="0" />
</svg>
