<?xml version="1.0" encoding="UTF-8" standalone="no"?><svg xmlns:dc="http://purl.org/dc/elements/1.1/" xmlns:cc="http://creativecommons.org/ns#" xmlns:rdf="http://www.w3.org/1999/02/22-rdf-syntax-ns#" xmlns="http://www.w3.org/2000/svg" width="48" height="48" viewBox="0 0 12.7 12.7"><metadata><rdf:RDF><cc:Work><dc:format>image/svg+xml</dc:format><dc:type rdf:resource="http://purl.org/dc/dcmitype/StillImage"/><dc:title/></cc:Work></rdf:RDF></metadata><path d="M7.45.02a.17.17 0 0 0-.11.03.1.1 0 0 0-.04.08 1.12 1.12 0 0 1 .7.97h.01v.55c0 .27.23.5.51.5H10.34c.32 0 .6.15.81.38V.52a.5.5 0 0 0-.5-.5H7.87z" fill="#3771c8"/><path d="M2.95.6c-.63 0-1.14.51-1.14 1.14v9.9c0 .63.5 1.14 1.14 1.14H9.75c.63 0 1.14-.5 1.14-1.14V3.73h-.01c-.07-.57-.54-1-1.13-1H8.06l-.12-.01a.52.52 0 0 1-.5-.5v-.55h-.01A1.12 1.12 0 0 0 6.35.6h-.02z" fill="#333"/><path d="M6.43 1.14a.5.5 0 0 1 .47.5v.48c0 .57.42 1.03.98 1.1l1.96.03c.28 0 .51.23.51.51v7.99a.5.5 0 0 1-.5.5H2.85a.5.5 0 0 1-.51-.5V1.64c0-.29.23-.51.5-.51h3.58z" fill="#ccc"/><path d="M2.86 4.04a.15.15 0 0 0-.15.15.15.15 0 0 0 .15.15v.15a.15.15 0 0 0-.15.15.15.15 0 0 0 .15.14v.15a.15.15 0 0 0-.15.15.15.15 0 0 0 .15.15v.15a.15.15 0 0 0-.15.15.15.15 0 0 0 .15.15v.15a.15.15 0 0 0-.15.15.15.15 0 0 0 .15.15v.15a.15.15 0 0 0-.15.15.15.15 0 0 0 .15.15v.14a.15.15 0 0 0-.15.15.15.15 0 0 0 .15.15v.15a.15.15 0 0 0-.15.15.15.15 0 0 0 .15.15v.15a.15.15 0 0 0-.15.15.15.15 0 0 0 .15.15v.15a.15.15 0 0 0-.15.15.15.15 0 0 0 .15.15v.14a.15.15 0 0 0-.15.15.15.15 0 0 0 .15.15v.15a.15.15 0 0 0-.15.15.15.15 0 0 0 .15.15v.15a.15.15 0 0 0-.15.15.15.15 0 0 0 .15.15v.15a.15.15 0 0 0-.15.15.15.15 0 0 0 .15.15v.14a.15.15 0 0 0-.15.15.15.15 0 0 0 .15.15v.15a.15.15 0 0 0-.15.15.15.15 0 0 0 .15.15v.15a.15.15 0 0 0-.15.15.15.15 0 0 0 .15.15.15.15 0 0 0 .14-.15h.15a.15.15 0 0 0 .14.15.15.15 0 0 0 .15-.15h.14a.15.15 0 0 0 .15.15.15.15 0 0 0 .15-.15h.14a.15.15 0 0 0 .15.15.15.15 0 0 0 .14-.15h.15a.15.15 0 0 0 .14.15.15.15 0 0 0 .15-.15h.14a.15.15 0 0 0 .15.15.15.15 0 0 0 .15-.15h.14a.15.15 0 0 0 .15.15.15.15 0 0 0 .14-.15h.15a.15.15 0 0 0 .14.15.15.15 0 0 0 .15-.15h.14a.15.15 0 0 0 .15.15.15.15 0 0 0 .15-.15h.14a.15.15 0 0 0 .15.15.15.15 0 0 0 .14-.15h.15a.15.15 0 0 0 .14.15.15.15 0 0 0 .15-.15h.14a.15.15 0 0 0 .15.15.15.15 0 0 0 .15-.15h.14a.15.15 0 0 0 .15.15.15.15 0 0 0 .14-.15h.15a.15.15 0 0 0 .14.15.15.15 0 0 0 .15-.15h.14a.15.15 0 0 0 .15.15.15.15 0 0 0 .15-.15h.14a.15.15 0 0 0 .15.15.15.15 0 0 0 .14-.15h.15a.15.15 0 0 0 .13.15.15.15 0 0 0 .01 0 .15.15 0 0 0 .15-.15.15.15 0 0 0-.15-.15v-.15a.15.15 0 0 0 .15-.15.15.15 0 0 0-.15-.15v-.15a.15.15 0 0 0 .15-.15.15.15 0 0 0-.15-.15v-.14A.15.15 0 0 0 10 10a.15.15 0 0 0-.15-.15V9.7a.15.15 0 0 0 .15-.15.15.15 0 0 0-.15-.15v-.15a.15.15 0 0 0 .15-.15.15.15 0 0 0-.15-.15v-.15a.15.15 0 0 0 .15-.15.15.15 0 0 0-.15-.15v-.14a.15.15 0 0 0 .15-.15.15.15 0 0 0-.15-.15v-.15a.15.15 0 0 0 .15-.15.15.15 0 0 0-.15-.15v-.15a.15.15 0 0 0 .15-.15.15.15 0 0 0-.15-.15v-.15a.15.15 0 0 0 .15-.15.15.15 0 0 0-.15-.15v-.14a.15.15 0 0 0 .15-.15.15.15 0 0 0-.15-.15v-.15a.15.15 0 0 0 .15-.15.15.15 0 0 0-.15-.15v-.15a.15.15 0 0 0 .15-.15.15.15 0 0 0-.15-.15v-.15a.15.15 0 0 0 .15-.15.15.15 0 0 0-.15-.15v-.15a.15.15 0 0 0 .15-.14.15.15 0 0 0-.15-.15v-.15a.15.15 0 0 0 .15-.15.15.15 0 0 0-.15-.15.15.15 0 0 0-.14.14h-.15a.15.15 0 0 0-.14-.14.15.15 0 0 0-.15.15h-.14a.15.15 0 0 0-.15-.15.15.15 0 0 0-.15.15h-.14a.15.15 0 0 0-.15-.15.15.15 0 0 0-.14.15h-.15a.15.15 0 0 0-.14-.15.15.15 0 0 0-.15.15h-.14a.15.15 0 0 0-.15-.15.15.15 0 0 0-.15.15h-.14a.15.15 0 0 0-.15-.15.15.15 0 0 0-.14.15h-.15a.15.15 0 0 0-.14-.15.15.15 0 0 0-.15.15H6.5a.15.15 0 0 0-.15-.15.15.15 0 0 0-.15.15h-.14a.15.15 0 0 0-.15-.15.15.15 0 0 0-.14.15h-.15a.15.15 0 0 0-.14-.15.15.15 0 0 0-.15.15H5.2a.15.15 0 0 0-.15-.15.15.15 0 0 0-.15.15h-.14a.15.15 0 0 0-.15-.15.15.15 0 0 0-.14.15H4.3a.15.15 0 0 0-.14-.15.15.15 0 0 0-.15.15h-.14a.15.15 0 0 0-.15-.15.15.15 0 0 0-.15.15h-.14a.15.15 0 0 0-.15-.15.15.15 0 0 0-.14.15H3a.15.15 0 0 0-.14-.15zm.14.3H9.7V11.2H3V4.64z" style="marker:none" color="#000" overflow="visible" fill="#3771c8"/><path d="M6.35 4.94l-.3.52-.48-.37-.08.6-.58-.16.16.59-.6.07.37.48-.52.3.52.3-.37.48.5.07-1.1 1.92.95-.12.38.88 1-1.75.15.26.15-.26 1 1.75.38-.88.95.12-1.1-1.92.5-.07-.37-.48.52-.3-.52-.3.37-.48-.6-.07.16-.59-.58.16-.08-.6-.48.37zm0 .88A1.15 1.15 0 0 1 7.5 6.97a1.15 1.15 0 0 1-1.15 1.15A1.15 1.15 0 0 1 5.2 6.97a1.15 1.15 0 0 1 1.15-1.15z" style="marker:none" color="#000" overflow="visible" fill="#3771c8"/></svg>