<?xml version="1.0" encoding="UTF-8" standalone="no"?><svg xmlns:dc="http://purl.org/dc/elements/1.1/" xmlns:cc="http://creativecommons.org/ns#" xmlns:rdf="http://www.w3.org/1999/02/22-rdf-syntax-ns#" xmlns="http://www.w3.org/2000/svg" width="48" height="48" viewBox="0 0 12.7 12.7"><metadata><rdf:RDF><cc:Work><dc:format>image/svg+xml</dc:format><dc:type rdf:resource="http://purl.org/dc/dcmitype/StillImage"/><dc:title/></cc:Work></rdf:RDF></metadata><path d="M7.35.06a.17.17 0 0 0-.1.03.1.1 0 0 0-.05.08 1.12 1.12 0 0 1 .71.97v.55c0 .27.23.5.52.5h1.81c.33 0 .6.15.81.38V.56a.5.5 0 0 0-.5-.5H7.79z" fill="#ab37c8"/><path d="M2.95.55c-.63 0-1.14.5-1.14 1.14v9.9c0 .63.5 1.13 1.14 1.13H9.75c.63 0 1.14-.5 1.14-1.13V3.67h-.01c-.07-.56-.54-1-1.13-1H7.94a.52.52 0 0 1-.5-.51V1.6h-.01A1.12 1.12 0 0 0 6.35.55h-.02z" fill="#333"/><path d="M6.43 1.08a.5.5 0 0 1 .47.5v.48c0 .57.42 1.04.98 1.11l1.96.03c.28 0 .51.22.51.5v7.99a.5.5 0 0 1-.5.5H2.85a.5.5 0 0 1-.51-.5V1.59c0-.28.23-.5.5-.5h3.58z" fill="#ccc"/><path style="line-height:normal;text-indent:0;text-align:start;text-decoration-line:none;text-transform:none;marker:none" d="M5.56 2.05a.2.2 0 0 0-.17.1l-.07.28-.06.24-.06-.01c-.09-.01-.16 0-.2.06a41.3 41.3 0 0 0-.6 2.73c0 .01.22.07.5.12l.5.11.18-.87c.1-.49.2-.88.2-.88a1.13 1.13 0 0 1 .27.58c.02.12.02.13-.21 1.22L5.6 6.85c0 .05.06.12.1.15.1.05.23.01.28-.07a44.71 44.71 0 0 0 .48-2.33c0-.3-.12-.6-.33-.88l-.24-.27c-.02-.01-.02-.05.02-.25s.05-.25.03-.29c-.03-.07-.08-.1-.18-.13l-.1-.03.05-.26c.05-.2.05-.26.04-.3a.22.22 0 0 0-.2-.14zM4.3 5.86l-.37 1.75a19.83 19.83 0 0 0-.39 1.95c-.02.36.01.88.09 1.34.05.3.03.27.1.17.25-.32.53-.79.68-1.1.14-.31.16-.38.54-2.17l.36-1.73-.5-.1-.5-.1zm3.09.64h-.06c-.03.02 0 .07 0 .1l-.02.62a21.35 21.35 0 0 1-.03.83l-.14.02c-.04.02-.08.06-.12.1-.12.1-.18.26-.25.4h-.24s-.1 0-.08.04l.04.02.12.02.14.03a1.21 1.21 0 0 0-.08.46l.02.1.04.08.07.07c.1.07.3.02.38 0 .08-.03.12-.28.13-.31l.03-.3.1.03v.2c0 .85.02 1.7-.03 2.55a.12.12 0 0 0-.01.04c-.02.04-.04.08 0 .1a.24.24 0 0 0 .12 0h.08l.01-.04.02-.01c.05-.05 0-.13.02-.2l.05-.27c.06-.27.08-.33.18-.58a3.61 3.61 0 0 1 .87-1.15c.1-.1.22-.17.33-.25.03-.02.1-.06.08-.09-.01-.02-.05-.04-.07-.05-.06-.01-.11-.03-.17-.03l-.61-.1-.78-.15V8.1c.22.05.44.1.58.28l.03.04h.23c-.17-.24-.46-.3-.72-.36l-.12-.01v-.1c0-.47 0-.95.04-1.42h-.01a.02.02 0 0 0-.02-.02.16.16 0 0 0-.08 0 .37.37 0 0 0-.07-.01zm.04 1.35v.19h-.02v-.03l.02-.16zm-.02.22h.02l.02.7-.1-.03.06-.67zm-.14.08a5.9 5.9 0 0 1-.07.57 4.01 4.01 0 0 0-.25-.06l.02-.07c.06-.15.12-.3.24-.4l.06-.04zm-.6.44l.03.01h.07v.02l-.08-.02-.01-.01zm.26.12l.15.03.12.02-.07.31-.08.2-.07.06a.4.4 0 0 1-.08-.1l-.02-.1v-.19l.05-.23zm.6.12l1.34.25c.02 0 .05 0 .06.02.02.02-.02.05-.06.08-.1.08-.21.16-.3.25a3.7 3.7 0 0 0-.85 1.17l-.1.28-.06.23c-.03-.7-.03-1.4-.03-2.1v-.18z" fill="#ab37c8"/></svg>