<?xml version="1.0" encoding="UTF-8" standalone="no"?><svg xmlns:dc="http://purl.org/dc/elements/1.1/" xmlns:cc="http://creativecommons.org/ns#" xmlns:rdf="http://www.w3.org/1999/02/22-rdf-syntax-ns#" xmlns="http://www.w3.org/2000/svg" width="48" height="48" viewBox="0 0 12.7 12.7"><metadata><rdf:RDF><cc:Work><dc:format>image/svg+xml</dc:format><dc:type rdf:resource="http://purl.org/dc/dcmitype/StillImage"/><dc:title/></cc:Work></rdf:RDF></metadata><path d="M7.35.06a.17.17 0 0 0-.1.03.1.1 0 0 0-.05.08 1.12 1.12 0 0 1 .71.97v.55c0 .27.23.5.52.5h1.81c.33 0 .6.15.81.38V.56a.5.5 0 0 0-.5-.5H7.79z" fill="#426e54"/><path d="M2.95.55c-.63 0-1.14.5-1.14 1.14v9.9c0 .63.5 1.13 1.14 1.13H9.75c.63 0 1.14-.5 1.14-1.13V3.67h-.01c-.07-.56-.54-1-1.13-1H7.94a.52.52 0 0 1-.5-.51V1.6h-.01A1.12 1.12 0 0 0 6.35.55h-.02z" fill="#333"/><path d="M6.43 1.08a.5.5 0 0 1 .47.5v.48c0 .57.42 1.04.98 1.11l1.96.03c.28 0 .51.22.51.5v7.99a.5.5 0 0 1-.5.5H2.85a.5.5 0 0 1-.51-.5V1.59c0-.28.23-.5.5-.5h3.58z" fill="#ccc"/><path style="line-height:normal;text-indent:0;text-align:start;text-decoration-line:none;text-transform:none;marker:none" d="M7.33 4.87H5.77c.2 0 .4.18.58.46.17.29.32.58.46.9l-.55.31 1.6.15.66-1.45-.55.32c-.15-.3-.35-.56-.64-.7zm-1.65.1a.32.32 0 0 0-.18.1c-.36.37-.59.73-.77 1.09l1.03.59.7-1a9.12 9.12 0 0 0-.2-.36c-.09-.14-.26-.38-.44-.4l-.06-.01zM8.54 6.7l-1.02.6.05.12V7.4v.02l.41.87h.5c.17-.01.49-.05.59-.21v-.02l.05-.07a.32.32 0 0 0-.02-.1 4 4 0 0 0-.56-1.2zm-3.44.17l-1.57.29.58.26c-.16.3-.26.6-.2.92l.9 1.28c-.12-.16-.08-.43.04-.74.14-.3.3-.6.47-.9l.58.28zm2.37.86l-.9 1.32.93 1.3V9.7c.33.01.65-.03.9-.22l.77-1.37c-.1.19-.35.26-.69.29-.33 0-.66 0-1-.04zm-2.32.77a9.6 9.6 0 0 0-.2.42c-.06.16-.16.46-.06.62l.01.02.05.07a.3.3 0 0 0 .14.05c.5.1.93.07 1.33.02l-.11-1.2z" fill="#426e54"/></svg>