<?xml version="1.0" encoding="UTF-8" standalone="no"?><svg xmlns:dc="http://purl.org/dc/elements/1.1/" xmlns:cc="http://creativecommons.org/ns#" xmlns:rdf="http://www.w3.org/1999/02/22-rdf-syntax-ns#" xmlns="http://www.w3.org/2000/svg" width="48" height="48" viewBox="0 0 12.7 12.7"><metadata><rdf:RDF><cc:Work><dc:format>image/svg+xml</dc:format><dc:type rdf:resource="http://purl.org/dc/dcmitype/StillImage"/><dc:title/></cc:Work></rdf:RDF></metadata><path d="M7.35.06a.17.17 0 0 0-.1.03.1.1 0 0 0-.05.08 1.12 1.12 0 0 1 .71.97v.55c0 .27.23.5.52.5h1.81c.33 0 .6.15.81.38V.56a.5.5 0 0 0-.5-.5H7.79z" fill="#a02c2c"/><path d="M2.95.55c-.63 0-1.14.5-1.14 1.14v9.9c0 .63.5 1.13 1.14 1.13H9.75c.63 0 1.14-.5 1.14-1.13V3.67h-.01c-.07-.56-.54-1-1.13-1H7.94a.52.52 0 0 1-.5-.51V1.6h-.01A1.12 1.12 0 0 0 6.35.55h-.02z" fill="#333"/><path d="M6.43 1.08a.5.5 0 0 1 .47.5v.48c0 .57.42 1.04.98 1.11l1.96.03c.28 0 .51.22.51.5v7.99a.5.5 0 0 1-.5.5H2.85a.5.5 0 0 1-.51-.5V1.59c0-.28.23-.5.5-.5h3.58z" fill="#ccc"/><path style="line-height:normal;text-indent:0;text-align:start;text-decoration-line:none;text-transform:none;marker:none" d="M5.64 5.27l-.26.64a1.6 1.6 0 0 0-.33.03l-.38-.56a2.22 2.22 0 0 0-.39.19l.17.66a1.62 1.62 0 0 0-.24.21l-.64-.22a2.21 2.21 0 0 0-.21.38l.51.43a1.55 1.55 0 0 0-.04.16 1.56 1.56 0 0 0-.02.15l-.64.2c0 .15.01.29.04.43l.68.05c.03.1.08.2.13.29l-.4.54c.08.12.17.22.28.32l.57-.36.29.16v.68a2.28 2.28 0 0 0 .4.09l.26-.64.33-.03.38.56a2.22 2.22 0 0 0 .39-.2l-.16-.65c.08-.06.16-.13.24-.22l.64.23a2.21 2.21 0 0 0 .2-.37l.12.25a.94.94 0 0 0-.1.16l-.4-.06a1.3 1.3 0 0 0-.07.24l.34.19a.9.9 0 0 0 0 .1v.09L7 9.57c.01.09.04.17.07.24l.4-.05a1 1 0 0 0 .1.15l-.17.36.2.15.29-.28.18.06.08.4a1.33 1.33 0 0 0 .24 0l.08-.4a.84.84 0 0 0 .18-.06l.29.28c.07-.04.13-.1.2-.15l-.18-.36a.95.95 0 0 0 .11-.15l.4.05a1.3 1.3 0 0 0 .07-.24L9.2 9.4a.83.83 0 0 0 0-.19l.34-.19a1.3 1.3 0 0 0-.07-.24l-.4.05a.94.94 0 0 0-.1-.15l.16-.35a1.3 1.3 0 0 0-.2-.16l-.28.28a.94.94 0 0 0-.18-.06L8.38 8a1.33 1.33 0 0 0-.12 0h-.12l-.08.4a.94.94 0 0 0-.18.05l-.29-.28a1.3 1.3 0 0 0-.2.16l.05.08-.51-.42a1.42 1.42 0 0 0 .06-.31l.65-.2a2.21 2.21 0 0 0-.05-.43L6.92 7a1.62 1.62 0 0 0-.14-.3l.4-.54a2.23 2.23 0 0 0-.28-.32l-.57.36a1.6 1.6 0 0 0-.28-.16v-.68a2.28 2.28 0 0 0-.2-.05l-.2-.04zm-.29 1.27a.96.96 0 0 1 .01 0 .96.96 0 0 1 .23.02.96.96 0 0 1-.38 1.89.96.96 0 0 1 .14-1.9zm2.91 2.2a.56.56 0 0 1 0 1.11.56.56 0 0 1 0-1.12z" fill="#a02c2c"/></svg>