<?xml version="1.0" encoding="UTF-8" standalone="no"?>
<svg
   xmlns:dc="http://purl.org/dc/elements/1.1/"
   xmlns:cc="http://creativecommons.org/ns#"
   xmlns:rdf="http://www.w3.org/1999/02/22-rdf-syntax-ns#"
   xmlns:svg="http://www.w3.org/2000/svg"
   xmlns="http://www.w3.org/2000/svg"
   xmlns:sodipodi="http://sodipodi.sourceforge.net/DTD/sodipodi-0.dtd"
   xmlns:inkscape="http://www.inkscape.org/namespaces/inkscape"
   width="48"
   height="48"
   viewBox="0 0 12.7 12.7"
   version="1.1"
   id="svg4"
   sodipodi:docname="application-x-rpm.svg"
   inkscape:version="0.92.3 (2405546, 2018-03-11)">
  <metadata
     id="metadata10">
    <rdf:RDF>
      <cc:Work
         rdf:about="">
        <dc:format>image/svg+xml</dc:format>
        <dc:type
           rdf:resource="http://purl.org/dc/dcmitype/StillImage" />
        <dc:title></dc:title>
      </cc:Work>
    </rdf:RDF>
  </metadata>
  <defs
     id="defs8" />
  <sodipodi:namedview
     pagecolor="#ffffff"
     bordercolor="#666666"
     borderopacity="1"
     objecttolerance="10"
     gridtolerance="10"
     guidetolerance="10"
     inkscape:pageopacity="0"
     inkscape:pageshadow="2"
     inkscape:window-width="1366"
     inkscape:window-height="715"
     id="namedview6"
     showgrid="false"
     showguides="true"
     inkscape:guide-bbox="true"
     inkscape:snap-global="true"
     inkscape:zoom="10.979167"
     inkscape:cx="24"
     inkscape:cy="24"
     inkscape:window-x="0"
     inkscape:window-y="27"
     inkscape:window-maximized="1"
     inkscape:current-layer="svg4" />
  <path
     style="opacity:1;fill:#a02c2c;fill-opacity:1;fill-rule:nonzero;stroke:none;stroke-width:0.50711799;stroke-linecap:round;stroke-linejoin:bevel;stroke-miterlimit:4;stroke-dasharray:none;stroke-opacity:1"
     d="m 7.3427797,0.50332846 c -0.049987,0 -0.095505,0.0111265 -0.1281231,0.0294556 -0.030738,0.0172693 -0.048532,0.0415092 -0.050642,0.0676961 h -0.00101 V 1.5880167 c 0.1738671,0.051264 0.3313553,0.1228715 0.4613439,0.2185914 0.2311034,0.1701772 0.3815506,0.4003066 0.4026002,0.6588745 h 0.00811 v 0.061495 0.1302247 0.1235067 0.1741495 c 0,0.2538482 0.2767574,0.45837 0.619852,0.45837 h 0.1443282 l -5.186e-4,0.00517 h 2.0641477 c 0.402446,0 0.748641,0.1348703 0.999156,0.3369302 V 2.607076 2.4680664 2.2840983 1.0676351 0.96169839 c 0,-0.12692449 -0.06935,-0.2417064 -0.181296,-0.32452799 C 11.568784,0.5543488 11.413725,0.50332846 11.242176,0.50332846 H 9.4124981 7.8755282 Z"
     id="path830"
     inkscape:connector-curvature="0" />
  <path
     style="opacity:1;fill:#333333;fill-opacity:1;fill-rule:nonzero;stroke:none;stroke-width:0.50711799;stroke-linecap:round;stroke-linejoin:bevel;stroke-miterlimit:4;stroke-dasharray:none;stroke-opacity:1"
     d="m 2.0098987,1.9912065 c -0.7823206,0 -1.4117922,0.4429314 -1.4117922,0.9928533 V 11.64666 c 0,0.549921 0.6294716,0.992854 1.4117922,0.992854 h 5.3339356 3.1393877 c 0.782323,0 1.411795,-0.442933 1.411795,-0.992854 V 4.7215532 h -0.01608 C 11.797901,4.2265379 11.209824,3.843086 10.483224,3.843086 H 8.3767919 v 0 L 8.2301609,3.838116 C 7.8804595,3.8262648 7.5979089,3.6397857 7.5979089,3.3936834 V 3.2250392 3.1052277 2.9790864 2.9194067 h -0.00833 C 7.5461916,2.413392 6.9711816,2.0160708 6.2478645,1.993467 L 6.247203,1.991207 h -0.02508 z"
     id="path833"
     inkscape:connector-curvature="0" />
  <path
     style="opacity:1;fill:#cccccc;fill-opacity:1;fill-rule:nonzero;stroke:none;stroke-width:0.50711799;stroke-linecap:round;stroke-linejoin:bevel;stroke-miterlimit:4;stroke-dasharray:none;stroke-opacity:1"
     d="m 6.3423961,2.5881751 c 0.3276849,0.016569 0.5852967,0.2006791 0.5852981,0.4289428 v 0.2179872 0.1063568 0.078669 c 0,0.4896925 0.5323583,0.8835327 1.2226954,0.9471021 v 0 l 2.4421494,0.022855 c 0.350073,0.00327 0.632251,0.192791 0.632251,0.4320193 v 1.7720255 5.0145862 c 0,0.239228 -0.282145,0.432019 -0.632251,0.432019 H 7.3438343 1.9005576 c -0.3501059,0 -0.632252,-0.192791 -0.632252,-0.432019 V 3.0219522 c 0,-0.2392282 0.2821461,-0.4320192 0.632252,-0.4320192 h 4.4424807 z"
     id="path901-5"
     inkscape:connector-curvature="0" />
  <g
     transform="matrix(0.94507473,0,0,0.94507473,0.40769906,1.621795)"
     id="g848"
     style="fill:#a02c2c;fill-opacity:1;stroke-width:1.05811739">
    <path
       inkscape:connector-curvature="0"
       id="path833-3"
       d="M 6.138,4.793 C 4.352,4.793 2.712,5.443 1.975,6.445 1.727,6.782 1.548,7.21 1.548,7.468 A 0.51,0.51 0 0 0 1.563,7.641 C 1.571,7.641 1.892,7.585 2.275,7.516 2.659,7.448 2.985,7.391 2.999,7.391 3.014,7.391 3.025,7.228 3.024,7.029 3.022,6.743 3.048,6.614 3.144,6.417 3.715,5.25 5.904,4.657 7.57,5.217 L 7.92,5.335 8.137,5.067 7.928,5.003 C 7.538,4.883 6.772,4.793 6.138,4.793 Z"
       style="fill:#a02c2c;fill-opacity:1;stroke-width:1.05811739" />
    <path
       inkscape:connector-curvature="0"
       id="path831"
       d="M 6.15,6.706 A 0.316,0.316 0 0 0 6.092,6.72 0.9,0.9 0 0 1 5.82,6.752 L 5.67,6.744 5.82,6.8 c 0.083,0.03 0.187,0.087 0.233,0.126 0.061,0.053 0.107,0.059 0.175,0.02 0.07,-0.04 0.662,0.05 2.416,0.365 2.446,0.44 2.547,0.456 2.47,0.388 C 11.088,7.675 10.73,7.598 10.318,7.526 6.556,6.873 6.321,6.828 6.268,6.756 6.238,6.715 6.203,6.699 6.15,6.706 Z"
       style="fill:#a02c2c;fill-opacity:1;stroke-width:1.05811739" />
    <path
       inkscape:connector-curvature="0"
       id="path829"
       transform="scale(0.26458333)"
       d="m 14.162109,29.763672 v 0.0039 9.169922 l 1.179688,-0.128906 C 17.31849,38.589381 17.375,38.563485 17.375,37.777344 v -0.69336 l 1.330078,-0.207031 c 1.644095,-0.260787 3.605147,-1.197801 4.236328,-2.029297 0.355276,-0.464882 0.472656,-0.851062 0.472656,-1.535156 0,-0.827717 -0.07537,-0.982681 -0.808593,-1.689453 -1.194331,-1.141417 -2.754758,-1.602472 -5.925781,-1.746094 z m 3.212891,0.789062 0.421875,0.132813 c 0.597165,0.185197 1.351166,0.74156 1.921875,1.421875 0.937323,1.114961 0.52391,2.62959 -0.976562,3.582031 -0.48378,0.302362 -0.985031,0.556641 -1.121094,0.556641 -0.192756,0 -0.246094,-0.6309 -0.246094,-2.845703 z"
       style="fill:#a02c2c;fill-opacity:1;stroke-width:3.99918389" />
    <path
       inkscape:connector-curvature="0"
       id="path827"
       d="M 6.795,7.882 V 9.79 h 0.849 v -1.7 h 0.345 c 0.268,0 0.351,0.017 0.375,0.079 0.017,0.043 0.03,0.425 0.03,0.85 v 0.77 h 0.8 V 8.086 l 0.724,0.03 0.014,0.837 0.014,0.837 h 0.847 V 8.086 L 10.605,8.003 C 10.445,7.932 10.157,7.917 8.606,7.901 L 6.795,7.881 Z"
       style="fill:#a02c2c;fill-opacity:1;stroke-width:1.05811739" />
    <path
       inkscape:connector-curvature="0"
       id="path825"
       d="M 2.298,7.909 1.523,7.916 1.509,8.853 1.496,9.79 H 2.348 V 8.253 L 2.492,8.224 A 0.85,0.85 0 0 1 2.817,8.245 C 2.974,8.289 3.027,8.279 3.209,8.17 L 3.419,8.045 3.246,7.973 C 3.118,7.92 2.869,7.904 2.298,7.909 Z"
       style="fill:#a02c2c;fill-opacity:1;stroke-width:1.05811739" />
    <path
       d="M 8.118,5.07 7.913,5.333 c 0.575,0.242 1.02,0.623 1.229,1.04 0.12,0.24 0.14,0.647 0.13,0.781 L 9.254,7.39 c 0.566,0.101 1.277,0.228 1.555,0.274 0,0 -10e-4,-0.08 -0.04,-0.315 C 10.711,7.007 10.419,6.477 10.113,6.167 9.589,5.635 9.031,5.308 8.118,5.069 Z"
       id="path4"
       inkscape:connector-curvature="0"
       style="opacity:0.75;fill:#a02c2c;fill-opacity:1;stroke-width:1.05811739" />
  </g>
</svg>
