<?xml version="1.0" encoding="UTF-8" standalone="no"?><svg xmlns:dc="http://purl.org/dc/elements/1.1/" xmlns:cc="http://creativecommons.org/ns#" xmlns:rdf="http://www.w3.org/1999/02/22-rdf-syntax-ns#" xmlns="http://www.w3.org/2000/svg" width="48" height="48" viewBox="0 0 12.7 12.7"><metadata><rdf:RDF><cc:Work><dc:format>image/svg+xml</dc:format><dc:type rdf:resource="http://purl.org/dc/dcmitype/StillImage"/><dc:title/></cc:Work></rdf:RDF></metadata><path d="M7.35.06a.17.17 0 0 0-.1.03.1.1 0 0 0-.05.08 1.12 1.12 0 0 1 .71.97v.55c0 .27.23.5.52.5h1.81c.33 0 .6.15.81.38V.56a.5.5 0 0 0-.5-.5H7.79z" fill="#d33afa"/><path d="M2.95.55c-.63 0-1.14.5-1.14 1.14v9.9c0 .63.5 1.13 1.14 1.13H9.75c.63 0 1.14-.5 1.14-1.13V3.67h-.01c-.07-.56-.54-1-1.13-1H7.94a.52.52 0 0 1-.5-.51V1.6h-.01A1.12 1.12 0 0 0 6.35.55h-.02z" fill="#333"/><path d="M6.43 1.08a.5.5 0 0 1 .47.5v.48c0 .57.42 1.04.98 1.11l1.96.03c.28 0 .51.22.51.5v7.99a.5.5 0 0 1-.5.5H2.85a.5.5 0 0 1-.51-.5V1.59c0-.28.23-.5.5-.5h3.58z" fill="#ccc"/><path d="M6.35 5.36a3.1.85 0 0 0-3.1.85v4.51a3.1.85 0 0 0 3.1.85 3.1.85 0 0 0 3.1-.85V6.21a3.1.85 0 0 0-3.1-.85m0 .28a2.82.56 0 0 1 2.82.57 2.82.56 0 0 1-2.82.56 2.82.56 0 0 1-2.82-.56 2.82.56 0 0 1 2.82-.57m-2.82.92a3.1.85 0 0 0 2.82.5 3.1.85 0 0 0 2.82-.5v1.06a2.82.56 0 0 1-2.82.56 2.82.56 0 0 1-2.82-.56zm0 1.41a3.1.85 0 0 0 2.82.5 3.1.85 0 0 0 2.82-.5v1.34a2.82.56 0 0 1-2.82.57 2.82.56 0 0 1-2.82-.57zm0 1.7a3.1.85 0 0 0 2.82.49 3.1.85 0 0 0 2.82-.5v1.06a2.82.56 0 0 1-2.82.57 2.82.56 0 0 1-2.82-.57v-.28z" style="isolation:auto;mix-blend-mode:normal" color="#4d4d4d" overflow="visible" opacity=".9" fill="#d42aff" fill-rule="evenodd"/><path style="line-height:normal;text-indent:0;text-align:start;text-decoration-line:none;text-transform:none;marker:none" d="M4.27 1.98l-.85 2.67h.56l.18-.63h.9l.17.63h.56l-.85-2.67zm.33.39c.01-.01.02.08.03.12l.3 1.05h-.64c.1-.37.22-.74.3-1.12l.01-.05z" fill="#d33afa"/></svg>