<?xml version="1.0" encoding="UTF-8" standalone="no"?>
<svg
   xmlns:dc="http://purl.org/dc/elements/1.1/"
   xmlns:cc="http://creativecommons.org/ns#"
   xmlns:rdf="http://www.w3.org/1999/02/22-rdf-syntax-ns#"
   xmlns:svg="http://www.w3.org/2000/svg"
   xmlns="http://www.w3.org/2000/svg"
   xmlns:sodipodi="http://sodipodi.sourceforge.net/DTD/sodipodi-0.dtd"
   xmlns:inkscape="http://www.inkscape.org/namespaces/inkscape"
   width="48"
   height="48"
   viewBox="0 0 12.7 12.7"
   version="1.1"
   id="svg4"
   sodipodi:docname="application-pgp-signature.svg"
   inkscape:version="0.92.3 (2405546, 2018-03-11)">
  <metadata
     id="metadata10">
    <rdf:RDF>
      <cc:Work
         rdf:about="">
        <dc:format>image/svg+xml</dc:format>
        <dc:type
           rdf:resource="http://purl.org/dc/dcmitype/StillImage" />
        <dc:title></dc:title>
      </cc:Work>
    </rdf:RDF>
  </metadata>
  <defs
     id="defs8" />
  <sodipodi:namedview
     pagecolor="#ffffff"
     bordercolor="#666666"
     borderopacity="1"
     objecttolerance="10"
     gridtolerance="10"
     guidetolerance="10"
     inkscape:pageopacity="0"
     inkscape:pageshadow="2"
     inkscape:window-width="1366"
     inkscape:window-height="715"
     id="namedview6"
     showgrid="false"
     showguides="true"
     inkscape:guide-bbox="true"
     inkscape:snap-global="true"
     inkscape:zoom="10.979167"
     inkscape:cx="24"
     inkscape:cy="24"
     inkscape:window-x="0"
     inkscape:window-y="27"
     inkscape:window-maximized="1"
     inkscape:current-layer="svg4" />
  <path
     inkscape:connector-curvature="0"
     style="opacity:1;fill:#ab37c8;fill-opacity:1;fill-rule:nonzero;stroke:none;stroke-width:0.50711805;stroke-linecap:round;stroke-linejoin:bevel;stroke-miterlimit:4;stroke-dasharray:none;stroke-opacity:1"
     d="m 7.3492433,0.0566603 c -0.040983,0 -0.078161,0.0127642 -0.1049033,0.0330729 C 7.218411,0.1094229 7.202933,0.1367362 7.201965,0.1667311 7.3445127,0.2235372 7.4736634,0.30302596 7.5802366,0.40909358 7.76971,0.59766786 7.8931916,0.85276088 7.9104491,1.1392812 h 0.00672 v 0.068213 0.1441772 0.1369425 0.1927531 c 0,0.2812905 0.2266883,0.5079794 0.5079795,0.5079794 h 0.1183391 l -5.291e-4,0.00568 h 1.6924064 c 0.329951,0 0.613684,0.1491999 0.819072,0.3731038 V 1.141865 0.56463964 c 0,-0.14064565 -0.05654,-0.26789289 -0.148312,-0.35966798 C 10.814345,0.11319656 10.687101,0.0566603 10.546455,0.0566603 H 9.0462851 7.7864139 Z"
     id="path965" />
  <path
     style="opacity:1;fill:#333333;fill-opacity:1;fill-rule:nonzero;stroke:none;stroke-width:0.50711805;stroke-linecap:round;stroke-linejoin:bevel;stroke-miterlimit:4;stroke-dasharray:none;stroke-opacity:1"
     d="m 2.9460732,0.55206094 c -0.6285519,0 -1.134298,0.50626306 -1.134298,1.13481446 v 9.9012056 c 0,0.628551 0.5057461,1.134814 1.134298,1.134814 h 4.2855261 2.522327 c 0.6285527,0 1.1342987,-0.506263 1.1342987,-1.134814 V 3.6728008 h -0.01292 C 10.810197,3.1070068 10.337709,2.6687276 9.7539263,2.6687276 h -1.692403 v 0 l -0.11781,-0.00568 C 7.6627483,2.6495013 7.4357343,2.4363589 7.4357343,2.1550682 V 1.9623107 1.8253682 1.6811909 1.612978 h -0.0067 C 7.3941823,1.0346118 6.9321933,0.5804805 6.3510473,0.55464473 l -5.29e-4,-0.002585 h -0.02015 z"
     id="path833"
     inkscape:connector-curvature="0" />
  <path
     style="opacity:1;fill:#cccccc;fill-opacity:1;fill-rule:nonzero;stroke:none;stroke-width:0.50711805;stroke-linecap:round;stroke-linejoin:bevel;stroke-miterlimit:4;stroke-dasharray:none;stroke-opacity:1"
     d="m 6.4269983,1.0791605 c 0.263277,0.019482 0.470254,0.2359637 0.470255,0.504362 v 0.2563151 0.125057 0.092501 c 0,0.5757933 0.427721,1.0388807 0.982369,1.1136271 v 0 l 1.962134,0.026872 c 0.2812647,0.00385 0.5079787,0.2266886 0.5079797,0.5079793 V 5.7894678 11.68575 c 0,0.281291 -0.226688,0.50798 -0.5079797,0.50798 H 7.2315993 2.8582236 c -0.281291,0 -0.50798,-0.226689 -0.50798,-0.50798 V 1.5892069 c 0,-0.2812907 0.226689,-0.5079794 0.50798,-0.5079794 h 3.5692907 z"
     id="path901-5"
     inkscape:connector-curvature="0" />
  <path
     style="line-height:normal;text-indent:0;text-align:start;text-decoration:none;text-decoration-line:none;text-transform:none;stroke-width:0.99999994;marker:none;fill:#ab37c8;fill-opacity:1"
     d="M 21.005859 7.7558594 A 0.75 0.75 0 0 0 20.375 8.1054688 C 20.325001 8.18547 20.205702 8.6660155 20.095703 9.1660156 L 19.894531 10.085938 L 19.666016 10.046875 C 19.326017 9.9968756 19.065 10.06515 18.875 10.285156 C 18.744999 10.425158 18.596251 11.085625 17.65625 15.515625 C 17.05625 18.305625 16.585469 20.595235 16.605469 20.615234 C 16.605469 20.645244 17.47586 20.846406 18.505859 21.066406 L 20.394531 21.466797 L 21.095703 18.166016 C 21.475703 16.346015 21.815703 14.865234 21.845703 14.865234 C 21.935705 14.885228 22.545782 15.886094 22.675781 16.246094 C 22.755783 16.436094 22.834997 16.796875 22.875 17.046875 C 22.924999 17.506875 22.924687 17.536484 22.054688 21.646484 C 21.574687 23.906484 21.195313 25.826485 21.195312 25.896484 C 21.215306 26.076484 21.415467 26.335312 21.605469 26.445312 C 21.935467 26.645314 22.464531 26.505783 22.644531 26.175781 A 169 169 0 0 0 24.464844 17.386719 C 24.464844 16.286719 24.014844 15.086172 23.214844 14.076172 C 22.904844 13.676171 22.565157 13.296641 22.285156 13.056641 C 22.205157 12.986641 22.224765 12.855938 22.384766 12.085938 C 22.534766 11.355938 22.556094 11.165625 22.496094 11.015625 C 22.376094 10.715625 22.194921 10.586094 21.794922 10.496094 L 21.435547 10.40625 L 21.634766 9.4257812 C 21.804765 8.6257815 21.825622 8.4253906 21.765625 8.2753906 A 0.81999999 0.81999999 0 0 0 21.005859 7.7558594 z M 16.255859 22.15625 L 14.835938 28.765625 C 13.605937 34.595622 13.434531 35.446716 13.394531 36.136719 C 13.304529 37.506718 13.434841 39.475079 13.714844 41.205078 C 13.894844 42.305079 13.835 42.225701 14.125 41.845703 C 15.025 40.645703 16.10625 38.866013 16.65625 37.666016 C 17.19625 36.506019 17.255313 36.236797 18.695312 29.466797 L 20.076172 22.955078 L 18.175781 22.556641 L 16.255859 22.15625 z M 27.923828 24.556641 L 27.714844 24.585938 C 27.594844 24.635937 27.705366 24.846796 27.695312 24.966797 C 27.665303 25.746797 27.625235 26.517108 27.615234 27.287109 A 80.7 80.7 0 0 1 27.503906 30.416016 L 27.003906 30.517578 C 26.823906 30.567577 26.67344 30.717428 26.523438 30.857422 C 26.073438 31.277422 25.833517 31.856018 25.603516 32.416016 L 25.253906 32.357422 C 24.863906 32.357422 25.053594 32.356831 24.683594 32.376953 C 24.6636 32.376953 24.325236 32.37713 24.365234 32.537109 C 24.385228 32.597128 24.463676 32.597444 24.513672 32.607422 L 24.964844 32.707031 L 25.494141 32.806641 A 4.5800001 4.5800001 0 0 0 25.205078 34.527344 L 25.285156 34.896484 C 25.345156 34.996491 25.385074 35.116791 25.455078 35.216797 C 25.525079 35.316803 25.605076 35.406566 25.705078 35.476562 C 26.085077 35.736556 26.814999 35.576569 27.125 35.476562 C 27.445001 35.376556 27.595 34.416405 27.625 34.316406 L 27.753906 33.216797 L 28.144531 33.296875 L 28.154297 34.056641 C 28.154297 37.266639 28.193907 40.487499 28.003906 43.6875 A 0.47000001 0.47000001 0 0 0 27.964844 43.857422 C 27.904844 43.997416 27.835101 44.15724 27.955078 44.197266 A 0.9 0.9 0 0 0 28.423828 44.226562 C 28.523827 44.226562 28.634607 44.227071 28.724609 44.197266 C 28.774609 44.177234 28.773669 44.126387 28.763672 44.066406 L 28.833984 44.027344 C 29.013984 43.857341 28.864298 43.527344 28.904297 43.277344 C 28.954296 42.937337 29.013749 42.576096 29.09375 42.246094 C 29.323749 41.236075 29.423437 41.026641 29.773438 40.056641 A 13.65 13.65 0 0 1 33.074219 35.707031 C 33.434219 35.347031 33.894687 35.087109 34.304688 34.787109 C 34.444689 34.687103 34.675003 34.527491 34.625 34.4375 C 34.575001 34.337494 34.443514 34.296347 34.353516 34.236328 C 34.133517 34.196337 33.925079 34.147159 33.705078 34.117188 L 31.404297 33.746094 C 30.424297 33.586095 29.444844 33.387498 28.464844 33.1875 L 28.474609 30.607422 C 29.27461 30.787441 30.124297 31.006016 30.654297 31.666016 L 30.753906 31.835938 L 31.634766 31.806641 C 31.004788 30.926439 29.89625 30.677269 28.90625 30.447266 L 28.476562 30.416016 L 28.476562 30.066406 C 28.476562 28.266406 28.455698 26.466016 28.595703 24.666016 L 28.556641 24.65625 A 0.06 0.06 0 0 0 28.515625 24.597656 A 0.6 0.6 0 0 0 28.197266 24.597656 A 1.41 1.41 0 0 0 27.925781 24.556641 L 27.923828 24.556641 z M 28.074219 29.6875 L 28.083984 30.066406 L 28.083984 30.386719 L 28.015625 30.386719 L 28.015625 30.287109 L 28.074219 29.6875 z M 28.003906 30.517578 L 28.09375 30.527344 L 28.144531 33.126953 L 27.773438 33.046875 L 28.003906 30.517578 z M 27.484375 30.796875 A 22.3 22.3 0 0 1 27.224609 32.947266 C 26.904612 32.867257 26.583906 32.806113 26.253906 32.746094 L 26.333984 32.466797 C 26.553983 31.906796 26.783907 31.337734 27.253906 30.927734 C 27.323907 30.867753 27.404374 30.836862 27.484375 30.796875 z M 25.234375 32.447266 C 25.274374 32.447266 25.293986 32.487811 25.333984 32.507812 L 25.574219 32.507812 L 25.554688 32.576172 L 25.294922 32.507812 C 25.274928 32.497608 25.204377 32.447266 25.234375 32.447266 z M 26.205078 32.927734 L 26.753906 33.027344 L 27.195312 33.117188 C 27.125312 33.517186 27.045311 33.906877 26.945312 34.296875 C 26.84531 34.546891 26.764762 34.816641 26.634766 35.056641 C 26.584766 35.146631 26.435235 35.197581 26.365234 35.267578 C 26.255235 35.157594 26.163986 35.027202 26.083984 34.867188 C 26.063991 34.767181 26.023673 34.647344 26.013672 34.527344 C 25.983662 34.327331 26.015189 34.006642 26.035156 33.806641 C 26.075155 33.506622 26.135074 33.217735 26.205078 32.927734 z M 28.464844 33.357422 L 33.535156 34.326172 C 33.615158 34.346203 33.713673 34.33639 33.763672 34.396484 C 33.823672 34.456465 33.663674 34.597009 33.513672 34.707031 C 33.133674 35.017028 32.715 35.29625 32.375 35.65625 A 13.97 13.97 0 0 0 29.195312 40.046875 L 28.814453 41.126953 C 28.664451 41.606953 28.624218 41.776561 28.574219 41.976562 C 28.47422 39.336562 28.474848 36.706172 28.464844 34.076172 L 28.464844 33.376953 L 28.464844 33.357422 z "
     transform="scale(0.26458333)"
     id="path833-3" />
</svg>
