<?xml version="1.0" encoding="UTF-8" standalone="no"?><svg xmlns:dc="http://purl.org/dc/elements/1.1/" xmlns:cc="http://creativecommons.org/ns#" xmlns:rdf="http://www.w3.org/1999/02/22-rdf-syntax-ns#" xmlns="http://www.w3.org/2000/svg" width="48" height="48" viewBox="0 0 12.7 12.7"><metadata><rdf:RDF><cc:Work><dc:format>image/svg+xml</dc:format><dc:type rdf:resource="http://purl.org/dc/dcmitype/StillImage"/><dc:title/></cc:Work></rdf:RDF></metadata><path d="M7.35.06a.17.17 0 0 0-.1.03.1.1 0 0 0-.05.08 1.12 1.12 0 0 1 .71.97v.55c0 .27.23.5.52.5h1.81c.33 0 .6.15.81.38V.56a.5.5 0 0 0-.5-.5H7.79z" fill="#334b6a"/><path d="M2.95.55c-.63 0-1.14.5-1.14 1.14v9.9c0 .63.5 1.13 1.14 1.13H9.75c.63 0 1.14-.5 1.14-1.13V3.67h-.01c-.07-.56-.54-1-1.13-1H7.94a.52.52 0 0 1-.5-.51V1.6h-.01A1.12 1.12 0 0 0 6.35.55h-.02z" fill="#333"/><path d="M6.43 1.08a.5.5 0 0 1 .47.5v.48c0 .57.42 1.04.98 1.11l1.96.03c.28 0 .51.22.51.5v7.99a.5.5 0 0 1-.5.5H2.85a.5.5 0 0 1-.51-.5V1.59c0-.28.23-.5.5-.5h3.58z" fill="#ccc"/><path d="M7.54 4.6a2.19 2.19 0 0 0-1.58.63 2.19 2.19 0 0 0-.31 2.69l-.05.05a.03.03 0 0 0 0 .04l.07.07-.23.22-.07-.07a.11.11 0 0 0-.16 0l-2.15 2.15a.11.11 0 0 0 0 .16l.07.07-.1.1a.07.07 0 0 0 0 .11l.43.44c.03.03.08.03.1 0l.11-.1.07.06c.05.04.12.04.16 0l2.15-2.15a.11.11 0 0 0 0-.16l-.07-.07.23-.22.07.07h.04l.04-.05a2.19 2.19 0 0 0 2.7-.31 2.19 2.19 0 0 0 0-3.1 2.19 2.19 0 0 0-1.52-.64zm0 .4a1.78 1.78 0 0 1 1.23.52 1.78 1.78 0 0 1 0 2.52 1.78 1.78 0 0 1-2.52 0 1.78 1.78 0 0 1 0-2.52A1.78 1.78 0 0 1 7.54 5z" fill="#334b6a"/></svg>