<?xml version="1.0" encoding="UTF-8" standalone="no"?><svg xmlns:dc="http://purl.org/dc/elements/1.1/" xmlns:cc="http://creativecommons.org/ns#" xmlns:rdf="http://www.w3.org/1999/02/22-rdf-syntax-ns#" xmlns="http://www.w3.org/2000/svg" width="48" height="48" viewBox="0 0 12.7 12.7"><metadata><rdf:RDF><cc:Work><dc:format>image/svg+xml</dc:format><dc:type rdf:resource="http://purl.org/dc/dcmitype/StillImage"/><dc:title/></cc:Work></rdf:RDF></metadata><path d="M7.35.06a.17.17 0 0 0-.1.03.1.1 0 0 0-.05.08 1.12 1.12 0 0 1 .71.97v.55c0 .27.23.5.52.5h1.81c.33 0 .6.15.81.38V.56a.5.5 0 0 0-.5-.5H7.79z" fill="#08a"/><path d="M2.95.55c-.63 0-1.14.5-1.14 1.14v9.9c0 .63.5 1.13 1.14 1.13H9.75c.63 0 1.14-.5 1.14-1.13V3.67h-.01c-.07-.56-.54-1-1.13-1H7.94a.52.52 0 0 1-.5-.51V1.6h-.01A1.12 1.12 0 0 0 6.35.55h-.02z" fill="#333"/><path d="M6.43 1.08a.5.5 0 0 1 .47.5v.48c0 .57.42 1.04.98 1.11l1.96.03c.28 0 .51.22.51.5v7.99a.5.5 0 0 1-.5.5H2.85a.5.5 0 0 1-.51-.5V1.59c0-.28.23-.5.5-.5h3.58z" fill="#ccc"/><path d="M4.73 5.28c-.9 0-1.97.66-2.4 1.74v2.55c.2.78.52 1.38.78 2.02l1.23-.51c-.28-.58-.64-1.15-.77-1.44-.37-.8-.5-1.16-.47-1.76.03-.6.22-.96.58-1.3.36-.35.86-.52 1.45-.44 1.25.17 1.65 1.12 1.68 1.58.03.38-.25 1.32-1.2 1.27-.68-.03-1.05-.4-1.1-1.03-.03-.46.42-.93 1.14-.69.12.04.13-.17 0-.28-.34-.27-1.69-.17-1.68.9 0 1 .8 1.67 1.57 1.67 1.6.01 1.92-1.26 1.86-2.14-.06-.97-1.29-2.14-2.67-2.14z" fill="#08a" fill-rule="evenodd"/><path d="M9.56 5.34l-1.22.51c.28.58.65 1.16.78 1.44.36.8.5 1.16.46 1.77-.03.59-.23.94-.59 1.29-.35.35-.84.53-1.43.44-1.26-.17-1.66-1.12-1.69-1.58-.02-.38.24-1.31 1.2-1.27.67.03 1.05.4 1.1 1.03.02.46-.42.93-1.15.7-.11-.04-.12.16.01.27.34.27 1.68.17 1.68-.9 0-1-.8-1.67-1.57-1.67-1.61-.01-1.92 1.26-1.86 2.14.06.97 1.28 2.15 2.67 2.14.89 0 1.96-.66 2.4-1.75V7.37c-.2-.78-.52-1.38-.79-2.03z" opacity=".6" fill="#08a" fill-rule="evenodd"/></svg>