<?xml version="1.0" encoding="UTF-8" standalone="no"?>
<svg
   xmlns:dc="http://purl.org/dc/elements/1.1/"
   xmlns:cc="http://creativecommons.org/ns#"
   xmlns:rdf="http://www.w3.org/1999/02/22-rdf-syntax-ns#"
   xmlns:svg="http://www.w3.org/2000/svg"
   xmlns="http://www.w3.org/2000/svg"
   xmlns:sodipodi="http://sodipodi.sourceforge.net/DTD/sodipodi-0.dtd"
   xmlns:inkscape="http://www.inkscape.org/namespaces/inkscape"
   width="48"
   height="48"
   viewBox="0 0 12.7 12.7"
   version="1.1"
   id="svg4"
   sodipodi:docname="audio-x-mpeg.svg"
   inkscape:version="0.92.3 (2405546, 2018-03-11)">
  <metadata
     id="metadata10">
    <rdf:RDF>
      <cc:Work
         rdf:about="">
        <dc:format>image/svg+xml</dc:format>
        <dc:type
           rdf:resource="http://purl.org/dc/dcmitype/StillImage" />
        <dc:title></dc:title>
      </cc:Work>
    </rdf:RDF>
  </metadata>
  <defs
     id="defs8" />
  <sodipodi:namedview
     pagecolor="#ffffff"
     bordercolor="#666666"
     borderopacity="1"
     objecttolerance="10"
     gridtolerance="10"
     guidetolerance="10"
     inkscape:pageopacity="0"
     inkscape:pageshadow="2"
     inkscape:window-width="1366"
     inkscape:window-height="715"
     id="namedview6"
     showgrid="false"
     showguides="true"
     inkscape:guide-bbox="true"
     inkscape:snap-global="true"
     inkscape:zoom="3.896453"
     inkscape:cx="-26.173838"
     inkscape:cy="24"
     inkscape:window-x="0"
     inkscape:window-y="27"
     inkscape:window-maximized="1"
     inkscape:current-layer="svg4" />
  <g
     id="g827">
    <path
       id="path965"
       d="m 7.3492433,0.0566603 c -0.040983,0 -0.078161,0.0127642 -0.1049033,0.0330729 C 7.218411,0.1094229 7.202933,0.1367362 7.201965,0.1667311 7.3445127,0.2235372 7.4736634,0.30302596 7.5802366,0.40909358 7.76971,0.59766786 7.8931916,0.85276088 7.9104491,1.1392812 h 0.00672 v 0.068213 0.1441772 0.1369425 0.1927531 c 0,0.2812905 0.2266883,0.5079794 0.5079795,0.5079794 h 0.1183391 l -5.291e-4,0.00568 h 1.6924064 c 0.329951,0 0.613684,0.1491999 0.819072,0.3731038 V 1.141865 0.56463964 c 0,-0.14064565 -0.05654,-0.26789289 -0.148312,-0.35966798 C 10.814345,0.11319656 10.687101,0.0566603 10.546455,0.0566603 H 9.0462851 7.7864139 Z"
       style="opacity:1;fill:#008000;fill-opacity:1;fill-rule:nonzero;stroke:none;stroke-width:0.50711805;stroke-linecap:round;stroke-linejoin:bevel;stroke-miterlimit:4;stroke-dasharray:none;stroke-opacity:1"
       inkscape:connector-curvature="0" />
    <path
       inkscape:connector-curvature="0"
       id="path833"
       d="m 2.9460732,0.55206094 c -0.6285519,0 -1.134298,0.50626306 -1.134298,1.13481446 v 9.9012056 c 0,0.628551 0.5057461,1.134814 1.134298,1.134814 h 4.2855261 2.522327 c 0.6285527,0 1.1342987,-0.506263 1.1342987,-1.134814 V 3.6728008 h -0.01292 C 10.810197,3.1070068 10.337709,2.6687276 9.7539263,2.6687276 h -1.692403 v 0 l -0.11781,-0.00568 C 7.6627483,2.6495013 7.4357343,2.4363589 7.4357343,2.1550682 V 1.9623107 1.8253682 1.6811909 1.612978 h -0.0067 C 7.3941823,1.0346118 6.9321933,0.5804805 6.3510473,0.55464473 l -5.29e-4,-0.002585 h -0.02015 z"
       style="opacity:1;fill:#333333;fill-opacity:1;fill-rule:nonzero;stroke:none;stroke-width:0.50711805;stroke-linecap:round;stroke-linejoin:bevel;stroke-miterlimit:4;stroke-dasharray:none;stroke-opacity:1" />
    <path
       inkscape:connector-curvature="0"
       id="path901-5"
       d="m 6.4269983,1.0791605 c 0.263277,0.019482 0.470254,0.2359637 0.470255,0.504362 v 0.2563151 0.125057 0.092501 c 0,0.5757933 0.427721,1.0388807 0.982369,1.1136271 v 0 l 1.962134,0.026872 c 0.2812647,0.00385 0.5079787,0.2266886 0.5079797,0.5079793 V 5.7894678 11.68575 c 0,0.281291 -0.226688,0.50798 -0.5079797,0.50798 H 7.2315993 2.8582236 c -0.281291,0 -0.50798,-0.226689 -0.50798,-0.50798 V 1.5892069 c 0,-0.2812907 0.226689,-0.5079794 0.50798,-0.5079794 h 3.5692907 z"
       style="opacity:1;fill:#cccccc;fill-opacity:1;fill-rule:nonzero;stroke:none;stroke-width:0.50711805;stroke-linecap:round;stroke-linejoin:bevel;stroke-miterlimit:4;stroke-dasharray:none;stroke-opacity:1" />
    <path
       inkscape:connector-curvature="0"
       id="path41"
       d="m 4.7681842,3.9310261 c -0.031804,0 -0.1384927,0.026273 -0.1384927,0.059945 l 0.00362,4.4638102 C 4.5117122,8.3612454 4.4237251,8.3162882 4.2534871,8.3162882 c -0.2431965,0 -0.4822997,0.089955 -0.6955647,0.2134235 -0.2806115,0.1664954 -0.6118489,0.4578509 -0.6118489,0.886251 0,0.3685366 0.3139966,0.5426026 0.6469888,0.5426026 0.2450676,0 0.4828164,-0.08964 0.6960817,-0.214974 0.2806112,-0.166497 0.6139158,-0.4583661 0.6139158,-0.8867678 0,-0.01684 -0.00382,-0.029988 -0.00568,-0.044958 0.00186,-0.0056 0.00568,-0.00913 0.00568,-0.012919 V 5.4782184 c 0.4284004,0.4452369 0.993221,1.0644016 0.993221,1.6836181 0,0.3928557 -0.095679,0.7801589 -0.2490804,1.1430828 -0.018706,0.093538 0.05837,0.1591633 0.1369426,0.1591633 7.014e-4,0 0.00137,-5.035e-4 0.00207,-5.167e-4 v 5.167e-4 h 1.3916461 c 0.04557,-8.21e-4 0.091035,-0.030577 0.099735,-0.066663 L 7.393866,7.9814245 7.760252,9.6087153 c 0.0027,0.03169 0.0521,0.05803 0.1054201,0.05633 0.05332,-0.0016 0.097218,-0.02975 0.094568,-0.0615 v -0.0155 L 8.215519,7.5349406 v 0.8366413 0.010335 c 0.0044,0.077148 0.1757262,0.090329 0.1994713,0.015503 l 0.1002522,-0.3338298 0.166398,1.2578046 v 0.015503 c 0.01421,0.05512 0.180507,0.05459 0.199471,0 V 9.3265623 L 9.1751503,8.0072631 9.3586018,10.809676 c 0.01669,0.05478 0.182711,0.05478 0.199471,0 L 9.7523762,6.8259398 10.013342,7.9912433 c 0.01669,0.054785 0.182721,0.054785 0.199471,0 l 0.09457,-0.3281452 0.04237,0.8128701 V 6.9902709 c -0.0365,0.00851 -0.07821,0.018155 -0.08113,0.041341 L 10.124446,7.5757647 9.7859658,6.1024697 V 6.0921346 C 9.7650159,6.0375156 9.597378,6.041728 9.5859781,6.0973022 v 0.010335 L 9.4474852,9.0444091 9.3306965,7.3096312 c 0.0027,-0.03174 -0.040691,-0.059915 -0.094051,-0.061495 -0.05338,-0.00157 -0.10277,0.024593 -0.1054198,0.056327 v 0.010335 L 8.803597,8.7679401 8.6428833,7.5923012 V 7.5767982 C 8.6286733,7.5217402 8.4675429,7.5170342 8.4485799,7.5716282 L 8.4149899,7.679632 V 5.9236693 5.9185018 C 8.4036301,5.8629787 8.2364211,5.85877 8.215519,5.9133339 v 0.00517 L 7.8325968,9.0128864 7.5049681,7.5705971 c -0.01669,-0.054785 -0.1827131,-0.054785 -0.199471,0 L 7.088973,8.2997517 H 5.928837 C 6.0632223,7.9343458 6.1469116,7.5517035 6.1469116,7.1618365 c 0,-1.1766984 -1.2382394,-1.9903537 -1.2438518,-3.1651813 v -0.00568 c 0,-0.033672 -0.026272,-0.059945 -0.059945,-0.059945 z"
       style="color:#000000;text-indent:0;text-decoration:none;text-decoration-line:none;text-transform:none;fill:#008000;stroke-width:0.26458332;fill-opacity:1" />
  </g>
</svg>
