<?xml version="1.0" encoding="UTF-8" standalone="no"?><svg xmlns:dc="http://purl.org/dc/elements/1.1/" xmlns:cc="http://creativecommons.org/ns#" xmlns:rdf="http://www.w3.org/1999/02/22-rdf-syntax-ns#" xmlns="http://www.w3.org/2000/svg" width="48" height="48" viewBox="0 0 12.7 12.7"><metadata><rdf:RDF><cc:Work><dc:format>image/svg+xml</dc:format><dc:type rdf:resource="http://purl.org/dc/dcmitype/StillImage"/><dc:title/></cc:Work></rdf:RDF></metadata><path d="M7.35.06a.17.17 0 0 0-.1.03.1.1 0 0 0-.05.08 1.12 1.12 0 0 1 .71.97v.55c0 .27.23.5.52.5h1.81c.33 0 .6.15.81.38V.56a.5.5 0 0 0-.5-.5H7.79z" fill="green"/><path d="M2.95.55c-.63 0-1.14.5-1.14 1.14v9.9c0 .63.5 1.13 1.14 1.13H9.75c.63 0 1.14-.5 1.14-1.13V3.67h-.01c-.07-.56-.54-1-1.13-1H7.94a.52.52 0 0 1-.5-.51V1.6h-.01A1.12 1.12 0 0 0 6.35.55h-.02z" fill="#333"/><path d="M6.43 1.08a.5.5 0 0 1 .47.5v.48c0 .57.42 1.04.98 1.11l1.96.03c.28 0 .51.22.51.5v7.99a.5.5 0 0 1-.5.5H2.85a.5.5 0 0 1-.51-.5V1.59c0-.28.23-.5.5-.5h3.58z" fill="#ccc"/><path d="M4.77 3.93c-.03 0-.14.03-.14.06v4.46a.54.54 0 0 0-.38-.13c-.24 0-.48.09-.7.21-.27.17-.6.46-.6.89 0 .36.31.54.64.54.25 0 .49-.1.7-.22.28-.16.61-.45.61-.88V8.8 5.48c.43.44 1 1.06 1 1.68 0 .4-.1.78-.25 1.14-.02.1.06.16.13.16h1.4c.04 0 .09-.03.1-.06l.11-.42.37 1.63c0 .03.05.06.1.06.06 0 .1-.03.1-.07V9.6l.26-2.06v.85c0 .08.17.1.2.02l.1-.34.16 1.26v.02c.02.05.18.05.2 0v-.01L9.18 8l.18 2.8c.02.05.18.05.2 0l.2-3.98.25 1.16c.02.06.19.06.2 0l.1-.33.04.82V6.99c-.04 0-.08.02-.08.04l-.15.55L9.8 6.1c-.02-.06-.2-.06-.2 0l-.14 2.94-.12-1.73c0-.03-.04-.06-.1-.06-.05 0-.1.02-.1.05v.01L8.8 8.77l-.16-1.18v-.01c-.01-.06-.17-.06-.2 0l-.03.1V5.92c0-.06-.17-.06-.2 0l-.38 3.1-.33-1.45c-.01-.05-.18-.05-.2 0l-.21.73H5.93c.13-.37.22-.75.22-1.14C6.15 6 4.9 5.17 4.9 4a.06.06 0 0 0-.06-.07z" style="text-indent:0;text-decoration-line:none;text-transform:none" color="#000" fill="green"/></svg>