<?xml version="1.0" encoding="UTF-8" standalone="no"?>
<svg
   xmlns:dc="http://purl.org/dc/elements/1.1/"
   xmlns:cc="http://creativecommons.org/ns#"
   xmlns:rdf="http://www.w3.org/1999/02/22-rdf-syntax-ns#"
   xmlns:svg="http://www.w3.org/2000/svg"
   xmlns="http://www.w3.org/2000/svg"
   xmlns:sodipodi="http://sodipodi.sourceforge.net/DTD/sodipodi-0.dtd"
   xmlns:inkscape="http://www.inkscape.org/namespaces/inkscape"
   width="48"
   height="48"
   viewBox="0 0 12.7 12.7"
   version="1.1"
   id="svg4"
   sodipodi:docname="authors.svg"
   inkscape:version="0.92.3 (2405546, 2018-03-11)">
  <metadata
     id="metadata10">
    <rdf:RDF>
      <cc:Work
         rdf:about="">
        <dc:format>image/svg+xml</dc:format>
        <dc:type
           rdf:resource="http://purl.org/dc/dcmitype/StillImage" />
        <dc:title></dc:title>
      </cc:Work>
    </rdf:RDF>
  </metadata>
  <defs
     id="defs8" />
  <sodipodi:namedview
     pagecolor="#ffffff"
     bordercolor="#666666"
     borderopacity="1"
     objecttolerance="10"
     gridtolerance="10"
     guidetolerance="10"
     inkscape:pageopacity="0"
     inkscape:pageshadow="2"
     inkscape:window-width="1366"
     inkscape:window-height="715"
     id="namedview6"
     showgrid="false"
     showguides="true"
     inkscape:guide-bbox="true"
     inkscape:snap-global="true"
     inkscape:zoom="4.3710839"
     inkscape:cx="20.948767"
     inkscape:cy="11.931689"
     inkscape:window-x="0"
     inkscape:window-y="27"
     inkscape:window-maximized="1"
     inkscape:current-layer="svg4" />
  <path
     inkscape:connector-curvature="0"
     style="opacity:1;fill:#165044;fill-opacity:1;fill-rule:nonzero;stroke:none;stroke-width:0.50711805;stroke-linecap:round;stroke-linejoin:bevel;stroke-miterlimit:4;stroke-dasharray:none;stroke-opacity:1"
     d="m 7.3492433,0.0566603 c -0.040983,0 -0.078161,0.0127642 -0.1049033,0.0330729 C 7.218411,0.1094229 7.202933,0.1367362 7.201965,0.1667311 7.3445127,0.2235372 7.4736634,0.30302596 7.5802366,0.40909358 7.76971,0.59766786 7.8931916,0.85276088 7.9104491,1.1392812 h 0.00672 v 0.068213 0.1441772 0.1369425 0.1927531 c 0,0.2812905 0.2266883,0.5079794 0.5079795,0.5079794 h 0.1183391 l -5.291e-4,0.00568 h 1.6924064 c 0.329951,0 0.613684,0.1491999 0.819072,0.3731038 V 1.141865 0.56463964 c 0,-0.14064565 -0.05654,-0.26789289 -0.148312,-0.35966798 C 10.814345,0.11319656 10.687101,0.0566603 10.546455,0.0566603 H 9.0462851 7.7864139 Z"
     id="path965" />
  <path
     style="opacity:1;fill:#333333;fill-opacity:1;fill-rule:nonzero;stroke:none;stroke-width:0.50711805;stroke-linecap:round;stroke-linejoin:bevel;stroke-miterlimit:4;stroke-dasharray:none;stroke-opacity:1"
     d="m 2.9460732,0.55206094 c -0.6285519,0 -1.134298,0.50626306 -1.134298,1.13481446 v 9.9012056 c 0,0.628551 0.5057461,1.134814 1.134298,1.134814 h 4.2855261 2.522327 c 0.6285527,0 1.1342987,-0.506263 1.1342987,-1.134814 V 3.6728008 h -0.01292 C 10.810197,3.1070068 10.337709,2.6687276 9.7539263,2.6687276 h -1.692403 v 0 l -0.11781,-0.00568 C 7.6627483,2.6495013 7.4357343,2.4363589 7.4357343,2.1550682 V 1.9623107 1.8253682 1.6811909 1.612978 h -0.0067 C 7.3941823,1.0346118 6.9321933,0.5804805 6.3510473,0.55464473 l -5.29e-4,-0.002585 h -0.02015 z"
     id="path833"
     inkscape:connector-curvature="0" />
  <path
     style="opacity:1;fill:#cccccc;fill-opacity:1;fill-rule:nonzero;stroke:none;stroke-width:0.50711805;stroke-linecap:round;stroke-linejoin:bevel;stroke-miterlimit:4;stroke-dasharray:none;stroke-opacity:1"
     d="m 6.4269983,1.0791605 c 0.263277,0.019482 0.470254,0.2359637 0.470255,0.504362 v 0.2563151 0.125057 0.092501 c 0,0.5757933 0.427721,1.0388807 0.982369,1.1136271 v 0 l 1.962134,0.026872 c 0.2812647,0.00385 0.5079787,0.2266886 0.5079797,0.5079793 V 5.7894678 11.68575 c 0,0.281291 -0.226688,0.50798 -0.5079797,0.50798 H 7.2315993 2.8582236 c -0.281291,0 -0.50798,-0.226689 -0.50798,-0.50798 V 1.5892069 c 0,-0.2812907 0.226689,-0.5079794 0.50798,-0.5079794 h 3.5692907 z"
     id="path901-5"
     inkscape:connector-curvature="0" />
  <path
     style="color:#000000;font-weight:400;line-height:125%;font-family:Ubuntu;-inkscape-font-specification:'Ubuntu, Normal';font-variant-ligatures:normal;font-variant-position:normal;font-variant-caps:normal;font-variant-numeric:normal;font-variant-alternates:normal;font-feature-settings:normal;text-indent:0;text-align:start;text-decoration:none;text-decoration-line:none;text-decoration-style:solid;text-decoration-color:#000000;letter-spacing:0;word-spacing:0;text-transform:none;text-orientation:mixed;white-space:normal;shape-padding:0;overflow:visible;isolation:auto;mix-blend-mode:normal;fill:#165044;stroke-width:0.99999994;fill-opacity:1"
     d="M 28.507812 25.789062 A 3.7865019 3.7865019 0 0 0 27.015625 26.083984 C 26.555645 26.271976 26.146626 26.546359 25.806641 26.902344 L 25.806641 26.90625 L 25.806641 26.910156 C 25.475989 27.268807 25.219674 27.698808 25.041016 28.189453 C 24.858355 28.678765 24.769531 29.214421 24.769531 29.789062 C 24.769531 30.369037 24.857024 30.911698 25.041016 31.402344 C 25.221008 31.883656 25.477322 32.307984 25.806641 32.667969 L 25.806641 32.671875 C 26.145294 33.027861 26.550499 33.305962 27.007812 33.501953 L 27.007812 33.507812 C 27.469126 33.695802 27.972643 33.787109 28.501953 33.787109 C 29.028597 33.787109 29.527588 33.695802 29.990234 33.507812 L 29.990234 33.503906 C 30.447548 33.307915 30.849036 33.029193 31.179688 32.671875 C 31.519673 32.314557 31.779612 31.884989 31.960938 31.402344 C 32.144929 30.911698 32.234375 30.370371 32.234375 29.789062 L 32.246094 29.789062 C 32.246094 29.215754 32.160554 28.680718 31.976562 28.191406 A 3.6945059 3.6945059 0 0 0 31.195312 26.90625 A 3.3331883 3.3331883 0 0 0 30 26.083984 A 3.7798356 3.7798356 0 0 0 28.507812 25.789062 z M 18.851562 27.382812 A 2.84 2.84 0 0 0 17.732422 27.603516 C 17.387422 27.744515 17.081172 27.95175 16.826172 28.21875 L 16.826172 28.222656 L 16.826172 28.224609 C 16.578171 28.49361 16.385953 28.815594 16.251953 29.183594 C 16.114953 29.550593 16.048828 29.951813 16.048828 30.382812 C 16.048828 30.817813 16.113955 31.223797 16.251953 31.591797 C 16.386954 31.952798 16.579173 32.272969 16.826172 32.542969 L 16.826172 32.544922 C 17.080171 32.811923 17.385516 33.020969 17.728516 33.167969 L 17.728516 33.171875 C 18.074516 33.312874 18.450656 33.380859 18.847656 33.380859 C 19.242656 33.380859 19.617844 33.312878 19.964844 33.171875 L 19.964844 33.169922 C 20.307844 33.022922 20.609422 32.812922 20.857422 32.544922 C 21.112422 32.276922 21.307359 31.953797 21.443359 31.591797 C 21.581359 31.223797 21.646484 30.818812 21.646484 30.382812 L 21.65625 30.382812 C 21.65625 29.952812 21.591123 29.552547 21.453125 29.185547 A 2.771 2.771 0 0 0 20.869141 28.222656 A 2.4999999 2.4999999 0 0 0 19.972656 27.603516 A 2.835 2.835 0 0 0 18.853516 27.382812 L 18.851562 27.382812 z M 18.876953 35.384766 C 16.559953 35.384766 15.315625 35.597921 14.390625 36.294922 C 13.928625 36.644922 13.623172 37.118875 13.451172 37.671875 C 13.279172 38.224877 13.226609 38.647815 13.224609 39.382812 L 18.853516 39.384766 L 21.353516 39.384766 C 21.339137 39.426496 21.319838 39.465381 21.306641 39.507812 C 21.077318 40.245111 21.006575 40.807153 21.003906 41.787109 L 28.507812 41.791016 L 36.013672 41.791016 C 36.012338 40.809726 35.943547 40.245111 35.712891 39.507812 C 35.483567 38.77051 35.078244 38.139143 34.460938 37.673828 C 33.230324 36.744535 31.628881 36.457031 28.541016 36.457031 C 26.449277 36.457031 25.021698 36.594221 23.929688 36.966797 C 23.767862 36.71262 23.566474 36.485371 23.316406 36.296875 C 22.393406 35.599875 21.192953 35.384766 18.876953 35.384766 z "
     transform="scale(0.26458333)"
     id="path2" />
</svg>
