<?xml version="1.0" encoding="UTF-8" standalone="no"?>
<svg
   xmlns:dc="http://purl.org/dc/elements/1.1/"
   xmlns:cc="http://creativecommons.org/ns#"
   xmlns:rdf="http://www.w3.org/1999/02/22-rdf-syntax-ns#"
   xmlns:svg="http://www.w3.org/2000/svg"
   xmlns="http://www.w3.org/2000/svg"
   xmlns:sodipodi="http://sodipodi.sourceforge.net/DTD/sodipodi-0.dtd"
   xmlns:inkscape="http://www.inkscape.org/namespaces/inkscape"
   width="48"
   height="48"
   version="1"
   id="svg18"
   sodipodi:docname="extension.svg"
   inkscape:version="0.92.3 (2405546, 2018-03-11)">
  <metadata
     id="metadata22">
    <rdf:RDF>
      <cc:Work
         rdf:about="">
        <dc:format>image/svg+xml</dc:format>
        <dc:type
           rdf:resource="http://purl.org/dc/dcmitype/StillImage" />
        <dc:title></dc:title>
      </cc:Work>
    </rdf:RDF>
  </metadata>
  <sodipodi:namedview
     pagecolor="#ffffff"
     bordercolor="#666666"
     borderopacity="1"
     objecttolerance="10"
     gridtolerance="10"
     guidetolerance="10"
     inkscape:pageopacity="0"
     inkscape:pageshadow="2"
     inkscape:window-width="1366"
     inkscape:window-height="715"
     id="namedview20"
     showgrid="false"
     showguides="true"
     inkscape:guide-bbox="true"
     inkscape:zoom="11.020833"
     inkscape:cx="6.260869"
     inkscape:cy="24"
     inkscape:window-x="0"
     inkscape:window-y="27"
     inkscape:window-maximized="1"
     inkscape:current-layer="svg18" />
  <defs
     id="defs14">
    <linearGradient
       id="b">
      <stop
         offset="0"
         stop-opacity="0"
         id="stop2" />
      <stop
         offset=".5"
         id="stop4" />
      <stop
         offset="1"
         stop-opacity="0"
         id="stop6" />
    </linearGradient>
    <linearGradient
       id="a">
      <stop
         offset="0"
         id="stop9" />
      <stop
         offset="1"
         stop-opacity="0"
         id="stop11" />
    </linearGradient>
  </defs>
  <g
     id="g839">
    <path
       sodipodi:nodetypes="cccccccsscsscscccccsccssccsc"
       inkscape:connector-curvature="0"
       id="path838"
       d="m 21,6.5 c -0.01693,5.555e-4 -0.03386,0.00121 -0.05078,0.00195 L 19.50827,10.040705 17.875,27.947266 h -3.357422 v 1.951172 h -0.03711 C 14.481308,29.934171 14.5,29.964066 14.5,30 c 0,2.484 -2.016,4.5 -4.5,4.5 -1.425,0 -2.675,-0.68375 -3.5,-1.71875 v 9.720703 c 0,1.107 0.892,2 2,2 h 9.71875 c -1.035,-0.826 -1.720703,-2.076 -1.720703,-3.5 0,-2.467673 1.992013,-4.462405 4.451172,-4.490234 h 3.095703 v -3.664063 l 17.167053,-1.63327 3.266541,-1.315948 C 44.420106,27.464213 42.447267,25.501953 40,25.501953 c -1.553,0 -2.90975,0.802 -3.71875,2 H 35.5 v -10 c 0,-1.109 -0.892,-2 -2,-2 h -10 V 14.71875 c 1.197,-0.81 2,-2.16575 2,-3.71875 0,-2.484 -2.016,-4.5 -4.5,-4.5 z"
       style="fill:#4d4d4d" />
    <path
       style="fill:#1a1a1a"
       id="path16"
       d="m 14.480469,29.898438 h 6.46875 V 6.5019531 A 4.502,4.502 0 0 0 16.5,11 c 0,1.552 0.803,2.90975 2,3.71875 V 15.5 h -10 c -1.108,0 -2,0.892 -2,2 v 9.71875 C 7.325,26.18375 8.575,25.5 10,25.5 c 2.448066,0 4.423304,1.964035 4.480469,4.398438 z"
       inkscape:connector-curvature="0" />
    <path
       style="fill:#1a1a1a"
       id="path840"
       d="m 20.949219,29.898438 v 6.613281 c 0.01727,-1.96e-4 0.03152,-0.0098 0.04883,-0.0098 2.485,0 4.5,2.015 4.5,4.5 0,1.424 -0.681797,2.674 -1.716797,3.5 H 33.5 c 1.108,0 2,-0.893 2,-2 v -10 h 0.78125 c 0.81,1.196 2.16575,2 3.71875,2 2.484,0 4.5,-2.017 4.5,-4.5 0,-0.03675 -0.02061,-0.06698 -0.02148,-0.103515 z"
       inkscape:connector-curvature="0" />
  </g>
</svg>
