<?xml version="1.0" encoding="UTF-8" standalone="no"?>
<svg
   xmlns:dc="http://purl.org/dc/elements/1.1/"
   xmlns:cc="http://creativecommons.org/ns#"
   xmlns:rdf="http://www.w3.org/1999/02/22-rdf-syntax-ns#"
   xmlns:svg="http://www.w3.org/2000/svg"
   xmlns="http://www.w3.org/2000/svg"
   xmlns:sodipodi="http://sodipodi.sourceforge.net/DTD/sodipodi-0.dtd"
   xmlns:inkscape="http://www.inkscape.org/namespaces/inkscape"
   width="48"
   height="48"
   viewBox="0 0 12.7 12.7"
   version="1.1"
   id="svg4"
   sodipodi:docname="font-x-generic.svg"
   inkscape:version="0.92.3 (2405546, 2018-03-11)">
  <metadata
     id="metadata10">
    <rdf:RDF>
      <cc:Work
         rdf:about="">
        <dc:format>image/svg+xml</dc:format>
        <dc:type
           rdf:resource="http://purl.org/dc/dcmitype/StillImage" />
        <dc:title></dc:title>
      </cc:Work>
    </rdf:RDF>
  </metadata>
  <defs
     id="defs8" />
  <sodipodi:namedview
     pagecolor="#ffffff"
     bordercolor="#666666"
     borderopacity="1"
     objecttolerance="10"
     gridtolerance="10"
     guidetolerance="10"
     inkscape:pageopacity="0"
     inkscape:pageshadow="2"
     inkscape:window-width="1366"
     inkscape:window-height="715"
     id="namedview6"
     showgrid="false"
     showguides="true"
     inkscape:guide-bbox="true"
     inkscape:snap-global="true"
     inkscape:zoom="2.7447917"
     inkscape:cx="24"
     inkscape:cy="24"
     inkscape:window-x="0"
     inkscape:window-y="27"
     inkscape:window-maximized="1"
     inkscape:current-layer="svg4" />
  <path
     inkscape:connector-curvature="0"
     style="opacity:1;fill:#426e54;fill-opacity:1;fill-rule:nonzero;stroke:none;stroke-width:0.50711805;stroke-linecap:round;stroke-linejoin:bevel;stroke-miterlimit:4;stroke-dasharray:none;stroke-opacity:1"
     d="m 7.3492433,0.0566603 c -0.040983,0 -0.078161,0.0127642 -0.1049033,0.0330729 C 7.218411,0.1094229 7.202933,0.1367362 7.201965,0.1667311 7.3445127,0.2235372 7.4736634,0.30302596 7.5802366,0.40909358 7.76971,0.59766786 7.8931916,0.85276088 7.9104491,1.1392812 h 0.00672 v 0.068213 0.1441772 0.1369425 0.1927531 c 0,0.2812905 0.2266883,0.5079794 0.5079795,0.5079794 h 0.1183391 l -5.291e-4,0.00568 h 1.6924064 c 0.329951,0 0.613684,0.1491999 0.819072,0.3731038 V 1.141865 0.56463964 c 0,-0.14064565 -0.05654,-0.26789289 -0.148312,-0.35966798 C 10.814345,0.11319656 10.687101,0.0566603 10.546455,0.0566603 H 9.0462851 7.7864139 Z"
     id="path965" />
  <path
     style="opacity:1;fill:#333333;fill-opacity:1;fill-rule:nonzero;stroke:none;stroke-width:0.50711805;stroke-linecap:round;stroke-linejoin:bevel;stroke-miterlimit:4;stroke-dasharray:none;stroke-opacity:1"
     d="m 2.9460732,0.55206094 c -0.6285519,0 -1.134298,0.50626306 -1.134298,1.13481446 v 9.9012056 c 0,0.628551 0.5057461,1.134814 1.134298,1.134814 h 4.2855261 2.522327 c 0.6285527,0 1.1342987,-0.506263 1.1342987,-1.134814 V 3.6728008 h -0.01292 C 10.810197,3.1070068 10.337709,2.6687276 9.7539263,2.6687276 h -1.692403 v 0 l -0.11781,-0.00568 C 7.6627483,2.6495013 7.4357343,2.4363589 7.4357343,2.1550682 V 1.9623107 1.8253682 1.6811909 1.612978 h -0.0067 C 7.3941823,1.0346118 6.9321933,0.5804805 6.3510473,0.55464473 l -5.29e-4,-0.002585 h -0.02015 z"
     id="path833"
     inkscape:connector-curvature="0" />
  <path
     style="opacity:1;fill:#cccccc;fill-opacity:1;fill-rule:nonzero;stroke:none;stroke-width:0.50711805;stroke-linecap:round;stroke-linejoin:bevel;stroke-miterlimit:4;stroke-dasharray:none;stroke-opacity:1"
     d="m 6.4269983,1.0791605 c 0.263277,0.019482 0.470254,0.2359637 0.470255,0.504362 v 0.2563151 0.125057 0.092501 c 0,0.5757933 0.427721,1.0388807 0.982369,1.1136271 v 0 l 1.962134,0.026872 c 0.2812647,0.00385 0.5079787,0.2266886 0.5079797,0.5079793 V 5.7894678 11.68575 c 0,0.281291 -0.226688,0.50798 -0.5079797,0.50798 H 7.2315993 2.8582236 c -0.281291,0 -0.50798,-0.226689 -0.50798,-0.50798 V 1.5892069 c 0,-0.2812907 0.226689,-0.5079794 0.50798,-0.5079794 h 3.5692907 z"
     id="path901-5"
     inkscape:connector-curvature="0" />
  <path
     inkscape:connector-curvature="0"
     style="line-height:normal;text-indent:0;text-align:start;text-decoration:none;text-decoration-line:none;text-transform:none;fill:#426e54;fill-opacity:1;stroke-width:0.26458332;marker:none"
     d="m 6.2196758,6.4312899 a 0.27342556,0.27342556 0 0 0 -0.014399,4.607e-4 c -0.063338,0.00474 -0.1101937,0.037786 -0.1331718,0.1129257 -0.8099074,1.3533069 -1.6099604,2.712329 -2.426321,4.0617197 -0.1985618,0.28264 -0.3777381,0.65065 -0.7405395,0.74279 -0.1347549,-0.04676 -0.1381201,0.178841 -0.080533,0.207405 H 4.2967932 C 4.3239747,11.408015 4.2833057,11.320701 4.1100836,11.355484 3.7733116,11.408926 3.8088286,11.013396 3.9355212,10.81875 4.0889343,10.511233 4.269522,10.217763 4.4349127,9.9166957 h 1.6862348 c 0.054822,0.3704023 0.1415323,0.7376313 0.1687138,1.1112593 0.069562,0.305214 -0.27235,0.332986 -0.4863452,0.340127 -0.062884,-0.01336 -0.084118,0.224904 0.011248,0.188509 h 1.7627187 v -0.0108 c 0.028792,0.0028 0.056668,0.0072 0.086382,0.0072 0.1905,0 0.3905297,-0.05995 0.6010698,-0.179961 0.1402829,-0.08039 0.3033925,-0.203309 0.488594,-0.368471 0,0.235418 0.064878,0.395947 0.195258,0.480946 0.070024,0.04515 0.1675758,0.06748 0.2928861,0.06748 0.090067,0 0.177964,-0.01717 0.2631935,-0.05219 0.1352156,-0.05528 0.2705969,-0.163385 0.4058125,-0.323479 v -0.195249 a 0.86381282,0.86381282 0 0 1 -0.1579167,0.105277 0.3996574,0.3996574 0 0 1 -0.1804105,0.03779 c -0.1002028,0 -0.1629514,-0.03289 -0.1880602,-0.09808 C 9.3642505,10.957031 9.354595,10.844667 9.354595,10.68918 V 9.2238476 C 9.354595,8.8730244 9.306433,8.6151762 9.2115259,8.4500152 9.0459035,8.1643811 8.7205957,8.0217081 8.2347868,8.0217081 c -0.3906734,0 -0.7035288,0.1029414 -0.9389464,0.3081833 -0.1904993,0.1653913 -0.2856878,0.3407345 -0.2856878,0.525936 0,0.075325 0.027729,0.1503069 0.082778,0.225401 0.055284,0.070026 0.1349775,0.1052773 0.2402478,0.1052773 a 0.32709711,0.32709711 0 0 0 0.240698,-0.097629 c 0.064957,-0.065189 0.097629,-0.1406215 0.097629,-0.2258511 A 2.9113948,2.9113948 0 0 1 7.641365,8.7280543 1.7497392,1.7497392 0 0 1 7.6337042,8.5701384 c 0,-0.1101073 0.055458,-0.1977843 0.1655638,-0.262743 A 0.6710098,0.6710098 0 0 1 8.1672885,8.2021182 c 0.1501888,0 0.2756966,0.037381 0.3756693,0.1124756 0.1354458,0.10527 0.2029055,0.2756715 0.2029055,0.5110893 V 9.2841339 C 8.034559,9.5647002 7.5684781,9.7797751 7.3480333,9.9301938 7.1494712,10.066561 7.0128267,10.226222 6.9372721,10.40889 6.8299287,9.7848717 6.7294424,9.1599643 6.6227906,8.535946 L 6.2736652,6.4362507 a 0.27342556,0.27342556 0 0 0 -0.053986,-0.00494 z M 5.7454791,7.5555965 6.0824558,9.5482145 H 4.595528 C 4.9788309,8.8841153 5.362407,8.2199261 5.7454791,7.5555965 Z m 3.0003998,1.9089363 v 1.0892142 c 0,0.120013 -0.014809,0.21027 -0.044994,0.270392 -0.02995,0.05528 -0.1002165,0.107699 -0.2105538,0.157915 a 1.365976,1.365976 0 0 1 -0.2177529,0.09043 c -0.090067,0.02995 -0.1728022,0.04499 -0.2478961,0.04499 -0.1405139,0 -0.2580389,-0.05523 -0.3531737,-0.165564 -0.095365,-0.110107 -0.1430682,-0.255371 -0.1430682,-0.435505 0,-0.180364 0.062746,-0.340893 0.1880588,-0.480946 C 7.9067683,9.8198515 8.2499323,9.6299241 8.7458761,9.4645328 Z"
     id="path850" />
</svg>
