<?xml version="1.0" encoding="UTF-8" standalone="no"?><svg xmlns:dc="http://purl.org/dc/elements/1.1/" xmlns:cc="http://creativecommons.org/ns#" xmlns:rdf="http://www.w3.org/1999/02/22-rdf-syntax-ns#" xmlns="http://www.w3.org/2000/svg" width="48" height="48" viewBox="0 0 12.7 12.7"><metadata><rdf:RDF><cc:Work><dc:format>image/svg+xml</dc:format><dc:type rdf:resource="http://purl.org/dc/dcmitype/StillImage"/><dc:title/></cc:Work></rdf:RDF></metadata><path d="M7.35.06a.17.17 0 0 0-.1.03.1.1 0 0 0-.05.08 1.12 1.12 0 0 1 .71.97v.55c0 .27.23.5.52.5h1.81c.33 0 .6.15.81.38V.56a.5.5 0 0 0-.5-.5H7.79z" fill="#426e54"/><path d="M2.95.55c-.63 0-1.14.5-1.14 1.14v9.9c0 .63.5 1.13 1.14 1.13H9.75c.63 0 1.14-.5 1.14-1.13V3.67h-.01c-.07-.56-.54-1-1.13-1H7.94a.52.52 0 0 1-.5-.51V1.6h-.01A1.12 1.12 0 0 0 6.35.55h-.02z" fill="#333"/><path d="M6.43 1.08a.5.5 0 0 1 .47.5v.48c0 .57.42 1.04.98 1.11l1.96.03c.28 0 .51.22.51.5v7.99a.5.5 0 0 1-.5.5H2.85a.5.5 0 0 1-.51-.5V1.59c0-.28.23-.5.5-.5h3.58z" fill="#ccc"/><path style="line-height:normal;text-indent:0;text-align:start;text-decoration-line:none;text-transform:none;marker:none" d="M6.22 6.43a.27.27 0 0 0-.01 0c-.07 0-.11.04-.14.11-.8 1.36-1.6 2.72-2.42 4.07-.2.28-.38.65-.74.74-.14-.05-.14.18-.09.2H4.3c.02-.14-.02-.23-.19-.2-.34.06-.3-.34-.17-.53.15-.3.33-.6.5-.9h1.68c.06.37.14.73.17 1.1.07.31-.27.34-.49.35-.06-.02-.08.22.01.19h1.77v-.01h.08c.2 0 .4-.06.6-.18.15-.08.3-.2.5-.37 0 .24.06.4.19.49.07.04.17.06.3.06.08 0 .17-.01.25-.05.14-.05.28-.16.41-.32v-.2a.86.86 0 0 1-.16.1.4.4 0 0 1-.18.05c-.1 0-.16-.04-.19-.1a1.36 1.36 0 0 1-.03-.34V9.22c0-.35-.04-.6-.14-.77-.16-.29-.49-.43-.98-.43-.39 0-.7.1-.93.31-.2.17-.29.34-.29.53 0 .07.03.15.08.22.06.07.14.1.24.1a.33.33 0 0 0 .24-.1c.07-.06.1-.13.1-.22a2.91 2.91 0 0 1-.03-.13 1.75 1.75 0 0 1 0-.16c0-.11.05-.2.16-.26a.67.67 0 0 1 .37-.1.6.6 0 0 1 .37.1c.14.11.2.28.2.52v.45c-.7.28-1.17.5-1.4.65-.2.14-.33.3-.4.48l-.32-1.87-.35-2.1a.27.27 0 0 0-.05 0zm-.47 1.13l.33 1.99H4.6l1.15-2zm3 1.9v1.1c0 .11-.02.2-.05.26-.03.06-.1.11-.21.16a1.37 1.37 0 0 1-.22.1.8.8 0 0 1-.25.04.45.45 0 0 1-.35-.17.64.64 0 0 1-.14-.43.7.7 0 0 1 .19-.48c.19-.22.53-.41 1.03-.58z" fill="#426e54"/></svg>