<?xml version="1.0" encoding="UTF-8" standalone="no"?>
<svg
   xmlns:dc="http://purl.org/dc/elements/1.1/"
   xmlns:cc="http://creativecommons.org/ns#"
   xmlns:rdf="http://www.w3.org/1999/02/22-rdf-syntax-ns#"
   xmlns:svg="http://www.w3.org/2000/svg"
   xmlns="http://www.w3.org/2000/svg"
   xmlns:sodipodi="http://sodipodi.sourceforge.net/DTD/sodipodi-0.dtd"
   xmlns:inkscape="http://www.inkscape.org/namespaces/inkscape"
   width="48"
   height="48"
   viewBox="0 0 12.7 12.7"
   version="1.1"
   id="svg4"
   sodipodi:docname="vcalendar.svg"
   inkscape:version="0.92.3 (2405546, 2018-03-11)">
  <metadata
     id="metadata10">
    <rdf:RDF>
      <cc:Work
         rdf:about="">
        <dc:format>image/svg+xml</dc:format>
        <dc:type
           rdf:resource="http://purl.org/dc/dcmitype/StillImage" />
        <dc:title></dc:title>
      </cc:Work>
    </rdf:RDF>
  </metadata>
  <defs
     id="defs8" />
  <sodipodi:namedview
     pagecolor="#ffffff"
     bordercolor="#666666"
     borderopacity="1"
     objecttolerance="10"
     gridtolerance="10"
     guidetolerance="10"
     inkscape:pageopacity="0"
     inkscape:pageshadow="2"
     inkscape:window-width="1366"
     inkscape:window-height="715"
     id="namedview6"
     showgrid="false"
     showguides="true"
     inkscape:guide-bbox="true"
     inkscape:snap-global="true"
     inkscape:zoom="3.896453"
     inkscape:cx="-76.347676"
     inkscape:cy="24"
     inkscape:window-x="0"
     inkscape:window-y="27"
     inkscape:window-maximized="1"
     inkscape:current-layer="svg4" />
  <g
     id="g887">
    <path
       id="path965"
       d="m 7.4452731,0.01688326 c -0.040983,0 -0.078161,0.0127642 -0.1049033,0.0330729 -0.025929,0.0196897 -0.041407,0.047003 -0.042375,0.0769979 0.1425477,0.0568061 0.2716984,0.13629486 0.3782716,0.24236248 0.1894734,0.18857428 0.312955,0.44366748 0.3302125,0.73018816 h 0.00672 v 0.068213 0.1441772 0.1369425 0.1927531 c 0,0.2812905 0.2266883,0.5079794 0.5079795,0.5079794 h 0.1183391 l -5.291e-4,0.00568 h 1.6924026 c 0.329951,0 0.613684,0.1491999 0.819072,0.3731038 V 1.1020885 0.5248626 c 0,-0.14064565 -0.05654,-0.26789289 -0.148312,-0.35966798 -0.09178,-0.0917751 -0.219024,-0.14831136 -0.35967,-0.14831136 H 9.1423149 7.8824437 Z"
       style="opacity:1;fill:#16502d;fill-opacity:1;fill-rule:nonzero;stroke:none;stroke-width:0.50711805;stroke-linecap:round;stroke-linejoin:bevel;stroke-miterlimit:4;stroke-dasharray:none;stroke-opacity:1"
       inkscape:connector-curvature="0" />
    <path
       inkscape:connector-curvature="0"
       id="path833"
       d="m 2.9460732,0.60831414 c -0.6285519,0 -1.134298,0.50626306 -1.134298,1.13481456 v 9.9012043 c 0,0.628551 0.5057461,1.134814 1.134298,1.134814 h 4.2855261 2.522327 c 0.6285527,0 1.1342987,-0.506263 1.1342987,-1.134814 V 3.7290541 h -0.01292 C 10.810197,3.1632601 10.337709,2.7249809 9.7539263,2.7249809 h -1.692403 v 0 l -0.11781,-0.00568 C 7.6627483,2.7057546 7.4357343,2.4926122 7.4357343,2.2113215 V 2.018564 1.8816215 1.7374442 1.6692313 h -0.0067 C 7.3941823,1.0908651 6.9321933,0.6367337 6.3510473,0.61089793 l -5.29e-4,-0.002585 h -0.02015 z"
       style="opacity:1;fill:#333333;fill-opacity:1;fill-rule:nonzero;stroke:none;stroke-width:0.50711805;stroke-linecap:round;stroke-linejoin:bevel;stroke-miterlimit:4;stroke-dasharray:none;stroke-opacity:1" />
    <path
       inkscape:connector-curvature="0"
       id="path901-5"
       d="m 6.4269983,1.1354138 c 0.263277,0.019482 0.470254,0.2359637 0.470255,0.504362 v 0.2563151 0.125057 0.092501 c 0,0.5757933 0.427721,1.0388807 0.982369,1.1136271 v 0 l 1.962134,0.026872 c 0.2812647,0.00385 0.5079787,0.2266886 0.5079797,0.5079793 v 2.0835938 5.8962809 c 0,0.281291 -0.226688,0.50798 -0.5079797,0.50798 H 7.2315993 2.8582236 c -0.281291,0 -0.50798,-0.226689 -0.50798,-0.50798 V 1.6454602 c 0,-0.2812907 0.226689,-0.5079794 0.50798,-0.5079794 h 3.5692907 z"
       style="opacity:1;fill:#cccccc;fill-opacity:1;fill-rule:nonzero;stroke:none;stroke-width:0.50711805;stroke-linecap:round;stroke-linejoin:bevel;stroke-miterlimit:4;stroke-dasharray:none;stroke-opacity:1" />
    <path
       id="path879"
       transform="scale(0.26458333)"
       d="m 18.490234,17 a 0.61117212,0.61117212 0 0 0 -0.601562,0.619141 v 1.826171 H 14.833984 C 13.82889,19.445312 13,20.27225 13,21.277344 V 37.166016 C 13,38.17111 13.82889,39 14.833984,39 H 33.166016 C 34.17111,39 35,38.17111 35,37.166016 V 21.277344 C 35,20.27225 34.17111,19.445312 33.166016,19.445312 H 30.111328 V 17.619141 A 0.61117212,0.61117212 0 0 0 29.490234,17 0.61117212,0.61117212 0 0 0 28.888672,17.619141 v 1.826171 H 19.111328 V 17.619141 A 0.61117212,0.61117212 0 0 0 18.490234,17 Z m 0,3.683594 a 0.61117212,0.61117212 0 0 1 0.621094,0.617187 v 2.414063 a 0.611328,0.611328 0 1 1 -1.222656,0 v -2.414063 a 0.61117212,0.61117212 0 0 1 0.601562,-0.617187 z m 11,0 a 0.61117212,0.61117212 0 0 1 0.621094,0.617187 v 2.414063 a 0.611328,0.611328 0 0 1 -1.222656,0 v -2.414063 a 0.61117212,0.61117212 0 0 1 0.601562,-0.617187 z m -15.267578,6.09375 h 19.554688 v 10.388672 c 0,0.34913 -0.262186,0.611328 -0.611328,0.611328 H 14.833984 c -0.34913,0 -0.611328,-0.262195 -0.611328,-0.611328 z m 7.345703,1.716797 c -0.237407,0 -0.457675,0.02854 -0.662109,0.08789 -0.204434,0.05935 -0.387868,0.13302 -0.552734,0.21875 -0.164867,0.08573 -0.307078,0.176471 -0.425782,0.275391 -0.118703,0.09232 -0.208226,0.172335 -0.267578,0.238281 l 0.455078,0.652344 c 0.04616,-0.03957 0.111535,-0.09543 0.197266,-0.167969 0.08573,-0.07914 0.191108,-0.15085 0.316406,-0.216797 0.125299,-0.07254 0.26751,-0.136696 0.425782,-0.189453 0.158271,-0.05276 0.334145,-0.07813 0.52539,-0.07813 0.158272,0 0.304872,0.0222 0.44336,0.06836 0.145082,0.03957 0.271438,0.106894 0.376953,0.199219 0.105514,0.09232 0.188695,0.207216 0.248047,0.345703 0.06595,0.138488 0.09766,0.306067 0.09766,0.503907 0,0.18465 -0.03683,0.360524 -0.109375,0.52539 -0.06595,0.164867 -0.156687,0.326104 -0.275391,0.484375 -0.112109,0.151677 -0.244807,0.306572 -0.396484,0.464844 -0.145083,0.151677 -0.299978,0.306572 -0.464844,0.464844 -0.19784,0.197839 -0.399081,0.402252 -0.603516,0.613281 -0.204434,0.211029 -0.389821,0.434467 -0.554687,0.671875 -0.164866,0.237408 -0.298783,0.491338 -0.404297,0.761719 -0.09892,0.263786 -0.148438,0.551379 -0.148438,0.861328 v 0.109375 c 0,0.03957 0.0032,0.07762 0.0098,0.117187 h 4.154297 v -0.78125 h -3.15625 c 0,-0.112109 0.04318,-0.242854 0.128906,-0.394531 0.09232,-0.151677 0.204045,-0.309743 0.335938,-0.474609 0.131893,-0.164867 0.270933,-0.322933 0.416015,-0.47461 l 0.396485,-0.396484 c 0.197839,-0.19784 0.39591,-0.399081 0.59375,-0.603516 0.197839,-0.211029 0.374931,-0.421783 0.533203,-0.632812 0.158272,-0.217624 0.284628,-0.43472 0.376953,-0.652344 0.09892,-0.224218 0.148437,-0.455952 0.148437,-0.693359 0,-0.606708 -0.182215,-1.074564 -0.544921,-1.404297 -0.356112,-0.336327 -0.894464,-0.503906 -1.613282,-0.503906 z m 6.119141,0.158203 c -0.296759,0.342922 -0.624357,0.628562 -0.980469,0.859375 -0.356111,0.224218 -0.721761,0.409605 -1.097656,0.554687 l 0.287109,0.691406 c 0.138488,-0.04616 0.280699,-0.102022 0.425782,-0.167968 0.151677,-0.06595 0.293888,-0.13449 0.425781,-0.207032 0.138488,-0.07254 0.262891,-0.149379 0.375,-0.228515 0.118704,-0.07914 0.217739,-0.154021 0.296875,-0.226563 v 5.578125 h 0.919922 v -6.853515 z"
       style="color:#090d11;fill:#16502d;fill-opacity:1;stroke-width:0.99999994"
       inkscape:connector-curvature="0" />
  </g>
</svg>
