<?xml version="1.0" encoding="UTF-8" standalone="no"?><svg xmlns:dc="http://purl.org/dc/elements/1.1/" xmlns:cc="http://creativecommons.org/ns#" xmlns:rdf="http://www.w3.org/1999/02/22-rdf-syntax-ns#" xmlns="http://www.w3.org/2000/svg" width="48" height="48" viewBox="0 0 12.7 12.7"><metadata><rdf:RDF><cc:Work><dc:format>image/svg+xml</dc:format><dc:type rdf:resource="http://purl.org/dc/dcmitype/StillImage"/><dc:title/></cc:Work></rdf:RDF></metadata><path d="M7.45.02a.17.17 0 0 0-.11.03.1.1 0 0 0-.04.08 1.12 1.12 0 0 1 .7.97h.01v.55c0 .27.23.5.51.5H10.34c.32 0 .6.15.81.38V.52a.5.5 0 0 0-.5-.5H7.87z" fill="#666"/><path d="M2.95.6c-.63 0-1.14.51-1.14 1.14v9.9c0 .63.5 1.14 1.14 1.14H9.75c.63 0 1.14-.5 1.14-1.14V3.73h-.01c-.07-.57-.54-1-1.13-1H8.06l-.12-.01a.52.52 0 0 1-.5-.5v-.55h-.01A1.12 1.12 0 0 0 6.35.6h-.02z" fill="#333"/><path d="M6.43 1.14a.5.5 0 0 1 .47.5v.48c0 .57.42 1.03.98 1.1l1.96.03c.28 0 .51.23.51.51v7.99a.5.5 0 0 1-.5.5H2.85a.5.5 0 0 1-.51-.5V1.64c0-.29.23-.51.5-.51h3.58z" fill="#ccc"/><path style="line-height:normal;text-indent:0;text-align:start;text-decoration-line:none;text-transform:none;marker:none" d="M4.58 3.5a1.85 1.85 0 0 0-1.72 1.72v.25a1.85 1.85 0 0 0 1.72 1.72h.25a1.84 1.84 0 0 0 1.71-1.72v-.25A1.84 1.84 0 0 0 4.83 3.5h-.25zm0 .26v.72h-.6c.13-.38.35-.65.6-.72zm.25 0c.25.07.47.34.6.72h-.6v-.72zm.56.14a1.6 1.6 0 0 1 .66.58h-.37a1.95 1.95 0 0 0-.29-.58zm-1.38 0c-.11.16-.21.36-.29.58h-.36A1.6 1.6 0 0 1 4 3.9zm-.78.83h.43c-.03.16-.05.32-.06.5h-.5c.02-.18.06-.35.13-.5zm.68 0h.67v.5h-.73c0-.18.02-.35.06-.5zm.92 0h.67c.03.15.05.32.06.5h-.73v-.5zm.92 0h.43c.06.15.1.32.12.5h-.5a2.92 2.92 0 0 0-.05-.5zm-2.64.74h.49c0 .17.03.34.06.5h-.43a1.59 1.59 0 0 1-.12-.5zm.74 0h.73v.5h-.67a2.75 2.75 0 0 1-.06-.5zm.98 0h.73c0 .17-.03.34-.06.5h-.67v-.5zm.98 0h.49a1.58 1.58 0 0 1-.12.5h-.43c.03-.16.05-.33.06-.5zm-2.45.74h.36c.08.22.18.42.3.58a1.6 1.6 0 0 1-.66-.58zm.62 0h.6v.72c-.25-.07-.47-.34-.6-.72zm.85 0h.6c-.13.38-.35.65-.6.72V6.2zm.85 0h.37a1.6 1.6 0 0 1-.66.58c.12-.16.22-.36.3-.58zm-2.3 1.67c-.3 0-.53.01-.53.03v.39c0 .02.23.03.53.03h5.94c.3 0 .53-.01.53-.03V7.9c0-.02-.24-.03-.53-.03H3.38zm0 .98c-.3 0-.54.01-.54.03v.39c0 .01.24.03.53.03h5.95c.3 0 .53-.02.53-.03v-.39c0-.02-.24-.03-.53-.03H3.37zm0 .95c-.3 0-.53.01-.53.03v.39c0 .01.24.03.53.03h5.95c.3 0 .53-.02.53-.03v-.4s-.24-.02-.53-.02H3.38z" fill="#666"/></svg>