<?xml version="1.0" encoding="UTF-8" standalone="no"?>
<svg
   xmlns:dc="http://purl.org/dc/elements/1.1/"
   xmlns:cc="http://creativecommons.org/ns#"
   xmlns:rdf="http://www.w3.org/1999/02/22-rdf-syntax-ns#"
   xmlns:svg="http://www.w3.org/2000/svg"
   xmlns="http://www.w3.org/2000/svg"
   xmlns:sodipodi="http://sodipodi.sourceforge.net/DTD/sodipodi-0.dtd"
   xmlns:inkscape="http://www.inkscape.org/namespaces/inkscape"
   width="48"
   height="48"
   viewBox="0 0 12.7 12.7"
   version="1.1"
   id="svg4"
   sodipodi:docname="libreoffice-oasis-drawing-template.svg"
   inkscape:version="0.92.3 (2405546, 2018-03-11)">
  <metadata
     id="metadata10">
    <rdf:RDF>
      <cc:Work
         rdf:about="">
        <dc:format>image/svg+xml</dc:format>
        <dc:type
           rdf:resource="http://purl.org/dc/dcmitype/StillImage" />
        <dc:title></dc:title>
      </cc:Work>
    </rdf:RDF>
  </metadata>
  <defs
     id="defs8">
    <linearGradient
       id="linearGradient2444-734-39"
       x1="28.534"
       x2="16.886999"
       y1="24.24"
       y2="13.664"
       gradientTransform="matrix(0.27786541,0,0,0.26278946,-0.44492349,1.3921693)"
       gradientUnits="userSpaceOnUse">
      <stop
         id="stop3388"
         style="stop-color:#dbd2a2"
         offset="0" />
      <stop
         id="stop3390"
         style="stop-color:#fff;stop-opacity:0"
         offset="1" />
    </linearGradient>
  </defs>
  <sodipodi:namedview
     pagecolor="#ffffff"
     bordercolor="#666666"
     borderopacity="1"
     objecttolerance="10"
     gridtolerance="10"
     guidetolerance="10"
     inkscape:pageopacity="0"
     inkscape:pageshadow="2"
     inkscape:window-width="1366"
     inkscape:window-height="715"
     id="namedview6"
     showgrid="false"
     showguides="true"
     inkscape:guide-bbox="true"
     inkscape:snap-global="true"
     inkscape:zoom="10.979167"
     inkscape:cx="24"
     inkscape:cy="24"
     inkscape:window-x="0"
     inkscape:window-y="27"
     inkscape:window-maximized="1"
     inkscape:current-layer="svg4" />
  <path
     style="opacity:1;fill:#333333;fill-opacity:1;fill-rule:nonzero;stroke:none;stroke-width:0.50711805;stroke-linecap:round;stroke-linejoin:bevel;stroke-miterlimit:4;stroke-dasharray:none;stroke-opacity:1"
     d="m 2.9460732,0.60831414 c -0.6285519,0 -1.134298,0.50626306 -1.134298,1.13481456 v 9.9012043 c 0,0.628551 0.5057461,1.134814 1.134298,1.134814 h 4.2855261 2.522327 c 0.6285527,0 1.1342987,-0.506263 1.1342987,-1.134814 V 3.7290541 h -0.01292 C 10.810197,3.1632601 10.337709,2.7249809 9.7539263,2.7249809 h -1.692403 v 0 l -0.11781,-0.00568 C 7.6627483,2.7057546 7.4357343,2.4926122 7.4357343,2.2113215 V 2.018564 1.8816215 1.7374442 1.6692313 h -0.0067 C 7.3941823,1.0908651 6.9321933,0.6367337 6.3510473,0.61089793 l -5.29e-4,-0.002585 h -0.02015 z"
     id="path833"
     inkscape:connector-curvature="0" />
  <path
     style="opacity:1;fill:#cccccc;fill-opacity:1;fill-rule:nonzero;stroke:none;stroke-width:0.50711805;stroke-linecap:round;stroke-linejoin:bevel;stroke-miterlimit:4;stroke-dasharray:none;stroke-opacity:1"
     d="m 6.4269983,1.1354138 c 0.263277,0.019482 0.470254,0.2359637 0.470255,0.504362 v 0.2563151 0.125057 0.092501 c 0,0.5757933 0.427721,1.0388807 0.982369,1.1136271 v 0 l 1.962134,0.026872 c 0.2812647,0.00385 0.5079787,0.2266886 0.5079797,0.5079793 v 2.0835938 5.8962809 c 0,0.281291 -0.226688,0.50798 -0.5079797,0.50798 H 7.2315993 2.8582236 c -0.281291,0 -0.50798,-0.226689 -0.50798,-0.50798 V 1.6454602 c 0,-0.2812907 0.226689,-0.5079794 0.50798,-0.5079794 h 3.5692907 z"
     id="path901-5"
     inkscape:connector-curvature="0" />
  <g
     id="g837"
     style="fill:none;stroke:#666666">
    <path
       id="path2783"
       d="M 4.0991894,10.743095 C 5.2597048,11.48758 7.7935664,10.491566 5.6869805,7.8260634 3.5995503,5.1847545 7.7609433,3.4525009 8.9958596,6.5069568"
       style="fill:none;fill-rule:evenodd;stroke:#666666;stroke-width:0.26458332px"
       inkscape:connector-curvature="0" />
    <path
       id="path3571"
       d="M 3.820054,5.4257634 7.8231998,10.431945"
       style="fill:none;stroke:#666666;stroke-width:0.26458332px"
       inkscape:connector-curvature="0" />
  </g>
  <g
     id="g833"
     style="fill:#666666;stroke:#666666">
    <path
       id="path3573"
       d="M 4.1010415,5.4307905 C 4.1011399,5.576986 3.9826537,5.695559 3.8364582,5.695559 3.6902627,5.695559 3.571769,5.576994 3.5718748,5.4307905 3.5717764,5.284595 3.6902627,5.166022 3.8364582,5.166022 c 0.1461955,0 0.2646892,0.118565 0.2645833,0.2647685 z"
       style="fill:#666666;stroke:#666666;stroke-width:0.26458332"
       inkscape:connector-curvature="0" />
    <path
       id="path3575"
       d="m 8.0697914,10.457874 c 9.85e-5,0.146196 -0.1183878,0.264769 -0.2645833,0.264769 -0.1461955,0 -0.2646892,-0.118568 -0.2645833,-0.264769 -9.85e-5,-0.146196 0.1183878,-0.264769 0.2645833,-0.264769 0.1461955,0 0.2646892,0.118568 0.2645833,0.264769 z"
       style="fill:#666666;stroke:#666666;stroke-width:0.26458332"
       inkscape:connector-curvature="0" />
  </g>
  <g
     id="g829"
     style="fill:#666666">
    <path
       id="path965"
       d="m 7.4452731,0.01688326 c -0.040983,0 -0.078161,0.0127642 -0.1049033,0.0330729 -0.025929,0.0196897 -0.041407,0.047003 -0.042375,0.0769979 0.1425477,0.0568061 0.2716984,0.13629486 0.3782716,0.24236248 0.1894734,0.18857428 0.312955,0.44366748 0.3302125,0.73018816 h 0.00672 v 0.068213 0.1441772 0.1369425 0.1927531 c 0,0.2812905 0.2266883,0.5079794 0.5079795,0.5079794 h 0.1183391 l -5.291e-4,0.00568 h 1.6924026 c 0.329951,0 0.613684,0.1491999 0.819072,0.3731038 V 1.1020885 0.5248626 c 0,-0.14064565 -0.05654,-0.26789289 -0.148312,-0.35966798 -0.09178,-0.0917751 -0.219024,-0.14831136 -0.35967,-0.14831136 H 9.1423149 7.8824437 Z"
       style="opacity:1;fill:#666666;fill-opacity:1;fill-rule:nonzero;stroke:none;stroke-width:0.50711805;stroke-linecap:round;stroke-linejoin:bevel;stroke-miterlimit:4;stroke-dasharray:none;stroke-opacity:1"
       inkscape:connector-curvature="0" />
    <rect
       id="rect3565"
       x="3.4395831"
       y="10.325581"
       width="0.79374999"
       height="0.79374999"
       style="fill:#666666;stroke-width:0.26458332" />
    <rect
       id="rect3567"
       x="8.4666662"
       y="6.0922489"
       width="0.79374999"
       height="0.79374999"
       style="fill:#666666;stroke-width:0.26458332" />
    <rect
       id="rect3569"
       x="5.2916665"
       y="7.4151654"
       width="0.79374999"
       height="0.79374999"
       style="fill:#666666;stroke-width:0.26458332" />
  </g>
</svg>
