<?xml version="1.0" encoding="UTF-8" standalone="no"?><svg xmlns:dc="http://purl.org/dc/elements/1.1/" xmlns:cc="http://creativecommons.org/ns#" xmlns:rdf="http://www.w3.org/1999/02/22-rdf-syntax-ns#" xmlns="http://www.w3.org/2000/svg" width="48" height="48" viewBox="0 0 12.7 12.7"><metadata><rdf:RDF><cc:Work><dc:format>image/svg+xml</dc:format><dc:type rdf:resource="http://purl.org/dc/dcmitype/StillImage"/><dc:title/></cc:Work></rdf:RDF></metadata><path d="M7.35.06a.17.17 0 0 0-.1.03.1.1 0 0 0-.05.08 1.12 1.12 0 0 1 .71.97v.55c0 .27.23.5.52.5h1.81c.33 0 .6.15.81.38V.56a.5.5 0 0 0-.5-.5H7.79z" fill="#666"/><path d="M2.95.55c-.63 0-1.14.5-1.14 1.14v9.9c0 .63.5 1.13 1.14 1.13H9.75c.63 0 1.14-.5 1.14-1.13V3.67h-.01c-.07-.56-.54-1-1.13-1H7.94a.52.52 0 0 1-.5-.51V1.6h-.01A1.12 1.12 0 0 0 6.35.55h-.02z" fill="#333"/><path d="M6.43 1.08a.5.5 0 0 1 .47.5v.48c0 .57.42 1.04.98 1.11l1.96.03c.28 0 .51.22.51.5v7.99a.5.5 0 0 1-.5.5H2.85a.5.5 0 0 1-.51-.5V1.59c0-.28.23-.5.5-.5h3.58z" fill="#ccc"/><path style="line-height:normal;text-indent:0;text-align:start;text-decoration-line:none;text-transform:none;marker:none" d="M3.12 4.31a.06.06 0 0 0-.06.07v3.1c0 .03.03.06.06.06H7.1a.07.07 0 0 0 .06-.06v-3.1a.07.07 0 0 0-.06-.07H3.12zm.33.39h3.31v2.32l-.89-.92a.03.03 0 0 0-.04 0l-.61.54-.8-.97a.03.03 0 0 0-.04 0l-.93 1.25V4.7zm2.33.3a.32.32 0 0 0 0 .64.32.32 0 0 0 0-.64zM3.64 8.3c-.28 0-.5.02-.5.03v.36c0 .02.22.03.5.03h5.5c.28 0 .5-.01.5-.03v-.36c0-.01-.22-.03-.5-.03h-5.5zm0 .9c-.28 0-.5.02-.5.04v.36c0 .01.22.03.5.03h5.5c.27 0 .5-.02.5-.03v-.36c0-.02-.23-.03-.5-.03h-5.5zm0 .89c-.27 0-.49.01-.49.03v.36c0 .01.22.03.5.03h5.5c.27 0 .5-.02.5-.03v-.36c0-.02-.23-.03-.5-.03h-5.5z" fill="#666"/></svg>