<?xml version="1.0" encoding="UTF-8" standalone="no"?>
<svg
   xmlns:dc="http://purl.org/dc/elements/1.1/"
   xmlns:cc="http://creativecommons.org/ns#"
   xmlns:rdf="http://www.w3.org/1999/02/22-rdf-syntax-ns#"
   xmlns:svg="http://www.w3.org/2000/svg"
   xmlns="http://www.w3.org/2000/svg"
   xmlns:sodipodi="http://sodipodi.sourceforge.net/DTD/sodipodi-0.dtd"
   xmlns:inkscape="http://www.inkscape.org/namespaces/inkscape"
   width="48"
   height="48"
   viewBox="0 0 12.7 12.7"
   version="1.1"
   id="svg4"
   sodipodi:docname="libreoffice-oasis-text-template.svg"
   inkscape:version="0.92.3 (2405546, 2018-03-11)">
  <metadata
     id="metadata10">
    <rdf:RDF>
      <cc:Work
         rdf:about="">
        <dc:format>image/svg+xml</dc:format>
        <dc:type
           rdf:resource="http://purl.org/dc/dcmitype/StillImage" />
        <dc:title></dc:title>
      </cc:Work>
    </rdf:RDF>
  </metadata>
  <defs
     id="defs8" />
  <sodipodi:namedview
     pagecolor="#ffffff"
     bordercolor="#666666"
     borderopacity="1"
     objecttolerance="10"
     gridtolerance="10"
     guidetolerance="10"
     inkscape:pageopacity="0"
     inkscape:pageshadow="2"
     inkscape:window-width="1366"
     inkscape:window-height="715"
     id="namedview6"
     showgrid="false"
     showguides="true"
     inkscape:guide-bbox="true"
     inkscape:snap-global="true"
     inkscape:zoom="10.979167"
     inkscape:cx="24"
     inkscape:cy="24"
     inkscape:window-x="0"
     inkscape:window-y="27"
     inkscape:window-maximized="1"
     inkscape:current-layer="svg4" />
  <path
     inkscape:connector-curvature="0"
     style="opacity:1;fill:#666666;fill-opacity:1;fill-rule:nonzero;stroke:none;stroke-width:0.50711805;stroke-linecap:round;stroke-linejoin:bevel;stroke-miterlimit:4;stroke-dasharray:none;stroke-opacity:1"
     d="m 7.3492433,0.0566603 c -0.040983,0 -0.078161,0.0127642 -0.1049033,0.0330729 C 7.218411,0.1094229 7.202933,0.1367362 7.201965,0.1667311 7.3445127,0.2235372 7.4736634,0.30302596 7.5802366,0.40909358 7.76971,0.59766786 7.8931916,0.85276088 7.9104491,1.1392812 h 0.00672 v 0.068213 0.1441772 0.1369425 0.1927531 c 0,0.2812905 0.2266883,0.5079794 0.5079795,0.5079794 h 0.1183391 l -5.291e-4,0.00568 h 1.6924064 c 0.329951,0 0.613684,0.1491999 0.819072,0.3731038 V 1.141865 0.56463964 c 0,-0.14064565 -0.05654,-0.26789289 -0.148312,-0.35966798 C 10.814345,0.11319656 10.687101,0.0566603 10.546455,0.0566603 H 9.0462851 7.7864139 Z"
     id="path965" />
  <path
     style="opacity:1;fill:#333333;fill-opacity:1;fill-rule:nonzero;stroke:none;stroke-width:0.50711805;stroke-linecap:round;stroke-linejoin:bevel;stroke-miterlimit:4;stroke-dasharray:none;stroke-opacity:1"
     d="m 2.9460732,0.55206094 c -0.6285519,0 -1.134298,0.50626306 -1.134298,1.13481446 v 9.9012056 c 0,0.628551 0.5057461,1.134814 1.134298,1.134814 h 4.2855261 2.522327 c 0.6285527,0 1.1342987,-0.506263 1.1342987,-1.134814 V 3.6728008 h -0.01292 C 10.810197,3.1070068 10.337709,2.6687276 9.7539263,2.6687276 h -1.692403 v 0 l -0.11781,-0.00568 C 7.6627483,2.6495013 7.4357343,2.4363589 7.4357343,2.1550682 V 1.9623107 1.8253682 1.6811909 1.612978 h -0.0067 C 7.3941823,1.0346118 6.9321933,0.5804805 6.3510473,0.55464473 l -5.29e-4,-0.002585 h -0.02015 z"
     id="path833"
     inkscape:connector-curvature="0" />
  <path
     style="opacity:1;fill:#cccccc;fill-opacity:1;fill-rule:nonzero;stroke:none;stroke-width:0.50711805;stroke-linecap:round;stroke-linejoin:bevel;stroke-miterlimit:4;stroke-dasharray:none;stroke-opacity:1"
     d="m 6.4269983,1.0791605 c 0.263277,0.019482 0.470254,0.2359637 0.470255,0.504362 v 0.2563151 0.125057 0.092501 c 0,0.5757933 0.427721,1.0388807 0.982369,1.1136271 v 0 l 1.962134,0.026872 c 0.2812647,0.00385 0.5079787,0.2266886 0.5079797,0.5079793 V 5.7894678 11.68575 c 0,0.281291 -0.226688,0.50798 -0.5079797,0.50798 H 7.2315993 2.8582236 c -0.281291,0 -0.50798,-0.226689 -0.50798,-0.50798 V 1.5892069 c 0,-0.2812907 0.226689,-0.5079794 0.50798,-0.5079794 h 3.5692907 z"
     id="path901-5"
     inkscape:connector-curvature="0" />
  <path
     style="line-height:normal;text-indent:0;text-align:start;text-decoration:none;text-decoration-line:none;text-transform:none;stroke-width:0.99999994;marker:none;fill:#666666;fill-opacity:1"
     d="M 11.802734 16.292969 A 0.24467078 0.24467078 0 0 0 11.558594 16.541016 L 11.558594 28.253906 C 11.558594 28.389168 11.667473 28.498047 11.802734 28.498047 L 26.783203 28.498047 A 0.24639379 0.24639379 0 0 0 27.029297 28.253906 L 27.029297 16.541016 A 0.24639379 0.24639379 0 0 0 26.783203 16.294922 L 11.802734 16.294922 L 11.802734 16.292969 z M 13.029297 17.765625 L 25.558594 17.765625 L 25.558594 26.542969 L 22.1875 23.052734 A 0.099935962 0.099935962 0 0 0 22.048828 23.046875 L 19.710938 25.103516 L 16.722656 21.425781 A 0.099935962 0.099935962 0 0 0 16.564453 21.427734 L 13.029297 26.171875 L 13.029297 17.765625 z M 21.855469 18.898438 A 1.2039363 1.2039363 0 0 0 21.855469 21.306641 A 1.2039363 1.2039363 0 0 0 21.855469 18.898438 z M 13.748047 31.378906 C 12.717672 31.378906 11.888672 31.430158 11.888672 31.492188 L 11.888672 32.84375 C 11.888672 32.906645 12.717672 32.957031 13.748047 32.957031 L 34.560547 32.957031 C 35.59006 32.957031 36.419922 32.906638 36.419922 32.84375 L 36.419922 31.492188 C 36.419922 31.430158 35.59006 31.378906 34.560547 31.378906 L 13.748047 31.378906 z M 13.734375 34.802734 C 12.704862 34.802734 11.875 34.853986 11.875 34.916016 L 11.875 36.267578 C 11.875 36.330469 12.704862 36.380859 13.734375 36.380859 L 34.546875 36.380859 C 35.576388 36.380859 36.404297 36.329604 36.404297 36.267578 L 36.404297 34.916016 C 36.404297 34.853986 35.577249 34.804688 34.546875 34.804688 L 13.734375 34.804688 L 13.734375 34.802734 z M 13.769531 38.128906 C 12.740019 38.128906 11.912109 38.178212 11.912109 38.240234 L 11.912109 39.59375 C 11.912109 39.656604 12.739157 39.707031 13.769531 39.707031 L 34.583984 39.707031 C 35.613497 39.707031 36.441406 39.655772 36.441406 39.59375 L 36.441406 38.242188 C 36.441406 38.179296 35.613497 38.128906 34.583984 38.128906 L 13.769531 38.128906 z "
     transform="scale(0.26458333)"
     id="path856" />
</svg>
