<?xml version="1.0" encoding="UTF-8" standalone="no"?>
<svg
   xmlns:dc="http://purl.org/dc/elements/1.1/"
   xmlns:cc="http://creativecommons.org/ns#"
   xmlns:rdf="http://www.w3.org/1999/02/22-rdf-syntax-ns#"
   xmlns:svg="http://www.w3.org/2000/svg"
   xmlns="http://www.w3.org/2000/svg"
   xmlns:sodipodi="http://sodipodi.sourceforge.net/DTD/sodipodi-0.dtd"
   xmlns:inkscape="http://www.inkscape.org/namespaces/inkscape"
   width="48"
   height="48"
   viewBox="0 0 12.7 12.7"
   version="1.1"
   id="svg4"
   sodipodi:docname="libreoffice-oasis-web-template.svg"
   inkscape:version="0.92.3 (2405546, 2018-03-11)">
  <metadata
     id="metadata10">
    <rdf:RDF>
      <cc:Work
         rdf:about="">
        <dc:format>image/svg+xml</dc:format>
        <dc:type
           rdf:resource="http://purl.org/dc/dcmitype/StillImage" />
        <dc:title></dc:title>
      </cc:Work>
    </rdf:RDF>
  </metadata>
  <defs
     id="defs8" />
  <sodipodi:namedview
     pagecolor="#ffffff"
     bordercolor="#666666"
     borderopacity="1"
     objecttolerance="10"
     gridtolerance="10"
     guidetolerance="10"
     inkscape:pageopacity="0"
     inkscape:pageshadow="2"
     inkscape:window-width="1366"
     inkscape:window-height="715"
     id="namedview6"
     showgrid="false"
     showguides="true"
     inkscape:guide-bbox="true"
     inkscape:snap-global="true"
     inkscape:zoom="10.979167"
     inkscape:cx="23.999999"
     inkscape:cy="23.999999"
     inkscape:window-x="0"
     inkscape:window-y="27"
     inkscape:window-maximized="1"
     inkscape:current-layer="svg4" />
  <path
     inkscape:connector-curvature="0"
     style="opacity:1;fill:#666666;fill-opacity:1;fill-rule:nonzero;stroke:none;stroke-width:0.50711805;stroke-linecap:round;stroke-linejoin:bevel;stroke-miterlimit:4;stroke-dasharray:none;stroke-opacity:1"
     d="m 7.4452731,0.01688326 c -0.040983,0 -0.078161,0.0127642 -0.1049033,0.0330729 -0.025929,0.0196897 -0.041407,0.047003 -0.042375,0.0769979 0.1425477,0.0568061 0.2716984,0.13629486 0.3782716,0.24236248 0.1894734,0.18857428 0.312955,0.44366748 0.3302125,0.73018816 h 0.00672 v 0.068213 0.1441772 0.1369425 0.1927531 c 0,0.2812905 0.2266883,0.5079794 0.5079795,0.5079794 h 0.1183391 l -5.291e-4,0.00568 h 1.6924026 c 0.329951,0 0.613684,0.1491999 0.819072,0.3731038 V 1.1020885 0.5248626 c 0,-0.14064565 -0.05654,-0.26789289 -0.148312,-0.35966798 -0.09178,-0.0917751 -0.219024,-0.14831136 -0.35967,-0.14831136 H 9.1423149 7.8824437 Z"
     id="path965" />
  <path
     style="opacity:1;fill:#333333;fill-opacity:1;fill-rule:nonzero;stroke:none;stroke-width:0.50711805;stroke-linecap:round;stroke-linejoin:bevel;stroke-miterlimit:4;stroke-dasharray:none;stroke-opacity:1"
     d="m 2.9460732,0.60831414 c -0.6285519,0 -1.134298,0.50626306 -1.134298,1.13481456 v 9.9012043 c 0,0.628551 0.5057461,1.134814 1.134298,1.134814 h 4.2855261 2.522327 c 0.6285527,0 1.1342987,-0.506263 1.1342987,-1.134814 V 3.7290541 h -0.01292 C 10.810197,3.1632601 10.337709,2.7249809 9.7539263,2.7249809 h -1.692403 v 0 l -0.11781,-0.00568 C 7.6627483,2.7057546 7.4357343,2.4926122 7.4357343,2.2113215 V 2.018564 1.8816215 1.7374442 1.6692313 h -0.0067 C 7.3941823,1.0908651 6.9321933,0.6367337 6.3510473,0.61089793 l -5.29e-4,-0.002585 h -0.02015 z"
     id="path833"
     inkscape:connector-curvature="0" />
  <path
     style="opacity:1;fill:#cccccc;fill-opacity:1;fill-rule:nonzero;stroke:none;stroke-width:0.50711805;stroke-linecap:round;stroke-linejoin:bevel;stroke-miterlimit:4;stroke-dasharray:none;stroke-opacity:1"
     d="m 6.4269983,1.1354138 c 0.263277,0.019482 0.470254,0.2359637 0.470255,0.504362 v 0.2563151 0.125057 0.092501 c 0,0.5757933 0.427721,1.0388807 0.982369,1.1136271 v 0 l 1.962134,0.026872 c 0.2812647,0.00385 0.5079787,0.2266886 0.5079797,0.5079793 v 2.0835938 5.8962809 c 0,0.281291 -0.226688,0.50798 -0.5079797,0.50798 H 7.2315993 2.8582236 c -0.281291,0 -0.50798,-0.226689 -0.50798,-0.50798 V 1.6454602 c 0,-0.2812907 0.226689,-0.5079794 0.50798,-0.5079794 h 3.5692907 z"
     id="path901-5"
     inkscape:connector-curvature="0" />
  <path
     style="line-height:normal;text-indent:0;text-align:start;text-decoration:none;text-decoration-line:none;text-transform:none;stroke-width:0.99999994;marker:none;fill:#666666"
     d="M 17.314453 13.230469 L 17.314453 13.244141 A 6.9739979 6.9739979 0 0 0 10.820312 19.738281 L 10.804688 19.738281 L 10.804688 20.669922 L 10.820312 20.669922 A 6.9739979 6.9739979 0 0 0 17.314453 27.160156 L 17.314453 27.177734 L 18.244141 27.177734 L 18.244141 27.160156 A 6.9702784 6.9702784 0 0 0 24.734375 20.669922 L 24.751953 20.669922 L 24.751953 19.738281 L 24.734375 19.738281 A 6.9702784 6.9702784 0 0 0 18.244141 13.244141 L 18.244141 13.230469 L 17.314453 13.230469 z M 17.314453 14.21875 L 17.314453 16.949219 L 15.035156 16.949219 C 15.534495 15.501417 16.358551 14.473533 17.314453 14.21875 z M 18.244141 14.21875 C 19.199113 14.473536 20.021216 15.501417 20.521484 16.949219 L 18.244141 16.949219 L 18.244141 14.220703 L 18.244141 14.21875 z M 20.386719 14.748047 A 6.0813264 6.0813264 0 0 1 22.873047 16.949219 L 21.482422 16.949219 C 21.209971 16.095601 20.837704 15.346974 20.386719 14.75 L 20.386719 14.748047 z M 15.169922 14.751953 C 14.722767 15.349349 14.347218 16.097095 14.076172 16.949219 L 12.683594 16.949219 A 6.0813264 6.0813264 0 0 1 15.169922 14.751953 z M 12.197266 17.878906 L 13.832031 17.878906 C 13.707429 18.466582 13.628622 19.090164 13.603516 19.738281 L 11.751953 19.738281 C 11.801238 19.083655 11.9555 18.458213 12.197266 17.878906 z M 14.773438 17.878906 L 17.314453 17.878906 L 17.314453 19.738281 L 14.533203 19.738281 C 14.560151 19.083655 14.642326 18.458213 14.773438 17.878906 z M 18.244141 17.878906 L 20.78125 17.878906 C 20.913292 18.458213 20.994615 19.083655 21.023438 19.738281 L 18.244141 19.738281 L 18.244141 17.878906 z M 21.724609 17.878906 L 23.359375 17.878906 C 23.60114 18.458213 23.755405 19.083655 23.804688 19.738281 L 21.955078 19.738281 A 11.043094 11.043094 0 0 0 21.724609 17.878906 z M 11.751953 20.669922 L 13.603516 20.669922 C 13.628612 21.318039 13.707432 21.941621 13.832031 22.529297 L 12.197266 22.529297 A 5.992989 5.992989 0 0 1 11.751953 20.669922 z M 14.533203 20.669922 L 17.314453 20.669922 L 17.314453 22.529297 L 14.773438 22.529297 A 10.394047 10.394047 0 0 1 14.533203 20.669922 z M 18.244141 20.669922 L 21.023438 20.669922 C 20.996489 21.324548 20.912358 21.94999 20.78125 22.529297 L 18.244141 22.529297 L 18.244141 20.669922 z M 21.955078 20.669922 L 23.802734 20.669922 A 5.9632331 5.9632331 0 0 1 23.359375 22.529297 L 21.724609 22.529297 C 21.849212 21.941621 21.930902 21.318039 21.955078 20.669922 z M 12.683594 23.458984 L 14.076172 23.458984 C 14.347693 24.312602 14.72182 25.059276 15.171875 25.65625 A 6.0748169 6.0748169 0 0 1 12.683594 23.458984 z M 15.035156 23.458984 L 17.314453 23.458984 L 17.314453 26.185547 C 16.35855 25.929833 15.534495 24.906786 15.035156 23.458984 z M 18.244141 23.458984 L 20.521484 23.458984 C 20.021216 24.906786 19.199113 25.929833 18.244141 26.185547 L 18.244141 23.458984 z M 21.482422 23.458984 L 22.873047 23.458984 A 6.075747 6.075747 0 0 1 20.386719 25.65625 C 20.835844 25.058346 21.209971 24.312602 21.482422 23.458984 z M 12.765625 29.78125 C 11.653505 29.78125 10.757812 29.836327 10.757812 29.902344 L 10.757812 31.363281 C 10.757812 31.431162 11.653505 31.484375 12.765625 31.484375 L 35.228516 31.484375 C 36.339706 31.484375 37.234375 31.431165 37.234375 31.363281 L 37.234375 29.902344 C 37.234375 29.835393 36.339706 29.78125 35.228516 29.78125 L 12.765625 29.78125 z M 12.748047 33.476562 C 11.636856 33.476562 10.742187 33.532659 10.742188 33.599609 L 10.742188 35.056641 C 10.742188 35.124521 11.636856 35.179687 12.748047 35.179688 L 35.212891 35.179688 C 36.324081 35.179688 37.21875 35.125544 37.21875 35.058594 L 37.21875 33.599609 C 37.21875 33.532659 36.325011 33.478516 35.212891 33.478516 L 12.748047 33.478516 L 12.748047 33.476562 z M 12.787109 37.066406 C 11.675919 37.066406 10.78125 37.120549 10.78125 37.1875 L 10.78125 38.646484 C 10.78125 38.714402 11.674989 38.769531 12.787109 38.769531 L 35.251953 38.769531 C 36.363143 38.769531 37.257812 38.715373 37.257812 38.648438 L 37.257812 37.1875 C 37.257812 37.119635 36.363143 37.066406 35.251953 37.066406 L 12.787109 37.066406 z "
     transform="scale(0.26458333)"
     id="path884" />
</svg>
