<?xml version="1.0" encoding="UTF-8" standalone="no"?><svg xmlns:dc="http://purl.org/dc/elements/1.1/" xmlns:cc="http://creativecommons.org/ns#" xmlns:rdf="http://www.w3.org/1999/02/22-rdf-syntax-ns#" xmlns="http://www.w3.org/2000/svg" width="48" height="48" viewBox="0 0 12.7 12.7"><metadata><rdf:RDF><cc:Work><dc:format>image/svg+xml</dc:format><dc:type rdf:resource="http://purl.org/dc/dcmitype/StillImage"/><dc:title/></cc:Work></rdf:RDF></metadata><path d="M7.45.02a.17.17 0 0 0-.11.03.1.1 0 0 0-.04.08 1.12 1.12 0 0 1 .7.97h.01v.55c0 .27.23.5.51.5H10.34c.32 0 .6.15.81.38V.52a.5.5 0 0 0-.5-.5H7.87z" fill="#784421"/><path d="M2.95.6c-.63 0-1.14.51-1.14 1.14v9.9c0 .63.5 1.14 1.14 1.14H9.75c.63 0 1.14-.5 1.14-1.14V3.73h-.01c-.07-.57-.54-1-1.13-1H8.06l-.12-.01a.52.52 0 0 1-.5-.5v-.55h-.01A1.12 1.12 0 0 0 6.35.6h-.02z" fill="#333"/><path d="M6.43 1.14a.5.5 0 0 1 .47.5v.48c0 .57.42 1.03.98 1.1l1.96.03c.28 0 .51.23.51.51v7.99a.5.5 0 0 1-.5.5H2.85a.5.5 0 0 1-.51-.5V1.64c0-.29.23-.51.5-.51h3.58z" fill="#ccc"/><path style="line-height:normal;text-indent:0;text-align:start;text-decoration-line:none;text-transform:none;marker:none" d="M3.28 4.72a.15.15 0 0 0-.15.14v3.96a.59.59 0 0 0 .58.58h1.7l-.52 1.57a.15.15 0 0 0 .14.19c.06 0 .12-.04.14-.1l.55-1.66h.48v1.61a.15.15 0 0 0 .3 0v-1.6h.48l.55 1.65a.15.15 0 0 0 .28-.1L7.29 9.4h1.7a.59.59 0 0 0 .58-.58V4.86a.15.15 0 0 0-.15-.14zm.43.58H9v3.52H3.7zm3.66.3a.15.15 0 0 0-.14.14v2.64c0 .08.06.14.14.14h.88a.15.15 0 0 0 .15-.14V5.74a.15.15 0 0 0-.15-.15zm-1.46.58a.15.15 0 0 0-.15.15v2.05a.15.15 0 0 0 .15.14h.88a.15.15 0 0 0 .15-.14V6.33a.15.15 0 0 0-.15-.15zm-1.46.88a.15.15 0 0 0-.15.15v1.17a.15.15 0 0 0 .15.14h.88a.15.15 0 0 0 .14-.14V7.2a.15.15 0 0 0-.14-.15z" font-weight="400" overflow="visible" color="#000" font-family="Andale Mono" fill="#784421"/></svg>