<?xml version="1.0" encoding="UTF-8" standalone="no"?><svg xmlns:dc="http://purl.org/dc/elements/1.1/" xmlns:cc="http://creativecommons.org/ns#" xmlns:rdf="http://www.w3.org/1999/02/22-rdf-syntax-ns#" xmlns="http://www.w3.org/2000/svg" width="48" height="48" viewBox="0 0 12.7 12.7"><metadata><rdf:RDF><cc:Work><dc:format>image/svg+xml</dc:format><dc:type rdf:resource="http://purl.org/dc/dcmitype/StillImage"/><dc:title/></cc:Work></rdf:RDF></metadata><path d="M7.45.02a.17.17 0 0 0-.11.03.1.1 0 0 0-.04.08 1.12 1.12 0 0 1 .7.97h.01v.55c0 .27.23.5.51.5H10.34c.32 0 .6.15.81.38V.52a.5.5 0 0 0-.5-.5H7.87z" fill="#a00"/><path d="M2.95.6c-.63 0-1.14.51-1.14 1.14v9.9c0 .63.5 1.14 1.14 1.14H9.75c.63 0 1.14-.5 1.14-1.14V3.73h-.01c-.07-.57-.54-1-1.13-1H8.06l-.12-.01a.52.52 0 0 1-.5-.5v-.55h-.01A1.12 1.12 0 0 0 6.35.6h-.02z" fill="#333"/><path d="M6.43 1.14a.5.5 0 0 1 .47.5v.48c0 .57.42 1.03.98 1.1l1.96.03c.28 0 .51.23.51.51v7.99a.5.5 0 0 1-.5.5H2.85a.5.5 0 0 1-.51-.5V1.64c0-.29.23-.51.5-.51h3.58z" fill="#ccc"/><path style="line-height:normal;text-indent:0;text-align:start;text-decoration-line:none;text-transform:none;marker:none" d="M4.21 2.5a.14.14 0 0 0-.03 0c-.21 0-.32.32-.51.38-.08.31.2.15.34 0v.91c-.04.17.17.07.27.1V2.75c-.02-.09.04-.25-.05-.26a.14.14 0 0 0-.02 0zm.02 2.4a.15.15 0 0 0-.05.01c-.21 0-.32.33-.51.38-.08.31.2.15.34.01v.9c-.04.17.17.08.27.1V5.16c-.02-.08.04-.25-.05-.26zm.89.01c-.37-.01-.46.41-.45.7-.02.3.08.72.45.71.37.02.46-.41.45-.7.02-.3-.08-.72-.45-.7zm0 .22c.14 0 .16.18.17.28.02.2.05.87-.29.62-.05-.28-.16-.74.12-.9zm-.9 2.19a.14.14 0 0 0-.04 0c-.21 0-.32.33-.51.38-.08.32.2.16.34.01v.9c-.04.17.17.08.27.1V7.57c-.02-.08.04-.25-.05-.25a.14.14 0 0 0-.02 0zm2.14 0a.14.14 0 0 0-.04 0c-.2 0-.3.33-.5.38-.08.32.2.16.34.01v.9c-.04.17.17.08.26.1V7.57c-.01-.08.05-.25-.04-.25a.14.14 0 0 0-.02 0zm-1.24 0c-.37-.01-.46.42-.45.7-.02.3.08.73.45.71.37.02.46-.4.45-.7.02-.3-.08-.72-.45-.7zm0 .22c.14 0 .16.18.17.29.02.2.05.86-.29.61-.05-.27-.16-.74.12-.9zm-.9 2.19a.15.15 0 0 0-.04 0c-.21 0-.32.33-.51.39-.08.31.2.15.34 0v.9c-.04.17.17.08.27.1V10c-.02-.09.04-.25-.05-.26zm2.16 0a.15.15 0 0 0-.06 0c-.2 0-.3.33-.5.39-.08.31.2.15.34 0v.9c-.04.17.17.08.26.1V10c-.01-.09.05-.25-.04-.26zm-1.26 0c-.37 0-.46.42-.45.71-.02.3.08.72.45.7.37.02.46-.4.45-.7.02-.29-.08-.72-.45-.7zm2.15 0c-.37 0-.46.42-.45.71-.02.3.08.72.45.7.36.02.46-.4.45-.7.01-.29-.09-.72-.45-.7zm-2.15.23c.14 0 .16.17.17.28.02.2.05.86-.29.61-.05-.27-.16-.74.12-.9zm2.15 0c.14 0 .15.17.16.28.03.2.05.86-.28.61-.05-.27-.16-.74.12-.9z" fill="#a00"/></svg>