<?xml version="1.0" encoding="UTF-8" standalone="no"?>
<svg
   xmlns:dc="http://purl.org/dc/elements/1.1/"
   xmlns:cc="http://creativecommons.org/ns#"
   xmlns:rdf="http://www.w3.org/1999/02/22-rdf-syntax-ns#"
   xmlns:svg="http://www.w3.org/2000/svg"
   xmlns="http://www.w3.org/2000/svg"
   xmlns:sodipodi="http://sodipodi.sourceforge.net/DTD/sodipodi-0.dtd"
   xmlns:inkscape="http://www.inkscape.org/namespaces/inkscape"
   width="48"
   height="48"
   viewBox="0 0 12.7 12.7"
   version="1.1"
   id="svg4"
   sodipodi:docname="viewdvi.svg"
   inkscape:version="0.92.3 (2405546, 2018-03-11)">
  <metadata
     id="metadata10">
    <rdf:RDF>
      <cc:Work
         rdf:about="">
        <dc:format>image/svg+xml</dc:format>
        <dc:type
           rdf:resource="http://purl.org/dc/dcmitype/StillImage" />
        <dc:title></dc:title>
      </cc:Work>
    </rdf:RDF>
  </metadata>
  <defs
     id="defs8" />
  <sodipodi:namedview
     pagecolor="#ffffff"
     bordercolor="#666666"
     borderopacity="1"
     objecttolerance="10"
     gridtolerance="10"
     guidetolerance="10"
     inkscape:pageopacity="0"
     inkscape:pageshadow="2"
     inkscape:window-width="1366"
     inkscape:window-height="715"
     id="namedview6"
     showgrid="false"
     showguides="true"
     inkscape:guide-bbox="true"
     inkscape:snap-global="true"
     inkscape:zoom="3.896453"
     inkscape:cx="-26.173838"
     inkscape:cy="24"
     inkscape:window-x="0"
     inkscape:window-y="27"
     inkscape:window-maximized="1"
     inkscape:current-layer="svg4" />
  <path
     style="opacity:1;fill:#892ca0;fill-opacity:1;fill-rule:nonzero;stroke:none;stroke-width:0.50711799;stroke-linecap:round;stroke-linejoin:bevel;stroke-miterlimit:4;stroke-dasharray:none;stroke-opacity:1"
     d="m 7.3427797,0.50332846 c -0.049987,0 -0.095505,0.0111265 -0.1281231,0.0294556 -0.030738,0.0172693 -0.048532,0.0415092 -0.050642,0.0676961 h -0.00101 V 1.5880167 c 0.1738671,0.051264 0.3313553,0.1228715 0.4613439,0.2185914 0.2311034,0.1701772 0.3815506,0.4003066 0.4026002,0.6588745 h 0.00811 v 0.061495 0.1302247 0.1235067 0.1741495 c 0,0.2538482 0.2767574,0.45837 0.619852,0.45837 h 0.1443282 l -5.186e-4,0.00517 h 2.0641477 c 0.402446,0 0.748641,0.1348703 0.999156,0.3369302 V 2.607076 2.4680664 2.2840983 1.0676351 0.96169839 c 0,-0.12692449 -0.06935,-0.2417064 -0.181296,-0.32452799 C 11.568784,0.5543488 11.413725,0.50332846 11.242176,0.50332846 H 9.4124981 7.8755282 Z"
     id="path830"
     inkscape:connector-curvature="0" />
  <path
     style="opacity:1;fill:#333333;fill-opacity:1;fill-rule:nonzero;stroke:none;stroke-width:0.50711799;stroke-linecap:round;stroke-linejoin:bevel;stroke-miterlimit:4;stroke-dasharray:none;stroke-opacity:1"
     d="m 2.0098987,1.9912065 c -0.7823206,0 -1.4117922,0.4429314 -1.4117922,0.9928533 V 11.64666 c 0,0.549921 0.6294716,0.992854 1.4117922,0.992854 h 5.3339356 3.1393877 c 0.782323,0 1.411795,-0.442933 1.411795,-0.992854 V 4.7215532 h -0.01608 C 11.797901,4.2265379 11.209824,3.843086 10.483224,3.843086 H 8.3767919 v 0 L 8.2301609,3.838116 C 7.8804595,3.8262648 7.5979089,3.6397857 7.5979089,3.3936834 V 3.2250392 3.1052277 2.9790864 2.9194067 h -0.00833 C 7.5461916,2.413392 6.9711816,2.0160708 6.2478645,1.993467 L 6.247203,1.991207 h -0.02508 z"
     id="path833"
     inkscape:connector-curvature="0" />
  <path
     style="opacity:1;fill:#cccccc;fill-opacity:1;fill-rule:nonzero;stroke:none;stroke-width:0.50711799;stroke-linecap:round;stroke-linejoin:bevel;stroke-miterlimit:4;stroke-dasharray:none;stroke-opacity:1"
     d="m 6.3423961,2.5881751 c 0.3276849,0.016569 0.5852967,0.2006791 0.5852981,0.4289428 v 0.2179872 0.1063568 0.078669 c 0,0.4896925 0.5323583,0.8835327 1.2226954,0.9471021 v 0 l 2.4421494,0.022855 c 0.350073,0.00327 0.632251,0.192791 0.632251,0.4320193 v 1.7720255 5.0145862 c 0,0.239228 -0.282145,0.432019 -0.632251,0.432019 H 7.3438343 1.9005576 c -0.3501059,0 -0.632252,-0.192791 -0.632252,-0.432019 V 3.0219522 c 0,-0.2392282 0.2821461,-0.4320192 0.632252,-0.4320192 h 4.4424807 z"
     id="path901-5"
     inkscape:connector-curvature="0" />
  <path
     style="opacity:1;fill:#892ca0;fill-opacity:1;stroke-width:0.26458335"
     d="M 2.6425999,2.5845502 V 8.287939 c 0,0.1614413 0.069204,0.3053109 0.1781391,0.4086026 C 2.641717,8.821309 2.5238406,9.0285247 2.5238406,9.2621186 v 1.3780794 c 0,0.378992 0.308324,0.689034 0.6890393,0.689034 0.3807157,0 0.6890396,-0.310042 0.6890396,-0.689034 V 9.2621186 c 0,-0.2328282 -0.1165179,-0.4395031 -0.2945468,-0.5644009 C 3.7153099,8.5937749 3.78316,8.4488331 3.78316,8.287939 V 2.5845502 H 3.4980201 V 2.8696903 H 3.2128799 V 3.1548301 H 3.4980201 V 3.4399703 H 3.2128799 V 3.7251104 H 3.4980201 V 4.0102503 H 3.2128799 V 4.2953905 H 3.4980201 V 4.5805303 H 3.2128799 V 4.8656705 H 3.4980201 V 5.1508106 H 3.2128799 v 0.28514 H 3.4980201 V 5.7210907 H 3.2128799 V 6.0062306 H 3.4980201 V 6.2913708 H 3.2128799 c 0,0 0.011662,0.180927 0,0.2857279 H 3.4980201 V 6.8622386 H 3.2128799 V 7.1473787 H 3.4980201 V 7.4325189 H 3.2128799 V 7.7176588 H 3.4980201 V 8.0027989 H 3.2128799 V 8.287939 h 0.2851402 v 0.28514 H 3.2128799 V 8.287939 H 2.9277401 V 8.0027989 H 3.2128799 V 7.7176588 H 2.9277401 V 7.4325189 H 3.2128799 V 7.1473787 H 2.9277401 V 6.8622386 H 3.2128799 V 6.5770987 H 2.9277401 V 6.2913708 H 3.2128799 V 6.0062306 H 2.9277401 V 5.7210907 H 3.2128799 V 5.4359506 H 2.9277401 v -0.28514 H 3.2128799 V 4.8656705 H 2.9277401 V 4.5805303 H 3.2128799 V 4.2953905 H 2.9277401 V 4.0102503 H 3.2128799 V 3.7251104 H 2.9277401 V 3.4399703 H 3.2128799 V 3.1548301 H 2.9277401 V 2.8696903 H 3.2128799 V 2.5845502 Z m 0.57028,6.3330487 c 0.1901833,0 0.3445198,0.1377966 0.3445198,0.3445197 0,0.172269 -0.1543365,0.3445196 -0.3445198,0.3445196 -0.1901859,0 -0.3445196,-0.1722506 -0.3445196,-0.3445196 0,-0.2067231 0.1543337,-0.34452 0.3445196,-0.3445197 z m 0,1.0335589 c 0.1902823,0 0.3445198,0.1542372 0.3445198,0.3445192 v 0.344521 c 0,0.190282 -0.1542375,0.34452 -0.3445198,0.34452 -0.1902849,0 -0.3445196,-0.154238 -0.3445196,-0.34452 v -0.344521 c 0,-0.190282 0.1542347,-0.3445192 0.3445196,-0.3445192 z"
     id="path6"
     inkscape:connector-curvature="0" />
</svg>
