<?xml version="1.0" encoding="UTF-8" standalone="no"?>
<svg
   xmlns:dc="http://purl.org/dc/elements/1.1/"
   xmlns:cc="http://creativecommons.org/ns#"
   xmlns:rdf="http://www.w3.org/1999/02/22-rdf-syntax-ns#"
   xmlns:svg="http://www.w3.org/2000/svg"
   xmlns="http://www.w3.org/2000/svg"
   xmlns:xlink="http://www.w3.org/1999/xlink"
   xmlns:sodipodi="http://sodipodi.sourceforge.net/DTD/sodipodi-0.dtd"
   xmlns:inkscape="http://www.inkscape.org/namespaces/inkscape"
   width="48"
   height="48"
   viewBox="0 0 12.7 12.7"
   version="1.1"
   id="svg4"
   sodipodi:docname="text-x-perl.svg"
   inkscape:version="0.92.3 (2405546, 2018-03-11)">
  <metadata
     id="metadata10">
    <rdf:RDF>
      <cc:Work
         rdf:about="">
        <dc:format>image/svg+xml</dc:format>
        <dc:type
           rdf:resource="http://purl.org/dc/dcmitype/StillImage" />
        <dc:title></dc:title>
      </cc:Work>
    </rdf:RDF>
  </metadata>
  <defs
     id="defs8">
    <linearGradient
       x1="31.447433"
       y1="30.420521"
       x2="31.447433"
       y2="90.420517"
       id="linearGradient3068-7-8-8-4"
       xlink:href="#linearGradient3051-8-3-2-9"
       gradientUnits="userSpaceOnUse"
       gradientTransform="matrix(0.09947609,0,0,0.09947609,1.0491102,-2.3689649)" />
    <linearGradient
       id="linearGradient3051-8-3-2-9">
      <stop
         id="stop3053-9-5-2-4"
         style="stop-color:#d5d5d5;stop-opacity:1"
         offset="0" />
      <stop
         id="stop3059-4-7-4-0"
         style="stop-color:#dbdbdb;stop-opacity:1"
         offset="0.47965544" />
      <stop
         id="stop3061-7-0-9-0"
         style="stop-color:#f1f1f1;stop-opacity:1"
         offset="0.50227195" />
      <stop
         id="stop3055-4-2-5-1"
         style="stop-color:#ededed;stop-opacity:1"
         offset="1" />
    </linearGradient>
  </defs>
  <sodipodi:namedview
     pagecolor="#ffffff"
     bordercolor="#666666"
     borderopacity="1"
     objecttolerance="10"
     gridtolerance="10"
     guidetolerance="10"
     inkscape:pageopacity="0"
     inkscape:pageshadow="2"
     inkscape:window-width="1366"
     inkscape:window-height="715"
     id="namedview6"
     showgrid="false"
     showguides="true"
     inkscape:guide-bbox="true"
     inkscape:snap-global="true"
     inkscape:zoom="2.7447918"
     inkscape:cx="6.1935489"
     inkscape:cy="24"
     inkscape:window-x="0"
     inkscape:window-y="27"
     inkscape:window-maximized="1"
     inkscape:current-layer="svg4" />
  <path
     inkscape:connector-curvature="0"
     style="opacity:1;fill:#008000;fill-opacity:1;fill-rule:nonzero;stroke:none;stroke-width:0.50711805;stroke-linecap:round;stroke-linejoin:bevel;stroke-miterlimit:4;stroke-dasharray:none;stroke-opacity:1"
     d="m 7.3492433,0.0566603 c -0.040983,0 -0.078161,0.0127642 -0.1049033,0.0330729 C 7.218411,0.1094229 7.202933,0.1367362 7.201965,0.1667311 7.3445127,0.2235372 7.4736634,0.30302596 7.5802366,0.40909358 7.76971,0.59766786 7.8931916,0.85276088 7.9104491,1.1392812 h 0.00672 v 0.068213 0.1441772 0.1369425 0.1927531 c 0,0.2812905 0.2266883,0.5079794 0.5079795,0.5079794 h 0.1183391 l -5.291e-4,0.00568 h 1.6924064 c 0.329951,0 0.613684,0.1491999 0.819072,0.3731038 V 1.141865 0.56463964 c 0,-0.14064565 -0.05654,-0.26789289 -0.148312,-0.35966798 C 10.814345,0.11319656 10.687101,0.0566603 10.546455,0.0566603 H 9.0462851 7.7864139 Z"
     id="path965" />
  <path
     style="opacity:1;fill:#333333;fill-opacity:1;fill-rule:nonzero;stroke:none;stroke-width:0.50711805;stroke-linecap:round;stroke-linejoin:bevel;stroke-miterlimit:4;stroke-dasharray:none;stroke-opacity:1"
     d="m 2.9460732,0.55206094 c -0.6285519,0 -1.134298,0.50626306 -1.134298,1.13481446 v 9.9012056 c 0,0.628551 0.5057461,1.134814 1.134298,1.134814 h 4.2855261 2.522327 c 0.6285527,0 1.1342987,-0.506263 1.1342987,-1.134814 V 3.6728008 h -0.01292 C 10.810197,3.1070068 10.337709,2.6687276 9.7539263,2.6687276 h -1.692403 v 0 l -0.11781,-0.00568 C 7.6627483,2.6495013 7.4357343,2.4363589 7.4357343,2.1550682 V 1.9623107 1.8253682 1.6811909 1.612978 h -0.0067 C 7.3941823,1.0346118 6.9321933,0.5804805 6.3510473,0.55464473 l -5.29e-4,-0.002585 h -0.02015 z"
     id="path833"
     inkscape:connector-curvature="0" />
  <path
     style="opacity:1;fill:#cccccc;fill-opacity:1;fill-rule:nonzero;stroke:none;stroke-width:0.50711805;stroke-linecap:round;stroke-linejoin:bevel;stroke-miterlimit:4;stroke-dasharray:none;stroke-opacity:1"
     d="m 6.4269983,1.0791605 c 0.263277,0.019482 0.470254,0.2359637 0.470255,0.504362 v 0.2563151 0.125057 0.092501 c 0,0.5757933 0.427721,1.0388807 0.982369,1.1136271 v 0 l 1.962134,0.026872 c 0.2812647,0.00385 0.5079787,0.2266886 0.5079797,0.5079793 V 5.7894678 11.68575 c 0,0.281291 -0.226688,0.50798 -0.5079797,0.50798 H 7.2315993 2.8582236 c -0.281291,0 -0.50798,-0.226689 -0.50798,-0.50798 V 1.5892069 c 0,-0.2812907 0.226689,-0.5079794 0.50798,-0.5079794 h 3.5692907 z"
     id="path901-5"
     inkscape:connector-curvature="0" />
  <path
     style="line-height:normal;text-indent:0;text-align:start;text-decoration:none;text-decoration-line:none;text-transform:none;stroke-width:0.99999994;marker:none;fill:#008000;fill-opacity:1"
     d="M 11.984375 19.117188 L 11.984375 21 L 17.722656 21 L 17.722656 19.117188 L 11.984375 19.117188 z M 19.380859 19.117188 L 19.380859 21 L 25.119141 21 L 25.119141 19.117188 L 19.380859 19.117188 z M 13.833984 22.814453 L 13.833984 24.697266 L 28.716797 24.697266 L 28.716797 22.814453 L 13.833984 22.814453 z M 11.984375 26.513672 L 11.984375 28.396484 L 24.806641 28.396484 L 24.806641 26.513672 L 11.984375 26.513672 z M 26.777344 26.513672 L 26.777344 28.396484 L 36.28125 28.396484 L 36.28125 26.513672 L 26.777344 26.513672 z M 11.984375 30.210938 L 11.984375 32.09375 L 17.902344 32.09375 L 17.902344 30.210938 L 11.984375 30.210938 z M 19.380859 30.210938 L 19.380859 32.09375 L 30.318359 32.09375 L 30.318359 30.210938 L 19.380859 30.210938 z M 32.324219 30.210938 L 32.324219 32.09375 L 36.179688 32.09375 L 36.179688 30.210938 L 32.324219 30.210938 z M 13.833984 33.910156 L 13.833984 35.792969 L 33.914062 35.792969 L 33.914062 33.910156 L 13.833984 33.910156 z M 13.833984 37.607422 L 13.833984 39.400391 L 29.880859 39.400391 L 29.880859 37.607422 L 13.833984 37.607422 z M 32.324219 37.607422 L 32.324219 39.400391 L 36.001953 39.400391 L 36.001953 37.607422 L 32.324219 37.607422 z M 11.783203 41.304688 L 11.783203 43.099609 L 26.757812 43.099609 L 26.757812 41.304688 L 11.783203 41.304688 z M 29.904297 41.304688 L 29.904297 43.099609 L 36.001953 43.099609 L 36.001953 41.304688 L 29.904297 41.304688 z "
     transform="scale(0.26458333)"
     id="path876" />
  <path
     style="color:#000000;display:inline;overflow:visible;visibility:visible;fill:#008000;fill-opacity:1;fill-rule:nonzero;stroke:none;stroke-width:0.28222224;marker:none;enable-background:accumulate"
     d="m 5.1317267,1.4149117 c -0.02107,7.13e-4 -0.041407,0.00496 -0.06528,0.00621 -0.070707,0.014746 -0.1373579,0.047592 -0.2051692,0.0715 -0.1048909,0.041143 -0.2054028,0.1107072 -0.2486904,0.2176039 -0.010852,0.023693 -0.059301,0.09882 -0.083933,0.1336716 C 4.4825427,1.8977261 4.425829,1.942005 4.3670055,1.9806785 4.293976,2.0241231 4.2335441,2.0837443 4.1618361,2.1796306 4.0893732,2.2792582 4.0829674,2.365418 4.046817,2.4780591 3.9910853,2.5369972 3.9455975,2.454054 3.9597753,2.3972335 3.9938837,2.2597421 4.0553669,2.1359 4.046817,1.9900032 4.0257039,1.7978901 3.9483514,1.5418165 3.7204101,1.5268231 c -0.05094,1.594e-4 -0.06716,0.00725 -0.1243452,0.059064 -0.038292,0.034691 -0.061697,0.049199 -0.124345,0.065282 -0.074812,0.018384 -0.156754,0.00463 -0.2269298,0.037303 -0.033564,0.019674 -0.071907,0.078247 -0.080824,0.1212359 -0.00744,0.035868 0.00796,0.070872 0.04352,0.09015 0.071707,0.033709 0.1959037,0.00882 0.2113867,0.1088018 -0.024376,0.1058966 -0.090888,0.1802788 -0.087042,0.2859939 -0.00472,0.1156397 0.01078,0.2101228 0.018652,0.3232973 0.010408,0.1387108 0.1108258,0.2135861 0.1803004,0.3295144 0.1045953,0.1334779 0.2878185,0.2721122 0.4662942,0.217604 0.061955,-0.020027 0.08882,-0.01443 0.111911,0.018652 0.015747,0.022578 0.01833,0.043403 0.00933,0.093259 -0.010973,0.060831 -0.010877,0.1744092 0,0.2393644 0.00804,0.048121 0.012448,0.1207553 0.012432,0.1616488 -8.1e-6,0.03344 0.00687,0.077341 0.015543,0.1119098 0.00567,0.02254 0.00705,0.044782 0.00933,0.1212373 0.00155,0.051619 0.00409,0.1015868 0.00622,0.1119099 0.00723,0.035 0.00653,0.065172 -0.00933,0.1740833 -0.0067,0.046092 -0.030639,0.1290649 -0.046628,0.164757 -0.00863,0.019264 -0.030766,0.06598 -0.049736,0.1025833 -0.00214,0.00409 -0.00421,0.00555 -0.00622,0.00933 -0.089325,0.04332 0.1295273,0.047795 0.1523227,-0.01554 0.0093,-0.045795 0.019839,-0.093257 0.021761,-0.1274537 0.00184,-0.032152 0.00717,-0.070923 0.012432,-0.096369 0.00475,-0.023027 0.00736,-0.059872 0.00933,-0.083934 0.00457,-0.056538 0.010528,-0.073248 0.037304,-0.1305619 0.012178,-0.026069 0.026411,-0.061578 0.031086,-0.077716 0.00819,-0.028217 0.00695,-0.032497 0.00621,-0.1150191 -6.415e-4,-0.075044 0.00268,-0.090749 0.00933,-0.1305619 0.013154,-0.079066 0.018045,-0.103516 0.04352,-0.155432 0.034625,-0.070569 0.037098,-0.078762 0.040415,-0.1429961 0.00385,-0.074907 0.017516,-0.1162388 0.043523,-0.1429962 0.01464,-0.015057 0.025941,-0.022315 0.049736,-0.024871 0.00792,-8.654e-4 0.017282,2.69e-5 0.027979,0 0.045068,-1.21e-4 0.066899,0.00663 0.080826,0.024871 0.013078,0.017121 0.013754,0.03785 0.0031,0.083934 -0.00478,0.02065 -0.01042,0.058993 -0.012432,0.083934 -0.00439,0.054654 -0.012944,0.084198 -0.037303,0.1274537 -0.031075,0.055136 -0.034192,0.060334 -0.034192,0.1523227 0,0.073875 0.00226,0.080581 0.00933,0.1025856 0.00421,0.013138 0.012118,0.031581 0.018652,0.040413 0.014476,0.019584 0.056801,0.057344 0.1025832,0.09015 0.044343,0.031775 0.09394,0.080558 0.1243456,0.1212359 0.032287,0.042802 0.081246,0.084515 0.087042,0.139888 0,0.040463 -0.025075,0.090754 -0.059064,0.1243455 -0.017427,0.017225 -0.027692,0.026686 -0.062172,0.043523 -0.047448,0.023168 -0.067907,0.036715 -0.071498,0.055955 -0.00142,0.0078 0.00337,0.015315 0.00621,0.021764 0.00888,0.045966 0.1927633,0.078175 0.2300382,0.00621 0.018737,-0.011741 0.032449,-0.026542 0.043523,-0.049738 0.012944,-0.027111 0.02445,-0.038401 0.037303,-0.037303 0.012854,0.00111 0.026928,0.016728 0.046628,0.046629 0.017141,0.026021 0.033554,0.042212 0.049738,0.052846 0.022851,0.019232 0.043403,0.031272 0.062172,0.00621 0.021921,-0.012192 0.036733,-0.040601 0.043523,-0.087042 0.00331,-0.022632 0.00445,-0.033206 0,-0.059067 -0.01024,-0.059328 -0.0263,-0.083026 -0.068392,-0.1181308 -0.014204,-0.011849 -0.029417,-0.026994 -0.034195,-0.034192 -0.012674,-0.019129 -0.014476,-0.0439 -0.00933,-0.06839 0.00627,-0.029841 0.034859,-0.082494 0.06839,-0.1274538 0.030042,-0.040275 0.043978,-0.064953 0.06839,-0.1119111 0.00916,-0.017597 0.022839,-0.034623 0.04352,-0.055955 0.01655,-0.017087 0.03425,-0.041493 0.040415,-0.052846 L 5.3244611,3.730831 V 3.6158141 c -4.171e-4,-0.082844 0.00457,-0.1635539 0.015545,-0.2455815 0.00906,-0.098378 0.042149,-0.1766108 0.09015,-0.2611246 0.02744,-0.05669 0.041769,-0.071498 0.065282,-0.071498 0.031545,0 0.049774,0.03518 0.059067,0.1088018 0.010636,0.072265 0.046489,0.133101 0.068387,0.202061 0.013364,0.049116 0.022093,0.072063 0.052846,0.1336715 0.029176,0.058456 0.054624,0.1218425 0.062175,0.1616485 0.004,0.021069 0.00307,0.05108 0.0031,0.1119111 0,0.089609 0.00445,0.1251579 0.01554,0.1709745 0.0084,0.03482 0.012884,0.1349194 0.00933,0.2020608 -0.00208,0.039263 -0.00343,0.042796 -0.024869,0.1056937 -0.031394,0.092254 -0.037407,0.1210511 -0.043523,0.1678661 -0.00591,0.045098 -0.0103,0.0546 -0.031084,0.099477 -0.00531,0.011477 -0.01006,0.024575 -0.012432,0.034194 0.040209,0.04494 0.1046012,0.058468 0.2113866,0.037299 0.00322,-0.00519 0.00457,-0.00972 0.00621,-0.01554 0.00801,-0.035727 -0.00208,-0.072725 0,-0.1088017 0.00503,-0.00815 -0.00801,-0.065825 -0.027979,-0.1274537 -0.031745,-0.098011 -0.034946,-0.1138799 -0.018652,-0.1803004 0.00283,-0.011537 0.00761,-0.048269 0.00933,-0.083934 0.00325,-0.068504 0.00699,-0.086038 0.024869,-0.1305619 0.016043,-0.039924 0.019551,-0.058666 0.021761,-0.099478 0.00258,-0.047433 -0.00122,-0.074082 -0.018653,-0.1150191 -0.017231,-0.04049 -0.020424,-0.059397 -0.012432,-0.1025832 0.00864,-0.046759 0.00861,-0.1577044 0,-0.1927349 -0.00855,-0.034832 -0.01389,-0.1613708 -0.012418,-0.3232954 L 5.8560747,2.897733 c 0.027542,-0.1071019 0.043197,-0.1461029 0.065282,-0.1461029 0.020234,0 0.039754,0.03312 0.052846,0.093259 0.00801,0.055765 0.00546,0.112312 0.01554,0.1678659 0.013064,0.076701 -0.0072,0.1545123 -0.046628,0.2207128 -0.02338,0.041018 -0.033898,0.068731 -0.027979,0.09015 0.00469,0.017085 0.023692,0.036994 0.037303,0.040413 0.00591,0.00146 0.013348,-0.00202 0.021762,-0.00621 0.01042,-0.00525 0.019498,-0.01699 0.055954,-0.071498 0.024718,-0.036949 0.048752,-0.076194 0.052847,-0.087042 0.034009,-0.149127 0.037443,-0.2603119 0.018652,-0.4072304 0,-0.095427 -0.014836,-0.1301685 -0.080826,-0.2020605 C 5.8973532,2.4362234 5.8274689,2.3018175 5.7565609,2.1205701 5.7321158,2.079952 5.6962981,2.0294672 5.6695196,1.9993343 5.6278144,1.9523977 5.6021605,1.9077299 5.5793686,1.8376855 5.5464999,1.754275 5.5193941,1.6549774 5.470567,1.582778 5.4246048,1.5312948 5.3790091,1.4751672 5.3120272,1.4491065 5.2483724,1.4192769 5.1949536,1.4127827 5.1317267,1.4149117 Z m -0.06839,1.771918 c 0.00503,3.264e-4 0.00999,0.00495 0.01554,0.00933 0.015692,0.012342 0.019306,0.024306 0.027976,0.1181272 0.00451,0.048972 0.0088,0.1105016 0.012432,0.1367797 0.016135,0.1159795 0.020177,0.1534676 0.01554,0.1927347 -0.00238,0.020219 -0.00466,0.060105 -0.00621,0.09015 -0.00439,0.084647 -0.015983,0.1224401 -0.062172,0.2020605 -0.0141,0.024302 -0.033473,0.056917 -0.040415,0.071498 -0.0138,0.029015 -0.028719,0.048301 -0.04352,0.055955 -0.01452,0.0075 -0.030907,0.00687 -0.049738,-0.0031 -0.025941,-0.013754 -0.073674,-0.050836 -0.096367,-0.074611 -0.024287,-0.025447 -0.03419,-0.039938 -0.062172,-0.09015 -0.031795,-0.057079 -0.037284,-0.067821 -0.037303,-0.093259 0,-0.033281 0.01407,-0.058708 0.046628,-0.09015 0.014204,-0.013724 0.04258,-0.044926 0.06528,-0.06839 0.046993,-0.048572 0.050391,-0.049101 0.062175,-0.1181296 0.010672,-0.062558 0.00882,-0.063357 0.052846,-0.1274537 0.015764,-0.022961 0.02462,-0.043894 0.043523,-0.1150191 0.017456,-0.065741 0.026165,-0.082779 0.040413,-0.09015 0.00683,-0.00352 0.010516,-0.00657 0.015542,-0.00621 z"
     id="path3304"
     inkscape:connector-curvature="0" />
</svg>
