<?xml version="1.0" encoding="UTF-8" standalone="no"?>
<svg
   xmlns:dc="http://purl.org/dc/elements/1.1/"
   xmlns:cc="http://creativecommons.org/ns#"
   xmlns:rdf="http://www.w3.org/1999/02/22-rdf-syntax-ns#"
   xmlns:svg="http://www.w3.org/2000/svg"
   xmlns="http://www.w3.org/2000/svg"
   xmlns:sodipodi="http://sodipodi.sourceforge.net/DTD/sodipodi-0.dtd"
   xmlns:inkscape="http://www.inkscape.org/namespaces/inkscape"
   width="48"
   height="48"
   viewBox="0 0 12.7 12.7"
   version="1.1"
   id="svg4"
   sodipodi:docname="text-html.svg"
   inkscape:version="0.92.3 (2405546, 2018-03-11)">
  <metadata
     id="metadata10">
    <rdf:RDF>
      <cc:Work
         rdf:about="">
        <dc:format>image/svg+xml</dc:format>
        <dc:type
           rdf:resource="http://purl.org/dc/dcmitype/StillImage" />
        <dc:title></dc:title>
      </cc:Work>
    </rdf:RDF>
  </metadata>
  <defs
     id="defs8" />
  <sodipodi:namedview
     pagecolor="#ffffff"
     bordercolor="#666666"
     borderopacity="1"
     objecttolerance="10"
     gridtolerance="10"
     guidetolerance="10"
     inkscape:pageopacity="0"
     inkscape:pageshadow="2"
     inkscape:window-width="1366"
     inkscape:window-height="715"
     id="namedview6"
     showgrid="false"
     showguides="true"
     inkscape:guide-bbox="true"
     inkscape:snap-global="true"
     inkscape:zoom="3.8817216"
     inkscape:cx="24"
     inkscape:cy="24"
     inkscape:window-x="0"
     inkscape:window-y="27"
     inkscape:window-maximized="1"
     inkscape:current-layer="svg4" />
  <path
     inkscape:connector-curvature="0"
     style="opacity:1;fill:#008080;fill-opacity:1;fill-rule:nonzero;stroke:none;stroke-width:0.50711805;stroke-linecap:round;stroke-linejoin:bevel;stroke-miterlimit:4;stroke-dasharray:none;stroke-opacity:1"
     d="m 7.3492433,0.0566603 c -0.040983,0 -0.078161,0.0127642 -0.1049033,0.0330729 C 7.218411,0.1094229 7.202933,0.1367362 7.201965,0.1667311 7.3445127,0.2235372 7.4736634,0.30302596 7.5802366,0.40909358 7.76971,0.59766786 7.8931916,0.85276088 7.9104491,1.1392812 h 0.00672 v 0.068213 0.1441772 0.1369425 0.1927531 c 0,0.2812905 0.2266883,0.5079794 0.5079795,0.5079794 h 0.1183391 l -5.291e-4,0.00568 h 1.6924064 c 0.329951,0 0.613684,0.1491999 0.819072,0.3731038 V 1.141865 0.56463964 c 0,-0.14064565 -0.05654,-0.26789289 -0.148312,-0.35966798 C 10.814345,0.11319656 10.687101,0.0566603 10.546455,0.0566603 H 9.0462851 7.7864139 Z"
     id="path965" />
  <path
     style="opacity:1;fill:#333333;fill-opacity:1;fill-rule:nonzero;stroke:none;stroke-width:0.50711805;stroke-linecap:round;stroke-linejoin:bevel;stroke-miterlimit:4;stroke-dasharray:none;stroke-opacity:1"
     d="m 2.9460732,0.55206094 c -0.6285519,0 -1.134298,0.50626306 -1.134298,1.13481446 v 9.9012056 c 0,0.628551 0.5057461,1.134814 1.134298,1.134814 h 4.2855261 2.522327 c 0.6285527,0 1.1342987,-0.506263 1.1342987,-1.134814 V 3.6728008 h -0.01292 C 10.810197,3.1070068 10.337709,2.6687276 9.7539263,2.6687276 h -1.692403 v 0 l -0.11781,-0.00568 C 7.6627483,2.6495013 7.4357343,2.4363589 7.4357343,2.1550682 V 1.9623107 1.8253682 1.6811909 1.612978 h -0.0067 C 7.3941823,1.0346118 6.9321933,0.5804805 6.3510473,0.55464473 l -5.29e-4,-0.002585 h -0.02015 z"
     id="path833"
     inkscape:connector-curvature="0" />
  <path
     style="opacity:1;fill:#cccccc;fill-opacity:1;fill-rule:nonzero;stroke:none;stroke-width:0.50711805;stroke-linecap:round;stroke-linejoin:bevel;stroke-miterlimit:4;stroke-dasharray:none;stroke-opacity:1"
     d="m 6.4269983,1.0791605 c 0.263277,0.019482 0.470254,0.2359637 0.470255,0.504362 v 0.2563151 0.125057 0.092501 c 0,0.5757933 0.427721,1.0388807 0.982369,1.1136271 v 0 l 1.962134,0.026872 c 0.2812647,0.00385 0.5079787,0.2266886 0.5079797,0.5079793 V 5.7894678 11.68575 c 0,0.281291 -0.226688,0.50798 -0.5079797,0.50798 H 7.2315993 2.8582236 c -0.281291,0 -0.50798,-0.226689 -0.50798,-0.50798 V 1.5892069 c 0,-0.2812907 0.226689,-0.5079794 0.50798,-0.5079794 h 3.5692907 z"
     id="path901-5"
     inkscape:connector-curvature="0" />
  <g
     id="g894"
     transform="translate(0,0.12049335)">
    <path
       id="path827-3"
       d="m 6.3499979,4.7344517 c -1.4714868,0 -2.6738955,1.2020147 -2.6738955,2.6738969 0,1.471926 1.2024087,2.6747724 2.6738955,2.6747724 1.4715334,0 2.6738984,-1.2028464 2.6738984,-2.6747724 0,-1.4718822 -1.202365,-2.6738969 -2.6738984,-2.6738969 z"
       style="color:#090d11;fill:#008080;fill-opacity:0.50710898;stroke-width:0.26458332"
       inkscape:connector-curvature="0" />
    <path
       inkscape:connector-curvature="0"
       id="path825"
       d="m 6.3500046,4.7335914 c 0.3039244,0 0.5903965,0.061736 0.8619078,0.153825 0.1071932,0.1376058 0.3079496,0.4691612 0.3508679,0.4907122 0.1845936,0.092297 0.3156826,0.2901927 0.4474874,0.422063 0.04165,0.041659 0.1225836,0.069067 0.1589033,0.1055142 0.029931,0.029289 0.2880047,0.053385 0.3152786,0.026698 0.012574,-0.012167 0.03195,-0.040893 0.049574,-0.066105 0.3068154,0.4353932 0.4894357,0.9650742 0.4894357,1.5420229 0,0.722423 -0.284763,1.3725316 -0.744944,1.8522369 C 8.2432907,9.1774607 8.1836957,9.0721596 8.169191,9.0431754 8.1158218,8.9375358 7.9566766,8.8842674 7.9060375,8.8842674 c -0.013073,0 -0.1589033,0.027346 -0.1589033,0.026698 0,-0.019524 0.039752,-0.015638 0.052126,-0.026698 0.048819,-0.048169 0.1589034,-0.2535802 0.1589034,-0.3419713 0,-0.054674 0.052071,-0.1856077 -0.02669,-0.1856077 -0.07147,0 -0.1450866,0.065226 -0.1843316,0.1055153 -0.12101,0.1212606 -0.5141771,0.2710561 -0.7386293,0.1589082 -0.021485,-0.011718 -0.031296,-0.041704 -0.052126,-0.052124 -0.063124,-0.032549 -0.08492,-0.088651 -0.052126,-0.1843318 0.041006,-0.1244495 0.082534,-0.1504857 0.1843316,-0.1843323 0.051416,-0.016925 0.1313686,-0.052622 0.1589033,-0.08009 0.04165,-0.041652 0.2470961,0.2017756 0.3165471,0.1843318 C 7.6746319,8.2765816 7.8395579,8.1930561 7.9060147,8.0935342 7.9255357,8.0642452 7.9340477,8.0130122 7.9581407,7.98802 8.0225747,7.922865 8.2615258,8.026407 8.3268095,7.961322 8.4981245,7.7899427 7.9481294,7.629563 8.2479935,7.3295034 c 0.031884,-0.032544 -0.00843,-0.1530902 0.02669,-0.1843322 0.069849,-0.068995 0.2658169,-0.00917 0.341972,-0.08009 0.035147,-0.035798 0.2110306,0.1530769 0.2110306,-0.2110314 0,-0.048818 -0.02669,-0.085574 -0.02669,-0.1309396 0,-0.1028419 -0.216231,-0.7067363 -0.2898469,-0.6330948 -0.1326427,0.1327172 0.3370956,0.6330948 -0.2631558,0.6330948 -0.049463,0 -0.068362,-0.014332 -0.1055175,-0.026698 C 8.0115861,6.6541004 7.895832,6.4281569 7.7992404,6.3798609 7.7868331,6.3714045 7.5968005,6.3440107 7.5882086,6.3277392 7.5797743,6.3160233 7.4789956,6.1992863 7.4305627,6.2476477 7.3219933,6.3561517 7.6429617,6.7617595 7.5627759,6.8019193 7.4815403,6.8422752 7.3170592,6.6617824 7.2729267,6.6175871 7.2462366,6.5909014 7.0268716,6.3880574 6.9563797,6.458679 6.9446383,6.4703972 6.9121551,6.5016496 6.8762871,6.4853769 6.8470001,6.471063 6.7284039,6.3708778 6.6919555,6.3798616 6.5543655,6.4143579 6.5009908,6.5020332 6.3499835,6.5641931 6.2440775,6.4806181 6.1415498,6.3816836 6.0334365,6.3010383 5.9499258,6.2392049 5.8182852,6.4875964 5.7690123,6.5120698 5.6768454,6.5576328 5.5737383,6.5700689 5.4791642,6.6175851 5.3487222,6.6827401 5.2851343,6.5461111 5.2160107,6.5120698 5.0992368,6.4541417 5.0013467,6.5959179 4.9528562,6.644279 4.8903757,6.706765 4.5717923,6.6099192 4.5040998,6.7497943 4.4064661,6.9451915 4.214252,7.3117792 4.214252,7.5659455 c 0,0.059231 -0.026698,0.1037763 -0.026698,0.1589082 0,0.013024 0.00847,0.1017409 0,0.1055186 -0.095421,0.048164 -0.2259956,-0.2034175 -0.3686706,-0.1322107 -0.042106,0.021713 -0.072654,0.055865 -0.1055142,0.08772 -0.017471,-0.124306 -0.036868,-0.2481907 -0.036868,-0.3775678 0,-1.4846145 1.1892395,-2.6747668 2.6734632,-2.6747668 z"
       style="color:#090d11;fill:#008080;fill-opacity:1;stroke-width:0.26458332" />
    <path
       inkscape:connector-curvature="0"
       id="path823"
       d="m 6.1288062,6.855362 c 0.222044,-0.042925 0.4898264,0.084006 0.6419923,0.2364553 0.017568,0.017572 0.064267,0.034424 0.080093,0.078815 0.013739,0.042308 0.016214,0.089379 0.02669,0.1322152 0.020831,0.061832 0.092611,0.1583801 0.052126,0.2377247 -0.069916,0.1390293 -0.3027358,0.2371253 -0.3686721,0.3686707 -0.05338,0.1060924 -0.03215,0.322203 -0.1055175,0.3953631 -0.016214,0.016266 -0.20231,0.034553 -0.2110318,0.052124 -0.074666,0.1476874 0.150994,0.3040633 0.078816,0.4487563 -0.058574,0.1185254 -0.3266028,0.1269111 -0.4207873,0.3152776 -0.03579,0.073094 -0.1589022,0.015008 -0.1589022,0.2644242 0,0.2599002 0.3025017,0.1111716 0.4487558,0.1843314 0.1372094,0.068342 0.3141178,0.091054 0.4474851,0.1576391 0.03255,0.01562 0.3089329,0.1955401 0.3165482,0.2110317 0.00843,0.016955 0.010099,0.04336 0.013894,0.066105 -0.1996022,0.04705 -0.4057387,0.07882 -0.6203761,0.07882 -0.6133078,0 -1.1700404,-0.2111059 -1.6196086,-0.5542677 C 4.749077,9.518944 4.768876,9.501728 4.793868,9.46401 4.818616,9.4282144 4.84009,9.2694071 4.820569,9.2275547 4.7802182,9.1463822 4.6425383,9.1891408 4.609538,9.1220337 4.5515877,9.005263 4.574357,8.5583235 4.5039985,8.4889388 4.4753553,8.4596485 4.4844229,8.3636499 4.4518745,8.3312999 4.4115157,8.2915949 4.4110689,8.1844217 4.3730601,8.1456927 4.1475905,7.9202895 4.3269262,7.3503702 4.4785817,7.1973461 4.5995245,7.0765406 4.7343678,7.5259155 4.7938596,7.6448326 4.866106,7.788484 5.0563372,7.7225469 5.163798,7.8291648 c 0.07056,0.071533 0.1640172,0.1651563 0.2364556,0.2377315 0.00843,0.00847 0.1008898,0.00847 0.1055175,0 0.09139,-0.091319 0.1171558,-0.207758 0.1843328,-0.3419712 0.010432,-0.020176 0,-0.1055153 0,-0.1055153 0.038409,0 0.066653,0.078629 0.1055175,0 0.031884,-0.062486 -0.078617,-0.2642024 -0.052126,-0.2898475 0.03124,-0.031245 0.245841,0.034496 0.2631546,0 C 6.056767,7.2281543 5.8902078,6.9975043 5.927834,6.9596226 5.985365,6.9021026 6.0546858,6.8696886 6.1286924,6.8553758 Z"
       style="color:#090d11;fill:#008080;fill-opacity:1;stroke-width:0.26458332" />
  </g>
</svg>
