<?xml version="1.0" encoding="UTF-8" standalone="no"?>
<svg
   xmlns:dc="http://purl.org/dc/elements/1.1/"
   xmlns:cc="http://creativecommons.org/ns#"
   xmlns:rdf="http://www.w3.org/1999/02/22-rdf-syntax-ns#"
   xmlns:svg="http://www.w3.org/2000/svg"
   xmlns="http://www.w3.org/2000/svg"
   xmlns:sodipodi="http://sodipodi.sourceforge.net/DTD/sodipodi-0.dtd"
   xmlns:inkscape="http://www.inkscape.org/namespaces/inkscape"
   width="48"
   height="48"
   viewBox="0 0 12.7 12.7"
   version="1.1"
   id="svg4"
   sodipodi:docname="text-x-csharp.svg"
   inkscape:version="0.92.3 (2405546, 2018-03-11)">
  <metadata
     id="metadata10">
    <rdf:RDF>
      <cc:Work
         rdf:about="">
        <dc:format>image/svg+xml</dc:format>
        <dc:type
           rdf:resource="http://purl.org/dc/dcmitype/StillImage" />
        <dc:title></dc:title>
      </cc:Work>
    </rdf:RDF>
  </metadata>
  <defs
     id="defs8" />
  <sodipodi:namedview
     pagecolor="#ffffff"
     bordercolor="#666666"
     borderopacity="1"
     objecttolerance="10"
     gridtolerance="10"
     guidetolerance="10"
     inkscape:pageopacity="0"
     inkscape:pageshadow="2"
     inkscape:window-width="1366"
     inkscape:window-height="715"
     id="namedview6"
     showgrid="false"
     showguides="true"
     inkscape:guide-bbox="true"
     inkscape:snap-global="true"
     inkscape:zoom="10.979167"
     inkscape:cx="6.1935489"
     inkscape:cy="24"
     inkscape:window-x="0"
     inkscape:window-y="27"
     inkscape:window-maximized="1"
     inkscape:current-layer="svg4" />
  <path
     inkscape:connector-curvature="0"
     style="opacity:1;fill:#217844;fill-opacity:1;fill-rule:nonzero;stroke:none;stroke-width:0.50711805;stroke-linecap:round;stroke-linejoin:bevel;stroke-miterlimit:4;stroke-dasharray:none;stroke-opacity:1"
     d="m 7.3492433,0.0566603 c -0.040983,0 -0.078161,0.0127642 -0.1049033,0.0330729 C 7.218411,0.1094229 7.202933,0.1367362 7.201965,0.1667311 7.3445127,0.2235372 7.4736634,0.30302596 7.5802366,0.40909358 7.76971,0.59766786 7.8931916,0.85276088 7.9104491,1.1392812 h 0.00672 v 0.068213 0.1441772 0.1369425 0.1927531 c 0,0.2812905 0.2266883,0.5079794 0.5079795,0.5079794 h 0.1183391 l -5.291e-4,0.00568 h 1.6924064 c 0.329951,0 0.613684,0.1491999 0.819072,0.3731038 V 1.141865 0.56463964 c 0,-0.14064565 -0.05654,-0.26789289 -0.148312,-0.35966798 C 10.814345,0.11319656 10.687101,0.0566603 10.546455,0.0566603 H 9.0462851 7.7864139 Z"
     id="path965" />
  <path
     style="opacity:1;fill:#333333;fill-opacity:1;fill-rule:nonzero;stroke:none;stroke-width:0.50711805;stroke-linecap:round;stroke-linejoin:bevel;stroke-miterlimit:4;stroke-dasharray:none;stroke-opacity:1"
     d="m 2.9460732,0.55206094 c -0.6285519,0 -1.134298,0.50626306 -1.134298,1.13481446 v 9.9012056 c 0,0.628551 0.5057461,1.134814 1.134298,1.134814 h 4.2855261 2.522327 c 0.6285527,0 1.1342987,-0.506263 1.1342987,-1.134814 V 3.6728008 h -0.01292 C 10.810197,3.1070068 10.337709,2.6687276 9.7539263,2.6687276 h -1.692403 v 0 l -0.11781,-0.00568 C 7.6627483,2.6495013 7.4357343,2.4363589 7.4357343,2.1550682 V 1.9623107 1.8253682 1.6811909 1.612978 h -0.0067 C 7.3941823,1.0346118 6.9321933,0.5804805 6.3510473,0.55464473 l -5.29e-4,-0.002585 h -0.02015 z"
     id="path833"
     inkscape:connector-curvature="0" />
  <path
     style="opacity:1;fill:#cccccc;fill-opacity:1;fill-rule:nonzero;stroke:none;stroke-width:0.50711805;stroke-linecap:round;stroke-linejoin:bevel;stroke-miterlimit:4;stroke-dasharray:none;stroke-opacity:1"
     d="m 6.4269983,1.0791605 c 0.263277,0.019482 0.470254,0.2359637 0.470255,0.504362 v 0.2563151 0.125057 0.092501 c 0,0.5757933 0.427721,1.0388807 0.982369,1.1136271 v 0 l 1.962134,0.026872 c 0.2812647,0.00385 0.5079787,0.2266886 0.5079797,0.5079793 V 5.7894678 11.68575 c 0,0.281291 -0.226688,0.50798 -0.5079797,0.50798 H 7.2315993 2.8582236 c -0.281291,0 -0.50798,-0.226689 -0.50798,-0.50798 V 1.5892069 c 0,-0.2812907 0.226689,-0.5079794 0.50798,-0.5079794 h 3.5692907 z"
     id="path901-5"
     inkscape:connector-curvature="0" />
  <path
     style="line-height:normal;text-indent:0;text-align:start;text-decoration:none;text-decoration-line:none;text-transform:none;stroke-width:0.99999994;marker:none;fill:#217844;fill-opacity:1"
     d="M 11.984375 19.117188 L 11.984375 21 L 17.722656 21 L 17.722656 19.117188 L 11.984375 19.117188 z M 19.380859 19.117188 L 19.380859 21 L 25.119141 21 L 25.119141 19.117188 L 19.380859 19.117188 z M 13.833984 22.814453 L 13.833984 24.697266 L 28.716797 24.697266 L 28.716797 22.814453 L 13.833984 22.814453 z M 11.984375 26.513672 L 11.984375 28.396484 L 24.806641 28.396484 L 24.806641 26.513672 L 11.984375 26.513672 z M 26.777344 26.513672 L 26.777344 28.396484 L 36.28125 28.396484 L 36.28125 26.513672 L 26.777344 26.513672 z M 11.984375 30.210938 L 11.984375 32.09375 L 17.902344 32.09375 L 17.902344 30.210938 L 11.984375 30.210938 z M 19.380859 30.210938 L 19.380859 32.09375 L 30.318359 32.09375 L 30.318359 30.210938 L 19.380859 30.210938 z M 32.324219 30.210938 L 32.324219 32.09375 L 36.179688 32.09375 L 36.179688 30.210938 L 32.324219 30.210938 z M 13.833984 33.910156 L 13.833984 35.792969 L 33.914062 35.792969 L 33.914062 33.910156 L 13.833984 33.910156 z M 13.833984 37.607422 L 13.833984 39.400391 L 29.880859 39.400391 L 29.880859 37.607422 L 13.833984 37.607422 z M 32.324219 37.607422 L 32.324219 39.400391 L 36.001953 39.400391 L 36.001953 37.607422 L 32.324219 37.607422 z M 11.783203 41.304688 L 11.783203 43.099609 L 26.757812 43.099609 L 26.757812 41.304688 L 11.783203 41.304688 z M 29.904297 41.304688 L 29.904297 43.099609 L 36.001953 43.099609 L 36.001953 41.304688 L 29.904297 41.304688 z "
     transform="scale(0.26458333)"
     id="path876" />
  <path
     style="line-height:normal;text-indent:0;text-align:start;text-decoration:none;text-decoration-line:none;text-transform:none;stroke-width:0.26458332;marker:none;fill:#217844"
     d="m 4.0168694,1.8373893 a 1.8866092,1.8866092 0 0 0 -0.029108,0.00179 l 4.582e-4,-4.464e-4 c -0.086867,0.00592 -0.1734994,0.017319 -0.2583926,0.036274 -0.3964328,0.076602 -0.7368098,0.4029083 -0.7912996,0.8092125 -0.073444,0.4106475 0.034694,0.893152 0.4034865,1.1316432 0.4161753,0.2685004 0.9631128,0.2490844 1.4160099,0.089564 V 3.4876095 C 4.7939552,3.2984748 4.6792846,3.4215005 4.5663563,3.4728322 4.2840363,3.5924727 3.8726626,3.5878164 3.6989272,3.293256 3.5646771,3.0342322 3.571004,2.668445 3.7858044,2.4540395 4.0590428,2.2171276 4.4847852,2.2978894 4.7580238,2.4925521 V 1.9493445 A 1.8866092,1.8866092 0 0 0 4.0168694,1.8373893 Z M 5.3939186,2.1186208 5.2900241,2.5341986 h -0.364974 v 0.23018 H 5.2304639 L 5.1552302,3.0599403 H 4.8010038 V 3.2923594 H 5.1028351 L 4.9989406,3.7056982 H 5.2394204 L 5.3433149,3.2923594 h 0.285262 L 5.5246824,3.7056982 H 5.762923 L 5.8672653,3.2923594 H 6.2300004 V 3.0599403 H 5.9227952 l 0.074338,-0.2955617 h 0.3569133 v -0.23018 H 6.0544544 L 6.1592446,2.1186208 H 5.9210038 L 5.815766,2.5341986 H 5.5309517 L 5.6343984,2.1186208 Z m 0.077473,0.6457578 H 5.7566535 L 5.6809718,3.0599403 H 5.39571 Z"
     id="path850"
     inkscape:connector-curvature="0" />
</svg>
