<?xml version="1.0" encoding="UTF-8" standalone="no"?><svg xmlns:dc="http://purl.org/dc/elements/1.1/" xmlns:cc="http://creativecommons.org/ns#" xmlns:rdf="http://www.w3.org/1999/02/22-rdf-syntax-ns#" xmlns="http://www.w3.org/2000/svg" width="48" height="48" viewBox="0 0 12.7 12.7"><metadata><rdf:RDF><cc:Work><dc:format>image/svg+xml</dc:format><dc:type rdf:resource="http://purl.org/dc/dcmitype/StillImage"/><dc:title/></cc:Work></rdf:RDF></metadata><path d="M7.35.06a.17.17 0 0 0-.1.03.1.1 0 0 0-.05.08 1.12 1.12 0 0 1 .71.97v.55c0 .27.23.5.52.5h1.81c.33 0 .6.15.81.38V.56a.5.5 0 0 0-.5-.5H7.79z" fill="#217844"/><path d="M2.95.55c-.63 0-1.14.5-1.14 1.14v9.9c0 .63.5 1.13 1.14 1.13H9.75c.63 0 1.14-.5 1.14-1.13V3.67h-.01c-.07-.56-.54-1-1.13-1H7.94a.52.52 0 0 1-.5-.51V1.6h-.01A1.12 1.12 0 0 0 6.35.55h-.02z" fill="#333"/><path d="M6.43 1.08a.5.5 0 0 1 .47.5v.48c0 .57.42 1.04.98 1.11l1.96.03c.28 0 .51.22.51.5v7.99a.5.5 0 0 1-.5.5H2.85a.5.5 0 0 1-.51-.5V1.59c0-.28.23-.5.5-.5h3.58z" fill="#ccc"/><path style="line-height:normal;text-indent:0;text-align:start;text-decoration-line:none;text-transform:none;marker:none" d="M3.17 5.06v.5H4.7v-.5H3.17zm1.96 0v.5h1.52v-.5H5.13zm-1.47.98v.5H7.6v-.5H3.66zm-.49.98v.5h3.4v-.5h-3.4zm3.91 0v.5H9.6v-.5H7.08zm-3.9.97v.5h1.56V8H3.17zm1.95 0v.5h2.9V8h-2.9zm3.42 0v.5h1.02V8H8.55zm-4.89.98v.5h5.31v-.5H3.66zm0 .98v.47h4.25v-.47H3.66zm4.9 0v.47h.97v-.47h-.98zm-5.44.98v.47h3.96v-.47H3.12zm4.8 0v.47h1.6v-.47h-1.6zM4.02 1.84a1.89 1.89 0 0 0-.03 0c-.09 0-.18.02-.26.04-.4.07-.74.4-.8.8-.06.41.04.9.41 1.14.42.26.97.24 1.42.09v-.42c.03-.2-.08-.07-.2-.02-.28.12-.69.12-.86-.18-.14-.26-.13-.62.09-.84.27-.23.7-.15.97.04v-.54a1.89 1.89 0 0 0-.74-.11zm1.37.28l-.1.41h-.36v.23h.3l-.07.3H4.8v.23h.3l-.1.42h.24l.1-.42h.29l-.1.42h.23l.1-.42h.37v-.23h-.3l.07-.3h.35v-.23h-.3l.1-.41h-.23l-.1.41h-.29l.1-.41zm.08.64h.29l-.08.3H5.4z" fill="#217844"/></svg>