<?xml version="1.0" encoding="UTF-8" standalone="no"?><svg xmlns:dc="http://purl.org/dc/elements/1.1/" xmlns:cc="http://creativecommons.org/ns#" xmlns:rdf="http://www.w3.org/1999/02/22-rdf-syntax-ns#" xmlns="http://www.w3.org/2000/svg" width="48" height="48" viewBox="0 0 12.7 12.7"><metadata><rdf:RDF><cc:Work><dc:format>image/svg+xml</dc:format><dc:type rdf:resource="http://purl.org/dc/dcmitype/StillImage"/><dc:title/></cc:Work></rdf:RDF></metadata><path d="M7.35.06a.17.17 0 0 0-.1.03.1.1 0 0 0-.05.08 1.12 1.12 0 0 1 .71.97v.55c0 .27.23.5.52.5h1.81c.33 0 .6.15.81.38V.56a.5.5 0 0 0-.5-.5H7.79z" fill="#3737c8"/><path d="M2.95.55c-.63 0-1.14.5-1.14 1.14v9.9c0 .63.5 1.13 1.14 1.13H9.75c.63 0 1.14-.5 1.14-1.13V3.67h-.01c-.07-.56-.54-1-1.13-1H7.94a.52.52 0 0 1-.5-.51V1.6h-.01A1.12 1.12 0 0 0 6.35.55h-.02z" fill="#333"/><path d="M6.43 1.08a.5.5 0 0 1 .47.5v.48c0 .57.42 1.04.98 1.11l1.96.03c.28 0 .51.22.51.5v7.99a.5.5 0 0 1-.5.5H2.85a.5.5 0 0 1-.51-.5V1.59c0-.28.23-.5.5-.5h3.58z" fill="#ccc"/><path style="line-height:normal;text-indent:0;text-align:start;text-decoration-line:none;text-transform:none;marker:none" d="M3.17 5.06v.5H4.7v-.5H3.17zm1.96 0v.5h1.52v-.5H5.13zm-1.47.98v.5H7.6v-.5H3.66zm-.49.98v.5h3.4v-.5h-3.4zm3.91 0v.5H9.6v-.5H7.08zm-3.9.97v.5h1.56V8H3.17zm1.95 0v.5h2.9V8h-2.9zm3.42 0v.5h1.02V8H8.55zm-4.89.98v.5h5.31v-.5H3.66zm0 .98v.47h4.25v-.47H3.66zm4.9 0v.47h.97v-.47h-.98zm-5.44.98v.47h3.96v-.47H3.12zm4.8 0v.47h1.6v-.47h-1.6z" fill="#3737c8"/><path d="M4.4 1.71c-.22 0-.37.04-.45.1-.07.07-.11.2-.11.4v.32c0 .14-.03.23-.07.28-.05.06-.14.08-.26.08h-.13v.2h.13c.12 0 .2.02.26.07.04.06.07.15.07.29v.32c0 .2.04.33.11.4.08.06.23.1.45.1h.09v-.22h-.1c-.12 0-.2 0-.24-.04a.36.36 0 0 1-.1-.25v-.33a.6.6 0 0 0-.06-.3c-.04-.07-.07-.12-.17-.14.1-.02.13-.07.17-.13a.58.58 0 0 0 .06-.3v-.34c0-.13.06-.22.1-.25.04-.04.12-.03.25-.03h.09v-.23zm.53 0v.23h.1c.12 0 .2-.01.24.03.04.04.1.12.1.25v.33c0 .14.02.25.06.3.04.07.07.12.17.14-.1.02-.13.07-.17.13a.6.6 0 0 0-.06.3v.34c0 .13-.06.21-.1.25-.04.04-.12.04-.25.04h-.1v.22h.1c.22 0 .37-.04.44-.1.08-.07.12-.2.12-.4v-.32c0-.14.02-.23.07-.29.05-.05.13-.08.26-.08h.13V2.9H5.9c-.13 0-.21-.02-.26-.08-.05-.05-.07-.14-.07-.28v-.32c0-.2-.04-.33-.12-.4-.07-.06-.22-.1-.45-.1z" fill="#3737c8"/></svg>