<?xml version="1.0" encoding="UTF-8" standalone="no"?><svg xmlns:dc="http://purl.org/dc/elements/1.1/" xmlns:cc="http://creativecommons.org/ns#" xmlns:rdf="http://www.w3.org/1999/02/22-rdf-syntax-ns#" xmlns="http://www.w3.org/2000/svg" width="48" height="48" viewBox="0 0 12.7 12.7"><metadata><rdf:RDF><cc:Work><dc:format>image/svg+xml</dc:format><dc:type rdf:resource="http://purl.org/dc/dcmitype/StillImage"/><dc:title/></cc:Work></rdf:RDF></metadata><path d="M7.35.06a.17.17 0 0 0-.1.03.1.1 0 0 0-.05.08 1.12 1.12 0 0 1 .71.97v.55c0 .27.23.5.52.5h1.81c.33 0 .6.15.81.38V.56a.5.5 0 0 0-.5-.5H7.79z" fill="maroon"/><path d="M2.95.55c-.63 0-1.14.5-1.14 1.14v9.9c0 .63.5 1.13 1.14 1.13H9.75c.63 0 1.14-.5 1.14-1.13V3.67h-.01c-.07-.56-.54-1-1.13-1H7.94a.52.52 0 0 1-.5-.51V1.6h-.01A1.12 1.12 0 0 0 6.35.55h-.02z" fill="#333"/><path d="M6.43 1.08a.5.5 0 0 1 .47.5v.48c0 .57.42 1.04.98 1.11l1.96.03c.28 0 .51.22.51.5v7.99a.5.5 0 0 1-.5.5H2.85a.5.5 0 0 1-.51-.5V1.59c0-.28.23-.5.5-.5h3.58z" fill="#ccc"/><path style="line-height:normal;text-indent:0;text-align:start;text-decoration-line:none;text-transform:none;marker:none" d="M3.17 5.06v.5H4.7v-.5H3.17zm1.96 0v.5h1.52v-.5H5.13zm-1.47.98v.5H7.6v-.5H3.66zm-.49.98v.5h3.4v-.5h-3.4zm3.91 0v.5H9.6v-.5H7.08zm-3.9.97v.5h1.56V8H3.17zm1.95 0v.5h2.9V8h-2.9zm3.42 0v.5h1.02V8H8.55zm-4.89.98v.5h5.31v-.5H3.66zm0 .98v.47h4.25v-.47H3.66zm4.9 0v.47h.97v-.47h-.98zm-5.44.98v.47h3.96v-.47H3.12zm4.8 0v.47h1.6v-.47h-1.6zM5.68 1.6v.44h-.44v.2h.44v.44h.2v-.44h.45v-.2h-.45V1.6zm-1.53.24c-.33 0-.66.09-.89.34-.3.37-.3.97 0 1.34.37.4.99.4 1.47.22v-.5a.83.83 0 0 1-.69.15c-.38-.09-.45-.58-.29-.88.21-.33.7-.27.98-.06v-.5a1.86 1.86 0 0 0-.58-.11zm1.53 1.2v.45h-.44v.2h.44v.44h.2V3.7h.45v-.2h-.45v-.44z" fill="maroon"/></svg>