<?xml version="1.0" encoding="UTF-8" standalone="no"?>
<svg
   xmlns:dc="http://purl.org/dc/elements/1.1/"
   xmlns:cc="http://creativecommons.org/ns#"
   xmlns:rdf="http://www.w3.org/1999/02/22-rdf-syntax-ns#"
   xmlns:svg="http://www.w3.org/2000/svg"
   xmlns="http://www.w3.org/2000/svg"
   xmlns:sodipodi="http://sodipodi.sourceforge.net/DTD/sodipodi-0.dtd"
   xmlns:inkscape="http://www.inkscape.org/namespaces/inkscape"
   width="48"
   height="48"
   viewBox="0 0 12.7 12.7"
   version="1.1"
   id="svg4"
   sodipodi:docname="text-css.svg"
   inkscape:version="0.92.3 (2405546, 2018-03-11)">
  <metadata
     id="metadata10">
    <rdf:RDF>
      <cc:Work
         rdf:about="">
        <dc:format>image/svg+xml</dc:format>
        <dc:type
           rdf:resource="http://purl.org/dc/dcmitype/StillImage" />
        <dc:title></dc:title>
      </cc:Work>
    </rdf:RDF>
  </metadata>
  <defs
     id="defs8" />
  <sodipodi:namedview
     pagecolor="#ffffff"
     bordercolor="#666666"
     borderopacity="1"
     objecttolerance="10"
     gridtolerance="10"
     guidetolerance="10"
     inkscape:pageopacity="0"
     inkscape:pageshadow="2"
     inkscape:window-width="1366"
     inkscape:window-height="715"
     id="namedview6"
     showgrid="false"
     showguides="true"
     inkscape:guide-bbox="true"
     inkscape:snap-global="true"
     inkscape:zoom="10.979167"
     inkscape:cx="6.1935489"
     inkscape:cy="24"
     inkscape:window-x="0"
     inkscape:window-y="27"
     inkscape:window-maximized="1"
     inkscape:current-layer="svg4" />
  <path
     inkscape:connector-curvature="0"
     style="opacity:1;fill:#3737c8;fill-opacity:1;fill-rule:nonzero;stroke:none;stroke-width:0.50711805;stroke-linecap:round;stroke-linejoin:bevel;stroke-miterlimit:4;stroke-dasharray:none;stroke-opacity:1"
     d="m 7.3492433,0.0566603 c -0.040983,0 -0.078161,0.0127642 -0.1049033,0.0330729 C 7.218411,0.1094229 7.202933,0.1367362 7.201965,0.1667311 7.3445127,0.2235372 7.4736634,0.30302596 7.5802366,0.40909358 7.76971,0.59766786 7.8931916,0.85276088 7.9104491,1.1392812 h 0.00672 v 0.068213 0.1441772 0.1369425 0.1927531 c 0,0.2812905 0.2266883,0.5079794 0.5079795,0.5079794 h 0.1183391 l -5.291e-4,0.00568 h 1.6924064 c 0.329951,0 0.613684,0.1491999 0.819072,0.3731038 V 1.141865 0.56463964 c 0,-0.14064565 -0.05654,-0.26789289 -0.148312,-0.35966798 C 10.814345,0.11319656 10.687101,0.0566603 10.546455,0.0566603 H 9.0462851 7.7864139 Z"
     id="path965" />
  <path
     style="opacity:1;fill:#333333;fill-opacity:1;fill-rule:nonzero;stroke:none;stroke-width:0.50711805;stroke-linecap:round;stroke-linejoin:bevel;stroke-miterlimit:4;stroke-dasharray:none;stroke-opacity:1"
     d="m 2.9460732,0.55206094 c -0.6285519,0 -1.134298,0.50626306 -1.134298,1.13481446 v 9.9012056 c 0,0.628551 0.5057461,1.134814 1.134298,1.134814 h 4.2855261 2.522327 c 0.6285527,0 1.1342987,-0.506263 1.1342987,-1.134814 V 3.6728008 h -0.01292 C 10.810197,3.1070068 10.337709,2.6687276 9.7539263,2.6687276 h -1.692403 v 0 l -0.11781,-0.00568 C 7.6627483,2.6495013 7.4357343,2.4363589 7.4357343,2.1550682 V 1.9623107 1.8253682 1.6811909 1.612978 h -0.0067 C 7.3941823,1.0346118 6.9321933,0.5804805 6.3510473,0.55464473 l -5.29e-4,-0.002585 h -0.02015 z"
     id="path833"
     inkscape:connector-curvature="0" />
  <path
     style="opacity:1;fill:#cccccc;fill-opacity:1;fill-rule:nonzero;stroke:none;stroke-width:0.50711805;stroke-linecap:round;stroke-linejoin:bevel;stroke-miterlimit:4;stroke-dasharray:none;stroke-opacity:1"
     d="m 6.4269983,1.0791605 c 0.263277,0.019482 0.470254,0.2359637 0.470255,0.504362 v 0.2563151 0.125057 0.092501 c 0,0.5757933 0.427721,1.0388807 0.982369,1.1136271 v 0 l 1.962134,0.026872 c 0.2812647,0.00385 0.5079787,0.2266886 0.5079797,0.5079793 V 5.7894678 11.68575 c 0,0.281291 -0.226688,0.50798 -0.5079797,0.50798 H 7.2315993 2.8582236 c -0.281291,0 -0.50798,-0.226689 -0.50798,-0.50798 V 1.5892069 c 0,-0.2812907 0.226689,-0.5079794 0.50798,-0.5079794 h 3.5692907 z"
     id="path901-5"
     inkscape:connector-curvature="0" />
  <path
     style="line-height:normal;text-indent:0;text-align:start;text-decoration:none;text-decoration-line:none;text-transform:none;stroke-width:0.99999994;marker:none;fill:#3737c8;fill-opacity:1"
     d="M 11.984375 19.117188 L 11.984375 21 L 17.722656 21 L 17.722656 19.117188 L 11.984375 19.117188 z M 19.380859 19.117188 L 19.380859 21 L 25.119141 21 L 25.119141 19.117188 L 19.380859 19.117188 z M 13.833984 22.814453 L 13.833984 24.697266 L 28.716797 24.697266 L 28.716797 22.814453 L 13.833984 22.814453 z M 11.984375 26.513672 L 11.984375 28.396484 L 24.806641 28.396484 L 24.806641 26.513672 L 11.984375 26.513672 z M 26.777344 26.513672 L 26.777344 28.396484 L 36.28125 28.396484 L 36.28125 26.513672 L 26.777344 26.513672 z M 11.984375 30.210938 L 11.984375 32.09375 L 17.902344 32.09375 L 17.902344 30.210938 L 11.984375 30.210938 z M 19.380859 30.210938 L 19.380859 32.09375 L 30.318359 32.09375 L 30.318359 30.210938 L 19.380859 30.210938 z M 32.324219 30.210938 L 32.324219 32.09375 L 36.179688 32.09375 L 36.179688 30.210938 L 32.324219 30.210938 z M 13.833984 33.910156 L 13.833984 35.792969 L 33.914062 35.792969 L 33.914062 33.910156 L 13.833984 33.910156 z M 13.833984 37.607422 L 13.833984 39.400391 L 29.880859 39.400391 L 29.880859 37.607422 L 13.833984 37.607422 z M 32.324219 37.607422 L 32.324219 39.400391 L 36.001953 39.400391 L 36.001953 37.607422 L 32.324219 37.607422 z M 11.783203 41.304688 L 11.783203 43.099609 L 26.757812 43.099609 L 26.757812 41.304688 L 11.783203 41.304688 z M 29.904297 41.304688 L 29.904297 43.099609 L 36.001953 43.099609 L 36.001953 41.304688 L 29.904297 41.304688 z "
     transform="scale(0.26458333)"
     id="path876" />
  <path
     inkscape:connector-curvature="0"
     style="fill:#3737c8;stroke-width:0.26458332"
     d="m 4.40331,1.7137095 c -0.2241895,0 -0.3746026,0.033433 -0.4511282,0.1000599 -0.07563,0.065727 -0.1134252,0.198022 -0.1134252,0.3970047 v 0.3241115 c 0,0.1350546 -0.023875,0.2281533 -0.071595,0.2794722 -0.04772,0.051321 -0.1350546,0.076985 -0.2620052,0.076985 H 3.3828319 V 3.084562 h 0.1223244 c 0.1260562,0 0.2127841,0.026058 0.2605037,0.078279 0.04862,0.052221 0.073104,0.1463278 0.073104,0.2822769 v 0.3228196 c 0,0.1989826 0.0378,0.3316745 0.1134252,0.3982966 0.076532,0.066627 0.2269387,0.1000599 0.4511282,0.1000599 h 0.086259 V 4.0477578 h -0.094453 c -0.1260563,0 -0.2084116,0.00474 -0.247133,-0.033986 -0.037816,-0.038716 -0.09515,-0.1224792 -0.09515,-0.2512295 v -0.334899 c 0,-0.1404538 -0.020296,-0.2427274 -0.060811,-0.3066444 C 3.9515124,3.0570729 3.9197174,3.0129022 3.8197764,2.988594 3.9188164,2.966084 3.9502159,2.922916 3.9907368,2.8589936 4.0321538,2.7950686 4.0528428,2.6924057 4.0528428,2.5510463 V 2.2161479 c 0,-0.127856 0.057336,-0.2112162 0.09515,-0.2499374 0.038715,-0.039616 0.1210766,-0.025671 0.2471328,-0.025671 h 0.094453 v -0.226851 z m 0.5255231,0 v 0.2268504 h 0.091865 c 0.1269504,0 0.2097037,-0.013944 0.2484247,0.025671 0.038721,0.039616 0.09666,0.1229867 0.09666,0.2499372 v 0.3348986 c 0,0.1413591 0.020296,0.2440193 0.060812,0.3079473 0.041417,0.063925 0.073211,0.1070943 0.1722522,0.1296005 -0.099941,0.024311 -0.1317314,0.068481 -0.1722522,0.1324049 -0.040517,0.063925 -0.060812,0.1661906 -0.060812,0.3066444 v 0.3348987 c 0,0.1269506 -0.057944,0.2103219 -0.09666,0.2499373 -0.038715,0.039616 -0.1214743,0.03528 -0.2484247,0.03528 h -0.091865 v 0.2185363 h 0.083886 c 0.2241895,0 0.3739951,-0.033433 0.4496267,-0.1000599 0.07563,-0.066626 0.1134251,-0.1993128 0.1134251,-0.3982954 v -0.32282 c 0,-0.13596 0.023875,-0.2300633 0.071595,-0.2822768 0.048619,-0.052221 0.1363575,-0.078279 0.263308,-0.078279 H 6.0355817 V 2.8913661 H 5.9106736 c -0.1269505,0 -0.214683,-0.025664 -0.263308,-0.076985 C 5.599646,2.7630599 5.5757707,2.6699634 5.5757707,2.5349087 V 2.2107973 c 0,-0.1989825 -0.0378,-0.331277 -0.1134251,-0.3970048 C 5.386715,1.7471651 5.2369084,1.7137327 5.0127189,1.7137327 Z"
     id="path48" />
</svg>
