<?xml version="1.0" encoding="UTF-8" standalone="no"?>
<svg
   xmlns:dc="http://purl.org/dc/elements/1.1/"
   xmlns:cc="http://creativecommons.org/ns#"
   xmlns:rdf="http://www.w3.org/1999/02/22-rdf-syntax-ns#"
   xmlns:svg="http://www.w3.org/2000/svg"
   xmlns="http://www.w3.org/2000/svg"
   xmlns:sodipodi="http://sodipodi.sourceforge.net/DTD/sodipodi-0.dtd"
   xmlns:inkscape="http://www.inkscape.org/namespaces/inkscape"
   width="48"
   height="48"
   viewBox="0 0 12.7 12.7"
   version="1.1"
   id="svg4"
   sodipodi:docname="text-x-copying1.svg"
   inkscape:version="0.92.3 (2405546, 2018-03-11)">
  <metadata
     id="metadata10">
    <rdf:RDF>
      <cc:Work
         rdf:about="">
        <dc:format>image/svg+xml</dc:format>
        <dc:type
           rdf:resource="http://purl.org/dc/dcmitype/StillImage" />
        <dc:title></dc:title>
      </cc:Work>
    </rdf:RDF>
  </metadata>
  <defs
     id="defs8" />
  <sodipodi:namedview
     pagecolor="#ffffff"
     bordercolor="#666666"
     borderopacity="1"
     objecttolerance="10"
     gridtolerance="10"
     guidetolerance="10"
     inkscape:pageopacity="0"
     inkscape:pageshadow="2"
     inkscape:window-width="1366"
     inkscape:window-height="715"
     id="namedview6"
     showgrid="false"
     showguides="true"
     inkscape:guide-bbox="true"
     inkscape:snap-global="true"
     inkscape:zoom="7.792906"
     inkscape:cx="24"
     inkscape:cy="24"
     inkscape:window-x="0"
     inkscape:window-y="27"
     inkscape:window-maximized="1"
     inkscape:current-layer="svg4" />
  <path
     inkscape:connector-curvature="0"
     style="opacity:1;fill:#447821;fill-opacity:1;fill-rule:nonzero;stroke:none;stroke-width:0.50711805;stroke-linecap:round;stroke-linejoin:bevel;stroke-miterlimit:4;stroke-dasharray:none;stroke-opacity:1"
     d="m 7.4452731,0.01688326 c -0.040983,0 -0.078161,0.0127642 -0.1049033,0.0330729 -0.025929,0.0196897 -0.041407,0.047003 -0.042375,0.0769979 0.1425477,0.0568061 0.2716984,0.13629486 0.3782716,0.24236248 0.1894734,0.18857428 0.312955,0.44366748 0.3302125,0.73018816 h 0.00672 v 0.068213 0.1441772 0.1369425 0.1927531 c 0,0.2812905 0.2266883,0.5079794 0.5079795,0.5079794 h 0.1183391 l -5.291e-4,0.00568 h 1.6924026 c 0.329951,0 0.613684,0.1491999 0.819072,0.3731038 V 1.1020885 0.5248626 c 0,-0.14064565 -0.05654,-0.26789289 -0.148312,-0.35966798 -0.09178,-0.0917751 -0.219024,-0.14831136 -0.35967,-0.14831136 H 9.1423149 7.8824437 Z"
     id="path965" />
  <path
     style="opacity:1;fill:#333333;fill-opacity:1;fill-rule:nonzero;stroke:none;stroke-width:0.50711805;stroke-linecap:round;stroke-linejoin:bevel;stroke-miterlimit:4;stroke-dasharray:none;stroke-opacity:1"
     d="m 2.9460732,0.60831414 c -0.6285519,0 -1.134298,0.50626306 -1.134298,1.13481456 v 9.9012043 c 0,0.628551 0.5057461,1.134814 1.134298,1.134814 h 4.2855261 2.522327 c 0.6285527,0 1.1342987,-0.506263 1.1342987,-1.134814 V 3.7290541 h -0.01292 C 10.810197,3.1632601 10.337709,2.7249809 9.7539263,2.7249809 h -1.692403 v 0 l -0.11781,-0.00568 C 7.6627483,2.7057546 7.4357343,2.4926122 7.4357343,2.2113215 V 2.018564 1.8816215 1.7374442 1.6692313 h -0.0067 C 7.3941823,1.0908651 6.9321933,0.6367337 6.3510473,0.61089793 l -5.29e-4,-0.002585 h -0.02015 z"
     id="path833"
     inkscape:connector-curvature="0" />
  <path
     style="opacity:1;fill:#cccccc;fill-opacity:1;fill-rule:nonzero;stroke:none;stroke-width:0.50711805;stroke-linecap:round;stroke-linejoin:bevel;stroke-miterlimit:4;stroke-dasharray:none;stroke-opacity:1"
     d="m 6.4269983,1.1354138 c 0.263277,0.019482 0.470254,0.2359637 0.470255,0.504362 v 0.2563151 0.125057 0.092501 c 0,0.5757933 0.427721,1.0388807 0.982369,1.1136271 v 0 l 1.962134,0.026872 c 0.2812647,0.00385 0.5079787,0.2266886 0.5079797,0.5079793 v 2.0835938 5.8962809 c 0,0.281291 -0.226688,0.50798 -0.5079797,0.50798 H 7.2315993 2.8582236 c -0.281291,0 -0.50798,-0.226689 -0.50798,-0.50798 V 1.6454602 c 0,-0.2812907 0.226689,-0.5079794 0.50798,-0.5079794 h 3.5692907 z"
     id="path901-5"
     inkscape:connector-curvature="0" />
  <path
     style="opacity:1;fill:#447821;fill-opacity:1;stroke-width:0.99999994"
     d="M 11.40625 15.150391 L 11.40625 18.96875 L 36.59375 18.96875 L 36.59375 15.150391 L 11.40625 15.150391 z M 24.044922 20.582031 A 8.0000024 8.0000024 0 0 0 16.044922 28.582031 A 8.0000024 8.0000024 0 0 0 24.044922 36.582031 A 8.0000024 8.0000024 0 0 0 32.044922 28.582031 A 8.0000024 8.0000024 0 0 0 24.044922 20.582031 z M 24.044922 22.296875 A 6.285716 6.285716 0 0 1 30.332031 28.582031 A 6.285716 6.285716 0 0 1 24.044922 34.867188 A 6.285716 6.285716 0 0 1 17.759766 28.582031 A 6.285716 6.285716 0 0 1 24.044922 22.296875 z M 11.40625 22.785156 L 11.40625 26.603516 L 15.273438 26.603516 A 9.000001 9.000001 0 0 1 15.447266 25.921875 A 9.000001 9.000001 0 0 1 15.755859 25.078125 A 9.000001 9.000001 0 0 1 16.146484 24.267578 A 9.000001 9.000001 0 0 1 16.617188 23.5 A 9.000001 9.000001 0 0 1 17.162109 22.785156 L 11.40625 22.785156 z M 30.917969 22.785156 A 9.000001 9.000001 0 0 1 31.095703 22.988281 A 9.000001 9.000001 0 0 1 31.619141 23.71875 A 9.000001 9.000001 0 0 1 32.066406 24.5 A 9.000001 9.000001 0 0 1 32.433594 25.320312 A 9.000001 9.000001 0 0 1 32.716797 26.173828 A 9.000001 9.000001 0 0 1 32.8125 26.603516 L 36.59375 26.603516 L 36.59375 22.785156 L 30.917969 22.785156 z M 24.044922 24.011719 A 4.57143 4.57143 0 0 0 20.789062 25.380859 L 22.255859 26.359375 A 2.8571441 2.8571441 0 0 1 24.044922 25.724609 A 2.8571441 2.8571441 0 0 1 26.902344 28.582031 A 2.8571441 2.8571441 0 0 1 24.044922 31.439453 A 2.8571441 2.8571441 0 0 1 22.253906 30.808594 L 20.787109 31.785156 A 4.57143 4.57143 0 0 0 24.044922 33.154297 A 4.57143 4.57143 0 0 0 28.617188 28.582031 A 4.57143 4.57143 0 0 0 24.044922 24.011719 z M 11.40625 30.421875 L 11.40625 34.240234 L 17.052734 34.240234 A 9.000001 9.000001 0 0 1 16.996094 34.175781 A 9.000001 9.000001 0 0 1 16.472656 33.445312 A 9.000001 9.000001 0 0 1 16.025391 32.664062 A 9.000001 9.000001 0 0 1 15.65625 31.84375 A 9.000001 9.000001 0 0 1 15.373047 30.990234 A 9.000001 9.000001 0 0 1 15.246094 30.421875 L 11.40625 30.421875 z M 32.851562 30.421875 A 9.000001 9.000001 0 0 1 32.642578 31.242188 A 9.000001 9.000001 0 0 1 32.333984 32.087891 A 9.000001 9.000001 0 0 1 31.943359 32.896484 A 9.000001 9.000001 0 0 1 31.472656 33.664062 A 9.000001 9.000001 0 0 1 31.037109 34.240234 L 36.59375 34.240234 L 36.59375 30.421875 L 32.851562 30.421875 z M 11.40625 38.058594 L 11.40625 41.876953 L 36.59375 41.876953 L 36.59375 38.058594 L 11.40625 38.058594 z "
     transform="scale(0.26458333)"
     id="path885" />
</svg>
