<?xml version="1.0" encoding="UTF-8" standalone="no"?><svg xmlns:dc="http://purl.org/dc/elements/1.1/" xmlns:cc="http://creativecommons.org/ns#" xmlns:rdf="http://www.w3.org/1999/02/22-rdf-syntax-ns#" xmlns="http://www.w3.org/2000/svg" width="48" height="48" viewBox="0 0 12.7 12.7"><metadata><rdf:RDF><cc:Work><dc:format>image/svg+xml</dc:format><dc:type rdf:resource="http://purl.org/dc/dcmitype/StillImage"/><dc:title/></cc:Work></rdf:RDF></metadata><path d="M7.45.02a.17.17 0 0 0-.11.03.1.1 0 0 0-.04.08 1.12 1.12 0 0 1 .7.97h.01v.55c0 .27.23.5.51.5H10.34c.32 0 .6.15.81.38V.52a.5.5 0 0 0-.5-.5H7.87z" fill="#3771c8"/><path d="M2.95.6c-.63 0-1.14.51-1.14 1.14v9.9c0 .63.5 1.14 1.14 1.14H9.75c.63 0 1.14-.5 1.14-1.14V3.73h-.01c-.07-.57-.54-1-1.13-1H8.06l-.12-.01a.52.52 0 0 1-.5-.5v-.55h-.01A1.12 1.12 0 0 0 6.35.6h-.02z" fill="#333"/><path d="M6.43 1.14a.5.5 0 0 1 .47.5v.48c0 .57.42 1.03.98 1.1l1.96.03c.28 0 .51.23.51.51v7.99a.5.5 0 0 1-.5.5H2.85a.5.5 0 0 1-.51-.5V1.64c0-.29.23-.51.5-.51h3.58z" fill="#ccc"/><path d="M9.16 6.03v1h.24v-1zM8.39 6.03v1h.53v-1zM8.92 9.06V8.05h-.53v1zM9.4 9.06V8.05h-.24v1h.24zM9.47 8.05v1h.21v-1zM9.47 6.03v1h.21v-1zM9.47 4v1.02h.21V4h-.2zM9.16 4v1.02h.24V4zM8.39 4v1.02h.53V4zM7.45 5.02h.65V4h-.65zM7.45 7.04h.65V6.03h-.65zM7.45 9.06h.65V8.05h-.65zM7.45 11.08h.41v-1.01h-.41v1.01zM7.13 10.07h-.82v1.01h.82v-1.01zM7.13 8.05h-.82v1h.82v-1zM7.13 6.03h-.82v1h.82v-1zM7.13 4h-.82v1.02h.82V4zM5.98 10.07H3.02v1.01h2.96v-1.01zM5.98 8.05H3.02v1h2.96v-1zM5.98 6.03H3.02v1h2.96v-1zM5.98 4H3.02v1.02h2.96V4z" fill="#3771c8"/></svg>