<?xml version="1.0" encoding="UTF-8" standalone="no"?><svg xmlns:dc="http://purl.org/dc/elements/1.1/" xmlns:cc="http://creativecommons.org/ns#" xmlns:rdf="http://www.w3.org/1999/02/22-rdf-syntax-ns#" xmlns="http://www.w3.org/2000/svg" width="48" height="48" viewBox="0 0 12.7 12.7"><metadata><rdf:RDF><cc:Work><dc:format>image/svg+xml</dc:format><dc:type rdf:resource="http://purl.org/dc/dcmitype/StillImage"/><dc:title/></cc:Work></rdf:RDF></metadata><path d="M7.35.06a.17.17 0 0 0-.1.03.1.1 0 0 0-.05.08 1.12 1.12 0 0 1 .71.97v.55c0 .27.23.5.52.5h1.81c.33 0 .6.15.81.38V.56a.5.5 0 0 0-.5-.5H7.79z" fill="#ff2a2a"/><path d="M2.95.55c-.63 0-1.14.5-1.14 1.14v9.9c0 .63.5 1.13 1.14 1.13H9.75c.63 0 1.14-.5 1.14-1.13V3.67h-.01c-.07-.56-.54-1-1.13-1H7.94a.52.52 0 0 1-.5-.51V1.6h-.01A1.12 1.12 0 0 0 6.35.55h-.02z" fill="#333"/><path d="M6.43 1.08a.5.5 0 0 1 .47.5v.48c0 .57.42 1.04.98 1.11l1.96.03c.28 0 .51.22.51.5v7.99a.5.5 0 0 1-.5.5H2.85a.5.5 0 0 1-.51-.5V1.59c0-.28.23-.5.5-.5h3.58z" fill="#ccc"/><path d="M7.07 4.54C7.37 5.67 6 6 5.52 6.7c-.33.48.16.99.84 1.57-.26-.57-1.16-1.07 0-1.94 1.45-1.08.7-1.79.7-1.79zm.9 1.4S5.5 6.5 6.67 7.78c.35.38-.09.72-.09.72s.88-.43.48-.97c-.38-.5-.67-.75.9-1.6zm.46 2.28c-.1 0-.2 0-.3.04-.08.03-.12.08-.12.08l.15-.03c.44-.09 1.06.54-.28 1.2 0 .02-.03.04-.03.04 1.57-.4 1.26-1.3.58-1.33zm-2.98.06c-.17 0-.57.04-1.03.25-.74.34 1.81.5 3.13.16.14-.09.33-.16.33-.16s-.54.09-1.08.13c-.66.05-1.36.06-1.72.02-.84-.1.46-.4.46-.4h-.09zm-.21.77c-1.21.38.67.81 2.37.34a.88.88 0 0 1-.3-.17c-.82.15-1.3.15-1.9.1-.48-.05-.17-.27-.17-.27zm.17.74c-1.1.3.67.9 2.07.33a2.5 2.5 0 0 1-.4-.19 4.3 4.3 0 0 1-1.47.07c-.47-.06-.2-.2-.2-.2zm-.71.5c-.47-.02-1.55.43-.63.57 2.86.44 5.2-.2 4.47-.52 0 0 .2.16-.23.28-.8.24-3.36.3-4.07.01-.26-.1.22-.25.37-.28.16-.03.25-.03.25-.03a.31.31 0 0 0-.16-.04zm4.29.4s-.09.22-1.06.4c-1.1.19-2.46.17-3.27.04 0 0 .17.13 1.02.18 1.28.08 3.26-.04 3.3-.62z" fill="#ff2a2a" fill-rule="evenodd"/></svg>