<?xml version="1.0" encoding="UTF-8" standalone="no"?>
<svg
   xmlns:dc="http://purl.org/dc/elements/1.1/"
   xmlns:cc="http://creativecommons.org/ns#"
   xmlns:rdf="http://www.w3.org/1999/02/22-rdf-syntax-ns#"
   xmlns:svg="http://www.w3.org/2000/svg"
   xmlns="http://www.w3.org/2000/svg"
   xmlns:sodipodi="http://sodipodi.sourceforge.net/DTD/sodipodi-0.dtd"
   xmlns:inkscape="http://www.inkscape.org/namespaces/inkscape"
   width="48"
   height="48"
   viewBox="0 0 12.7 12.7"
   version="1.1"
   id="svg4"
   sodipodi:docname="text-x-python.svg"
   inkscape:version="0.92.3 (2405546, 2018-03-11)">
  <metadata
     id="metadata10">
    <rdf:RDF>
      <cc:Work
         rdf:about="">
        <dc:format>image/svg+xml</dc:format>
        <dc:type
           rdf:resource="http://purl.org/dc/dcmitype/StillImage" />
        <dc:title></dc:title>
      </cc:Work>
    </rdf:RDF>
  </metadata>
  <defs
     id="defs8" />
  <sodipodi:namedview
     pagecolor="#ffffff"
     bordercolor="#666666"
     borderopacity="1"
     objecttolerance="10"
     gridtolerance="10"
     guidetolerance="10"
     inkscape:pageopacity="0"
     inkscape:pageshadow="2"
     inkscape:window-width="1366"
     inkscape:window-height="715"
     id="namedview6"
     showgrid="false"
     showguides="true"
     inkscape:guide-bbox="true"
     inkscape:snap-global="true"
     inkscape:zoom="3.8817216"
     inkscape:cx="24"
     inkscape:cy="24"
     inkscape:window-x="0"
     inkscape:window-y="27"
     inkscape:window-maximized="1"
     inkscape:current-layer="svg4" />
  <path
     inkscape:connector-curvature="0"
     style="opacity:1;fill:#216778;fill-opacity:1;fill-rule:nonzero;stroke:none;stroke-width:0.50711805;stroke-linecap:round;stroke-linejoin:bevel;stroke-miterlimit:4;stroke-dasharray:none;stroke-opacity:1"
     d="m 7.3492433,0.0566603 c -0.040983,0 -0.078161,0.0127642 -0.1049033,0.0330729 C 7.218411,0.1094229 7.202933,0.1367362 7.201965,0.1667311 7.3445127,0.2235372 7.4736634,0.30302596 7.5802366,0.40909358 7.76971,0.59766786 7.8931916,0.85276088 7.9104491,1.1392812 h 0.00672 v 0.068213 0.1441772 0.1369425 0.1927531 c 0,0.2812905 0.2266883,0.5079794 0.5079795,0.5079794 h 0.1183391 l -5.291e-4,0.00568 h 1.6924064 c 0.329951,0 0.613684,0.1491999 0.819072,0.3731038 V 1.141865 0.56463964 c 0,-0.14064565 -0.05654,-0.26789289 -0.148312,-0.35966798 C 10.814345,0.11319656 10.687101,0.0566603 10.546455,0.0566603 H 9.0462851 7.7864139 Z"
     id="path965" />
  <path
     style="opacity:1;fill:#333333;fill-opacity:1;fill-rule:nonzero;stroke:none;stroke-width:0.50711805;stroke-linecap:round;stroke-linejoin:bevel;stroke-miterlimit:4;stroke-dasharray:none;stroke-opacity:1"
     d="m 2.9460732,0.55206094 c -0.6285519,0 -1.134298,0.50626306 -1.134298,1.13481446 v 9.9012056 c 0,0.628551 0.5057461,1.134814 1.134298,1.134814 h 4.2855261 2.522327 c 0.6285527,0 1.1342987,-0.506263 1.1342987,-1.134814 V 3.6728008 h -0.01292 C 10.810197,3.1070068 10.337709,2.6687276 9.7539263,2.6687276 h -1.692403 v 0 l -0.11781,-0.00568 C 7.6627483,2.6495013 7.4357343,2.4363589 7.4357343,2.1550682 V 1.9623107 1.8253682 1.6811909 1.612978 h -0.0067 C 7.3941823,1.0346118 6.9321933,0.5804805 6.3510473,0.55464473 l -5.29e-4,-0.002585 h -0.02015 z"
     id="path833"
     inkscape:connector-curvature="0" />
  <path
     style="opacity:1;fill:#cccccc;fill-opacity:1;fill-rule:nonzero;stroke:none;stroke-width:0.50711805;stroke-linecap:round;stroke-linejoin:bevel;stroke-miterlimit:4;stroke-dasharray:none;stroke-opacity:1"
     d="m 6.4269983,1.0791605 c 0.263277,0.019482 0.470254,0.2359637 0.470255,0.504362 v 0.2563151 0.125057 0.092501 c 0,0.5757933 0.427721,1.0388807 0.982369,1.1136271 v 0 l 1.962134,0.026872 c 0.2812647,0.00385 0.5079787,0.2266886 0.5079797,0.5079793 V 5.7894678 11.68575 c 0,0.281291 -0.226688,0.50798 -0.5079797,0.50798 H 7.2315993 2.8582236 c -0.281291,0 -0.50798,-0.226689 -0.50798,-0.50798 V 1.5892069 c 0,-0.2812907 0.226689,-0.5079794 0.50798,-0.5079794 h 3.5692907 z"
     id="path901-5"
     inkscape:connector-curvature="0" />
  <path
     class="ColorScheme-Background"
     style="fill:#216778;fill-opacity:1;stroke:none;stroke-width:0.26458332"
     d="m 6.3167923,4.763265 v 7.754e-4 c -0.2563405,3.97e-5 -0.5003615,0.024192 -0.7155338,0.062019 -0.3254207,0.0568 -0.568909,0.145762 -0.7395861,0.3434295 C 4.6951044,5.3624727 4.6639861,5.6047942 4.6639861,5.8284602 V 6.2300269 H 4.4345169 c -0.5127857,0 -1.0166785,0.3616921 -1.1535369,0.9271722 -0.1328106,0.5455702 -0.1392619,0.9611485 0,1.532638 0.058536,0.2412101 0.1589306,0.4640028 0.3333506,0.6395619 0.1681058,0.1692081 0.428081,0.2814499 0.693067,0.2814103 h 0.3566109 v 0.4070047 c 0,0.265224 0.1393368,0.516515 0.3077712,0.667466 0.1766147,0.158134 0.3838481,0.250183 0.597726,0.312421 0.4765053,0.138646 0.9773031,0.164883 1.5489111,0 0.2020817,-0.05791 0.4082756,-0.141265 0.5891928,-0.297693 0.1713477,-0.148012 0.3170739,-0.408195 0.3170739,-0.682984 V 9.6100194 h 0.4046634 c 0.2553637,0 0.525207,-0.1275823 0.667465,-0.2922663 0.156443,-0.1809173 0.2305279,-0.3815777 0.3054439,-0.604672 H 9.401462 C 9.5646846,8.2284778 9.5548405,7.736254 9.4084398,7.1540872 9.3516327,6.9276032 9.2712709,6.7137012 9.1107475,6.5307992 8.9601828,6.3592494 8.6944149,6.2292294 8.4293108,6.2292294 H 8.0246474 V 5.8276625 c 0,-0.5416806 -0.4538407,-0.9232029 -0.9388012,-1.003143 h -7.74e-4 C 6.829692,4.7827228 6.5715334,4.7632745 6.3191295,4.7632745 h -0.00152 z m 7.739e-4,0.3977167 h 0.00152 c 0.2313697,0 0.4694799,0.018488 0.7023544,0.056592 0.3370863,0.05557 0.6070138,0.2963506 0.6070138,0.611658 v 1.3086155 c 0,0.3299221 -0.2599603,0.5945903 -0.589946,0.5945903 h -1.386134 c -0.5298519,0 -0.9713897,0.4428071 -0.9713897,0.9550757 V 9.2139128 H 4.3073519 c -0.1769359,0 -0.306619,-0.058608 -0.4116497,-0.1643499 C 3.7906748,8.9438635 3.7132699,8.7866887 3.6670072,8.5960389 3.536162,8.0590421 3.5415918,7.7657955 3.6670072,7.2509866 3.7679109,6.834178 4.0729802,6.6269049 4.4344982,6.6269049 h 1.9101906 c 0.05681,0 0.1031063,-0.045351 0.1031063,-0.1015561 V 6.3532466 c -6e-6,-0.056243 -0.046296,-0.1023317 -0.1031063,-0.1023317 H 5.0616705 V 5.829185 c 0,-0.1892925 0.024106,-0.3111915 0.1007836,-0.4000189 C 5.2391282,5.3403751 5.3865685,5.266904 5.6694442,5.217527 5.8629509,5.1836699 6.0870854,5.160973 6.3175388,5.1609348 Z M 5.5678974,5.4780556 c -0.1439722,0 -0.2651329,0.1225819 -0.2651329,0.2674584 1.5e-6,0.144361 0.1211697,0.2566029 0.2651329,0.2566029 0.1434474,0 0.2589283,-0.1122426 0.2589283,-0.2566029 0,-0.1448768 -0.115484,-0.2674584 -0.2589283,-0.2674584 z m 2.4412352,1.1488931 h 0.4201812 c 0.1759877,0 0.2898934,0.059745 0.3837463,0.1666758 0.093852,0.1069311 0.1631821,0.2680816 0.2108636,0.4581682 0.1361413,0.5413628 0.140852,0.9244727 0.00239,1.3357246 C 8.9574021,8.7927264 8.8858289,8.955941 8.796837,9.0588631 8.7078467,9.1618641 8.607282,9.213913 8.4293739,9.213913 H 6.344697 c -0.05681,0 -0.1023262,0.046127 -0.1023262,0.1023317 v 0.1775314 c 4.3e-6,0.056205 0.045516,0.1023317 0.1023262,0.1023317 h 1.2838068 v 0.4217302 c 0,0.169169 -0.067342,0.285761 -0.1798537,0.382967 -0.1125126,0.09729 -0.2728648,0.16874 -0.4387985,0.216291 -0.5091718,0.146186 -0.9029588,0.123879 -1.3287775,0 C 5.5077102,10.566645 5.3478255,10.489417 5.2368766,10.389948 5.1259142,10.290518 5.061672,10.174617 5.061672,10.017833 V 8.7092177 c 0,-0.3205945 0.2700895,-0.6008219 0.5907397,-0.6008219 h 1.386134 c 0.5216355,0 0.9705961,-0.4399494 0.9705961,-0.9705956 z M 7.1284411,9.8403168 c -0.1434475,0 -0.2597069,0.1169337 -0.2597069,0.2612542 0,0.144836 0.1162496,0.262033 0.2597069,0.262033 0.1439573,0 0.2597066,-0.117235 0.2597066,-0.262033 C 7.3881465,9.9572495 7.2724093,9.8403168 7.1284411,9.8403168 Z"
     id="c"
     inkscape:connector-curvature="0" />
</svg>
