<?xml version="1.0" encoding="UTF-8" standalone="no"?><svg xmlns:dc="http://purl.org/dc/elements/1.1/" xmlns:cc="http://creativecommons.org/ns#" xmlns:rdf="http://www.w3.org/1999/02/22-rdf-syntax-ns#" xmlns="http://www.w3.org/2000/svg" width="48" height="48" viewBox="0 0 12.7 12.7"><metadata><rdf:RDF><cc:Work><dc:format>image/svg+xml</dc:format><dc:type rdf:resource="http://purl.org/dc/dcmitype/StillImage"/><dc:title/></cc:Work></rdf:RDF></metadata><path d="M7.35.06a.17.17 0 0 0-.1.03.1.1 0 0 0-.05.08 1.12 1.12 0 0 1 .71.97v.55c0 .27.23.5.52.5h1.81c.33 0 .6.15.81.38V.56a.5.5 0 0 0-.5-.5H7.79z" fill="#d95f43"/><path d="M2.95.55c-.63 0-1.14.5-1.14 1.14v9.9c0 .63.5 1.13 1.14 1.13H9.75c.63 0 1.14-.5 1.14-1.13V3.67h-.01c-.07-.56-.54-1-1.13-1H7.94a.52.52 0 0 1-.5-.51V1.6h-.01A1.12 1.12 0 0 0 6.35.55h-.02z" fill="#333"/><path d="M6.43 1.08a.5.5 0 0 1 .47.5v.48c0 .57.42 1.04.98 1.11l1.96.03c.28 0 .51.22.51.5v7.99a.5.5 0 0 1-.5.5H2.85a.5.5 0 0 1-.51-.5V1.59c0-.28.23-.5.5-.5h3.58z" fill="#ccc"/><path d="M7.17 4.36c-.05-.02-1.08.68-1.13.69-.05 0-1.23-.41-1.28-.38-.04.02-.27 1.24-.3 1.28-.04.05-1.15.58-1.16.64-.02.05.68 1.08.69 1.13 0 .05-.4 1.23-.38 1.27.02.05 1.24.28 1.29.31.04.04.58 1.15.63 1.16.05.01 1.08-.68 1.13-.7.05 0 1.23.42 1.28.39.04-.03.27-1.25.3-1.29.04-.04 1.15-.58 1.16-.63.02-.05-.68-1.08-.69-1.13 0-.05.4-1.23.38-1.28-.02-.04-1.24-.27-1.29-.3-.04-.04-.58-1.15-.63-1.16zm-1.2 1.52h.76v1.53h-.76zm0 2.3h.76v.75h-.76z" style="marker:none" color="#000" overflow="visible" fill="#d95f43"/></svg>