<?xml version="1.0" encoding="UTF-8" standalone="no"?><svg xmlns:dc="http://purl.org/dc/elements/1.1/" xmlns:cc="http://creativecommons.org/ns#" xmlns:rdf="http://www.w3.org/1999/02/22-rdf-syntax-ns#" xmlns="http://www.w3.org/2000/svg" width="48" height="48" viewBox="0 0 12.7 12.7"><metadata><rdf:RDF><cc:Work><dc:format>image/svg+xml</dc:format><dc:type rdf:resource="http://purl.org/dc/dcmitype/StillImage"/><dc:title/></cc:Work></rdf:RDF></metadata><path d="M7.35.06a.17.17 0 0 0-.1.03.1.1 0 0 0-.05.08 1.12 1.12 0 0 1 .71.97v.55c0 .27.23.5.52.5h1.81c.33 0 .6.15.81.38V.56a.5.5 0 0 0-.5-.5H7.79z" fill="#216778"/><path d="M2.95.55c-.63 0-1.14.5-1.14 1.14v9.9c0 .63.5 1.13 1.14 1.13H9.75c.63 0 1.14-.5 1.14-1.13V3.67h-.01c-.07-.56-.54-1-1.13-1H7.94a.52.52 0 0 1-.5-.51V1.6h-.01A1.12 1.12 0 0 0 6.35.55h-.02z" fill="#333"/><path d="M6.43 1.08a.5.5 0 0 1 .47.5v.48c0 .57.42 1.04.98 1.11l1.96.03c.28 0 .51.22.51.5v7.99a.5.5 0 0 1-.5.5H2.85a.5.5 0 0 1-.51-.5V1.59c0-.28.23-.5.5-.5h3.58z" fill="#ccc"/><path style="line-height:normal;text-indent:0;text-align:start;text-decoration-line:none;text-transform:none;marker:none" d="M6.4 4.23c-.88-.01-1.82.33-2.1 1-.17.36-.02 1.03.54 1.03.33 0 .47-.21.5-.4.02-.15-.04-.28-.08-.4-.04-.14.13-.4.32-.51.16-.1.32-.12.34-.13.56-.13 1.12.17 1.36.53.23.36-.03.9-.4 1.44-.36.54-.76 1.14-.76 1.79 0 .24-.02.33 0 .43 0 .08.27.07.47.03-.02-.63.12-1.23.71-1.66.63-.49 1.23-1.1 1.16-1.8-.01-.7-.82-1.24-1.68-1.32a3.15 3.15 0 0 0-.38-.03zm-.06 5.65c-.54-.03-.91.58-.59.96.29.43 1.1.33 1.23-.16.15-.37-.2-.8-.64-.8z" fill="#216778"/></svg>