<?xml version="1.0" encoding="UTF-8" standalone="no"?><svg xmlns:dc="http://purl.org/dc/elements/1.1/" xmlns:cc="http://creativecommons.org/ns#" xmlns:rdf="http://www.w3.org/1999/02/22-rdf-syntax-ns#" xmlns="http://www.w3.org/2000/svg" width="48" height="48" viewBox="0 0 12.7 12.7"><metadata><rdf:RDF><cc:Work><dc:format>image/svg+xml</dc:format><dc:type rdf:resource="http://purl.org/dc/dcmitype/StillImage"/><dc:title/></cc:Work></rdf:RDF></metadata><path d="M7.45.02a.17.17 0 0 0-.11.03.1.1 0 0 0-.04.08 1.12 1.12 0 0 1 .7.97h.01v.55c0 .27.23.5.51.5H10.34c.32 0 .6.15.81.38V.52a.5.5 0 0 0-.5-.5H7.87z" fill="#214478"/><path d="M2.95.6c-.63 0-1.14.51-1.14 1.14v9.9c0 .63.5 1.14 1.14 1.14H9.75c.63 0 1.14-.5 1.14-1.14V3.73h-.01c-.07-.57-.54-1-1.13-1H8.06l-.12-.01a.52.52 0 0 1-.5-.5v-.55h-.01A1.12 1.12 0 0 0 6.35.6h-.02z" fill="#333"/><path d="M6.43 1.14a.5.5 0 0 1 .47.5v.48c0 .57.42 1.03.98 1.1l1.96.03c.28 0 .51.23.51.51v7.99a.5.5 0 0 1-.5.5H2.85a.5.5 0 0 1-.51-.5V1.64c0-.29.23-.51.5-.51h3.58z" fill="#ccc"/><path d="M2.83 2.27v1.06H3.9V2.27H2.83zm0 1.6v1.05H3.9V3.86H2.83zm5.96 0v1.05h1.06V3.86H8.79zM2.83 5.44V6.5H3.9V5.45H2.83zm5.96 0V6.5h1.06V5.45H8.79zM2.83 7.04v1.05H3.9V7.04H2.83zm5.96 0v1.05h1.06V7.04H8.79zM2.83 8.62v1.06H3.9V8.62H2.83zm5.96 0v1.06h1.06V8.62H8.79zm-5.96 1.6v1.05H3.9v-1.06H2.83zm5.96 0v1.05h1.06v-1.06H8.79z" color="#000" fill="#214478"/><path style="line-height:normal;text-indent:0;text-align:start;text-decoration-line:none;text-transform:none;marker:none" d="M6.35 6.13a1.28 1.28 0 0 0 0 2.55 1.28 1.28 0 0 0 0-2.55zm-.23.63a.12.12 0 0 1 .02 0 .12.12 0 0 1 .06.02l.76.53a.12.12 0 0 1 0 .2l-.76.52a.12.12 0 0 1-.13.01.12.12 0 0 1-.07-.1V6.88a.12.12 0 0 1 .12-.13z" fill="#214478"/></svg>