<?xml version="1.0" encoding="UTF-8" standalone="no"?>
<svg
   xmlns:dc="http://purl.org/dc/elements/1.1/"
   xmlns:cc="http://creativecommons.org/ns#"
   xmlns:rdf="http://www.w3.org/1999/02/22-rdf-syntax-ns#"
   xmlns:svg="http://www.w3.org/2000/svg"
   xmlns="http://www.w3.org/2000/svg"
   xmlns:sodipodi="http://sodipodi.sourceforge.net/DTD/sodipodi-0.dtd"
   xmlns:inkscape="http://www.inkscape.org/namespaces/inkscape"
   width="48"
   height="48"
   viewBox="0 0 12.7 12.7"
   version="1.1"
   id="svg4"
   sodipodi:docname="x-office-document.svg"
   inkscape:version="0.92.3 (2405546, 2018-03-11)">
  <metadata
     id="metadata10">
    <rdf:RDF>
      <cc:Work
         rdf:about="">
        <dc:format>image/svg+xml</dc:format>
        <dc:type
           rdf:resource="http://purl.org/dc/dcmitype/StillImage" />
        <dc:title></dc:title>
      </cc:Work>
    </rdf:RDF>
  </metadata>
  <defs
     id="defs8" />
  <sodipodi:namedview
     pagecolor="#ffffff"
     bordercolor="#666666"
     borderopacity="1"
     objecttolerance="10"
     gridtolerance="10"
     guidetolerance="10"
     inkscape:pageopacity="0"
     inkscape:pageshadow="2"
     inkscape:window-width="1366"
     inkscape:window-height="715"
     id="namedview6"
     showgrid="false"
     showguides="true"
     inkscape:guide-bbox="true"
     inkscape:snap-global="true"
     inkscape:zoom="10.979167"
     inkscape:cx="24"
     inkscape:cy="24"
     inkscape:window-x="0"
     inkscape:window-y="27"
     inkscape:window-maximized="1"
     inkscape:current-layer="svg4" />
  <path
     inkscape:connector-curvature="0"
     style="opacity:1;fill:#216778;fill-opacity:1;fill-rule:nonzero;stroke:none;stroke-width:0.50711805;stroke-linecap:round;stroke-linejoin:bevel;stroke-miterlimit:4;stroke-dasharray:none;stroke-opacity:1"
     d="m 7.4452731,0.01688326 c -0.040983,0 -0.078161,0.0127642 -0.1049033,0.0330729 -0.025929,0.0196897 -0.041407,0.047003 -0.042375,0.0769979 0.1425477,0.0568061 0.2716984,0.13629486 0.3782716,0.24236248 0.1894734,0.18857428 0.312955,0.44366748 0.3302125,0.73018816 h 0.00672 v 0.068213 0.1441772 0.1369425 0.1927531 c 0,0.2812905 0.2266883,0.5079794 0.5079795,0.5079794 h 0.1183391 l -5.291e-4,0.00568 h 1.6924026 c 0.329951,0 0.613684,0.1491999 0.819072,0.3731038 V 1.1020885 0.5248626 c 0,-0.14064565 -0.05654,-0.26789289 -0.148312,-0.35966798 -0.09178,-0.0917751 -0.219024,-0.14831136 -0.35967,-0.14831136 H 9.1423149 7.8824437 Z"
     id="path965" />
  <path
     style="opacity:1;fill:#333333;fill-opacity:1;fill-rule:nonzero;stroke:none;stroke-width:0.50711805;stroke-linecap:round;stroke-linejoin:bevel;stroke-miterlimit:4;stroke-dasharray:none;stroke-opacity:1"
     d="m 2.9460732,0.60831414 c -0.6285519,0 -1.134298,0.50626306 -1.134298,1.13481456 v 9.9012043 c 0,0.628551 0.5057461,1.134814 1.134298,1.134814 h 4.2855261 2.522327 c 0.6285527,0 1.1342987,-0.506263 1.1342987,-1.134814 V 3.7290541 h -0.01292 C 10.810197,3.1632601 10.337709,2.7249809 9.7539263,2.7249809 h -1.692403 v 0 l -0.11781,-0.00568 C 7.6627483,2.7057546 7.4357343,2.4926122 7.4357343,2.2113215 V 2.018564 1.8816215 1.7374442 1.6692313 h -0.0067 C 7.3941823,1.0908651 6.9321933,0.6367337 6.3510473,0.61089793 l -5.29e-4,-0.002585 h -0.02015 z"
     id="path833"
     inkscape:connector-curvature="0" />
  <path
     style="opacity:1;fill:#cccccc;fill-opacity:1;fill-rule:nonzero;stroke:none;stroke-width:0.50711805;stroke-linecap:round;stroke-linejoin:bevel;stroke-miterlimit:4;stroke-dasharray:none;stroke-opacity:1"
     d="m 6.4269983,1.1354138 c 0.263277,0.019482 0.470254,0.2359637 0.470255,0.504362 v 0.2563151 0.125057 0.092501 c 0,0.5757933 0.427721,1.0388807 0.982369,1.1136271 v 0 l 1.962134,0.026872 c 0.2812647,0.00385 0.5079787,0.2266886 0.5079797,0.5079793 v 2.0835938 5.8962809 c 0,0.281291 -0.226688,0.50798 -0.5079797,0.50798 H 7.2315993 2.8582236 c -0.281291,0 -0.50798,-0.226689 -0.50798,-0.50798 V 1.6454602 c 0,-0.2812907 0.226689,-0.5079794 0.50798,-0.5079794 h 3.5692907 z"
     id="path901-5"
     inkscape:connector-curvature="0" />
  <path
     style="opacity:1;fill:#216778;fill-opacity:1;stroke-width:0.99999994"
     d="M 22.148438 7.8398438 C 22.078911 7.9093698 22.009176 7.979302 21.957031 8.0488281 C 21.678927 8.3269325 21.522048 8.3964844 21.226562 8.3964844 C 21.017984 8.3964844 20.948971 8.3951082 20.236328 8.2734375 C 19.436778 8.1517668 19.001927 8.0996094 18.654297 8.0996094 C 17.854747 8.0996094 17.020057 8.499278 16.203125 9.2988281 C 15.281904 10.185286 14.882813 10.967451 14.882812 11.888672 C 14.882812 12.288447 14.933803 12.568201 15.125 13.072266 L 16.412109 12.376953 C 16.134005 11.560021 16.046875 11.159541 16.046875 10.759766 C 16.046875 9.7690187 16.793649 9.1777344 18.0625 9.1777344 C 18.253697 9.1777344 18.46369 9.1955091 18.707031 9.2128906 L 19.402344 9.2988281 L 19.662109 9.3164062 C 19.957595 9.3511693 20.097105 9.3519557 20.566406 9.3867188 L 17.558594 13.279297 C 16.82857 14.217899 15.682388 15.557649 15.230469 15.992188 C 14.535208 16.670067 14.014394 16.912109 13.214844 16.912109 C 12.919358 16.912109 12.762086 16.895305 12.449219 16.791016 L 11.789062 18.007812 C 12.188838 18.129483 12.396117 18.164062 12.708984 18.164062 C 13.890928 18.164062 14.691967 17.556251 16.986328 14.931641 C 18.359469 14.931641 19.384621 14.947855 20.0625 15 C 20.027737 15.208578 19.991991 15.418375 19.974609 15.626953 C 19.939846 15.852913 19.888082 16.181863 19.835938 16.546875 C 19.801174 16.877124 19.749803 17.207621 19.732422 17.259766 C 19.680277 17.555252 19.644531 17.833997 19.644531 18.007812 C 19.644531 18.216391 19.818962 18.390625 20.044922 18.390625 C 20.166593 18.390625 20.34025 18.372457 20.548828 18.320312 C 21.383141 18.163879 22.218421 18.008193 23.052734 17.869141 L 23.330078 17.451172 C 23.156263 17.468553 22.981832 17.486328 22.929688 17.486328 C 22.39086 17.538473 22.303692 17.539062 22.042969 17.539062 C 21.365089 17.539062 21.158203 17.364213 21.158203 16.755859 C 21.158203 15.660823 21.851798 10.72519 22.390625 8.0136719 L 22.148438 7.8398438 z M 20.878906 9.8203125 L 20.166016 14.21875 L 17.525391 14.21875 L 20.878906 9.8203125 z M 11.40625 22.785156 L 11.40625 26.603516 L 36.59375 26.603516 L 36.59375 22.785156 L 11.40625 22.785156 z M 11.40625 30.421875 L 11.40625 34.240234 L 36.59375 34.240234 L 36.59375 30.421875 L 11.40625 30.421875 z M 11.40625 38.058594 L 11.40625 41.876953 L 29.724609 41.876953 L 29.724609 38.058594 L 11.40625 38.058594 z "
     transform="scale(0.26458333)"
     id="path819" />
</svg>
