<svg xmlns="http://www.w3.org/2000/svg" xmlns:xlink="http://www.w3.org/1999/xlink" width="64" height="64" version="1"><defs><linearGradient id="c"><stop offset="0"/><stop offset=".5" stop-color="#333"/><stop offset="1" stop-color="#666"/></linearGradient><linearGradient id="d"><stop offset="0"/><stop offset=".5" stop-color="#333"/><stop offset="1" stop-color="#666"/></linearGradient><linearGradient id="f"><stop offset="0"/><stop offset=".5" stop-color="#333"/><stop offset="1" stop-color="#666"/></linearGradient><linearGradient id="g"><stop offset="0"/><stop offset=".5" stop-color="#333"/><stop offset="1" stop-color="#666"/></linearGradient><linearGradient id="j"><stop offset="0"/><stop offset=".5" stop-color="#333"/><stop offset="1" stop-color="#666"/></linearGradient><linearGradient id="i"><stop offset="0" stop-color="#fff"/><stop offset="1" stop-opacity="0"/></linearGradient><linearGradient id="m"><stop offset="0"/><stop offset=".5" stop-color="#333"/><stop offset="1" stop-color="gray"/></linearGradient><linearGradient id="l"><stop offset="0"/><stop offset=".5" stop-color="#333"/><stop offset="1" stop-color="gray"/></linearGradient><linearGradient id="h"><stop offset="0" stop-color="#fff"/><stop offset="1" stop-color="#fff" stop-opacity="0"/></linearGradient><linearGradient id="a"><stop offset="0"/><stop offset="1" stop-opacity="0"/></linearGradient><linearGradient id="b"><stop offset="0"/><stop offset=".5" stop-color="#333"/><stop offset="1" stop-color="#666"/></linearGradient><linearGradient id="k"><stop offset="0"/><stop offset=".5" stop-color="#333"/><stop offset="1" stop-color="gray"/></linearGradient><linearGradient id="e"><stop offset="0" stop-color="#2e3436"/><stop offset="1" stop-color="#2e3436" stop-opacity="0"/></linearGradient><linearGradient id="w" x1="13.66" x2="13.69" y1="37" y2="33.56" gradientTransform="matrix(.98892 0 0 1.28603 3.58 14.05)" gradientUnits="userSpaceOnUse" xlink:href="#b"/><linearGradient id="v" x1="13.66" x2="13.69" y1="37" y2="33.56" gradientTransform="matrix(.98892 0 0 1.28603 3.58 10.19)" gradientUnits="userSpaceOnUse" xlink:href="#c"/><linearGradient id="u" x1="13.66" x2="13.69" y1="37" y2="33.56" gradientTransform="matrix(.98892 0 0 1.28603 3.58 6.33)" gradientUnits="userSpaceOnUse" xlink:href="#d"/><linearGradient id="t" x1="-3.48" x2="-11.97" y1="39.66" y2="39.8" gradientTransform="matrix(1.36863 0 0 1.36863 .62 -1.36)" gradientUnits="userSpaceOnUse"><stop offset="0" stop-color="#a00"/><stop offset="1"/></linearGradient><linearGradient id="s" x1="13.66" x2="13.69" y1="37" y2="33.56" gradientTransform="matrix(.98892 0 0 1.28603 3.58 2.47)" gradientUnits="userSpaceOnUse" xlink:href="#f"/><linearGradient id="r" x1="14" x2="14" y1="36.69" y2="34.31" gradientTransform="matrix(.98892 0 0 1.28603 3.58 -1.38)" gradientUnits="userSpaceOnUse" xlink:href="#g"/><linearGradient id="q" x1="40.57" x2="40.57" y1="37.35" y2="27.54" gradientTransform="matrix(1.29327 0 0 1.33607 -.22 1.76)" gradientUnits="userSpaceOnUse" xlink:href="#j"/><linearGradient id="p" x1="31.17" x2="33.81" y1="34.23" y2="24.38" gradientTransform="matrix(1.44753 0 0 1.30754 -5.02 2.94)" gradientUnits="userSpaceOnUse" xlink:href="#k"/><linearGradient id="o" x1="8.57" x2="22.4" y1="11.26" y2="13" gradientTransform="matrix(1.36244 0 0 1.34041 -1.6 .82)" gradientUnits="userSpaceOnUse" xlink:href="#l"/><linearGradient id="n" x1="14.27" x2="33.6" y1="15.04" y2="20.21" gradientTransform="matrix(1.31343 0 0 1.37857 -1.31 .47)" gradientUnits="userSpaceOnUse" xlink:href="#m"/></defs><path d="M9.13 19.08H40.9c10.76 0 12.29 2.81 12.29 2.81s-1.76 5.46-22.63 5.46H9.13c-2.51 0-4.53-1.85-4.53-4.14 0-2.29 2.02-4.13 4.53-4.13z" fill="url(#n)"/><path d="M8.36 18.2a5.64 5.64 0 0 0 .03 8.1 5.83 5.83 0 0 0 8.19 0l5.63-5.55a38.75 38.75 0 0 0 5.81-6.96l-1.17-1.15-2.96 2.9c-.66.66-1.74.66-2.4 0l-.43-.42a1.65 1.65 0 0 1 0-2.37l4.52-4.44a1.46 1.46 0 0 1 2.05 0l2.08 2.05c1.08-3.16.96-7.38-.26-8.59-1.26-1.23-6.38 1.96-8.66 4.2L8.36 18.2z" fill="url(#o)"/><path d="M44.92 54V40.3c0-8.87-2.9-9.84-2.9-9.84s-4.33 2.74-4.33 13.04v10.52c0 2.13 1.61 3.84 3.62 3.84 2 0 3.61-1.71 3.61-3.84z" fill="url(#p)"/><path d="M37.93 52.2c-1.87 1.93-1.52 4.1 0 5.67 1.52 1.57 4.24 1.28 6.11-.65L57.81 43a16.12 16.12 0 0 0 3.66-6.61l-2.75-2.84s-2.76.7-5.2 2.66c-1.82 2.72-.53 6.1-3.03 8.68-1.26 1.3-2-.03-3.28-1.34a3.3 3.3 0 0 1-.4-.53l-8.88 9.18z" fill="url(#q)"/><path d="M17.82 34.59C3.52 48.66 2.53 49.29 2.53 54.23L21.14 36.6l-3.32-2z" fill="#1a1a1a" fill-rule="evenodd"/><path d="M16.93 45.55c1.1 0 .99-.64.99-1.92v-5.8" fill="none" stroke="url(#r)" stroke-width="1.86" stroke-linecap="round" stroke-linejoin="round" stroke-dashoffset=".7"/><path d="M16.93 49.41c1.1 0 1.98-.64 1.98-1.93 0-1.28-.89-1.93-1.98-1.93" fill="none" stroke="url(#s)" stroke-width="1.86" stroke-linecap="round" stroke-linejoin="round" stroke-dashoffset=".7"/><rect transform="scale(.98776 1.01209) rotate(-45)" x="-15.1" y="17.66" width="11.55" height="54.24" rx="4.36" ry="4.36" fill="url(#t)"/><path d="M19.45 10.09l5.6-5.63c1.12 1.26-2.74 5.24-5.6 5.63zM39.85 21.04h7.86c-.1 1.62-5.65 1.67-7.86 0zM59.62 38.62l-5.32 5.61c-1.06-1.25 2.61-5.22 5.32-5.6z" fill-rule="evenodd"/><path d="M16.93 53.27c1.1 0 1.98-.64 1.98-1.93s-.89-1.93-1.98-1.93" fill="none" stroke="url(#u)" stroke-width="1.86" stroke-linecap="round" stroke-linejoin="round" stroke-dashoffset=".7"/><path d="M16.93 57.13c1.1 0 1.98-.65 1.98-1.93 0-1.29-.89-1.93-1.98-1.93" fill="none" stroke="url(#v)" stroke-width="1.86" stroke-linecap="round" stroke-linejoin="round" stroke-dashoffset=".7"/><path d="M16.93 60.99c1.1 0 1.98-.65 1.98-1.93 0-1.29-.89-1.93-1.98-1.93" fill="none" stroke="url(#w)" stroke-width="1.86" stroke-linecap="round" stroke-linejoin="round" stroke-dashoffset=".7"/><path d="M18.33 61.47a2.06 2.06 0 0 0-1.4-.48" fill="none" stroke="#666" stroke-width="1.86" stroke-linecap="round" stroke-linejoin="round" stroke-dashoffset=".7"/><path d="M14.16 26.31l-1.29 1.3 1.3 1.29-1.3 1.3 1.3 1.28 1.29-1.29 1.29 1.3 1.3-1.3-1.3-1.29 1.3-1.3-1.3-1.29-1.3 1.3z" opacity=".8" fill="#fff"/></svg>