<svg xmlns="http://www.w3.org/2000/svg" xmlns:xlink="http://www.w3.org/1999/xlink" width="64" height="64" version="1"><defs><linearGradient id="y"><stop offset="0"/><stop offset=".5" stop-color="#1a1a1a"/><stop offset=".75" stop-color="#333"/><stop offset="1" stop-color="#333"/></linearGradient><linearGradient id="w"><stop offset="0" stop-color="#333"/><stop offset=".25" stop-color="#666"/><stop offset=".5" stop-color="gray"/><stop offset=".63" stop-color="gray"/><stop offset=".75" stop-color="#666"/><stop offset="1" stop-color="#333"/></linearGradient><linearGradient id="x"><stop offset="0" stop-color="#333"/><stop offset="1"/></linearGradient><linearGradient id="f"><stop offset="0" stop-color="#fff"/><stop offset="1" stop-color="#fff" stop-opacity="0"/></linearGradient><linearGradient id="e"><stop offset="0" stop-color="#fcfcfc"/><stop offset=".52" stop-color="#f8f8f8"/><stop offset=".72" stop-color="#f0efef"/><stop offset=".89" stop-color="#e3e1e1"/><stop offset="1" stop-color="#cecbcb"/></linearGradient><linearGradient id="d"><stop offset="0" stop-color="#fcfcfc"/><stop offset=".52" stop-color="#f8f8f8"/><stop offset=".77" stop-color="#f0efef"/><stop offset=".9" stop-color="#e3e1e1"/><stop offset="1" stop-color="#cecbcb"/></linearGradient><linearGradient id="b"><stop offset="0" stop-color="#fff"/><stop offset="1" stop-color="#fff" stop-opacity="0"/></linearGradient><linearGradient id="a"><stop offset="0" stop-color="#eeecec"/><stop offset=".4" stop-color="#f4f4f4"/><stop offset="1" stop-color="#f6f5f5"/></linearGradient><linearGradient xlink:href="#d" id="c" gradientUnits="userSpaceOnUse" gradientTransform="matrix(1.01199 0 0 1.01199 -.9 -.99)" x1="86.74" y1="93.62" x2="95.46" y2="102.34"/><linearGradient gradientTransform="matrix(1.12467 0 0 1.12467 -8.34 -13.68)" y2="64" x2="111" y1="64" x1="17" gradientUnits="userSpaceOnUse" id="g" xlink:href="#h"/><linearGradient id="r"><stop offset="0" stop-color="#f7f7f7"/><stop offset=".5" stop-color="#f4f4f4"/><stop offset=".75" stop-color="#efefef"/><stop offset="1" stop-color="#cbcbcb"/></linearGradient><linearGradient id="p"><stop offset="0" stop-color="#ada8a4"/><stop offset=".25" stop-color="#e2dedb"/><stop offset=".5" stop-color="#ece9e4"/><stop offset=".63" stop-color="#fff"/><stop offset=".75" stop-color="#e0ddd9"/><stop offset="1" stop-color="#ccc5bb"/></linearGradient><linearGradient id="k"><stop offset="0" stop-color="#fff"/><stop offset=".5" stop-color="#eee" stop-opacity=".65"/><stop offset="1" stop-color="#dedede" stop-opacity="0"/></linearGradient><linearGradient id="z"><stop offset="0" stop-opacity="0"/><stop offset="1"/></linearGradient><linearGradient id="i"><stop offset="0"/><stop offset="1" stop-opacity="0"/></linearGradient><linearGradient id="j"><stop offset="0"/><stop offset="1" stop-opacity="0"/></linearGradient><linearGradient id="m"><stop offset="0" stop-color="#f5f5f5"/><stop offset="1" stop-color="#d0d2cb"/></linearGradient><linearGradient xlink:href="#m" id="l" gradientUnits="userSpaceOnUse" gradientTransform="translate(0 54.98)" x1="91.18" y1="425.96" x2="91.18" y2="354.96"/><filter id="o"><feGaussianBlur stdDeviation=".18"/></filter><linearGradient xlink:href="#p" id="n" gradientUnits="userSpaceOnUse" gradientTransform="translate(238.2 3.52)" x1="38.84" y1="329.2" x2="191.49" y2="329.2"/><linearGradient xlink:href="#r" id="q" gradientUnits="userSpaceOnUse" x1="896.7" y1="334.95" x2="912.87" y2="406.61"/><linearGradient id="A"><stop offset="0" stop-color="#1a1a1a"/><stop offset=".5"/><stop offset="1" stop-color="#1a1a1a"/></linearGradient><linearGradient id="h"><stop offset="0"/><stop offset=".15" stop-color="#fff"/><stop offset=".85" stop-color="#fff"/><stop offset="1"/></linearGradient><linearGradient id="v"><stop offset="0" stop-color="#520"/><stop offset="1" stop-color="#c87137"/></linearGradient><radialGradient xlink:href="#b" id="t" gradientUnits="userSpaceOnUse" gradientTransform="matrix(2.01747 -.10098 .08249 1.64814 116.94 3.16)" cx="64" cy="64" fx="63.79" fy="47.27" r="47.5"/><radialGradient xlink:href="#b" id="s" gradientUnits="userSpaceOnUse" gradientTransform="matrix(1.43556 -.07185 .0587 1.17275 129.48 -8.96)" cx="64" cy="64" fx="63.79" fy="47.27" r="47.5"/><linearGradient xlink:href="#u" id="P" gradientUnits="userSpaceOnUse" gradientTransform="translate(18.45 -8.54)" spreadMethod="reflect" x1="63.18" y1="36.11" x2="64.05" y2="9.66"/><linearGradient id="u"><stop offset="0" stop-color="#b3b3b3"/><stop offset="1" stop-color="#ececec"/></linearGradient><filter id="Q" height="1.15" y="-.08" width="1.36" x="-.18"><feGaussianBlur stdDeviation="1.33"/></filter><linearGradient xlink:href="#v" id="N" gradientUnits="userSpaceOnUse" x1="286.51" y1="337.91" x2="420.61" y2="337.91"/><filter id="O"><feGaussianBlur stdDeviation=".18"/></filter><linearGradient xlink:href="#w" id="L" gradientUnits="userSpaceOnUse" gradientTransform="translate(238.2 3.52)" x1="38.84" y1="329.2" x2="191.49" y2="329.2"/><filter id="M"><feGaussianBlur stdDeviation=".5"/></filter><clipPath id="J"><path d="M353.21-62.55c-43.22 0-78.28 11.69-78.28 26.1 0 14.4 35.06 31 78.28 31s78.31-16.6 78.31-31c0-14.41-35.09-26.1-78.31-26.1z" fill="#fff" stroke-width="4" stroke-dashoffset="1.09"/></clipPath><filter id="K"><feGaussianBlur stdDeviation=".76"/></filter><radialGradient xlink:href="#f" id="I" gradientUnits="userSpaceOnUse" gradientTransform="matrix(.26113 .02378 -.09443 1.0482 37.26 -300.47)" cx="189.81" cy="375.15" fx="189.81" fy="375.15" r="27.06"/><linearGradient xlink:href="#x" id="H" gradientUnits="userSpaceOnUse" gradientTransform="matrix(.2622 0 0 .2636 9.43 3.07)" x1="85.44" y1="471.89" x2="91.18" y2="354.96"/><clipPath id="F"><path d="M879.97 354.98l-.5 4.93 5.42-3.45c3.13-10.7 21.65-13.68 25.1-4.18 8.46 23.35-31.73 37.58-45.03 42.81l-10.1 16.74c24.18-8.14 71.81-23.56 64.97-62.26-1.95-11.04-20.43-20.95-36.66-9.6z" fill="url(#q)" fill-rule="evenodd"/></clipPath><filter id="G" x="-.04" width="1.07" y="-.03" height="1.07" color-interpolation-filters="sRGB"><feGaussianBlur stdDeviation=".99"/></filter><linearGradient xlink:href="#y" id="E" gradientUnits="userSpaceOnUse" gradientTransform="matrix(.2622 0 0 .2636 -179.24 .68)" x1="896.7" y1="334.95" x2="912.87" y2="406.61"/><linearGradient xlink:href="#f" id="D" gradientUnits="userSpaceOnUse" gradientTransform="matrix(.2622 0 0 .22194 1.63 17.27)" x1="185.82" y1="466.02" x2="82.1" y2="399.2"/><radialGradient xlink:href="#z" id="C" gradientUnits="userSpaceOnUse" gradientTransform="matrix(.2622 0 0 .10564 1.63 66.28)" cx="113.77" cy="421.47" fx="113.77" fy="421.47" r="102.65"/><linearGradient xlink:href="#A" id="B" gradientUnits="userSpaceOnUse" gradientTransform="translate(-3.5 65.32) scale(.55785)" x1="9.67" y1="83.48" x2="117" y2="83.48"/></defs><path d="M31.83 99.66c-16.53 0-29.94 4.15-29.94 10.9s12.36 13.57 28.89 13.57c21.3 0 30.71-9.38 30.71-13.52 0-5.32-13.14-10.95-29.66-10.95z" fill="url(#B)" transform="translate(0 -64)"/><path d="M31.46 99.97c-14.85 0-26.91 3.67-26.91 9.66s12.06 12.02 26.91 12.02c14.86 0 26.92-6.03 26.92-12.02 0-5.99-12.06-9.66-26.92-9.66z" opacity=".23" fill="url(#C)" transform="translate(0 -64)"/><path d="M31.46 99.97c-14.85 0-26.91 3.67-26.91 9.66s12.06 12.02 26.91 12.02c14.86 0 26.92-6.03 26.92-12.02 0-5.99-12.06-9.66-26.92-9.66z" opacity=".11" fill="url(#D)" transform="translate(0 -64)"/><path d="M51.48 94.25l-.12 1.3 1.41-.9c.83-2.83 5.68-3.61 6.59-1.1 2.21 6.15-8.32 9.9-11.81 11.28l-2.65 4.4c6.34-2.14 18.83-6.2 17.04-16.4-.51-2.91-5.36-5.52-9.62-2.53z" fill="url(#E)" fill-rule="evenodd" transform="translate(0 -64)"/><path d="M879.47 354l-.49 4.92 5.42-3.44c3.12-10.7 22.14-12.7 25.59-3.2 8.46 23.35-29.27 39.8-42.57 45.03l-13.54 12.55c23.94-9.44 65.99-19.97 63.24-55.37-.86-11.17-19.45-18.73-35.68-7.38z" clip-path="url(#F)" transform="matrix(.2622 0 0 .2636 -179.24 -63.32)" opacity=".17" fill="#fff" fill-rule="evenodd" filter="url(#G)"/><path d="M11.26 88.26c0 11.75 4.61 20.25 12.77 26.05 1.18 2.06 5.1 2.83 7.8 2.83s6.61-.77 7.8-2.83c8.15-5.8 12.76-14.3 12.76-26.05l-20.56.6z" fill="url(#H)" fill-rule="evenodd" transform="translate(0 -64)"/><path d="M51.4 91.3c.08 10.57-9.52 21.43-12.93 22.7l-1.26.26c5.23-5.33 11.64-9.32 14.19-22.96z" opacity=".71" fill="url(#I)" fill-rule="evenodd" transform="translate(0 -64)"/><path d="M353.21-63.25c-43.8 0-79.32 11.85-79.32 26.45s35.52 26.47 79.32 26.47c43.8 0 79.36-11.87 79.36-26.47S397-63.25 353.2-63.25z" clip-path="url(#J)" transform="matrix(.26267 0 0 .26433 -60.95 33.86)" filter="url(#K)"/><path d="M353.35 309.56c-42.13 0-76.31 10.37-76.31 23.15 0 12.77 34.18 23.17 76.31 23.17 42.14 0 76.34-10.4 76.34-23.17 0-12.78-34.2-23.15-76.34-23.15z" transform="matrix(.26303 0 0 .2574 -60.95 -61.52)" fill="url(#L)" filter="url(#M)"/><path d="M353.55 320.66c-36.4 0-66 10-67.04 22.47 13 7.17 38.15 12.03 67.04 12.03 28.88 0 54.05-4.86 67.06-12.03-1.04-12.46-30.67-22.47-67.06-22.47z" transform="matrix(.2622 0 0 .2636 -60.82 -63.53)" opacity=".88" fill="url(#N)" filter="url(#O)"/><path d="M73.8 1.12c2.8 5.5 6.24 11.57 4.06 17.28-2.44 6.36-9.59 6.7-8 16.16.4 2.42 1.74 5.7 3.3 8.47h3.88a20.54 20.54 0 0 1-1.4-3.88c-1.1-4.78.27-9.25 4.68-11.53-1.02 2.03-2.3 4.25-1.5 6.34.9 2.34 3.52 2.47 2.94 5.94-.15.9-.64 2.11-1.22 3.13h2.16c1.63-3.33 3.1-7.51 3.81-10.5 2.99-13.02-.7-25.2-12.72-31.4z" transform="matrix(.48255 0 0 .48255 .22 4.88)" opacity=".8" fill="url(#P)" fill-rule="evenodd" filter="url(#Q)"/></svg>