<svg xmlns="http://www.w3.org/2000/svg" xmlns:xlink="http://www.w3.org/1999/xlink" version="1" width="64" height="64"><defs><linearGradient id="a"><stop offset="0" stop-color="#fff"/><stop offset="1" stop-color="#fff" stop-opacity="0"/></linearGradient><linearGradient id="b"><stop offset="0" stop-color="#fff"/><stop offset="1" stop-color="#fff" stop-opacity="0"/></linearGradient><linearGradient id="c"><stop offset="0" stop-color="#fff"/><stop offset=".32" stop-color="#fff" stop-opacity="0"/><stop offset="1" stop-color="#fff" stop-opacity="0"/></linearGradient><linearGradient id="d"><stop offset="0"/><stop offset="1" stop-opacity="0"/></linearGradient><linearGradient id="e"><stop offset="0"/><stop offset=".15" stop-color="#333"/><stop offset=".42" stop-color="#666"/><stop offset=".57"/><stop offset=".79" stop-color="#333"/><stop offset="1" stop-color="gray"/></linearGradient><linearGradient id="f"><stop offset="0"/><stop offset="1" stop-opacity="0"/></linearGradient><linearGradient id="g"><stop offset="0" stop-color="#fff"/><stop offset="1" stop-color="#fff" stop-opacity="0"/></linearGradient><linearGradient id="h"><stop offset="0" stop-color="#111"/><stop offset=".14" stop-color="#6e6e70"/><stop offset=".57" stop-color="#101010"/><stop offset="1" stop-color="#0d0d0d"/></linearGradient><linearGradient id="i"><stop offset="0"/><stop offset=".39" stop-color="#333"/><stop offset=".83" stop-color="#666"/><stop offset="1"/></linearGradient><linearGradient id="j"><stop offset="0"/><stop offset="1" stop-color="#2a2a2a" stop-opacity=".3"/></linearGradient><linearGradient id="l"><stop offset="0"/><stop offset="1" stop-opacity="0"/></linearGradient><linearGradient id="m"><stop offset="0" stop-color="#020202"/><stop offset="1" stop-color="#020202" stop-opacity="0"/></linearGradient><linearGradient id="n"><stop offset="0"/><stop offset=".67" stop-color="#333"/><stop offset="1"/></linearGradient><linearGradient id="k"><stop offset="0"/><stop offset="1" stop-opacity="0"/></linearGradient><linearGradient id="o"><stop offset="0" stop-color="#333"/><stop offset=".71" stop-color="#666"/><stop offset="1" stop-color="#333"/></linearGradient><linearGradient id="p"><stop offset="0"/><stop offset="1" stop-opacity="0"/></linearGradient><linearGradient x1="62.99" y1="46.47" x2="118.03" y2="62.35" id="u" xlink:href="#i" gradientUnits="userSpaceOnUse" gradientTransform="matrix(-.46752 -.32336 -.32567 .46996 95.2 13.67)"/><linearGradient x1="34.91" y1="94.73" x2="55.09" y2="94.73" id="t" xlink:href="#n" gradientUnits="userSpaceOnUse" gradientTransform="matrix(-.46752 -.32336 -.32567 .46996 70.03 14.26)"/><linearGradient x1="-70.59" y1="67.75" x2="-59.58" y2="67.75" id="s" xlink:href="#o" gradientUnits="userSpaceOnUse" gradientTransform="matrix(.56845 0 0 .57177 -3.05 -37.77)"/><linearGradient xlink:href="#q" id="r" x1="191.46" y1="16.69" x2="222.35" y2="41.44" gradientUnits="userSpaceOnUse" gradientTransform="matrix(.48318 0 0 .48318 -48.13 1)"/><linearGradient id="q"><stop offset="0" stop-color="gray"/><stop offset=".43"/><stop offset=".69" stop-color="#4d4d4d"/><stop offset="1"/></linearGradient></defs><path d="M49.78 7.06c-6.42.8-8.42 6.47-10.8 10.81l.76.58c3.24-3.09 6.98-3.43 9.94-2.47l3.58 4.8 3.08 1.8a28.62 28.62 0 0 0 4.57-6.83l-2.8-2.12-5.04-1.74a16.93 16.93 0 0 0-1.69-3.65c-.46-.64-.99-1.1-1.6-1.18z" fill="url(#r)" fill-rule="evenodd"/><rect transform="matrix(-.82245 -.56884 -.56958 .82194 0 0)" y="-7.47" x="-43.17" ry="0" height="14.29" width="6.25" fill="url(#s)"/><path d="M32.29 31.53c-.39.8-5.56 9.67-8.07 13.61-5.02 7.88-11.35 16.68-11.35 16.68a2.4 2.4 0 0 1-3.34.6l-5.4-3.74a2.39 2.39 0 0 1-.61-3.33s6.03-9 11.58-16.51a476 476 0 0 1 9.73-12.47c.59-.67 1.17-.85 1.79-.43l5.42 3.75c.52.36.7.9.25 1.84z" fill="url(#t)"/><path d="M49.18 6.55c.6.45 1.19.92 1.76 1.42-.5 1.04-2.2 3.06-2.91 3.9-.48.55-2.77.42-3.39.89-1.96 1.46-3.51 3.75-5.4 5.33l-4.2-2.77c-.25.06-.27.09 0 0-.27.09.01-.01 0 0l-.34-.44s2.47-4.29.23-6.1c-5.06-4.1-14.4-1.64-15.24-.98l.83-3.29.15-.07c8.28-5.3 20.3-3.92 28.5 2.11z" fill="url(#u)" fill-rule="evenodd"/><path d="M35.04 15.32l-.48-.4s2.67-4.29.43-6.1c-5.38-4.36-15.03-1.21-15.2-.96l.85-3.26s9.4-3.82 15.12.22c3.97 2.8 1.22 8.45-.72 10.5z" fill="#111" fill-rule="evenodd"/></svg>