<svg xmlns="http://www.w3.org/2000/svg" xmlns:xlink="http://www.w3.org/1999/xlink" width="64" height="64"><defs><linearGradient id="a"><stop offset="0" stop-color="#9f9f9f"/><stop offset="1" stop-color="#cfcfcf"/></linearGradient><linearGradient id="b"><stop offset="0" stop-color="#a1a1a1"/><stop offset="1" stop-color="#cfcfcf"/></linearGradient><linearGradient id="c"><stop offset="0"/><stop offset=".67" stop-color="#333"/><stop offset=".83" stop-color="#4d4d4d"/><stop offset="1"/></linearGradient><linearGradient id="d"><stop offset="0"/><stop offset=".79" stop-color="#333"/><stop offset=".85" stop-color="#4d4d4d"/><stop offset="1"/></linearGradient><linearGradient id="e"><stop offset="0"/><stop offset=".76" stop-color="#333"/><stop offset=".83" stop-color="#4d4d4d"/><stop offset="1"/></linearGradient><linearGradient id="f"><stop offset="0" stop-color="#4a4a4a"/><stop offset=".5" stop-color="#fff"/><stop offset="1" stop-color="#4a4a4a"/></linearGradient><linearGradient gradientTransform="matrix(.47809 0 -.2478 .40886 .2 -.47)" gradientUnits="userSpaceOnUse" id="j" x1="43.68" x2="43.63" xlink:href="#a" y1="24.32" y2="14.44"/><linearGradient gradientTransform="matrix(.47809 0 -.21807 .40886 3.37 -.53)" gradientUnits="userSpaceOnUse" id="k" x1="43.48" x2="43.54" xlink:href="#b" y1="21.69" y2="13.71"/><linearGradient gradientTransform="matrix(.47809 0 -.15827 .40886 6.19 -.4)" gradientUnits="userSpaceOnUse" id="l" x1="43.48" x2="43.54" xlink:href="#b" y1="21.69" y2="13.71"/><linearGradient gradientTransform="matrix(.47809 0 0 .47809 .2 -.47)" gradientUnits="userSpaceOnUse" id="m" x1="21.52" x2="57.01" xlink:href="#c" y1="72.28" y2="72.28"/><linearGradient gradientTransform="matrix(.47809 0 -.15328 .44375 13.7 -.73)" gradientUnits="userSpaceOnUse" id="n" x1="43.48" x2="43.54" xlink:href="#b" y1="21.69" y2="13.71"/><linearGradient gradientTransform="matrix(.47809 0 -.12837 .44375 17.13 -.67)" gradientUnits="userSpaceOnUse" id="o" x1="43.48" x2="43.54" xlink:href="#b" y1="21.69" y2="13.71"/><linearGradient gradientTransform="matrix(.47809 0 -.08351 .45122 20.3 -.74)" gradientUnits="userSpaceOnUse" id="p" x1="43.48" x2="43.54" xlink:href="#b" y1="21.69" y2="13.71"/><linearGradient gradientTransform="matrix(.47809 0 0 .47809 .2 -.47)" gradientUnits="userSpaceOnUse" id="q" x1="55.2" x2="87.38" xlink:href="#d" y1="73.18" y2="73.18"/><linearGradient gradientTransform="matrix(.47809 0 -.09348 .44375 26.39 -.28)" gradientUnits="userSpaceOnUse" id="r" x1="43.48" x2="43.54" xlink:href="#b" y1="21.69" y2="13.71"/><linearGradient gradientTransform="matrix(.47809 0 -.01872 .44375 28.94 -.28)" gradientUnits="userSpaceOnUse" id="s" x1="43.48" x2="43.54" xlink:href="#b" y1="21.69" y2="13.71"/><linearGradient gradientTransform="matrix(.47809 0 .01118 .44375 32.28 -.34)" gradientUnits="userSpaceOnUse" id="t" x1="43.48" x2="43.54" xlink:href="#b" y1="21.69" y2="13.71"/><linearGradient gradientTransform="matrix(.47809 0 0 .47809 .2 -.47)" gradientUnits="userSpaceOnUse" id="u" x1="86.78" x2="118.06" xlink:href="#e" y1="73.78" y2="73.78"/><filter height="1.13" id="v" width="2.27" x="-.63" y="-.07" color-interpolation-filters="sRGB"><feGaussianBlur stdDeviation=".4"/></filter><filter id="w" color-interpolation-filters="sRGB"><feGaussianBlur stdDeviation=".22"/></filter><linearGradient xlink:href="#f" id="C" gradientUnits="userSpaceOnUse" x1="30.41" y1="101.25" x2="48.94" y2="116.56"/><linearGradient xlink:href="#g" id="y" x1="13.41" y1="26.75" x2="23.93" y2="26.75" gradientUnits="userSpaceOnUse"/><linearGradient id="g"><stop offset="0" stop-color="#fff" stop-opacity="0"/><stop offset="1" stop-color="#fff"/></linearGradient><linearGradient xlink:href="#h" id="z" x1="48.8" y1="27.14" x2="59.44" y2="27.14" gradientUnits="userSpaceOnUse" gradientTransform="matrix(-1 0 0 1 88.24 0)"/><linearGradient id="h"><stop offset="0" stop-color="#fff"/><stop offset="1" stop-color="#fff" stop-opacity="0"/></linearGradient><linearGradient xlink:href="#g" id="A" x1="63.53" y1="27.73" x2="74.34" y2="27.73" gradientUnits="userSpaceOnUse" gradientTransform="translate(-20)"/><linearGradient xlink:href="#f" id="x" gradientUnits="userSpaceOnUse" x1="30.41" y1="101.25" x2="48.94" y2="116.56"/><linearGradient xlink:href="#f" id="B" gradientUnits="userSpaceOnUse" x1="30.41" y1="101.25" x2="48.94" y2="116.56"/></defs><linearGradient id="i"><stop offset="0" stop-color="#fff"/><stop offset="1" stop-color="#fff" stop-opacity="0"/></linearGradient><path d="M13 1.62L14.23 53l-2.92 4.46-4-49.38z"/><path d="M12.38 4.08L8.23 9.47v2H25.3l1.84-6.92-11.1-.36-.5.79-1.98-.13.43-.72-1.62-.05z" fill="#cecece"/><path d="M24.38 10.25l3.39-8.94.61 41.38-5.23 5.08z"/><path d="M27.61 4.54h14.77l-.77 9.39L25 12.7z" fill="#cecece"/><path d="M43 1.93v14.46l-4.16.92.99-6.35z"/><path d="M15.75 10.07h-2.1L16.71 5l2.05.05-3.02 5.03z" style="marker:none" overflow="visible" fill="url(#j)" enable-background="accumulate" transform="translate(-3.91 -1.24) scale(1.06972)"/><path d="M19.68 10h-2.1l2.63-4.9 1.77.03-2.3 4.88z" style="marker:none" overflow="visible" fill="url(#k)" enable-background="accumulate" transform="translate(-3.91 -1.24) scale(1.06972)"/><path d="M24.05 10.14h-2.12l1.92-4.9 1.78.02-1.58 4.88z" style="marker:none" overflow="visible" fill="url(#l)" enable-background="accumulate" transform="translate(-3.91 -1.24) scale(1.06972)"/><path d="M11.02 57.46L10.49 9l2.36.86 12.4.29 1.77-.58.44 48.32-1.77 1.15-13.26-.7z" fill="url(#m)" transform="translate(-3.91 -1.24) scale(1.06972)"/><path d="M31.7 10.71h-2.12l1.86-5.32 1.78.03-1.53 5.29z" style="marker:none" overflow="visible" fill="url(#n)" enable-background="accumulate" transform="translate(-3.91 -1.24) scale(1.06972)"/><path d="M35.76 10.77h-2.12l1.56-5.32 1.78.03-1.22 5.29z" style="marker:none" overflow="visible" fill="url(#o)" enable-background="accumulate" transform="translate(-3.91 -1.24) scale(1.06972)"/><path d="M37.7 11l1.63-5.5 2.35-.05-1.71 5.74z" style="marker:none" overflow="visible" fill="url(#p)" enable-background="accumulate" transform="translate(-3.91 -1.24) scale(1.06972)"/><path d="M27.27 58.17L26.6 9.72l1.48.86 11.83.2 1.78-.77.3 47.88-1.93 1.43-11.54-.28z" fill="url(#q)" transform="translate(-3.91 -1.24) scale(1.06972)"/><path d="M56.69 9.31l-1.54-7.23-.46 23.38z"/><path d="M42.84 5l12.37-.08.84 6-7.98 1.78-6.92-1.85z" fill="#cecece"/><path d="M45.92 11.16H43.8l1.14-5.32 1.79.02-.81 5.3z" style="marker:none" overflow="visible" fill="url(#r)" enable-background="accumulate" transform="translate(-3.91 -1.24) scale(1.06972)"/><path d="M50.4 11.16h-2.12l.25-5.32 1.79.02.08 5.3z" style="marker:none" overflow="visible" fill="url(#s)" enable-background="accumulate" transform="translate(-3.91 -1.24) scale(1.06972)"/><path d="M54.5 11.1h-2.1l-.12-5.32 1.8.02.43 5.3z" style="marker:none" overflow="visible" fill="url(#t)" enable-background="accumulate" transform="translate(-3.91 -1.24) scale(1.06972)"/><path d="M41.84 58.32L41.4 10l1.63.86 11.84-.15 1.78-.86-.74 49.32-1.65.58H42.58z" fill="url(#u)" transform="translate(-3.91 -1.24) scale(1.06972)"/><g transform="matrix(.49493 0 0 .49493 -1.16 -1.16)"><circle r="8.52" cy="108.8" cx="40.43" style="marker:none" transform="translate(-6.33 -13.56) scale(1.03331)" overflow="visible" fill="#fff" enable-background="accumulate"/><rect height="14.13" rx="0" ry="0" style="marker:none" transform="matrix(.33333 0 0 1.16099 21.03 -14.63)" width="1.5" x="33.9" y="90.35" overflow="visible" filter="url(#v)" enable-background="accumulate"/><rect height="14.13" rx="0" ry="0" style="marker:none" transform="matrix(.33333 0 0 1.16099 23.03 -14.63)" width="1.5" x="33.9" y="90.35" overflow="visible" filter="url(#v)" enable-background="accumulate"/><rect height="14.13" rx="0" ry="0" style="marker:none" transform="matrix(.33333 0 0 1.16099 25.03 -14.63)" width="1.5" x="33.9" y="90.35" overflow="visible" filter="url(#v)" enable-background="accumulate"/><rect height="14.13" rx="0" ry="0" style="marker:none" transform="matrix(.33333 0 0 1.16099 27.03 -14.63)" width="1.5" x="33.9" y="90.35" overflow="visible" filter="url(#v)" enable-background="accumulate"/><rect height="14.13" rx="0" ry="0" style="marker:none" transform="matrix(.33333 0 0 1.16099 29.03 -14.63)" width="1.5" x="33.9" y="90.35" overflow="visible" filter="url(#v)" enable-background="accumulate"/><rect height="14.13" rx="0" ry="0" style="marker:none" transform="matrix(.33333 0 0 1.16099 19.03 -14.63)" width="1.5" x="33.9" y="90.35" overflow="visible" filter="url(#v)" enable-background="accumulate"/><path d="M39.28 89.88a6.94 6.94 0 0 0-6.87 7.96.18.18 0 0 0 .36 0 6.58 6.58 0 0 1 6.51-5.6 6.5 6.5 0 0 1 6.45 5.6.18.18 0 0 0 .36 0c.04-.33.1-.67.1-1.03a6.9 6.9 0 0 0-6.9-6.93z" style="marker:none" transform="matrix(1.19931 0 0 1.72772 -11.64 -64.54)" overflow="visible" opacity=".9" fill="#595959" filter="url(#w)" enable-background="accumulate"/><circle r="8.52" cy="108.8" cx="40.43" style="marker:none" transform="translate(-6.33 -13.56) scale(1.03331)" overflow="visible" fill="none" stroke="url(#x)" stroke-width="3" enable-background="accumulate"/></g><path d="M23.93 37.9l-10.47-.64-.05-21.65 10.4.42z" fill="url(#y)" enable-background="new" transform="translate(-3.91 -1.24) scale(1.06972)"/><path d="M11.34 16.68l-.01 2.15 9.33.42-.01-2.14-9.3-.43z" fill="#1a1a1a" enable-background="new"/><path d="M28.8 16.75l10.64-.34-.16 21.3-10.48.17z" fill="url(#z)" enable-background="new" transform="translate(-3.91 -1.24) scale(1.06972)"/><path d="M27.95 17.4l.02 2.03 9.25.28.02-2.03z" fill="#1a1a1a" enable-background="new"/><path d="M54.34 16.92l-10.81.17.17 21.12 10.48.34z" fill="url(#A)" transform="translate(-3.91 -1.24) scale(1.06972)"/><path d="M53.14 17.94l-9.4.16.02 2 9.36-.16.02-2z" fill="#1a1a1a" enable-background="new"/><g transform="matrix(.49493 0 0 .49493 15.22 -1.16)" enable-background="new"><circle r="8.52" cy="108.8" cx="40.43" style="marker:none" transform="translate(-6.33 -13.56) scale(1.03331)" overflow="visible" fill="#fff" enable-background="accumulate"/><rect height="14.13" rx="0" ry="0" style="marker:none" transform="matrix(.33333 0 0 1.16099 21.03 -14.63)" width="1.5" x="33.9" y="90.35" overflow="visible" filter="url(#v)" enable-background="accumulate"/><rect height="14.13" rx="0" ry="0" style="marker:none" transform="matrix(.33333 0 0 1.16099 23.03 -14.63)" width="1.5" x="33.9" y="90.35" overflow="visible" filter="url(#v)" enable-background="accumulate"/><rect height="14.13" rx="0" ry="0" style="marker:none" transform="matrix(.33333 0 0 1.16099 25.03 -14.63)" width="1.5" x="33.9" y="90.35" overflow="visible" filter="url(#v)" enable-background="accumulate"/><rect height="14.13" rx="0" ry="0" style="marker:none" transform="matrix(.33333 0 0 1.16099 27.03 -14.63)" width="1.5" x="33.9" y="90.35" overflow="visible" filter="url(#v)" enable-background="accumulate"/><rect height="14.13" rx="0" ry="0" style="marker:none" transform="matrix(.33333 0 0 1.16099 29.03 -14.63)" width="1.5" x="33.9" y="90.35" overflow="visible" filter="url(#v)" enable-background="accumulate"/><rect height="14.13" rx="0" ry="0" style="marker:none" transform="matrix(.33333 0 0 1.16099 19.03 -14.63)" width="1.5" x="33.9" y="90.35" overflow="visible" filter="url(#v)" enable-background="accumulate"/><path d="M39.28 89.88a6.94 6.94 0 0 0-6.87 7.96.18.18 0 0 0 .36 0 6.58 6.58 0 0 1 6.51-5.6 6.5 6.5 0 0 1 6.45 5.6.18.18 0 0 0 .36 0c.04-.33.1-.67.1-1.03a6.9 6.9 0 0 0-6.9-6.93z" style="marker:none" transform="matrix(1.19931 0 0 1.72772 -11.64 -64.54)" overflow="visible" opacity=".9" fill="#595959" filter="url(#w)" enable-background="accumulate"/><circle r="8.52" cy="108.8" cx="40.43" style="marker:none" transform="translate(-6.33 -13.56) scale(1.03331)" overflow="visible" fill="none" stroke="url(#B)" stroke-width="3" enable-background="accumulate"/></g><g transform="matrix(.49493 0 0 .49493 31.14 -1.16)"><circle transform="translate(-6.33 -13.56) scale(1.03331)" style="marker:none" cx="40.43" cy="108.8" r="8.52" overflow="visible" fill="#fff" enable-background="accumulate"/><rect y="90.35" x="33.9" width="1.5" transform="matrix(.33333 0 0 1.16099 21.03 -14.63)" style="marker:none" ry="0" rx="0" height="14.13" overflow="visible" filter="url(#v)" enable-background="accumulate"/><rect y="90.35" x="33.9" width="1.5" transform="matrix(.33333 0 0 1.16099 23.03 -14.63)" style="marker:none" ry="0" rx="0" height="14.13" overflow="visible" filter="url(#v)" enable-background="accumulate"/><rect y="90.35" x="33.9" width="1.5" transform="matrix(.33333 0 0 1.16099 25.03 -14.63)" style="marker:none" ry="0" rx="0" height="14.13" overflow="visible" filter="url(#v)" enable-background="accumulate"/><rect y="90.35" x="33.9" width="1.5" transform="matrix(.33333 0 0 1.16099 27.03 -14.63)" style="marker:none" ry="0" rx="0" height="14.13" overflow="visible" filter="url(#v)" enable-background="accumulate"/><rect y="90.35" x="33.9" width="1.5" transform="matrix(.33333 0 0 1.16099 29.03 -14.63)" style="marker:none" ry="0" rx="0" height="14.13" overflow="visible" filter="url(#v)" enable-background="accumulate"/><rect y="90.35" x="33.9" width="1.5" transform="matrix(.33333 0 0 1.16099 19.03 -14.63)" style="marker:none" ry="0" rx="0" height="14.13" overflow="visible" filter="url(#v)" enable-background="accumulate"/><path transform="matrix(1.19931 0 0 1.72772 -11.64 -64.54)" style="marker:none" d="M39.28 89.88a6.94 6.94 0 0 0-6.87 7.96.18.18 0 0 0 .36 0 6.58 6.58 0 0 1 6.51-5.6 6.5 6.5 0 0 1 6.45 5.6.18.18 0 0 0 .36 0c.04-.33.1-.67.1-1.03a6.9 6.9 0 0 0-6.9-6.93z" overflow="visible" opacity=".9" fill="#595959" filter="url(#w)" enable-background="accumulate"/><circle transform="translate(-6.33 -13.56) scale(1.03331)" style="marker:none" cx="40.43" cy="108.8" r="8.52" overflow="visible" fill="none" stroke="url(#C)" stroke-width="3" enable-background="accumulate"/></g></svg>