<svg xmlns="http://www.w3.org/2000/svg" xmlns:xlink="http://www.w3.org/1999/xlink" width="64" height="64" version="1" viewBox="0 0 60 60"><defs><linearGradient id="g"><stop offset="0"/><stop offset="1" stop-color="#4d4d4d"/></linearGradient><linearGradient id="h"><stop offset="0"/><stop offset="1" stop-color="#333" stop-opacity="0"/></linearGradient><linearGradient id="a"><stop offset="0" stop-color="#fff"/><stop offset="1" stop-color="#fff" stop-opacity="0"/></linearGradient><linearGradient id="d"><stop offset="0"/><stop offset="1" stop-opacity="0"/></linearGradient><linearGradient xlink:href="#a" id="t" gradientUnits="userSpaceOnUse" x1="24.64" y1="118.54" x2="24.64" y2="110.8"/><filter id="s"><feGaussianBlur stdDeviation=".42"/></filter><radialGradient xlink:href="#b" id="q" cx="66" cy="54" fx="66.5" fy="53.14" r="2" gradientUnits="userSpaceOnUse" gradientTransform="matrix(.77827 -.44949 .44934 .7775 -66.19 30.9)"/><linearGradient id="b"><stop offset="0" stop-color="#dfdfdf"/><stop offset="1" stop-color="#606060"/></linearGradient><linearGradient xlink:href="#c" id="p" gradientUnits="userSpaceOnUse" x1="62.65" y1="53.75" x2="52.07" y2="53.75" gradientTransform="matrix(.38624 -.22285 .223 .38598 -9.27 16.35)"/><linearGradient id="c"><stop offset="0" stop-color="#b3b3b3"/><stop offset="1" stop-color="#333"/></linearGradient><linearGradient gradientTransform="translate(.77 1.67) scale(.4537)" xlink:href="#d" id="o" x1="67.81" y1="61.54" x2="71.57" y2="58.62" gradientUnits="userSpaceOnUse"/><linearGradient xlink:href="#d" id="n" x1="61.91" y1="72.46" x2="59.72" y2="73.71" gradientUnits="userSpaceOnUse" gradientTransform="matrix(.84123 0 0 .84066 -22.88 -26.47)"/><linearGradient xlink:href="#e" id="m" gradientUnits="userSpaceOnUse" gradientTransform="matrix(-.38624 -.22285 -.223 .38598 69.16 16.35)" x1="62.65" y1="53.75" x2="52.07" y2="53.75"/><linearGradient id="e"><stop offset="0" stop-color="#666"/><stop offset="1" stop-color="#333"/></linearGradient><linearGradient xlink:href="#f" id="l" gradientUnits="userSpaceOnUse" gradientTransform="matrix(.38624 -.22285 .223 .38598 -9.12 15.58)" x1="66.41" y1="111.1" x2="56.77" y2="111.4"/><linearGradient id="f"><stop offset="0" stop-color="#1a1a1a"/><stop offset="1"/></linearGradient><linearGradient xlink:href="#f" id="k" gradientUnits="userSpaceOnUse" gradientTransform="matrix(-.38624 -.22285 -.223 .38598 69.12 15.58)" x1="66.41" y1="111.1" x2="56.77" y2="111.4"/><linearGradient xlink:href="#a" id="r" gradientUnits="userSpaceOnUse" x1="24.64" y1="118.54" x2="24.64" y2="110.8"/><linearGradient xlink:href="#g" id="i" x1="9.55" y1="75.21" x2="71.9" y2="75.21" gradientUnits="userSpaceOnUse"/><linearGradient xlink:href="#h" id="j" gradientUnits="userSpaceOnUse" x1="105" y1="124" x2="104.8" y2="74.02"/></defs><path transform="matrix(.45918 0 0 .45918 -.9 1.49)" fill="url(#i)" d="M34 97V26H7v98h98V97z"/><path transform="matrix(.45918 0 0 .45918 -.9 1.49)" fill="url(#j)" d="M105 124V97H34V26H7v98z"/><path d="M8.26 17.7v.91h5.97v-.92zM11 20.9h3.22V20H11zm0 2.76h3.22v-.92H11zm0 2.76h3.22v-.92H11zm0 2.75h3.22v-.92H11zm0 5.05h3.22v-.91H11zm0 2.76h3.22v-.92H11zm0 2.75h3.22v-.91H11zm0 2.76h3.22v-.92H11zM8.26 31.47h5.97v-.92H8.26zm0 13.31h5.97v-.91H8.26zM15.24 52.93h.92v-6.42h-.92zm2.3-2.75h.91V46.5h-.91zm2.75 0h.92V46.5h-.92zm2.76 0h.91V46.5h-.91zm2.75 0h.92V46.5h-.92zm5.05 0h.92V46.5h-.92zm2.76 0h.92V46.5h-.92zm2.75 0h.92V46.5h-.92zm2.76 0h.92V46.5h-.92zM28.1 52.93H29v-6.42h-.91zm13.31-6.42v6.42h.92v-6.42z" fill="#ccc"/><g transform="rotate(180 32.97 29.69)"><path d="M25.12 33.46a.9.9 0 0 1 .82.66l.98 3.66a.9.9 0 0 1-.1.68l-8.25 14.28a10.17 10.17 0 0 1-4.09 4.04c-1.57.79-3.33.97-4.78.14-1.44-.83-2.16-2.46-2.26-4.21-.1-1.76.39-3.71 1.46-5.56a10.14 10.14 0 0 1 4.08-4.04c1.57-.79 3.33-.96 4.78-.13.34.2.37.2.64.06.26-.13.7-.55 1.24-1.29 1.07-1.49 2.51-4.16 4.64-7.84a.9.9 0 0 1 .84-.45zM14.79 46.6c-.86-.06-2.43.84-3.4 2.52a5.7 5.7 0 0 0-.82 2.97c.04.84.34 1.36.75 1.6s1 .23 1.74-.16a5.74 5.74 0 0 0 2.17-2.2c.6-1.03.86-2.13.83-2.97-.04-.85-.33-1.37-.74-1.6-.17-.1-.34-.15-.53-.16z" fill="url(#k)" fill-rule="evenodd"/><path d="M34.88 33.46a.9.9 0 0 0-.82.66l-.98 3.66a.9.9 0 0 0 .1.68l8.25 14.28a10.17 10.17 0 0 0 4.09 4.04c1.57.79 3.33.97 4.78.14 1.44-.83 2.16-2.46 2.26-4.21.1-1.76-.39-3.71-1.46-5.56a10.14 10.14 0 0 0-4.08-4.04c-1.57-.79-3.33-.96-4.78-.13-.34.2-.37.2-.64.06a4.44 4.44 0 0 1-1.24-1.29c-1.07-1.49-2.51-4.16-4.64-7.84a.9.9 0 0 0-.84-.45zM45.21 46.6c.86-.06 2.43.84 3.4 2.52a5.7 5.7 0 0 1 .82 2.97c-.04.84-.34 1.36-.75 1.6s-1 .23-1.74-.16a5.74 5.74 0 0 1-2.17-2.2 5.74 5.74 0 0 1-.83-2.97c.04-.85.33-1.37.74-1.6.17-.1.34-.15.53-.16z" fill="url(#l)" fill-rule="evenodd"/><path d="M45.22 2.54L25.1 34.67l-.52 5.37c.9-1.55 4.22-3.75 6.66-4.4 6.39-11.06 10.1-20.93 14.3-31.89.13-.31.18-.92-.32-1.21z" fill="url(#m)" fill-rule="evenodd"/><path d="M45.1 2.75L28.77 28.63" fill="none" stroke="#fff" stroke-width=".45"/><path d="M27.88 31.46l-.92.25-.65 1.04 1.95 4.18c.83-.47 1.7-.88 2.5-1.15z" fill="url(#n)" fill-rule="evenodd"/><path d="M31.25 24.84l-3.71 5.94 3.26 4.99c.15-.05.3-.1.44-.13 1.16-2.01 2.23-3.98 3.23-5.93z" fill="url(#o)" fill-rule="evenodd"/><path d="M14.67 2.54L34.8 34.67l.52 5.37c-.9-1.55-4.22-3.75-6.66-4.4-6.39-11.06-10.1-20.93-14.3-31.89-.13-.31-.18-.92.32-1.21z" fill="url(#p)" fill-rule="evenodd"/><path d="M14.72 2.75l15.18 24.3" fill="none" stroke="#fff" stroke-width=".45"/><circle transform="rotate(-29.98) skewX(.03)" cx="9.44" cy="43.21" r="1.51" opacity=".96" fill="url(#q)" fill-rule="evenodd"/><path transform="matrix(.74386 0 0 .68909 -6.49 -25.1)" d="M33.19 106.44c-.3 1-.73 2.02-1.31 3.03a12.64 12.64 0 0 1-4.79 4.84c-1.65.86-2.93.87-3.84.35-.9-.53-1.58-1.68-1.66-3.53a10.7 10.7 0 0 0-.5 3.5c.08 1.85.75 3 1.66 3.53.9.52 2.2.51 3.84-.35a12.64 12.64 0 0 0 4.79-4.84 12.66 12.66 0 0 0 1.8-6.53z" opacity=".49" fill="url(#r)" fill-rule="evenodd" filter="url(#s)"/><path d="M33.19 106.44c-.3 1-.73 2.02-1.31 3.03a12.64 12.64 0 0 1-4.79 4.84c-1.65.86-2.93.87-3.84.35-.9-.53-1.58-1.68-1.66-3.53a10.7 10.7 0 0 0-.5 3.5c.08 1.85.75 3 1.66 3.53.9.52 2.2.51 3.84-.35a12.64 12.64 0 0 0 4.79-4.84 12.66 12.66 0 0 0 1.8-6.53z" transform="matrix(-.74386 0 0 .68909 66.56 -25.1)" opacity=".49" fill="url(#t)" fill-rule="evenodd" filter="url(#s)"/><path d="M30.61 31.74l-1.63 1.94" opacity=".78" fill="none" stroke="#fff" stroke-width=".45"/></g></svg>