<svg xmlns="http://www.w3.org/2000/svg" xmlns:xlink="http://www.w3.org/1999/xlink" width="64" height="64" id="svg388"><defs id="defs22"><style id="style2"/><radialGradient id="b" cx="18.77" cy="45.46" r="25.5" gradientTransform="matrix(1.7171 0 0 1.8778 94.1 4.48)" gradientUnits="userSpaceOnUse"><stop stop-color="#381422" stop-opacity=".39" offset="0" id="stop4"/><stop stop-color="#3d0018" stop-opacity=".09" offset="1" id="stop6"/></radialGradient><radialGradient id="e" cx="-29.33" cy="18.8" r="25.5" gradientTransform="matrix(2.9622 0 0 3.2394 136.71 -17.81)" gradientUnits="userSpaceOnUse" xlink:href="#b"/><radialGradient id="d" cx="-29.33" cy="18.8" r="25.5" gradientTransform="matrix(2.9622 0 0 3.2394 136.71 -17.81)" gradientUnits="userSpaceOnUse" xlink:href="#b"/><radialGradient id="c" cx="-29.33" cy="18.8" r="25.5" gradientTransform="matrix(2.9622 0 0 3.2394 136.71 -17.81)" gradientUnits="userSpaceOnUse" xlink:href="#b"/><radialGradient id="f" cx="31.83" cy="27.07" r="32" gradientTransform="matrix(1 0 0 .96875 0 1.03)" gradientUnits="userSpaceOnUse"><stop stop-color="#9e6431" offset="0" id="stop12"/><stop stop-color="#6f5c53" offset="1" id="stop14"/></radialGradient><radialGradient id="g" cx="76.36" cy="206.79" r="32" gradientTransform="matrix(-.00016 20.088 -1.4162 0 304.34 -1517.8)" gradientUnits="userSpaceOnUse"><stop stop-color="#d4440c" stop-opacity=".16" offset="0" id="stop17"/><stop stop-color="#722834" stop-opacity=".19" offset="1" id="stop19"/></radialGradient><linearGradient xlink:href="#linearGradient1501" id="linearGradient1503" x1="1507.6" y1="615.12" x2="1674.11" y2="615.12" gradientUnits="userSpaceOnUse"/><linearGradient id="linearGradient1501"><stop offset="0" id="stop1497"/><stop offset="1" id="stop1499" stop-color="#4d4d4d"/></linearGradient><linearGradient xlink:href="#linearGradient1555" id="linearGradient1557" x1="1340.1" y1="372.07" x2="1506.61" y2="372.07" gradientUnits="userSpaceOnUse"/><linearGradient id="linearGradient1555"><stop offset="0" id="stop1551"/><stop offset="1" id="stop1553" stop-color="#333"/></linearGradient><linearGradient gradientTransform="translate(-2.59 -4.77) scale(1.11441)" xlink:href="#linearGradient2521" id="linearGradient2523" x1="7.01" y1="38.17" x2="49.1" y2="38.17" gradientUnits="userSpaceOnUse"/><linearGradient id="linearGradient2521"><stop offset="0" id="stop2517" stop-color="#298de4"/><stop offset="1" id="stop2519" stop-color="teal"/></linearGradient><linearGradient xlink:href="#linearGradient1555" id="linearGradient2646" gradientUnits="userSpaceOnUse" x1="1340.1" y1="372.07" x2="1506.61" y2="372.07"/><linearGradient xlink:href="#linearGradient1555" id="linearGradient2648" gradientUnits="userSpaceOnUse" x1="1340.1" y1="372.07" x2="1506.61" y2="372.07"/><linearGradient xlink:href="#linearGradient1501" id="linearGradient2650" gradientUnits="userSpaceOnUse" x1="1507.6" y1="615.12" x2="1674.11" y2="615.12"/><linearGradient xlink:href="#linearGradient1501" id="linearGradient2652" gradientUnits="userSpaceOnUse" x1="1507.6" y1="615.12" x2="1674.11" y2="615.12"/><linearGradient x1="36.68" y1="18.24" x2="43.45" y2="28" id="i" xlink:href="#linearGradient1555" gradientUnits="userSpaceOnUse" gradientTransform="matrix(1.4327 0 0 1.4327 -.99 17.84)"/><linearGradient x1="34.44" y1="35.45" x2="33.01" y2="22.58" id="h" xlink:href="#d-6" gradientUnits="userSpaceOnUse" gradientTransform="matrix(1.46742 0 0 1.46742 -1.34 17.16)"/><linearGradient id="d-6"><stop offset="0" stop-color="#333" id="stop2"/><stop offset="1" id="stop4-7"/></linearGradient><linearGradient x1="37.22" y1="7.71" x2="44.47" y2="43.09" id="g-5" xlink:href="#b-3" gradientUnits="userSpaceOnUse" gradientTransform="matrix(1.35102 0 0 1.35102 2.02 19.58)"/><linearGradient id="b-3"><stop offset="0" stop-color="gray" id="stop12-5"/><stop offset=".26" stop-color="#1a1a1a" id="stop14-6"/><stop offset="1" id="stop16"/></linearGradient></defs><g id="g858" transform="translate(-2.87 -.38) scale(.89733)"><path id="path68" d="M32.3 60.89c.44.44 1.16.44 1.6 0l17.9-17.9c.44-.43.44-1.16 0-1.6L25.05 14.66a1.14 1.14 0 0 0-1.6 0L5.55 32.55a1.14 1.14 0 0 0 0 1.6z" fill="url(#linearGradient2523)" stroke-width=".17"/><g transform="rotate(-30 78.64 423.27) scale(.16559)" id="g216" color="#000" fill="url(#linearGradient1557)"><g id="base_34_" fill="url(#linearGradient2648)"><path id="path213" d="M1340.1 486.23a6.89 6.89 0 0 0 6.87 6.87h152.79a6.88 6.88 0 0 0 6.85-6.87V257.91a6.88 6.88 0 0 0-6.85-6.87h-152.8a6.89 6.89 0 0 0-6.86 6.87z" fill="url(#linearGradient2646)"/></g></g><path id="text218" d="M22.46 19.57c-.3-.02-.6.04-.87.2a1.56 1.56 0 0 0-.52 2.14 1.56 1.56 0 0 0-2.12-.61 1.56 1.56 0 0 0-.5 2.14c.94 1.61 3.65 1.61 4.99 2.54-.15-1.62 1.2-3.98.27-5.6a1.62 1.62 0 0 0-1.25-.8zm-7.4 1.86a.55.55 0 0 0-.2.07c-.22.13-.33.37-.32.7.02.34.15.72.4 1.15.25.44.51.75.8.93.27.18.52.2.74.07a.5.5 0 0 0 .22-.3c.04-.13.04-.3 0-.5.29.53.45.94.49 1.26.04.3-.04.52-.24.63a.63.63 0 0 1-.26.08c-.1.01-.2 0-.32-.02l.3.52c.11 0 .22 0 .31-.02.1-.01.18-.04.26-.09.28-.16.39-.48.33-.97a4.75 4.75 0 0 0-.66-1.73c-.4-.7-.79-1.2-1.14-1.5-.26-.21-.5-.3-.7-.28zm.28.48c.08.01.16.05.25.12a2 2 0 0 1 .53.64c.18.3.28.56.3.78.02.22-.04.37-.18.45-.13.08-.29.05-.47-.08a2.04 2.04 0 0 1-.53-.64c-.17-.3-.27-.56-.3-.78-.01-.22.04-.37.18-.45a.32.32 0 0 1 .22-.04zm3.43 4.23a.6.6 0 0 0-.24.08c-.3.18-.4.57-.22.9a.65.65 0 0 0-.88-.26c-.3.17-.4.57-.22.9.4.66 1.53.66 2.09 1.05-.06-.68.5-1.66.1-2.33a.67.67 0 0 0-.63-.34zm8.17 1.2c-.3-.03-.6.03-.87.19a1.56 1.56 0 0 0-.51 2.14 1.56 1.56 0 0 0-2.12-.61 1.56 1.56 0 0 0-.52 2.15c.95 1.6 3.66 1.6 5 2.54-.15-1.63 1.2-3.98.27-5.6a1.62 1.62 0 0 0-1.25-.81zm2.37 8.86c.15 1.63-1.2 3.98-.27 5.6.45.77 1.4 1.04 2.12.62.73-.42.96-1.38.52-2.15a1.57 1.57 0 0 0 2.12.62c.72-.42.95-1.39.51-2.15-.95-1.61-3.66-1.6-5-2.54zm4.48 7.76c.15 1.63-1.2 3.98-.27 5.6.45.77 1.4 1.05 2.12.62.73-.42.96-1.38.52-2.14.44.76 1.4 1.03 2.12.61.73-.42.96-1.38.51-2.15-.95-1.6-3.65-1.6-5-2.54z" style="line-height:0%" font-size="4.34" color="#000" font-family="CopperplateGothic-Bold" fill="#ff2a2a" stroke-width=".93"/><g transform="rotate(-15 -138.23 910.3) scale(.1656)" id="g289" color="#000" fill="url(#linearGradient1503)"><g id="base_48_" fill="url(#linearGradient2652)"><path id="path286" d="M1507.6 729.28a6.89 6.89 0 0 0 6.87 6.87h152.79a6.88 6.88 0 0 0 6.85-6.87V500.96a6.88 6.88 0 0 0-6.85-6.87h-152.8a6.89 6.89 0 0 0-6.86 6.87z" fill="url(#linearGradient2650)"/></g></g><path id="text291" d="M42.44 8.3c-.29 1.14-1.92 2.55-1.59 3.8.16.59.83.92 1.5.74.44-.11.75-.43.88-.79.03.23.06.49.07.77 0 .69-.14 1.41-.74 1.57l2.82-.76c-.84.23-1.43-.93-1.73-1.66.3.23.7.34 1.13.22.67-.18 1.09-.8.93-1.4-.34-1.24-2.46-1.64-3.27-2.48zm-16.17 2.57a.34.34 0 0 0-.16 0c-.22.06-.33.3-.34.72-.01.41.08 1 .28 1.73.2.74.4 1.28.62 1.64.22.36.44.5.65.45.22-.06.33-.3.34-.71.01-.42-.08-1-.28-1.73-.2-.74-.4-1.29-.62-1.65-.17-.26-.33-.42-.5-.45zm-.04.47c.14-.04.28.09.43.37.14.28.3.72.46 1.32.16.6.25 1.06.26 1.38.01.32-.05.5-.18.53-.14.04-.28-.08-.43-.36-.14-.29-.3-.73-.46-1.33a6.91 6.91 0 0 1-.26-1.38c-.01-.32.05-.5.18-.53zm-1.61.02l-.26.07-.4.33.14.54.4-.33.9 3.33-.43.11.14.5 1.1-.3-.13-.5-.42.12zm5.85.15c-.29 1.14-1.92 2.55-1.58 3.8.15.59.82.92 1.5.74.43-.12.74-.43.87-.8.04.24.07.5.07.78 0 .68-.14 1.4-.74 1.57l2.83-.76c-.84.23-1.44-.94-1.74-1.67.3.23.7.34 1.13.23.67-.18 1.09-.8.93-1.4-.34-1.24-2.45-1.64-3.27-2.49zm7.07 2.46c-.29 1.13-1.92 2.54-1.58 3.8.15.58.82.92 1.5.74.43-.12.74-.43.87-.8.04.23.07.49.07.77 0 .69-.14 1.41-.74 1.57l2.83-.76c-.84.23-1.44-.93-1.73-1.66.3.23.7.34 1.12.22.67-.18 1.09-.8.93-1.39-.33-1.24-2.45-1.65-3.27-2.5zM26.92 16.4c-.12.47-.8 1.06-.66 1.58.07.25.34.39.62.31.17-.04.3-.16.36-.3.01.1.03.14.03.3 0 .28-.05.58-.3.65l1.17-.32c-.38.1-.6-.4-.7-.69.12.1.28.14.46.09.28-.08.45-.34.38-.58-.14-.52-1.02-.69-1.36-1.04zm17.7.03c-.3 1.13-1.92 2.54-1.6 3.79.16.59.83.92 1.5.74.44-.12.75-.43.88-.79.04.23.07.48.07.77 0 .68-.14 1.4-.74 1.57l2.83-.76c-.84.23-1.44-.94-1.73-1.67.3.24.7.34 1.12.23.68-.18 1.1-.8.93-1.4-.33-1.24-2.45-1.64-3.27-2.48zm-6.24.68zm-5.73 2.52c-.29 1.13-1.92 2.54-1.59 3.8.16.58.83.92 1.5.74.44-.12.75-.43.88-.8.03.24.06.49.07.77 0 .69-.14 1.41-.74 1.57l2.82-.75c-.84.22-1.44-.94-1.73-1.67.3.23.7.34 1.13.23.67-.18 1.09-.8.93-1.4-.34-1.24-2.46-1.65-3.27-2.49zm15.59 4.68l-2.83.76c.84-.22 1.44.94 1.73 1.67-.3-.23-.7-.34-1.12-.23-.67.18-1.09.81-.93 1.4.34 1.24 2.45 1.65 3.27 2.49.29-1.13 1.92-2.54 1.59-3.8-.16-.58-.83-.91-1.5-.73-.44.11-.75.42-.88.78a5.61 5.61 0 0 1-.07-.76c0-.69.14-1.41.74-1.58zm-.72 2.94zm-11.25.27l-2.82.76c.84-.23 1.43.94 1.73 1.67a1.3 1.3 0 0 0-1.13-.23c-.67.18-1.08.8-.93 1.4.34 1.24 2.46 1.64 3.27 2.48.29-1.13 1.92-2.54 1.59-3.79-.16-.59-.83-.92-1.5-.74-.44.12-.74.43-.88.8a5.6 5.6 0 0 1-.07-.78c0-.68.14-1.4.74-1.57zm7.07 2.46l-2.82.76c.84-.23 1.43.93 1.73 1.66-.3-.23-.7-.34-1.13-.22-.67.18-1.08.8-.93 1.4.34 1.24 2.46 1.64 3.27 2.48.29-1.13 1.92-2.54 1.59-3.79-.16-.59-.82-.92-1.5-.74-.43.11-.74.42-.88.79a5.6 5.6 0 0 1-.07-.77c0-.69.14-1.41.74-1.57zm10.85 1.74l-1.18.32c.39-.1.6.4.71.69a.53.53 0 0 0-.46-.1c-.28.08-.45.34-.38.59.14.52 1.02.69 1.36 1.04.12-.48.8-1.06.66-1.58-.07-.25-.34-.39-.62-.31a.54.54 0 0 0-.36.3c-.02-.1-.04-.15-.04-.3 0-.28.06-.58.31-.65zm-3.78.71l-2.82.76c.84-.22 1.44.94 1.73 1.67a1.3 1.3 0 0 0-1.13-.23c-.67.18-1.08.8-.93 1.4.34 1.24 2.46 1.65 3.28 2.49.28-1.13 1.91-2.54 1.58-3.8-.16-.58-.82-.92-1.5-.74-.43.12-.74.43-.88.8a5.6 5.6 0 0 1-.07-.78c0-.68.14-1.4.74-1.57zm-7.79.49zm13.43 1.83l-1.1.3.13.49.42-.11 1.04 3.87.26-.07.4-.33-.14-.54-.4.33-.9-3.33.42-.12zm-2.05.5a.34.34 0 0 0-.16 0c-.22.06-.33.3-.34.71-.01.42.08 1 .28 1.73.2.74.4 1.29.62 1.64.22.36.44.51.65.45.22-.05.33-.3.34-.71 0-.42-.08-1-.28-1.73-.2-.74-.4-1.29-.62-1.65-.17-.26-.33-.41-.5-.45zm-15.55.39l-2.83.76c.84-.23 1.44.93 1.73 1.66-.3-.23-.7-.33-1.12-.22-.67.18-1.09.8-.93 1.4.34 1.24 2.45 1.64 3.27 2.48.28-1.13 1.92-2.54 1.59-3.79-.16-.59-.83-.92-1.5-.74-.44.12-.75.43-.88.79a5.6 5.6 0 0 1-.07-.77c0-.68.14-1.41.74-1.57zm15.51.08c.14-.04.28.08.42.36.15.29.3.73.47 1.33.16.6.24 1.06.26 1.37.01.32-.05.5-.18.54-.14.03-.28-.1-.43-.38-.15-.28-.3-.72-.46-1.32a6.87 6.87 0 0 1-.26-1.37c-.02-.32.05-.5.18-.53zm-16.24 2.86z" style="line-height:0%" font-size="3.94" font-family="CopperplateGothic-Bold" fill="#ccc" stroke-width=".1"/></g><path d="M33.16 38.25l15.04-4.29 13.21 4.28-.77 15.49-14.14 8.45-11.65-8.35z" id="path41" fill="url(#g-5)" stroke-width=".49"/><path d="M33.16 38.25l1.69 15.58 11.66 8.36-.34-17.63z" id="path43" fill="url(#h)" stroke-width=".49"/><path d="M46.17 44.55l.35 17.63 14.13-8.45.77-15.5z" id="path45" fill="url(#i)" stroke-width=".49"/><path d="M47.93 35.24a.5 1.44 86.74 0 0-1.6.68.51 1.44 86.74 0 0 2.82-.34.5 1.44 86.74 0 0-1.22-.34zm-3.96 1.12a.67 1.7 86.19 0 0-1.89.91.67 1.71 86.19 1 0 3.35-.45.67 1.7 86.19 0 0-1.45-.47zm11.15 1.25a.73 1.8 89.6 0 0-1.7.86.73 1.8 89.6 1 0 3.55-.27.73 1.8 89.6 0 0-1.78-.6.73 1.8 89.6 0 0-.07 0zm-15.39.37a.63 1.9 84.17 0 0-2.23.96.63 1.9 84.17 1 0 3.68-.6.63 1.9 84.17 0 0-1.27-.36.63 1.9 84.17 0 0-.18 0zm11.45 1.36a.75 1.94 88.39 0 0-2 .93.75 1.94 88.39 1 0 3.82-.36.75 1.94 88.39 0 0-1.8-.57zm-4.23 1.6a.86 2.15 85.37 0 0-.08 0 .86 2.15 85.37 0 0-2.37 1.18.86 2.15 85.37 0 0 4.2-.64.86 2.15 85.37 0 0-1.75-.55zM36.02 42a1.73 1.04 67.16 0 0-.55.28 1.73 1.04 67.16 1 0 1.91 2.74A1.73 1.04 67.16 0 0 36.02 42zm22.47.18a.92 1.5 32.74 0 0-1.15 2.7.92 1.51 32.74 1 0 1.29-2.68.92 1.5 32.74 0 0-.14-.02zm-15.25 2.9a2 1.25 64.45 0 0-.66.34 2 1.25 64.45 1 0 2.32 3.11 2 1.25 64.45 0 0-1.66-3.44zm7.13.61a1.2 1.93 39.17 0 0-1.59 3.34 1.2 1.93 39.17 1 0 1.78-3.3 1.2 1.93 39.17 0 0-.2-.03zM39.6 47.9a1.73 1.04 67.16 0 0-.54.28 1.73 1.04 67.16 1 0 1.91 2.73 1.73 1.04 67.16 0 0-1.37-3.02zm18.92 2.23a.96 1.6 31.79 0 0-1.11 2.9.97 1.6 31.79 1 0 1.36-2.88.96 1.6 31.79 0 0-.15-.01.96 1.6 31.79 0 0-.1 0zm-21.77.38a1.44.8 66.79 0 0-.4.27 1.44.8 66.79 1 0 1.62 2.17 1.44.8 66.79 0 0-1.19-2.44 1.44.8 66.79 0 0-.03 0zm6.4 3.94a1.9 1 62.02 0 0-.54.42 1.9 1 62.02 1 0 2.36 2.64 1.9 1 62.02 0 0-1.81-3.06zm7.37.07a1.32 2.13 36.5 0 0-1.7 3.75 1.33 2.14 36.5 1 0 1.91-3.72 1.32 2.13 36.5 0 0-.2-.03z" id="path47" fill="#ff2a2a" stroke-width=".49"/></svg>