<?xml version="1.0" encoding="UTF-8" standalone="no"?><!--Created with Inkscape (http://www.inkscape.org/)--><svg xmlns:dc="http://purl.org/dc/elements/1.1/" xmlns:cc="http://creativecommons.org/ns#" xmlns:rdf="http://www.w3.org/1999/02/22-rdf-syntax-ns#" xmlns="http://www.w3.org/2000/svg" xmlns:xlink="http://www.w3.org/1999/xlink" width="64" height="64" version="1"><metadata><rdf:RDF><cc:Work><dc:format>image/svg+xml</dc:format><dc:type rdf:resource="http://purl.org/dc/dcmitype/StillImage"/><dc:title/></cc:Work></rdf:RDF></metadata><defs><linearGradient id="a"><stop offset="0" stop-color="#fff" stop-opacity="0"/><stop offset="1" stop-color="#fff"/></linearGradient><linearGradient id="b"><stop offset="0"/><stop offset="1" stop-opacity="0"/></linearGradient><linearGradient id="e" x1="22.06" x2="22.06" y1="15.83" y2="45.5" gradientTransform="matrix(1.74446 0 0 1.75679 .2 -21.87)" gradientUnits="userSpaceOnUse"><stop offset="0" stop-color="#4d4d4d"/><stop offset="1"/></linearGradient><linearGradient xlink:href="#c" id="d" x1="-21.3" y1="44.44" x2="-20.94" y2="15.56" gradientUnits="userSpaceOnUse" gradientTransform="matrix(1.32558 0 0 1.32558 53.2 -1.8)"/><linearGradient id="c"><stop offset="0" stop-color="#2b0000"/><stop offset="1" stop-color="red"/></linearGradient></defs><path d="M58.64 21.24c-.97-2.2-3.34-1.97-4.96-2.32-5.38-.62-10.75.37-15.25 3.4a34.15 34.15 0 0 0-11.05 12.07 23.62 23.62 0 0 0-1.97 16.54c1.2 3.93 4.78 6.35 7.81 5.7 4.64-.78 7.95-5.08 10.67-9.28 1.24-1.73 2-4.03 3.45-5.48-.2 3.73-.3 7.6.55 11.4.48 2.23 2.24 4 4.03 3.91 1.82-.2 3.2-1.78 4.71-2.81 1.36-1.2 2.91-2.24 3.87-3.97-.17-2.88-2.74-1.07-3.63-.09-1.26 1.98-3.85.4-3.3-2.28.3-6.14 1.72-11.9 2.94-17.69.68-3.05 1.4-6.08 2.13-9.1zm-7.51 3.83c-2.3 7.27-4.8 14.68-9.05 20.32-2.01 2.57-4.96 4.9-8.2 3.67-2.25-1-2.77-4.27-2.81-6.73a20.94 20.94 0 0 1 7.6-16.91c3.06-2.44 7.01-3.54 10.87-2.35.73.27 1.52.97 1.59 2z" fill="url(#d)" fill-rule="evenodd"/><path d="M39.44 57.19c-1.6-4.6-3.21-10-4.82-14.59H14.85c-1.65 4.65-3.3 9.94-4.94 14.59H3.5L21.8 6.8h5.79c6.1 16.8 12.22 33.58 18.33 50.38h-6.48zm-6.78-21.21l-7.95-21.35-7.95 21.35z" fill="url(#e)"/></svg>