<svg xmlns="http://www.w3.org/2000/svg" version="1" width="64" height="64"><defs><linearGradient id="a"><stop offset="0"/><stop offset=".39" stop-color="#333"/><stop offset=".83" stop-color="#666"/><stop offset="1"/></linearGradient><linearGradient id="b"><stop offset="0"/><stop offset=".67" stop-color="#333"/><stop offset="1"/></linearGradient><linearGradient id="c"><stop offset="0" stop-color="#333"/><stop offset=".71" stop-color="#666"/><stop offset="1" stop-color="#333"/></linearGradient><linearGradient id="d"><stop offset="0" stop-color="gray"/><stop offset=".43"/><stop offset=".69" stop-color="#4d4d4d"/><stop offset="1"/></linearGradient><linearGradient id="e" x1="-5.84" x2="22" y1="8.05" y2="33.14" gradientTransform="rotate(-25.24 30.36 -15.25) scale(1.39539)" gradientUnits="userSpaceOnUse"><stop offset="0"/><stop offset=".25" stop-color="gray"/><stop offset=".53" stop-color="#1a1a1a"/><stop offset=".83" stop-color="#999"/><stop offset="1"/></linearGradient><radialGradient id="f" cx="24.5" cy="14" r="10.5" gradientTransform="matrix(1.26216 -.59503 .39669 .84144 -9.35 27.63)" gradientUnits="userSpaceOnUse"><stop offset="0" stop-color="#666"/><stop offset="1" stop-color="#1a1a1a"/></radialGradient></defs><path d="M33.86 9.99L40.17 7c-.78-1.65-5.64-1.43-8.1-.8z" fill="gray" fill-rule="evenodd"/><rect ry="0" rx="0" height="2.79" width="5.58" y="31.84" x="26.63" transform="rotate(-25.24)" fill="#333" fill-rule="evenodd"/><path fill-rule="evenodd" d="M49.28 55.17l2.6-1.22 3.57 7.57-2.6 1.22z"/><path d="M30.53 2.3l-8.84 4.17c-2.57 1.2-12.71 9.12-12.71 9.12-.8 1.15-.39 2.36.54 4.33l13.88-6.55c-.71-1.52.38-1.72 1.93-2.45l22.02 46.7 7.57-3.57-21.4-45.4c2.85-1.34 6.68-5.46 5.77-7.4l-7.57 3.58-1.2-2.53z" fill="url(#e)" fill-rule="evenodd"/><rect ry=".67" rx=".67" height="5.58" width="2.79" y="30.45" x="30.82" transform="rotate(-25.24)" fill="#1a1a1a" fill-rule="evenodd"/><path d="M27.28 15.4l.6 1.27 3.78-1.79-.6-1.26zm1.19 2.53l.6 1.26L31.58 18l-.6-1.26zm1.19 2.52l.6 1.27 3.78-1.79-.6-1.26zm1.19 2.53l.6 1.26 2.52-1.19-.6-1.26zm1.19 2.52l.6 1.26 3.78-1.78-.6-1.26zm1.19 2.53l.6 1.26 2.52-1.2-.6-1.25zm1.19 2.52l.6 1.26 3.78-1.78-.6-1.26zm1.19 2.53l.6 1.26 2.52-1.2-.6-1.25zm1.19 2.52l.6 1.26 3.78-1.78-.6-1.27zm1.19 2.52l.6 1.27 2.52-1.2-.6-1.26zm1.19 2.53l.6 1.26 3.78-1.78-.6-1.27zm1.19 2.52l.6 1.26 2.52-1.19-.6-1.26zm1.19 2.53l.6 1.26 3.78-1.79-.6-1.26zm1.19 2.52l.6 1.26 2.52-1.19-.6-1.26zm1.19 2.53l.6 1.26 3.78-1.79-.6-1.26zm1.19 2.52l.6 1.26 2.52-1.19-.6-1.26z" fill-rule="evenodd"/><path d="M10.63 22.58c.93 1.96 1.6 3.05 3 3.17l14.5-3.7c.58 0 .92.33 1.22.96l2.98 6.3-1.27.6a1.4 1.4 0 1 0 1.2 2.53l1.26-.6 2.52-1.19-7.14-15.14-2.52 1.19c-1.29.6-1.32.47-1.86-.67l-13.89 6.55zm23.32-9.45l7.14 15.14 2.52-1.19-7.14-15.14z" fill="url(#f)" fill-rule="evenodd"/></svg>