<?xml version="1.0" encoding="UTF-8" standalone="no"?><!--Created with Inkscape (http://www.inkscape.org/)--><svg xmlns:dc="http://purl.org/dc/elements/1.1/" xmlns:cc="http://creativecommons.org/ns#" xmlns:rdf="http://www.w3.org/1999/02/22-rdf-syntax-ns#" xmlns="http://www.w3.org/2000/svg" xmlns:xlink="http://www.w3.org/1999/xlink" width="64" height="64" viewBox="0 0 60 60"><defs><linearGradient id="e"><stop stop-color="#4d4d4d" offset="0"/><stop offset="1" stop-color="#333"/></linearGradient><linearGradient id="a"><stop offset="0"/><stop offset="1" stop-color="#4d4d4d"/></linearGradient><linearGradient xlink:href="#a" id="t" gradientUnits="userSpaceOnUse" gradientTransform="matrix(.57217 0 0 .63 57.75 -7.8)" x1="-97.53" y1="73.96" x2="-96.5" y2="16"/><linearGradient id="b"><stop offset="0" stop-color="#ececec"/><stop offset="1" stop-color="#ececec" stop-opacity="0"/></linearGradient><linearGradient id="c"><stop offset="0" stop-color="#ececec"/><stop offset="1" stop-color="#fff" stop-opacity="0"/></linearGradient><linearGradient id="d"><stop offset="0" stop-color="#f5f6f4"/><stop offset="1" stop-color="#f5f6f4" stop-opacity="0"/></linearGradient><linearGradient id="f"><stop offset="0" stop-color="#fff"/><stop offset="1" stop-color="#fff" stop-opacity=".04"/></linearGradient><linearGradient id="g"><stop offset="0" stop-color="#fff"/><stop offset="1" stop-color="#fff" stop-opacity="0"/></linearGradient><linearGradient id="h"><stop offset="0" stop-color="#0057ae"/><stop offset="1" stop-color="#0075ea"/></linearGradient><linearGradient id="i"><stop offset="0" stop-color="#bf3400"/><stop offset="1" stop-color="#ff0707"/></linearGradient><linearGradient id="j"><stop offset="0" stop-color="#d8e8c2"/><stop offset="1" stop-color="#e4efd5"/></linearGradient><linearGradient id="k"><stop offset="0"/><stop offset="1" stop-opacity="0"/></linearGradient><linearGradient xlink:href="#l" id="s" x1="6.71" y1="1.09" x2="6.71" y2="58.91" gradientUnits="userSpaceOnUse" gradientTransform="matrix(1.21114 0 0 .98627 -6.33 .41)"/><linearGradient id="l"><stop offset="0" stop-color="#666"/><stop offset="1" stop-color="gray"/></linearGradient><linearGradient y2="49" x2="48.12" y1="49" x1="40.12" gradientUnits="userSpaceOnUse" id="m"><stop offset="0" stop-color="#008e00"/><stop offset=".23" stop-color="#008700"/><stop offset=".51" stop-color="#007800"/><stop offset=".82" stop-color="#005f00"/><stop offset="1" stop-color="#004d00"/></linearGradient><linearGradient id="n"><stop offset="0" stop-color="#00a208"/><stop offset=".5" stop-color="#dfffa8"/><stop offset="1" stop-color="#8aff47" stop-opacity=".63"/></linearGradient><linearGradient id="q"><stop offset="0" stop-color="#c3ff6a"/><stop offset="1" stop-color="#a6ff88" stop-opacity="0"/></linearGradient><linearGradient xlink:href="#m" id="u" gradientUnits="userSpaceOnUse" gradientTransform="matrix(.36097 0 0 .37113 17.54 6.17)" x1="40.12" y1="49" x2="48.12" y2="49"/><linearGradient xlink:href="#n" id="v" gradientUnits="userSpaceOnUse" x1="44.14" y1="3.49" x2="44.14" y2="94.16"/><filter x="-.56" width="2.12" y="-.01" height="1.02" id="w"><feGaussianBlur stdDeviation=".47"/></filter><linearGradient xlink:href="#o" id="x" gradientUnits="userSpaceOnUse" gradientTransform="matrix(.40627 -.04751 .04044 .31693 11.44 13.7)" x1=".12" y1="101" x2="43.93" y2="92.5"/><radialGradient id="o" cx="23.78" cy="100" r="25.2" gradientUnits="userSpaceOnUse"><stop offset="0" stop-color="#287f00"/><stop offset=".5" stop-color="#3cf000"/><stop offset="1" stop-color="#003a00"/></radialGradient><radialGradient xlink:href="#p" id="y" gradientUnits="userSpaceOnUse" gradientTransform="matrix(.68623 -.27888 .26073 .68336 -.07 33.86)" cx="22.5" cy="91.36" fx="19.84" fy="86.02" r="14"/><radialGradient gradientUnits="userSpaceOnUse" fy="88.67" fx="17.12" r="14" cy="94" cx="19.78" id="p"><stop offset="0" stop-color="#fff"/><stop offset=".5" stop-color="#fff" stop-opacity=".71"/><stop offset="1" stop-color="#fff" stop-opacity="0"/></radialGradient><filter id="z"><feGaussianBlur stdDeviation=".61"/></filter><radialGradient xlink:href="#q" id="A" gradientUnits="userSpaceOnUse" gradientTransform="matrix(1 -.02649 .01396 .52712 18.17 52.58)" cx="27.13" cy="113.89" fx="27.13" fy="113.89" r="11.99"/><filter x="-.07" width="1.15" y="-.14" height="1.28" id="B"><feGaussianBlur stdDeviation=".73"/></filter><linearGradient xlink:href="#m" id="C" gradientUnits="userSpaceOnUse" gradientTransform="matrix(.39667 0 0 .40441 19.92 3.28)" x1="54.1" y1="32.58" x2="32.58" y2="31.3"/><radialGradient xlink:href="#r" id="D" gradientUnits="userSpaceOnUse" gradientTransform="matrix(.62435 0 0 .62435 51.01 20.88)" cx="54.21" cy="18.09" r="26.42"/><radialGradient gradientUnits="userSpaceOnUse" id="r" r="26.42" cy="18.09" cx="54.21"><stop offset=".33" stop-color="#f0ff80"/><stop offset=".67" stop-color="#0f0" stop-opacity="0"/></radialGradient><filter id="E"><feGaussianBlur stdDeviation=".37"/></filter></defs><metadata><rdf:RDF><cc:Work><dc:format>image/svg+xml</dc:format><dc:type rdf:resource="http://purl.org/dc/dcmitype/StillImage"/><dc:title/></cc:Work></rdf:RDF></metadata><path d="M5.46 1.48a3.66 3.66 0 0 0-3.67 3.67v49.69a3.66 3.66 0 0 0 3.67 3.67h49.08a3.66 3.66 0 0 0 3.67-3.67V5.15a3.66 3.66 0 0 0-3.67-3.67zm.06 4.04h6.12v6.99H5.52zm42.84 0h6.12v6.99h-6.12zM5.52 16h6.12v7H5.52zm42.84 0h6.12v7h-6.12zM5.52 26.5h6.12v6.99H5.52zm42.84 0h6.12v6.99h-6.12zM5.52 36.98h6.12v7H5.52zm42.84 0h6.12v7h-6.12zM5.52 47.5h6.12v7H5.52zm42.84 0h6.12v7h-6.12z" fill="url(#s)"/><path d="M5.19 2.28a2.64 2.64 0 0 0-2.65 2.65v50.14a2.64 2.64 0 0 0 2.65 2.65h49.63a2.64 2.64 0 0 0 2.65-2.65V4.93a2.64 2.64 0 0 0-2.65-2.65zm.33 3.24h6.12v6.99H5.52zm42.84 0h6.12v6.99h-6.12zM5.52 16h6.12v7H5.52zm42.84 0h6.12v7h-6.12zM5.52 26.5h6.12v6.99H5.52zm42.84 0h6.12v6.99h-6.12zM5.52 36.98h6.12v7H5.52zm42.84 0h6.12v7h-6.12zM5.52 47.5h6.12v7H5.52zm42.84 0h6.12v7h-6.12z" fill="url(#t)"/><g stroke-width="1.09"><path d="M32.02 6.17H35V43.8l-2.98-1.99z" fill="url(#u)" transform="matrix(.9161 0 0 .9161 2.45 2.4)"/><path d="M43.12 3v90.66l2 .5V3h-2z" transform="matrix(.53944 0 0 -.35467 8.86 41.82)" opacity=".7" fill="url(#v)" filter="url(#w)"/><path d="M16.01 47.64c1.46 3.02 6.8 4.1 11.95 2.4 5.14-1.7 8.13-5.52 6.67-8.55-1.46-3.02-6.8-4.09-11.95-2.39-5.14 1.7-8.13 5.52-6.67 8.54z" fill="url(#x)" transform="matrix(.9161 0 0 .9161 2.45 2.4)"/><path d="M34.45 87.55c-7.63 4.16-12.1 10.31-9.57 13.16 1.1 1.24 3.23 1.54 4.82 1.57 4.13.08 9.45-1.43 14.24-4.04 7.63-4.17 12.1-10.32 9.56-13.16-1.1-1.24-3.23-1.54-4.82-1.57-4.12-.08-9.44 1.43-14.23 4.04z" transform="matrix(.40946 -.04789 .04193 .3286 3.03 12.86)" opacity=".8" fill="url(#y)" filter="url(#z)"/><path d="M46.87 109c-7.17 1.88-12.58.6-11.92 3.13.27 1.05 1.3 1.84 2.12 2.31 2.24 1.31 6.43 2.24 11.47.92 7.17-1.88 10.92-6.96 10.26-9.5-.27-1.04-1.3-1.82-2.12-2.3-2.24-1.31-4.77 4.12-9.8 5.44z" transform="matrix(.42002 .01818 -.05489 .42077 12.49 -2.13)" opacity=".6" fill="url(#A)" filter="url(#B)"/><path d="M38.81 12.94c-2.01-2.4-3.03-5.33-3.78-6.77L35 15.81c13.62 5.72 4.82 20.93 4.82 20.93 10.07-10.35.84-21.6-1-23.8z" fill="url(#C)" transform="matrix(.9161 0 0 .9161 2.45 2.4)"/><path transform="matrix(.53944 0 0 .53845 -5.4 -4.88)" d="M79.26 35.83c-3.12-3.83-3.78-6.4-4.52-7.48 0 11.96 3.9 11.82.32 11.13C81.4 42.74 86.28 47.23 88.14 52c-2.09-7.85-6.25-12.94-8.88-16.17z" fill="url(#D)" filter="url(#E)"/></g></svg>