<svg xmlns="http://www.w3.org/2000/svg" xmlns:xlink="http://www.w3.org/1999/xlink" version="1" width="64" height="64" viewBox="0 0 75 71.5" overflow="visible" enable-background="new 0 0 150 143"><defs><linearGradient id="g"><stop offset="0" stop-color="#666"/><stop offset="1" stop-color="#333"/></linearGradient><linearGradient id="e"><stop offset="0"/><stop offset="1" stop-opacity="0"/></linearGradient><linearGradient id="a"><stop offset="0" stop-color="#fff"/><stop offset="1" stop-color="#fff" stop-opacity="0"/></linearGradient><path id="b" d="M121.2 30.34c37.86 41.84-9.54 75.17-9.54 75.17s-39.24 31.6-52.78 20.14c-13.55-11.46 5.55-43.57-10.08-47.4-15.45-2.94-10.24 29.35-21.87 28.13-11.63-1.21-16.15-30.55-3.3-48.09 12.85-17.53 22.92-25.7 22.92-25.7S87.53-8.2 121.2 30.35z"/><linearGradient id="d" x1="172.92" y1="44.32" gradientTransform="rotate(-9.21 192.14 24.49)" x2="227.68" gradientUnits="userSpaceOnUse" y2="44.32"><stop offset=".09" stop-opacity="0"/><stop offset="1" stop-color="#4b0101"/></linearGradient><radialGradient id="c" r="25.9" gradientTransform="matrix(.7315 -.4744 .3869 .8262 38.2 187.7)" cx="419.88" cy="232.32" gradientUnits="userSpaceOnUse" fy="216.48" fx="399.38"><stop offset=".12" stop-color="#fcea99"/><stop offset=".37" stop-color="#f9d533"/><stop offset=".49" stop-color="#e9bf05"/><stop offset=".82" stop-color="#f9d533"/><stop offset="1" stop-color="#c09d04"/></radialGradient><linearGradient xlink:href="#e" id="f" gradientUnits="userSpaceOnUse" gradientTransform="translate(-112.38)" x1="85.88" y1="98.95" x2="113.78" y2="126.85"/><radialGradient xlink:href="#h" id="B" cx="105.17" cy="19.81" fx="105.17" fy="19.81" r="9.94" gradientTransform="matrix(.51527 0 0 .41955 -1.04 3.5)" gradientUnits="userSpaceOnUse"/><linearGradient id="h"><stop offset="0" stop-color="#e6e6e6"/><stop offset="1" stop-color="#e6e6e6" stop-opacity="0"/></linearGradient><filter id="A" x="-.09" y="-.11" width="1.18" height="1.21"><feGaussianBlur stdDeviation="3.11"/></filter><radialGradient xlink:href="#i" id="z" cx="98.46" cy="51.38" fx="98.46" fy="51.38" r="8.05" gradientTransform="matrix(.51527 0 0 .53445 11.04 .63)" gradientUnits="userSpaceOnUse"/><linearGradient id="i"><stop offset="0" stop-color="#ff0"/><stop offset="1" stop-color="#fcea99" stop-opacity="0"/></linearGradient><filter id="y"><feGaussianBlur stdDeviation="2.84"/></filter><radialGradient xlink:href="#j" id="x" cx="127.33" cy="87.9" fx="127.33" fy="87.9" r="9.18" gradientTransform="matrix(.51527 0 0 .5089 -13.12 2.17)" gradientUnits="userSpaceOnUse"/><linearGradient id="j"><stop offset="0" stop-color="#f60"/><stop offset="1" stop-color="#f60" stop-opacity="0"/></linearGradient><filter id="w"><feGaussianBlur stdDeviation="3.17"/></filter><radialGradient xlink:href="#k" id="v" cx="69.56" cy="107.3" fx="69.56" fy="107.3" r="9.26" gradientTransform="matrix(.51527 0 0 .47343 -1.04 6.1)" gradientUnits="userSpaceOnUse"/><linearGradient id="k"><stop offset="0" stop-color="#0f0"/><stop offset="1" stop-color="#a0e793" stop-opacity="0"/></linearGradient><filter id="u" x="-.09" y="-.1" width="1.18" height="1.21"><feGaussianBlur stdDeviation="3.11"/></filter><radialGradient xlink:href="#l" id="t" cx="31.33" cy="61.76" fx="31.33" fy="61.76" r="9.62" gradientTransform="matrix(.51527 0 0 .46286 -1.04 4.85)" gradientUnits="userSpaceOnUse"/><linearGradient id="l"><stop offset="0" stop-color="#0ff"/><stop offset="1" stop-color="#83b3fb" stop-opacity="0"/></linearGradient><filter id="s" x="-.09" y="-.1" width="1.18" height="1.2"><feGaussianBlur stdDeviation="3.07"/></filter><radialGradient xlink:href="#m" id="r" cx="85.14" cy="26.32" fx="85.14" fy="26.32" r="9.52" gradientTransform="matrix(.51527 0 0 .51147 -13.12 1.71)" gradientUnits="userSpaceOnUse"/><linearGradient id="m"><stop offset="0" stop-color="red"/><stop offset="1" stop-color="#fb8383" stop-opacity="0"/></linearGradient><filter id="q"><feGaussianBlur stdDeviation="3.2"/></filter><clipPath id="o"><use width="150" height="143" transform="translate(-.75 .42)" xlink:href="#b"/></clipPath><filter id="p"><feGaussianBlur stdDeviation="2.34"/></filter><radialGradient xlink:href="#g" id="n" cx="262.3" cy="64.6" fx="262.3" fy="64.6" r="70.11" gradientTransform="matrix(.51527 0 0 .48328 -97.65 3.68)" gradientUnits="userSpaceOnUse"/></defs><path d="M64.78 12.64c-20.07-22.8-44.5 1.33-44.5 1.33s-6 4.83-13.65 15.2C-1.03 39.54 1.66 56.89 8.59 57.6c6.94.72 3.83-18.38 13.04-16.64 9.32 2.26-2.07 21.26 6 28.03 8.08 6.78 31.46-11.9 31.46-11.9s28.25-19.72 5.7-44.46zm-25.8 38.09c-3.34.82-6.46-.6-7.03-3.15-.57-2.53 1.57-5.32 4.84-6.26 3.36-.96 6.68.37 7.32 3.01.64 2.67-1.69 5.55-5.13 6.4z" overflow="visible"/><path d="M64.8 10.83c-20.28-22.84-44.95 1.34-44.95 1.34S13.78 17 6.05 27.39C-1.7 37.78 1.03 55.16 8.03 55.88c7 .72 3.87-18.41 13.17-16.66 9.41 2.26-2.09 21.29 6.07 28.08 8.15 6.79 31.78-11.93 31.78-11.93s28.54-19.75 5.75-44.54zm-25.82 38.2c-3.34.82-6.46-.6-7.03-3.16-.57-2.53 1.57-5.31 4.84-6.25 3.36-.96 6.68.37 7.32 3 .64 2.67-1.69 5.55-5.13 6.4z" overflow="visible" fill="url(#n)"/><g clip-path="url(#o)" transform="matrix(.6021 0 0 .5925 -7.73 -7.15)" overflow="visible" opacity=".4" stroke="#000" filter="url(#p)"><path d="M46.1 35.81C40.4 40.67-3.58 81.28 27.6 105.9c5.75.57 2.45-29.64 20.86-28.13 33.3 7.73-26.72 78.75 52.97 34.93 73.82-44.53 5.9-134.3-52.27-79.7z" fill="none" stroke-width="8" stroke-linejoin="round"/></g><path transform="rotate(-6.57 148.52 506.9) scale(.11892)" d="M706.22 46.12c3.95 14.61 24.81 34.95 46.6 40.88 22.1 5.47 34.2-19.35 30.6-49.73-3.14-30.1-19.16-35.9-37.91-28.25-18.54 8.38-43.23 22.66-39.29 37.1z" overflow="visible" opacity=".8" filter="url(#q)"/><path d="M25.94 15.89c.68 1.67 3.52 3.76 6.3 4.13 2.8.31 3.99-2.81 3.15-6.35-.77-3.52-2.83-3.96-5.05-2.77-2.19 1.27-5.07 3.34-4.4 4.99z" overflow="visible" fill="url(#r)"/><path transform="rotate(-6.57 148.52 506.9) scale(.11892)" d="M554 178.1c.3 22.36 18.81 41.84 41.33 43.52 22.52 1.68 40.53-15.08 40.23-37.43-.3-22.36-16.05-32.84-35.31-34.28-19.27-1.44-46.55 5.84-46.25 28.2z" overflow="visible" opacity=".8" filter="url(#s)"/><path d="M10.17 33.1a5.54 5.54 0 0 0 5.56 4.78 4.46 4.46 0 0 0 4.28-5.16c-.35-2.75-2.38-3.82-4.7-3.73-2.33.09-5.49 1.36-5.14 4.1z" overflow="visible" fill="url(#t)"/><path transform="rotate(-6.57 148.52 506.9) scale(.11892)" d="M736.2 361.76c-21.88 1.7-44.92 20.45-40.42 45.18 5.6 24 29.24 28.77 50.79 24.5 22.64-3.17 35.03-17.8 31.96-36.53-3.19-18.89-21.04-36.89-42.33-33.15z" overflow="visible" opacity=".8" filter="url(#u)"/><path d="M34.1 52.65c-2.46.45-4.77 2.97-3.87 5.9 1 2.83 3.76 3.14 6.13 2.38 2.51-.64 3.69-2.54 3.04-4.76-.65-2.24-2.96-4.21-5.3-3.52z" overflow="visible" fill="url(#v)"/><path transform="rotate(-6.57 148.52 506.9) scale(.11892)" d="M859.04 298.92c-13.52 17.09-7.37 46.32 9.4 62.46 16.52 16.22 40.84 13.43 54.2-3.4 12.93-16.81 5.06-33.63-9.7-47.58-14.78-13.65-40.08-28.45-53.9-11.48z" overflow="visible" filter="url(#w)"/><path d="M48.35 43.37c-1.36 2.2-.23 5.57 1.97 7.25 2.17 1.7 5 1.03 6.35-1.14 1.3-2.16.14-4.04-1.8-5.49-1.92-1.4-5.11-2.81-6.52-.62z" overflow="visible" fill="url(#x)"/><path transform="rotate(-6.57 148.52 506.9) scale(.11892)" d="M958.9 198.62c11.02 19.92 31.73 26.23 49.13 16.18 17.43-10.1 21.1-31.54 10.11-49.95-10.5-18.48-25.82-21.26-40.8-13.81-15.02 7.2-29.88 27.55-18.45 47.58z" overflow="visible" opacity=".8" filter="url(#y)"/><path d="M58.32 30.33c1.58 2.2 4.11 2.67 6.03 1.24s2.06-4 .51-6.03c-1.49-2.04-3.34-2.16-5-1.08-1.68 1.06-3.16 3.66-1.54 5.87z" overflow="visible" fill="url(#z)"/><path transform="rotate(-6.57 148.52 506.9) scale(.11892)" d="M895.57 35.53c7.74 23 29.42 38.7 51.97 35.75 23.05-2.97 37.02-21.45 29.67-41.94-6.87-20.57-23.66-28.97-43.37-28.3-19.6.56-45.81 11.45-38.27 34.49z" overflow="visible" opacity=".8" filter="url(#A)"/><path d="M48.3 12.32c1.24 2.62 4.01 4.18 6.63 3.52 2.69-.67 4.08-3.04 2.94-5.36-1.1-2.34-3.2-3.1-5.51-2.75-2.31.33-5.26 1.98-4.05 4.6z" overflow="visible" fill="url(#B)"/></svg>