<svg xmlns="http://www.w3.org/2000/svg" xmlns:xlink="http://www.w3.org/1999/xlink" version="1" width="64" height="64" viewBox="15.58 -296.36 240 173.65" overflow="visible"><defs><linearGradient id="a"><stop offset="0"/><stop offset=".68" stop-color="#fff"/><stop offset="1" stop-color="#fff"/></linearGradient><radialGradient xlink:href="#b" id="c" cx="-357.13" cy="-247.45" fx="-357.13" fy="-247.45" r="240" gradientTransform="matrix(.89268 .24058 -.17022 .6316 332.45 -13.22)" gradientUnits="userSpaceOnUse"/><linearGradient id="b"><stop offset="0" stop-color="#666"/><stop offset="1"/></linearGradient></defs><path d="M31.11-296.22c69.6 25.77 139.2-19.5 208.8 7.11l13.4 153.12c-78.48-24.34-156.97 32.36-235.45 8.96l13.25-169.19z" overflow="visible" fill="url(#c)"/><path d="M74.8-220.43c.28 2.18.7 4.56.93 7.3v.07l.02.09.06-.58c.42-2.5 1.39-4.2 2.1-6.12.8-2.02 2.94-5.02 4.24-7.66 1.65-3.47 3.53-7.29 4.4-13.27-5.05 3.96-7.37 9.4-8.7 12.97-.27.74-.48 1.38-.65 2.01a37 37 0 0 0 .03-4.26c-.23-3.85-.76-8.56-3.45-13.9-1.87 7-.74 12.72-.17 16.56.24 2.16 1 5.35 1.18 6.8zm15.39 51.1c1.83.85 5.54 2.96 8.14 3.73l-1.02-.85a13.02 13.02 0 0 1-3.97-5.64c-.64-2.1-1.06-4.6-1.43-6.57-.8-4-1.36-7.28-5.43-12.78-.73 7.11-.21 10.16 1.07 13.68.44 1.2.74 2.3 1.22 3.43-.85-.78-1.65-1.4-2.7-2.01-3.18-1.8-8.39-5.6-14.26-6.18 3.21 6.32 9.08 9.44 12.52 10.96 1.7.73 4 1.32 5.86 2.23zm-15.36-33.09c1.23 1.98 2.14 4.97 3.42 7.45l-.07-.4c-.16-2.7.03-5.75.4-7.95a43.66 43.66 0 0 1 1.99-6.58c1.3-3.73 3.01-8 2.44-14.76-4.34 4.93-5.26 9.61-6.24 13.3-.3 1.22-.44 2.94-.45 4.55a22.8 22.8 0 0 0-1.46-5c-1.5-3.34-3.01-6.88-8.06-10.5.58 6.88 2.85 10.73 4.75 13.97.96 1.58 2.25 4.13 3.28 5.92zm.48 13.92c1.38 1.28 3.33 2.87 4.9 4.24a19.51 19.51 0 0 1 4.8 5.43l.17.34c0-.02 0-.04-.02-.06l.14.26c-.16-.43-.32-.87-.47-1.33a28.55 28.55 0 0 1-1.04-6.52c-.18-2.3.13-4.93.3-7 .29-4.23.68-9.18-1.68-15.9-3.06 6.46-2.65 10.89-2.6 14.97.05 1.51.25 2.74.56 3.93-.57-.98-1.1-1.84-1.9-2.76-2.46-2.8-6.27-7.62-11.24-10.26a27.26 27.26 0 0 0 8.08 14.66zm119.6-52.72c-1.34-3.29-3.67-8.37-8.73-11.66.88 5.6 2.77 9.02 4.43 12.18 1.31 2.4 3.46 5.1 4.26 6.96.71 1.77 1.68 3.35 2.11 5.67l.07.54v-.08l.02.06v-.13c.22-2.57.63-4.82.91-6.85.17-1.36.93-4.35 1.17-6.36.56-3.58 1.68-8.87-.2-15.45-2.69 4.91-3.2 9.39-3.43 13-.07.92-.05 2.42.05 4-.18-.6-.39-1.19-.65-1.88zm-9-14.24c1.26 1.07 3.58 2.54 4.73 3.7a21.06 21.06 0 0 1 3.56 5.14l.36.89-.06-.3c0 .03.02.05.03.07l-.05-.16c-.7-3.24-.61-5.1-.67-6.98-.11-1.9.11-4.08.33-5.76.34-3.39.45-7.43-1.93-12.94-2.74 5.17-2.26 8.34-2.15 11.65.05 1.2.23 2.52.48 3.9-.6-.86-1.24-1.62-1.93-2.3-2.38-2.24-5.22-5.22-10.88-6.3 2.45 5.03 5.5 7.05 8.17 9.39zm-1.24-9.1c1.18.92 3.1 2.8 4.11 4.29-.97-1.53-1.76-4.17-2.23-5.94-.47-1.77-.83-2.7-1.51-4.02-1.24-2.3-2.9-5.2-7.22-7.22.2 4.95 2.03 7.5 3.55 9.7a18 18 0 0 0 3.3 3.19zM78.93-240.32c-.06 2 .04 3.98-.66 7.45l-.05.17.03-.06-.06.3c.1-.3.23-.63.36-.95a24.46 24.46 0 0 1 3.55-5.64c1.15-1.29 3.46-3.03 4.72-4.3 2.67-2.74 5.72-5.28 8.16-10.93-5.66 2-8.5 5.34-10.87 7.91-.7.76-1.33 1.61-1.93 2.56.25-1.48.43-2.9.48-4.17.1-3.52.57-6.86-2.18-12.29a27.18 27.18 0 0 0-1.9 13.83c.22 1.78.45 4.1.35 6.12zm117.55 18.58c0-1.5-.15-3.1-.45-4.24-.99-3.4-1.92-7.81-6.28-12.12-.55 6.45 1.18 10.32 2.48 13.74a36.9 36.9 0 0 1 2 6.06 33 33 0 0 1 .43 7.45l-.08.39c1.28-2.44 2.18-5.3 3.4-7.2 1.03-1.72 2.32-4.13 3.27-5.6 1.9-3.02 4.16-6.47 4.72-12.77-5.04 3-6.55 6.43-8.03 9.57a20.67 20.67 0 0 0-1.46 4.72zM92.83-198.43l-.11.04c.06.85.27.77.52 1.44.13.36 0 .52.36 1.2.18.29.3.6.65.64a7.97 7.97 0 0 0-.75-2.23c-.26-.48-.44-.48-.67-1.09zm54.6 32.75c-7.9 1.72-7.67 4.26-11.78 4.96l-.08.01c-4.1.92-3.88-1.68-11.77-.37-3.03.51-17.27 9.15-25.83 8.93.49 2.2 8.68 4.43 16.01 2.66 3.8-.9 14.86-10.18 19.22-7.88 0 0-5.3 2.94-11.17 8.86-3.6 3.68-6.52 9.05-7.1 11.11 2.24-.42 4.48-.03 6.74-1.87 1.97-1.5 5.6-13.24 13.95-17 8.35.44 11.98 10.64 13.96 11.35 2.26.93 4.5-.33 6.74-.75-.59-1.81-3.51-6-7.12-8.25-5.87-3.59-11.16-4.42-11.17-4.42 4.36-4.02 15.42.91 19.22.44 7.34-.98 15.52-5.58 16-7.8-8.55 2.54-22.8-.65-25.83.02zm24.22-10.75l-1.69.73c.4-.42.78-.85 1.17-1.31 2.75-3.41 5.56-6.96 7.04-13.78-6.59 4.28-8.95 7.91-11.52 11.62-1.23 1.84-2.65 4.21-4.57 5.87-1.96 1.73-5.66 3.38-8.46 4.6h.05c-.04 0-.08.02-.12.04l.56-.13c1.06-.21 2.3-.5 3.59-.82 2.6-.58 5.54-1.18 6.98-1.34 2.35-.33 4.18-.55 6.55-.78 5.49-.69 13.57-3.85 18.7-8.92-7.41.33-14.49 2.85-18.28 4.22zm22.71-32.07c-.79.94-1.32 1.8-1.88 2.79.3-1.16.5-2.34.54-3.77.04-3.86.44-8.08-2.63-13.9-2.34 6.6-1.94 11.3-1.64 15.26.17 1.95.48 4.41.31 6.61-.1 1.85-.35 4.03-1.02 6.35-.15.46-.31.9-.47 1.34l.13-.27c0 .02 0 .04-.02.06l.17-.35a21.43 21.43 0 0 1 4.79-5.79c1.57-1.47 3.52-3.14 4.9-4.41 2.75-2.67 6.65-7.08 8.05-13.75-4.97 2.22-8.77 7-11.23 9.83zm-86.12 48c1.44-.32 4.37-.7 6.98-1.05 1.29-.13 2.52-.3 3.59-.48l.55-.08a4.2 4.2 0 0 0-.07 0c-2.8-.2-6.5-.57-8.46-1.68-1.92-1.04-3.35-3.01-4.59-4.51-2.57-3.02-4.94-5.95-11.53-8.77 1.5 6.74 4.31 9.67 7.07 12.37.38.36.76.7 1.17 1a64.8 64.8 0 0 1-1.7-.25c-3.8-.29-10.87-.96-18.28-.11 5.14 4.56 13.23 5.83 18.72 4.83l6.55-1.28zm75.87-28.93c.48-1.17.78-2.28 1.2-3.5 1.29-3.6 1.8-6.56 1.05-13.23-4.05 5.9-4.62 9.24-5.4 13.21-.36 1.96-.77 4.45-1.42 6.63-.63 2-1.86 4.07-3.95 6.4l-1.01 1.08c2.6-1.45 6.29-4.35 8.12-5.52 1.86-1.26 4.15-2.24 5.85-3.2 3.44-2.05 9.3-5.61 12.5-11.57-5.87.71-11.07 5.04-14.25 7.3-1.04.75-1.85 1.5-2.69 2.4zm-40.73-15.52l-.14-.57c-.21.32-.27.52.14.57zm-12.02-17.63l-.12-.24c-.15.06-.4.23-.53.4s-.03.35-.2.6c-.2.37-.59.65-.68.75-.14.12-.05.25-.27.52-.32.36-.56.29-.76.43-.25.16-.57.7-.75.95-.23.45-.29.7-.36 1.13-.03.13-.1.33-.02.41.08.08.24.02.33-.08.2-.14.61-.55.78-.56.16-.07.24.01.35.02.17-.01.27-.06.4-.05.1.01.25.12.38.18.3.05.53-.4.59-.65.02-.13.05-.25.01-.41l.2.09c.34-.49.4-.74.63-1.19.2-.37.35-.43.48-.6.08-.15.06-.26.07-.44.06-.25.2-.37.11-.73-.02-.33-.3-.74-.64-.53zm-.13-1.96c-.26.11-.3.13-.3.42l-.26.1.1.14c.3-.18.5-.27.46-.66zm.46.73c-.18-.04-.37.1-.52.22a.48.48 0 0 0-.16-.22c-.47-.26-.84 1.04-.2.6.18.27.73.44 1.05.59.1-.1.13-.17.16-.3.1-.33-.03-.85-.33-.9zm-3.2 2.39c-.04.07-.12.22-.14.35-.02.17.17.26.32.15.14-.12.29-.47.42-.64.13-.17.18-.2.32-.31.14-.17.3-.42.44-.59.39-.5.44-.3.52-.9-.02-.11.02-.19 0-.3-.28-.4-.98.25-1.04.22l-.34.02c-.11 0-.31.14-.47.2.4.24.41.29.88.09-.03.36-.38 1.03-.76.9-.24-.07-.3-.28-.4-.29-.19-.04-.15.35-.23.5-.18.47-.55.57-.5 1.25l.18-.2c.25.35.57-.24.8-.45zm1.8-2.03l.02.05-.07-.03.05-.02zm6.4 8.87c.09-.1.09-.33.06-.43a.33.33 0 0 0-.16-.21c-.12-.01-.17 0-.28.05l-.07-.3-.16.06.04.39-.15-.12.1.65c.15.34.54.06.62-.09zm7.22-24.6c.16-.23.15-.51.25-.78.16-.53.53-.85.5-1.41l-.49.08c0 .23.03.57-.21.72-.05.02-.27.06-.34.03l-.11.68c-.06.2-.17.7-.13.85.02.28.37.13.53-.16zm10.21-4.18c-.1.04-.2.08-.3.17.04.1.1.14.18.22l.19.1a.3.3 0 0 0 .33-.48c-.08-.09-.3-.06-.4-.01zm-16.36 35.2c.13.06.17.22.2.37l-.4.24-.15.35-.2.37.75-.04c-.34.26-.56.3-.75.73l.9-.39c.58-.2 1.04-.22 1.55-.72l-.13-.06.1-.56-.43-.1-.19-.27-.78-.58-.24-.01c.16-.3.49-.84-.07-.77l-.28.06.2-.37c-.33.08-.6.14-.81.46-.24.44-.19.88.28.91-.04.53.24.24.45.38zm5.52 3.94c.4.23.8-.74.18-.65-.05.02-.17.02-.2.1-.11.04-.22.08-.3.18.05.09.12.17.18.26 0 .05.09.14.14.11zm-12.64-20.87l.11-.28c.31-.13.3-.41.13-.63-.06-.03-.18-.04-.24-.07-.6-.15-.6.37-.7.64l-.16.53.2.14c.35-.2.48-.14.82-.17l-.16-.16zm14.26-16.44c.28-.23.3-.36.5-.5.09-.09.75-.13.55-.5l-.2-.1v.18c-.2-.1-.45-.22-.68-.24-.24-.01-.96.23-1.22.34l.56.22.5.6zm-56.87-11.53c1.18-1.1 2.53-2.5 3.3-3.72 1.52-2.5 3.34-5.43 3.52-10.63-4.32 2.7-5.96 5.87-7.2 8.41a20.54 20.54 0 0 0-1.5 4.37c-.47 1.91-1.25 4.76-2.22 6.45 1-1.65 2.92-3.79 4.1-4.88zm43.03 27.33l.05.2c.1-.04.2-.08.3-.18.17-.24 0-.74-.19-.78-.16.02-.23.22-.2.32l-.02.18.06.26zm.37 1.05c-.08-.31-.01-.28.26-.34l-.07-.54c-.15.12-.35.2-.48.37-.2.37-.14.63.29.51zm-32.47 43.12l-.04.05 1.09 1 .05-.05c9.2 8.12 22.11 11.41 36.4 8.62 29.58-6.28 52.44-31.73 51.06-60.07-1.39-28.75-24.3-51.03-51.19-46.85-26.89 4.17-49.75 30.1-51.06 60.4-.56 15 4.6 28.3 13.69 36.9zm-11.87-34.87c2.68-.2 5.36-.43 8.04-.7.02 1.3.11 2.58.24 3.84-.26-.07-.67-.36-.92-.41-.06-.04-.25-.14-.35-.05-.1.04-.1.27-.14.4.04.45.16.52.44.77.06.04.26.2.13.36-.23.26-.67-.52-.9-.02-.04.12-.03.18-.07.25l-.1.04-.35-.87-.07-.38-.44-.77-.4.54-.15-.47-.18-.34c-.1-.25-.31-.18-.5 0-.37.42-.6.97-.82 1.22-.29.27-.53.18-.73.3-.24.2-.38.6-.43.91l-.2 2.4c-.19 1.87-.38 2.34 0 4.19l.3 1 .34 1.39.25.67.1-.04a9.59 9.59 0 0 1-.1-2.8c.12-.8.4-1.02.34-1.93l.2.69c.26-.38.21-.6.6-.91.16.23.22.27.34.58.1.25.15.47.31.7.16.23.28.25.43.43.14.13.25.38.34.57.19.35.36.92.81.93.14-.45.04-.94 0-1.39.03-.13.02-.47.11-.56.26-.15.4.32.44.48.2.4.36.92.65 1.22.31.4.5.27.93.93l.05-.3c.18.33.03.68.45.81a5.42 5.42 0 0 1-.1-1.35c.02-.13.18-.18.29-.22l.43 1.8c.04.22.15.47.3.6.32.22.65-.13.81.1l.3.92c.26.66.6 1.46.95 2.02.26.43.6 1 1 1.24.1.08.21.16.34.18a32.73 32.73 0 0 0 5.92 7.42c-1.98 2.3-3.98 4.6-5.98 6.9-8.31-7.83-13.22-19.73-13.25-33.29zm45.22-48.12c.61.03 1 .27 1.68.1-.3-.2-.58-.4-.86-.62l.39-.44c-.25-.13-.35-.09-.59-.16-.1-.05-.14-.13-.21-.2l.51-.11h.02c.17.05 1.02-.07 1.23-.1.2-.07.33-.16.43-.26l.12-.02-.01 10.77c-7.66 1.55-14.6 5.96-19.95 12.03a535.7 535.7 0 0 1-6.52-6.3c6.28-7.7 14.56-13.48 23.77-15.9l-.12.04c-.29.18-.52.34-.85.59-.3.17-.68.4-.65.78.68-.16.93-.27 1.6-.2zm-3.45 33.04h-.02c.08-.16.12-.23 0-.3-.14-.05-.42-.05-.66-.12-.45-.21-.47-.55-.58-1.02-.1-.42-.15-.4-.34-.72-.08-.14-.1-.24-.25-.36-.14-.11-.44-.21-.63-.3-.26-.13-.58-.28-.85-.23-.2.03-.36.13-.52.22a641.9 641.9 0 0 1-2.57-2.35 24.54 24.54 0 0 1 12.57-7.65l-.01 8.59 1.08-.18-.2.24c-.1.14-.25.3-.42.39-2.4.59-4.7 1.91-6.6 3.79zm3.23.3l-.09.08c-.1.04-.87.32-.73.31-.18.04-.38-.02-.57-.1.72-.6 1.5-1.14 2.3-1.57l-.32.68v-.23c-.49.32-.41.63-.6.82zm-18.45 29.95l-.6-.38c.32.15.58.28.97.23l.06-.49c.12-.5.26-.62.2-1.17-.16-.92-1.15-2.01-1.4-3.12-.1-.48-.05-1.02-.06-1.54l-.08-.89c-.04-.16.05-.3.05-.54l-.08-.6c.04-.36.07-.49 0-.8l-.36-.84-.1-.66-.18-.84c-.14-.64.17-1.05.18-1.52 0-.23-.34-.73-.46-.8-.18-.04-.54.17-.44-.16.1-.33.63.03.77.15.1-.62-.03-.68-.2-1.14l-.35-1.35c-.13-.35-.39-.48-.42-.64.01-.18.17-.25.33-.54.06-.1.1-.2.13-.31l2.18-.33-.02.63c-.09 5.74 1.75 10.72 4.92 14.3l-4.08 4.84c-.33-.3-.8-.18-1.2-.75.28.22.8.47 1.15.5-.2-.38-.62-.96-.91-1.24zm-4.3-17.54c-.03-.02-.04-.05-.06-.08l.64-.1c-.2.15-.4.27-.58.18zm-.07 25.31l-1.58 1.85c-.9-.82-1.74-1.7-2.53-2.65l.25.12.76.28.62.21c.55.13.55-.4.87-.52a4.15 4.15 0 0 1 1.61.71zm-.62-26.93c-.06-.23-.14-.5-.38-.72-.23-.26-.46-.29-.58.17l-.1.38c-.25-.42-.17-.85-.56-.82-.2.03-.32.16-.42.32a39.17 39.17 0 0 1 8.54-20.06 573.9 573.9 0 0 0 5.1 4.76 30.42 30.42 0 0 0-3.71 5.91c-.36.43-.7.88-.94 1.36-.26.57-.15.82-.42 1.39-.28.52-.99 1.15-1.42 2.01-.3.65-.24.97-.36 1.19-.08.15-.68.74-.83.85-.14.12-.3.18-.39.28-.13.17-.2.37-.27.57l-.45.76c-.09.22-.39.92-.51 1.32l-2.3.33zm11.94-13.11l.46-.2h1.4c.23-.03.45-.06.65-.04l.26.24c-.5.19-.44.05-.95.1-.48.1-.62.26-.99.36-.22.03-.33.02-.5.03-.45.23-.9.46-1.37.68a.53.53 0 0 1-.31 0 28.28 28.28 0 0 1 2.1-3.02l1.03.95-.37.2c-.2.08-.3-.06-.46-.04-.16 0-.9.25-.98.4-.09.1 0 .23.03.34zm-1.69 9.05c-.07.43-.32.83-.4 1.26-.1.27-.05.49-.27.75-.19.2-.51.27-.72.35-.21.13-.4.3-.56.47l-.71.11.04-.24c0-.24-.02-.86-.17-1.03-.08-.08-.13-.06-.25-.07.1.46.1.91 0 1.4l-.37.06c.1-.86.23-1.71.41-2.55a.66.66 0 0 0 .2-.16c.13-.25.23-.97.17-1.33.3-1.1.67-2.19 1.11-3.24.27-.06.53-.05.75.04.32.16.3.34.44.46.2.14.46.03.58.33.03.1.04.4.02.57.07.32.15.4.06.78-.13.4-.4.74-.47 1.18-.1.5.16.45.14.86zm2.44-13.22c-1.7-1.57-3.4-3.15-5.1-4.75 5.04-5.7 11.58-9.86 18.78-11.34L135-246c-5.23 1.17-9.98 4.19-13.67 8.3zm-6.8 12.85c-.3 1.2-.51 2.43-.64 3.67l-2.31.34c.05-.46.33-1.08.74-1.35.46-.25 1 .12 1.25.01.26-.1.36-.43.43-.63l.4-2.01.1-.05.02.02zm.82 6.3c.06-.22.1-.45.19-.68l.2-.6 3.85-.61c.07.13.15.24.23.3.32.15.53.07.87.04.23.02.41.06.6.15.45.22.36.54.57.74.2.1.34-.02.54.12l.93 1.05.48-.66c.14.1.29.08.36-.04.25 1.92.95 3.68 2 5.13-2.1 2.53-4.21 5.07-6.34 7.6-2.78-3.17-4.43-7.52-4.48-12.54zm8.61-.96c.06.03.1.07.15.11l.02.24a2.24 2.24 0 0 0-.17-.35zm-10-22.76a41.27 41.27 0 0 0-9.18 22.37c-2.6.33-5.2.65-7.8.93v-.55c.3-10.73 4.31-20.88 10.5-29.01 2.15 2.11 4.31 4.2 6.48 6.26zm-9.27 24.01l-.01.14-.34.54-.42.45c-.21.31-.32.87-.4 1.25l-.3 2.37c-.06.5-.17 1.29-.62 1.58-.15.11-.63.24-.8.25-.18-.05-.32-.17-.49-.17a1.9 1.9 0 0 1-.99.15c-.25-.14-.6-.47-.84-.5-.23-.03-.44.05-.65.13-.26.1-.63.24-.85.26a.93.93 0 0 1-.56-.27c-.25-1.7-.4-3.45-.44-5.25 2.57-.28 5.13-.59 7.7-.93zm30.18 44.65c-13.1 2.15-24.9-1.07-33.43-8.54 2-2.3 4-4.6 5.98-6.92 7.07 6 16.73 8.65 27.45 7v8.46zm0-10.4c-10.18 1.54-19.36-.99-26.09-6.66l1.64-1.92 1.19.82c.4.24.93.77 1.43.68l.5-.1c.57-.06 1.22-.04 1.78-.39a.9.9 0 0 0 .43-.4c.12-.23.18-.49.39-.57.22-.04.76.02 1 .04l.27.04c4.9 2.89 10.92 4.08 17.46 3.19v5.27zm0-14.41c-.24.14-.87.36-1.12.47-.59.2-.85.54-1.34.93l-.55.4c-.2.15-.6.38-.67.58-.07.2.08.37.12.52.04.16.03.34.01.51-.23.5-.9 1.09-.71 1.63.14.34.37.3.83.5.61.37 1.12 1.01 1.77 1.25.47.15 1.06.31 1.66.4v.15a25.86 25.86 0 0 1-14.76-2.15.57.57 0 0 0-.03-.18c-.2-.37-.9-.6-1.32-1.17-.4-.46-.7-1.03-1.15-1.42l-.99-.79a416 416 0 0 1-.62-.66l-.3-.29a2.04 2.04 0 0 1-.24-.58l-.07-.12c1.44-1.71 2.88-3.42 4.3-5.13 3.81 3.63 9.17 5.45 15.18 4.77v.38zm0-2.04c-5.56.6-10.51-1.11-14.03-4.48l6.28-7.54a9.65 9.65 0 0 0 4.92 2.66c.93.2 1.88.25 2.83.2v9.16zm0-11.74v.72a9.42 9.42 0 0 1-2.2-.2c-3.63-.77-6.05-3.63-6.67-7.23.03-.09.06-.17.1-.24.2-.37.66-.62 1.01-1.3-.11 0-.46-.03-.44-.2.05-.26.36-.39.54-.58.27-.34.44-.82.46-1.23l-.65.16-.39.05-.52.22-.19-.08c.06-.5.14-1 .26-1.5.23-.3.49-.53.5-.9.43-.07.5-.22.73-.25.46.03.7.8.95 1.15-.56 0-.4.45-.37.84.19-.19.38-.56.58-.7l.68-.23c.16-.07.2-.14.34-.26.35-.2.62-.04.85.21.18-.19.16-.3.01-.46l.26-.1-.2-.38c-.26.1-.33.08-.37.38-.24-.07-.24-.07-.51 0 .05-.1.1-.17.17-.25l-.03-.1c-.48-.1.02-.42.06-.72.01-.18-.06-.26-.14-.35l.62-.49c.24-.44.5-.27.58-.7.55-.06.29-.7.67-.98.1-.1.26-.1.37-.15l.42-.35c.21-.09.31-.13.5-.27.19-.2.33-.54.45-.76.08-.15.25-.4.27-.52.02-.18-.07-.31-.13-.58.22-.03.37-.1.49-.32.13-.17.08-.38-.15-.4l-.26.12.63-.9.06-.72-.2.14.03-.35c.32-.13.63-.25.95-.35l.08.37c.06.26.29 1.2.39 1.39.11.24.49.37.77.36.18.04.45-.02.6-.08l-.05-.67.16-.07.23.48.2-.09.67-.05.13.06c.09.14 0 .46.04.62.14.34.52.3.83.16.05.44.08.31.1.6.06.25-.1.32.3.78.07.08.24.3.4.23.15-.06.42-.58.75-.89.11.24.12.3.37.36l-.04.3.54-.57c-.06.9-.43.81-.72 1.45-.1.33.02.57-.02.87l.07.03.18-.2.14-.1c.45-.26.17.44.2.54.03.16.15.16.26.17l-.22.27.2.32-.93.39c-.45.25-.8.73-1.14 1.17l.02.1.17-.01-.84.76c.28-.01.62-.27.88-.38.25-.16.2-.08.5-.27l.19.04v.23l1.2.01c.28 0 .46-.2.64-.16.25.07.21.37.6.32.45-.02.76-.37 1.11-.58l-.36.61.25.3.49-.32c-.32.53-.35.2-1.08.5.19.04.72.1.83.11.29 0 .42-.17.82-.17.33-.02.76.08.8-.45.08.08.16.16.22.2.18.03.29-.02.45-.02.13-.02.37.03.55.12v.33a1.17 1.17 0 0 0-.2-.2c-.35-.25-.79.04-1.17.1-.27 0-.53.02-.8.04l-.59.13c-.32.08-.53-.06-.84.07-.1.04-.25.16-.22.27.03.1.15.16.22.19.36.08.22-.04.78.13.3.1.4 0 .68 0 .1 0 .2.03.3.04.22-.04.25-.16.47-.2.1-.04.32-.08.44-.07l-.86.7c-.23.05-.47.1-.71.13.18.27.25.3.05.67l-.15-.16c-.12.22-.1.32-.21.54l-.2.37c-.02.12-.14.34-.24.39-.16.06-.36-.08-.5-.14-.24-.06-.34-.02-.6.14.24.25.33.15.63.2.25.06.9.36 1.1.5-.05.03-.1.05-.12.17-.08.15.09.6.23.7.13.06.25.07.4 0l-.54.8c.28 0 .38-.1.64.03l-.52.22-.77-.31-.77-.08c.27-.05.7-.18.94-.4.41-.4.13-.85-.26-1.03-.25-.06-.4 0-.68.06-.22.04-.57.01-.78.1l-.56.3.02-.18c-.17.01-.24-.02-.37.15-.2-.09-.2-.14-.42-.1l.06.26-.27-.17.01.28c-.16-.17-.17-.22-.4-.23l.27.62-.07.2c-.26.34-.18.88-.1 1.2.15.62.04.84.05 1.35.04.39.18.5.15 1.08 0 .23-.12.91-.18 1.11l-.2.37-.13.4c-.03.1-.09.2-.14.3-1.07.56-2.21.95-3.37 1.16v-.83c-.51.1-1.03.18-1.55.27zm30.04-42.5c.01-.17.1-.26.1-.49 0-.17-.08-.48.06-.6.13-.1.46.06.57.08a3.45 3.45 0 0 0-1.16-1.55l.13-.15c6.52 6.48 10.77 15.74 11.1 26.28.02.21.01.43.02.64-2.55.26-5.1.55-7.65.87a30.91 30.91 0 0 0-4.74-14.13c-.35-.67-.8-1.29-1.17-1.88-.25-.3-.44-.63-.77-.79l.01.02a27.3 27.3 0 0 0-.66-.77c.05.02.11.02.22-.05-.22-.2-.85-.92-1.1-1 .07.14.13.23.19.3l-.72-.74c.1.05.2.09.28.1-.32-.39-.74-.94-1.24-1l-.18-.15.23-.27c.13.02.26.03.38.02a.9.9 0 0 0-.24-.19l3.7-4.45.75.5c.27.19.93.56 1.2.57l.16-.06.54-.48s.05-.02.03-.07c.01-.18-.04-.39-.03-.56zm5.81 40.45c-.18-.45-.94-.1-1.17.32-.11.21-.02.57-.01.8.06.43.08 1.33-.03 1.77-.11.44-.5 1.1-.44 1.54.08.3.45.39.73.34.06.23.08.76.18.98a47.95 47.95 0 0 1-3.9 5.8c-.07.02-.15.04-.26.04.2-.99.67-2.03 1.05-2.97.17-.4.49-1.16.43-1.59-.08-.48-.5-.37-.72-.51-.2-.1-.18-.22-.3-.23-.23-.02-.56.27-.78.3-.16.06-.29 0-.4 0-.2-.05-.39.08-.55.14-.35-.65-.06-2.13.07-2.93l.2-1.35a35.08 35.08 0 0 0 3.38-15.8l-.03-.45c2.52-.31 5.04-.6 7.55-.86a42.51 42.51 0 0 1-3.91 16.83l-.3-.54c-.16-.4-.4-1.1-.88-1.14.02-.13.14-.34.1-.5zm-34.3 6v-1.54c1.3-.23 2.57-.67 3.79-1.28.05.23.28.3.55.14.2-.13.38-.45.47-.72l.24-.14.79.85c.14.1.2.37.43.33.22-.04.28-.29.34-.49.08-.15.17-.24.25-.4.09-.32-.22-.64-.24-.92 0-.21.11-.38.12-.62.42-.36.82-.73 1.2-1.13v.1c-.05.48.52.24.56.62.01.28-.44.08-.52.45-.13.4.13.52.25.75.04.16-.03.36-.04.54-.17.47-.4.28-.67.57-.23.21-.46.7-.7.87-.2.14-.4.05-.55.12-.21.09-.34.49-.74.3-.4-.22-.02-.55-.15-.84l-.29-.45c-.27.29-.53.63-.38 1.02.2.32.59.5.45.84-.14.17-.45.3-.67.57-.28.3-.51.97-.6 1.06-.14.17-.3.24-.43.41l-.46.71-.08.15-.69.01.1.37c-.27.1-.27.1-.5.15-.16.01-.5.1-.55.35-.06.2.4.17.51.18.73.1.96.8.71 1.19-.17.24-.53.22-.75.26-.49.1-1.25.16-1.74.3l-.01-3.25c.16-.08.3-.17.37-.24.17-.25.07-.43.13-.63l.16-.3c0-.22-.37-.35-.66-.26zm6.34-6.7c-.18.18-.36.33-.55.5-.02-.42.17-.7.16-1.12-.03-.33-.24-.47-.29-.68-.04-.16-.02-.33.13-.4.35-.2.46.2.52.47l.03.56c0 .22-.06.42 0 .68zm-6.1 13.68c.3-.01.39.12.64.19.23 0 .33-.09.52-.23.48-.2.96-.13 1.62-.75a.9.9 0 0 0 .3-.42c.12-.22.03-.35.2-.6.22-.32.68-.58.9-.84.17-.25-.01-.51.33-.77.25-.17.56-.07.9-.33.3-.19.6-.66.9-.84.31-.14.56.16 1.02.13l1.81-.2a.39.39 0 0 1 .24.02c.52.23-.13.63-.38.8-.2.13-.25.15-.46.24.07.03.08.08.15.11.23.02.78-.1.95-.35.08-.14.06-.25.02-.4.2-.14.28-.24.34-.5-.04-.15-.14-.28 0-.45.07-.15.28-.23.44-.3-.3-.22-.47-.03-.8.05-.17.02-.25-.06-.42-.05-.16.07-.29.24-.53.22-.17.02-.36-.07-.53-.05-.19-.04-.63.04-.65-.25.03-.12.07-.2.17-.24.04-.07.1-.1.15-.12l.1.19c.54-.4.4-.06.9-.15.45-.03.95-.35 1.42-.32.3-.01.23.19.5.36.33.15.74-.08 1.1-.24-.04.08-.09.1-.07.15-.07.2.06.26.18.26.06.02.12.02.17.01a26.9 26.9 0 0 1-4.1 3.08c-.02-.03-.04-.06-.07-.07-.14-.11-.56.07-.72.13-.36.21-.28.3-.86.54l-1.93.88c-.6.26-1.1.61-1.48.88-.66.22-1.33.4-2.01.57a.56.56 0 0 0-.35.08l-.84.17v-.53l.24-.06zm13.67-11.25l-.17-.14.19-.15-.02.3zm.05 2.28c-.02.1-.03.18-.2.35l.11-.42.09.07zm-.1-.09c-.17.02-.37.1-.5-.01a.7.7 0 0 1-.13-.47v-.04l.62.52zm-.36.78c-.2.55.08.31.25.75.2-.08.43-.11.64-.17-.5.55-1.01 1.09-1.55 1.6.01-.1-.05-.19-.22-.2l.76-.67c-.42-.05-.6.2-1.16.03.26-.11.32-.13.49-.37v-.23l.8-.74zm-1.06 5.08c-.24.21-1.28.7-1.55.77a.77.77 0 0 1-.13.01c.61-.44 1.2-.9 1.78-1.39-.01.22.11.42-.1.6zm-4.63 10.7c-1.18.53-2.4.99-3.63 1.39l1.72-.9c.42-.18 1.04-.5 1.5-.53.16 0 .29.02.4.05zm-5.32 1.88c-.6.16-1.21.3-1.82.43l.75-.23c.38-.09.72-.14 1.07-.2zm-2.44 2.35a37.2 37.2 0 0 0 10.71-3.8c.03.06.08.11.16.15.33.14 1.33-.1 1.74-.11.27-.06 1.2.12 1.42.25.13.06.16.16.3.27.15.12.44.1.48.26.05.15-.26.57-.34.71-.25.4-.7 1.33-.32 1.68.15.11.5.13.7.17l.15-.01c-4.62 2.7-9.7 4.69-15.02 5.7v-5.27h.01zm14.12-16.98l-.1.06c.67-.66 1.32-1.34 1.93-2.06l.3.25-.2.21a11.5 11.5 0 0 1-1.93 1.54zm.95-5.7c-.11.18-.18.35-.25.51l-.92-.77c.16-.07.38-.16.46-.25.25-.16.43-.8.53-1.08l-.67.52c.07-.38.33-1.17.59-1.5l.13.5v.46c.57-.29.9-.6 1.37-.96.15-.12.43-.35.56-.3.19.05.12.25.1.37-.05.25-.33.76-.44.98-.36.6-.99.86-1.45 1.52zm-.17-27.98c-.14-.03-.54-.2-.74-.36l.16-.2c.48.4.93.83 1.37 1.28a2.39 2.39 0 0 1-1.15-.35l.39-.27-.03-.1zm2.83 29.36l.07.17c.04.45-.22.75-.52 1.04l-.27-.22.72-.99zm-.91-31.34c-.09.1-.05.25-.07.37-.07-.03-.13-.06-.23-.02-.22.03-.33.2-.38.38l-.72-.64 4.85-5.87.21.15c.3.28.6.57.93.78a1 1 0 0 0 .57.09l.55.57-.58-.08.05.6c-.25 0-.5-.03-.74-.04.04.38.29.9.62 1.12l.63.26c.52.26 1.05.56 1.52.89.43.34.47.5.63.67.13.06.26.12.4.01.03-.03.05-.1.06-.17.48.71.92 1.45 1.33 2.2-.08.57.1 1.1.19 1.63l.18 1.98.27.8c.22-.48.16-1.3.2-1.83.01-.28.05-.52.08-.75 1.34 2.93 2.2 6.19 2.51 9.68l-1.5.2c.31-.27.23-1.16-.32-.9-.22.2-.29.4-.22.66.01.13.08.23.18.28l-.44.06a.37.37 0 0 0-.17-.06c-.29-.01-.64.19-.89-.11-.28-.23-.71-1.2-.98-1.56-.6-.96-.59-.73-.85-1.09-.17-.21-.2-.5-.26-.75-.1-.19-.25-.3-.27-.4-.06-.21.07-.37.18-.59.16-.46.08-.77.28-1.08.17-.23.35-.19.41-.38.25-.56-.58-.69-.4-1.28.1-.26.42-.78.68-.88.19-.13.37-.1.56-.22.18-.18.13-.57.18-.81.12-.62.44-.68.4-1.47-.02-.27-.06-.66-.22-.82-.28-.23-.59.11-.63.36-.14.34-.04.7.04 1 .03.34.03.79-.1 1.13-.16.46-.65.3-.8.14-.09-.08-.06-.2-.09-.31-.06-.43-.2-.55-.17-1.07 0-.23.1-.9.02-.98-.04-.16-.6-.56-.74-.68-.27-.18-.77-.6-1.13-.24-.32.3-.14.97-.15 1.37 0 .18-.03.53-.18.59-.1.09-.29 0-.42-.07-.33-.2-.54-.35-.66-.82.17 0 .62-.01.61-.24-.05-.2-.35-.49-.55-.4-.22.02-.22.25-.53.15-.25-.13-.9-.85-1.17-1.07a2.98 2.98 0 0 0-1.34-.6c-.28-.01-1.2-.1-1.42.16zm3.66-6.03l.07-.08c.34.3.68.6 1 .92-.56-.2-.65-.5-1.06-.84zm3.36.56l.2.2.03.05-.23-.25zm-5.11 37l.2-.09.9-.3.52-.27c.27-.06.36.07.73-.07l1.25-.74c.52-.2.82.24 1.3-.3.4-.44.67-1.63.75-2.17l.28-1.31.06-.88c.1-.67.24-1 .07-1.68-.1-.32-.18-.65-.27-.97-.1-.42-.24-.7-.61-.16-.28.45-.34.88-.89.98-.04.7.18 1.53-.42 2.1-.22.26-.5.27-.75.42-.14.12-.32.3-.44.3-.16.06-.29 0-.33-.16 0-.22.34-.48.48-.59.48-.36.72-.52 1.03-1.1.18-.41.16-.7.3-1.03.15-.29.32-.3.48-.59.11-.22.28-.86.38-1.12l.35-2.14c.23-.66.73-.91.76-1.66l.12.23c.52-.43.43-.96.24-1.46.31-.12.96-.26 1.2-.41l1.08-1.1c.15-.16.37-.4.52-.65l1.96-.26.03.45c.1 4-.56 7.9-1.84 11.58l-.31-.85c-.1-.13-.26-.3-.45-.16-.3.17-.43 1.19-.51 1.5l-.52 1.52c-.14.34-.2.76-.4 1.07-.17.23-.45.46-.69.67-.12-.24-.26-.13-.45.01l-.89.8c-.18.2-.53.62-.79.72-.2.09-.35-.03-.65.15-.21.09-.55.34-.72.35-.22.03-.49-.09-.71-.05-.17 0-.47.19-.61.3-.53.22-1.4.23-1.95.29.09-.1.19-.14.16-.24.04-.3-.45-.61.05-.93zM163.2-258l-.1-.05c-.41-.3-.89-.86-1.47-1.2-.64-.33-1.08-.33-1.64-.57l-.97-.54-1.72-.87c-.44-.22-.99-.63-1.34-.95-.37-.37-.31-.56-.52-.71-.14-.12-.59-.17-.8-.14l.05-.25-.4-.06c.14-.52-.14-.3-.5-.6-.13-.13-.18-.33-.41-.58a3.54 3.54 0 0 0-1.19-.56l-2-.51c-.64-.14-1.52-.36-2.2-.2-.51.15-.8.55-1.29.81-.44.24-1.42.52-1.66 1.08-.27.5.63 1 .95 1.21l.92.6c.27.18.36.31.63.54.26.13.74.28.95.48.22.2-.07.37.22.65.23.25.73.5.91.77.1.2.18.5.37.6.18.04.35-.14.5-.2.24-.16.92-.77 1.16-.7.24.07 1.1.64 1.3.79.13.06.4.24.39.42.06.26-.78.2-.54.5.08.08.6.21.8.3l.7.4.82.37c.2.1.43.35.6.39.34.04.45-.4.76-.3.58.11 1.08.77 1.72 1.1.42.11.5.02.85.06.3.06.5.2.8.31.47.1.48-.07 1.06.22l.08.04-3.84 4.62a1.9 1.9 0 0 0-.31-.08 26.19 26.19 0 0 0-20.32-5.05v-10.75a32.47 32.47 0 0 1 27.03 8.18l-.36.43zm-10.02 6.96c.21.24.56.48.78.47.67.42 1.31.87 1.93 1.35l-5.13 6.23-.57-.4c.03-.14.08-.23.02-.33-.06-.09-.34-.14-.51.01a19.1 19.1 0 0 0-13.17-2.58v-7.77c6.15-.94 11.86.24 16.64 3.02zm-7.23 7.38c-.1.12-.23.15-.33.29-.1.21-.03.53.02.73.71-.3.56-.46.97-.63l.12-.06c1.03.47 2.01 1.02 2.93 1.67l-.34.41h-.24c-.21.02-.44.23-.74.18-.4 0-.58-.27-.92-.3-.64-.08-1.12.23-1.67.52-.26.1-.67.27-.9.48a1.4 1.4 0 0 0-.3.59c-.2.37-.63.66-.53 1.08.14.34.46.26.6.32.13.2.27.38.42.57-.35.2-.53.16-.84.29l-1.19.67c-.63.2-.87-.1-1.28-.15-.23-.02-.38.05-.56 0-.2-.08-.23-.24-.3-.27-.14-.11-.68 0-.83.06.03.1.04.16-.04.3-.06.2-.48.6-.68.7-.1.09-.26.1-.37.1v-.24c-.01-.28-.17-.21-.36-.08-.3.19-.45.48-.67.75.07-.2.12-.46.23-.68.17-.24.42-.4.65-.61l.72-.76c.18-.2.46-.42.59-.6.38-.5.32-1.67.13-2.23-.76.6-.54.57-1.04 1.07-.18.19-.28.23-.42.35-.13.17-.14.35-.16.52-.58.13-.11.68-.15.99-.1.32-.62.94-.93.84a.8.8 0 0 1-.46.2c-.17.01-.3-.05-.45.01l-.1.12v-8.17c3.38-.52 6.58-.13 9.42.97zm-9.47 69.78l-.02-8.46c6.3-1.2 12.26-3.7 17.59-7.1.06.06.13.1.22.13.32.09.8-.11 1.18-.21l1.68-.13c.59-.01.4.4.86.33.94-.22 2.25-1.49 2.93-2.22l1.42-1.26c.56-.51 1.06-1.05 1.56-1.59a9.84 9.84 0 0 0 1.74-3.05l5.06 4.23c-8.8 9.44-20.88 16.73-34.23 19.33zm35.33-20.57l-5.59-4.7c.08-.24.14-.44.14-.53.01-.15-.06-.25-.12-.35 6.96-8.2 11.16-18.28 11.35-29.06 2.7-.25 5.4-.47 8.1-.64-.02 13.22-5.18 25.4-13.88 35.28zm-35.48-82.48c25.96-4.03 48.05 17.3 49.34 45.03v.6c-2.7.17-5.39.38-8.09.63v-.64c-.38-11.05-4.86-20.78-11.71-27.59 1.8-2.15 3.6-4.28 5.39-6.39l-1.1-1.02-5.36 6.38a33.94 33.94 0 0 0-28.28-8.62l-.01-7.88-1.48.22-.01 7.91c-10.77 1.99-20.5 8.39-27.73 17.2-1.8-1.78-3.6-3.58-5.39-5.4 8.98-10.76 21.08-18.47 34.42-20.43zm-30.08 27.16c-6.53 8.52-10.77 19.15-11.1 30.44v.55c-2.69.27-5.36.5-8.04.7v-.5c.5-13.74 5.75-26.5 13.74-36.63 1.79 1.84 3.59 3.65 5.4 5.44z" overflow="visible" fill="#80b3ff"/></svg>