<svg xmlns="http://www.w3.org/2000/svg" xmlns:xlink="http://www.w3.org/1999/xlink" width="64" height="64"><defs><linearGradient id="g"><stop offset="0" stop-color="#2e7555"/><stop offset=".7"/><stop offset="1"/></linearGradient><linearGradient id="a"><stop offset="0" stop-color="#fff"/><stop offset=".06" stop-color="#fff" stop-opacity=".24"/><stop offset=".95" stop-color="#fff" stop-opacity=".16"/><stop offset="1" stop-color="#fff" stop-opacity=".39"/></linearGradient><linearGradient id="b"><stop offset="0" stop-color="#2e7555"/><stop offset=".7" stop-color="#305b47"/><stop offset="1" stop-color="#324d3c"/></linearGradient><linearGradient id="c"><stop offset="0" stop-color="#20382a"/><stop offset="1" stop-color="#304b3a"/></linearGradient><linearGradient id="d"><stop offset="0" stop-color="#181818"/><stop offset="1" stop-color="#181818" stop-opacity="0"/></linearGradient><linearGradient id="e"><stop offset="0" stop-color="#181818"/><stop offset="1" stop-color="#181818" stop-opacity="0"/></linearGradient><linearGradient id="f"><stop offset="0" stop-color="#181818" stop-opacity="0"/><stop offset=".5" stop-color="#181818"/><stop offset="1" stop-color="#181818" stop-opacity="0"/></linearGradient><radialGradient cx="23.92" cy="-5.93" r="20" fx="23.92" fy="-5.93" id="h" xlink:href="#g" gradientUnits="userSpaceOnUse" gradientTransform="matrix(3.01593 .02394 -.0274 3.45141 -40.3 42.94)"/></defs><rect width="56.55" height="56.55" rx="2.9" ry="2.9" x="3.72" y="3.72" style="marker:none" color="#000" overflow="visible" fill="url(#h)" stroke="#000" stroke-width="1.45" stroke-linecap="round" stroke-linejoin="round"/><path d="M11.29 30.87c-.48.03.44-.87 0 0zm7.16 0c.09.9-.26-.4 0 0zm4.45 10.52c-.56.6-.41.74-.76-.13-.54 1.03-1.41.76-1.7-.35-.4-1.61-1.24-2.93-1.94-4.44-.83-1.55-3.35-1.24-4.44-1-.66.36-.36 3.07-.96 1.41.92.35-.54-1.51.26-1.76-1.09.56-.75 2.65-.5 3.58-.24 1.04-.58 1.87-1.5 1.63-.44.15-.95.24-1.13.18-1.2.09-.15-1.2-1-1.7.16-1.14 1.8-.58.77-1.98.3-1.55 1.29-2.38.13-3.66.07-.52 1.22-1.12 1.43-1.54 1.6.08-.42-2.34.65-2.3-.25-.51.87-.93-.3-1.15.14-.66.02-1.43.5-.62.97-.07 1.09-1.08.1-.52 0-.68.33-2.2.37-.85.84-.42.07-1.67.22-2.28-.48-.3 1.45-2.62 2.35-1.26 1.25-.11 1.08 1.47.96 2.61 1.42.42.15 3.4 1.44 3.36.06 1.14-.1 3 .77 3.66.97-.32-.82 1.43.53 1.03.43.2.75 1.52 1.17.53.51.52 1.44 1.9.22.66-1.05-.2.21 1.87-.87.62-.2.9 1 .68.52 1.65.62.2.38-.73.6.32.5 1.43 1.59 2.49 2.04 4zM9.67 36.25c-.53.5.07-.43 0 0zm-.37.93c-.28-.2.12-.58 0 0zm.15.56c-.78.26-.14-.93 0 0zm-.37 1.9c-.45.92-.63-.48 0 0zm3.99 0c-.05 1.13-.54.38 0 0zM9 40.32c-.1.65-.5-.15 0 0zm4.48-17.03c-.6.35.31.61 0 0zm1.16.46c.07-.29-.42.06 0 0zm.08 3.6c.3-1.78-1.46 1.44-.3.01l.13-.06.17.05zm-1.62.69c-.45-1.04-.55.84 0 0zm4.46 1.6a7.94 7.94 0 0 0-.81-2.05c.3.57-.1 1.9.8 2.04zm-3.6-.75c.05-.34-.37.07 0 0zm-.48 1.04c-.82-.5.08 1.3 0 0zm4.2.4c.1-.59-.6.11 0 0zm-1.05 3.22c.38-1.75-1-3.31-1.33-4.93-1.46.37.86 1.62-.66 1.53-.47.38 1.08.25-.05.59-.46.4.63.91-.2 1.12.46.03-.79 1.46.6 1.3.57.02 1.16.07 1.64.39zm-2.8-1.86c.02-.19-.23-.2 0 0zm-1.7.34c-.97.47.04 1.77-.02.16zm.45 2.8c-.42-1.05-.72.64 0 0zm-.85.63c.2-1.44-.81.15 0 0zm-.67.41c-.04-1.47-.96.25 0 0zm2.42.39c0-.19 0-.12 0 0zm-1.2.56c.13-.76-.2-1.4-.14-.28.04.14-.1.36.15.28zm-1.3.76c.18-1.07-.71.17 0 0zm.75 1.24c0-1.32-.34-.99-.37.08.13.02.25-.04.37-.08zm-1.86 1c-.22-.4-.26.05 0 0zm25.21-16.7c-.51.25-1.48-1.1 0 0zm.38 8c-.42.23-.16-.48 0 0zm.98-5.9c-.49-.35-1.78-1.27-1.08.07-.36.86 1.68-.44.75.52-.43.16.22.7-.58.68 1.38.7-1.98 1.7-1.04 2.36-.53.48-.88.77-1.32.26-.25.85-1.04-.75-.87.45.19 1 1.41-.6.63.82-.91.99.85 1.62.52.13.88-.8.4 3.47 1.17 1.9-.37-1.09 1.44-.72.41 0-.14.84.6 1.54.15 2.03.82-.4.41.63.1.6.08.59-.78 1.77-.36.22-.28-1.2-1.23.33-.54.67-.82.48.1 2.14-.67 1.9.34-1.32-.32-.73-.76-.08-.44.42-.29 1.95-.9 1.1a5.23 5.23 0 0 1-2.47 1.56c0 .19-.33-1.18-.95-.15-.24-.19-.22-1.29-1.1-.51-.28-.92-.56-.2-.68-.24-.38-.9-1.16-.79-.94.2-.59.26-.57-1.83-1.2-.41-.96-.65.99-2.3-.4-2.54.61-.9-.3-1.92.45-2.74.34-1.11-.18-2.5-.22-3.25-.36.34.43-.82.1-1.2.96-1.2-1.2-.84.07-1.7-.14-1.3-.65-3.11.26-4.4.69-.14 1.27-.83 1.84-.36.46-.85 1.3-.12 1.74-1.05.87-.42 1 1.22 1.73.4-1.36-.64 1.14-.4.96.3.5-.95 1.6-.27 2.05-.35-1.32.49.8.58 1.24 1.04.67.49 1.71.86 1.91 1.77zM24.6 33.39c-.27-.45.08-.56 0 0zm11.34.22c-.93.03.2-1 0 0zm-.86 2.88c.32.9-.6-.18 0 0zm-1.54 2.47c-1.01-.23.32-.72 0 0zM30.7 22.52c-.1-.54-.4.34 0 0zm1.53.3c.19-.88-1.07 0 0 0zm-.41.85c.04-.78-.27-.2 0 0zm2.5.46c-.42-.35-.2.62 0 0zm-1.24 0c-.36.47 0 .95 0 0zm1.32 1.15c.13-1.43-.88.45 0 0zm0 .52c-.73.08-.02.39 0 0zm-.56.24c-.56-.13.03.64 0 0zm-.5.48c-.47-.41-.28.49 0 0zm-.85.77c.4-1.67-1.17-2.57-1.78-3.02-.88.52-1.54-1.01-2.25-.03-1.04-1.7-1.98 1.13-1.48 1.34.68-.98.55-.66.38.21.6.28.23 1.39.13.98.93.7.12 2.08 1 2.85.38-1 1.88-.58 2.4-1.71.41.19-.1 2.35.74 1.03-.04-.65-.56-1.38.3-2 .1.16.3.43.56.35zm-5.65-.36c-.05-.98-.88.22 0 0zm7.19.36c.01-.45-.6.15 0 0zm-7.52.03c-.67-.05.23.82 0 0zm6.83.76c-.09-.73-.18.42 0 0zm-6 .1c-.96-1.13-.2 2.17-.3.16l.18-.14.13-.02zm-1.22.26c-.31-.09.07.41 0 0zm1.69 1.43c-.19-.83-.91.43 0 0zm.6.48c-.16-.8-.14-.35 0 0zm-1.36.37c.11-.53-.35-.5 0 0zm4.12-.37c-.24.38-.04.54 0 0zm-5.35.37c.17-.95-1.16.2 0 0zm.86.76c.07-.52-.73-.03 0 0zm-.86.06c-.5.05-.11.97 0 0zm7.19 1.13c.3-.78-.55-.62 0 0zm-6.04-.04c-.65.06.03 1.16-.01.1zm6.4.82c.15-.92-.43-.14 0 0zm-7.47-.69c-.76.43.25 2.1.04.45l-.02-.23zm6.8 1.52c-.05-1.02-.3-2.1-1.44-2.04.23-.92-1.13.66-1.25-.71-.09-.33-.38.91-.75.23.34-.92-.2-2.67-.3-.8.62.77-1.19.93-.92.23-.46.45-.03 1-.7 1.48.66-.09 1.18.5.3.65.94.94-.14 2.55.28 3.4.04.71-.05.95.37 1.24.17 1.75 3.03.16 3.53-.9.34-.92 1.15-1.7.89-2.78zm-5.19-.07c-.23-.21-.19.83-.55 1.03-.31.82.77 1.91.14.7-.31-.63.81-1.07.41-1.73zm-1.61 2.63c.42-1.82-1.3.27 0 0zm2 1.27c-.08-.32-.32.13 0 0zm-2.2.55c.17-1.37-.63-.35 0 0zm18.7-15.68c-.1.47-.53 0 0 0zm10.82 14.76c-.22.6-1.3 2.6-1.34 1.45-1.2-.17-.83 1.26-1.8.68-.62.2-1.07.36-1.2.6-.83-.82-1.59.6-2.67-.16-.72.04-1.3-.86-1.34.26-.73-1.23-2.5-.76-3.08-2.1-1.08.59-2.74-.82-3.3-1-.04-.8-1.46-2.61-1.16-.74-.2.47-1-1.26-.24-1.46-1.55.1-.4-1.76-1-2.5-.45-.5-.17-2.57-.94-1.02-.4.43.26-1.4.7-1.48-.3-.78 1.47-1.94-.04-1.74.6-.27 1.14-2.07 1.1-1.7.05 1.9 1.75.07.97-.92-.08.34 1.27 1.72 1.48.1-.14-.95-.3-.77.45-.45.67-.3.43-1.16.8-1.3-.06.72.26 1.44.5.24 1.18.29.99-1.7 2.07-.86.04-1.37 1.54 0 1.78-1.33-.08 1.13.7.15 1.28.67.4-1.05 1.7-1.14 1.64-.16.53-.48 1.84.1.8.99-.09.44 1.1.29.02.73-.93.35-2.48-.68-3.9-.08a14.38 14.38 0 0 0-4.37 2.75c-.73.82-.42 1.9-1.3 2.24.1 1.57-.82 3.24.06 4.63 1.31 1.27 2 2.65 3.88 3.1.8.26 1.07 1.34 1.7.73 1.66.41 3.01 1.23 4.58.6 1.53.41 1.92-1.78 2.19-2.16.83.07 1.05-2.21 1.47-.48.25.58.46 1.24.21 1.87zm-17.32-3.9c-.13.44-.27-.56 0 0zm-.09.57c-.28.05.05-.28 0 0zm2.23 2.75c-.3.01.08-.7 0 0zm9.39-14.09c-.26-.94-.8.06 0 0zm-10.15 5.55c-.51-.16-.1.34 0 0zm-.37 1.43c-.62.13-.13.6 0 0zm1.89 1.28c-.45-.2-.06.96 0 0zm-1.52 1.04c.07-.47-.29.01 0 0zM39 34.6c-.01-.7-.38.38 0 0zm15.64 2.13c-.9-.32-.21 1.37 0 0zm0 1.28c.05-.62-.7-.03 0 0zm-7.2.76c-.52.04.05.59 0 0zm-2.13.25c-.13-.76-.49.42 0 0z" style="line-height:100%;-inkscape-font-specification:'Eraser Bold'" font-weight="700" font-size="16" font-family="Eraser" letter-spacing="0" word-spacing="0" fill="#fff"/></svg>