<svg xmlns="http://www.w3.org/2000/svg" xmlns:xlink="http://www.w3.org/1999/xlink" width="64" height="64" version="1"><defs><linearGradient id="j" x1="24.4" x2="24.4" y1="3.6" y2="26.09" gradientTransform="translate(-.4 16.4)" gradientUnits="userSpaceOnUse"><stop offset="0" stop-color="#fff"/><stop offset="1" stop-color="#fff" stop-opacity="0"/></linearGradient><linearGradient id="h" x1="7.55" x2="7.55" y1="3" y2="45.18" gradientUnits="userSpaceOnUse" gradientTransform="translate(0 16)"><stop offset="0" stop-color="#4d4d4d"/><stop offset="1" stop-color="#333"/></linearGradient><radialGradient id="f" cx="62.63" cy="4.63" r="10.63" gradientTransform="matrix(2.1647 0 0 .75294 -111.56 52.52)" gradientUnits="userSpaceOnUse"><stop offset="0"/><stop offset="1" stop-opacity="0"/></radialGradient><radialGradient id="g" cx="24.01" cy="24" r="21" gradientTransform="translate(1.12 17.12) scale(.95321)" gradientUnits="userSpaceOnUse"><stop offset="0" stop-color="gray"/><stop offset=".87" stop-color="#333"/><stop offset="1"/></radialGradient><linearGradient xlink:href="#a" id="i" x1="23.59" y1="41.59" x2="24.97" y2="6.22" gradientUnits="userSpaceOnUse" gradientTransform="translate(0 16)"/><linearGradient id="a"><stop offset="0"/><stop offset=".5" stop-color="#1a1a1a"/><stop offset="1" stop-color="#1a1a1a" stop-opacity="0"/></linearGradient><filter id="k" x="-.04" width="1.07" y="-.04" height="1.07" color-interpolation-filters="sRGB"><feGaussianBlur stdDeviation=".58"/></filter><linearGradient id="b"><stop offset="0" stop-color="#fff"/><stop offset="0" stop-color="#fff" stop-opacity=".24"/><stop offset="1" stop-color="#fff" stop-opacity=".16"/><stop offset="1" stop-color="#fff" stop-opacity=".39"/></linearGradient><linearGradient id="c"><stop offset="0" stop-color="#0f0"/><stop offset=".26" stop-color="green"/><stop offset=".66" stop-color="#68b723"/><stop offset="1" stop-color="#1d7e0d"/></linearGradient><linearGradient x1="31.86" y1="17.13" x2="16.15" y2="32.85" id="m" xlink:href="#d" gradientUnits="userSpaceOnUse" gradientTransform="scale(1.05273 1.0496) rotate(-45 55.28 10.3)"/><linearGradient id="d"><stop offset="0" stop-color="#fff"/><stop offset="1" stop-color="#fff" stop-opacity=".34"/></linearGradient><radialGradient xlink:href="#e" id="l" cx="15.55" cy="21.19" fx="15.55" fy="21.19" r="17.95" gradientTransform="matrix(1.13455 1.04276 -1.3135 1.42912 44.14 -8.94)" gradientUnits="userSpaceOnUse"/><linearGradient id="e"><stop offset="0" stop-color="#0f0"/><stop offset=".26" stop-color="green"/><stop offset=".66" stop-color="#68b723"/><stop offset="1" stop-color="#1d7e0d"/></linearGradient></defs><g stroke-width=".79"><path d="M47 56c0 4.42-10.3 8-23 8S1 60.42 1 56s10.3-8 23-8 23 3.58 23 8z" opacity=".3" fill="url(#f)" fill-rule="evenodd" transform="translate(1.74 -20.39) scale(1.26087)"/><path d="M44.5 40a20.5 20.5 0 1 1-41 0 20.5 20.5 0 0 1 41 0z" fill="url(#g)" stroke="url(#h)" stroke-width=".4" transform="translate(1.74 -20.39) scale(1.26087)"/><path d="M41.5 40a17.5 17.5 0 1 1-35 0 17.5 17.5 0 0 1 35 0z" fill="url(#i)" transform="translate(1.74 -20.39) scale(1.26087)"/><path d="M43.5 40a19.5 19.5 0 1 1-39 0 19.5 19.5 0 0 1 39 0z" opacity=".4" fill="none" stroke="url(#j)" filter="url(#k)" transform="translate(1.74 -20.39) scale(1.26087)"/><path d="M14.17 30.73c3.5 0 3.93-.1 3.93-.1m27.8.1c3.49 0 3.93-.1 3.93-.1M31.42 47.74c0-3.49-.1-3.93-.1-3.93" fill="none" stroke="#fff" stroke-linecap="round" stroke-width="1"/><path d="M31.42 16.28c0-3.48-.1-3.93-.1-3.93" fill="#fff" stroke="#fff" stroke-linecap="round" stroke-width="1"/><path d="M30.87 31.99l13.6-13.86M32.95 31.99l-9.2-9.2" fill="none" stroke="#fff" stroke-width=".9" stroke-linecap="round"/><path d="M31.2 31.23l13.83-3.9" fill="red" fill-rule="evenodd" stroke="red" stroke-width=".9" stroke-linecap="round"/></g><path d="M58.76 52.17l-7.5-7.22 7.22-7.57-5.2-4.7-7.43 7.22-7.57-7.21-5.42 4.86 7.58 7.37-7.58 7.24 5.42 5.05 7.57-7.57 7.57 7.57z" style="line-height:125%;text-align:start" font-weight="700" font-size="59.9" font-family="Bitstream Vera Sans" fill="url(#l)"/><path d="M57.4 37.37l-4.08-3.7-7.47 7.3-7.61-7.3-4.3 3.9m7.58 7.33l-7.57 7.26m23.77 0l-7.54-7.21" style="line-height:125%;text-align:start" font-weight="700" font-size="59.9" font-family="Bitstream Vera Sans" opacity=".4" fill="none" stroke="url(#m)" stroke-width=".71"/></svg>