<svg xmlns="http://www.w3.org/2000/svg" xmlns:xlink="http://www.w3.org/1999/xlink" width="64" height="64" version="1"><defs><linearGradient id="j" x1="24.4" x2="24.4" y1="3.6" y2="26.09" gradientTransform="translate(-.4 16.4)" gradientUnits="userSpaceOnUse"><stop offset="0" stop-color="#fff"/><stop offset="1" stop-color="#fff" stop-opacity="0"/></linearGradient><linearGradient id="h" x1="7.55" x2="7.55" y1="3" y2="45.18" gradientUnits="userSpaceOnUse" gradientTransform="translate(0 16)"><stop offset="0" stop-color="#4d4d4d"/><stop offset="1" stop-color="#333"/></linearGradient><radialGradient id="f" cx="62.63" cy="4.63" r="10.63" gradientTransform="matrix(2.1647 0 0 .75294 -111.56 52.52)" gradientUnits="userSpaceOnUse"><stop offset="0"/><stop offset="1" stop-opacity="0"/></radialGradient><radialGradient id="g" cx="24.01" cy="24" r="21" gradientTransform="translate(1.12 17.12) scale(.95321)" gradientUnits="userSpaceOnUse"><stop offset="0" stop-color="gray"/><stop offset=".87" stop-color="#333"/><stop offset="1"/></radialGradient><linearGradient xlink:href="#a" id="i" x1="23.59" y1="41.59" x2="24.97" y2="6.22" gradientUnits="userSpaceOnUse" gradientTransform="translate(0 16)"/><linearGradient id="a"><stop offset="0"/><stop offset=".5" stop-color="#1a1a1a"/><stop offset="1" stop-color="#1a1a1a" stop-opacity="0"/></linearGradient><filter id="k" x="-.04" width="1.07" y="-.04" height="1.07" color-interpolation-filters="sRGB"><feGaussianBlur stdDeviation=".58"/></filter><linearGradient id="b"><stop offset="0" stop-color="#fff"/><stop offset="0" stop-color="#fff" stop-opacity=".24"/><stop offset="1" stop-color="#fff" stop-opacity=".16"/><stop offset="1" stop-color="#fff" stop-opacity=".39"/></linearGradient><linearGradient id="c"><stop offset="0" stop-color="#0f0"/><stop offset=".26" stop-color="green"/><stop offset=".66" stop-color="#68b723"/><stop offset="1" stop-color="#1d7e0d"/></linearGradient><linearGradient id="d"><stop offset="0" stop-color="#fff"/><stop offset="1" stop-color="#fff" stop-opacity=".34"/></linearGradient><linearGradient id="e"><stop offset="0" stop-color="#0f0"/><stop offset=".26" stop-color="green"/><stop offset=".66" stop-color="#68b723"/><stop offset="1" stop-color="#1d7e0d"/></linearGradient><radialGradient xlink:href="#e" id="l" cx="66.84" cy="19.4" fx="66.84" fy="19.4" r="4" gradientTransform="matrix(11.9653 .05208 -.03854 8.85515 -749.24 -132.63)" gradientUnits="userSpaceOnUse"/></defs><g stroke-width=".79"><path d="M47 56c0 4.42-10.3 8-23 8S1 60.42 1 56s10.3-8 23-8 23 3.58 23 8z" opacity=".3" fill="url(#f)" fill-rule="evenodd" transform="translate(1.74 -20.39) scale(1.26087)"/><path d="M44.5 40a20.5 20.5 0 1 1-41 0 20.5 20.5 0 0 1 41 0z" fill="url(#g)" stroke="url(#h)" stroke-width=".4" transform="translate(1.74 -20.39) scale(1.26087)"/><path d="M41.5 40a17.5 17.5 0 1 1-35 0 17.5 17.5 0 0 1 35 0z" fill="url(#i)" transform="translate(1.74 -20.39) scale(1.26087)"/><path d="M43.5 40a19.5 19.5 0 1 1-39 0 19.5 19.5 0 0 1 39 0z" opacity=".4" fill="none" stroke="url(#j)" filter="url(#k)" transform="translate(1.74 -20.39) scale(1.26087)"/><path d="M14.17 30.73c3.5 0 3.93-.1 3.93-.1m27.8.1c3.49 0 3.93-.1 3.93-.1M31.42 47.74c0-3.49-.1-3.93-.1-3.93" fill="none" stroke="#fff" stroke-linecap="round" stroke-width="1"/><path d="M31.42 16.28c0-3.48-.1-3.93-.1-3.93" fill="#fff" stroke="#fff" stroke-linecap="round" stroke-width="1"/><path d="M30.87 31.99l13.6-13.86M32.95 31.99l-9.2-9.2" fill="none" stroke="#fff" stroke-width=".9" stroke-linecap="round"/><path d="M31.2 31.23l13.83-3.9" fill="red" fill-rule="evenodd" stroke="red" stroke-width=".9" stroke-linecap="round"/></g><path d="M49.8 24.63a4 4 0 0 0-4 4c0 4 1.32 9.33 2.66 20h2.66c1.34-10.67 2.67-16 2.67-20a4 4 0 0 0-4-4zm0 28a4 4 0 1 0 0 8 4 4 0 0 0 0-8z" fill="url(#l)"/><path d="M49.98 60.51c.34-.04.69-.07 1-.2a4 4 0 0 0 0-7.37c-.31-.13-.66-.15-1-.2l-.45.09c.18.05.39.04.56.11a4 4 0 0 1 0 7.37c-.17.07-.38.07-.56.12l.45.08zM49.87 48.63h.88c.67-5.34 1.34-9.34 1.84-12.5.5-3.17.83-5.5.83-7.5a4 4 0 0 0-2.44-3.69c-.31-.13-.66-.15-1-.2l-.45.09c.18.05.39.04.56.11a4 4 0 0 1 2.44 3.69c0 2-.33 4.33-.83 7.5-.5 3.16-1.17 7.16-1.83 12.5z" opacity=".39" fill="#f9f9f9"/></svg>