<svg xmlns="http://www.w3.org/2000/svg" xmlns:xlink="http://www.w3.org/1999/xlink" width="64" height="64"><defs><linearGradient id="a"><stop offset="0" stop-color="#4d4d4d"/><stop offset="1"/></linearGradient><linearGradient xlink:href="#a" id="e" x1="16.5" y1="20.25" x2="10.5" y2="45.75" gradientUnits="userSpaceOnUse" gradientTransform="translate(60 -1.33)"/><linearGradient xlink:href="#b" id="f" gradientUnits="userSpaceOnUse" gradientTransform="matrix(-1 0 0 1 108 -.33)" x1="5.39" y1="42.59" x2="16" y2="20"/><linearGradient id="b"><stop offset="0"/><stop offset="1" stop-color="#4d4d4d"/></linearGradient><linearGradient id="c"><stop offset="0" stop-color="gray"/><stop offset=".34" stop-color="#4d4d4d"/><stop offset="1"/></linearGradient><radialGradient xlink:href="#a" id="d" cx="27.55" cy="6" fx="27.55" fy="6" r="20" gradientTransform="matrix(1.2 0 0 .6 53 5.57)" gradientUnits="userSpaceOnUse"/><radialGradient xlink:href="#c" id="g" gradientUnits="userSpaceOnUse" gradientTransform="matrix(1 0 0 1.15756 60 .1)" cx="23.28" cy="13.92" fx="23.28" fy="13.92" r="19.44"/></defs><path d="M84.5 25.67l-21-8v-4l21-8.5 20 8.5v4z" fill="url(#d)" transform="translate(-94.63 -5.3) scale(1.51184)"/><path d="M63.5 13.67v22l21 8.5v-22.5z" fill="url(#e)" transform="translate(-94.63 -5.3) scale(1.51184)"/><path d="M104.5 13.67v22l-20 8.5v-22.5z" fill="url(#f)" transform="translate(-94.63 -5.3) scale(1.51184)"/><path style="line-height:normal;-inkscape-font-specification:Sans;text-indent:0;text-align:start;text-decoration-line:none;text-transform:none;marker:none" d="M45.14 8.77L16.57 21.14l.87.17L46.02 8.94z" color="#000" font-weight="400" font-family="Sans" overflow="visible" opacity=".8"/><path d="M42.76 7.62l-29.39 12.9 5.94 2.26L48.7 9.88z" style="line-height:normal;-inkscape-font-specification:Sans;text-indent:0;text-align:start;text-decoration-line:none;text-transform:none;marker:none" color="#000" font-weight="400" font-family="Sans" overflow="visible" opacity=".4"/><path d="M84.09 22l-20.13-8 20.52 7.22 19.38-7.21-18.77 8.13.07 21.65-1.12-.55z" fill="url(#g)" transform="translate(-94.63 -5.3) scale(1.51184)"/><path d="M58.83 19.75l-1.87 3.52.35-.15.76-.34v4.51l1.51-.67V22.1l.76-.34.33-.15zm-4.54 2.02l-1.87 3.52.36-.15.76-.34v4.51l1.5-.67v-4.51l.76-.34.33-.15zm6.8 5.7l-9.07 4.04V33l9.07-4.04z" opacity=".86"/><path d="M.64 16.5l1.51-.67v32.22l-1.51.67z" opacity=".1" fill="#fff"/><path d="M15 24.2l5.1 2.23v10.2l10.19 4.46v5.1l-10.2-4.47v10.2L15 49.67v-10.2L4.8 35.03v-5.1L15 34.39z" fill="#f2f2f2"/></svg>