<svg xmlns="http://www.w3.org/2000/svg" xmlns:xlink="http://www.w3.org/1999/xlink" width="64" height="64"><defs><linearGradient id="b"><stop offset="0" stop-color="#fff"/><stop offset="1" stop-color="#fff" stop-opacity="0"/></linearGradient><linearGradient id="a"><stop offset="0" stop-color="#333"/><stop offset="1"/></linearGradient><radialGradient xlink:href="#a" id="e" cx="28.31" cy="27" fx="28.31" fy="27" r="30.04" gradientTransform="matrix(1 0 0 .95124 0 1.56)" gradientUnits="userSpaceOnUse"/><linearGradient xlink:href="#b" id="f" x1="17.9" y1="3.42" x2="17.03" y2="39.87" gradientUnits="userSpaceOnUse"/><linearGradient id="c"><stop offset="0" stop-color="#fff"/><stop offset="0" stop-color="#fff" stop-opacity=".24"/><stop offset="1" stop-color="#fff" stop-opacity=".16"/><stop offset="1" stop-color="#fff" stop-opacity=".39"/></linearGradient><linearGradient id="d"><stop offset="0" stop-color="#0f0"/><stop offset=".26" stop-color="green"/><stop offset=".66" stop-color="#68b723"/><stop offset="1" stop-color="#1d7e0d"/></linearGradient><linearGradient x1="24.14" y1="20.27" x2="24.14" y2="26.01" id="i" xlink:href="#c" gradientUnits="userSpaceOnUse" gradientTransform="matrix(1.38197 0 0 1.16415 23.05 23.78)"/><linearGradient xlink:href="#c" id="h" gradientUnits="userSpaceOnUse" gradientTransform="matrix(1.39932 0 0 1.16415 8.77 23.78)" x1="24.14" y1="20.27" x2="24.14" y2="26.01"/><radialGradient xlink:href="#d" id="g" cx="32.36" cy="10.8" fx="32.36" fy="10.8" r="19.49" gradientTransform="matrix(-.00597 2.28114 -1.55843 -.00408 64.46 -37.79)" gradientUnits="userSpaceOnUse"/></defs><path style="marker:none" d="M32 3.42c.84 0 8.57 18.36 9.25 18.85.68.5 20.53 2.18 20.79 2.98.26.8-14.8 13.82-15.07 14.62-.26.8 4.28 20.2 3.6 20.7-.68.49-17.73-9.82-18.57-9.82-.84 0-17.89 10.3-18.57 9.81-.68-.5 3.86-19.89 3.6-20.69-.26-.8-15.33-13.82-15.07-14.62.26-.8 20.1-2.48 20.79-2.98.68-.5 8.41-18.85 9.25-18.85z" color="#000" overflow="visible" fill="url(#e)"/><path d="M54.23 33c.23-.2.24-.23.47-.44 1.88-1.73 3.75-3.46 5.13-4.8 1.38-1.35 2.28-2.31 2.21-2.51-.06-.2-1.35-.46-3.26-.74-1.91-.27-4.44-.57-6.98-.87-5.07-.58-10.2-1.12-10.55-1.37-.34-.25-2.44-4.96-4.56-9.6A252.52 252.52 0 0 0 33.7 6.3c-.86-1.73-1.5-2.88-1.71-2.88-.21 0-.85 1.15-1.7 2.88a234.1 234.1 0 0 0-2.99 6.36c-2.12 4.65-4.22 9.36-4.56 9.61-.34.25-5.48.8-10.55 1.37-2.54.3-5.07.6-6.98.87-1.9.28-3.2.54-3.26.74-.07.2.83 1.16 2.2 2.5a252.3 252.3 0 0 0 5.14 4.81l.7.66a38.54 22 0 0 0 21.88 3.9A38.54 22 0 0 0 54.23 33z" opacity=".28" fill="url(#f)"/><path style="marker:none" d="M52.17 45.78H33.61v9.98h27.14v-9.98z" fill="url(#g)"/><path d="M47.1 46.58l12.83-.04v8.31l-12.82.04" opacity=".5" fill="none" stroke="url(#h)" stroke-width="1.98"/><path d="M47.1 54.89l-12.67-.04v-8.3l12.66.03" opacity=".5" fill="none" stroke="url(#i)" stroke-width="1.96"/></svg>