<svg xmlns="http://www.w3.org/2000/svg" xmlns:xlink="http://www.w3.org/1999/xlink" height="64" width="64" version="1"><defs><linearGradient id="h"><stop offset="0" stop-color="red"/><stop offset=".22" stop-color="#ff7f2a"/><stop offset=".41" stop-color="#ffd42a"/><stop offset=".58" stop-color="#71c837"/><stop offset=".76" stop-color="#3771c8"/><stop offset="1" stop-color="#7137c8"/></linearGradient><linearGradient id="d" gradientUnits="userSpaceOnUse" x1="579.73" y1="732.41" x2="579.73" y2="736.56" gradientTransform="translate(-484 -674)"><stop offset="0"/><stop offset="1" stop-color="#333"/></linearGradient><linearGradient id="g"><stop offset="0"/><stop offset=".5"/><stop offset="1" stop-color="#fff"/></linearGradient><linearGradient id="b"><stop offset="0" stop-opacity=".73"/><stop offset="1" stop-color="#fff" stop-opacity="0"/></linearGradient><linearGradient id="e"><stop offset="0" stop-color="#fff"/><stop offset="1" stop-color="#fff" stop-opacity="0"/></linearGradient><linearGradient id="a"><stop offset="0" stop-color="#fff" stop-opacity="0"/><stop offset=".33" stop-color="#fff" stop-opacity="0"/><stop offset=".56" stop-color="#fff"/><stop offset=".75" stop-color="#fff" stop-opacity="0"/><stop offset="1" stop-color="#fff" stop-opacity="0"/></linearGradient><linearGradient gradientTransform="translate(-484 -674)" y2="678.37" x2="538.77" y1="674" x1="538.77" gradientUnits="userSpaceOnUse" id="f"><stop offset="0"/><stop offset="1" stop-color="#333"/></linearGradient><linearGradient xlink:href="#a" id="r" gradientUnits="userSpaceOnUse" gradientTransform="matrix(.05385 .01608 -.36281 .32959 102.22 160.4)" x1="-2105.84" y1="-86.33" x2="-2035.21" y2="-88.1"/><linearGradient xlink:href="#b" id="p" gradientUnits="userSpaceOnUse" gradientTransform="matrix(1.16162 -.0474 .02691 .54588 5.17 -400.18)" x1="-435.3" y1="403.28" x2="-419.49" y2="405.64"/><linearGradient xlink:href="#a" id="q" gradientUnits="userSpaceOnUse" gradientTransform="matrix(1.16162 -.0474 .02691 .54588 5.17 -400.18)" x1="-432.85" y1="406" x2="-420.17" y2="406.47"/><radialGradient xlink:href="#a" id="o" gradientUnits="userSpaceOnUse" gradientTransform="matrix(.25268 -.5204 -.22462 -.13754 68 127.08)" spreadMethod="reflect" cx="-36.28" cy="224.72" fx="-36.27" fy="224.71" r="14.29"/><linearGradient xlink:href="#c" id="n" x1="-9.74" y1="73.63" x2="75.95" y2="76.29" gradientUnits="userSpaceOnUse" gradientTransform="translate(.17 2.5) scale(.49686)"/><linearGradient id="c"><stop offset="0" stop-color="#1a1a1a"/><stop offset="1" stop-color="#b3b3b3"/></linearGradient><linearGradient xlink:href="#d" id="m" gradientUnits="userSpaceOnUse" gradientTransform="matrix(.20447 .21213 -.08424 .08462 15.2 35.43)" x1="187.07" y1="132.54" x2="185.19" y2="223.54"/><linearGradient xlink:href="#e" id="l" gradientUnits="userSpaceOnUse" gradientTransform="translate(-6.07 64.32) scale(.55425)" x1="73.75" y1="34.02" x2="92.72" y2="34.02"/><linearGradient xlink:href="#f" id="k" gradientUnits="userSpaceOnUse" gradientTransform="matrix(.20447 .21213 -.08424 .08462 18.53 31.55)" x1="185.9" y1="228.85" x2="187.18" y2="123.06"/><radialGradient xlink:href="#g" id="j" gradientUnits="userSpaceOnUse" gradientTransform="matrix(.18514 -.17349 .76162 .81277 3.25 71.93)" cx="91.51" cy="33.32" fx="94.44" fy="33.12" r="9.81"/><linearGradient xlink:href="#d" id="i" gradientUnits="userSpaceOnUse" gradientTransform="matrix(.5399 .00374 -.00472 .56894 -4.54 63.32)" x1="105.82" y1="30.99" x2="93.17" y2="19.69"/></defs><path d="M54.92 4h-.07c-1.9.02-3.93.77-5.8 2.5-2.31 2.17-4.19 7.05-7.44 7.09a5.06 5.06 0 0 0-.72 1.66 6 6 0 0 0-2.32-.56c-.62 0-1.13.18-1.48.53l-3.37 3.1-.3.24c-.79.8-.49 2.3.52 4.1C25.02 30.77 16 39.01 7.09 47.12c-.04.03-.74.66-1.35 2.1-.6 1.44-.63 3.93-2.91 5.59-1.54 1.44-1.16 2.7-.48 3.7.08.12.22.24.35.37.1.14.21.29.32.37.93.77 2.15 1.27 3.73-.12 1.87-2.12 4.35-1.9 5.83-2.38a5.97 5.97 0 0 0 2.22-1.14c8.96-8.16 18.05-16.43 27-24.6 1.8 1.16 3.31 1.55 4.2.84l2.46-2.22 1.02-.99.02-.02c.66-.69.68-1.96.18-3.51.63-.05 1.26-.2 1.87-.47.12-3.56 5.38-5.24 7.52-7.24 6.54-6.12 1.89-13.43-4.15-13.4z" fill="none" stroke="#000" stroke-width=".75" stroke-linecap="round" stroke-linejoin="round"/><path d="M49.1 70.38c-2.32 2.17-4.2 7.05-7.46 7.1-3.44 5.18 4.19 13.65 9.96 11.07.12-3.58 5.39-5.26 7.53-7.26 8.64-8.08-2.2-18.23-10.03-10.91z" fill="url(#i)" transform="translate(0 -64)"/><path d="M41.7 77.23c-3.78 4.75 4.49 13.17 9.75 11.26 0-3.3-6.26-9.9-9.76-11.26z" opacity=".36" fill="url(#j)" transform="translate(0 -64)"/><path d="M49.53 92.56l-1.02.98-2.46 2.22c-1.9.04-2.84-5.14-5.55-7.96-2.45-2.54-6.94-3.27-7.16-5.21l3.78-3.48c1.44-1.46 5.39.38 8.74 4.17 3.36 3.8 5.1 7.77 3.69 9.25" fill="url(#k)" transform="translate(0 -64)"/><path d="M40.46 79.08l-5.65 5.18c.78.48 1.8.96 2.8 1.5l5.46-5.06c-.96-.69-1.76-1.29-2.61-1.62zm3.72 2.47l-5.4 4.89c.4.25.8.52 1.16.83l5.18-4.8c-.35-.33-.59-.63-.94-.92z" fill="url(#l)" opacity=".32" transform="translate(0 -64)"/><path d="M46.16 95.65c-1.45 1.45-4.94-.6-8.45-4.24-3.51-3.64-5.72-7.5-4.27-8.96 1.45-1.45 4.94.78 8.45 4.42 3.49 3.62 5.7 7.28 4.3 8.76" fill="url(#m)" transform="translate(0 -64)"/><path d="M34.51 22.06c-9.11 8.28-18.34 16.71-27.46 25-.03.03-.73.67-1.34 2.1-.61 1.45-.63 3.94-2.92 5.6-1.54 1.45-1.16 2.72-.48 3.72.08.12.22.24.35.37.1.13.22.28.32.37.94.77 2.16 1.27 3.74-.12 1.87-2.13 4.35-1.92 5.84-2.39a6.08 6.08 0 0 0 2.23-1.14c9.1-8.3 18.35-16.7 27.46-25-1.44-.44-3.19-1.91-4.66-3.54-1.48-1.62-2.78-3.5-3.08-4.97z" fill="url(#n)" fill-rule="evenodd"/><path d="M6.29 117.22c-.23.27-1.15.8-1.35.47-.16-.26.33-2.86.45-3.41.92-2.62.88-2.6 1.04-2.91.75-1.44 3.6-2.63 3.6-2.23.02 1.42-2.06 3.14-2.54 4.19-.82 1.77-.69 3.05-1.2 3.89z" fill="url(#o)" fill-rule="evenodd" transform="translate(0 -64)"/><path d="M-471.76-159.42c.11 2.33-3.8 4.38-8.75 4.58-4.94.2-9.05-1.52-9.16-3.85-.12-2.32 3.8-4.37 8.75-4.57 4.91-.2 9 1.5 9.16 3.8" fill="url(#p)" transform="matrix(.12516 .1572 -.154 .12217 39.32 152.9)"/><path d="M-471.76-159.42c.11 2.33-3.8 4.38-8.75 4.58-4.94.2-9.05-1.52-9.16-3.85-.12-2.32 3.8-4.37 8.75-4.57 4.91-.2 9 1.5 9.16 3.8" opacity=".83" fill="url(#q)" transform="matrix(.12516 .1572 -.154 .12217 39.32 152.9)"/><path d="M38.94 86.67l-27.07 24.8c-.26.23-.69.35-.96.27l-3.18-.95c-.28-.08-.3-.33-.04-.57l27.05-24.54c.9-.77 2.2-.52 4.2.99z" fill="url(#r)" fill-rule="evenodd" transform="translate(0 -64)"/></svg>