<svg xmlns="http://www.w3.org/2000/svg" xmlns:xlink="http://www.w3.org/1999/xlink" width="64" height="64" version="1"><defs><linearGradient id="a"><stop offset="0" stop-color="#333"/><stop offset="1"/></linearGradient><radialGradient id="e" cx="26.38" cy="12.31" r="8" gradientTransform="matrix(2.3497 -.18993 .18353 2.27047 -37.33 -11.3)" gradientUnits="userSpaceOnUse" xlink:href="#a"/><radialGradient id="d" cx="25" cy="28.66" r="16" gradientTransform="matrix(1.88024 0 0 .53473 -22.17 25.27)" gradientUnits="userSpaceOnUse" xlink:href="#a"/><linearGradient x1="24.14" y1="20.27" x2="24.14" y2="26.01" id="h" xlink:href="#b" gradientUnits="userSpaceOnUse" gradientTransform="matrix(.82974 0 0 1.07293 31.67 25.32)"/><linearGradient id="b"><stop offset="0" stop-color="#fff"/><stop offset="0" stop-color="#fff" stop-opacity=".24"/><stop offset="1" stop-color="#fff" stop-opacity=".16"/><stop offset="1" stop-color="#fff" stop-opacity=".39"/></linearGradient><linearGradient x1="24.14" y1="9.71" x2="24.14" y2="36.59" id="g" xlink:href="#b" gradientUnits="userSpaceOnUse" gradientTransform="matrix(1.0984 0 0 .82133 25.71 31.18)"/><radialGradient cx="65.6" cy="48.74" r="31" fx="65.6" fy="48.74" id="f" xlink:href="#c" gradientUnits="userSpaceOnUse" gradientTransform="matrix(0 1.26177 -1.37265 0 117.02 -45.63)"/><linearGradient id="c"><stop offset="0" stop-color="#0f0"/><stop offset=".26" stop-color="green"/><stop offset=".66" stop-color="#68b723"/><stop offset="1" stop-color="#1d7e0d"/></linearGradient></defs><path d="M25.55 25.55c.66 3.12 1.03 5.48.5 8.6-4.17 3.46-14.84 5.01-14.82 8.6L9.79 53.48c0 3.56 9.95 6.44 22.21 6.44 12.26 0 22.2-2.88 22.2-6.44l-1.43-10.75c-.02-3.06-10.74-5.01-14.86-8.6-.35-2.88-.07-5.7.54-8.59h-12.9z" fill="url(#d)"/><path d="M32 4.07c-5.93 0-10.74 4.49-10.74 10.02.04 2.05.22 4.49 1.43 10.03.71 2.15 7.1 7.88 7.16 8.6 1.4.71 3.58.71 5.01 0 0-.72 5.74-6.45 6.45-8.6 1.37-5.76 1.36-7.88 1.44-10.03 0-5.53-4.81-10.02-10.75-10.02z" fill="url(#e)"/><path d="M45.66 45.6v-7.93h9.2v7.93h7.9v9.2h-7.9v7.9h-9.2v-7.9h-7.9v-9.2z" style="marker:none" color="#000" overflow="visible" fill="url(#f)"/><path d="M46.38 48.07v-9.6h7.8v9.6m0 4.26v9.6h-7.8v-9.6" opacity=".5" fill="none" stroke="url(#g)" stroke-width="1.57"/><path d="M54.4 46.33l7.61-.03v7.66l-7.6.03m-8.3 0l-7.6-.03V46.3l7.6.03" opacity=".5" fill="none" stroke="url(#h)" stroke-width="1.46"/></svg>