<svg xmlns="http://www.w3.org/2000/svg" xmlns:xlink="http://www.w3.org/1999/xlink" width="64" height="64"><defs><linearGradient id="e"><stop offset="0" stop-color="#333"/><stop offset="1"/></linearGradient><linearGradient id="b"><stop offset="0" stop-color="#fff"/><stop offset="1" stop-color="#fff" stop-opacity="0"/></linearGradient><linearGradient id="a"><stop offset="0" stop-color="#333"/><stop offset="1"/></linearGradient><linearGradient id="c"><stop offset="0" stop-color="#fff"/><stop offset="0" stop-color="#fff" stop-opacity=".24"/><stop offset="1" stop-color="#fff" stop-opacity=".16"/><stop offset="1" stop-color="#fff" stop-opacity=".39"/></linearGradient><linearGradient id="d"><stop offset="0" stop-color="#0f0"/><stop offset=".26" stop-color="green"/><stop offset=".66" stop-color="#68b723"/><stop offset="1" stop-color="#1d7e0d"/></linearGradient><linearGradient id="g" x1="20.49" x2="20.49" y1="6.01" y2="47.76" gradientUnits="userSpaceOnUse" gradientTransform="rotate(14.46 61.68 6.35) scale(1.58792)"><stop offset="0" stop-color="#fff"/><stop offset="1" stop-color="#fff" stop-opacity="0"/></linearGradient><radialGradient xlink:href="#e" id="f" cx="32" cy="32" fx="32" fy="32" r="29.71" gradientTransform="matrix(.35498 -.93622 .6028 .22856 1.35 54.65)" gradientUnits="userSpaceOnUse"/></defs><path d="M53.2 6.6c-.85-.32-1.81-.12-2.46.58L23 36.8l-9.63-12.76a2.29 2.29 0 0 0-3.24.1L2.91 29.7a2.3 2.3 0 0 0 .1 3.24l17.44 23.99c.22.2.46.34.72.44.85.34 1.86.16 2.52-.55L61.1 16.9a2.3 2.3 0 0 0-.1-3.24l-7-6.58a2.35 2.35 0 0 0-.8-.48z" fill="url(#f)"/><path d="M51.33 8.93L37.26 24.01 24.76 37.3c-.34.2-.48 1.1-1.76 1.1-.88 0-.95-.34-1.68-1.13l-8.51-11.2c-.94-1.26-.92-1.2-1.98-.57l-5.69 4.3c-1.47.95-1.49 1.74-.29 3.03L20.71 54.6c.2.2.1.21.94 1.2.54.62 1.5-.68 2.12-1.35l35.96-38.31c.81-.87.77-.87-.11-1.7l-6.3-5.74c-.9-.84-.9-.84-1.99.23z" opacity=".4" fill="none" stroke="url(#g)" stroke-width="1.59" stroke-linecap="round" stroke-linejoin="round"/></svg>