<svg xmlns="http://www.w3.org/2000/svg" xmlns:xlink="http://www.w3.org/1999/xlink" width="128" height="128"><defs><linearGradient id="e"><stop offset="0" stop-color="#333"/><stop offset="1" stop-color="#fff"/></linearGradient><linearGradient id="b"><stop offset="0"/><stop offset="1" stop-color="#666"/></linearGradient><linearGradient id="c"><stop offset="0"/><stop offset="1" stop-color="#4d4d4d"/></linearGradient><linearGradient id="a"><stop offset="0" stop-color="#e20800"/><stop offset="1" stop-color="#9c0f0f"/></linearGradient><linearGradient id="d"><stop offset="0"/><stop offset="1" stop-opacity=".05"/></linearGradient><linearGradient xlink:href="#b" id="f" gradientUnits="userSpaceOnUse" x1="27.34" y1="66.06" x2="26.37" y2="28.13" gradientTransform="matrix(.92188 0 0 .92188 5 5.05)"/><linearGradient xlink:href="#c" id="h" y1="1035.89" x2="0" y2="985.56" gradientUnits="userSpaceOnUse" gradientTransform="matrix(.92188 0 0 .92188 5 -847.09)"/><linearGradient xlink:href="#d" id="i" gradientUnits="userSpaceOnUse" gradientTransform="matrix(.96721 0 0 .76573 2.1 -679.78)" x1="125" y1="1007.25" x2="125" y2="1010.74"/><linearGradient xlink:href="#e" id="g" x1="21.94" y1="1021.57" x2="21.92" y2="973.18" gradientUnits="userSpaceOnUse" gradientTransform="matrix(.92188 0 0 .92188 5 -847.09)"/></defs><path d="M21.32 21.67c-7.5 0-13.55 5.25-13.55 11.77l.02.48h-.02V73.3h112.46V35.1a4.24 4.24 0 0 0-4.25-4.24H56.9v-9.2h-31.5z" fill="url(#f)"/><path d="M108.1 38.07a1.48 1.48 0 0 0-1.01-.02L52.05 56.87c-.78.28-27.98 8.26-27.72 9.04l43.73 27.8a1.48 1.48 0 0 0 1.87.93l48.58-12.31c.77-.27.25.78 0 0l1.72-9.02-11.26-34.33a1.48 1.48 0 0 0-.88-.92z" fill="url(#g)"/><path d="M10.47 62.05C7.43 62.05 5 63.96 5 66.33l3.76 37.76v1.48c0 1.2 1.24 2.16 2.78 2.16h104.92c1.54 0 2.78-.96 2.78-2.17L123 66.33c0-2.37-2.43-4.28-5.47-4.28zm0 0" fill="url(#h)" fill-rule="evenodd"/><path d="M7.59 92.36l.7 6.88h111.56l.65-6.9z" opacity=".43"/><path d="M8.28 99.24l.08.77h111.41l.08-.77z" opacity=".11" fill="#fff"/><path d="M7.59 92.36l.68 6.8 111.86-2.9.37-3.9z" opacity=".57" fill="url(#i)"/></svg>