<svg xmlns="http://www.w3.org/2000/svg" xmlns:xlink="http://www.w3.org/1999/xlink" width="64" height="64" version="1"><defs><linearGradient id="c" gradientUnits="userSpaceOnUse" x1="60" y1="12.85" x2="60" y2="120.21" gradientTransform="translate(145.71 -238.21)"><stop offset="0" stop-color="#fff"/><stop offset="1" stop-color="#fff" stop-opacity="0"/></linearGradient><linearGradient gradientTransform="translate(59.5 .27)" xlink:href="#a" id="h" x1="128.39" y1="-164.85" x2="128.38" y2="-128.13" gradientUnits="userSpaceOnUse"/><linearGradient id="a"><stop offset="0"/><stop offset="1" stop-color="#4d4d4d"/></linearGradient><linearGradient gradientTransform="translate(59.5 .27)" xlink:href="#b" id="g" x1="100.03" y1="-164.84" x2="100.03" y2="-128.13" gradientUnits="userSpaceOnUse"/><linearGradient id="b"><stop offset="0"/><stop offset="1" stop-color="#fff" stop-opacity="0"/></linearGradient><linearGradient xlink:href="#c" id="f" gradientUnits="userSpaceOnUse" gradientTransform="translate(144.71 -175.21) scale(.48333)" x1="60.45" y1="-10.7" x2="60.91" y2="56.84"/><linearGradient xlink:href="#d" id="e" x1="165.36" y1="-175.11" x2="165.44" y2="-117.39" gradientUnits="userSpaceOnUse" gradientTransform="translate(-20.5 .27)"/><linearGradient id="d"><stop offset="0" stop-color="#333"/><stop offset="1"/></linearGradient></defs><path d="M202.71-143.31v-5.8l-6-.2c-.27-2-.8-3.91-1.53-5.72l5.1-3.17-2.9-5.03-5.3 2.84a23.31 23.31 0 0 0-4.19-4.18l2.84-5.3-5.03-2.9-3.17 5.1a23.05 23.05 0 0 0-5.71-1.53l-.2-6.01h-5.8l-.2 6c-2 .27-3.92.8-5.72 1.53l-3.17-5.1-5.03 2.9 2.84 5.3a23.33 23.33 0 0 0-4.18 4.19l-5.31-2.84-2.9 5.03 5.1 3.17a23.01 23.01 0 0 0-1.52 5.72l-6.02.2v5.8l6.02.2c.26 2 .78 3.9 1.52 5.7l-5.1 3.18 2.9 5.03 5.3-2.84a23.32 23.32 0 0 0 4.19 4.18l-2.84 5.31 5.03 2.9 3.17-5.1a22.8 22.8 0 0 0 5.71 1.52l.2 6.02h5.8l.2-6.02c2-.26 3.91-.78 5.72-1.52l3.17 5.1 5.03-2.9-2.84-5.3a23.33 23.33 0 0 0 4.18-4.19l5.3 2.84 2.9-5.03-5.1-3.17a22.4 22.4 0 0 0 1.53-5.71zm-29 11.6a14.51 14.51 0 0 1 0-29 14.51 14.51 0 0 1 0 29z" fill="url(#e)" transform="translate(-141.71 178.21)"/><path d="M171.28-174.73l-.18 5.54a.49.49 0 0 1-.42.47c-1.93.26-3.81.76-5.6 1.49a.48.48 0 0 1-.59-.2l-2.93-4.7-4.21 2.44 2.61 4.9a.4.4 0 0 1 .06.22c0 .14-.07.29-.19.38a22.87 22.87 0 0 0-4.09 4.1.48.48 0 0 1-.61.12l-4.9-2.6-2.43 4.2 4.7 2.93a.48.48 0 0 1 .2.6 22.55 22.55 0 0 0-1.5 5.59.48.48 0 0 1-.46.42l-5.54.18v1.54a133 133 0 0 0 13.6 1.98l-.07-1.08a15 15 0 0 1 14.98-14.99 15 15 0 0 1 14.99 14.99l-.07 1.08c4.74-.44 9.3-1.1 13.6-1.97v-1.55l-5.54-.18a.49.49 0 0 1-.47-.42 22.6 22.6 0 0 0-1.49-5.6.48.48 0 0 1 .2-.6l4.7-2.91-2.44-4.22-4.9 2.61a.48.48 0 0 1-.6-.13 22.85 22.85 0 0 0-4.1-4.09.48.48 0 0 1-.12-.6l2.6-4.9-4.2-2.44-2.94 4.7a.48.48 0 0 1-.59.2 22.59 22.59 0 0 0-5.6-1.5.48.48 0 0 1-.41-.46l-.18-5.54h-4.87z" fill="url(#f)" transform="translate(-141.71 178.21)"/><path d="M173.71-162.65a16.43 16.43 0 1 0 0 32.87 16.43 16.43 0 0 0 0-32.87zm0 28.52a12.1 12.1 0 0 1-12.08-12.08 12.1 12.1 0 0 1 12.08-12.09 12.1 12.1 0 0 1 12.09 12.09 12.1 12.1 0 0 1-12.09 12.08z" fill="url(#g)" transform="translate(-141.71 178.21)"/><path d="M173.71-161.68a15.48 15.48 0 0 0-15.46 15.47c0 8.52 6.94 15.46 15.46 15.46 8.53 0 15.47-6.94 15.47-15.46 0-8.53-6.94-15.47-15.47-15.47zm0 27.55a12.1 12.1 0 0 1-12.08-12.08 12.1 12.1 0 0 1 12.08-12.09 12.1 12.1 0 0 1 12.09 12.09 12.1 12.1 0 0 1-12.09 12.08z" fill="url(#h)" transform="translate(-141.71 178.21)"/></svg>