<svg xmlns="http://www.w3.org/2000/svg" xmlns:xlink="http://www.w3.org/1999/xlink" width="64" height="64" version="1"><defs><linearGradient id="b"><stop offset="0" stop-color="#1a1a1a"/><stop offset=".26"/><stop offset="1" stop-color="#4d4d4d"/></linearGradient><linearGradient id="a"><stop offset="0" stop-color="#fff"/><stop offset="0" stop-color="#fff" stop-opacity=".24"/><stop offset="1" stop-color="#fff" stop-opacity=".16"/><stop offset="1" stop-color="#fff" stop-opacity=".39"/></linearGradient><linearGradient id="d"><stop offset="0" stop-color="#0f0"/><stop offset=".26" stop-color="green"/><stop offset=".66" stop-color="#68b723"/><stop offset="1" stop-color="#1d7e0d"/></linearGradient><linearGradient gradientTransform="matrix(1.18703 0 0 1.18703 -5.84 -6.73)" xlink:href="#c" id="e" x1="12.89" y1="8.65" x2="51.37" y2="57.31" gradientUnits="userSpaceOnUse"/><linearGradient id="c"><stop offset="0"/><stop offset="1" stop-color="#fff"/></linearGradient><radialGradient cx="65.6" cy="48.74" r="31" fx="65.6" fy="48.74" id="f" xlink:href="#d" gradientUnits="userSpaceOnUse" gradientTransform="matrix(0 1.36253 -1.48226 0 121.27 -54.8)"/><linearGradient x1="24.14" y1="9.71" x2="24.14" y2="36.59" id="g" xlink:href="#a" gradientUnits="userSpaceOnUse" gradientTransform="matrix(1.18611 0 0 .88692 22.67 28.15)"/><linearGradient x1="24.14" y1="20.27" x2="24.14" y2="26.01" id="h" xlink:href="#a" gradientUnits="userSpaceOnUse" gradientTransform="matrix(.896 0 0 1.15861 29.1 21.82)"/></defs><path d="M8.94 3.08l-.08 58.5 46.28-.28-1.65-58.89z" fill="#333"/><path d="M9.46 3.54l-.16 56.7 27.22-.22 17.8-.66-1.6-56.47z" fill="url(#e)"/><path overflow="visible" style="marker:none" d="M44.2 43.72v-8.57h9.94v8.57h8.53v9.93h-8.53v8.53H44.2v-8.53h-8.53v-9.93z" color="#000" fill="url(#f)" transform="translate(-2.38 -.03)"/><path d="M44.99 46.38V36.02h8.42v10.36m0 4.6v10.37h-8.42V50.98" opacity=".5" fill="none" stroke="url(#g)" stroke-width="1.7" transform="translate(-2.38 -.03)"/><path d="M53.64 44.5l8.22-.03v8.27l-8.2.04m-8.96 0l-8.21-.04v-8.27l8.2.03" opacity=".5" fill="none" stroke="url(#h)" stroke-width="1.58" transform="translate(-2.38 -.03)"/></svg>