<svg xmlns="http://www.w3.org/2000/svg" xmlns:xlink="http://www.w3.org/1999/xlink" width="64" height="64"><defs><linearGradient id="g"><stop offset="0"/><stop offset="1" stop-color="#b3b3b3"/></linearGradient><linearGradient id="e"><stop offset="0"/><stop offset=".26"/><stop stop-color="#4d4d4d" offset=".66"/><stop offset="1"/></linearGradient><linearGradient id="f"><stop offset="0"/><stop offset=".26"/><stop stop-color="#4d4d4d" offset=".66"/><stop offset="1"/></linearGradient><linearGradient id="b"><stop offset="0" stop-color="#fff"/><stop offset="1" stop-color="#fff" stop-opacity="0"/></linearGradient><linearGradient id="a"><stop offset="0" stop-color="#333"/><stop offset="1"/></linearGradient><linearGradient id="c"><stop offset="0" stop-color="#fff"/><stop offset="0" stop-color="#fff" stop-opacity=".24"/><stop offset="1" stop-color="#fff" stop-opacity=".16"/><stop offset="1" stop-color="#fff" stop-opacity=".39"/></linearGradient><linearGradient id="d"><stop offset="0" stop-color="#0f0"/><stop offset=".26" stop-color="green"/><stop offset=".66" stop-color="#68b723"/><stop offset="1" stop-color="#1d7e0d"/></linearGradient><linearGradient x1="24.14" y1="20.27" x2="24.14" y2="26.01" id="l" xlink:href="#c" gradientUnits="userSpaceOnUse" gradientTransform="matrix(1.801 0 0 1.51714 .54 20.26)"/><linearGradient xlink:href="#c" id="k" gradientUnits="userSpaceOnUse" gradientTransform="matrix(1.82361 0 0 1.51714 -18.07 20.26)" x1="24.14" y1="20.27" x2="24.14" y2="26.01"/><radialGradient xlink:href="#e" id="j" cx="32.36" cy="10.8" fx="32.36" fy="10.8" r="19.49" gradientTransform="matrix(-.00778 2.97282 -2.03096 -.00532 54.52 -59.98)" gradientUnits="userSpaceOnUse"/><linearGradient id="i" x1="8.53" x2="57.41" y1="33.33" y2="33.33" gradientTransform="matrix(0 1.26335 -1.25207 0 65.05 -7.74)" gradientUnits="userSpaceOnUse"><stop offset="0" stop-color="#fff"/><stop offset="1" stop-color="#fff" stop-opacity="0"/></linearGradient><linearGradient gradientTransform="matrix(1.30321 0 0 1.30321 .72 5.19)" xlink:href="#f" id="h" x1="13.76" y1="-3.58" x2="39.49" y2="24.98" gradientUnits="userSpaceOnUse"/><linearGradient id="m" x1="21.48" x2="21.48" y1="1.68" y2="6.57" gradientTransform="matrix(.97561 0 0 .91011 8.1 1)" gradientUnits="userSpaceOnUse"><stop offset="0" stop-color="#eeeeec"/><stop offset="1" stop-color="#fff"/></linearGradient><linearGradient xlink:href="#g" id="n" x1="25.61" y1="-.05" x2="27.4" y2="19.71" gradientUnits="userSpaceOnUse"/></defs><path d="M53.38 22.5L31.95 46.25 10.62 22.5h9.51V1.9h23.74V22.5h9.5z" fill="url(#h)"/><path d="M49.73 24.08L32 43.86 14.01 24.08h7.7V3.51h20.57v20.57h7.45z" opacity=".35" fill="none" stroke="url(#i)" stroke-width="1.55" stroke-linejoin="round"/><path style="marker:none" d="M38.5 48.93H14.3v13.01h35.38v-13z" fill="url(#j)"/><path d="M31.88 49.97l16.73-.05v10.83l-16.7.05" opacity=".5" fill="none" stroke="url(#k)" stroke-width="2.58"/><path d="M31.88 60.8l-16.5-.05V49.92l16.5.05" opacity=".5" fill="none" stroke="url(#l)" stroke-width="2.56"/><rect ry="1.94" rx="2.08" height="9.1" width="39.02" y="1.45" x="12.49" fill="url(#m)" stroke="url(#n)" stroke-width=".94"/><path d="M14.96 2.39c-.85 0-1.47.57-1.47 1.36v4.5c0 .79.62 1.36 1.47 1.36h34.08c.85 0 1.47-.57 1.47-1.36v-4.5c0-.79-.62-1.36-1.47-1.36z" fill="none" stroke="#fff" stroke-width=".94"/><path fill="#d3d7cf" d="M15 4.02h12v4H15z"/><path fill="#555753" d="M29 3.02h1v6h-1z"/></svg>