<svg xmlns="http://www.w3.org/2000/svg" xmlns:xlink="http://www.w3.org/1999/xlink" width="64" height="64" version="1"><defs><linearGradient id="c"><stop offset="0" stop-color="#fff"/><stop offset="0" stop-color="#fff" stop-opacity=".24"/><stop offset="1" stop-color="#fff" stop-opacity=".16"/><stop offset="1" stop-color="#fff" stop-opacity=".39"/></linearGradient><linearGradient id="b"><stop offset="0" stop-color="#0f0"/><stop offset=".26" stop-color="green"/><stop offset=".66" stop-color="#68b723"/><stop offset="1" stop-color="#1d7e0d"/></linearGradient><linearGradient id="a"><stop offset="0"/><stop offset="1" stop-color="#fff"/></linearGradient><linearGradient id="d"><stop offset="0"/><stop offset=".26"/><stop stop-color="#4d4d4d" offset=".66"/><stop offset="1"/></linearGradient><linearGradient id="e"><stop offset="0" stop-color="#fff"/><stop offset="1" stop-color="#fff" stop-opacity="0"/></linearGradient><linearGradient gradientTransform="translate(-5.84 -6.725) scale(1.18703)" xlink:href="#a" id="f" x1="12.89" y1="8.65" x2="51.37" y2="57.31" gradientUnits="userSpaceOnUse"/><linearGradient xlink:href="#b" id="g" x1="3.589" y1="59.826" x2="34.523" y2="34.662" gradientUnits="userSpaceOnUse"/><linearGradient x1="188" y1="17" x2="188" y2="36.026" id="h" xlink:href="#e" gradientUnits="userSpaceOnUse" gradientTransform="matrix(2.32606 0 0 2.32606 -399.96 -29.648)"/><linearGradient x1="182" y1="33" x2="182" y2="24.52" id="i" xlink:href="#e" gradientUnits="userSpaceOnUse" gradientTransform="matrix(2.13333 0 0 2.13333 -365.29 -23.124)"/></defs><path d="M8.94 3.085l-.08 58.5 46.28-.28-1.65-58.89z" fill="#333"/><path d="M9.46 3.545l-.16 56.7 27.22-.22 17.8-.66-1.6-56.47z" fill="url(#f)"/><path d="M9.518 10l44 44h-44zm9 24v11h11z" style="marker:none" color="#000" overflow="visible" fill="url(#g)" fill-rule="evenodd" transform="translate(-4.429 9.21)"/><path d="M10.518 12.5V53h40.5l-40.5-40.5z" opacity=".5" fill="none" stroke="url(#h)" transform="translate(-4.429 9.21)"/><path d="M17.518 30.209v15.79h14.79" opacity=".5" fill="none" stroke="url(#i)" transform="translate(-4.429 9.21)"/><path d="M43.589 59.71v3h-1v-3zm-3.958 0v3h-1v-3zm-4.042 0v3h-1v-3zm-3.958 0v3h-1v-3zm-4.042 0v3h-1v-3zm-3.958 0v3h-1v-3zm-4.042 0v3h-1v-3zm-3.958 0v3h-1v-3zm-4.042 0v3h-1v-3zm-6-34.958h3v1h-3zm0 3.958h3v1h-3zm0 4.042h3v1h-3zm0 3.958h3v1h-3zm0 4.042h3v1h-3zm0 3.958h3v1h-3zm0 4.042h3v1h-3zm0 3.958h3v1h-3zm0 4.042h3v1h-3z" style="marker:none" color="#000" overflow="visible" opacity=".15"/><path d="M42.589 59.71v3h-1v-3zm-3.958 0v3h-1v-3zm-4.042 0v3h-1v-3zm-3.958 0v3h-1v-3zm-4.042 0v3h-1v-3zm-3.958 0v3h-1v-3zm-4.042 0v3h-1v-3zm-3.958 0v3h-1v-3zm-4.042 0v3h-1v-3zm-5-33.958h3v1h-3zm0 3.957h3v1h-3zm0 4.043h3v1h-3zm0 3.957h3v1h-3zm0 4.043h3v1h-3zm0 3.957h3v1h-3zm0 4.043h3v1h-3zm0 3.957h3v1h-3zm0 4.043h3v1h-3z" style="marker:none" color="#000" overflow="visible" opacity=".4" fill="#fff"/></svg>