<svg xmlns="http://www.w3.org/2000/svg" xmlns:xlink="http://www.w3.org/1999/xlink" width="64" height="64"><defs><linearGradient id="e"><stop offset="0"/><stop offset=".26"/><stop stop-color="#4d4d4d" offset=".66"/><stop offset="1"/></linearGradient><linearGradient id="b"><stop offset="0" stop-color="#fff"/><stop offset="1" stop-color="#fff" stop-opacity="0"/></linearGradient><linearGradient id="a"><stop offset="0" stop-color="#333"/><stop offset="1"/></linearGradient><linearGradient id="c"><stop offset="0" stop-color="#fff"/><stop offset="0" stop-color="#fff" stop-opacity=".24"/><stop offset="1" stop-color="#fff" stop-opacity=".16"/><stop offset="1" stop-color="#fff" stop-opacity=".39"/></linearGradient><linearGradient id="d"><stop offset="0" stop-color="#0f0"/><stop offset=".26" stop-color="green"/><stop offset=".66" stop-color="#68b723"/><stop offset="1" stop-color="#1d7e0d"/></linearGradient><linearGradient x1="24.14" y1="20.27" x2="24.14" y2="26.01" id="h" xlink:href="#c" gradientUnits="userSpaceOnUse" gradientTransform="matrix(1.801 0 0 1.51714 .54 20.26)"/><linearGradient xlink:href="#c" id="g" gradientUnits="userSpaceOnUse" gradientTransform="matrix(1.82361 0 0 1.51714 -18.07 20.26)" x1="24.14" y1="20.27" x2="24.14" y2="26.01"/><radialGradient xlink:href="#e" id="f" cx="32.36" cy="10.8" fx="32.36" fy="10.8" r="19.49" gradientTransform="matrix(-.00778 2.97282 -2.03096 -.00532 54.52 -59.98)" gradientUnits="userSpaceOnUse"/><linearGradient id="l" x1="8.53" x2="57.41" y1="33.33" y2="33.33" gradientTransform="matrix(0 1.0928 -.87759 0 39.05 -4.4)" gradientUnits="userSpaceOnUse"><stop offset="0" stop-color="#fff"/><stop offset="1" stop-color="#fff" stop-opacity="0"/></linearGradient><linearGradient gradientTransform="matrix(.91344 0 0 1.12729 -6.04 6.79)" xlink:href="#e" id="k" x1="13.76" y1="-3.58" x2="39.49" y2="24.98" gradientUnits="userSpaceOnUse"/><linearGradient id="j" x1="8.53" x2="57.41" y1="33.33" y2="33.33" gradientTransform="matrix(0 1.0928 -.87759 0 71.29 -4.4)" gradientUnits="userSpaceOnUse"><stop offset="0" stop-color="#fff"/><stop offset="1" stop-color="#fff" stop-opacity="0"/></linearGradient><linearGradient gradientTransform="matrix(.91344 0 0 1.12729 26.2 6.79)" xlink:href="#e" id="i" x1="13.76" y1="-3.58" x2="39.49" y2="24.98" gradientUnits="userSpaceOnUse"/></defs><path style="marker:none" d="M38.5 48.93H14.3v13.01h35.38v-13z" fill="url(#f)"/><path d="M31.88 49.97l16.73-.05v10.83l-16.7.05" opacity=".5" fill="none" stroke="url(#g)" stroke-width="2.58"/><path d="M31.88 60.8l-16.5-.05V49.92l16.5.05" opacity=".5" fill="none" stroke="url(#h)" stroke-width="2.56"/><path d="M63.1 21.77L48.08 42.3 33.14 21.77h6.66V3.96h16.64v17.8h6.66z" fill="url(#i)"/><path d="M60.55 23.14l-12.43 17.1-12.6-17.1h5.4V5.34h14.41v17.8h5.22z" opacity=".35" fill="none" stroke="url(#j)" stroke-width="1.21" stroke-linejoin="round"/><path d="M30.86 21.77L15.84 42.3.9 21.77h6.66V3.96H24.2v17.8h6.66z" fill="url(#k)"/><path d="M28.3 23.14l-12.42 17.1-12.6-17.1h5.39V5.34h14.42v17.8h5.22z" opacity=".35" fill="none" stroke="url(#l)" stroke-width="1.21" stroke-linejoin="round"/></svg>