<svg xmlns="http://www.w3.org/2000/svg" xmlns:xlink="http://www.w3.org/1999/xlink" width="64" height="64" version="1"><defs><linearGradient id="b"><stop offset="0" stop-color="#1a1a1a"/><stop offset=".26"/><stop offset="1" stop-color="#4d4d4d"/></linearGradient><linearGradient id="e"><stop stop-color="#333" offset="0"/><stop offset=".86"/><stop offset="1"/></linearGradient><linearGradient id="a"><stop offset="0" stop-color="#fff"/><stop offset="0" stop-color="#fff" stop-opacity=".24"/><stop offset="1" stop-color="#fff" stop-opacity=".16"/><stop offset="1" stop-color="#fff" stop-opacity=".39"/></linearGradient><linearGradient id="d"><stop offset="0" stop-color="#0f0"/><stop offset=".26" stop-color="green"/><stop offset=".66" stop-color="#68b723"/><stop offset="1" stop-color="#1d7e0d"/></linearGradient><linearGradient id="c"><stop offset="0"/><stop offset="1" stop-color="#fff"/></linearGradient><linearGradient id="h" x1="21.63" x2="22.25" y1="2.11" y2="43.37" gradientTransform="matrix(.63753 .01426 -.0141 .6302 3.66 17.13)" gradientUnits="userSpaceOnUse"><stop offset="0" stop-color="#fff"/><stop offset="1" stop-color="#fff" stop-opacity="0"/></linearGradient><radialGradient xlink:href="#e" id="g" cx="18.95" cy="25.02" fx="18.95" fy="25.02" r="13" gradientTransform="matrix(-.70715 -.91627 1.71262 -1.32174 -4.04 73.65)" gradientUnits="userSpaceOnUse"/><linearGradient gradientTransform="matrix(1.18703 0 0 1.18703 -1.38 -6.73)" xlink:href="#c" id="f" x1="12.89" y1="8.65" x2="51.37" y2="57.31" gradientUnits="userSpaceOnUse"/></defs><path d="M13.4 3.08l-.07 58.5 46.27-.28-1.65-58.89z" fill="#333"/><path d="M13.92 3.54l-.15 56.7 27.22-.22 17.8-.66-1.61-56.47z" fill="url(#f)"/><path d="M13.48 34.4c-.57-.86-.6-1.35-.57-2.96a6.23 6.23 0 0 1 6.21-6.1c1.2-.01 3.6.9 4.8 3.42l-3.6 3.98 14.13.32.32-14.18-3.57 3.5c-1.77-3.2-7.53-6.03-11.18-6.15-9.35-.29-15.96 6.73-15.6 15.72-.14 5.62 4.27 11.16 8.98 13.18" fill="url(#g)"/><path d="M13.9 36.72a7.65 7.65 0 0 1-2.05-5.25c-.05-3.56 2.18-7.17 6.95-7.26 1.79-.04 5.53 1.1 6.66 4.79l-2.24 2.49 10.1.22.22-9.72-2.37 2.05c-2.52-4.32-7.98-6.4-11.67-6.6C11.68 17 5.67 23.3 5.6 31.92c-.15 4.94 3.82 10.17 7.75 11.98" opacity=".4" fill="none" stroke="url(#h)" stroke-width="1.16" stroke-linejoin="round"/></svg>