<svg xmlns="http://www.w3.org/2000/svg" xmlns:xlink="http://www.w3.org/1999/xlink" height="64" width="64"><defs><linearGradient id="a"><stop offset="0" stop-color="#333"/><stop offset="1" stop-color="#dbdbdb"/></linearGradient><linearGradient id="b"><stop offset="0" stop-color="#e6e6e6"/><stop offset="1" stop-color="gray"/></linearGradient><linearGradient id="c"><stop offset="0" stop-color="#0cceff"/><stop offset="1" stop-color="#0cceff" stop-opacity="0"/></linearGradient><linearGradient id="d"><stop offset="0"/><stop offset=".26" stop-color="#333"/><stop offset=".28"/><stop offset="1" stop-color="#333"/></linearGradient><linearGradient id="e"><stop offset="0"/><stop offset="1" stop-color="#333"/></linearGradient><linearGradient id="f"><stop offset="0" stop-color="#333"/><stop offset="1"/></linearGradient><linearGradient id="g"><stop offset="0" stop-color="#fff"/><stop offset="1" stop-color="#fff" stop-opacity="0"/></linearGradient><linearGradient id="h"><stop offset="0" stop-color="#d7eef4"/><stop offset="1" stop-color="#afdde9"/></linearGradient><linearGradient id="i"><stop offset="0" stop-color="#5fbcd3"/><stop offset="1" stop-color="#d7eef4" stop-opacity=".02"/></linearGradient><linearGradient id="j"><stop offset="0" stop-color="#1a1a1a"/><stop offset="1" stop-color="#333"/></linearGradient><linearGradient gradientTransform="matrix(.28988 0 0 .287 -9 28.9)" gradientUnits="userSpaceOnUse" xlink:href="#j" id="u" y2="11.95" x2="173.1" y1="75.32" x1="173.1"/><linearGradient gradientTransform="matrix(.30438 0 0 .30137 -11.6 28.45)" gradientUnits="userSpaceOnUse" xlink:href="#e" id="t" y2="11.95" x2="173.1" y1="75.32" x1="173.1"/><radialGradient gradientTransform="matrix(2.31505 0 0 1.78122 2.9 12)" gradientUnits="userSpaceOnUse" xlink:href="#i" id="s" fy="13.08" fx="15.41" r="6.66" cy="13.08" cx="15.41"/><linearGradient xlink:href="#h" id="r" x1="6.31" y1="16.58" x2="31.05" y2="16.58" gradientUnits="userSpaceOnUse" gradientTransform="matrix(.75384 0 0 .75384 27.48 28.7)"/><linearGradient gradientTransform="matrix(.29675 0 0 .29382 -10.37 28.35)" gradientUnits="userSpaceOnUse" xlink:href="#g" id="q" y2="67.35" x2="201.87" y1="146.15" x1="277.57"/><linearGradient gradientTransform="matrix(.29675 0 0 .29382 103.9 25.5)" gradientUnits="userSpaceOnUse" xlink:href="#e" id="o" y2="91.97" x2="-164.72" y1="99.67" x1="-172.65"/><linearGradient gradientTransform="matrix(.76239 0 0 .75484 27.37 30.07)" gradientUnits="userSpaceOnUse" xlink:href="#f" id="p" y2="29.48" x2="31.36" y1="27.99" x1="32.89"/><linearGradient x1="25.13" y1=".99" x2="25.13" y2="62.71" id="n" xlink:href="#a" gradientUnits="userSpaceOnUse" gradientTransform="matrix(.96207 0 0 .2503 4.33 .9)"/><linearGradient x1="33.21" y1="46.35" x2="33.21" y2="11.29" id="m" xlink:href="#b" gradientUnits="userSpaceOnUse" gradientTransform="matrix(.96207 0 0 .40433 4.33 31.52)"/><radialGradient gradientTransform="translate(-.94 -4.67) scale(1.77223)" xlink:href="#c" id="l" cx="27.5" cy="18" fx="27.5" fy="18" r="1" gradientUnits="userSpaceOnUse"/><linearGradient gradientTransform="translate(-.94 -4.67) scale(1.77223)" xlink:href="#d" id="k" x1="1.48" y1="9.59" x2="1.51" y2="27.67" gradientUnits="userSpaceOnUse"/></defs><path d="M5.26 12.16h44.3c2.3 0 3.55 5.9 3.55 8.86v21.27c.02 1.71-1.83 1.9-3.12 1.78H3.5c-1.72.01-1.9-1.84-1.78-3.13V21.02s.84-8.86 3.54-8.86z" style="marker:none" overflow="visible" color="#000" fill="url(#k)" stroke="#000" stroke-width=".88"/><path style="marker:none" overflow="visible" d="M46.03 25.46h3.54V29h-3.54z" color="#000" fill="url(#l)"/><path d="M10.57 36.09h33.68v15.06H10.57z" fill="url(#m)"/><path d="M16.79 37.86v1.77h11.8v-1.77zm16.55 0v1.77h4.71v-1.77zm-16.55 3.55v1.77h7.08V41.4zm11.8 0v1.77h9.45V41.4zm-11.8 3.54v1.77h21.25v-1.77z" style="marker:none" overflow="visible" color="#000" opacity=".6"/><path style="marker:none" overflow="visible" d="M9.7 34.36h35.44v1.78H9.69z" color="#000" opacity=".69"/><path d="M10.57 1.53h33.68v15.06H10.57z" fill="url(#n)"/><path d="M48.73 47.38L62 59.6l-1.84 2.47-13.22-13.22z" fill="url(#o)" fill-rule="evenodd" stroke="url(#p)" stroke-width=".69" stroke-linecap="round" stroke-linejoin="round"/><path d="M60.18 61.27L49.54 48.14 62.4 59.32z" opacity=".57" fill="url(#q)" fill-rule="evenodd"/><path d="M62.49 59.55a1.03 1.9 45.44 1 1-2.5 2.8 1.03 1.89 45.44 1 1 2.5-2.8z"/><path d="M50.89 41.2a9.32 9 0 1 1-18.65 0 9.32 9 0 1 1 18.65 0z" style="marker:none" opacity=".67" fill="url(#r)" fill-rule="evenodd"/><path d="M41.48 32.82c-4.65 0-8.84 3.34-8.84 7.45 0 1.2-.33 2.3.23 3.29 1.12.36 3.44.61 4.7.61 5.51 0 10.25-4.05 10.59-8.85-1.54-1.62-4.1-2.5-6.68-2.5z" style="marker:none" overflow="visible" opacity=".07" fill="url(#s)" fill-rule="evenodd"/><path d="M41.36 32.2c-5.73 0-10.38 4.24-10.38 9.48 0 5.22 4.65 9.47 10.38 9.47s10.38-4.25 10.38-9.47c0-5.24-4.65-9.48-10.38-9.48zm.12.62c5.13 0 9.3 3.8 9.3 8.48 0 4.68-4.17 8.47-9.3 8.47-5.13 0-9.28-3.8-9.28-8.48 0-4.67 4.16-8.47 9.28-8.47z" fill="url(#t)"/><path d="M41.42 32.47c-5.45 0-9.87 4.05-9.87 9.03 0 4.98 4.42 9.02 9.88 9.02 5.45 0 9.88-4.05 9.88-9.03 0-4.97-4.43-9.02-9.88-9.02zm.06.35c5.13 0 8.89 3.8 8.89 8.48 0 4.68-3.76 8.07-8.89 8.07-5.12 0-8.94-3.4-8.94-8.07 0-4.68 3.82-8.48 8.94-8.48z" fill="url(#u)"/></svg>