<svg xmlns="http://www.w3.org/2000/svg" xmlns:xlink="http://www.w3.org/1999/xlink" width="64" height="64" version="1"><defs><linearGradient id="c"><stop offset="0" stop-color="#fff"/><stop offset="0" stop-color="#fff" stop-opacity=".24"/><stop offset="1" stop-color="#fff" stop-opacity=".16"/><stop offset="1" stop-color="#fff" stop-opacity=".39"/></linearGradient><linearGradient id="b"><stop offset="0" stop-color="#0f0"/><stop offset=".26" stop-color="green"/><stop offset=".66" stop-color="#68b723"/><stop offset="1" stop-color="#1d7e0d"/></linearGradient><linearGradient id="a"><stop offset="0"/><stop offset="1" stop-color="#fff"/></linearGradient><linearGradient id="d"><stop offset="0"/><stop offset=".26"/><stop stop-color="#4d4d4d" offset=".66"/><stop offset="1"/></linearGradient><radialGradient id="g" cx="14.36" cy="34.79" r="8.79" gradientTransform="matrix(-1.42639 0 0 .94868 66.932 13.553)" gradientUnits="userSpaceOnUse"><stop offset="0"/><stop offset="1" stop-opacity="0"/></radialGradient><linearGradient id="h" x1="1.63" x2=".82" y1="55.22" y2="54.42" gradientTransform="matrix(-1.43956 0 0 1.48071 45.142 -38.877)" gradientUnits="userSpaceOnUse"><stop offset="0" stop-color="#1a1a1a"/><stop offset="1" stop-color="#4d4d4d"/></linearGradient><linearGradient id="i" x1="-1.99" x2="-3.36" y1="51.14" y2="54" gradientTransform="matrix(-1.23392 0 0 1.23392 45.352 -23.817)" gradientUnits="userSpaceOnUse"><stop offset="0"/><stop offset="1" stop-opacity="0"/></linearGradient><linearGradient id="j" x1="-4.68" x2=".88" y1="52.64" y2="50.56" gradientTransform="matrix(-1.23392 0 0 1.23392 45.352 -23.817)" gradientUnits="userSpaceOnUse"><stop offset="0" stop-color="#666"/><stop offset="1" stop-color="#1a1a1a"/></linearGradient><linearGradient id="k" x1="-5.08" x2=".27" y1="50.52" y2="49.46" gradientTransform="matrix(-1.23392 0 0 1.23392 45.352 -23.817)" gradientUnits="userSpaceOnUse"><stop offset="0" stop-color="#ccc"/><stop offset="1" stop-color="#666"/></linearGradient><linearGradient id="l" x1="-5.97" x2="-5.97" y1="52.88" y2="51.81" gradientTransform="matrix(-1.23392 0 0 1.23392 45.352 -23.817)" gradientUnits="userSpaceOnUse"><stop offset="0" stop-color="#1a1a1a"/><stop offset="1" stop-color="#999"/></linearGradient><linearGradient id="m" x1="-3.54" x2="-3.54" y1="55.87" y2="59.45" gradientTransform="matrix(-1.23392 0 0 1.26918 45.352 -25.237)" gradientUnits="userSpaceOnUse"><stop offset="0" stop-color="#555753"/><stop offset="1" stop-color="#d3d7cf"/></linearGradient><linearGradient xlink:href="#e" id="s" gradientUnits="userSpaceOnUse" gradientTransform="matrix(-1.26787 0 0 1.26787 66.412 -5.317)" x1="30.31" y1="27.31" x2="30.31" y2="24.69"/><linearGradient id="e"><stop offset="0" stop-color="#edd400"/><stop offset="1" stop-color="#edd400" stop-opacity="0"/></linearGradient><linearGradient id="n" x1="37.63" x2="38.88" y1="40.31" y2="45.06" gradientTransform="matrix(-1.23392 0 0 1.23392 65.082 5.783)" gradientUnits="userSpaceOnUse"><stop offset="0" stop-color="#333"/><stop offset="1" stop-opacity="0"/></linearGradient><linearGradient id="o" x1="-6.41" x2="-7.78" y1="32.44" y2="34.56" gradientTransform="matrix(-1.23392 0 0 1.23392 40.412 5.783)" gradientUnits="userSpaceOnUse"><stop offset="0"/><stop offset="1" stop-opacity="0"/></linearGradient><linearGradient gradientTransform="translate(-7.84 -6.725) scale(1.18703)" xlink:href="#a" id="f" x1="12.89" y1="8.65" x2="51.37" y2="57.31" gradientUnits="userSpaceOnUse"/><linearGradient xlink:href="#e" id="p" gradientUnits="userSpaceOnUse" gradientTransform="matrix(-1.26787 0 0 1.26787 66.412 -5.317)" x1="30.31" y1="27.31" x2="30.31" y2="24.69"/><linearGradient xlink:href="#e" id="q" gradientUnits="userSpaceOnUse" gradientTransform="matrix(-1.26787 0 0 1.26787 66.412 -5.317)" x1="30.31" y1="27.31" x2="30.31" y2="24.69"/><linearGradient xlink:href="#e" id="r" gradientUnits="userSpaceOnUse" gradientTransform="matrix(-1.26787 0 0 1.26787 66.412 -5.317)" x1="30.31" y1="27.31" x2="30.31" y2="24.69"/></defs><path d="M6.94 3.085l-.08 58.5 46.28-.28-1.65-58.89z" fill="#333"/><path d="M7.46 3.545l-.16 56.7 27.22-.22 17.8-.66-1.6-56.47z" fill="url(#f)"/><g fill-rule="evenodd"><path d="M33.892 46.553c0 4.6 5.62 8.34 12.55 8.34 6.93 0 12.55-3.74 12.55-8.34 0-4.61-5.62-8.35-12.55-8.35-6.93 0-12.55 3.74-12.55 8.35z" opacity=".46" fill="url(#g)"/><path d="M48.512 36.643a.9.9 0 0 1 .72.36l5.78 5.92.2.6v8.18c0 .54-.41.98-.93.98h-9.63a.94.94 0 0 1-.68-.29l-5.76-5.92a1 1 0 0 1-.27-.7v-8.17c0-.26.11-.51.27-.68a.94.94 0 0 1 .68-.28h9.63z" fill="url(#h)"/><path d="M54.332 42.803h-9.31c-.5 0-.9.42-.9.95v7.98c0 .52.4.95.9.95h9.29c.5 0 .9-.43.9-.95v-7.98a.92.92 0 0 0-.9-.95z" fill="gray"/><path d="M46.582 36.643l6.17 6.16h-4.92l-6.17-6.16h4.93" opacity=".12" fill="url(#i)"/><path d="M41.642 36.643l13.58 3.08-2.47 1.84h-3.7l-6.17-3.69-1.24-1.25" fill="url(#j)"/><path d="M46.582 36.643l8.64 2.45h-4.94l-8.64-2.45h4.94" fill="url(#k)"/><path d="M55.222 39.093h-4.93c2.46 1.25.61 2.47-1.25 2.47h4.94c1.86 0 3.7-1.23 1.25-2.47z" fill="url(#l)"/><path d="M52.252 45.273h-5.17c-.28 0-.5.24-.5.54v3.85c0 .3.23.55.5.55h5.17c.28 0 .5-.25.5-.55v-3.85c0-.3-.23-.54-.5-.54z" fill="url(#m)"/><path d="M46.972 43.503s5.16 4.02 9.98 8.01c2.41 2 4.56 3.98 5.82 5.9.64.97 1.23 2 .82 3.44a3.13 3.13 0 0 1-1.36 1.73c-.6.35-1.18.5-1.85.58-2.62.3-5.83-.5-9.67-1.59-3.85-1.09-8.24-2.56-12.66-4a142.63 142.63 0 0 0-12.75-3.7c-3.89-.86-7.2-1.1-9.1-.61-.9.22-.93.36-.93.38 0 0-.08.4.27 1.16.7 1.47 2.77 3.85 5.17 6.08 4.79 4.5 10.9 8.8 10.9 8.8l-2.14 3s-6.24-4.33-11.31-9.1c-2.54-2.37-4.78-4.8-5.94-7.24-.56-1.23-.96-2.6-.42-4.01.54-1.4 1.9-2.32 3.47-2.7 3.04-.76 6.72-.26 10.83.65 4.12.9 8.67 2.3 13.12 3.73 4.44 1.47 8.8 2.97 12.48 4.03 3.6 1.02 6.54 1.5 8 1.38-.78-1.17-2.84-3.15-5.14-5.05-4.59-3.8-9.83-7.87-9.83-7.87l2.24-3.01z" fill="url(#n)"/><path d="M52.642 42.843l-.4 2.46h-5.16c-.27 0-.5.25-.5.55v3.85l-2.47-.39v-5.5c0-.54.39-.97.89-.97z" fill="gray"/><path d="M52.252 45.273h-5.17c-.28 0-.5.24-.5.54v3.85c0 .3.23.55.5.55h5.17c.28 0 .5-.25.5-.55v-3.85c0-.3-.23-.54-.5-.54z" opacity=".35" fill="url(#o)"/></g><path d="M31.495 15.735c.96 0 1.7.8 1.7 1.76v.43c0 .45.34.81.82.81h2.3c.94 0 1.7 1.07 1.7 2.04v9.74c0 .97-.76 1.75-1.7 1.75h-12.63c-.94 0-1.7-.78-1.7-1.75v-9.74c0-.97.76-2.04 1.7-2.04h2.3c.4.04.8-.27.8-.8v-.44c0-.98.77-1.76 1.7-1.76z" fill="gray" fill-rule="evenodd"/><path d="M31.295 17.275c.8 0 1.46.66 1.46 1.47v.37c0 .36.3.68.68.68h2c.8 0 1.47.89 1.47 1.7v8.17c0 .8-.67 1.47-1.48 1.47h-10.86a1.47 1.47 0 0 1-1.46-1.48v-8.15c0-.82.66-1.7 1.47-1.7h1.97c.34 0 .7-.25.7-.68v-.39c0-.8.65-1.46 1.47-1.46z" fill-rule="evenodd"/><path d="M32.812 28.283v-2.54" fill="none" stroke="url(#p)" stroke-width="2.36" stroke-linecap="round" transform="translate(.983 -.308)"/><path d="M30.292 28.283v-2.54" fill="none" stroke="url(#q)" stroke-width="2.36" stroke-linecap="round" transform="translate(.983 -.308)"/><path d="M27.732 28.283v-2.54" fill="none" stroke="url(#r)" stroke-width="2.36" stroke-linecap="round" transform="translate(.983 -.308)"/><path d="M25.212 28.283v-2.54" fill="none" stroke="url(#s)" stroke-width="2.36" stroke-linecap="round" transform="translate(.983 -.308)"/></svg>