<svg xmlns="http://www.w3.org/2000/svg" xmlns:xlink="http://www.w3.org/1999/xlink" width="64" height="64" version="1"><defs><linearGradient id="b"><stop offset="0" stop-color="#1a1a1a"/><stop offset=".26"/><stop offset="1" stop-color="#4d4d4d"/></linearGradient><linearGradient id="a"><stop offset="0" stop-color="#fff"/><stop offset="0" stop-color="#fff" stop-opacity=".24"/><stop offset="1" stop-color="#fff" stop-opacity=".16"/><stop offset="1" stop-color="#fff" stop-opacity=".39"/></linearGradient><linearGradient id="d"><stop offset="0" stop-color="#0f0"/><stop offset=".26" stop-color="green"/><stop offset=".66" stop-color="#68b723"/><stop offset="1" stop-color="#1d7e0d"/></linearGradient><linearGradient id="c"><stop offset="0"/><stop offset="1" stop-color="#fff"/></linearGradient><linearGradient id="e"><stop stop-color="#333" offset="0"/><stop offset=".86"/><stop offset="1"/></linearGradient><linearGradient id="h" x1="21.63" x2="22.25" y1="2.11" y2="43.37" gradientTransform="matrix(-.63753 .01426 .0141 .6302 60.02 17.34)" gradientUnits="userSpaceOnUse"><stop offset="0" stop-color="#fff"/><stop offset="1" stop-color="#fff" stop-opacity="0"/></linearGradient><radialGradient xlink:href="#e" id="g" cx="18.95" cy="25.02" fx="18.95" fy="25.02" r="13" gradientTransform="matrix(.70715 -.91627 -1.71262 -1.32174 67.72 73.86)" gradientUnits="userSpaceOnUse"/><linearGradient gradientTransform="matrix(1.18703 0 0 1.18703 -9.98 -6.73)" xlink:href="#c" id="f" x1="12.89" y1="8.65" x2="51.37" y2="57.31" gradientUnits="userSpaceOnUse"/></defs><path d="M4.8 3.08l-.08 58.5L51 61.3 49.34 2.41z" fill="#333"/><path d="M5.32 3.54l-.16 56.7 27.22-.22 17.8-.66-1.6-56.47z" fill="url(#f)"/><path d="M50.2 34.62c.57-.87.6-1.36.57-2.97a6.23 6.23 0 0 0-6.21-6.1c-1.2-.01-3.6.9-4.8 3.42l3.59 3.98-14.13.32-.31-14.18 3.57 3.5c1.77-3.2 7.52-6.03 11.18-6.14 9.34-.3 15.96 6.72 15.6 15.71.14 5.62-4.27 11.16-8.98 13.18" fill="url(#g)"/><path d="M49.77 36.93a7.65 7.65 0 0 0 2.06-5.25c.05-3.56-2.18-7.17-6.95-7.26-1.79-.04-5.53 1.1-6.67 4.79l2.25 2.49-10.1.22-.23-9.72 2.37 2.06c2.53-4.33 7.98-6.4 11.68-6.61 7.81-.43 13.83 5.86 13.9 14.48.15 4.94-3.82 10.17-7.75 11.98" opacity=".4" fill="none" stroke="url(#h)" stroke-width="1.16" stroke-linejoin="round"/></svg>