<svg xmlns="http://www.w3.org/2000/svg" width="64" height="64" version="1"><defs><linearGradient id="c"><stop offset="0" stop-color="#fff"/><stop offset="0" stop-color="#fff" stop-opacity=".24"/><stop offset="1" stop-color="#fff" stop-opacity=".16"/><stop offset="1" stop-color="#fff" stop-opacity=".39"/></linearGradient><linearGradient id="b"><stop offset="0" stop-color="#0f0"/><stop offset=".26" stop-color="green"/><stop offset=".66" stop-color="#68b723"/><stop offset="1" stop-color="#1d7e0d"/></linearGradient><linearGradient id="a"><stop offset="0"/><stop offset="1" stop-color="#fff"/></linearGradient><linearGradient id="d"><stop offset="0"/><stop offset=".26"/><stop stop-color="#4d4d4d" offset=".66"/><stop offset="1"/></linearGradient><linearGradient id="e" x1="28" x2="26" y1="16" y2="8" gradientTransform="translate(-62)" gradientUnits="userSpaceOnUse"><stop offset="0"/><stop offset="1" stop-color="#4d4d4d"/></linearGradient><linearGradient id="f" x1="20.934" x2="30.208" y1="25.061" y2="30.743" gradientTransform="translate(-62)" gradientUnits="userSpaceOnUse"><stop offset="0" stop-color="#4d4d4d"/><stop offset="1" stop-color="#1a1a1a"/></linearGradient></defs><g fill-rule="evenodd"><path d="M-25.406 2.469c-8.203.105-9.397 16.248-11.75 19.156l4 1.437C-30.524 18.69-17.4 4.154-24.593 2.5a6.529 6.529 0 0 0-.813-.031zm-1.031 2.062a.9.9 0 0 1 .531.094c.653.352.724 1.495.156 2.531-.567 1.037-1.565 1.602-2.218 1.25-.654-.352-.724-1.495-.157-2.531.426-.777 1.107-1.287 1.688-1.344z" fill="url(#e)" transform="matrix(1.23809 0 0 1.23809 79.727 2.944)"/><path d="M-39.5 16.5c.71 2.003-.541 3.738-1 5-5.192 1.546-8.787 9.704-14.133 13.954A37.618 37.618 0 0 0-52.5 37.5l4.062-3.53-3.067 4.524C-49.296 40.284-47 41.5-45.5 42l2.75-3.656-1.75 4.156c1.452.59 4.985 1.482 7 1.5l2.004-3.402-.514 3.465c.83.158 2.439.374 3.51.406 3.362-5.5 4-14.469 2-18.469-.5-2 1.5-4.5 3-5.5-2.5-2-8.206-4.304-12-4z" fill="url(#f)" transform="matrix(1.23809 0 0 1.23809 79.727 2.944)"/><g fill="#fff"><path d="M16.584 50.61c5.963-6.204 5.528-8.919 12.525-14.272-3.693 5.978-4.291 9.087-8.81 16.748l-3.715-2.476z" opacity=".267"/><path d="M25.436 55.194l5.381-12.183c2.061-3.694 3.54-7.392 5.607-10.335-1.983 6.708-6.055 15.008-9.324 23.06z" opacity=".416"/><path d="M28.927 56.182c2.696-7.122 7.918-12.467 9.925-19.73.064 4.535.31 12.634-2.342 20.698-.396.002-.215-.137-.582-.147l.992-7.087-4.063 6.876c-2.713-.193-1.603.04-3.93-.61z" opacity=".247"/><path d="M31.445 30.937c-1.55.763-2.553 1.89-3.693 2.927 1.518-.877 2.945-1.794 4.951-2.462l-1.258-.465zM33.928 31.495l-1.258 2.463 3.69-1.967-2.432-.496zM33.843 25.181l-1.108 2.114 1.938.621-.83-2.735zM42.489 27.563l-3.046 2.273 1.938.621 1.108-2.894zM37.648 25.154l-1.875 3.126 1.939.621-.064-3.747z" opacity=".482"/></g><path d="M28.532 29.563c-.605-1.238 0-2.476 1.209-2.476 4.942 1.207 9.069 2.731 13.303 4.952.605 1.238 0 2.476-1.21 2.476-4.374-2.308-8.5-3.807-13.302-4.952z"/></g></svg>