<svg xmlns="http://www.w3.org/2000/svg" xmlns:xlink="http://www.w3.org/1999/xlink" width="64" height="64" version="1"><defs><linearGradient id="c"><stop offset="0" stop-color="#fff"/><stop offset="0" stop-color="#fff" stop-opacity=".24"/><stop offset="1" stop-color="#fff" stop-opacity=".16"/><stop offset="1" stop-color="#fff" stop-opacity=".39"/></linearGradient><linearGradient id="b"><stop offset="0" stop-color="#0f0"/><stop offset=".26" stop-color="green"/><stop offset=".66" stop-color="#68b723"/><stop offset="1" stop-color="#1d7e0d"/></linearGradient><linearGradient id="a"><stop offset="0"/><stop offset="1" stop-color="#fff"/></linearGradient><linearGradient id="d"><stop offset="0"/><stop offset=".26"/><stop stop-color="#4d4d4d" offset=".66"/><stop offset="1"/></linearGradient><linearGradient gradientTransform="rotate(90 -90 50.002)" y2="-383.997" x2="-12.003" y1="-383.997" x1="-84.002" gradientUnits="userSpaceOnUse" id="e"><stop offset="0" stop-color="#888a85"/><stop offset="1"/></linearGradient><linearGradient xlink:href="#e" id="h" x1="72" y1="-16" x2="72" y2="64" gradientUnits="userSpaceOnUse" gradientTransform="matrix(.44234 0 0 .44234 3.692 1.92)"/><radialGradient xlink:href="#e" id="i" gradientUnits="userSpaceOnUse" gradientTransform="matrix(.44233 .00372 -.00432 .51418 4.481 -11.478)" cx="79.34" cy="114.956" fx="79.34" fy="114.956" r="56"/><linearGradient xlink:href="#f" id="j" gradientUnits="userSpaceOnUse" x1="68.938" y1="38.906" x2="68.938" y2="103.407" gradientTransform="matrix(.44234 0 0 .44234 9.631 2.939)"/><linearGradient id="f"><stop offset="0" stop-color="#fff"/><stop offset="1" stop-color="#dfdfdf"/></linearGradient><linearGradient xlink:href="#g" id="k" x1="80" y1="68" x2="72" y2="44" gradientUnits="userSpaceOnUse" gradientTransform="matrix(.44234 0 0 .44234 3.692 1.92)"/><linearGradient id="g"><stop offset="0" stop-color="#fff"/><stop offset="1" stop-color="#fff" stop-opacity="0"/></linearGradient></defs><path d="M28.463 14.306c-.44 0-.863.162-1.19.456L9.58 30.687a1.77 1.77 0 0 0 0 2.626l17.694 15.925c.326.294.75.456 1.189.456h24.77a1.77 1.77 0 0 0 1.77-1.77V16.076a1.77 1.77 0 0 0-1.77-1.77z" fill="url(#h)" transform="matrix(-1 0 0 1 64 0)"/><path d="M28.463 16.076L10.769 32l17.694 15.924h24.77V16.076z" fill="url(#i)" transform="matrix(-1 0 0 1 64 0)"/><path d="M29.869 18.67l-5.226 5.211 7.548 7.547-7.548 7.534 5.226 5.225 7.533-7.547 7.548 7.547 5.211-5.225-7.534-7.534 7.534-7.547-5.211-5.211-7.548 7.533z" fill="url(#j)" transform="matrix(-1 0 0 1 64 0)"/><path d="M29.873 18.674l-5.225 5.212 7.547 7.547-2.723 2.71c5.003-.262 9.797-.81 14.265-1.604l-1.106-1.106 7.534-7.547-5.211-5.212-7.548 7.534z" fill="url(#k)" transform="matrix(-1 0 0 1 64 0)"/></svg>