<svg xmlns="http://www.w3.org/2000/svg" xmlns:xlink="http://www.w3.org/1999/xlink" width="64" height="64"><defs><linearGradient id="a" x1="2" x2="7" y1="13" y2="14" gradientUnits="userSpaceOnUse"><stop offset="0"/><stop offset=".45"/><stop offset="1" stop-color="#fff"/></linearGradient><linearGradient id="b" x1="8.39" x2="42.6" y1="17.89" y2="17.89" gradientTransform="matrix(0 1.0524 -.97832 0 45.58 -3.83)" gradientUnits="userSpaceOnUse"><stop offset="0" stop-color="#4d4d4d"/><stop offset=".5" stop-color="#333"/><stop offset="1"/></linearGradient><linearGradient id="e" x1="9.43" x2="41.08" y1="18.5" y2="18.33" gradientTransform="matrix(0 1.0524 -.97832 0 45.58 -3.83)" gradientUnits="userSpaceOnUse"><stop offset="0" stop-color="#fff"/><stop offset="1" stop-color="#fff" stop-opacity="0"/></linearGradient><mask id="d"><path d="M2 4h42v38H2z" fill="url(#a)"/></mask><radialGradient xlink:href="#b" id="c" cx="23" cy="23" fx="23" fy="23" r="19.52" gradientTransform="matrix(0 -1.40978 1.26503 0 2.903 64.433)" gradientUnits="userSpaceOnUse"/></defs><path d="M29.09 59.52C-1.19 55.744.563 15.518 31.448 15.798V4.48l25.246 20.118-25.246 21.097V34.107c-20.873-.802-20.108 20.23-2.358 25.413z" display="block" fill="url(#c)"/><path transform="matrix(0 -1.40978 1.40978 0 -.529 64.528)" mask="url(#d)" d="M7.36 13c7.06-11.13 26.08-8.38 26.13 10.6h7.04L28.25 38.93 15.4 23.6h7.01C22.98 8.8 12.04 8.8 7.36 12.99z" display="block" stroke-miterlimit="7" opacity=".3" fill="none" stroke="url(#e)" stroke-width=".96" stroke-linecap="square" stroke-linejoin="round"/></svg>