<svg xmlns="http://www.w3.org/2000/svg" xmlns:xlink="http://www.w3.org/1999/xlink" width="64" height="64" version="1" viewBox="0 0 60 60"><defs><linearGradient id="e"><stop offset="0"/><stop offset=".25" stop-color="#4d4d4d"/><stop offset=".36" stop-color="#ccc"/><stop offset=".49"/><stop offset="1" stop-color="#333"/></linearGradient><linearGradient id="c"><stop offset="0" stop-color="#878787"/><stop offset=".71" stop-color="#1a1a1a"/><stop offset="1"/></linearGradient><linearGradient id="b"><stop offset="0" stop-color="#ededed"/><stop offset="1" stop-color="#ededed" stop-opacity="0"/></linearGradient><filter id="j" x="-.04" width="1.08" y="-.11" height="1.23"><feGaussianBlur stdDeviation=".76"/></filter><radialGradient xlink:href="#a" id="f" gradientUnits="userSpaceOnUse" gradientTransform="matrix(.56888 0 0 1.37116 -4.83 -59.18)" cx="61.33" cy="49.17" fx="61.33" fy="49.17" r="50.67"/><radialGradient id="a" cx="48" cy="-.21" r="55.15" gradientTransform="matrix(.9792 0 0 .9725 133 20.88)" gradientUnits="userSpaceOnUse"><stop offset="0" stop-color="#1a1a1a"/><stop offset=".52" stop-color="#1a1a1a"/><stop offset=".66" stop-color="#424242"/><stop offset=".76" stop-color="#131313"/><stop offset="1" stop-color="#1a1a1a"/></radialGradient><filter id="h" x="-.01" width="1.02" y="-.01" height="1.02" color-interpolation-filters="sRGB"><feGaussianBlur stdDeviation=".37"/></filter><radialGradient xlink:href="#b" id="i" cx="44.24" cy="45.63" fx="44.24" fy="45.63" r="17.59" gradientTransform="matrix(2.82268 .06248 -.05787 2.61438 -78.44 -72.04)" gradientUnits="userSpaceOnUse"/><radialGradient xlink:href="#c" id="g" cx="30.04" cy="31.85" fx="30.04" fy="31.85" r="21" gradientTransform="matrix(1.03108 -.03287 .07494 2.35096 -3.32 -40.06)" gradientUnits="userSpaceOnUse"/><linearGradient gradientTransform="translate(.67 -.67) scale(1.21128)" xlink:href="#d" id="k" x1="14.48" y1="1.07" x2="14.51" y2="11.55" gradientUnits="userSpaceOnUse"/><linearGradient id="d"><stop offset="0"/><stop offset=".68" stop-color="#333"/><stop offset="1"/></linearGradient><linearGradient xlink:href="#e" id="l" x1="19.15" y1="16.75" x2="19.15" y2="9.2" gradientUnits="userSpaceOnUse"/></defs><path d="M12.46 8.2a3.77 3.77 0 0 0-3.77 3.85v44.83a2.5 2.5 0 0 0 2.56 2.5h37.57c1.43 0 2.5-1.15 2.5-2.5V12.05a3.7 3.7 0 0 0-3.78-3.77z" fill="url(#f)"/><path d="M12.17 9.2a2.5 2.5 0 0 0-2.49 2.57v45.4c0 .7.57 1.28 1.21 1.28h38.22c.7 0 1.28-.57 1.28-1.28v-45.4a2.55 2.55 0 0 0-2.56-2.57z" fill="url(#g)"/><path d="M15.09 19h71.99c.97 0 1.75.78 1.75 1.75v67.42c-.45 6.24-1.18 13.61-2.2 18.7 0 .98-.78 1.76-1.75 1.76-4.27 1.1-10.02.61-15.4.8h-55.4c-.97 0-.75-.78-.75-1.76V20.75c0-.97.79-1.75 1.76-1.75z" transform="matrix(.47309 0 0 .47871 5.84 3.94)" filter="url(#h)"/><path d="M13.45 13.47a.57.57 0 0 0-.5.5v40.56c0 .29.3.5.58.5h25.33c2.77 0 5.55-.92 6.62-1.42.07 0 .21-.07.21-.21l.36-1.21a46.54 46.54 0 0 0 1-6.7V13.98a.57.57 0 0 0-.5-.5H13.52z" fill="url(#i)"/><path d="M27.33 12.67h49c1.26 4.58 1.15 11.7-.3 17.9l-49 .1c-1.77-5.78-2.23-13.3.3-18z" transform="matrix(.44761 0 0 .45601 6.9 3.72)" fill-opacity=".64" filter="url(#j)"/><path d="M29.99.71a5.92 5.92 0 0 0-5.88 5.35h-4.1c-1 0-1.8.8-1.8 1.8v3.92c0 1 .8 1.8 1.8 1.8h19.98c1 0 1.8-.8 1.8-1.8V7.86c0-1-.8-1.8-1.8-1.8h-4.12A5.92 5.92 0 0 0 30 .71zM30 2.89a2.6 2.6 0 0 1 2.6 2.6A2.6 2.6 0 0 1 30 8.1a2.6 2.6 0 0 1-2.6-2.6A2.6 2.6 0 0 1 30 2.9z" fill="url(#k)"/><rect width="21.78" height="7.54" x="19.15" y="9.2" rx="0" ry="0" fill="url(#l)"/></svg>