<svg xmlns="http://www.w3.org/2000/svg" xmlns:xlink="http://www.w3.org/1999/xlink" width="64" height="64" version="1"><defs><linearGradient id="a"><stop offset="0" stop-color="#4d4d4d"/><stop offset="1"/></linearGradient><radialGradient xlink:href="#a" id="b" cx="16" cy="19.25" fx="16" fy="19.25" r="28" gradientUnits="userSpaceOnUse" gradientTransform="matrix(.88378 .33898 -.35812 .93367 8.75 -4.15)"/></defs><path d="M32 4C16.49 4 4 16.49 4 32s12.49 28 28 28 28-12.49 28-28S47.51 4 32 4z" fill="url(#b)"/><path d="M32 9.502C19.595 9.502 9.502 19.595 9.502 32c0 12.405 10.09 22.498 22.498 22.498 12.407 0 22.498-10.093 22.498-22.498C54.498 19.595 44.405 9.502 32 9.502zM13.623 32c0-10.134 8.243-18.377 18.377-18.377 4.565 0 8.746 1.677 11.963 4.443L18.066 43.963A18.291 18.291 0 0 1 13.623 32zM32 50.377a18.28 18.28 0 0 1-10.918-3.604l25.691-25.69a18.28 18.28 0 0 1 3.602 10.919c0 10.132-8.241 18.375-18.375 18.375z" opacity=".5" fill="#333"/><path d="M32 11.502c-11.303 0-20.498 9.195-20.498 20.498S20.696 52.498 32 52.498 52.498 43.303 52.498 32 43.303 11.502 32 11.502zM15.256 32c0-9.233 7.511-16.744 16.744-16.744 4.16 0 7.969 1.528 10.9 4.05L19.305 42.9A16.665 16.665 0 0 1 15.256 32zM32 48.744a16.654 16.654 0 0 1-9.948-3.284L45.46 22.054a16.654 16.654 0 0 1 3.282 9.948c0 9.23-7.51 16.742-16.742 16.742z" fill="#fff"/></svg>