<svg xmlns="http://www.w3.org/2000/svg" xmlns:xlink="http://www.w3.org/1999/xlink" width="64" height="64"><defs><linearGradient id="b"><stop offset="0"/><stop stop-color="#4d4d4d" offset="1"/></linearGradient><linearGradient id="a"><stop offset="0"/><stop offset="1" stop-opacity=".05"/></linearGradient><linearGradient id="e"><stop offset="0" stop-color="#333"/><stop offset="1" stop-color="#999"/></linearGradient><linearGradient gradientTransform="matrix(.36757 0 0 .36757 16.63 -324.43)" xlink:href="#a" id="i" x1="125" y1="1007.25" x2="125" y2="1010.74" gradientUnits="userSpaceOnUse"/><linearGradient xlink:href="#b" id="h" gradientUnits="userSpaceOnUse" gradientTransform="matrix(-.36757 0 0 .36757 63.62 15.7)" x1="26.37" y1="110.28" x2="26.37" y2="28.13"/><linearGradient id="c"><stop offset="0" stop-color="#fff"/><stop offset="0" stop-color="#fff" stop-opacity=".24"/><stop offset="1" stop-color="#fff" stop-opacity=".16"/><stop offset="1" stop-color="#fff" stop-opacity=".39"/></linearGradient><linearGradient id="d"><stop offset="0" stop-color="#0f0"/><stop offset=".26" stop-color="green"/><stop offset=".66" stop-color="#68b723"/><stop offset="1" stop-color="#1d7e0d"/></linearGradient><linearGradient gradientTransform="matrix(.36757 0 0 .36757 .37 -337.82)" xlink:href="#a" id="g" x1="125" y1="1007.25" x2="125" y2="1010.74" gradientUnits="userSpaceOnUse"/><linearGradient xlink:href="#e" id="f" gradientUnits="userSpaceOnUse" gradientTransform="matrix(-.36757 0 0 .36757 47.36 2.32)" x1="26.37" y1="110.28" x2="26.37" y2="28.13"/></defs><path d="M6.88 7.5c-3 0-5.4 2.09-5.4 4.69l.01.2h-.01v5.16h14.2c2.98 0 5.4-2.1 5.4-4.7l-.02-.19h.01V7.49H8.51z"/><path d="M3.12 12.6a1.69 1.69 0 0 0-1.7 1.7V26.5h.06v15.5a1.07 1.07 0 0 0 1.1 1.11H45.2c.79 0 1.11-.5 1.11-1.1V14.3a1.69 1.69 0 0 0-1.7-1.7H22.7z" fill="url(#f)"/><path d="M1.48 32.82v3.32h44.84v-3.32z" opacity=".43"/><rect width="44.85" height=".37" x="1.48" y="36.14" rx="0" ry=".37" opacity=".11" fill="#fff"/><path d="M1.48 32.82v3.32l44.84-1.47v-1.83z" opacity=".57" fill="url(#g)"/><g><path d="M23.14 20.88c-3 0-5.4 2.1-5.4 4.7l.01.19h-.01v5.16h14.2c2.98 0 5.4-2.1 5.4-4.7l-.02-.19h.01v-5.16H24.76z"/><path d="M19.38 26a1.69 1.69 0 0 0-1.7 1.68V39.9h.06v15.5a1.07 1.07 0 0 0 1.1 1.1h42.62c.79 0 1.11-.5 1.11-1.1V27.69a1.69 1.69 0 0 0-1.7-1.69H38.96z" fill="url(#h)"/><path d="M17.74 46.2v3.33h44.84V46.2z" opacity=".43"/><rect width="44.85" height=".37" x="17.74" y="49.52" rx="0" ry=".37" opacity=".11" fill="#fff"/><path d="M17.74 46.2v3.33l44.84-1.48v-1.83z" opacity=".57" fill="url(#i)"/></g></svg>