<svg xmlns="http://www.w3.org/2000/svg" xmlns:xlink="http://www.w3.org/1999/xlink" width="64" height="64"><defs><linearGradient id="a"><stop offset="0" stop-color="#e20800"/><stop offset="1" stop-color="#9c0f0f"/></linearGradient><linearGradient id="b"><stop offset="0"/><stop offset="1" stop-opacity=".05"/></linearGradient><linearGradient id="c"><stop offset="0"/><stop offset="1" stop-color="#666"/></linearGradient><linearGradient gradientTransform="matrix(.50883 0 0 .50883 -.53 -471.68)" xlink:href="#b" id="g" x1="125" y1="1007.25" x2="125" y2="1010.74" gradientUnits="userSpaceOnUse"/><linearGradient xlink:href="#c" id="f" gradientUnits="userSpaceOnUse" gradientTransform="matrix(-.50883 0 0 .50883 64.52 -.83)" x1="26.37" y1="110.28" x2="26.37" y2="28.13"/><linearGradient x1="24.14" y1="20.27" x2="24.14" y2="26.01" id="j" xlink:href="#d" gradientUnits="userSpaceOnUse" gradientTransform="matrix(.896 0 0 1.15861 28.26 17.87)"/><linearGradient id="d"><stop offset="0" stop-color="#fff"/><stop offset="0" stop-color="#fff" stop-opacity=".24"/><stop offset="1" stop-color="#fff" stop-opacity=".16"/><stop offset="1" stop-color="#fff" stop-opacity=".39"/></linearGradient><linearGradient x1="24.14" y1="9.71" x2="24.14" y2="36.59" id="i" xlink:href="#d" gradientUnits="userSpaceOnUse" gradientTransform="matrix(1.18611 0 0 .88692 21.83 24.2)"/><radialGradient cx="65.6" cy="48.74" r="31" fx="65.6" fy="48.74" id="h" xlink:href="#e" gradientUnits="userSpaceOnUse" gradientTransform="matrix(0 1.36253 -1.48226 0 120.43 -58.75)"/><linearGradient id="e"><stop offset="0" stop-color="#0f0"/><stop offset=".26" stop-color="green"/><stop offset=".66" stop-color="#68b723"/><stop offset="1" stop-color="#1d7e0d"/></linearGradient></defs><path d="M8.48 6.34C4.34 6.34 1 9.24 1 12.84l.02.27H1v7.15h19.65c4.14 0 7.48-2.9 7.48-6.5l-.02-.27h.02V6.34h-17.4z"/><path d="M3.27 13.42a2.34 2.34 0 0 0-2.35 2.34v16.91H1v21.45a1.48 1.48 0 0 0 1.52 1.54h59.01c1.09 0 1.54-.7 1.54-1.52V15.76a2.34 2.34 0 0 0-2.35-2.34H30.36z" fill="url(#f)"/><path d="M1 41.4V46h62.08V41.4z" opacity=".43"/><rect ry=".51" rx="0" y="45.99" x="1" height=".51" width="62.08" opacity=".11" fill="#fff"/><path d="M1 41.4V46l62.08-2.04v-2.54z" opacity=".57" fill="url(#g)"/><path d="M43.37 39.77V31.2h9.93v8.57h8.53v9.93H53.3v8.53h-9.93V49.7h-8.53v-9.93z" style="marker:none" overflow="visible" color="#000" fill="url(#h)"/><path d="M44.15 42.43V32.07h8.42v10.36m0 4.6V57.4h-8.42V47.03" opacity=".5" fill="none" stroke="url(#i)" stroke-width="1.7"/><path d="M52.8 40.55l8.22-.03v8.27l-8.2.04m-8.96 0l-8.21-.04v-8.27l8.2.03" opacity=".5" fill="none" stroke="url(#j)" stroke-width="1.58"/></svg>