<svg xmlns="http://www.w3.org/2000/svg" xmlns:xlink="http://www.w3.org/1999/xlink" width="64" height="64" version="1"><defs><linearGradient id="h"><stop offset="0" stop-color="#0ff"/><stop offset="1" stop-color="#fff"/></linearGradient><linearGradient id="g"><stop offset="0" stop-color="#0ff"/><stop offset="1" stop-color="#0ff" stop-opacity="0"/></linearGradient><linearGradient id="b" gradientUnits="userSpaceOnUse" x1="57.5" y1="-4.01" x2="57.5" y2="-2.69"><stop offset="0" stop-color="#fff"/><stop offset="1" stop-color="#ffeb55"/></linearGradient><linearGradient id="c" gradientUnits="userSpaceOnUse" x1="369.54" y1="-491.4" x2="369.54" y2="-426.7" gradientTransform="matrix(1.2648 0 0 -.9239 -403.9 -441)"><stop offset="0" stop-color="#bf5e00"/><stop offset=".3" stop-color="#db6a00"/><stop offset=".56" stop-color="#803f00"/></linearGradient><linearGradient id="d" gradientUnits="userSpaceOnUse" x1="354.47" y1="-464.61" x2="354.47" y2="-357.88" gradientTransform="matrix(1 0 0 -1 -290.97 -445)"><stop offset="0" stop-color="#333"/><stop offset="1"/></linearGradient><linearGradient id="e" gradientUnits="userSpaceOnUse" x1="103.5" y1="-74.5" x2="87.5" y2="-74.5"><stop offset="0" stop-color="#555753"/><stop offset="1" stop-color="#2e3436"/></linearGradient><linearGradient id="f" gradientUnits="userSpaceOnUse" x1="98.5" y1="-65.5" x2="90.5" y2="-57.5"><stop offset="0" stop-color="#333"/><stop offset=".21" stop-color="#333"/><stop offset=".84"/></linearGradient><filter id="m"><feGaussianBlur stdDeviation="1"/></filter><radialGradient xlink:href="#a" id="q" gradientUnits="userSpaceOnUse" cx="63.5" cy="-86.2" r="106" fx="63.5" fy="-86.2" gradientTransform="translate(-1.57 53.62) scale(.52752)"/><radialGradient id="a" cx="63.5" cy="-88.5" r="106" gradientUnits="userSpaceOnUse"><stop offset="0" stop-color="#555753"/><stop offset=".65" stop-color="#2e3436"/><stop offset="1" stop-color="#babdb6"/></radialGradient><linearGradient xlink:href="#b" id="p" gradientUnits="userSpaceOnUse" x1="57.5" y1="-4.01" x2="57.5" y2="-2.69" gradientTransform="translate(-1.43 53.35) scale(.52752)"/><radialGradient id="o" cx="57.5" cy="-2.5" r="2" fx="57.5" fy="-1" gradientUnits="userSpaceOnUse" gradientTransform="translate(-1.43 53.35) scale(.52752)"><stop offset="0" stop-color="#e3ad00"/><stop offset=".73" stop-color="#ffea00"/><stop offset="1" stop-color="#ba7c00"/></radialGradient><linearGradient id="n" gradientUnits="userSpaceOnUse" x1="55.58" y1="-2.42" x2="59.58" y2="-2.42" gradientTransform="matrix(.373 -.373 .373 .373 8.32 74.41)"><stop offset="0" stop-color="#e3ad00"/><stop offset=".73" stop-color="#ffea00"/><stop offset="1" stop-color="#ba7c00"/></linearGradient><linearGradient xlink:href="#c" id="l" gradientUnits="userSpaceOnUse" gradientTransform="matrix(.6672 0 0 -.48738 -214.5 -179.29)" x1="369.54" y1="-491.4" x2="369.54" y2="-426.7"/><linearGradient xlink:href="#d" id="k" gradientUnits="userSpaceOnUse" gradientTransform="matrix(.52752 0 0 -.52752 -154.93 -181.4)" x1="354.47" y1="-464.61" x2="354.47" y2="-357.88"/><linearGradient xlink:href="#e" id="j" gradientUnits="userSpaceOnUse" x1="103.5" y1="-74.5" x2="87.5" y2="-74.5" gradientTransform="translate(-1.43 53.35) scale(.52752)"/><linearGradient xlink:href="#f" id="i" gradientUnits="userSpaceOnUse" x1="103.5" y1="-76.5" x2="90.5" y2="-57.5" gradientTransform="translate(-1.43 55.23) scale(.52752)"/><linearGradient xlink:href="#h" id="r" x1="31.9" y1="36.61" x2="33.29" y2="26.8" gradientUnits="userSpaceOnUse"/></defs><path d="M44.72 14.87h8.44v14.77h-8.44z" fill="url(#i)"/><path d="M44.72 12.99h8.44v2.11h-8.44z" fill="url(#j)"/><path d="M6.74 36.2v25.33h50.64V36.2L31.83 10.88z" fill="url(#k)"/><path d="M25.73 40.43h12.66v21.1H25.73z" fill="url(#l)"/><path transform="translate(-1.43 53.35) scale(.52752)" d="M51.5-24.5v40h1.66v-39H75.5v39h1v-40z" filter="url(#m)"/><path d="M25.73 40.43H38.4v21.1h2.11V38.32H23.62v23.2h2.11z" fill="#666"/><circle r="1.06" cy="52.03" cx="28.9" fill="url(#n)"/><circle r=".53" cy="52.03" cx="28.9" fill="url(#o)"/><path d="M28.2 51.93c0 .38.32 0 .7 0 .38 0 .7.38.7 0a.7.7 0 0 0-1.4 0z" fill="url(#p)"/><path d="M59.36 38.58L31.93 11.15 4.5 38.58l-2.11-2.1L31.93 6.93l29.54 29.54z" fill="url(#q)"/><path transform="translate(-1.7 53.35) scale(.52752)" d="M59.5-80.5l-45 47 3.06 2.06L63.5-76.5l46.94 45.06 2.83-2.12-46.7-47z" opacity=".6" filter="url(#m)"/><ellipse cx="32" cy="28" rx="4.61" ry="4.49" fill="url(#r)" stroke="#666" stroke-width="1.5"/></svg>