<svg xmlns="http://www.w3.org/2000/svg" xmlns:xlink="http://www.w3.org/1999/xlink" width="64" height="64"><defs><linearGradient id="b"><stop offset="0" stop-color="#fff"/><stop offset="1" stop-color="#fff" stop-opacity="0"/></linearGradient><linearGradient id="a"><stop offset="0" stop-color="#333"/><stop offset="1"/></linearGradient><linearGradient id="c"><stop offset="0" stop-color="#fff"/><stop offset="0" stop-color="#fff" stop-opacity=".24"/><stop offset="1" stop-color="#fff" stop-opacity=".16"/><stop offset="1" stop-color="#fff" stop-opacity=".39"/></linearGradient><linearGradient id="d"><stop offset="0" stop-color="#0f0"/><stop offset=".26" stop-color="green"/><stop offset=".66" stop-color="#68b723"/><stop offset="1" stop-color="#1d7e0d"/></linearGradient><linearGradient id="i" x1="9.43" x2="41.08" y1="18.5" y2="18.33" gradientTransform="matrix(0 1.0524 -.97832 0 45.58 -3.83)" gradientUnits="userSpaceOnUse"><stop offset="0" stop-color="#fff"/><stop offset="1" stop-color="#fff" stop-opacity="0"/></linearGradient><mask id="h"><path fill="url(#e)" d="M2 4h42v38H2z"/></mask><linearGradient id="e" x1="2" x2="7" y1="13" y2="14" gradientUnits="userSpaceOnUse"><stop offset="0"/><stop offset=".45"/><stop offset="1" stop-color="#fff"/></linearGradient><radialGradient xlink:href="#f" id="g" cx="23" cy="23" fx="23" fy="23" r="19.52" gradientTransform="matrix(-1.51223 0 0 1.35696 66.79 .79)" gradientUnits="userSpaceOnUse"/><linearGradient id="f" x1="8.39" x2="42.6" y1="17.89" y2="17.89" gradientTransform="matrix(0 1.0524 -.97832 0 45.58 -3.83)" gradientUnits="userSpaceOnUse"><stop offset="0" stop-color="#4d4d4d"/><stop offset=".5" stop-color="#333"/><stop offset="1"/></linearGradient></defs><path d="M61.52 28.88c-4.05-32.48-47.2-30.6-46.9 2.53H2.48l21.58 27.08 22.63-27.08H34.26c-.86-22.39 21.7-21.57 27.26-2.53z" display="block" fill="url(#g)"/><path transform="matrix(-1.51223 0 0 1.51223 66.79 -2.78)" mask="url(#h)" d="M7.36 13c7.06-11.13 26.08-8.38 26.13 10.6h7.04L28.25 38.93 15.4 23.6h7.01C22.98 8.8 12.04 8.8 7.36 12.99z" display="block" opacity=".4" fill="none" stroke="url(#i)" stroke-width=".96" stroke-linecap="square" stroke-linejoin="round" stroke-miterlimit="7"/></svg>