<svg xmlns="http://www.w3.org/2000/svg" xmlns:xlink="http://www.w3.org/1999/xlink" width="64" height="64" version="1" viewBox="0 0 60 60"><defs><linearGradient id="g"><stop offset="0" stop-color="#00f"/><stop offset="1" stop-color="#0ff"/></linearGradient><linearGradient id="f"><stop offset="0"/><stop offset="1" stop-color="#333"/></linearGradient><linearGradient id="a"><stop offset="0" stop-color="#5f4721"/><stop offset="1" stop-color="#dab475"/></linearGradient><linearGradient id="d"><stop offset="0" stop-color="#fff"/><stop offset="1" stop-color="#fff" stop-opacity="0"/></linearGradient><linearGradient id="b"><stop offset="0" stop-color="#252525"/><stop offset=".5" stop-color="#252525"/><stop offset=".75" stop-color="#252525"/><stop offset="1"/></linearGradient><linearGradient id="c"><stop offset="0" stop-color="#2d2d2d"/><stop offset=".5"/><stop offset="1"/></linearGradient><linearGradient id="e"><stop offset="0" stop-color="#fff"/><stop offset="1" stop-color="#252525" stop-opacity="0"/></linearGradient><linearGradient id="h"><stop offset="0"/><stop offset="1" stop-opacity="0"/></linearGradient><radialGradient r="47.75" fy="100.75" fx="89.45" cy="100.75" cx="89.45" gradientTransform="matrix(.03021 .0226 -.29042 .38672 59.6 -11.15)" gradientUnits="userSpaceOnUse" id="k" xlink:href="#c"/><radialGradient r="2.61" fy="58.09" fx="15.73" cy="58.09" cx="15.73" gradientTransform="matrix(.8741 .67328 -9.68997 12.72149 577.68 -719.23)" gradientUnits="userSpaceOnUse" id="j" xlink:href="#b"/><radialGradient r="3.41" fy="120.64" fx="42.62" cy="120.64" cx="42.62" gradientTransform="matrix(.70153 .59854 -5.46214 6.33735 647.57 -743.93)" gradientUnits="userSpaceOnUse" id="i" xlink:href="#a"/></defs><path d="M45.88 3.13c.2-.25 1.61-.26 3.22.95 1.63 1.24 2.05 2.52 1.8 2.84l-.48.62-5.02-3.77.47-.62M9.03 57l11.62-10.12.07-.08-4.95-3.87-.08.1z" fill-rule="evenodd"/><path d="M9.69 56.21l10.83-9.43.06-.09-4.68-3.66-.09.12z" fill="url(#i)" fill-rule="evenodd"/><path d="M17.88 45.35c.62.47 1.18.2 1.4.38a.28.28 0 0 1 .08.1L49.38 6.17l-2.44-1.83-30.07 39.73c.1-.01.2-.02.26.04.2.15.13.77.75 1.23z" fill="url(#j)"/><path d="M49.29 6.1l-30 39.64c.2.18.07.66.44.94.4.3.7-.05.97.15l30-39.66z" fill="url(#k)"/><path d="M16.13 44.01c.4.28.8-.06 1 .1l30-39.64-1.44-1.09-30 39.66.02.02c.15.11.03.66.42.95z" fill="#131313"/><path d="M14.03 52.67c-.83 0-1.69-1.19-2.2-1.53L9.03 57z" fill-rule="evenodd"/></svg>