<svg xmlns="http://www.w3.org/2000/svg" xmlns:xlink="http://www.w3.org/1999/xlink" width="64" height="64"><defs><linearGradient id="g"><stop offset="0" stop-color="#ff2a2a"/><stop offset="1" stop-color="#ff2a2a"/></linearGradient><linearGradient id="b"><stop offset="0" stop-color="#fff"/><stop offset="1" stop-color="#fff" stop-opacity="0"/></linearGradient><linearGradient id="a"><stop offset="0" stop-color="#333"/><stop offset="1"/></linearGradient><linearGradient id="c"><stop offset="0" stop-color="#4d4d4d"/><stop offset="1"/></linearGradient><linearGradient id="d"><stop offset="0"/><stop offset="1" stop-color="#4d4d4d"/></linearGradient><linearGradient id="e"><stop offset="0" stop-color="gray"/><stop offset=".34" stop-color="#4d4d4d"/><stop offset="1"/></linearGradient><linearGradient gradientTransform="matrix(1.3544 0 -.0059 1.42317 13.45 -22.79)" gradientUnits="userSpaceOnUse" xlink:href="#f" id="j" y2="56.78" x2="14.65" y1="20.58" x1="14.5"/><linearGradient id="f"><stop offset="0" stop-color="#fff"/><stop offset=".57" stop-color="#fff" stop-opacity=".24"/><stop offset=".93" stop-color="#fff" stop-opacity=".16"/><stop offset="1" stop-color="#fff" stop-opacity=".39"/></linearGradient><radialGradient xlink:href="#c" id="h" cx="-53.15" cy="17.5" fx="-53.15" fy="17.5" r="29.5" gradientTransform="matrix(1.05481 .65162 -.76973 1.24601 96.2 31.1)" gradientUnits="userSpaceOnUse"/><linearGradient xlink:href="#g" id="i" x1="27.35" y1="16.88" x2="29.61" y2="55.18" gradientUnits="userSpaceOnUse"/></defs><path d="M62.07 54.82L35.59 5.2a4.11 4.11 0 0 0-3.67-2.15 4.3 4.3 0 0 0-3.7 2.3L1.96 54.98a4.4 4.4 0 0 0 .14 4.13 3.91 3.91 0 0 0 3.52 1.84h52.75a3.9 3.9 0 0 0 3.54-2c.77-1.22.77-2.75.17-4.13z" fill="url(#h)"/><path d="M32 17.42a4.14 4.14 0 0 0-4.14 4.13c0 4.14 1.38 9.65 2.76 20.68h2.76c1.38-11.03 2.76-16.54 2.76-20.68A4.14 4.14 0 0 0 32 17.42zm0 28.94a4.14 4.14 0 1 0 0 8.28 4.14 4.14 0 0 0 0-8.28z" fill="url(#i)"/><path d="M31.92 6c-1.04 0-2.02.65-2.6 1.68L4.89 54.29c-.42.84-.41 2.13.09 2.94.54.88 1.29 1.27 2.46 1.27h49.11c1.1 0 2.04-.56 2.43-1.34a.96.97 0 0 1 .05-.08c.52-.84.55-1.92.1-2.97L34.5 7.53A2.82 2.82 0 0 0 31.92 6z" style="isolation:auto;mix-blend-mode:normal;marker:none" color="#000" overflow="visible" opacity=".6" fill="none" stroke="url(#j)" stroke-width=".97"/></svg>