<svg xmlns="http://www.w3.org/2000/svg" xmlns:xlink="http://www.w3.org/1999/xlink" height="64" width="64" version="1"><defs><linearGradient id="c"><stop offset="0" stop-color="gray"/><stop offset="1"/></linearGradient><linearGradient id="a"><stop offset="0" stop-color="#fff"/><stop offset=".01" stop-color="#fff" stop-opacity=".24"/><stop offset=".99" stop-color="#fff" stop-opacity=".16"/><stop offset="1" stop-color="#fff" stop-opacity=".39"/></linearGradient><linearGradient id="b"><stop offset="0" stop-color="#f4f4f4"/><stop offset="1" stop-color="#dbdbdb"/></linearGradient><linearGradient gradientTransform="matrix(1.54054 0 0 1.21621 -4.97 3.81)" gradientUnits="userSpaceOnUse" xlink:href="#a" id="h" y2="42.1" x2="24" y1="5.86" x1="24"/><linearGradient gradientTransform="matrix(1.65714 0 0 .9995 -7.77 7.48)" gradientUnits="userSpaceOnUse" xlink:href="#b" id="g" y2="47.01" x2="25.13" y1=".99" x1="25.13"/><linearGradient gradientTransform="matrix(.63434 0 0 .49147 -74.22 -64.83)" gradientUnits="userSpaceOnUse" xlink:href="#c" id="i" y2="156.78" x2="164.28" y1="241.65" x1="164.28"/><linearGradient id="d"><stop offset="0" stop-color="#fff3cb"/><stop offset=".26" stop-color="#fdde76"/><stop offset=".66" stop-color="#f9c440"/><stop offset="1" stop-color="#e48b20"/></linearGradient><linearGradient gradientTransform="scale(3.697 3.68762) rotate(45 11.57 -26.04)" gradientUnits="userSpaceOnUse" xlink:href="#d" id="j" y2="25.04" x2="49.41" y1="2.71" x1="27.08"/><linearGradient x1="24.14" y1="20.27" x2="24.14" y2="26.01" id="m" xlink:href="#e" gradientUnits="userSpaceOnUse" gradientTransform="matrix(.896 0 0 1.15861 29.1 21.82)"/><linearGradient id="e"><stop offset="0" stop-color="#fff"/><stop offset="0" stop-color="#fff" stop-opacity=".24"/><stop offset="1" stop-color="#fff" stop-opacity=".16"/><stop offset="1" stop-color="#fff" stop-opacity=".39"/></linearGradient><linearGradient x1="24.14" y1="9.71" x2="24.14" y2="36.59" id="l" xlink:href="#e" gradientUnits="userSpaceOnUse" gradientTransform="matrix(1.18611 0 0 .88692 22.67 28.15)"/><radialGradient cx="65.6" cy="48.74" r="31" fx="65.6" fy="48.74" id="k" xlink:href="#f" gradientUnits="userSpaceOnUse" gradientTransform="matrix(0 1.36253 -1.48226 0 121.27 -54.8)"/><linearGradient id="f"><stop offset="0" stop-color="#0f0"/><stop offset=".26" stop-color="green"/><stop offset=".66" stop-color="#68b723"/><stop offset="1" stop-color="#1d7e0d"/></linearGradient></defs><path d="M3 10h58v46H3z" fill="url(#g)"/><path d="M60.5 55.5h-57v-45h57z" fill="none" stroke="url(#h)" stroke-linecap="round"/><path d="M2.5 9.5h59v47h-59z" fill="#1a1a1a"/><path style="marker:none" overflow="visible" d="M5 12h54v42H5z" color="#000" fill="url(#i)"/><path d="M10 40.5c-1.7 0-3.37.15-5 .42V54h30.32A30.48 30.48 0 0 0 10 40.5z" style="isolation:auto;mix-blend-mode:normal;marker:none" overflow="visible" color="#000" fill="url(#j)" fill-rule="evenodd"/><path d="M33.56 12c-.01.09 0 .18.04.27.14.3.56.34 1.1.1.48-.2.94-.23 1.02-.05.08.18-.08.43-.37.55-.68.3-.6.42 1.03 1.55 1.27.87 1.52.9 2.86.31 1.17-.5 1.48-.52 1.5-.06.02.34.24.5.52.4.26-.1.19.1-.16.44-.42.42-.49.79-.2 1.06.37.35.03.6-2.25 1.6a22.31 22.31 0 0 0-7.55 5.36c-1.08 1.26-3.11 5.52-2.88 6.03.07.14.68.02 1.35-.28 1.01-.44 1.23-.73 1.21-1.62l-.02-1.08.51.73.52.73.42-1.34c.39-1.25.43-1.28.6-.5.11.52.4.82.75.8.43-.03.56.16.5.74-.05.71.08.72 1.43.13 1.19-.52 1.55-.89 1.84-1.9l.36-1.24.49.98c.46.92.49.93.7.1.18-.74.24-.78.47-.3.18.4.55.43 1.35.08 1.01-.45.96-.3-.74 2.25-1 1.5-2.43 4.3-3.16 6.24-1.27 3.36-2.63 9.03-2.1 8.8.73-.32 3.78-3 3.68-3.22a6.02 6.02 0 0 1-.17-1.36c-.05-1.09-.04-1.1.6-.5.9.86 1.63.4 1.6-1-.03-1.23.43-1.77.81-.95.19.4.35.35.93-.27.52-.57.58-1 .23-1.75-.43-.92-.4-.97.28-.6.79.41 1.49-.1 1.14-.85-.13-.28.13-.5.76-.66.53-.12.95-.11.94.03a85.6 85.6 0 0 0-.06 10.12c.22 2.54 1.5 7.13 1.92 6.94.1-.04.66-1.57 1.22-3.4.66-2.12.89-3.51.61-3.84-.31-.37-.22-.6.37-.86.93-.4 1.39-2.24.72-2.87-.32-.3-.27-.43.2-.46.83-.06.73-.28-.6-1.28-1.04-.8-1.05-.8-.1-.53.52.15 1.05.23 1.18.17.37-.16-.3-1.37-.8-1.43-.24-.03-.52-.2-.6-.4-.11-.22.09-.28.54-.17 1.25.32 1.73-.58.89-1.67a5.04 5.04 0 0 0-1.23-1.2c-.33-.16-.2-.3.47-.45.58-.14.88-.38.77-.61-.1-.21.01-.37.25-.34.23.03.54-.63.68-1.46s.35-1.56.46-1.6c3.2 3.23 5.53 18.57 6.08 27.59H59V32.2c-1.62-3.38-3.33-6.3-4.88-7.84-1.94-1.94-2.03-2.23-.55-1.79.82.25.88.2.83-.66-.05-.89-.02-.88.73.12.6.82 1.3 1.13 3.22 1.46l.65.1v-8h-1.82l1.27-.56c.2-.09.38-.2.55-.3v-2.51L57.9 12h-3.72l-3.66 1.63-.22-1.14c-.02-.14-.08-.32-.12-.49H44.5v.02l-.09-.02H33.56zm9.58 10.2c.38.04.44.97.01 1.5a3.6 3.6 0 0 1-.73.74c-.3.13.23-2.06.54-2.21a.32.32 0 0 1 .18-.04z"/><path overflow="visible" style="marker:none" d="M44.2 43.72v-8.57h9.94v8.57h8.53v9.93h-8.53v8.53H44.2v-8.53h-8.53v-9.93z" color="#000" fill="url(#k)"/><path d="M44.99 46.38V36.02h8.42v10.36m0 4.6v10.37h-8.42V50.98" opacity=".5" fill="none" stroke="url(#l)" stroke-width="1.7"/><path d="M53.64 44.5l8.22-.03v8.27l-8.2.04m-8.96 0l-8.21-.04v-8.27l8.2.03" opacity=".5" fill="none" stroke="url(#m)" stroke-width="1.58"/></svg>