<svg xmlns="http://www.w3.org/2000/svg" xmlns:xlink="http://www.w3.org/1999/xlink" width="64" height="64" version="1"><defs><linearGradient id="a"><stop offset="0"/><stop offset=".5" stop-color="#1a1a1a"/><stop offset="1" stop-color="#1a1a1a" stop-opacity="0"/></linearGradient><linearGradient x1="24.14" y1="20.27" x2="24.14" y2="26.01" id="j" xlink:href="#b" gradientUnits="userSpaceOnUse" gradientTransform="matrix(.96226 0 0 1.24428 26.42 17.6)"/><linearGradient id="b"><stop offset="0" stop-color="#fff"/><stop offset="0" stop-color="#fff" stop-opacity=".24"/><stop offset="1" stop-color="#fff" stop-opacity=".16"/><stop offset="1" stop-color="#fff" stop-opacity=".39"/></linearGradient><linearGradient x1="24.14" y1="9.71" x2="24.14" y2="36.59" id="i" xlink:href="#b" gradientUnits="userSpaceOnUse" gradientTransform="matrix(1.27383 0 0 .9525 19.5 24.4)"/><radialGradient cx="65.6" cy="48.74" r="31" fx="65.6" fy="48.74" id="h" xlink:href="#c" gradientUnits="userSpaceOnUse" gradientTransform="matrix(0 1.46328 -1.59187 0 125.4 -64.68)"/><linearGradient id="c"><stop offset="0" stop-color="#0f0"/><stop offset=".26" stop-color="green"/><stop offset=".66" stop-color="#68b723"/><stop offset="1" stop-color="#1d7e0d"/></linearGradient><linearGradient xlink:href="#d" id="e" x1="-151.02" y1="90.16" x2="-93.3" y2="90.16" gradientUnits="userSpaceOnUse"/><linearGradient id="d"><stop offset="0"/><stop offset="1" stop-color="#4d4d4d"/></linearGradient><linearGradient xlink:href="#d" id="f" x1="-98.7" y1="37.84" x2="-40.98" y2="37.84" gradientUnits="userSpaceOnUse"/><linearGradient xlink:href="#d" id="g" x1="-140.64" y1="-22.63" x2="-85.64" y2="-22.63" gradientUnits="userSpaceOnUse"/></defs><g transform="translate(84.38 -2.92) scale(.54566)"><path d="M-146.91 85.92a13.97 13.97 0 0 0 0 19.8l9.2 9.2a13.97 13.97 0 0 0 19.79 0l20.5-20.51a13.97 13.97 0 0 0 0-19.8l-9.19-9.2a13.97 13.97 0 0 0-19.8 0zm7.78 6.36l19.09-19.09a4.99 4.99 0 0 1 7.07 0l7.78 7.78a4.99 4.99 0 0 1 0 7.07l-19.1 19.1a4.99 4.99 0 0 1-7.07 0l-7.77-7.78a4.99 4.99 0 0 1 0-7.08z" fill="url(#e)"/><path d="M-94.59 33.6a13.97 13.97 0 0 0 0 19.8l9.2 9.19a13.97 13.97 0 0 0 19.8 0l20.5-20.51a13.97 13.97 0 0 0 0-19.8l-9.2-9.2a13.97 13.97 0 0 0-19.79 0zm7.78 6.36l19.1-19.1a4.99 4.99 0 0 1 7.07 0l7.77 7.78a4.99 4.99 0 0 1 0 7.08L-71.96 54.8a4.99 4.99 0 0 1-7.07 0l-7.78-7.78a4.99 4.99 0 0 1 0-7.07z" fill="url(#f)"/><rect transform="rotate(-45)" width="55" height="11" x="-140.64" y="-28.13" rx="6" ry="6" fill="url(#g)"/></g><path d="M42.64 41.12v-9.2h10.68v9.2h9.16V51.8h-9.16v9.16H42.64V51.8h-9.16V41.12z" style="marker:none" color="#000" overflow="visible" fill="url(#h)"/><path d="M43.48 44V32.84h9.04v11.13m0 4.95v11.13h-9.04V48.93" opacity=".5" fill="none" stroke="url(#i)" stroke-width="1.82"/><path d="M52.79 41.97l8.81-.03v8.88l-8.81.03m-9.62 0l-8.82-.03v-8.88l8.82.03" opacity=".5" fill="none" stroke="url(#j)" stroke-width="1.69"/></svg>