<svg xmlns="http://www.w3.org/2000/svg" xmlns:xlink="http://www.w3.org/1999/xlink" width="64" height="64" viewBox="0 0 16.93 16.93"><defs><linearGradient id="e"><stop offset="0" stop-color="#fff" stop-opacity=".33"/><stop offset="1" stop-color="#fff" stop-opacity=".6"/></linearGradient><linearGradient id="f"><stop offset="0" stop-color="#333"/><stop offset=".49"/><stop offset="1" stop-color="#1a1a1a"/></linearGradient><linearGradient id="c"><stop offset="0" stop-color="#ffd019" stop-opacity=".8"/><stop offset="1" stop-color="red" stop-opacity="0"/></linearGradient><linearGradient id="a"><stop offset="0" stop-color="#fff"/><stop offset=".25" stop-color="#ffdb54" stop-opacity=".67"/><stop offset=".5" stop-color="#ff8930" stop-opacity=".35"/><stop offset=".75" stop-color="#ff3e00" stop-opacity=".12"/><stop offset="1" stop-color="red" stop-opacity="0"/></linearGradient><radialGradient xlink:href="#a" id="j" gradientUnits="userSpaceOnUse" cx="16" cy="44" fx="16" fy="44" r="11.95"/><linearGradient y2="16" x2="35" y1="53" x1="21" gradientUnits="userSpaceOnUse" id="k" xlink:href="#b"/><linearGradient id="b"><stop offset="0" stop-color="red"/><stop offset="1" stop-color="#ffb400"/></linearGradient><linearGradient xlink:href="#c" id="l" x1="22" y1="53" x2="39" y2="16" gradientUnits="userSpaceOnUse"/><linearGradient xlink:href="#d" id="m" x1="20.5" y1="46.5" x2="40.1" y2="32.38" gradientUnits="userSpaceOnUse" gradientTransform="translate(-.06 -.44) scale(.26458)"/><linearGradient id="d"><stop offset="0" stop-color="#fff"/><stop offset="1" stop-color="#fff" stop-opacity="0"/></linearGradient><linearGradient x1="21.13" y1="14.63" x2="29" y2="28" id="i" xlink:href="#e" gradientUnits="userSpaceOnUse" gradientTransform="translate(-2.18 -1.33) scale(.44349)"/><linearGradient xlink:href="#e" id="h" gradientUnits="userSpaceOnUse" gradientTransform="translate(-2.18 -1.3) scale(.44349)" x1="21.13" y1="14.63" x2="29" y2="28"/><linearGradient xlink:href="#f" id="g" gradientUnits="userSpaceOnUse" gradientTransform="translate(-2.61 -.41) scale(1.75147)" x1="3.38" y1="8.18" x2="9.44" y2="2.12"/></defs><path d="M8.47 1.07a7.36 7.36 0 0 0-7.4 7.4 7.36 7.36 0 0 0 7.4 7.39 7.36 7.36 0 0 0 7.4-7.4 7.36 7.36 0 0 0-7.4-7.39zm0 5.53a1.85 1.86 0 0 1 .2 0 1.85 1.86 0 0 1 .17.03 1.85 1.86 0 0 1 .18.05 1.85 1.86 0 0 1 .18.06 1.85 1.86 0 0 1 .16.08 1.85 1.86 0 0 1 .16.1 1.85 1.86 0 0 1 .15.11 1.85 1.86 0 0 1 .13.13 1.85 1.86 0 0 1 .13.14 1.85 1.86 0 0 1 .1.15 1.85 1.86 0 0 1 .1.16 1.85 1.86 0 0 1 .07.17 1.85 1.86 0 0 1 .06.18 1.85 1.86 0 0 1 .04.18 1.85 1.86 0 0 1 .02.19 1.85 1.86 0 0 1 0 .13 1.85 1.86 0 0 1 0 .19 1.85 1.86 0 0 1-.03.18 1.85 1.86 0 0 1-.05.18 1.85 1.86 0 0 1-.06.18 1.85 1.86 0 0 1-.08.16 1.85 1.86 0 0 1-.1.16 1.85 1.86 0 0 1-.1.15 1.85 1.86 0 0 1-.14.14 1.85 1.86 0 0 1-.13.12 1.85 1.86 0 0 1-.15.1 1.85 1.86 0 0 1-.16.1 1.85 1.86 0 0 1-.17.08 1.85 1.86 0 0 1-.18.06 1.85 1.86 0 0 1-.18.04 1.85 1.86 0 0 1-.18.02 1.85 1.86 0 0 1-.13 0 1.85 1.86 0 0 1-.19 0 1.85 1.86 0 0 1-.18-.03 1.85 1.86 0 0 1-.18-.05 1.85 1.86 0 0 1-.17-.06 1.85 1.86 0 0 1-.17-.08 1.85 1.86 0 0 1-.16-.1 1.85 1.86 0 0 1-.14-.11 1.85 1.86 0 0 1-.14-.13 1.85 1.86 0 0 1-.12-.14 1.85 1.86 0 0 1-.1-.15 1.85 1.86 0 0 1-.1-.16 1.85 1.86 0 0 1-.07-.17 1.85 1.86 0 0 1-.06-.18 1.85 1.86 0 0 1-.04-.18 1.85 1.86 0 0 1-.03-.19 1.85 1.86 0 0 1 0-.13 1.85 1.86 0 0 1 0-.19 1.85 1.86 0 0 1 .04-.18 1.85 1.86 0 0 1 .04-.18 1.85 1.86 0 0 1 .07-.18 1.85 1.86 0 0 1 .08-.16 1.85 1.86 0 0 1 .1-.16 1.85 1.86 0 0 1 .1-.15 1.85 1.86 0 0 1 .13-.14A1.85 1.86 0 0 1 7.33 7a1.85 1.86 0 0 1 .15-.1 1.85 1.86 0 0 1 .16-.1 1.85 1.86 0 0 1 .17-.08 1.85 1.86 0 0 1 .17-.06 1.85 1.86 0 0 1 .18-.04 1.85 1.86 0 0 1 .19-.02 1.85 1.86 0 0 1 .13 0z" fill="url(#g)"/><path d="M10.44 1.62L9.17 6.6c.39.1.7.35.93.7l4.4-2.7a6.7 6.7 0 0 0-4.06-2.98z" fill="url(#h)"/><path d="M5.97 15.11l1.68-4.85a1.58 1.58 0 0 1-.88-.77l-4.6 2.31a6.7 6.7 0 0 0 3.8 3.31z" fill="url(#i)"/><path d="M8.43 5.42a3.04 3.02 0 0 0-3.04 3.02 3.04 3.02 0 0 0 3.04 3.03 3.04 3.02 0 0 0 3.04-3.03 3.04 3.02 0 0 0-3.04-3.02zm.04 1.64a1.38 1.4 0 0 1 .13 0 1.38 1.4 0 0 1 .14.03 1.38 1.4 0 0 1 .13.03 1.38 1.4 0 0 1 .13.05 1.38 1.4 0 0 1 .13.06 1.38 1.4 0 0 1 .12.07 1.38 1.4 0 0 1 .1.09 1.38 1.4 0 0 1 .1.1 1.38 1.4 0 0 1 .1.1 1.38 1.4 0 0 1 .08.11 1.38 1.4 0 0 1 .07.12 1.38 1.4 0 0 1 .06.13 1.38 1.4 0 0 1 .04.13 1.38 1.4 0 0 1 .03.14 1.38 1.4 0 0 1 .02.14 1.38 1.4 0 0 1 0 .1 1.38 1.4 0 0 1 0 .14 1.38 1.4 0 0 1-.03.13 1.38 1.4 0 0 1-.03.14 1.38 1.4 0 0 1-.05.13 1.38 1.4 0 0 1-.06.13 1.38 1.4 0 0 1-.07.11 1.38 1.4 0 0 1-.09.12 1.38 1.4 0 0 1-.09.1 1.38 1.4 0 0 1-.1.09 1.38 1.4 0 0 1-.12.08 1.38 1.4 0 0 1-.12.07 1.38 1.4 0 0 1-.12.06 1.38 1.4 0 0 1-.13.04 1.38 1.4 0 0 1-.14.03 1.38 1.4 0 0 1-.14.02 1.38 1.4 0 0 1-.1 0 1.38 1.4 0 0 1-.13 0 1.38 1.4 0 0 1-.14-.03 1.38 1.4 0 0 1-.13-.03 1.38 1.4 0 0 1-.13-.05 1.38 1.4 0 0 1-.13-.06 1.38 1.4 0 0 1-.12-.07 1.38 1.4 0 0 1-.1-.09 1.38 1.4 0 0 1-.1-.1 1.38 1.4 0 0 1-.1-.1 1.38 1.4 0 0 1-.08-.1 1.38 1.4 0 0 1-.07-.13 1.38 1.4 0 0 1-.05-.13 1.38 1.4 0 0 1-.05-.13 1.38 1.4 0 0 1-.03-.14 1.38 1.4 0 0 1-.02-.14 1.38 1.4 0 0 1 0-.1 1.38 1.4 0 0 1 0-.13 1.38 1.4 0 0 1 .03-.14 1.38 1.4 0 0 1 .03-.14 1.38 1.4 0 0 1 .05-.13 1.38 1.4 0 0 1 .06-.12 1.38 1.4 0 0 1 .07-.12 1.38 1.4 0 0 1 .09-.11 1.38 1.4 0 0 1 .1-.1 1.38 1.4 0 0 1 .1-.1 1.38 1.4 0 0 1 .1-.08 1.38 1.4 0 0 1 .13-.07 1.38 1.4 0 0 1 .12-.06 1.38 1.4 0 0 1 .14-.04 1.38 1.4 0 0 1 .13-.03 1.38 1.4 0 0 1 .14-.02 1.38 1.4 0 0 1 .1 0z" fill="#1a1a1a" stroke="#000" stroke-width=".25" stroke-opacity=".01"/><path transform="translate(.54 .93) scale(.22132)" style="marker:none" d="M27.95 44a11.95 11.95 0 1 1-23.9 0 11.95 11.95 0 0 1 23.9 0z" color="#000" overflow="visible" fill="url(#j)"/><g color="#000"><path style="marker:none" d="M32 15c2.6.26 5.03 1.08 7.13 2.24A17.23 17.23 0 0 1 48.1 34a16.02 16.02 0 0 1-5.59 10.52 15.35 15.35 0 0 1-5.5 2.9 15.47 15.47 0 0 1-7.66.33 21.24 21.24 0 0 1-5.75-2.22 30.4 30.4 0 0 1-4.48-3.05c-1.25-1.02-2.28-1.98-3.16-2.66-.89-.68-1.66-1.08-2.32-.9-.67.18-1.17.94-1.31 2.25-.14 1.32.1 3.2 1 5.3a18.2 18.2 0 0 0 4.85 6.5A20.66 20.66 0 0 0 32 57.93a22.84 22.84 0 0 0 16.35-7.6A22.48 22.48 0 0 0 53.89 34c-.22-2.7-.95-5.38-2.2-7.87a20 20 0 0 0-11.96-10.3A19.29 19.29 0 0 0 32 15z" overflow="visible" opacity=".15" fill="url(#k)" transform="translate(-.06 -.44) scale(.26458)"/><path style="marker:none" d="M32 15a18.87 18.87 0 0 1 12.91 6.09A18.16 18.16 0 0 1 49.56 34a17.54 17.54 0 0 1-5.58 11.98 17.2 17.2 0 0 1-6.14 3.62 17.19 17.19 0 0 1-9 .57 19.88 19.88 0 0 1-6.58-2.78 23.23 23.23 0 0 1-4.57-3.91c-1.17-1.3-2-2.49-2.63-3.32-.63-.84-1.08-1.33-1.41-1.24-.34.09-.52.76-.4 1.91.11 1.16.55 2.8 1.54 4.64a18.9 18.9 0 0 0 4.75 5.63A20.03 20.03 0 0 0 32 55.47a20.94 20.94 0 0 0 14.9-6.58A20.77 20.77 0 0 0 52.43 34a20.23 20.23 0 0 0-6.48-13.96A19.54 19.54 0 0 0 32 15z" overflow="visible" fill="url(#l)" transform="translate(-.06 -.44) scale(.26458)"/><path style="marker:none" d="M8.41 3.53a5.02 5.02 0 0 1 4.53 3.22 4.87 4.87 0 0 1-1.17 5.17 4.8 4.8 0 0 1-6.12.42 5.65 5.65 0 0 1-1.84-2.11c-.13-.25-.21-.39-.25-.38-.05.02-.06.18.01.47.06.28.2.69.48 1.14a5.1 5.1 0 0 0 3.32 2.34 4.9 4.9 0 0 0 2.91-.26 5.26 5.26 0 0 0 2.93-6.9 5.16 5.16 0 0 0-2.81-2.75 5.06 5.06 0 0 0-1.99-.36z" overflow="visible" fill="#ffe027" fill-opacity=".75"/><path style="marker:none" d="M8.41 3.53a5.03 5.03 0 0 1 4.95 5.02 4.96 4.96 0 0 1-1.47 3.48 4.94 4.94 0 0 1-7.57-.76 5.4 5.4 0 0 1-.58-1.02l-.18-.4c-.02.01 0 .17.08.44a5.22 5.22 0 0 0 4.77 3.42 5.12 5.12 0 0 0 3.63-1.52A5.13 5.13 0 0 0 12 4.97a5.06 5.06 0 0 0-3.58-1.44z" overflow="visible" fill="#fff"/></g><path style="marker:none" d="M8.41 3.53a5.02 5.02 0 0 1 4.53 3.22 4.87 4.87 0 0 1-1.17 5.17 4.8 4.8 0 0 1-6.12.42 5.65 5.65 0 0 1-1.84-2.11c-.13-.25-.21-.39-.25-.38-.05.02-.06.18.01.47.06.28.2.69.48 1.14a5.1 5.1 0 0 0 3.32 2.34 4.9 4.9 0 0 0 2.91-.26 5.26 5.26 0 0 0 2.93-6.9 5.16 5.16 0 0 0-2.81-2.75 5.06 5.06 0 0 0-1.99-.36z" color="#000" overflow="visible" fill="url(#m)"/></svg>