<svg xmlns="http://www.w3.org/2000/svg" xmlns:xlink="http://www.w3.org/1999/xlink" width="64" height="64"><defs><linearGradient id="a"><stop offset="0" stop-color="#333"/><stop offset="1"/></linearGradient><radialGradient xlink:href="#a" id="b" cx="32" cy="32" fx="32" fy="32" r="29.13" gradientTransform="rotate(8.1 32 32)" gradientUnits="userSpaceOnUse"/></defs><path style="marker:none" d="M43.88 4.27c-.47-.2-11.13 5.02-11.63 5.01-.5 0-11.07-5.5-11.54-5.32-.47.19-4.3 11.4-4.66 11.75-.36.35-11.58 3.95-11.78 4.41-.2.47 5.02 11.13 5.01 11.63 0 .5-5.5 11.07-5.32 11.54.2.47 11.4 4.3 11.75 4.66.35.36 3.95 11.58 4.41 11.78.47.2 11.13-5.02 11.63-5.01.5 0 11.07 5.5 11.54 5.32.47-.19 4.3-11.4 4.66-11.75.36-.35 11.58-3.95 11.78-4.41.2-.47-5.02-11.13-5.01-11.63 0-.5 5.5-11.07 5.32-11.54-.2-.47-11.4-4.3-11.75-4.66-.35-.36-3.95-11.58-4.41-11.78z" color="#000" overflow="visible" fill="url(#b)"/><path d="M32.42 15.5a2.92 2.92 0 0 0-3 2.45 3.77 3.77 0 0 0-.05.63c.68 6.74 1.48 13.43 2.06 20.2h1.87c.49-6.5 1.28-12.96 1.84-19.44.3-1.54-.5-3.36-2.12-3.74a2.62 2.62 0 0 0-.6-.1zm-.2 27.36a2.79 2.79 0 0 0-1.9.71 3.06 3.06 0 0 0-1.16 2.4c-.07 2 2.14 3.58 4.02 2.94a3.1 3.1 0 0 0 1.85-4.4 3.14 3.14 0 0 0-2.82-1.65z" opacity=".3" fill="#fff"/><path d="M31.87 14.95a2.92 2.92 0 0 0-3 2.45 3.77 3.77 0 0 0-.05.63c.68 6.73 1.47 13.43 2.06 20.19h1.87c.49-6.5 1.28-12.95 1.84-19.44.3-1.53-.5-3.36-2.12-3.73a2.62 2.62 0 0 0-.6-.1zm-.21 27.36a2.79 2.79 0 0 0-1.89.7 3.06 3.06 0 0 0-1.16 2.4c-.07 2.01 2.13 3.58 4.02 2.95a3.1 3.1 0 0 0 1.85-4.4 3.14 3.14 0 0 0-2.82-1.65z" fill="#fff"/></svg>