<svg xmlns="http://www.w3.org/2000/svg" xmlns:xlink="http://www.w3.org/1999/xlink" width="64" height="64" version="1"><defs><linearGradient id="c"><stop offset="0" stop-color="#fff"/><stop offset="0" stop-color="#fff" stop-opacity=".24"/><stop offset="1" stop-color="#fff" stop-opacity=".16"/><stop offset="1" stop-color="#fff" stop-opacity=".39"/></linearGradient><linearGradient id="b"><stop offset="0" stop-color="#0f0"/><stop offset=".26" stop-color="green"/><stop offset=".66" stop-color="#68b723"/><stop offset="1" stop-color="#1d7e0d"/></linearGradient><linearGradient id="a"><stop offset="0"/><stop offset="1" stop-color="#fff"/></linearGradient><linearGradient id="d"><stop offset="0"/><stop offset=".26"/><stop stop-color="#4d4d4d" offset=".66"/><stop offset="1"/></linearGradient><linearGradient gradientTransform="translate(-.618 1.072) scale(2.67587)" y2="2" x2="9" y1="22" x1="9" gradientUnits="userSpaceOnUse" id="i" xlink:href="#e"/><linearGradient id="e"><stop offset="0"/><stop offset="1" stop-color="#333"/></linearGradient><linearGradient y2="16" x2="6" y1="8" x1="14" gradientUnits="userSpaceOnUse" id="k" xlink:href="#f"/><linearGradient id="f"><stop offset="0" stop-color="#fff"/><stop offset=".125" stop-color="#fff" stop-opacity="0"/><stop offset="1" stop-color="#fff" stop-opacity="0"/></linearGradient><clipPath id="j"><path d="M8 2.686v14l3.133-3.82 2.066 4.986a1 1 0 1 0 1.848-.766l-2.111-5.096 4.378.01z" fill="#333" fill-rule="evenodd" stroke-width="2"/></clipPath><linearGradient x1="31.86" y1="17.13" x2="16.15" y2="32.85" id="m" xlink:href="#g" gradientUnits="userSpaceOnUse" gradientTransform="matrix(.51446 -.51294 .51446 .51294 20.854 14.178)"/><linearGradient id="g"><stop offset="0" stop-color="#fff"/><stop offset="1" stop-color="#fff" stop-opacity=".34"/></linearGradient><linearGradient x1="23.95" y1="7.51" x2="23.95" y2="42.58" id="l" xlink:href="#h" gradientUnits="userSpaceOnUse" gradientTransform="matrix(.4986 0 0 .4986 34.092 2.232)"/><linearGradient id="h"><stop offset="0" stop-color="#333"/><stop offset="1"/></linearGradient></defs><path d="M20.79 13.61v37.462l8.382-10.222 5.53 13.342a2.676 2.676 0 1 0 4.944-2.048l-5.65-13.636 11.717.026z" opacity=".2" fill-rule="evenodd" stroke="#000" stroke-width="4.014" stroke-linejoin="round"/><path d="M18.113 10.934v37.462l8.383-10.222 5.53 13.343a2.676 2.676 0 1 0 4.944-2.05l-5.65-13.635 11.718.026z" fill="gray" fill-rule="evenodd" stroke="gray" stroke-width="4.014"/><path d="M18.113 10.934v37.462l8.383-10.222 5.53 13.343a2.676 2.676 0 1 0 4.944-2.05l-5.65-13.635 11.718.026z" fill="url(#i)" fill-rule="evenodd"/><path d="M8 2.686v14l3.133-3.82 2.066 4.986a1 1 0 1 0 1.848-.766l-2.111-5.096 4.378.01z" clip-path="url(#j)" transform="translate(-3.294 3.748) scale(2.67587)" opacity=".4" fill="none" stroke="url(#k)" stroke-width="2"/><path d="M54.984 19.688l-5.185-4.991 4.986-5.23-3.59-3.241-5.136 4.986-5.235-4.986-3.74 3.36 5.235 5.091-5.235 5.006 3.74 3.49 5.235-5.235 5.23 5.235z" style="line-height:125%;text-align:start" font-weight="700" font-size="59.9" font-family="Bitstream Vera Sans" fill="url(#l)"/><path d="M54.037 9.462L51.22 6.904l-5.161 5.05-5.26-5.045-2.967 2.687m5.235 5.071l-5.235 5.016m16.429 0l-5.21-4.986" style="line-height:125%;text-align:start" font-weight="700" font-size="59.9" font-family="Bitstream Vera Sans" opacity=".4" fill="none" stroke="url(#m)" stroke-width=".489"/></svg>