<svg xmlns="http://www.w3.org/2000/svg" xmlns:xlink="http://www.w3.org/1999/xlink" width="64" height="64" version="1"><defs><linearGradient id="a"><stop offset="0" stop-color="#4d4d4d"/><stop offset="1"/></linearGradient><radialGradient xlink:href="#a" id="d" cx="16" cy="19.25" fx="16" fy="19.25" r="28" gradientUnits="userSpaceOnUse" gradientTransform="matrix(.88378 .33898 -.35812 .93367 8.75 -4.15)"/><linearGradient id="b"><stop offset="0" stop-color="#fff"/><stop offset="1" stop-color="#fff" stop-opacity="0"/></linearGradient><radialGradient gradientTransform="translate(40)" xlink:href="#c" id="e" cx="-8" cy="32" fx="-8" fy="32" r="13.498" gradientUnits="userSpaceOnUse"/><linearGradient id="c"><stop offset="0" stop-color="#c83737"/><stop offset="1" stop-color="#a00"/></linearGradient></defs><path d="M32 4C16.49 4 4 16.49 4 32s12.49 28 28 28 28-12.49 28-28S47.51 4 32 4z" fill="url(#d)"/><path d="M32 16.502c-8.551 0-15.498 6.947-15.498 15.498 0 8.551 6.947 15.498 15.498 15.498 8.551 0 15.498-6.947 15.498-15.498 0-8.551-6.947-15.498-15.498-15.498z" opacity=".5" fill="#333"/><path d="M32 18.502c-7.448 0-13.498 6.05-13.498 13.498 0 7.448 6.05 13.498 13.498 13.498 7.448 0 13.498-6.05 13.498-13.498 0-7.448-6.05-13.498-13.498-13.498z" fill="url(#e)"/></svg>