<svg xmlns="http://www.w3.org/2000/svg" xmlns:xlink="http://www.w3.org/1999/xlink" width="64" height="64" viewBox="0 0 16.93 16.93"><defs><linearGradient id="a"><stop offset="0" stop-color="#fff" stop-opacity=".33"/><stop offset="1" stop-color="#fff" stop-opacity=".6"/></linearGradient><linearGradient id="b"><stop offset="0" stop-color="#333"/><stop offset=".49"/><stop offset="1" stop-color="#1a1a1a"/></linearGradient><radialGradient id="f" cx="69.45" cy="51.7" r="31" gradientTransform="matrix(0 .31125 -.34137 0 29.3 -12.48)" gradientUnits="userSpaceOnUse"><stop offset="0" stop-color="#80ff80"/><stop offset=".26" stop-color="#2aff2a"/><stop offset=".66" stop-color="green"/><stop offset="1" stop-color="#002b00"/></radialGradient><linearGradient x1="21.13" y1="14.63" x2="29" y2="28" id="e" xlink:href="#a" gradientUnits="userSpaceOnUse" gradientTransform="translate(-2.18 -1.33) scale(.44349)"/><linearGradient xlink:href="#a" id="d" gradientUnits="userSpaceOnUse" gradientTransform="translate(-2.18 -1.3) scale(.44349)" x1="21.13" y1="14.63" x2="29" y2="28"/><linearGradient xlink:href="#b" id="c" gradientUnits="userSpaceOnUse" gradientTransform="translate(-2.61 -.41) scale(1.75147)" x1="3.38" y1="8.18" x2="9.44" y2="2.12"/></defs><path d="M8.47 1.07a7.36 7.36 0 0 0-7.4 7.4 7.36 7.36 0 0 0 7.4 7.39 7.36 7.36 0 0 0 7.4-7.4 7.36 7.36 0 0 0-7.4-7.39zm0 5.53a1.85 1.86 0 0 1 .2 0 1.85 1.86 0 0 1 .17.03 1.85 1.86 0 0 1 .18.05 1.85 1.86 0 0 1 .18.06 1.85 1.86 0 0 1 .16.08 1.85 1.86 0 0 1 .16.1 1.85 1.86 0 0 1 .15.11 1.85 1.86 0 0 1 .13.13 1.85 1.86 0 0 1 .13.14 1.85 1.86 0 0 1 .1.15 1.85 1.86 0 0 1 .1.16 1.85 1.86 0 0 1 .07.17 1.85 1.86 0 0 1 .06.18 1.85 1.86 0 0 1 .04.18 1.85 1.86 0 0 1 .02.19 1.85 1.86 0 0 1 0 .13 1.85 1.86 0 0 1 0 .19 1.85 1.86 0 0 1-.03.18 1.85 1.86 0 0 1-.05.18 1.85 1.86 0 0 1-.06.18 1.85 1.86 0 0 1-.08.16 1.85 1.86 0 0 1-.1.16 1.85 1.86 0 0 1-.1.15 1.85 1.86 0 0 1-.14.14 1.85 1.86 0 0 1-.13.12 1.85 1.86 0 0 1-.15.1 1.85 1.86 0 0 1-.16.1 1.85 1.86 0 0 1-.17.08 1.85 1.86 0 0 1-.18.06 1.85 1.86 0 0 1-.18.04 1.85 1.86 0 0 1-.18.02 1.85 1.86 0 0 1-.13 0 1.85 1.86 0 0 1-.19 0 1.85 1.86 0 0 1-.18-.03 1.85 1.86 0 0 1-.18-.05 1.85 1.86 0 0 1-.17-.06 1.85 1.86 0 0 1-.17-.08 1.85 1.86 0 0 1-.16-.1 1.85 1.86 0 0 1-.14-.11 1.85 1.86 0 0 1-.14-.13 1.85 1.86 0 0 1-.12-.14 1.85 1.86 0 0 1-.1-.15 1.85 1.86 0 0 1-.1-.16 1.85 1.86 0 0 1-.07-.17 1.85 1.86 0 0 1-.06-.18 1.85 1.86 0 0 1-.04-.18 1.85 1.86 0 0 1-.03-.19 1.85 1.86 0 0 1 0-.13 1.85 1.86 0 0 1 0-.19 1.85 1.86 0 0 1 .04-.18 1.85 1.86 0 0 1 .04-.18 1.85 1.86 0 0 1 .07-.18 1.85 1.86 0 0 1 .08-.16 1.85 1.86 0 0 1 .1-.16 1.85 1.86 0 0 1 .1-.15 1.85 1.86 0 0 1 .13-.14A1.85 1.86 0 0 1 7.33 7a1.85 1.86 0 0 1 .15-.1 1.85 1.86 0 0 1 .16-.1 1.85 1.86 0 0 1 .17-.08 1.85 1.86 0 0 1 .17-.06 1.85 1.86 0 0 1 .18-.04 1.85 1.86 0 0 1 .19-.02 1.85 1.86 0 0 1 .13 0z" fill="url(#c)"/><path d="M10.44 1.62L9.17 6.6c.39.1.7.35.93.7l4.4-2.7a6.7 6.7 0 0 0-4.06-2.98z" fill="url(#d)"/><path d="M5.97 15.11l1.68-4.85a1.58 1.58 0 0 1-.88-.77l-4.6 2.31a6.7 6.7 0 0 0 3.8 3.31z" fill="url(#e)"/><path d="M8.43 5.42a3.04 3.02 0 0 0-3.04 3.02 3.04 3.02 0 0 0 3.04 3.03 3.04 3.02 0 0 0 3.04-3.03 3.04 3.02 0 0 0-3.04-3.02zm.04 1.64a1.38 1.4 0 0 1 .13 0 1.38 1.4 0 0 1 .14.03 1.38 1.4 0 0 1 .13.03 1.38 1.4 0 0 1 .13.05 1.38 1.4 0 0 1 .13.06 1.38 1.4 0 0 1 .12.07 1.38 1.4 0 0 1 .1.09 1.38 1.4 0 0 1 .1.1 1.38 1.4 0 0 1 .1.1 1.38 1.4 0 0 1 .08.11 1.38 1.4 0 0 1 .07.12 1.38 1.4 0 0 1 .06.13 1.38 1.4 0 0 1 .04.13 1.38 1.4 0 0 1 .03.14 1.38 1.4 0 0 1 .02.14 1.38 1.4 0 0 1 0 .1 1.38 1.4 0 0 1 0 .14 1.38 1.4 0 0 1-.03.13 1.38 1.4 0 0 1-.03.14 1.38 1.4 0 0 1-.05.13 1.38 1.4 0 0 1-.06.13 1.38 1.4 0 0 1-.07.11 1.38 1.4 0 0 1-.09.12 1.38 1.4 0 0 1-.09.1 1.38 1.4 0 0 1-.1.09 1.38 1.4 0 0 1-.12.08 1.38 1.4 0 0 1-.12.07 1.38 1.4 0 0 1-.12.06 1.38 1.4 0 0 1-.13.04 1.38 1.4 0 0 1-.14.03 1.38 1.4 0 0 1-.14.02 1.38 1.4 0 0 1-.1 0 1.38 1.4 0 0 1-.13 0 1.38 1.4 0 0 1-.14-.03 1.38 1.4 0 0 1-.13-.03 1.38 1.4 0 0 1-.13-.05 1.38 1.4 0 0 1-.13-.06 1.38 1.4 0 0 1-.12-.07 1.38 1.4 0 0 1-.1-.09 1.38 1.4 0 0 1-.1-.1 1.38 1.4 0 0 1-.1-.1 1.38 1.4 0 0 1-.08-.1 1.38 1.4 0 0 1-.07-.13 1.38 1.4 0 0 1-.05-.13 1.38 1.4 0 0 1-.05-.13 1.38 1.4 0 0 1-.03-.14 1.38 1.4 0 0 1-.02-.14 1.38 1.4 0 0 1 0-.1 1.38 1.4 0 0 1 0-.13 1.38 1.4 0 0 1 .03-.14 1.38 1.4 0 0 1 .03-.14 1.38 1.4 0 0 1 .05-.13 1.38 1.4 0 0 1 .06-.12 1.38 1.4 0 0 1 .07-.12 1.38 1.4 0 0 1 .09-.11 1.38 1.4 0 0 1 .1-.1 1.38 1.4 0 0 1 .1-.1 1.38 1.4 0 0 1 .1-.08 1.38 1.4 0 0 1 .13-.07 1.38 1.4 0 0 1 .12-.06 1.38 1.4 0 0 1 .14-.04 1.38 1.4 0 0 1 .13-.03 1.38 1.4 0 0 1 .14-.02 1.38 1.4 0 0 1 .1 0z" fill="#1a1a1a" stroke="#000" stroke-width=".25" stroke-opacity=".01"/><path d="M16.7 12.03l-3.99 4.82-3.96-4.82h1.82V8.12h4.3v3.91h1.83z" fill="url(#f)"/></svg>