<svg xmlns="http://www.w3.org/2000/svg" xmlns:xlink="http://www.w3.org/1999/xlink" width="64" height="64" version="1"><defs><linearGradient id="a"><stop offset="0" stop-color="#4d4d4d"/><stop offset="1"/></linearGradient><radialGradient xlink:href="#a" id="c" cx="16" cy="19.25" fx="16" fy="19.25" r="28" gradientUnits="userSpaceOnUse" gradientTransform="matrix(.88378 .33898 -.35812 .93367 8.75 -4.15)"/><linearGradient id="b"><stop offset="0" stop-color="#64baff"/><stop offset="1" stop-color="#3689e6"/></linearGradient></defs><path d="M32 4C16.49 4 4 16.49 4 32s12.49 28 28 28 28-12.49 28-28S47.51 4 32 4z" fill="url(#c)"/><path style="isolation:auto;mix-blend-mode:normal;marker:none" d="M51.258 19.929V44.07L34.544 33.103V44.07L17.829 33.208v9.935a.927.927 0 0 1-.928.928h-3.714a.927.927 0 0 1-.929-.928V20.857c0-.514.414-.928.929-.928H16.9c.514 0 .928.414.928.928v9.935L34.544 19.93v10.968z" color="#000" overflow="visible" opacity=".5" fill="#1a1a1a"/><path style="isolation:auto;mix-blend-mode:normal;marker:none" d="M49.258 21.167v21.666l-15-9.843v9.843l-15-9.749V42a.832.832 0 0 1-.833.833H15.09a.832.832 0 0 1-.833-.833V22c0-.462.372-.833.833-.833h3.334c.461 0 .833.371.833.833v8.916l15-9.75v9.844z" color="#000" overflow="visible" opacity=".99" fill="#fff"/></svg>