<svg xmlns="http://www.w3.org/2000/svg" xmlns:xlink="http://www.w3.org/1999/xlink" width="64" height="64" viewBox="0 0 16.93 16.93"><defs><linearGradient id="e"><stop offset="0" stop-color="#fff" stop-opacity=".33"/><stop offset="1" stop-color="#fff" stop-opacity=".6"/></linearGradient><linearGradient id="f"><stop offset="0" stop-color="#333"/><stop offset=".49"/><stop offset="1" stop-color="#1a1a1a"/></linearGradient><linearGradient id="c"><stop offset="0" stop-color="#ffd019" stop-opacity=".8"/><stop offset="1" stop-color="red" stop-opacity="0"/></linearGradient><linearGradient id="a"><stop offset="0" stop-color="#fff"/><stop offset=".25" stop-color="#ffdb54" stop-opacity=".67"/><stop offset=".5" stop-color="#ff8930" stop-opacity=".35"/><stop offset=".75" stop-color="#ff3e00" stop-opacity=".12"/><stop offset="1" stop-color="red" stop-opacity="0"/></linearGradient><linearGradient id="b"><stop offset="0" stop-color="red"/><stop offset="1" stop-color="#ffb400"/></linearGradient><linearGradient id="d"><stop offset="0" stop-color="#fff"/><stop offset="1" stop-color="#fff" stop-opacity="0"/></linearGradient><linearGradient x1="21.13" y1="14.63" x2="29" y2="28" id="p" xlink:href="#e" gradientUnits="userSpaceOnUse" gradientTransform="translate(-2.18 -1.33) scale(.44349)"/><linearGradient xlink:href="#e" id="o" gradientUnits="userSpaceOnUse" gradientTransform="translate(-2.18 -1.3) scale(.44349)" x1="21.13" y1="14.63" x2="29" y2="28"/><linearGradient xlink:href="#f" id="n" gradientUnits="userSpaceOnUse" gradientTransform="translate(-2.61 -.41) scale(1.75147)" x1="3.38" y1="8.18" x2="9.44" y2="2.12"/><linearGradient xlink:href="#g" id="q" x1="25.32" y1="17.11" x2="34.55" y2="17.11" gradientUnits="userSpaceOnUse" gradientTransform="translate(-.18)"/><linearGradient id="g"><stop offset="0" stop-color="#803300"/><stop offset="1" stop-color="#ff7f2a"/></linearGradient><linearGradient xlink:href="#h" id="r" x1="22.41" y1="20.56" x2="25.32" y2="20.56" gradientUnits="userSpaceOnUse"/><linearGradient id="h"><stop offset="0" stop-color="#f60"/><stop offset="1" stop-color="#803300"/></linearGradient><linearGradient xlink:href="#i" id="s" x1="42.5" y1="3.15" x2="42.5" y2="95.21" gradientUnits="userSpaceOnUse"/><linearGradient id="i"><stop offset="0" stop-color="#fca"/><stop offset="1" stop-color="#ffb380" stop-opacity="0"/></linearGradient><filter x="-.56" width="2.12" y="-.01" height="1.02" id="t"><feGaussianBlur stdDeviation=".47"/></filter><linearGradient xlink:href="#j" id="u" x1="6.78" y1="42.68" x2="25.32" y2="34.23" gradientUnits="userSpaceOnUse"/><linearGradient id="j"><stop offset="0" stop-color="#803300"/><stop offset=".48" stop-color="#f95"/><stop offset="1" stop-color="#a40"/></linearGradient><radialGradient xlink:href="#k" id="v" gradientUnits="userSpaceOnUse" gradientTransform="matrix(.68623 -.27888 .26073 .68336 -.07 33.86)" cx="22.5" cy="91.36" fx="19.84" fy="86.02" r="14"/><radialGradient gradientUnits="userSpaceOnUse" fy="88.67" fx="17.12" r="14" cy="94" cx="19.78" id="k"><stop offset="0" stop-color="#fff"/><stop offset=".5" stop-color="#fff" stop-opacity=".71"/><stop offset="1" stop-color="#fff" stop-opacity="0"/></radialGradient><filter id="w"><feGaussianBlur stdDeviation=".61"/></filter><radialGradient xlink:href="#i" id="x" cx="47.37" cy="114.49" fx="47.37" fy="114.49" r="13.79" gradientTransform="matrix(1 0 0 .5868 0 45.32)" gradientUnits="userSpaceOnUse"/><filter x="-.07" width="1.15" y="-.14" height="1.28" id="y"><feGaussianBlur stdDeviation=".73"/></filter><radialGradient xlink:href="#l" id="z" cx="81.12" cy="34.7" fx="81.12" fy="34.7" r="8.04" gradientTransform="matrix(1 0 0 1.76493 0 -30.73)" gradientUnits="userSpaceOnUse"/><linearGradient id="l"><stop offset="0" stop-color="#f0ff80"/><stop offset="1" stop-color="#f0ff80" stop-opacity="0"/></linearGradient><filter id="A"><feGaussianBlur stdDeviation=".37"/></filter><linearGradient xlink:href="#h" id="C" x1="22.41" y1="20.56" x2="25.32" y2="20.56" gradientUnits="userSpaceOnUse"/><linearGradient xlink:href="#i" id="D" x1="42.5" y1="3.15" x2="42.5" y2="95.21" gradientUnits="userSpaceOnUse"/><filter x="-.56" width="2.12" y="-.01" height="1.02" id="E"><feGaussianBlur stdDeviation=".47"/></filter><linearGradient xlink:href="#j" id="F" x1="6.78" y1="42.68" x2="25.32" y2="34.23" gradientUnits="userSpaceOnUse"/><radialGradient xlink:href="#m" id="G" gradientUnits="userSpaceOnUse" gradientTransform="matrix(.68623 -.27888 .26073 .68336 -.07 33.86)" cx="22.5" cy="91.36" fx="19.84" fy="86.02" r="14"/><radialGradient gradientUnits="userSpaceOnUse" fy="88.67" fx="17.12" r="14" cy="94" cx="19.78" id="m"><stop offset="0" stop-color="#fff"/><stop offset=".5" stop-color="#fff" stop-opacity=".71"/><stop offset="1" stop-color="#fff" stop-opacity="0"/></radialGradient><filter id="H"><feGaussianBlur stdDeviation=".61"/></filter><radialGradient xlink:href="#i" id="I" cx="47.37" cy="114.49" fx="47.37" fy="114.49" r="13.79" gradientTransform="matrix(1 0 0 .5868 0 45.32)" gradientUnits="userSpaceOnUse"/><filter x="-.07" width="1.15" y="-.14" height="1.28" id="J"><feGaussianBlur stdDeviation=".73"/></filter><radialGradient xlink:href="#l" id="K" cx="81.12" cy="34.7" fx="81.12" fy="34.7" r="8.04" gradientTransform="matrix(1 0 0 1.76493 0 -30.73)" gradientUnits="userSpaceOnUse"/><filter id="L"><feGaussianBlur stdDeviation=".37"/></filter><linearGradient xlink:href="#g" id="B" gradientUnits="userSpaceOnUse" gradientTransform="translate(-.18)" x1="25.32" y1="17.11" x2="34.55" y2="17.11"/></defs><path d="M8.47 1.07a7.36 7.36 0 0 0-7.4 7.4 7.36 7.36 0 0 0 7.4 7.39 7.36 7.36 0 0 0 7.4-7.4 7.36 7.36 0 0 0-7.4-7.39zm0 5.53a1.85 1.86 0 0 1 .2 0 1.85 1.86 0 0 1 .17.03 1.85 1.86 0 0 1 .18.05 1.85 1.86 0 0 1 .18.06 1.85 1.86 0 0 1 .16.08 1.85 1.86 0 0 1 .16.1 1.85 1.86 0 0 1 .15.11 1.85 1.86 0 0 1 .13.13 1.85 1.86 0 0 1 .13.14 1.85 1.86 0 0 1 .1.15 1.85 1.86 0 0 1 .1.16 1.85 1.86 0 0 1 .07.17 1.85 1.86 0 0 1 .06.18 1.85 1.86 0 0 1 .04.18 1.85 1.86 0 0 1 .02.19 1.85 1.86 0 0 1 0 .13 1.85 1.86 0 0 1 0 .19 1.85 1.86 0 0 1-.03.18 1.85 1.86 0 0 1-.05.18 1.85 1.86 0 0 1-.06.18 1.85 1.86 0 0 1-.08.16 1.85 1.86 0 0 1-.1.16 1.85 1.86 0 0 1-.1.15 1.85 1.86 0 0 1-.14.14 1.85 1.86 0 0 1-.13.12 1.85 1.86 0 0 1-.15.1 1.85 1.86 0 0 1-.16.1 1.85 1.86 0 0 1-.17.08 1.85 1.86 0 0 1-.18.06 1.85 1.86 0 0 1-.18.04 1.85 1.86 0 0 1-.18.02 1.85 1.86 0 0 1-.13 0 1.85 1.86 0 0 1-.19 0 1.85 1.86 0 0 1-.18-.03 1.85 1.86 0 0 1-.18-.05 1.85 1.86 0 0 1-.17-.06 1.85 1.86 0 0 1-.17-.08 1.85 1.86 0 0 1-.16-.1 1.85 1.86 0 0 1-.14-.11 1.85 1.86 0 0 1-.14-.13 1.85 1.86 0 0 1-.12-.14 1.85 1.86 0 0 1-.1-.15 1.85 1.86 0 0 1-.1-.16 1.85 1.86 0 0 1-.07-.17 1.85 1.86 0 0 1-.06-.18 1.85 1.86 0 0 1-.04-.18 1.85 1.86 0 0 1-.03-.19 1.85 1.86 0 0 1 0-.13 1.85 1.86 0 0 1 0-.19 1.85 1.86 0 0 1 .04-.18 1.85 1.86 0 0 1 .04-.18 1.85 1.86 0 0 1 .07-.18 1.85 1.86 0 0 1 .08-.16 1.85 1.86 0 0 1 .1-.16 1.85 1.86 0 0 1 .1-.15 1.85 1.86 0 0 1 .13-.14A1.85 1.86 0 0 1 7.33 7a1.85 1.86 0 0 1 .15-.1 1.85 1.86 0 0 1 .16-.1 1.85 1.86 0 0 1 .17-.08 1.85 1.86 0 0 1 .17-.06 1.85 1.86 0 0 1 .18-.04 1.85 1.86 0 0 1 .19-.02 1.85 1.86 0 0 1 .13 0z" fill="url(#n)"/><path d="M10.44 1.62L9.17 6.6c.39.1.7.35.93.7l4.4-2.7a6.7 6.7 0 0 0-4.06-2.98z" fill="url(#o)"/><path d="M5.97 15.11l1.68-4.85a1.58 1.58 0 0 1-.88-.77l-4.6 2.31a6.7 6.7 0 0 0 3.8 3.31z" fill="url(#p)"/><path d="M8.43 5.42a3.04 3.02 0 0 0-3.04 3.02 3.04 3.02 0 0 0 3.04 3.03 3.04 3.02 0 0 0 3.04-3.03 3.04 3.02 0 0 0-3.04-3.02zm.04 1.64a1.38 1.4 0 0 1 .13 0 1.38 1.4 0 0 1 .14.03 1.38 1.4 0 0 1 .13.03 1.38 1.4 0 0 1 .13.05 1.38 1.4 0 0 1 .13.06 1.38 1.4 0 0 1 .12.07 1.38 1.4 0 0 1 .1.09 1.38 1.4 0 0 1 .1.1 1.38 1.4 0 0 1 .1.1 1.38 1.4 0 0 1 .08.11 1.38 1.4 0 0 1 .07.12 1.38 1.4 0 0 1 .06.13 1.38 1.4 0 0 1 .04.13 1.38 1.4 0 0 1 .03.14 1.38 1.4 0 0 1 .02.14 1.38 1.4 0 0 1 0 .1 1.38 1.4 0 0 1 0 .14 1.38 1.4 0 0 1-.03.13 1.38 1.4 0 0 1-.03.14 1.38 1.4 0 0 1-.05.13 1.38 1.4 0 0 1-.06.13 1.38 1.4 0 0 1-.07.11 1.38 1.4 0 0 1-.09.12 1.38 1.4 0 0 1-.09.1 1.38 1.4 0 0 1-.1.09 1.38 1.4 0 0 1-.12.08 1.38 1.4 0 0 1-.12.07 1.38 1.4 0 0 1-.12.06 1.38 1.4 0 0 1-.13.04 1.38 1.4 0 0 1-.14.03 1.38 1.4 0 0 1-.14.02 1.38 1.4 0 0 1-.1 0 1.38 1.4 0 0 1-.13 0 1.38 1.4 0 0 1-.14-.03 1.38 1.4 0 0 1-.13-.03 1.38 1.4 0 0 1-.13-.05 1.38 1.4 0 0 1-.13-.06 1.38 1.4 0 0 1-.12-.07 1.38 1.4 0 0 1-.1-.09 1.38 1.4 0 0 1-.1-.1 1.38 1.4 0 0 1-.1-.1 1.38 1.4 0 0 1-.08-.1 1.38 1.4 0 0 1-.07-.13 1.38 1.4 0 0 1-.05-.13 1.38 1.4 0 0 1-.05-.13 1.38 1.4 0 0 1-.03-.14 1.38 1.4 0 0 1-.02-.14 1.38 1.4 0 0 1 0-.1 1.38 1.4 0 0 1 0-.13 1.38 1.4 0 0 1 .03-.14 1.38 1.4 0 0 1 .03-.14 1.38 1.4 0 0 1 .05-.13 1.38 1.4 0 0 1 .06-.12 1.38 1.4 0 0 1 .07-.12 1.38 1.4 0 0 1 .09-.11 1.38 1.4 0 0 1 .1-.1 1.38 1.4 0 0 1 .1-.1 1.38 1.4 0 0 1 .1-.08 1.38 1.4 0 0 1 .13-.07 1.38 1.4 0 0 1 .12-.06 1.38 1.4 0 0 1 .14-.04 1.38 1.4 0 0 1 .13-.03 1.38 1.4 0 0 1 .14-.02 1.38 1.4 0 0 1 .1 0z" fill="#1a1a1a" stroke="#000" stroke-width=".25" stroke-opacity=".01"/><path d="M28.86 8.8c-1.96-2.34-2.96-5.2-3.69-6.61l-.03 9.41c13.3 5.59 4.7 20.44 4.7 20.44 9.84-10.1.83-21.1-.97-23.24z" fill="url(#q)" transform="matrix(.20388 0 0 .20388 9.59 7.13)"/><path d="M22.41 2.19h2.91v36.74L22.42 37z" fill="url(#r)" transform="matrix(.20388 0 0 .20388 9.59 7.13)"/><path transform="matrix(.11722 0 0 -.07707 9.17 14.91)" d="M43.12 3v90.66l2 .5V3z" opacity=".7" fill="url(#s)" filter="url(#t)"/><path d="M6.78 42.68c1.43 2.95 6.64 4 11.67 2.34 5.02-1.66 7.94-5.39 6.51-8.34-1.42-2.95-6.64-4-11.67-2.34-5.01 1.66-7.93 5.4-6.5 8.34z" fill="url(#u)" transform="matrix(.20388 0 0 .20388 9.59 7.13)"/><path transform="matrix(.08898 -.0104 .00911 .0714 7.9 8.62)" d="M34.45 87.55c-7.63 4.16-12.1 10.31-9.57 13.16 1.1 1.24 3.23 1.54 4.82 1.57 4.13.08 9.45-1.43 14.24-4.04 7.63-4.17 12.1-10.32 9.56-13.16-1.1-1.24-3.23-1.54-4.82-1.57-4.12-.08-9.44 1.43-14.23 4.04z" opacity=".8" fill="url(#v)" filter="url(#w)"/><path transform="matrix(.09127 .00395 -.01193 .09144 9.96 5.36)" d="M46.87 109c-7.17 1.88-12.58.6-11.92 3.13.27 1.05 1.3 1.84 2.12 2.31 2.24 1.31 6.43 2.24 11.47.92 7.17-1.88 10.92-6.96 10.26-9.5-.27-1.04-1.3-1.82-2.12-2.3-2.24-1.31-4.77 4.12-9.8 5.44z" opacity=".6" fill="url(#x)" filter="url(#y)"/><path d="M79.26 35.83c-3.12-3.83-3.78-6.4-4.52-7.48 0 11.96 3.9 11.82.32 11.13C81.4 42.74 86.28 47.23 88.14 52c-2.09-7.85-6.25-12.94-8.88-16.17z" transform="matrix(.11722 0 0 .117 6.07 4.76)" fill="url(#z)" filter="url(#A)"/><g><path d="M28.86 8.8c-1.96-2.34-2.96-5.2-3.69-6.61l-.03 9.41c13.3 5.59 4.7 20.44 4.7 20.44 9.84-10.1.83-21.1-.97-23.24z" fill="url(#B)" transform="matrix(.19175 0 0 .19175 6.49 5.15)"/><path d="M22.41 2.19h2.91v36.74L22.42 37z" fill="url(#C)" transform="matrix(.19175 0 0 .19175 6.49 5.15)"/><path transform="matrix(.11025 0 0 -.07249 6.1 12.47)" d="M43.12 3v90.66l2 .5V3z" opacity=".7" fill="url(#D)" filter="url(#E)"/><path d="M6.78 42.68c1.43 2.95 6.64 4 11.67 2.34 5.02-1.66 7.94-5.39 6.51-8.34-1.42-2.95-6.64-4-11.67-2.34-5.01 1.66-7.93 5.4-6.5 8.34z" fill="url(#F)" transform="matrix(.19175 0 0 .19175 6.49 5.15)"/><path transform="matrix(.08368 -.00979 .00857 .06716 4.9 6.56)" d="M34.45 87.55c-7.63 4.16-12.1 10.31-9.57 13.16 1.1 1.24 3.23 1.54 4.82 1.57 4.13.08 9.45-1.43 14.24-4.04 7.63-4.17 12.1-10.32 9.56-13.16-1.1-1.24-3.23-1.54-4.82-1.57-4.12-.08-9.44 1.43-14.23 4.04z" opacity=".8" fill="url(#G)" filter="url(#H)"/><path transform="matrix(.08584 .00372 -.01122 .086 6.84 3.5)" d="M46.87 109c-7.17 1.88-12.58.6-11.92 3.13.27 1.05 1.3 1.84 2.12 2.31 2.24 1.31 6.43 2.24 11.47.92 7.17-1.88 10.92-6.96 10.26-9.5-.27-1.04-1.3-1.82-2.12-2.3-2.24-1.31-4.77 4.12-9.8 5.44z" opacity=".6" fill="url(#I)" filter="url(#J)"/><path d="M79.26 35.83c-3.12-3.83-3.78-6.4-4.52-7.48 0 11.96 3.9 11.82.32 11.13C81.4 42.74 86.28 47.23 88.14 52c-2.09-7.85-6.25-12.94-8.88-16.17z" transform="matrix(.11025 0 0 .11005 3.18 2.93)" fill="url(#K)" filter="url(#L)"/></g></svg>