<svg xmlns="http://www.w3.org/2000/svg" width="64" height="64"><defs><linearGradient id="a" x1="2" x2="7" y1="13" y2="14" gradientUnits="userSpaceOnUse"><stop offset="0"/><stop offset=".45"/><stop offset="1" stop-color="#fff"/></linearGradient><linearGradient id="b" x1="8.39" x2="42.6" y1="17.89" y2="17.89" gradientTransform="matrix(0 1.0524 -.97832 0 45.58 -3.83)" gradientUnits="userSpaceOnUse"><stop offset="0" stop-color="#4d4d4d"/><stop offset=".5" stop-color="#333"/><stop offset="1"/></linearGradient><linearGradient id="c" x1="12.019" x2="12.019" y1="6" y2="17" gradientTransform="matrix(-2.52355 0 0 1.81903 64.828 11.081)" gradientUnits="userSpaceOnUse"><stop offset="0" stop-color="#4d4d4d"/><stop offset="1"/></linearGradient><linearGradient id="d" x1="17.963" x2="17.963" y1="17.004" y2="6" gradientUnits="userSpaceOnUse" gradientTransform="matrix(-2.52355 0 0 1.81903 62.303 11.081)"><stop offset="0" stop-color="#4d4d4d"/><stop offset="1"/></linearGradient><linearGradient id="e" x1="36.46" x2="26.418" y1=".912" y2="11.147" gradientTransform="matrix(-.86972 -.62691 -.85324 .61503 64.488 48.046)" gradientUnits="userSpaceOnUse"><stop offset="0" stop-color="#fff"/><stop offset="1" stop-color="#fff" stop-opacity="0"/></linearGradient></defs><path d="M18.11 28.362l-.035-5.457L2.69 32.347l15.386 8.748.033-5.457h27.784l.033 5.457 15.386-8.748-15.386-9.442-.036 5.457H18.11z" fill="url(#c)" stroke="url(#d)" stroke-width="2.143" stroke-linejoin="round" transform="rotate(-90 32 32)"/><path d="M15.577 30.181v-3.517l-9.319 5.683 9.319 5.08v-3.608h32.85v3.608l9.318-5.08-9.319-5.683v3.517z" opacity=".2" fill="none" stroke="url(#e)" stroke-width="2.153" transform="rotate(-90 32 32)"/></svg>