<svg xmlns="http://www.w3.org/2000/svg" xmlns:xlink="http://www.w3.org/1999/xlink" width="64" height="64" version="1"><defs><linearGradient id="a"><stop offset="0" stop-color="#4d4d4d"/><stop offset="1"/></linearGradient><radialGradient xlink:href="#a" id="d" cx="16" cy="19.25" fx="16" fy="19.25" r="28" gradientUnits="userSpaceOnUse" gradientTransform="matrix(.88378 .33898 -.35812 .93367 8.75 -4.15)"/><linearGradient id="b"><stop offset="0" stop-color="#fea"/><stop offset="1" stop-color="#fc0"/></linearGradient><linearGradient id="c"><stop offset="0" stop-color="#797a78"/><stop offset="1" stop-color="#555754"/></linearGradient></defs><path d="M32 4C16.49 4 4 16.49 4 32s12.49 28 28 28 28-12.49 28-28S47.51 4 32 4z" fill="url(#d)"/><path d="M48.95 43.45L39.13 34l9.45-9.9-6.81-6.14-9.72 9.44-9.91-9.44-7.09 6.36 9.92 9.64-9.92 9.5 7.09 6.6 9.9-9.91 9.93 9.91z" style="line-height:125%;text-align:start" font-weight="700" font-size="59.9" font-family="Bitstream Vera Sans" fill="#e6e6e6" opacity=".2"/><path d="M48.95 41.45L39.13 32l9.45-9.9-6.81-6.14-9.72 9.44-9.91-9.44-7.09 6.36 9.92 9.64-9.92 9.5 7.09 6.6 9.9-9.91 9.93 9.91z" style="line-height:125%;text-align:start" font-weight="700" font-size="59.9" font-family="Bitstream Vera Sans" fill="#e6e6e6"/></svg>