<svg xmlns="http://www.w3.org/2000/svg" xmlns:xlink="http://www.w3.org/1999/xlink" width="64" height="64" version="1"><defs><linearGradient id="a"><stop offset="0"/><stop offset=".5" stop-color="#1a1a1a"/><stop offset="1" stop-color="#1a1a1a" stop-opacity="0"/></linearGradient><linearGradient id="b"><stop offset="0" stop-color="#fff"/><stop offset="0" stop-color="#fff" stop-opacity=".24"/><stop offset="1" stop-color="#fff" stop-opacity=".16"/><stop offset="1" stop-color="#fff" stop-opacity=".39"/></linearGradient><linearGradient id="c"><stop offset="0" stop-color="#0f0"/><stop offset=".26" stop-color="green"/><stop offset=".66" stop-color="#68b723"/><stop offset="1" stop-color="#1d7e0d"/></linearGradient><linearGradient xlink:href="#d" id="g" x1="-151.02" y1="90.16" x2="-93.3" y2="90.16" gradientUnits="userSpaceOnUse"/><linearGradient id="d"><stop offset="0"/><stop offset="1" stop-color="#4d4d4d"/></linearGradient><linearGradient xlink:href="#d" id="h" x1="-98.7" y1="37.84" x2="-40.98" y2="37.84" gradientUnits="userSpaceOnUse"/><linearGradient xlink:href="#d" id="i" x1="-140.64" y1="-22.63" x2="-85.64" y2="-22.63" gradientUnits="userSpaceOnUse"/><linearGradient x1="31.86" y1="17.13" x2="16.15" y2="32.85" id="k" xlink:href="#e" gradientUnits="userSpaceOnUse" gradientTransform="scale(1.13402 1.13066) rotate(-45 54.4 11.7)"/><linearGradient id="e"><stop offset="0" stop-color="#fff"/><stop offset="1" stop-color="#fff" stop-opacity=".34"/></linearGradient><radialGradient xlink:href="#f" id="j" cx="15.55" cy="21.19" fx="15.55" fy="21.19" r="17.95" gradientTransform="matrix(1.22216 1.12328 -1.41493 1.53948 46.14 -9.86)" gradientUnits="userSpaceOnUse"/><linearGradient id="f"><stop offset="0" stop-color="#0f0"/><stop offset=".26" stop-color="green"/><stop offset=".66" stop-color="#68b723"/><stop offset="1" stop-color="#1d7e0d"/></linearGradient></defs><g transform="translate(84.38 -2.92) scale(.54566)"><path d="M-146.91 85.92a13.97 13.97 0 0 0 0 19.8l9.2 9.2a13.97 13.97 0 0 0 19.79 0l20.5-20.51a13.97 13.97 0 0 0 0-19.8l-9.19-9.2a13.97 13.97 0 0 0-19.8 0zm7.78 6.36l19.09-19.09a4.99 4.99 0 0 1 7.07 0l7.78 7.78a4.99 4.99 0 0 1 0 7.07l-19.1 19.1a4.99 4.99 0 0 1-7.07 0l-7.77-7.78a4.99 4.99 0 0 1 0-7.08z" fill="url(#g)"/><path d="M-94.59 33.6a13.97 13.97 0 0 0 0 19.8l9.2 9.19a13.97 13.97 0 0 0 19.8 0l20.5-20.51a13.97 13.97 0 0 0 0-19.8l-9.2-9.2a13.97 13.97 0 0 0-19.79 0zm7.78 6.36l19.1-19.1a4.99 4.99 0 0 1 7.07 0l7.77 7.78a4.99 4.99 0 0 1 0 7.08L-71.96 54.8a4.99 4.99 0 0 1-7.07 0l-7.78-7.78a4.99 4.99 0 0 1 0-7.07z" fill="url(#h)"/><rect transform="rotate(-45)" width="55" height="11" x="-140.64" y="-28.13" rx="6" ry="6" fill="url(#i)"/></g><path d="M61.89 55.96l-8.08-7.78 7.77-8.15-5.6-5.05-8 7.77-8.16-7.77-5.83 5.24 8.16 7.93-8.16 7.8 5.83 5.44 8.16-8.16 8.15 8.16z" style="line-height:125%;text-align:start" font-weight="700" font-size="59.9" font-family="Bitstream Vera Sans" fill="url(#j)"/><path d="M60.41 40.02l-4.39-3.99-8.04 7.88-8.2-7.87-4.63 4.2m8.16 7.9l-8.16 7.81m25.61 0l-8.12-7.77" style="line-height:125%;text-align:start" font-weight="700" font-size="59.9" font-family="Bitstream Vera Sans" opacity=".4" fill="none" stroke="url(#k)" stroke-width=".76"/></svg>