<svg xmlns="http://www.w3.org/2000/svg" xmlns:xlink="http://www.w3.org/1999/xlink" width="64" height="64" viewBox="0 0 16.93 16.93"><defs><linearGradient id="e"><stop offset="0" stop-color="#fff" stop-opacity=".33"/><stop offset="1" stop-color="#fff" stop-opacity=".6"/></linearGradient><linearGradient id="f"><stop offset="0" stop-color="#333"/><stop offset=".49"/><stop offset="1" stop-color="#1a1a1a"/></linearGradient><linearGradient id="c"><stop offset="0" stop-color="#ffd019" stop-opacity=".8"/><stop offset="1" stop-color="red" stop-opacity="0"/></linearGradient><linearGradient id="a"><stop offset="0" stop-color="#fff"/><stop offset=".25" stop-color="#ffdb54" stop-opacity=".67"/><stop offset=".5" stop-color="#ff8930" stop-opacity=".35"/><stop offset=".75" stop-color="#ff3e00" stop-opacity=".12"/><stop offset="1" stop-color="red" stop-opacity="0"/></linearGradient><linearGradient id="b"><stop offset="0" stop-color="red"/><stop offset="1" stop-color="#ffb400"/></linearGradient><linearGradient id="d"><stop offset="0" stop-color="#fff"/><stop offset="1" stop-color="#fff" stop-opacity="0"/></linearGradient><linearGradient x1="21.13" y1="14.63" x2="29" y2="28" id="l" xlink:href="#e" gradientUnits="userSpaceOnUse" gradientTransform="translate(-2.18 -1.33) scale(.44349)"/><linearGradient xlink:href="#e" id="k" gradientUnits="userSpaceOnUse" gradientTransform="translate(-2.18 -1.3) scale(.44349)" x1="21.13" y1="14.63" x2="29" y2="28"/><linearGradient xlink:href="#f" id="j" gradientUnits="userSpaceOnUse" gradientTransform="translate(-2.61 -.41) scale(1.75147)" x1="3.38" y1="8.18" x2="9.44" y2="2.12"/><radialGradient r="3.41" fy="120.64" fx="42.62" cy="120.64" cx="42.62" gradientTransform="matrix(.17733 .1513 -1.3807 1.60193 167.37 -185.75)" gradientUnits="userSpaceOnUse" id="m" xlink:href="#g"/><linearGradient id="g"><stop offset="0" stop-color="#5f4721"/><stop offset="1" stop-color="#dab475"/></linearGradient><linearGradient id="h"><stop offset="0" stop-color="#252525"/><stop offset=".5" stop-color="#252525"/><stop offset=".75" stop-color="#252525"/><stop offset="1"/></linearGradient><linearGradient id="i"><stop offset="0" stop-color="#2d2d2d"/><stop offset=".5"/><stop offset="1"/></linearGradient></defs><path d="M8.47 1.07a7.36 7.36 0 0 0-7.4 7.4 7.36 7.36 0 0 0 7.4 7.39 7.36 7.36 0 0 0 7.4-7.4 7.36 7.36 0 0 0-7.4-7.39zm0 5.53a1.85 1.86 0 0 1 .2 0 1.85 1.86 0 0 1 .17.03 1.85 1.86 0 0 1 .18.05 1.85 1.86 0 0 1 .18.06 1.85 1.86 0 0 1 .16.08 1.85 1.86 0 0 1 .16.1 1.85 1.86 0 0 1 .15.11 1.85 1.86 0 0 1 .13.13 1.85 1.86 0 0 1 .13.14 1.85 1.86 0 0 1 .1.15 1.85 1.86 0 0 1 .1.16 1.85 1.86 0 0 1 .07.17 1.85 1.86 0 0 1 .06.18 1.85 1.86 0 0 1 .04.18 1.85 1.86 0 0 1 .02.19 1.85 1.86 0 0 1 0 .13 1.85 1.86 0 0 1 0 .19 1.85 1.86 0 0 1-.03.18 1.85 1.86 0 0 1-.05.18 1.85 1.86 0 0 1-.06.18 1.85 1.86 0 0 1-.08.16 1.85 1.86 0 0 1-.1.16 1.85 1.86 0 0 1-.1.15 1.85 1.86 0 0 1-.14.14 1.85 1.86 0 0 1-.13.12 1.85 1.86 0 0 1-.15.1 1.85 1.86 0 0 1-.16.1 1.85 1.86 0 0 1-.17.08 1.85 1.86 0 0 1-.18.06 1.85 1.86 0 0 1-.18.04 1.85 1.86 0 0 1-.18.02 1.85 1.86 0 0 1-.13 0 1.85 1.86 0 0 1-.19 0 1.85 1.86 0 0 1-.18-.03 1.85 1.86 0 0 1-.18-.05 1.85 1.86 0 0 1-.17-.06 1.85 1.86 0 0 1-.17-.08 1.85 1.86 0 0 1-.16-.1 1.85 1.86 0 0 1-.14-.11 1.85 1.86 0 0 1-.14-.13 1.85 1.86 0 0 1-.12-.14 1.85 1.86 0 0 1-.1-.15 1.85 1.86 0 0 1-.1-.16 1.85 1.86 0 0 1-.07-.17 1.85 1.86 0 0 1-.06-.18 1.85 1.86 0 0 1-.04-.18 1.85 1.86 0 0 1-.03-.19 1.85 1.86 0 0 1 0-.13 1.85 1.86 0 0 1 0-.19 1.85 1.86 0 0 1 .04-.18 1.85 1.86 0 0 1 .04-.18 1.85 1.86 0 0 1 .07-.18 1.85 1.86 0 0 1 .08-.16 1.85 1.86 0 0 1 .1-.16 1.85 1.86 0 0 1 .1-.15 1.85 1.86 0 0 1 .13-.14A1.85 1.86 0 0 1 7.33 7a1.85 1.86 0 0 1 .15-.1 1.85 1.86 0 0 1 .16-.1 1.85 1.86 0 0 1 .17-.08 1.85 1.86 0 0 1 .17-.06 1.85 1.86 0 0 1 .18-.04 1.85 1.86 0 0 1 .19-.02 1.85 1.86 0 0 1 .13 0z" fill="url(#j)"/><path d="M10.44 1.62L9.17 6.6c.39.1.7.35.93.7l4.4-2.7a6.7 6.7 0 0 0-4.06-2.98z" fill="url(#k)"/><path d="M5.97 15.11l1.68-4.85a1.58 1.58 0 0 1-.88-.77l-4.6 2.31a6.7 6.7 0 0 0 3.8 3.31z" fill="url(#l)"/><path d="M8.43 5.42a3.04 3.02 0 0 0-3.04 3.02 3.04 3.02 0 0 0 3.04 3.03 3.04 3.02 0 0 0 3.04-3.03 3.04 3.02 0 0 0-3.04-3.02zm.04 1.64a1.38 1.4 0 0 1 .13 0 1.38 1.4 0 0 1 .14.03 1.38 1.4 0 0 1 .13.03 1.38 1.4 0 0 1 .13.05 1.38 1.4 0 0 1 .13.06 1.38 1.4 0 0 1 .12.07 1.38 1.4 0 0 1 .1.09 1.38 1.4 0 0 1 .1.1 1.38 1.4 0 0 1 .1.1 1.38 1.4 0 0 1 .08.11 1.38 1.4 0 0 1 .07.12 1.38 1.4 0 0 1 .06.13 1.38 1.4 0 0 1 .04.13 1.38 1.4 0 0 1 .03.14 1.38 1.4 0 0 1 .02.14 1.38 1.4 0 0 1 0 .1 1.38 1.4 0 0 1 0 .14 1.38 1.4 0 0 1-.03.13 1.38 1.4 0 0 1-.03.14 1.38 1.4 0 0 1-.05.13 1.38 1.4 0 0 1-.06.13 1.38 1.4 0 0 1-.07.11 1.38 1.4 0 0 1-.09.12 1.38 1.4 0 0 1-.09.1 1.38 1.4 0 0 1-.1.09 1.38 1.4 0 0 1-.12.08 1.38 1.4 0 0 1-.12.07 1.38 1.4 0 0 1-.12.06 1.38 1.4 0 0 1-.13.04 1.38 1.4 0 0 1-.14.03 1.38 1.4 0 0 1-.14.02 1.38 1.4 0 0 1-.1 0 1.38 1.4 0 0 1-.13 0 1.38 1.4 0 0 1-.14-.03 1.38 1.4 0 0 1-.13-.03 1.38 1.4 0 0 1-.13-.05 1.38 1.4 0 0 1-.13-.06 1.38 1.4 0 0 1-.12-.07 1.38 1.4 0 0 1-.1-.09 1.38 1.4 0 0 1-.1-.1 1.38 1.4 0 0 1-.1-.1 1.38 1.4 0 0 1-.08-.1 1.38 1.4 0 0 1-.07-.13 1.38 1.4 0 0 1-.05-.13 1.38 1.4 0 0 1-.05-.13 1.38 1.4 0 0 1-.03-.14 1.38 1.4 0 0 1-.02-.14 1.38 1.4 0 0 1 0-.1 1.38 1.4 0 0 1 0-.13 1.38 1.4 0 0 1 .03-.14 1.38 1.4 0 0 1 .03-.14 1.38 1.4 0 0 1 .05-.13 1.38 1.4 0 0 1 .06-.12 1.38 1.4 0 0 1 .07-.12 1.38 1.4 0 0 1 .09-.11 1.38 1.4 0 0 1 .1-.1 1.38 1.4 0 0 1 .1-.1 1.38 1.4 0 0 1 .1-.08 1.38 1.4 0 0 1 .13-.07 1.38 1.4 0 0 1 .12-.06 1.38 1.4 0 0 1 .14-.04 1.38 1.4 0 0 1 .13-.03 1.38 1.4 0 0 1 .14-.02 1.38 1.4 0 0 1 .1 0z" fill="#1a1a1a" stroke="#000" stroke-width=".25" stroke-opacity=".01"/><path d="M15.28 3.09c.05-.06.4-.07.81.24.42.31.52.64.46.72l-.12.15-1.27-.95.12-.16M5.97 16.71l2.93-2.56.02-.02-1.25-.98-.02.03z" fill-rule="evenodd" fill="#002b11"/><path d="M6.13 16.5l2.74-2.38.01-.02-1.18-.92-.02.03z" fill="url(#m)" fill-rule="evenodd"/><path d="M8.2 13.76c.16.12.3.05.36.1a.07.07 0 0 1 .02.02l7.58-10.02-.61-.46-7.6 10.04H8c.05.05.04.2.2.32z" fill="#2ca02c"/><path d="M16.14 3.84L8.56 13.86c.05.05.02.17.11.24.1.07.18-.01.25.04L16.5 4.1z" fill="#165016"/><path d="M7.76 13.42c.1.07.2-.01.25.03L15.6 3.43l-.37-.28-7.58 10.03c.04.03.01.17.11.24z" fill="#217821"/><path d="M7.23 15.61c-.21 0-.43-.3-.56-.38l-.7 1.48z" fill-rule="evenodd"/></svg>