<svg xmlns="http://www.w3.org/2000/svg" xmlns:xlink="http://www.w3.org/1999/xlink" width="64" height="64" viewBox="0 0 16.93 16.93"><defs><linearGradient id="e"><stop offset="0" stop-color="#fff" stop-opacity=".33"/><stop offset="1" stop-color="#fff" stop-opacity=".6"/></linearGradient><linearGradient id="f"><stop offset="0" stop-color="#333"/><stop offset=".49"/><stop offset="1" stop-color="#1a1a1a"/></linearGradient><linearGradient id="c"><stop offset="0" stop-color="#ffd019" stop-opacity=".8"/><stop offset="1" stop-color="red" stop-opacity="0"/></linearGradient><linearGradient id="a"><stop offset="0" stop-color="#fff"/><stop offset=".25" stop-color="#ffdb54" stop-opacity=".67"/><stop offset=".5" stop-color="#ff8930" stop-opacity=".35"/><stop offset=".75" stop-color="#ff3e00" stop-opacity=".12"/><stop offset="1" stop-color="red" stop-opacity="0"/></linearGradient><linearGradient id="b"><stop offset="0" stop-color="red"/><stop offset="1" stop-color="#ffb400"/></linearGradient><linearGradient id="d"><stop offset="0" stop-color="#fff"/><stop offset="1" stop-color="#fff" stop-opacity="0"/></linearGradient><linearGradient id="g"><stop offset="0" stop-color="#803300"/><stop offset="1" stop-color="#ff7f2a"/></linearGradient><linearGradient id="h"><stop offset="0" stop-color="#f60"/><stop offset="1" stop-color="#803300"/></linearGradient><linearGradient id="i"><stop offset="0" stop-color="#fca"/><stop offset="1" stop-color="#ffb380" stop-opacity="0"/></linearGradient><linearGradient id="j"><stop offset="0" stop-color="#803300"/><stop offset=".48" stop-color="#f95"/><stop offset="1" stop-color="#a40"/></linearGradient><radialGradient gradientUnits="userSpaceOnUse" fy="88.67" fx="17.12" r="14" cy="94" cx="19.78" id="k"><stop offset="0" stop-color="#fff"/><stop offset=".5" stop-color="#fff" stop-opacity=".71"/><stop offset="1" stop-color="#fff" stop-opacity="0"/></radialGradient><linearGradient id="l"><stop offset="0" stop-color="#f0ff80"/><stop offset="1" stop-color="#f0ff80" stop-opacity="0"/></linearGradient><radialGradient gradientUnits="userSpaceOnUse" fy="88.67" fx="17.12" r="14" cy="94" cx="19.78" id="m"><stop offset="0" stop-color="#fff"/><stop offset=".5" stop-color="#fff" stop-opacity=".71"/><stop offset="1" stop-color="#fff" stop-opacity="0"/></radialGradient><linearGradient x1="21.13" y1="14.63" x2="29" y2="28" id="t" xlink:href="#e" gradientUnits="userSpaceOnUse" gradientTransform="matrix(.4166 0 0 .4166 -.37 .23)"/><linearGradient xlink:href="#e" id="s" gradientUnits="userSpaceOnUse" gradientTransform="matrix(.4166 0 0 .4166 -.37 .25)" x1="21.13" y1="14.63" x2="29" y2="28"/><linearGradient xlink:href="#f" id="r" gradientUnits="userSpaceOnUse" gradientTransform="matrix(1.6453 0 0 1.6453 -.77 1.1)" x1="3.38" y1="8.18" x2="9.44" y2="2.12"/><linearGradient xlink:href="#e" id="q" gradientUnits="userSpaceOnUse" gradientTransform="matrix(.4166 0 0 .4166 -2.7 -1.67)" x1="21.13" y1="14.63" x2="29" y2="28"/><linearGradient xlink:href="#f" id="o" gradientUnits="userSpaceOnUse" gradientTransform="matrix(1.6453 0 0 1.6453 -3.11 -.83)" x1="3.38" y1="8.18" x2="9.44" y2="2.12"/><linearGradient xlink:href="#e" id="p" gradientUnits="userSpaceOnUse" gradientTransform="matrix(.4166 0 0 .4166 -2.7 -1.67)" x1="21.13" y1="14.63" x2="29" y2="28"/><linearGradient gradientTransform="matrix(.26576 0 0 .26453 -13.05 -.95)" gradientUnits="userSpaceOnUse" xlink:href="#d" id="v" y2="58.05" x2="105.32" y1="2.05" x1="58.75"/><linearGradient gradientTransform="translate(1.5 -.14) scale(.26453)" gradientUnits="userSpaceOnUse" xlink:href="#n" id="u" y2="37" x2="25" y1="9" x1="25"/><linearGradient id="n"><stop offset="0" stop-color="#8cd5ff"/><stop offset=".26" stop-color="#64baff"/><stop offset=".7" stop-color="#3689e6"/><stop offset="1" stop-color="#0d52bf"/></linearGradient></defs><path d="M7.3.56A6.91 6.91 0 0 0 .34 7.5a6.91 6.91 0 0 0 3.2 5.85 7.2 7.2 0 0 1-.28-.47 7.2 7.2 0 0 1-.31-.65 7.2 7.2 0 0 1-.25-.68 7.2 7.2 0 0 1-.17-.7 7.2 7.2 0 0 1-.1-.7 7.2 7.2 0 0 1-.04-.73 7.2 7.2 0 0 1 .02-.59 7.2 7.2 0 0 1 .1-.71 7.2 7.2 0 0 1 .15-.7 7.2 7.2 0 0 1 .23-.68 7.2 7.2 0 0 1 .3-.66 7.2 7.2 0 0 1 .36-.62 7.2 7.2 0 0 1 .43-.59 7.2 7.2 0 0 1 .47-.53 7.2 7.2 0 0 1 .53-.5 7.2 7.2 0 0 1 .58-.43 7.2 7.2 0 0 1 .62-.37 7.2 7.2 0 0 1 .65-.3 7.2 7.2 0 0 1 .67-.25 7.2 7.2 0 0 1 .7-.18 7.2 7.2 0 0 1 .71-.1 7.2 7.2 0 0 1 .72-.03 7.2 7.2 0 0 1 .58.02 7.2 7.2 0 0 1 .72.09 7.2 7.2 0 0 1 .7.16 7.2 7.2 0 0 1 .68.23 7.2 7.2 0 0 1 .01 0A6.91 6.91 0 0 0 7.3.56z" fill="url(#o)"/><path d="M2.42 10.11l-1.04.53a6.3 6.3 0 0 0 1.85 2.19 7.2 7.2 0 0 1-.28-.59 7.2 7.2 0 0 1-.25-.68 7.2 7.2 0 0 1-.17-.7 7.2 7.2 0 0 1-.1-.7 7.2 7.2 0 0 1 0-.05z" fill="url(#p)"/><path d="M9.15 1.07l-.3 1.16a7.2 7.2 0 0 1 .06-.01 7.2 7.2 0 0 1 .72-.03 7.2 7.2 0 0 1 .58.02 7.2 7.2 0 0 1 .72.09 7.2 7.2 0 0 1 .7.16 7.2 7.2 0 0 1 .21.07 6.3 6.3 0 0 0-2.7-1.46z" fill="url(#q)"/><path d="M9.63 2.48a6.91 6.91 0 0 0-6.95 6.95 6.91 6.91 0 0 0 6.95 6.94 6.91 6.91 0 0 0 6.96-6.95 6.91 6.91 0 0 0-6.96-6.94zm0 5.2a1.74 1.75 0 0 1 .2 0 1.74 1.75 0 0 1 .15.02 1.74 1.75 0 0 1 .17.05 1.74 1.75 0 0 1 .17.06 1.74 1.75 0 0 1 .15.07 1.74 1.75 0 0 1 .15.1 1.74 1.75 0 0 1 .14.1 1.74 1.75 0 0 1 .12.12 1.74 1.75 0 0 1 .13.13 1.74 1.75 0 0 1 .09.14 1.74 1.75 0 0 1 .1.15 1.74 1.75 0 0 1 .06.16 1.74 1.75 0 0 1 .06.17 1.74 1.75 0 0 1 .03.17 1.74 1.75 0 0 1 .02.18 1.74 1.75 0 0 1 0 .12 1.74 1.75 0 0 1 0 .18 1.74 1.75 0 0 1-.03.17 1.74 1.75 0 0 1-.04.17 1.74 1.75 0 0 1-.06.17 1.74 1.75 0 0 1-.07.15 1.74 1.75 0 0 1-.1.15 1.74 1.75 0 0 1-.1.14 1.74 1.75 0 0 1-.12.13 1.74 1.75 0 0 1-.13.11 1.74 1.75 0 0 1-.14.1 1.74 1.75 0 0 1-.15.1 1.74 1.75 0 0 1-.16.07 1.74 1.75 0 0 1-.17.05 1.74 1.75 0 0 1-.16.04 1.74 1.75 0 0 1-.17.02 1.74 1.75 0 0 1-.13 0 1.74 1.75 0 0 1-.17 0 1.74 1.75 0 0 1-.17-.03 1.74 1.75 0 0 1-.17-.04 1.74 1.75 0 0 1-.16-.06 1.74 1.75 0 0 1-.16-.08 1.74 1.75 0 0 1-.15-.09 1.74 1.75 0 0 1-.13-.1 1.74 1.75 0 0 1-.14-.13 1.74 1.75 0 0 1-.1-.13 1.74 1.75 0 0 1-.1-.14 1.74 1.75 0 0 1-.1-.15 1.74 1.75 0 0 1-.06-.16 1.74 1.75 0 0 1-.06-.17 1.74 1.75 0 0 1-.04-.17 1.74 1.75 0 0 1-.02-.17 1.74 1.75 0 0 1 0-.13 1.74 1.75 0 0 1 0-.18 1.74 1.75 0 0 1 .03-.16 1.74 1.75 0 0 1 .04-.17 1.74 1.75 0 0 1 .07-.17 1.74 1.75 0 0 1 .07-.15 1.74 1.75 0 0 1 .1-.15 1.74 1.75 0 0 1 .09-.14 1.74 1.75 0 0 1 .12-.14 1.74 1.75 0 0 1 .13-.1 1.74 1.75 0 0 1 .14-.1 1.74 1.75 0 0 1 .15-.1 1.74 1.75 0 0 1 .16-.07 1.74 1.75 0 0 1 .16-.06 1.74 1.75 0 0 1 .17-.04 1.74 1.75 0 0 1 .18-.01 1.74 1.75 0 0 1 .12 0z" fill="url(#r)"/><path d="M11.49 3l-1.2 4.68c.37.09.66.32.88.65L15.3 5.8A6.3 6.3 0 0 0 11.49 3z" fill="url(#s)"/><path d="M7.29 15.67l1.57-4.56a1.48 1.48 0 0 1-.82-.72l-4.32 2.17a6.3 6.3 0 0 0 3.57 3.11z" fill="url(#t)"/><path d="M9.6 6.57A2.86 2.84 0 0 0 6.74 9.4a2.86 2.84 0 0 0 2.86 2.85 2.86 2.84 0 0 0 2.85-2.85A2.86 2.84 0 0 0 9.6 6.57zm.03 1.54a1.3 1.32 0 0 1 .13 0 1.3 1.32 0 0 1 .13.03 1.3 1.32 0 0 1 .12.02 1.3 1.32 0 0 1 .12.05 1.3 1.32 0 0 1 .12.06 1.3 1.32 0 0 1 .12.06 1.3 1.32 0 0 1 .1.09 1.3 1.32 0 0 1 .09.1 1.3 1.32 0 0 1 .09.09 1.3 1.32 0 0 1 .07.1 1.3 1.32 0 0 1 .07.11 1.3 1.32 0 0 1 .06.12 1.3 1.32 0 0 1 .03.13 1.3 1.32 0 0 1 .03.13 1.3 1.32 0 0 1 .02.13 1.3 1.32 0 0 1 0 .1 1.3 1.32 0 0 1 0 .12 1.3 1.32 0 0 1-.03.13 1.3 1.32 0 0 1-.03.13 1.3 1.32 0 0 1-.04.12 1.3 1.32 0 0 1-.06.12 1.3 1.32 0 0 1-.06.1 1.3 1.32 0 0 1-.09.12 1.3 1.32 0 0 1-.08.1 1.3 1.32 0 0 1-.1.08 1.3 1.32 0 0 1-.11.07 1.3 1.32 0 0 1-.11.07 1.3 1.32 0 0 1-.12.05 1.3 1.32 0 0 1-.12.04 1.3 1.32 0 0 1-.13.03 1.3 1.32 0 0 1-.13.02 1.3 1.32 0 0 1-.1 0 1.3 1.32 0 0 1-.12 0 1.3 1.32 0 0 1-.13-.03 1.3 1.32 0 0 1-.12-.03 1.3 1.32 0 0 1-.12-.04 1.3 1.32 0 0 1-.12-.06 1.3 1.32 0 0 1-.12-.07 1.3 1.32 0 0 1-.1-.08 1.3 1.32 0 0 1-.09-.1 1.3 1.32 0 0 1-.09-.09 1.3 1.32 0 0 1-.07-.1 1.3 1.32 0 0 1-.07-.12 1.3 1.32 0 0 1-.05-.12 1.3 1.32 0 0 1-.04-.12 1.3 1.32 0 0 1-.03-.13 1.3 1.32 0 0 1-.02-.13 1.3 1.32 0 0 1 0-.1 1.3 1.32 0 0 1 0-.12 1.3 1.32 0 0 1 .03-.13 1.3 1.32 0 0 1 .03-.13 1.3 1.32 0 0 1 .04-.12 1.3 1.32 0 0 1 .06-.12 1.3 1.32 0 0 1 .06-.1 1.3 1.32 0 0 1 .09-.11 1.3 1.32 0 0 1 .1-.1 1.3 1.32 0 0 1 .09-.09 1.3 1.32 0 0 1 .1-.08 1.3 1.32 0 0 1 .11-.06 1.3 1.32 0 0 1 .12-.06 1.3 1.32 0 0 1 .13-.04 1.3 1.32 0 0 1 .12-.02 1.3 1.32 0 0 1 .13-.02 1.3 1.32 0 0 1 .1 0z" fill="#1a1a1a" stroke="#000" stroke-width=".23" stroke-opacity=".01"/><path d="M12.75 6.61l-3.19 3.7L6.4 6.6H8c.55-1.45-.56-2.37-1.85-2.37-.92 0-2.16.5-2.58 1.75-.22.65-.6.37-.59-.2a3.95 3.95 0 0 1 4.1-3.93c2.42 0 4.21 1.88 4.08 4.75z" style="marker:none" color="#000" overflow="visible" fill="url(#u)"/><path d="M12.19 6.87L9.56 9.93l-2.6-3.06H8.2c.66-1.46-.3-2.88-1.93-2.9-1.03-.02-1.58.32-2.3.91-.39.33-.59.97-.68 1.2-.13 0-.05-.71.07-1.16A3.76 3.76 0 0 1 7.1 2.1c1.94 0 4.05 1.33 3.78 4.77z" style="marker:none" color="#000" overflow="visible" opacity=".35" fill="none" stroke="url(#v)" stroke-width=".26"/></svg>