<svg xmlns="http://www.w3.org/2000/svg" xmlns:xlink="http://www.w3.org/1999/xlink" width="64" height="64" version="1"><defs><linearGradient id="c" gradientUnits="userSpaceOnUse" x1="60" y1="12.85" x2="60" y2="120.21" gradientTransform="translate(145.71 -238.21)"><stop offset="0" stop-color="#fff"/><stop offset="1" stop-color="#fff" stop-opacity="0"/></linearGradient><linearGradient id="a"><stop offset="0"/><stop offset="1" stop-color="#4d4d4d"/></linearGradient><linearGradient id="b"><stop offset="0"/><stop offset="1" stop-color="#fff" stop-opacity="0"/></linearGradient><linearGradient id="d"><stop offset="0" stop-color="#333"/><stop offset="1"/></linearGradient><linearGradient gradientTransform="rotate(9.99 -565.96 -203.8) scale(.41526)" xlink:href="#a" id="p" x1="128.39" y1="-164.85" x2="128.38" y2="-128.13" gradientUnits="userSpaceOnUse"/><linearGradient gradientTransform="rotate(9.99 -565.96 -203.8) scale(.41526)" xlink:href="#b" id="o" x1="100.03" y1="-164.84" x2="100.03" y2="-128.13" gradientUnits="userSpaceOnUse"/><linearGradient xlink:href="#c" id="n" gradientUnits="userSpaceOnUse" gradientTransform="scale(.2007) rotate(9.99 -830.8 174.94)" x1="60.45" y1="-10.7" x2="60.91" y2="56.84"/><linearGradient xlink:href="#d" id="m" x1="165.36" y1="-175.11" x2="165.44" y2="-117.39" gradientUnits="userSpaceOnUse" gradientTransform="rotate(9.99 -549.34 -393.87) scale(.41526)"/><linearGradient gradientTransform="scale(.51522) rotate(9.99 -970 -488.83)" xlink:href="#a" id="l" x1="128.39" y1="-164.85" x2="128.38" y2="-128.13" gradientUnits="userSpaceOnUse"/><linearGradient gradientTransform="scale(.51522) rotate(9.99 -970 -488.83)" xlink:href="#b" id="k" x1="100.03" y1="-164.84" x2="100.03" y2="-128.13" gradientUnits="userSpaceOnUse"/><linearGradient xlink:href="#c" id="j" gradientUnits="userSpaceOnUse" gradientTransform="rotate(9.99 -4.44 44.54) scale(.24902)" x1="60.45" y1="-10.7" x2="60.91" y2="56.84"/><linearGradient xlink:href="#d" id="i" x1="165.36" y1="-175.11" x2="165.44" y2="-117.39" gradientUnits="userSpaceOnUse" gradientTransform="scale(.51522) rotate(9.99 -930 -946.54)"/><linearGradient gradientTransform="translate(-30.83 136.9) scale(.65262)" xlink:href="#a" id="h" x1="128.39" y1="-164.85" x2="128.38" y2="-128.13" gradientUnits="userSpaceOnUse"/><linearGradient gradientTransform="translate(-30.83 136.9) scale(.65262)" xlink:href="#b" id="g" x1="100.03" y1="-164.84" x2="100.03" y2="-128.13" gradientUnits="userSpaceOnUse"/><linearGradient xlink:href="#c" id="f" gradientUnits="userSpaceOnUse" gradientTransform="matrix(.31543 0 0 .31543 24.77 22.38)" x1="60.45" y1="-10.7" x2="60.91" y2="56.84"/><linearGradient xlink:href="#d" id="e" x1="165.36" y1="-175.11" x2="165.44" y2="-117.39" gradientUnits="userSpaceOnUse" gradientTransform="translate(-83.04 136.9) scale(.65262)"/></defs><path d="M62.64 43.2V39.4l-3.92-.13c-.18-1.3-.53-2.55-1-3.72l3.32-2.08-1.89-3.28-3.45 1.85a15.2 15.2 0 0 0-2.74-2.73l1.86-3.46-3.3-1.89-2.06 3.33a15.04 15.04 0 0 0-3.73-1l-.13-3.92h-3.77l-.13 3.91c-1.3.19-2.56.52-3.73 1l-2.07-3.33-3.29 1.9 1.87 3.45a15.23 15.23 0 0 0-2.73 2.74l-3.47-1.86-1.9 3.29 3.33 2.07a15.01 15.01 0 0 0-1 3.72l-3.92.14v3.78l3.93.13c.17 1.3.5 2.54 1 3.73l-3.33 2.06 1.89 3.28 3.45-1.85a15.22 15.22 0 0 0 2.74 2.73l-1.86 3.47 3.3 1.89 2.05-3.33c1.18.49 2.42.82 3.73.99l.13 3.93h3.78l.13-3.93c1.3-.17 2.56-.5 3.73-.99l2.07 3.33 3.29-1.9-1.86-3.45a15.23 15.23 0 0 0 2.73-2.74l3.46 1.86 1.9-3.29-3.33-2.06c.48-1.18.82-2.43 1-3.73zM43.7 50.76a9.47 9.47 0 1 1 .01-18.93 9.47 9.47 0 0 1 0 18.93z" fill="url(#e)"/><path d="M42.12 22.69L42 26.3a.32.32 0 0 1-.28.3c-1.26.18-2.48.5-3.66.98a.32.32 0 0 1-.38-.13l-1.91-3.08-2.75 1.6 1.7 3.2c.03.04.04.1.04.14 0 .1-.04.19-.12.25a14.93 14.93 0 0 0-2.67 2.68.32.32 0 0 1-.4.07l-3.2-1.7-1.58 2.75 3.07 1.9a.32.32 0 0 1 .12.4 14.72 14.72 0 0 0-.98 3.65.32.32 0 0 1-.3.28l-3.6.11v1a86.8 86.8 0 0 0 8.86 1.3l-.03-.7a9.78 9.78 0 0 1 9.77-9.79 9.78 9.78 0 0 1 9.79 9.78l-.05.71a87.5 87.5 0 0 0 8.87-1.28V39.7l-3.62-.12a.32.32 0 0 1-.3-.27 14.75 14.75 0 0 0-.97-3.65.32.32 0 0 1 .13-.4l3.06-1.9-1.59-2.75-3.2 1.7a.32.32 0 0 1-.39-.08 14.91 14.91 0 0 0-2.67-2.67.32.32 0 0 1-.09-.39l1.7-3.2-2.74-1.59-1.92 3.07a.32.32 0 0 1-.38.13 14.74 14.74 0 0 0-3.65-.98.32.32 0 0 1-.27-.3l-.12-3.62z" fill="url(#f)"/><path d="M43.71 30.58a10.73 10.73 0 1 0 0 21.44 10.73 10.73 0 0 0 0-21.44zm0 18.6a7.9 7.9 0 0 1-7.88-7.88 7.9 7.9 0 0 1 7.88-7.89 7.9 7.9 0 0 1 7.88 7.9 7.9 7.9 0 0 1-7.88 7.88z" fill="url(#g)"/><path d="M43.71 31.2a10.1 10.1 0 0 0-10.1 10.1 10.1 10.1 0 0 0 10.1 10.1 10.1 10.1 0 0 0 0-20.2zm0 17.99a7.9 7.9 0 0 1-7.88-7.89 7.9 7.9 0 0 1 7.88-7.89 7.9 7.9 0 0 1 7.88 7.9 7.9 7.9 0 0 1-7.88 7.88z" fill="url(#h)"/><path d="M34.24 22.82l.52-2.95-3.03-.63c.04-1.05-.06-2.05-.26-3.04l2.87-1.16-1.03-2.81-2.93.97a12.01 12.01 0 0 0-1.77-2.5l1.92-2.43-2.29-1.92-2.07 2.3a11.87 11.87 0 0 0-2.76-1.28l.44-3.08-2.94-.51-.64 3.03c-1.04-.04-2.06.05-3.04.26L16.08 4.2l-2.81 1.02.97 2.95a12.02 12.02 0 0 0-2.51 1.75L9.3 8l-1.93 2.3 2.3 2.06a11.85 11.85 0 0 0-1.28 2.77l-3.07-.44-.53 2.94 3.04.64c-.04 1.04.05 2.05.26 3.03l-2.87 1.16 1.03 2.8 2.94-.96a12.02 12.02 0 0 0 1.75 2.5l-1.92 2.44 2.29 1.92 2.07-2.3c.84.54 1.77.96 2.76 1.27l-.44 3.08 2.94.52.65-3.04c1.03.05 2.05-.05 3.03-.26l1.15 2.87 2.81-1.03-.96-2.93a12.02 12.02 0 0 0 2.5-1.75l2.43 1.9 1.93-2.28-2.3-2.07c.53-.84.97-1.77 1.28-2.76zM18.5 26.1a7.48 7.48 0 1 1 2.6-14.73 7.48 7.48 0 0 1-2.6 14.73z" fill="url(#i)"/><path d="M21.1 4.07l-.58 2.8a.25.25 0 0 1-.26.19c-1-.04-2 .04-2.98.26a.25.25 0 0 1-.28-.16l-1.08-2.65-2.35.87.89 2.71c0 .04.02.09 0 .12a.25.25 0 0 1-.12.18 11.78 11.78 0 0 0-2.43 1.72.25.25 0 0 1-.32 0L9.33 8.36l-1.6 1.9 2.12 1.91a.25.25 0 0 1 .04.33 11.62 11.62 0 0 0-1.26 2.7.25.25 0 0 1-.28.17l-2.82-.4-.13.78a68.52 68.52 0 0 0 6.72 2.22l.07-.56a7.73 7.73 0 0 1 8.94-6.26 7.73 7.73 0 0 1 6.26 8.95l-.14.54c2.45.2 4.82.28 7.09.21l.14-.78-2.8-.59a.25.25 0 0 1-.2-.26 11.65 11.65 0 0 0-.26-2.97.25.25 0 0 1 .15-.28l2.65-1.07-.86-2.35-2.72.88a.25.25 0 0 1-.29-.12 11.77 11.77 0 0 0-1.72-2.44.25.25 0 0 1 0-.32l1.75-2.25-1.91-1.61-1.91 2.12a.25.25 0 0 1-.32.05 11.64 11.64 0 0 0-2.7-1.26.25.25 0 0 1-.18-.28l.41-2.82z" fill="url(#j)"/><path d="M21.25 10.41a8.47 8.47 0 1 0-2.93 16.68 8.47 8.47 0 0 0 2.93-16.68zM18.7 24.9a6.23 6.23 0 0 1-5.04-7.22 6.23 6.23 0 0 1 7.2-5.05 6.23 6.23 0 0 1 5.06 7.21 6.23 6.23 0 0 1-7.22 5.06z" fill="url(#k)"/><path d="M21.17 10.9a7.98 7.98 0 0 0-9.23 6.47 7.98 7.98 0 0 0 15.7 2.76 7.98 7.98 0 0 0-6.47-9.22zM18.7 24.9a6.23 6.23 0 0 1-5.04-7.22 6.23 6.23 0 0 1 7.2-5.05 6.23 6.23 0 0 1 5.06 7.21 6.23 6.23 0 0 1-7.22 5.06z" fill="url(#l)"/><path d="M24.99 46.68l.41-2.37-2.44-.51a9.82 9.82 0 0 0-.21-2.45l2.31-.93-.82-2.27-2.37.78a9.68 9.68 0 0 0-1.42-2.01L22 34.96l-1.85-1.55-1.67 1.86a9.57 9.57 0 0 0-2.22-1.04l.35-2.48-2.37-.41-.51 2.44c-.84-.03-1.66.04-2.46.2l-.92-2.3-2.27.82.78 2.38a9.69 9.69 0 0 0-2.02 1.4L4.9 34.75l-1.56 1.85 1.86 1.67a9.55 9.55 0 0 0-1.03 2.23l-2.48-.36-.42 2.38 2.45.5c-.04.85.04 1.66.21 2.45l-2.31.94.82 2.26 2.38-.78a9.69 9.69 0 0 0 1.4 2.01l-1.55 1.97 1.85 1.54 1.67-1.85a9.1 9.1 0 0 0 2.22 1.03l-.35 2.48 2.37.42.52-2.45a9.5 9.5 0 0 0 2.45-.21l.92 2.31 2.27-.82-.77-2.37a9.69 9.69 0 0 0 2.01-1.41l1.96 1.54 1.56-1.85-1.87-1.67c.44-.67.8-1.42 1.04-2.22zm-12.7 2.65a6.03 6.03 0 1 1 2.1-11.86 6.03 6.03 0 0 1-2.1 11.86z" fill="url(#m)" transform="rotate(-2.41 108.24 29.49) scale(.93189)"/><path d="M14.39 31.57l-.47 2.25a.2.2 0 0 1-.2.16 9.5 9.5 0 0 0-2.4.21.2.2 0 0 1-.23-.13l-.87-2.13-1.9.7.72 2.19c.01.03.02.06 0 .1a.2.2 0 0 1-.1.14 9.5 9.5 0 0 0-1.96 1.38.2.2 0 0 1-.25 0l-1.82-1.4-1.3 1.53 1.71 1.54a.2.2 0 0 1 .04.26 9.37 9.37 0 0 0-1.01 2.18.2.2 0 0 1-.23.13l-2.27-.32-.1.63a55.23 55.23 0 0 0 5.4 1.79l.06-.45a6.23 6.23 0 0 1 7.21-5.05 6.23 6.23 0 0 1 5.05 7.21l-.11.44c1.97.15 3.88.22 5.7.17l.12-.63-2.26-.48a.2.2 0 0 1-.16-.2 9.39 9.39 0 0 0-.2-2.4.2.2 0 0 1 .11-.23l2.14-.85-.7-1.9-2.19.7a.2.2 0 0 1-.23-.09 9.49 9.49 0 0 0-1.39-1.97.2.2 0 0 1 0-.25l1.41-1.82-1.54-1.3-1.54 1.71a.2.2 0 0 1-.25.04 9.38 9.38 0 0 0-2.18-1.01.2.2 0 0 1-.14-.23l.33-2.27z" fill="url(#n)" transform="rotate(-2.41 108.24 29.49) scale(.93189)"/><path d="M14.52 36.69a6.83 6.83 0 1 0-2.37 13.44 6.83 6.83 0 0 0 2.37-13.44zm-2.06 11.66a5.02 5.02 0 0 1-4.06-5.81 5.02 5.02 0 0 1 5.8-4.07 5.02 5.02 0 0 1 4.08 5.8 5.02 5.02 0 0 1-5.82 4.08z" fill="url(#o)" transform="rotate(-2.41 108.24 29.49) scale(.93189)"/><path d="M14.45 37.08a6.43 6.43 0 0 0-7.44 5.22 6.43 6.43 0 0 0 12.65 2.22 6.43 6.43 0 0 0-5.21-7.44zm-1.99 11.27a5.02 5.02 0 0 1-4.06-5.81 5.02 5.02 0 0 1 5.8-4.07 5.02 5.02 0 0 1 4.08 5.8 5.02 5.02 0 0 1-5.82 4.08z" fill="url(#p)" transform="rotate(-2.41 108.24 29.49) scale(.93189)"/></svg>