<svg xmlns="http://www.w3.org/2000/svg" xmlns:xlink="http://www.w3.org/1999/xlink" height="64" width="64"><defs><linearGradient id="c"><stop offset="0" stop-color="#5fbcd3"/><stop offset="1" stop-color="#d7eef4" stop-opacity=".02"/></linearGradient><linearGradient id="d"><stop offset="0" stop-color="#d7eef4"/><stop offset="1" stop-color="#afdde9"/></linearGradient><linearGradient id="f"><stop offset="0" stop-color="#333"/><stop offset="1"/></linearGradient><linearGradient id="b"><stop offset="0"/><stop offset="1" stop-color="#333"/></linearGradient><linearGradient id="e"><stop offset="0" stop-color="#fff"/><stop offset="1" stop-color="#fff" stop-opacity="0"/></linearGradient><linearGradient id="a"><stop offset="0" stop-color="#1a1a1a"/><stop offset="1" stop-color="#333"/></linearGradient><linearGradient gradientTransform="matrix(.52978 0 0 .52453 -70.26 -1.83)" gradientUnits="userSpaceOnUse" xlink:href="#a" id="m" y2="11.95" x2="173.1" y1="75.32" x1="173.1"/><linearGradient gradientTransform="matrix(.55628 0 0 .55078 -75 -2.64)" gradientUnits="userSpaceOnUse" xlink:href="#b" id="l" y2="11.95" x2="173.1" y1="75.32" x1="173.1"/><radialGradient gradientTransform="matrix(4.231 0 0 3.25537 -48.5 -32.72)" gradientUnits="userSpaceOnUse" xlink:href="#c" id="k" fy="13.08" fx="15.41" r="6.66" cy="13.08" cx="15.41"/><linearGradient xlink:href="#d" id="j" x1="6.31" y1="16.58" x2="31.05" y2="16.58" gradientUnits="userSpaceOnUse" gradientTransform="translate(-3.58 -2.18) scale(1.37772)"/><linearGradient gradientTransform="matrix(.54235 0 0 .53698 -72.75 -2.83)" gradientUnits="userSpaceOnUse" xlink:href="#e" id="i" y2="67.35" x2="201.87" y1="146.15" x1="277.57"/><linearGradient gradientTransform="matrix(.54235 0 0 .53698 136.1 -8.02)" gradientUnits="userSpaceOnUse" xlink:href="#b" id="g" y2="91.97" x2="-164.72" y1="99.67" x1="-172.65"/><linearGradient gradientTransform="matrix(1.39335 0 0 1.37956 -3.78 .32)" gradientUnits="userSpaceOnUse" xlink:href="#f" id="h" y2="29.48" x2="31.36" y1="27.99" x1="32.89"/></defs><path d="M35.25 31.95L59.5 54.29l-3.36 4.52-24.16-24.17z" fill="url(#g)" fill-rule="evenodd" stroke="url(#h)" stroke-width="1.26" stroke-linecap="round" stroke-linejoin="round"/><path d="M56.18 57.34l-19.45-24 23.53 20.44z" opacity=".57" fill="url(#i)" fill-rule="evenodd"/><path d="M60.4 54.2a1.88 3.45 45.44 1 1-4.58 5.13 1.88 3.45 45.44 1 1 4.57-5.13z"/><path d="M39.2 20.65a17.04 16.46 0 1 1-34.08 0 17.04 16.46 0 1 1 34.08 0z" style="marker:none" fill="url(#j)" fill-rule="evenodd"/><path d="M22.01 5.35c-8.5 0-16.17 6.1-16.17 13.62 0 2.18-.6 4.18.42 6 2.05.67 6.3 1.12 8.6 1.12 10.07 0 18.73-7.4 19.35-16.18-2.82-2.95-7.49-4.56-12.2-4.56z" style="marker:none" overflow="visible" opacity=".83" fill="url(#k)" fill-rule="evenodd"/><path d="M21.79 4.21c-10.47 0-18.97 7.76-18.97 17.32 0 9.55 8.5 17.31 18.97 17.31 10.46 0 18.96-7.76 18.96-17.31 0-9.56-8.5-17.32-18.96-17.32zM22 5.35c9.38 0 17 6.94 17 15.49s-7.62 15.49-17 15.49c-9.37 0-16.96-6.94-16.96-15.5 0-8.54 7.6-15.48 16.96-15.48z" fill="url(#l)"/><path d="M21.9 4.71c-9.96 0-18.04 7.39-18.04 16.5 0 9.1 8.08 16.48 18.05 16.48S39.97 30.3 39.97 21.2c0-9.1-8.1-16.49-18.06-16.49zm.11.64c9.37 0 16.24 6.94 16.24 15.49s-6.87 14.75-16.24 14.75c-9.37 0-16.35-6.2-16.35-14.75s6.98-15.5 16.35-15.5z" fill="url(#m)"/></svg>