<svg xmlns="http://www.w3.org/2000/svg" xmlns:xlink="http://www.w3.org/1999/xlink" width="64" height="64" version="1"><defs><linearGradient id="a"><stop offset="0" stop-color="#4d4d4d"/><stop offset="1"/></linearGradient><linearGradient id="b"><stop offset="0" stop-color="#fea"/><stop offset="1" stop-color="#fc0"/></linearGradient><linearGradient id="e" gradientUnits="userSpaceOnUse" x1="73.34" y1="101.83" x2="125.6" y2="101.83"><stop offset=".02" stop-color="#b3925d"/><stop offset=".03" stop-color="#b7975d"/><stop offset=".03" stop-color="#d1b55a"/><stop offset=".05" stop-color="#e5cd58"/><stop offset=".06" stop-color="#f4de56"/><stop offset=".07" stop-color="#fce855"/><stop offset=".08" stop-color="#ffeb55"/><stop offset=".1" stop-color="#fce242"/><stop offset=".13" stop-color="#f8d525"/><stop offset=".16" stop-color="#f5cb11"/><stop offset=".19" stop-color="#f4c504"/><stop offset=".21" stop-color="#f3c300"/><stop offset=".29" stop-color="#dfae00"/><stop offset=".38" stop-color="#d19e00"/><stop offset=".44" stop-color="#c90"/><stop offset=".7" stop-color="#e3ad00"/><stop offset=".84" stop-color="#fd0"/><stop offset=".86" stop-color="#ffe72f"/><stop offset=".89" stop-color="#fff468"/><stop offset=".91" stop-color="#fffc8c"/><stop offset=".92" stop-color="#ff9"/><stop offset=".93" stop-color="#fcfb96"/><stop offset=".94" stop-color="#f2ee8d"/><stop offset=".96" stop-color="#e3da7f"/><stop offset=".97" stop-color="#cdbd6b"/><stop offset=".99" stop-color="#b19851"/><stop offset="1" stop-color="#8f6b32"/></linearGradient><linearGradient id="c" gradientUnits="userSpaceOnUse" x1="74.43" y1="81.95" x2="124.51" y2="81.95"><stop offset="0" stop-color="#666"/><stop offset=".18" stop-color="#4d4d4d"/><stop offset=".39" stop-color="#333"/><stop offset=".5"/><stop offset="1" stop-color="#666"/></linearGradient><linearGradient id="k" gradientUnits="userSpaceOnUse" x1="78.54" y1="62.58" x2="120.4" y2="62.58"><stop offset=".01" stop-color="#ddd"/><stop offset=".11" stop-color="#bbb"/><stop offset=".28" stop-color="#b2b2b2"/><stop offset=".56" stop-color="#9b9b9b"/><stop offset=".74" stop-color="#888"/><stop offset="1" stop-color="#bbb"/></linearGradient><linearGradient id="i" gradientUnits="userSpaceOnUse" x1="78.54" y1="62.58" x2="99.47" y2="62.58"><stop offset=".01" stop-color="#888"/><stop offset=".18" stop-color="#bbb"/><stop offset=".44" stop-color="#c4c4c4"/><stop offset=".86" stop-color="#dbdbdb"/><stop offset=".89" stop-color="#ddd"/><stop offset="1" stop-color="#bbb"/></linearGradient><linearGradient id="j" gradientUnits="userSpaceOnUse" x1="99.47" y1="62.58" x2="120.4" y2="62.58"><stop offset=".01" stop-color="#888"/><stop offset=".18" stop-color="#bbb"/><stop offset=".44" stop-color="#c4c4c4"/><stop offset=".86" stop-color="#dbdbdb"/><stop offset=".89" stop-color="#ddd"/><stop offset="1" stop-color="#bbb"/></linearGradient><linearGradient id="h" gradientUnits="userSpaceOnUse" x1="117.23" y1="64.21" x2="83.03" y2="64.21" gradientTransform="matrix(1 0 0 .9812 0 1.25)"><stop offset="0" stop-color="#888"/><stop offset=".01" stop-color="#868686"/><stop offset=".15" stop-color="#626262"/><stop offset=".22" stop-color="#555"/><stop offset=".25" stop-color="#575757"/><stop offset=".74" stop-color="#7b7b7b"/><stop offset="1" stop-color="#888"/></linearGradient><linearGradient id="f" gradientUnits="userSpaceOnUse" x1="118.4" y1="63.51" x2="80.39" y2="63.51"><stop offset=".29" stop-color="#fff"/><stop offset=".46" stop-color="#ececec"/><stop offset=".81" stop-color="#c8c8c8"/><stop offset="1" stop-color="#bbb"/></linearGradient><linearGradient xlink:href="#c" id="u" gradientUnits="userSpaceOnUse" gradientTransform="matrix(-.82113 0 0 -.8366 113.74 129.07)" x1="74.43" y1="81.95" x2="124.51" y2="81.95"/><linearGradient xlink:href="#c" id="t" gradientUnits="userSpaceOnUse" gradientTransform="matrix(-.82113 0 0 1.69345 113.68 -107.18)" x1="74.43" y1="81.95" x2="124.51" y2="81.95"/><linearGradient gradientTransform="translate(-4.34 -1.01)" xlink:href="#d" id="s" x1="-48.29" y1="46.42" x2="-7.04" y2="46.42" gradientUnits="userSpaceOnUse"/><linearGradient id="d"><stop offset="0"/><stop offset=".16" stop-color="#333"/><stop offset=".5"/><stop offset=".7" stop-color="#1c1c1c"/><stop offset=".86" stop-color="#333"/><stop offset="1"/></linearGradient><linearGradient xlink:href="#e" id="r" gradientUnits="userSpaceOnUse" gradientTransform="matrix(.78927 0 0 .76564 -110.5 -32.56)" x1="126.43" y1="101.83" x2="73.34" y2="101.83"/><linearGradient xlink:href="#f" id="q" gradientUnits="userSpaceOnUse" gradientTransform="matrix(.78841 0 0 .81542 -46.42 -34.5)" x1="118.4" y1="63.51" x2="80.39" y2="63.51"/><radialGradient xlink:href="#g" id="p" gradientUnits="userSpaceOnUse" gradientTransform="matrix(.78841 0 0 .8001 -46.42 -33.47)" cx="98.67" cy="83.24" r="36.66"/><radialGradient id="g" cx="98.67" cy="83.24" r="36.66" gradientTransform="matrix(1 0 0 .9812 0 1.25)" gradientUnits="userSpaceOnUse"><stop offset=".25" stop-color="#fff"/><stop offset=".29" stop-color="#f2f2f2"/><stop offset=".46" stop-color="#b9b9b9"/><stop offset=".58" stop-color="#959595"/><stop offset=".65" stop-color="#888"/><stop offset=".85" stop-color="#a9a9a9"/><stop offset="1" stop-color="#bbb"/></radialGradient><linearGradient xlink:href="#h" id="o" gradientUnits="userSpaceOnUse" gradientTransform="matrix(.78841 0 0 .8001 -46.42 -33.47)" x1="117.23" y1="64.21" x2="83.03" y2="64.21"/><linearGradient xlink:href="#i" id="m" gradientUnits="userSpaceOnUse" x1="78.54" y1="62.58" x2="99.47" y2="62.58"/><linearGradient xlink:href="#j" id="n" gradientUnits="userSpaceOnUse" x1="99.47" y1="62.58" x2="120.4" y2="62.58"/><linearGradient xlink:href="#k" id="l" gradientUnits="userSpaceOnUse" gradientTransform="matrix(.78841 0 0 .81542 -46.42 -34.5)" x1="78.54" y1="62.58" x2="120.4" y2="62.58"/></defs><path d="M32 2.1a16.6 16.6 0 0 0-16.5 16.68v12.19h6.06V18.68C21.56 12.95 26.25 8.3 32 8.3c5.75 0 10.44 4.66 10.44 10.4v12.28h6.06v-12.2C48.5 9.58 41.1 2.1 32 2.1z" fill="url(#l)"/><path d="M78.54 65.33v14.95h1.2V65.33c0-11.3 8.83-20.46 19.73-20.46-11.56 0-20.93 9.16-20.93 20.46z" fill="url(#m)" transform="matrix(.78841 0 0 .81542 -46.42 -34.5)"/><path d="M99.47 44.87c10.9 0 19.73 9.16 19.73 20.46v14.95h1.2V65.33c0-11.3-9.37-20.46-20.93-20.46z" fill="url(#n)" transform="matrix(.78841 0 0 .81542 -46.42 -34.5)"/><path d="M32.85 4.84c-8.34 0-13.81 4.96-13.81 13.62v12.5h2.11v-12.6c0-6.64 5.25-12.04 11.7-12.04 6.45 0 11.7 5.4 11.7 12.05v12.6H46v-12.5C46 9.8 41.19 4.83 32.85 4.83z" fill="url(#o)"/><path d="M31.98 5.97c-7.81 0-12.94 4.75-12.94 13.04v11.96h1.98V18.92c0-6.36 4.92-11.53 10.96-11.53 6.04 0 10.95 5.17 10.95 11.53v12.05h1.37V19c0-8.3-4.51-13.04-12.32-13.04z" fill="url(#p)"/><path d="M32 3.12c-8.15 0-14.76 7.18-14.76 15.42v12.43h.65V19.9c0-8.24 5.96-14.93 14.11-14.93 8.84 0 14.1 5.8 14.1 14.93v11.07h.66V18.09c0-8.6-6.35-14.97-14.76-14.97z" fill="url(#q)"/><path transform="scale(-1 1)" fill="url(#r)" d="M-52.62 28.91h41.25v33h-41.25z"/><path transform="scale(-1 1)" fill="url(#s)" d="M-52.62 28.91h41.25v33h-41.25z"/><path d="M52.56 28.77c-.32 3.92-9.4 5.64-20.56 5.64-11.16 0-20.24-1.73-20.56-5.64z" fill="url(#t)"/><path d="M52.62 61.9c-.32-1.93-9.4-2.78-20.56-2.78-11.16 0-20.23.85-20.56 2.79z" fill="url(#u)"/></svg>