<svg xmlns="http://www.w3.org/2000/svg" xmlns:xlink="http://www.w3.org/1999/xlink" width="64" height="64" version="1"><defs><linearGradient xlink:href="#a" id="g" x1="22.47" y1="7.74" x2="25.53" y2="7.74" gradientUnits="userSpaceOnUse" gradientTransform="translate(-.4 -.9) scale(1.35525)"/><linearGradient id="a"><stop offset="0"/><stop offset="1" stop-color="#4d4d4d"/></linearGradient><radialGradient xlink:href="#b" id="f" cx="17.95" cy="19.97" fx="17.95" fy="19.97" r="13.89" gradientTransform="matrix(1.84838 1.26999 -1.11952 1.62938 9.88 -34.03)" gradientUnits="userSpaceOnUse"/><linearGradient id="b"><stop offset="0" stop-color="#333"/><stop offset="1"/></linearGradient><linearGradient id="c"><stop offset="0" stop-color="#fff"/><stop offset="0" stop-color="#fff" stop-opacity=".24"/><stop offset="1" stop-color="#fff" stop-opacity=".16"/><stop offset="1" stop-color="#fff" stop-opacity=".39"/></linearGradient><linearGradient id="d"><stop offset="0" stop-color="#0f0"/><stop offset=".26" stop-color="green"/><stop offset=".66" stop-color="#68b723"/><stop offset="1" stop-color="#1d7e0d"/></linearGradient><linearGradient id="e"><stop offset="0"/><stop offset=".5" stop-color="#1a1a1a"/><stop offset="1" stop-color="#1a1a1a" stop-opacity="0"/></linearGradient><radialGradient id="h" cx="24.01" cy="24" r="21" gradientTransform="matrix(.6631 0 0 .6631 27.962 33.156)" gradientUnits="userSpaceOnUse"><stop offset="0" stop-color="gray"/><stop offset=".87" stop-color="#ccc"/><stop offset="1" stop-color="#1a1a1a"/></radialGradient><linearGradient id="i" x1="7.55" x2="7.55" y1="3" y2="45.18" gradientUnits="userSpaceOnUse" gradientTransform="matrix(.69565 0 0 .69565 27.183 32.376)"><stop offset="0" stop-color="#4d4d4d"/><stop offset="1" stop-color="#333"/></linearGradient><linearGradient xlink:href="#e" id="j" x1="23.59" y1="41.59" x2="24.97" y2="6.22" gradientUnits="userSpaceOnUse" gradientTransform="matrix(.69565 0 0 .69565 27.183 32.376)"/><linearGradient id="k" x1="24.4" x2="24.4" y1="3.6" y2="26.09" gradientTransform="translate(-.4 16.4)" gradientUnits="userSpaceOnUse"><stop offset="0" stop-color="#fff"/><stop offset="1" stop-color="#fff" stop-opacity="0"/></linearGradient><filter id="l" x="-.04" width="1.07" y="-.04" height="1.07" color-interpolation-filters="sRGB"><feGaussianBlur stdDeviation=".58"/></filter></defs><path d="M12.86 59.67L12.55 24c0-.24.05-.47.16-.68L19.97 9.3a2.88 2.88 0 0 1 2.53-1.56l18.86-.16a2.88 2.88 0 0 1 2.61 1.62L51 23.68c.09.2.14.4.14.62l.31 35.02a2.88 2.88 0 0 1-2.85 2.9l-32.83.3a2.88 2.88 0 0 1-2.9-2.85zm22.38-38.42a4.32 4.32 0 1 0-6.15-6.05 4.32 4.32 0 0 0 6.15 6.05z" fill="url(#f)"/><path d="M28.14 14.27a5.64 5.64 0 1 1 8.05 7.9 5.64 5.64 0 0 1-8.05-7.9zm6.44 6.32a3.39 3.39 0 1 0-4.83-4.74 3.39 3.39 0 0 0 4.83 4.74z" opacity=".32" fill="#b5b5b6"/><path d="M29 15.11a4.44 4.44 0 1 1 6.33 6.22A4.44 4.44 0 0 1 29 15.11zm5.52 5.43a3.3 3.3 0 1 0-4.71-4.63 3.3 3.3 0 0 0 4.71 4.63z" fill="#1a1a1a"/><rect width="4.15" height="16.22" x="30.05" y="1.48" ry="1.75" fill="url(#g)" fill-rule="evenodd"/><path d="M58.14 49.072a14.26 14.26 0 1 1-28.522 0 14.26 14.26 0 0 1 28.522 0z" fill="url(#h)" stroke="url(#i)" stroke-width=".278"/><path d="M56.053 49.072a12.174 12.174 0 1 1-24.348 0 12.174 12.174 0 0 1 24.348 0z" fill="url(#j)"/><path transform="matrix(.69565 0 0 .69565 27.183 21.246)" d="M43.5 40a19.5 19.5 0 1 1-39 0 19.5 19.5 0 0 1 39 0z" opacity=".4" fill="none" stroke="url(#k)" stroke-width=".79" filter="url(#l)"/><path d="M34.041 49.45c1.931 0 2.169-.055 2.169-.055m15.337.055c1.926 0 2.169-.055 2.169-.055m-10.157 9.44c0-1.926-.056-2.168-.056-2.168" fill="none" stroke="#fff" stroke-width=".552" stroke-linecap="round"/><path d="M43.559 41.478c0-1.92-.056-2.169-.056-2.169" fill="#fff" stroke="#fff" stroke-width=".552" stroke-linecap="round"/><path d="M43.255 50.145l7.504-7.647m-6.356 7.647l-5.076-5.076" fill="none" stroke="#fff" stroke-width=".497" stroke-linecap="round"/><path d="M43.437 49.726l7.63-2.152" fill="red" fill-rule="evenodd" stroke="red" stroke-width=".497" stroke-linecap="round"/></svg>