<svg xmlns="http://www.w3.org/2000/svg" xmlns:xlink="http://www.w3.org/1999/xlink" width="64" height="64" version="1"><defs><linearGradient xlink:href="#a" id="f" x1="22.47" y1="7.74" x2="25.53" y2="7.74" gradientUnits="userSpaceOnUse" gradientTransform="translate(-.4 -.9) scale(1.35525)"/><linearGradient id="a"><stop offset="0"/><stop offset="1" stop-color="#4d4d4d"/></linearGradient><radialGradient xlink:href="#b" id="e" cx="17.95" cy="19.97" fx="17.95" fy="19.97" r="13.89" gradientTransform="matrix(1.84838 1.26999 -1.11952 1.62938 9.88 -34.03)" gradientUnits="userSpaceOnUse"/><linearGradient id="b"><stop offset="0" stop-color="#333"/><stop offset="1"/></linearGradient><linearGradient x1="24.14" y1="20.27" x2="24.14" y2="26.01" id="i" xlink:href="#c" gradientUnits="userSpaceOnUse" gradientTransform="matrix(.896 0 0 1.15861 16.656 20.903)"/><linearGradient id="c"><stop offset="0" stop-color="#fff"/><stop offset="0" stop-color="#fff" stop-opacity=".24"/><stop offset="1" stop-color="#fff" stop-opacity=".16"/><stop offset="1" stop-color="#fff" stop-opacity=".39"/></linearGradient><linearGradient x1="24.14" y1="9.71" x2="24.14" y2="36.59" id="h" xlink:href="#c" gradientUnits="userSpaceOnUse" gradientTransform="matrix(1.18611 0 0 .88692 10.226 27.233)"/><radialGradient cx="65.6" cy="48.74" r="31" fx="65.6" fy="48.74" id="g" xlink:href="#d" gradientUnits="userSpaceOnUse" gradientTransform="matrix(0 1.36253 -1.48226 0 108.826 -55.717)"/><linearGradient id="d"><stop offset="0" stop-color="#0f0"/><stop offset=".26" stop-color="green"/><stop offset=".66" stop-color="#68b723"/><stop offset="1" stop-color="#1d7e0d"/></linearGradient></defs><path d="M12.86 59.67L12.55 24c0-.24.05-.47.16-.68L19.97 9.3a2.88 2.88 0 0 1 2.53-1.56l18.86-.16a2.88 2.88 0 0 1 2.61 1.62L51 23.68c.09.2.14.4.14.62l.31 35.02a2.88 2.88 0 0 1-2.85 2.9l-32.83.3a2.88 2.88 0 0 1-2.9-2.85zm22.38-38.42a4.32 4.32 0 1 0-6.15-6.05 4.32 4.32 0 0 0 6.15 6.05z" fill="url(#e)"/><path d="M28.14 14.27a5.64 5.64 0 1 1 8.05 7.9 5.64 5.64 0 0 1-8.05-7.9zm6.44 6.32a3.39 3.39 0 1 0-4.83-4.74 3.39 3.39 0 0 0 4.83 4.74z" opacity=".32" fill="#b5b5b6"/><path d="M29 15.11a4.44 4.44 0 1 1 6.33 6.22A4.44 4.44 0 0 1 29 15.11zm5.52 5.43a3.3 3.3 0 1 0-4.71-4.63 3.3 3.3 0 0 0 4.71 4.63z" fill="#1a1a1a"/><rect width="4.15" height="16.22" x="30.05" y="1.48" ry="1.75" fill="url(#f)" fill-rule="evenodd"/><path overflow="visible" style="marker:none" d="M31.756 42.803v-8.57h9.94v8.57h8.53v9.93h-8.53v8.53h-9.94v-8.53h-8.53v-9.93z" color="#000" fill="url(#g)"/><path d="M32.546 45.463v-10.36h8.42v10.36m0 4.6v10.37h-8.42v-10.37" opacity=".5" fill="none" stroke="url(#h)" stroke-width="1.7"/><path d="M41.196 43.583l8.22-.03v8.27l-8.2.04m-8.96 0l-8.21-.04v-8.27l8.2.03" opacity=".5" fill="none" stroke="url(#i)" stroke-width="1.58"/></svg>