<svg xmlns="http://www.w3.org/2000/svg" xmlns:xlink="http://www.w3.org/1999/xlink" width="64" height="64" version="1"><defs><linearGradient id="b"><stop offset="0" stop-color="#14ddb1"/><stop offset="1" stop-color="#2086e7"/></linearGradient><linearGradient id="a"><stop offset="0" stop-color="#4d4d4d"/><stop offset="1"/></linearGradient><linearGradient xlink:href="#c" id="f" x1="22.47" y1="7.74" x2="25.53" y2="7.74" gradientUnits="userSpaceOnUse" gradientTransform="matrix(1.35525 0 0 1.35525 -.4 -.9)"/><linearGradient id="c"><stop offset="0"/><stop offset="1" stop-color="#4d4d4d"/></linearGradient><radialGradient xlink:href="#d" id="e" cx="17.95" cy="19.97" fx="17.95" fy="19.97" r="13.89" gradientTransform="matrix(1.84838 1.26999 -1.11952 1.62938 9.88 -34.03)" gradientUnits="userSpaceOnUse"/><linearGradient id="d"><stop offset="0" stop-color="#333"/><stop offset="1"/></linearGradient></defs><path d="M12.86 59.67L12.55 24c0-.24.05-.47.16-.68l7.26-14.02a2.88 2.88 0 0 1 2.53-1.56l18.86-.16a2.88 2.88 0 0 1 2.61 1.62L51 23.68c.09.2.14.4.14.62l.31 35.02a2.88 2.88 0 0 1-2.85 2.9l-32.83.3a2.88 2.88 0 0 1-2.9-2.85zm22.38-38.42a4.32 4.32 0 1 0-6.15-6.05 4.32 4.32 0 0 0 6.15 6.05z" fill="url(#e)"/><path d="M28.14 14.27a5.64 5.64 0 1 1 8.05 7.9 5.64 5.64 0 0 1-8.05-7.9zm6.44 6.32a3.39 3.39 0 1 0-4.83-4.74 3.39 3.39 0 0 0 4.83 4.74z" opacity=".32" fill="#b5b5b6"/><path d="M29 15.11a4.44 4.44 0 1 1 6.33 6.22A4.44 4.44 0 0 1 29 15.11zm5.52 5.43a3.3 3.3 0 1 0-4.71-4.63 3.3 3.3 0 0 0 4.71 4.63z" fill="#1a1a1a"/><rect width="4.15" height="16.22" x="30.05" y="1.48" ry="1.75" fill="url(#f)" fill-rule="evenodd"/></svg>