<svg xmlns="http://www.w3.org/2000/svg" xmlns:xlink="http://www.w3.org/1999/xlink" width="64" height="64" version="1"><defs><linearGradient id="c"><stop offset="0" stop-color="#fff"/><stop offset="0" stop-color="#fff" stop-opacity=".24"/><stop offset="1" stop-color="#fff" stop-opacity=".16"/><stop offset="1" stop-color="#fff" stop-opacity=".39"/></linearGradient><linearGradient id="b"><stop offset="0" stop-color="#0f0"/><stop offset=".26" stop-color="green"/><stop offset=".66" stop-color="#68b723"/><stop offset="1" stop-color="#1d7e0d"/></linearGradient><linearGradient id="a"><stop offset="0"/><stop offset="1" stop-color="#fff"/></linearGradient><linearGradient id="d"><stop offset="0"/><stop offset=".26"/><stop stop-color="#4d4d4d" offset=".66"/><stop offset="1"/></linearGradient><linearGradient gradientTransform="translate(-.618 1.072) scale(2.67587)" y2="2" x2="9" y1="22" x1="9" gradientUnits="userSpaceOnUse" id="g" xlink:href="#e"/><linearGradient id="e"><stop offset="0"/><stop offset="1" stop-color="#333"/></linearGradient><linearGradient y2="16" x2="6" y1="8" x1="14" gradientUnits="userSpaceOnUse" id="i" xlink:href="#f"/><linearGradient id="f"><stop offset="0" stop-color="#fff"/><stop offset=".125" stop-color="#fff" stop-opacity="0"/><stop offset="1" stop-color="#fff" stop-opacity="0"/></linearGradient><clipPath id="h"><path d="M8 2.686v14l3.133-3.82 2.066 4.986a1 1 0 1 0 1.848-.766l-2.111-5.096 4.378.01z" fill="#333" fill-rule="evenodd" stroke-width="2"/></clipPath></defs><path d="M20.79 13.61v37.462l8.382-10.222 5.53 13.342a2.676 2.676 0 1 0 4.944-2.048l-5.65-13.636 11.717.026z" opacity=".2" fill-rule="evenodd" stroke="#000" stroke-width="4.014" stroke-linejoin="round"/><path d="M18.113 10.934v37.462l8.383-10.222 5.53 13.343a2.676 2.676 0 1 0 4.944-2.05l-5.65-13.635 11.718.026z" fill="gray" fill-rule="evenodd" stroke="gray" stroke-width="4.014"/><path d="M18.113 10.934v37.462l8.383-10.222 5.53 13.343a2.676 2.676 0 1 0 4.944-2.05l-5.65-13.635 11.718.026z" fill="url(#g)" fill-rule="evenodd"/><path d="M8 2.686v14l3.133-3.82 2.066 4.986a1 1 0 1 0 1.848-.766l-2.111-5.096 4.378.01z" clip-path="url(#h)" transform="translate(-3.294 3.748) scale(2.67587)" opacity=".4" fill="none" stroke="url(#i)" stroke-width="2"/></svg>