<svg xmlns="http://www.w3.org/2000/svg" xmlns:xlink="http://www.w3.org/1999/xlink" width="64" height="64" viewBox="0 0 16.93 16.93"><defs><linearGradient id="f"><stop offset="0"/><stop offset="1" stop-color="#4d4d4d"/></linearGradient><linearGradient id="a"><stop offset="0" stop-color="#fff" stop-opacity=".33"/><stop offset="1" stop-color="#fff" stop-opacity=".6"/></linearGradient><linearGradient id="b"><stop offset="0" stop-color="#333"/><stop offset=".49"/><stop offset="1" stop-color="#1a1a1a"/></linearGradient><linearGradient x1="21.13" y1="14.63" x2="29" y2="28" id="i" xlink:href="#a" gradientUnits="userSpaceOnUse" gradientTransform="translate(-2.18 -1.33) scale(.44349)"/><linearGradient xlink:href="#a" id="h" gradientUnits="userSpaceOnUse" gradientTransform="translate(-2.18 -1.3) scale(.44349)" x1="21.13" y1="14.63" x2="29" y2="28"/><linearGradient xlink:href="#b" id="g" gradientUnits="userSpaceOnUse" gradientTransform="translate(-2.61 -.41) scale(1.75147)" x1="3.38" y1="8.18" x2="9.44" y2="2.12"/><linearGradient xlink:href="#c" id="j" gradientUnits="userSpaceOnUse" gradientTransform="matrix(.03935 0 0 .03923 -36.25 -4.15)" x1="1316.36" y1="335.24" x2="1328.43" y2="323.17"/><linearGradient id="c"><stop offset="0" stop-color="#888"/><stop offset="1" stop-color="#888" stop-opacity="0"/></linearGradient><linearGradient xlink:href="#d" id="k" gradientUnits="userSpaceOnUse" gradientTransform="matrix(.03893 0 0 .03888 -35.8 -3.94)" x1="1123.93" y1="457.37" x2="1166.47" y2="416.85"/><linearGradient id="d"><stop offset="0" stop-color="#ddd"/><stop offset="1"/></linearGradient><linearGradient gradientTransform="matrix(.0838 0 0 .0838 -112.15 -5.96)" xlink:href="#e" id="m" x1="1480.38" y1="204.04" x2="1480.38" y2="160.58" gradientUnits="userSpaceOnUse"/><linearGradient id="e"><stop offset="0" stop-color="#bf0303"/><stop offset="1" stop-color="#e20800"/></linearGradient><linearGradient xlink:href="#e" id="n" gradientUnits="userSpaceOnUse" x1="1242.43" y1="449.11" x2="1242.43" y2="352.73" gradientTransform="matrix(.03935 0 0 .03935 -36.35 -4.07)"/><linearGradient xlink:href="#f" id="l" x1="9.91" y1="13.5" x2="15.03" y2="8.38" gradientUnits="userSpaceOnUse"/></defs><path d="M8.47 1.07a7.36 7.36 0 0 0-7.4 7.4 7.36 7.36 0 0 0 7.4 7.39 7.36 7.36 0 0 0 7.4-7.4 7.36 7.36 0 0 0-7.4-7.39zm0 5.53a1.85 1.86 0 0 1 .2 0 1.85 1.86 0 0 1 .17.03 1.85 1.86 0 0 1 .18.05 1.85 1.86 0 0 1 .18.06 1.85 1.86 0 0 1 .16.08 1.85 1.86 0 0 1 .16.1 1.85 1.86 0 0 1 .15.11 1.85 1.86 0 0 1 .13.13 1.85 1.86 0 0 1 .13.14 1.85 1.86 0 0 1 .1.15 1.85 1.86 0 0 1 .1.16 1.85 1.86 0 0 1 .07.17 1.85 1.86 0 0 1 .06.18 1.85 1.86 0 0 1 .04.18 1.85 1.86 0 0 1 .02.19 1.85 1.86 0 0 1 0 .13 1.85 1.86 0 0 1 0 .19 1.85 1.86 0 0 1-.03.18 1.85 1.86 0 0 1-.05.18 1.85 1.86 0 0 1-.06.18 1.85 1.86 0 0 1-.08.16 1.85 1.86 0 0 1-.1.16 1.85 1.86 0 0 1-.1.15 1.85 1.86 0 0 1-.14.14 1.85 1.86 0 0 1-.13.12 1.85 1.86 0 0 1-.15.1 1.85 1.86 0 0 1-.16.1 1.85 1.86 0 0 1-.17.08 1.85 1.86 0 0 1-.18.06 1.85 1.86 0 0 1-.18.04 1.85 1.86 0 0 1-.18.02 1.85 1.86 0 0 1-.13 0 1.85 1.86 0 0 1-.19 0 1.85 1.86 0 0 1-.18-.03 1.85 1.86 0 0 1-.18-.05 1.85 1.86 0 0 1-.17-.06 1.85 1.86 0 0 1-.17-.08 1.85 1.86 0 0 1-.16-.1 1.85 1.86 0 0 1-.14-.11 1.85 1.86 0 0 1-.14-.13 1.85 1.86 0 0 1-.12-.14 1.85 1.86 0 0 1-.1-.15 1.85 1.86 0 0 1-.1-.16 1.85 1.86 0 0 1-.07-.17 1.85 1.86 0 0 1-.06-.18 1.85 1.86 0 0 1-.04-.18 1.85 1.86 0 0 1-.03-.19 1.85 1.86 0 0 1 0-.13 1.85 1.86 0 0 1 0-.19 1.85 1.86 0 0 1 .04-.18 1.85 1.86 0 0 1 .04-.18 1.85 1.86 0 0 1 .07-.18 1.85 1.86 0 0 1 .08-.16 1.85 1.86 0 0 1 .1-.16 1.85 1.86 0 0 1 .1-.15 1.85 1.86 0 0 1 .13-.14A1.85 1.86 0 0 1 7.33 7a1.85 1.86 0 0 1 .15-.1 1.85 1.86 0 0 1 .16-.1 1.85 1.86 0 0 1 .17-.08 1.85 1.86 0 0 1 .17-.06 1.85 1.86 0 0 1 .18-.04 1.85 1.86 0 0 1 .19-.02 1.85 1.86 0 0 1 .13 0z" fill="url(#g)"/><path d="M10.44 1.62L9.17 6.6c.39.1.7.35.93.7l4.4-2.7a6.7 6.7 0 0 0-4.06-2.98z" fill="url(#h)"/><path d="M5.97 15.11l1.68-4.85a1.58 1.58 0 0 1-.88-.77l-4.6 2.31a6.7 6.7 0 0 0 3.8 3.31z" fill="url(#i)"/><path d="M8.43 5.42a3.04 3.02 0 0 0-3.04 3.02 3.04 3.02 0 0 0 3.04 3.03 3.04 3.02 0 0 0 3.04-3.03 3.04 3.02 0 0 0-3.04-3.02zm.04 1.64a1.38 1.4 0 0 1 .13 0 1.38 1.4 0 0 1 .14.03 1.38 1.4 0 0 1 .13.03 1.38 1.4 0 0 1 .13.05 1.38 1.4 0 0 1 .13.06 1.38 1.4 0 0 1 .12.07 1.38 1.4 0 0 1 .1.09 1.38 1.4 0 0 1 .1.1 1.38 1.4 0 0 1 .1.1 1.38 1.4 0 0 1 .08.11 1.38 1.4 0 0 1 .07.12 1.38 1.4 0 0 1 .06.13 1.38 1.4 0 0 1 .04.13 1.38 1.4 0 0 1 .03.14 1.38 1.4 0 0 1 .02.14 1.38 1.4 0 0 1 0 .1 1.38 1.4 0 0 1 0 .14 1.38 1.4 0 0 1-.03.13 1.38 1.4 0 0 1-.03.14 1.38 1.4 0 0 1-.05.13 1.38 1.4 0 0 1-.06.13 1.38 1.4 0 0 1-.07.11 1.38 1.4 0 0 1-.09.12 1.38 1.4 0 0 1-.09.1 1.38 1.4 0 0 1-.1.09 1.38 1.4 0 0 1-.12.08 1.38 1.4 0 0 1-.12.07 1.38 1.4 0 0 1-.12.06 1.38 1.4 0 0 1-.13.04 1.38 1.4 0 0 1-.14.03 1.38 1.4 0 0 1-.14.02 1.38 1.4 0 0 1-.1 0 1.38 1.4 0 0 1-.13 0 1.38 1.4 0 0 1-.14-.03 1.38 1.4 0 0 1-.13-.03 1.38 1.4 0 0 1-.13-.05 1.38 1.4 0 0 1-.13-.06 1.38 1.4 0 0 1-.12-.07 1.38 1.4 0 0 1-.1-.09 1.38 1.4 0 0 1-.1-.1 1.38 1.4 0 0 1-.1-.1 1.38 1.4 0 0 1-.08-.1 1.38 1.4 0 0 1-.07-.13 1.38 1.4 0 0 1-.05-.13 1.38 1.4 0 0 1-.05-.13 1.38 1.4 0 0 1-.03-.14 1.38 1.4 0 0 1-.02-.14 1.38 1.4 0 0 1 0-.1 1.38 1.4 0 0 1 0-.13 1.38 1.4 0 0 1 .03-.14 1.38 1.4 0 0 1 .03-.14 1.38 1.4 0 0 1 .05-.13 1.38 1.4 0 0 1 .06-.12 1.38 1.4 0 0 1 .07-.12 1.38 1.4 0 0 1 .09-.11 1.38 1.4 0 0 1 .1-.1 1.38 1.4 0 0 1 .1-.1 1.38 1.4 0 0 1 .1-.08 1.38 1.4 0 0 1 .13-.07 1.38 1.4 0 0 1 .12-.06 1.38 1.4 0 0 1 .14-.04 1.38 1.4 0 0 1 .13-.03 1.38 1.4 0 0 1 .14-.02 1.38 1.4 0 0 1 .1 0z" fill="#1a1a1a" stroke="#000" stroke-width=".25" stroke-opacity=".01"/><path d="M9.13 12.67L7.9 13.9l2.42 2.42 1.23-1.23z" fill="#888"/><path d="M14.97 7.5h-.82l2.54 2.57v-.89z" fill="#bbb"/><path d="M14.97 7.5h-.82l2.52 2.55v-.88z" fill="url(#j)"/><path d="M9.17 12.63l-1.22 1.21 2.36 2.37 1.22-1.22z" fill="url(#k)"/><path d="M15.03 8.38L9.91 13.5l.8.8 5.1-5.12.89.88-1.67-1.68z" fill="url(#l)"/><path d="M14.15 7.5l-5.13 5.12.89.88 5.12-5.12z" fill="url(#m)"/><path d="M15.82 9.18L10.7 14.3l.88.89 5.12-5.12z" fill="url(#n)"/><path d="M11.56 15.2l5.01-5.01-5 4.95-2.33-2.3 2.32 2.36z" fill="#00142d"/></svg>