<svg xmlns="http://www.w3.org/2000/svg" xmlns:xlink="http://www.w3.org/1999/xlink" height="64" width="64" version="1"><defs><linearGradient id="e"><stop offset="0" stop-color="#2b1100"/><stop offset="1" stop-color="#fff"/></linearGradient><linearGradient id="c"><stop offset="0" stop-color="gray"/><stop offset="1"/></linearGradient><linearGradient id="a"><stop offset="0" stop-color="#fff"/><stop offset=".01" stop-color="#fff" stop-opacity=".24"/><stop offset=".99" stop-color="#fff" stop-opacity=".16"/><stop offset="1" stop-color="#fff" stop-opacity=".39"/></linearGradient><linearGradient id="b"><stop offset="0" stop-color="#f4f4f4"/><stop offset="1" stop-color="#dbdbdb"/></linearGradient><linearGradient gradientTransform="matrix(1.54054 0 0 1.21621 -4.97 5.81)" gradientUnits="userSpaceOnUse" xlink:href="#a" id="g" y2="42.1" x2="24" y1="5.86" x1="24"/><linearGradient gradientTransform="matrix(1.65714 0 0 .9995 -7.77 9.48)" gradientUnits="userSpaceOnUse" xlink:href="#b" id="f" y2="47.01" x2="25.13" y1=".99" x1="25.13"/><linearGradient gradientTransform="matrix(.63434 0 0 .49147 -74.22 -62.83)" gradientUnits="userSpaceOnUse" xlink:href="#c" id="h" y2="156.78" x2="164.28" y1="241.65" x1="164.28"/><linearGradient id="d"><stop offset="0" stop-color="#fff3cb"/><stop offset=".26" stop-color="#fdde76"/><stop offset=".66" stop-color="#f9c440"/><stop offset="1" stop-color="#e48b20"/></linearGradient><linearGradient xlink:href="#e" id="i" x1="2.5" y1="58.5" x2="2.32" y2="24.29" gradientUnits="userSpaceOnUse"/></defs><path d="M3 12h58v46H3V12z" fill="url(#f)"/><path d="M60.5 57.5h-57v-45h57z" fill="none" stroke="url(#g)" stroke-linecap="round"/><path d="M2.5 11.5h59v47h-59v-47z" fill="#1a1a1a"/><path style="marker:none" color="#000" overflow="visible" fill="url(#h)" d="M5 14h54v42H5z"/><path d="M5 43.08V56h54v-7.76L48.86 38.09 36.6 49.98 17.52 28.37z" fill="url(#i)"/><path d="M58.71 56H59V33.76c-1.55-3.16-3.16-5.91-4.63-7.37-1.94-1.94-2.03-2.23-.55-1.8.82.26.88.2.83-.65-.05-.9-.02-.88.73.12.6.82 1.3 1.13 3.22 1.46l.4.06v-7.96h-1.57l1.27-.56.3-.17v-2.7l-.85-.16h-3.72l-3.66 1.63-.22-1.14c-.02-.14-.08-.32-.12-.5h-5.68v.03l-.1-.02H33.82c-.01.09 0 .18.04.27.14.3.56.34 1.1.1.48-.2.94-.23 1.02-.05.08.18-.08.43-.37.55-.68.3-.6.42 1.03 1.55 1.27.87 1.52.9 2.86.3 1.17-.5 1.48-.51 1.5-.05.02.34.24.5.52.4.26-.1.19.1-.16.44-.42.42-.5.79-.2 1.06.37.35.03.6-2.25 1.6a22.31 22.31 0 0 0-7.55 5.36c-1.08 1.26-3.11 5.52-2.88 6.03.07.14.68.02 1.35-.28 1-.44 1.23-.73 1.2-1.62l-.01-1.08.5.73.53.73.42-1.34c.39-1.25.43-1.28.6-.5.1.52.4.82.75.8.43-.03.56.16.5.74-.05.7.08.72 1.43.13 1.19-.52 1.55-.9 1.84-1.9l.36-1.24.49.98c.46.92.49.93.7.1.18-.74.24-.78.47-.3.18.4.55.43 1.35.08 1-.45.96-.3-.74 2.25-1 1.5-2.43 4.3-3.16 6.24-1.27 3.36-2.63 9.03-2.1 8.8.73-.32 3.78-3 3.68-3.22a6.02 6.02 0 0 1-.17-1.36c-.05-1.1-.04-1.1.6-.5.9.86 1.63.4 1.6-1-.03-1.23.43-1.77.8-.95.2.4.36.35.94-.27.52-.57.58-1 .23-1.75-.43-.92-.4-.97.28-.6.79.4 1.49-.1 1.14-.85-.13-.28.13-.5.76-.66.53-.12.95-.11.94.03a85.6 85.6 0 0 0-.06 10.12c.22 2.54 1.5 7.13 1.92 6.94.1-.04.66-1.57 1.22-3.4.66-2.12.89-3.51.6-3.84-.3-.37-.21-.6.38-.86.93-.4 1.39-2.24.72-2.87-.32-.3-.27-.43.2-.46.83-.06.73-.28-.6-1.28-1.04-.8-1.05-.8-.1-.53.52.15 1.05.23 1.18.17.37-.16-.3-1.37-.8-1.43-.24-.03-.52-.2-.6-.4-.11-.22.09-.28.54-.17 1.25.32 1.73-.58.89-1.67A5.04 5.04 0 0 0 50 32.9c-.33-.16-.2-.3.47-.45.58-.14.88-.38.77-.61-.1-.21 0-.37.25-.34.23.03.54-.63.68-1.46s.35-1.56.46-1.6c3.2 3.22 5.52 18.54 6.07 27.56zM43.36 24.22a.32.32 0 0 1 .03 0c.38.05.44.98 0 1.5a3.6 3.6 0 0 1-.72.75c-.3.13.23-2.06.54-2.21a.32.32 0 0 1 .15-.04z"/></svg>